M48
; DRILL file {KiCad (6.0.9)} date 2023年01月09日 12時39分33秒
; FORMAT={-:-/ absolute / metric / decimal}
; #@! TF.CreationDate,2023-01-09T12:39:33+09:00
; #@! TF.GenerationSoftware,Kicad,Pcbnew,(6.0.9)
; #@! TF.FileFunction,MixedPlating,1,2
FMAT,2
METRIC
; #@! TA.AperFunction,Plated,PTH,ViaDrill
T1C0.400
; #@! TA.AperFunction,Plated,PTH,ComponentDrill
T2C0.600
; #@! TA.AperFunction,Plated,PTH,ComponentDrill
T3C1.000
; #@! TA.AperFunction,NonPlated,NPTH,ComponentDrill
T4C0.650
; #@! TA.AperFunction,NonPlated,NPTH,ComponentDrill
T5C1.200
; #@! TA.AperFunction,NonPlated,NPTH,ComponentDrill
T6C1.900
; #@! TA.AperFunction,NonPlated,NPTH,ComponentDrill
T7C3.000
; #@! TA.AperFunction,NonPlated,NPTH,ComponentDrill
T8C4.100
%
G90
G05
T1
X27.8Y-24.2
X41.1Y-97.1
X47.625Y-45.25
X48.475Y-77.35
X48.65Y-61.95
X58.55Y-96.9
X64.3Y-75.9
X64.6Y-45.4
X65.0Y-62.675
X76.3Y-96.25
X80.85Y-62.575
X80.976Y-80.526
X81.044Y-93.298
X81.132Y-92.302
X81.556Y-91.397
X81.841Y-90.439
X81.977Y-89.449
X82.125Y-45.425
X82.2Y-88.474
X84.6Y-84.6
X85.215Y-69.0
X85.25Y-35.9
X86.143Y-68.025
X86.2Y-98.075
X86.225Y-52.1
X86.625Y-80.075
X87.056Y-80.976
X87.325Y-82.025
X87.513Y-98.137
X88.552Y-98.216
X88.975Y-80.4
X89.675Y-98.175
X90.95Y-98.2
X91.175Y-83.475
X92.175Y-82.925
X93.212Y-83.062
X93.644Y-82.161
X94.175Y-100.275
X94.425Y-31.95
X95.425Y-29.0
X96.775Y-87.275
X97.712Y-52.162
X98.2Y-91.625
X98.5Y-86.325
X98.875Y-52.0
X99.3Y-92.1
X99.35Y-34.9
X99.381Y-78.249
X100.05Y-86.95
X100.1Y-93.0
X100.685Y-93.81
X101.025Y-88.95
X103.7Y-34.45
X108.2Y-32.8
X114.7Y-86.8
X114.7Y-88.0
X114.825Y-85.6
T4
X92.86Y-24.79
X98.64Y-24.79
T5
X26.45Y-20.775
X26.45Y-27.775
T6
X28.57Y-91.7
X35.32Y-56.85
X35.37Y-39.825
X35.37Y-73.85
X38.73Y-91.7
X45.48Y-56.85
X45.53Y-39.825
X45.53Y-73.85
X45.57Y-91.7
X52.345Y-73.85
X52.355Y-56.855
X52.395Y-39.85
X55.73Y-91.7
X62.505Y-73.85
X62.515Y-56.855
X62.555Y-39.85
X62.57Y-91.725
X69.37Y-39.825
X69.37Y-56.85
X69.37Y-73.85
X72.73Y-91.725
X79.53Y-39.825
X79.53Y-56.85
X79.53Y-73.85
X86.355Y-76.39
X86.37Y-42.4
X86.37Y-59.375
X96.515Y-76.39
X96.53Y-42.4
X96.53Y-59.375
X103.37Y-63.65
X103.37Y-80.65
X103.395Y-46.65
X113.53Y-63.65
X113.53Y-80.65
X113.555Y-46.65
T7
X29.84Y-89.16
X36.19Y-86.62
X36.59Y-54.31
X36.64Y-37.285
X36.64Y-71.31
X42.94Y-51.77
X42.99Y-34.745
X42.99Y-68.77
X46.84Y-89.16
X53.19Y-86.62
X53.615Y-71.31
X53.625Y-54.315
X53.665Y-37.31
X59.965Y-68.77
X59.975Y-51.775
X60.015Y-34.77
X63.84Y-89.185
X70.19Y-86.645
X70.64Y-37.285
X70.64Y-54.31
X70.64Y-71.31
X76.99Y-34.745
X76.99Y-51.77
X76.99Y-68.77
X87.625Y-73.85
X87.64Y-39.86
X87.64Y-56.835
X93.975Y-71.31
X93.99Y-37.32
X93.99Y-54.295
X104.64Y-61.11
X104.64Y-78.11
X104.665Y-44.11
X110.99Y-58.57
X110.99Y-75.57
X111.015Y-41.57
T8
X33.65Y-91.7
X40.4Y-56.85
X40.45Y-39.825
X40.45Y-73.85
X50.65Y-91.7
X57.425Y-73.85
X57.435Y-56.855
X57.475Y-39.85
X67.65Y-91.725
X74.45Y-39.825
X74.45Y-56.85
X74.45Y-73.85
X91.435Y-76.39
X91.45Y-42.4
X91.45Y-59.375
X108.45Y-63.65
X108.45Y-80.65
X108.475Y-46.65
T2
G00X91.43Y-20.71
M15
G01X91.43Y-21.51
M16
G05
G00X91.43Y-24.74
M15
G01X91.43Y-25.84
M16
G05
G00X100.07Y-20.71
M15
G01X100.07Y-21.51
M16
G05
G00X100.07Y-24.74
M15
G01X100.07Y-25.84
M16
G05
T3
G00X24.35Y-22.825
M15
G01X24.35Y-22.325
M16
G05
G00X24.35Y-25.825
M15
G01X24.35Y-25.325
M16
G05
G00X24.35Y-29.825
M15
G01X24.35Y-29.325
M16
G05
G00X28.55Y-31.325
M15
G01X28.55Y-30.825
M16
G05
T0
M30
