%TF.GenerationSoftware,KiCad,Pcbnew,(6.0.6)*%
%TF.CreationDate,2022-11-27T23:56:06+09:00*%
%TF.ProjectId,split-mini,73706c69-742d-46d6-996e-692e6b696361,rev?*%
%TF.SameCoordinates,Original*%
%TF.FileFunction,Legend,Bot*%
%TF.FilePolarity,Positive*%
%FSLAX46Y46*%
G04 Gerber Fmt 4.6, Leading zero omitted, Abs format (unit mm)*
G04 Created by KiCad (PCBNEW (6.0.6)) date 2022-11-27 23:56:06*
%MOMM*%
%LPD*%
G01*
G04 APERTURE LIST*
G04 Aperture macros list*
%AMRoundRect*
0 Rectangle with rounded corners*
0 $1 Rounding radius*
0 $2 $3 $4 $5 $6 $7 $8 $9 X,Y pos of 4 corners*
0 Add a 4 corners polygon primitive as box body*
4,1,4,$2,$3,$4,$5,$6,$7,$8,$9,$2,$3,0*
0 Add four circle primitives for the rounded corners*
1,1,$1+$1,$2,$3*
1,1,$1+$1,$4,$5*
1,1,$1+$1,$6,$7*
1,1,$1+$1,$8,$9*
0 Add four rect primitives between the rounded corners*
20,1,$1+$1,$2,$3,$4,$5,0*
20,1,$1+$1,$4,$5,$6,$7,0*
20,1,$1+$1,$6,$7,$8,$9,0*
20,1,$1+$1,$8,$9,$2,$3,0*%
%AMHorizOval*
0 Thick line with rounded ends*
0 $1 width*
0 $2 $3 position (X,Y) of the first rounded end (center of the circle)*
0 $4 $5 position (X,Y) of the second rounded end (center of the circle)*
0 Add line between two ends*
20,1,$1,$2,$3,$4,$5,0*
0 Add two circle primitives to create the rounded ends*
1,1,$1,$2,$3*
1,1,$1,$4,$5*%
G04 Aperture macros list end*
%TA.AperFunction,Profile*%
%ADD10C,0.100000*%
%TD*%
%ADD11C,0.300000*%
%ADD12C,0.100000*%
%ADD13C,0.150000*%
%ADD14C,0.120000*%
%ADD15C,1.600000*%
%ADD16C,0.350000*%
%ADD17HorizOval,1.000000X-0.051978X-0.244537X0.051978X0.244537X0*%
%ADD18R,0.950000X1.300000*%
%ADD19C,1.701800*%
%ADD20C,3.987800*%
%ADD21C,3.000000*%
%ADD22RoundRect,0.200000X-1.075000X-1.050000X1.075000X-1.050000X1.075000X1.050000X-1.075000X1.050000X0*%
%ADD23C,5.000000*%
%ADD24C,1.200000*%
%ADD25HorizOval,1.700000X-0.083165X-0.391259X0.083165X0.391259X0*%
G04 APERTURE END LIST*
D10*
X113700000Y-47980000D02*
X48706692Y-33440758D01*
X114481692Y-117888869D02*
X114481692Y-48955880D01*
X25706692Y-23513892D02*
G75*
G03*
X24706692Y-24513869I8J-1000008D01*
G01*
X113481692Y-118888892D02*
G75*
G03*
X114481692Y-117888869I8J999992D01*
G01*
X114481737Y-48955880D02*
G75*
G03*
X113700000Y-47980000I-1000137J-120D01*
G01*
X63592178Y-118888869D02*
X113481692Y-118888869D01*
X25488384Y-110389626D02*
X63373870Y-118864748D01*
X63373868Y-118864755D02*
G75*
G03*
X63592178Y-118888869I218232J975455D01*
G01*
X24706692Y-24513869D02*
X24706692Y-109413746D01*
X24706653Y-109413746D02*
G75*
G03*
X25488384Y-110389626I1000047J46D01*
G01*
X47706692Y-23513869D02*
X25706692Y-23513869D01*
X48706731Y-24513869D02*
G75*
G03*
X47706692Y-23513869I-1000031J-31D01*
G01*
X48706692Y-24513869D02*
X48706692Y-33440758D01*
D11*
X96347142Y-48685714D02*
X96232857Y-48742857D01*
X96004285Y-48742857D01*
X95890000Y-48685714D01*
X95832857Y-48571428D01*
X95832857Y-48514285D01*
X95890000Y-48400000D01*
X96004285Y-48342857D01*
X96175714Y-48342857D01*
X96290000Y-48285714D01*
X96347142Y-48171428D01*
X96347142Y-48114285D01*
X96290000Y-48000000D01*
X96175714Y-47942857D01*
X96004285Y-47942857D01*
X95890000Y-48000000D01*
X95318571Y-47942857D02*
X95318571Y-49142857D01*
X95318571Y-48000000D02*
X95204285Y-47942857D01*
X94975714Y-47942857D01*
X94861428Y-48000000D01*
X94804285Y-48057142D01*
X94747142Y-48171428D01*
X94747142Y-48514285D01*
X94804285Y-48628571D01*
X94861428Y-48685714D01*
X94975714Y-48742857D01*
X95204285Y-48742857D01*
X95318571Y-48685714D01*
X94061428Y-48742857D02*
X94175714Y-48685714D01*
X94232857Y-48571428D01*
X94232857Y-47542857D01*
X93604285Y-48742857D02*
X93604285Y-47942857D01*
X93604285Y-47542857D02*
X93661428Y-47600000D01*
X93604285Y-47657142D01*
X93547142Y-47600000D01*
X93604285Y-47542857D01*
X93604285Y-47657142D01*
X93204285Y-47942857D02*
X92747142Y-47942857D01*
X93032857Y-47542857D02*
X93032857Y-48571428D01*
X92975714Y-48685714D01*
X92861428Y-48742857D01*
X92747142Y-48742857D01*
X91432857Y-48742857D02*
X91432857Y-47942857D01*
X91432857Y-48057142D02*
X91375714Y-48000000D01*
X91261428Y-47942857D01*
X91090000Y-47942857D01*
X90975714Y-48000000D01*
X90918571Y-48114285D01*
X90918571Y-48742857D01*
X90918571Y-48114285D02*
X90861428Y-48000000D01*
X90747142Y-47942857D01*
X90575714Y-47942857D01*
X90461428Y-48000000D01*
X90404285Y-48114285D01*
X90404285Y-48742857D01*
X89832857Y-48742857D02*
X89832857Y-47942857D01*
X89832857Y-47542857D02*
X89890000Y-47600000D01*
X89832857Y-47657142D01*
X89775714Y-47600000D01*
X89832857Y-47542857D01*
X89832857Y-47657142D01*
X89261428Y-47942857D02*
X89261428Y-48742857D01*
X89261428Y-48057142D02*
X89204285Y-48000000D01*
X89090000Y-47942857D01*
X88918571Y-47942857D01*
X88804285Y-48000000D01*
X88747142Y-48114285D01*
X88747142Y-48742857D01*
X88175714Y-48742857D02*
X88175714Y-47942857D01*
X88175714Y-47542857D02*
X88232857Y-47600000D01*
X88175714Y-47657142D01*
X88118571Y-47600000D01*
X88175714Y-47542857D01*
X88175714Y-47657142D01*
X86690000Y-48742857D02*
X86690000Y-47942857D01*
X86690000Y-48171428D02*
X86632857Y-48057142D01*
X86575714Y-48000000D01*
X86461428Y-47942857D01*
X86347142Y-47942857D01*
X85490000Y-48685714D02*
X85604285Y-48742857D01*
X85832857Y-48742857D01*
X85947142Y-48685714D01*
X86004285Y-48571428D01*
X86004285Y-48114285D01*
X85947142Y-48000000D01*
X85832857Y-47942857D01*
X85604285Y-47942857D01*
X85490000Y-48000000D01*
X85432857Y-48114285D01*
X85432857Y-48228571D01*
X86004285Y-48342857D01*
X85032857Y-47942857D02*
X84747142Y-48742857D01*
X84461428Y-47942857D01*
X83775714Y-47542857D02*
X83661428Y-47542857D01*
X83547142Y-47600000D01*
X83490000Y-47657142D01*
X83432857Y-47771428D01*
X83375714Y-48000000D01*
X83375714Y-48285714D01*
X83432857Y-48514285D01*
X83490000Y-48628571D01*
X83547142Y-48685714D01*
X83661428Y-48742857D01*
X83775714Y-48742857D01*
X83890000Y-48685714D01*
X83947142Y-48628571D01*
X84004285Y-48514285D01*
X84061428Y-48285714D01*
X84061428Y-48000000D01*
X84004285Y-47771428D01*
X83947142Y-47657142D01*
X83890000Y-47600000D01*
X83775714Y-47542857D01*
X82861428Y-48628571D02*
X82804285Y-48685714D01*
X82861428Y-48742857D01*
X82918571Y-48685714D01*
X82861428Y-48628571D01*
X82861428Y-48742857D01*
X82118571Y-48057142D02*
X82232857Y-48000000D01*
X82290000Y-47942857D01*
X82347142Y-47828571D01*
X82347142Y-47771428D01*
X82290000Y-47657142D01*
X82232857Y-47600000D01*
X82118571Y-47542857D01*
X81890000Y-47542857D01*
X81775714Y-47600000D01*
X81718571Y-47657142D01*
X81661428Y-47771428D01*
X81661428Y-47828571D01*
X81718571Y-47942857D01*
X81775714Y-48000000D01*
X81890000Y-48057142D01*
X82118571Y-48057142D01*
X82232857Y-48114285D01*
X82290000Y-48171428D01*
X82347142Y-48285714D01*
X82347142Y-48514285D01*
X82290000Y-48628571D01*
X82232857Y-48685714D01*
X82118571Y-48742857D01*
X81890000Y-48742857D01*
X81775714Y-48685714D01*
X81718571Y-48628571D01*
X81661428Y-48514285D01*
X81661428Y-48285714D01*
X81718571Y-48171428D01*
X81775714Y-48114285D01*
X81890000Y-48057142D01*
X80232857Y-48628571D02*
X80175714Y-48685714D01*
X80232857Y-48742857D01*
X80290000Y-48685714D01*
X80232857Y-48628571D01*
X80232857Y-48742857D01*
X80232857Y-48000000D02*
X80175714Y-48057142D01*
X80232857Y-48114285D01*
X80290000Y-48057142D01*
X80232857Y-48000000D01*
X80232857Y-48114285D01*
X78232857Y-48742857D02*
X78232857Y-47542857D01*
X78232857Y-48685714D02*
X78347142Y-48742857D01*
X78575714Y-48742857D01*
X78690000Y-48685714D01*
X78747142Y-48628571D01*
X78804285Y-48514285D01*
X78804285Y-48171428D01*
X78747142Y-48057142D01*
X78690000Y-48000000D01*
X78575714Y-47942857D01*
X78347142Y-47942857D01*
X78232857Y-48000000D01*
X77204285Y-48685714D02*
X77318571Y-48742857D01*
X77547142Y-48742857D01*
X77661428Y-48685714D01*
X77718571Y-48571428D01*
X77718571Y-48114285D01*
X77661428Y-48000000D01*
X77547142Y-47942857D01*
X77318571Y-47942857D01*
X77204285Y-48000000D01*
X77147142Y-48114285D01*
X77147142Y-48228571D01*
X77718571Y-48342857D01*
X76690000Y-48685714D02*
X76575714Y-48742857D01*
X76347142Y-48742857D01*
X76232857Y-48685714D01*
X76175714Y-48571428D01*
X76175714Y-48514285D01*
X76232857Y-48400000D01*
X76347142Y-48342857D01*
X76518571Y-48342857D01*
X76632857Y-48285714D01*
X76690000Y-48171428D01*
X76690000Y-48114285D01*
X76632857Y-48000000D01*
X76518571Y-47942857D01*
X76347142Y-47942857D01*
X76232857Y-48000000D01*
X75661428Y-48742857D02*
X75661428Y-47942857D01*
X75661428Y-47542857D02*
X75718571Y-47600000D01*
X75661428Y-47657142D01*
X75604285Y-47600000D01*
X75661428Y-47542857D01*
X75661428Y-47657142D01*
X74575714Y-47942857D02*
X74575714Y-48914285D01*
X74632857Y-49028571D01*
X74690000Y-49085714D01*
X74804285Y-49142857D01*
X74975714Y-49142857D01*
X75090000Y-49085714D01*
X74575714Y-48685714D02*
X74690000Y-48742857D01*
X74918571Y-48742857D01*
X75032857Y-48685714D01*
X75090000Y-48628571D01*
X75147142Y-48514285D01*
X75147142Y-48171428D01*
X75090000Y-48057142D01*
X75032857Y-48000000D01*
X74918571Y-47942857D01*
X74690000Y-47942857D01*
X74575714Y-48000000D01*
X74004285Y-47942857D02*
X74004285Y-48742857D01*
X74004285Y-48057142D02*
X73947142Y-48000000D01*
X73832857Y-47942857D01*
X73661428Y-47942857D01*
X73547142Y-48000000D01*
X73490000Y-48114285D01*
X73490000Y-48742857D01*
X72461428Y-48685714D02*
X72575714Y-48742857D01*
X72804285Y-48742857D01*
X72918571Y-48685714D01*
X72975714Y-48571428D01*
X72975714Y-48114285D01*
X72918571Y-48000000D01*
X72804285Y-47942857D01*
X72575714Y-47942857D01*
X72461428Y-48000000D01*
X72404285Y-48114285D01*
X72404285Y-48228571D01*
X72975714Y-48342857D01*
X71375714Y-48742857D02*
X71375714Y-47542857D01*
X71375714Y-48685714D02*
X71490000Y-48742857D01*
X71718571Y-48742857D01*
X71832857Y-48685714D01*
X71890000Y-48628571D01*
X71947142Y-48514285D01*
X71947142Y-48171428D01*
X71890000Y-48057142D01*
X71832857Y-48000000D01*
X71718571Y-47942857D01*
X71490000Y-47942857D01*
X71375714Y-48000000D01*
X69890000Y-48742857D02*
X69890000Y-47542857D01*
X69890000Y-48000000D02*
X69775714Y-47942857D01*
X69547142Y-47942857D01*
X69432857Y-48000000D01*
X69375714Y-48057142D01*
X69318571Y-48171428D01*
X69318571Y-48514285D01*
X69375714Y-48628571D01*
X69432857Y-48685714D01*
X69547142Y-48742857D01*
X69775714Y-48742857D01*
X69890000Y-48685714D01*
X68918571Y-47942857D02*
X68632857Y-48742857D01*
X68347142Y-47942857D02*
X68632857Y-48742857D01*
X68747142Y-49028571D01*
X68804285Y-49085714D01*
X68918571Y-49142857D01*
X67147142Y-47942857D02*
X66690000Y-47942857D01*
X66975714Y-47542857D02*
X66975714Y-48571428D01*
X66918571Y-48685714D01*
X66804285Y-48742857D01*
X66690000Y-48742857D01*
X65775714Y-48742857D02*
X65775714Y-48114285D01*
X65832857Y-48000000D01*
X65947142Y-47942857D01*
X66175714Y-47942857D01*
X66290000Y-48000000D01*
X65775714Y-48685714D02*
X65890000Y-48742857D01*
X66175714Y-48742857D01*
X66290000Y-48685714D01*
X66347142Y-48571428D01*
X66347142Y-48457142D01*
X66290000Y-48342857D01*
X66175714Y-48285714D01*
X65890000Y-48285714D01*
X65775714Y-48228571D01*
X65204285Y-48742857D02*
X65204285Y-47942857D01*
X65204285Y-48057142D02*
X65147142Y-48000000D01*
X65032857Y-47942857D01*
X64861428Y-47942857D01*
X64747142Y-48000000D01*
X64690000Y-48114285D01*
X64690000Y-48742857D01*
X64690000Y-48114285D02*
X64632857Y-48000000D01*
X64518571Y-47942857D01*
X64347142Y-47942857D01*
X64232857Y-48000000D01*
X64175714Y-48114285D01*
X64175714Y-48742857D01*
X63090000Y-48742857D02*
X63090000Y-48114285D01*
X63147142Y-48000000D01*
X63261428Y-47942857D01*
X63490000Y-47942857D01*
X63604285Y-48000000D01*
X63090000Y-48685714D02*
X63204285Y-48742857D01*
X63490000Y-48742857D01*
X63604285Y-48685714D01*
X63661428Y-48571428D01*
X63661428Y-48457142D01*
X63604285Y-48342857D01*
X63490000Y-48285714D01*
X63204285Y-48285714D01*
X63090000Y-48228571D01*
X62004285Y-47942857D02*
X62004285Y-48914285D01*
X62061428Y-49028571D01*
X62118571Y-49085714D01*
X62232857Y-49142857D01*
X62404285Y-49142857D01*
X62518571Y-49085714D01*
X62004285Y-48685714D02*
X62118571Y-48742857D01*
X62347142Y-48742857D01*
X62461428Y-48685714D01*
X62518571Y-48628571D01*
X62575714Y-48514285D01*
X62575714Y-48171428D01*
X62518571Y-48057142D01*
X62461428Y-48000000D01*
X62347142Y-47942857D01*
X62118571Y-47942857D01*
X62004285Y-48000000D01*
X61261428Y-48742857D02*
X61375714Y-48685714D01*
X61432857Y-48628571D01*
X61490000Y-48514285D01*
X61490000Y-48171428D01*
X61432857Y-48057142D01*
X61375714Y-48000000D01*
X61261428Y-47942857D01*
X61090000Y-47942857D01*
X60975714Y-48000000D01*
X60918571Y-48057142D01*
X60861428Y-48171428D01*
X60861428Y-48514285D01*
X60918571Y-48628571D01*
X60975714Y-48685714D01*
X61090000Y-48742857D01*
X61261428Y-48742857D01*
X60461428Y-47542857D02*
X59718571Y-47542857D01*
X60118571Y-48000000D01*
X59947142Y-48000000D01*
X59832857Y-48057142D01*
X59775714Y-48114285D01*
X59718571Y-48228571D01*
X59718571Y-48514285D01*
X59775714Y-48628571D01*
X59832857Y-48685714D01*
X59947142Y-48742857D01*
X60290000Y-48742857D01*
X60404285Y-48685714D01*
X60461428Y-48628571D01*
X59261428Y-47657142D02*
X59204285Y-47600000D01*
X59090000Y-47542857D01*
X58804285Y-47542857D01*
X58690000Y-47600000D01*
X58632857Y-47657142D01*
X58575714Y-47771428D01*
X58575714Y-47885714D01*
X58632857Y-48057142D01*
X59318571Y-48742857D01*
X58575714Y-48742857D01*
X57547142Y-47942857D02*
X57547142Y-48742857D01*
X57832857Y-47485714D02*
X58118571Y-48342857D01*
X57375714Y-48342857D01*
D12*
%TO.C,U1*%
X43189047Y-31076904D02*
X43189047Y-30543571D01*
X43189047Y-30695952D02*
X43150952Y-30619761D01*
X43112857Y-30581666D01*
X43036666Y-30543571D01*
X42960476Y-30543571D01*
X42579523Y-31076904D02*
X42655714Y-31038809D01*
X42693809Y-31000714D01*
X42731904Y-30924523D01*
X42731904Y-30695952D01*
X42693809Y-30619761D01*
X42655714Y-30581666D01*
X42579523Y-30543571D01*
X42465238Y-30543571D01*
X42389047Y-30581666D01*
X42350952Y-30619761D01*
X42312857Y-30695952D01*
X42312857Y-30924523D01*
X42350952Y-31000714D01*
X42389047Y-31038809D01*
X42465238Y-31076904D01*
X42579523Y-31076904D01*
X42046190Y-30543571D02*
X41893809Y-31076904D01*
X41741428Y-30695952D01*
X41589047Y-31076904D01*
X41436666Y-30543571D01*
X40712857Y-31076904D02*
X41170000Y-31076904D01*
X40941428Y-31076904D02*
X40941428Y-30276904D01*
X41017619Y-30391190D01*
X41093809Y-30467380D01*
X41170000Y-30505476D01*
X32301904Y-38608809D02*
X32378095Y-38646904D01*
X32530476Y-38646904D01*
X32606666Y-38608809D01*
X32644761Y-38570714D01*
X32682857Y-38494523D01*
X32682857Y-38265952D01*
X32644761Y-38189761D01*
X32606666Y-38151666D01*
X32530476Y-38113571D01*
X32378095Y-38113571D01*
X32301904Y-38151666D01*
X31844761Y-38646904D02*
X31920952Y-38608809D01*
X31959047Y-38570714D01*
X31997142Y-38494523D01*
X31997142Y-38265952D01*
X31959047Y-38189761D01*
X31920952Y-38151666D01*
X31844761Y-38113571D01*
X31730476Y-38113571D01*
X31654285Y-38151666D01*
X31616190Y-38189761D01*
X31578095Y-38265952D01*
X31578095Y-38494523D01*
X31616190Y-38570714D01*
X31654285Y-38608809D01*
X31730476Y-38646904D01*
X31844761Y-38646904D01*
X31120952Y-38646904D02*
X31197142Y-38608809D01*
X31235238Y-38532619D01*
X31235238Y-37846904D01*
X30892380Y-37846904D02*
X30397142Y-37846904D01*
X30663809Y-38151666D01*
X30549523Y-38151666D01*
X30473333Y-38189761D01*
X30435238Y-38227857D01*
X30397142Y-38304047D01*
X30397142Y-38494523D01*
X30435238Y-38570714D01*
X30473333Y-38608809D01*
X30549523Y-38646904D01*
X30778095Y-38646904D01*
X30854285Y-38608809D01*
X30892380Y-38570714D01*
X32381904Y-40988809D02*
X32458095Y-41026904D01*
X32610476Y-41026904D01*
X32686666Y-40988809D01*
X32724761Y-40950714D01*
X32762857Y-40874523D01*
X32762857Y-40645952D01*
X32724761Y-40569761D01*
X32686666Y-40531666D01*
X32610476Y-40493571D01*
X32458095Y-40493571D01*
X32381904Y-40531666D01*
X31924761Y-41026904D02*
X32000952Y-40988809D01*
X32039047Y-40950714D01*
X32077142Y-40874523D01*
X32077142Y-40645952D01*
X32039047Y-40569761D01*
X32000952Y-40531666D01*
X31924761Y-40493571D01*
X31810476Y-40493571D01*
X31734285Y-40531666D01*
X31696190Y-40569761D01*
X31658095Y-40645952D01*
X31658095Y-40874523D01*
X31696190Y-40950714D01*
X31734285Y-40988809D01*
X31810476Y-41026904D01*
X31924761Y-41026904D01*
X31200952Y-41026904D02*
X31277142Y-40988809D01*
X31315238Y-40912619D01*
X31315238Y-40226904D01*
X30553333Y-40493571D02*
X30553333Y-41026904D01*
X30743809Y-40188809D02*
X30934285Y-40760238D01*
X30439047Y-40760238D01*
X43189047Y-28346904D02*
X43189047Y-27813571D01*
X43189047Y-27965952D02*
X43150952Y-27889761D01*
X43112857Y-27851666D01*
X43036666Y-27813571D01*
X42960476Y-27813571D01*
X42579523Y-28346904D02*
X42655714Y-28308809D01*
X42693809Y-28270714D01*
X42731904Y-28194523D01*
X42731904Y-27965952D01*
X42693809Y-27889761D01*
X42655714Y-27851666D01*
X42579523Y-27813571D01*
X42465238Y-27813571D01*
X42389047Y-27851666D01*
X42350952Y-27889761D01*
X42312857Y-27965952D01*
X42312857Y-28194523D01*
X42350952Y-28270714D01*
X42389047Y-28308809D01*
X42465238Y-28346904D01*
X42579523Y-28346904D01*
X42046190Y-27813571D02*
X41893809Y-28346904D01*
X41741428Y-27965952D01*
X41589047Y-28346904D01*
X41436666Y-27813571D01*
X40979523Y-27546904D02*
X40903333Y-27546904D01*
X40827142Y-27585000D01*
X40789047Y-27623095D01*
X40750952Y-27699285D01*
X40712857Y-27851666D01*
X40712857Y-28042142D01*
X40750952Y-28194523D01*
X40789047Y-28270714D01*
X40827142Y-28308809D01*
X40903333Y-28346904D01*
X40979523Y-28346904D01*
X41055714Y-28308809D01*
X41093809Y-28270714D01*
X41131904Y-28194523D01*
X41170000Y-28042142D01*
X41170000Y-27851666D01*
X41131904Y-27699285D01*
X41093809Y-27623095D01*
X41055714Y-27585000D01*
X40979523Y-27546904D01*
X32371904Y-35998809D02*
X32448095Y-36036904D01*
X32600476Y-36036904D01*
X32676666Y-35998809D01*
X32714761Y-35960714D01*
X32752857Y-35884523D01*
X32752857Y-35655952D01*
X32714761Y-35579761D01*
X32676666Y-35541666D01*
X32600476Y-35503571D01*
X32448095Y-35503571D01*
X32371904Y-35541666D01*
X31914761Y-36036904D02*
X31990952Y-35998809D01*
X32029047Y-35960714D01*
X32067142Y-35884523D01*
X32067142Y-35655952D01*
X32029047Y-35579761D01*
X31990952Y-35541666D01*
X31914761Y-35503571D01*
X31800476Y-35503571D01*
X31724285Y-35541666D01*
X31686190Y-35579761D01*
X31648095Y-35655952D01*
X31648095Y-35884523D01*
X31686190Y-35960714D01*
X31724285Y-35998809D01*
X31800476Y-36036904D01*
X31914761Y-36036904D01*
X31190952Y-36036904D02*
X31267142Y-35998809D01*
X31305238Y-35922619D01*
X31305238Y-35236904D01*
X30924285Y-35313095D02*
X30886190Y-35275000D01*
X30810000Y-35236904D01*
X30619523Y-35236904D01*
X30543333Y-35275000D01*
X30505238Y-35313095D01*
X30467142Y-35389285D01*
X30467142Y-35465476D01*
X30505238Y-35579761D01*
X30962380Y-36036904D01*
X30467142Y-36036904D01*
X32119523Y-30245000D02*
X32195714Y-30206904D01*
X32310000Y-30206904D01*
X32424285Y-30245000D01*
X32500476Y-30321190D01*
X32538571Y-30397380D01*
X32576666Y-30549761D01*
X32576666Y-30664047D01*
X32538571Y-30816428D01*
X32500476Y-30892619D01*
X32424285Y-30968809D01*
X32310000Y-31006904D01*
X32233809Y-31006904D01*
X32119523Y-30968809D01*
X32081428Y-30930714D01*
X32081428Y-30664047D01*
X32233809Y-30664047D01*
X31738571Y-31006904D02*
X31738571Y-30206904D01*
X31281428Y-31006904D01*
X31281428Y-30206904D01*
X30900476Y-31006904D02*
X30900476Y-30206904D01*
X30710000Y-30206904D01*
X30595714Y-30245000D01*
X30519523Y-30321190D01*
X30481428Y-30397380D01*
X30443333Y-30549761D01*
X30443333Y-30664047D01*
X30481428Y-30816428D01*
X30519523Y-30892619D01*
X30595714Y-30968809D01*
X30710000Y-31006904D01*
X30900476Y-31006904D01*
X43129047Y-33656904D02*
X43129047Y-33123571D01*
X43129047Y-33275952D02*
X43090952Y-33199761D01*
X43052857Y-33161666D01*
X42976666Y-33123571D01*
X42900476Y-33123571D01*
X42519523Y-33656904D02*
X42595714Y-33618809D01*
X42633809Y-33580714D01*
X42671904Y-33504523D01*
X42671904Y-33275952D01*
X42633809Y-33199761D01*
X42595714Y-33161666D01*
X42519523Y-33123571D01*
X42405238Y-33123571D01*
X42329047Y-33161666D01*
X42290952Y-33199761D01*
X42252857Y-33275952D01*
X42252857Y-33504523D01*
X42290952Y-33580714D01*
X42329047Y-33618809D01*
X42405238Y-33656904D01*
X42519523Y-33656904D01*
X41986190Y-33123571D02*
X41833809Y-33656904D01*
X41681428Y-33275952D01*
X41529047Y-33656904D01*
X41376666Y-33123571D01*
X41110000Y-32933095D02*
X41071904Y-32895000D01*
X40995714Y-32856904D01*
X40805238Y-32856904D01*
X40729047Y-32895000D01*
X40690952Y-32933095D01*
X40652857Y-33009285D01*
X40652857Y-33085476D01*
X40690952Y-33199761D01*
X41148095Y-33656904D01*
X40652857Y-33656904D01*
X42851904Y-41178809D02*
X42928095Y-41216904D01*
X43080476Y-41216904D01*
X43156666Y-41178809D01*
X43194761Y-41140714D01*
X43232857Y-41064523D01*
X43232857Y-40835952D01*
X43194761Y-40759761D01*
X43156666Y-40721666D01*
X43080476Y-40683571D01*
X42928095Y-40683571D01*
X42851904Y-40721666D01*
X42394761Y-41216904D02*
X42470952Y-41178809D01*
X42509047Y-41140714D01*
X42547142Y-41064523D01*
X42547142Y-40835952D01*
X42509047Y-40759761D01*
X42470952Y-40721666D01*
X42394761Y-40683571D01*
X42280476Y-40683571D01*
X42204285Y-40721666D01*
X42166190Y-40759761D01*
X42128095Y-40835952D01*
X42128095Y-41064523D01*
X42166190Y-41140714D01*
X42204285Y-41178809D01*
X42280476Y-41216904D01*
X42394761Y-41216904D01*
X41670952Y-41216904D02*
X41747142Y-41178809D01*
X41785238Y-41102619D01*
X41785238Y-40416904D01*
X40947142Y-41216904D02*
X41404285Y-41216904D01*
X41175714Y-41216904D02*
X41175714Y-40416904D01*
X41251904Y-40531190D01*
X41328095Y-40607380D01*
X41404285Y-40645476D01*
X43129047Y-36186904D02*
X43129047Y-35653571D01*
X43129047Y-35805952D02*
X43090952Y-35729761D01*
X43052857Y-35691666D01*
X42976666Y-35653571D01*
X42900476Y-35653571D01*
X42519523Y-36186904D02*
X42595714Y-36148809D01*
X42633809Y-36110714D01*
X42671904Y-36034523D01*
X42671904Y-35805952D01*
X42633809Y-35729761D01*
X42595714Y-35691666D01*
X42519523Y-35653571D01*
X42405238Y-35653571D01*
X42329047Y-35691666D01*
X42290952Y-35729761D01*
X42252857Y-35805952D01*
X42252857Y-36034523D01*
X42290952Y-36110714D01*
X42329047Y-36148809D01*
X42405238Y-36186904D01*
X42519523Y-36186904D01*
X41986190Y-35653571D02*
X41833809Y-36186904D01*
X41681428Y-35805952D01*
X41529047Y-36186904D01*
X41376666Y-35653571D01*
X41148095Y-35386904D02*
X40652857Y-35386904D01*
X40919523Y-35691666D01*
X40805238Y-35691666D01*
X40729047Y-35729761D01*
X40690952Y-35767857D01*
X40652857Y-35844047D01*
X40652857Y-36034523D01*
X40690952Y-36110714D01*
X40729047Y-36148809D01*
X40805238Y-36186904D01*
X41033809Y-36186904D01*
X41110000Y-36148809D01*
X41148095Y-36110714D01*
X42711904Y-38658809D02*
X42788095Y-38696904D01*
X42940476Y-38696904D01*
X43016666Y-38658809D01*
X43054761Y-38620714D01*
X43092857Y-38544523D01*
X43092857Y-38315952D01*
X43054761Y-38239761D01*
X43016666Y-38201666D01*
X42940476Y-38163571D01*
X42788095Y-38163571D01*
X42711904Y-38201666D01*
X42254761Y-38696904D02*
X42330952Y-38658809D01*
X42369047Y-38620714D01*
X42407142Y-38544523D01*
X42407142Y-38315952D01*
X42369047Y-38239761D01*
X42330952Y-38201666D01*
X42254761Y-38163571D01*
X42140476Y-38163571D01*
X42064285Y-38201666D01*
X42026190Y-38239761D01*
X41988095Y-38315952D01*
X41988095Y-38544523D01*
X42026190Y-38620714D01*
X42064285Y-38658809D01*
X42140476Y-38696904D01*
X42254761Y-38696904D01*
X41530952Y-38696904D02*
X41607142Y-38658809D01*
X41645238Y-38582619D01*
X41645238Y-37896904D01*
X41073809Y-37896904D02*
X40997619Y-37896904D01*
X40921428Y-37935000D01*
X40883333Y-37973095D01*
X40845238Y-38049285D01*
X40807142Y-38201666D01*
X40807142Y-38392142D01*
X40845238Y-38544523D01*
X40883333Y-38620714D01*
X40921428Y-38658809D01*
X40997619Y-38696904D01*
X41073809Y-38696904D01*
X41150000Y-38658809D01*
X41188095Y-38620714D01*
X41226190Y-38544523D01*
X41264285Y-38392142D01*
X41264285Y-38201666D01*
X41226190Y-38049285D01*
X41188095Y-37973095D01*
X41150000Y-37935000D01*
X41073809Y-37896904D01*
X32460952Y-43746904D02*
X32460952Y-42946904D01*
X32460952Y-43708809D02*
X32537142Y-43746904D01*
X32689523Y-43746904D01*
X32765714Y-43708809D01*
X32803809Y-43670714D01*
X32841904Y-43594523D01*
X32841904Y-43365952D01*
X32803809Y-43289761D01*
X32765714Y-43251666D01*
X32689523Y-43213571D01*
X32537142Y-43213571D01*
X32460952Y-43251666D01*
X31737142Y-43746904D02*
X31737142Y-43327857D01*
X31775238Y-43251666D01*
X31851428Y-43213571D01*
X32003809Y-43213571D01*
X32080000Y-43251666D01*
X31737142Y-43708809D02*
X31813333Y-43746904D01*
X32003809Y-43746904D01*
X32080000Y-43708809D01*
X32118095Y-43632619D01*
X32118095Y-43556428D01*
X32080000Y-43480238D01*
X32003809Y-43442142D01*
X31813333Y-43442142D01*
X31737142Y-43404047D01*
X31470476Y-43213571D02*
X31165714Y-43213571D01*
X31356190Y-42946904D02*
X31356190Y-43632619D01*
X31318095Y-43708809D01*
X31241904Y-43746904D01*
X31165714Y-43746904D01*
X30556190Y-43746904D02*
X30556190Y-43327857D01*
X30594285Y-43251666D01*
X30670476Y-43213571D01*
X30822857Y-43213571D01*
X30899047Y-43251666D01*
X30556190Y-43708809D02*
X30632380Y-43746904D01*
X30822857Y-43746904D01*
X30899047Y-43708809D01*
X30937142Y-43632619D01*
X30937142Y-43556428D01*
X30899047Y-43480238D01*
X30822857Y-43442142D01*
X30632380Y-43442142D01*
X30556190Y-43404047D01*
X32476666Y-27756904D02*
X32210000Y-28556904D01*
X31943333Y-27756904D01*
X31219523Y-28480714D02*
X31257619Y-28518809D01*
X31371904Y-28556904D01*
X31448095Y-28556904D01*
X31562380Y-28518809D01*
X31638571Y-28442619D01*
X31676666Y-28366428D01*
X31714761Y-28214047D01*
X31714761Y-28099761D01*
X31676666Y-27947380D01*
X31638571Y-27871190D01*
X31562380Y-27795000D01*
X31448095Y-27756904D01*
X31371904Y-27756904D01*
X31257619Y-27795000D01*
X31219523Y-27833095D01*
X30419523Y-28480714D02*
X30457619Y-28518809D01*
X30571904Y-28556904D01*
X30648095Y-28556904D01*
X30762380Y-28518809D01*
X30838571Y-28442619D01*
X30876666Y-28366428D01*
X30914761Y-28214047D01*
X30914761Y-28099761D01*
X30876666Y-27947380D01*
X30838571Y-27871190D01*
X30762380Y-27795000D01*
X30648095Y-27756904D01*
X30571904Y-27756904D01*
X30457619Y-27795000D01*
X30419523Y-27833095D01*
D13*
%TO.C,D7*%
X43810000Y-82640000D02*
X43310000Y-83540000D01*
X44060000Y-80440000D02*
X42560000Y-80440000D01*
X42560000Y-85840000D02*
X44060000Y-85840000D01*
X42810000Y-83640000D02*
X43810000Y-83640000D01*
X42560000Y-80440000D02*
X42560000Y-85840000D01*
X42810000Y-82640000D02*
X43810000Y-82640000D01*
X44060000Y-85840000D02*
X44060000Y-80440000D01*
X43310000Y-83540000D02*
X42810000Y-82640000D01*
%TO.C,D6*%
X26460000Y-86080000D02*
X27460000Y-86080000D01*
X27710000Y-88280000D02*
X27710000Y-82880000D01*
X26960000Y-85980000D02*
X26460000Y-85080000D01*
X26210000Y-88280000D02*
X27710000Y-88280000D01*
X27710000Y-82880000D02*
X26210000Y-82880000D01*
X26460000Y-85080000D02*
X27460000Y-85080000D01*
X27460000Y-85080000D02*
X26960000Y-85980000D01*
X26210000Y-82880000D02*
X26210000Y-88280000D01*
%TO.C,D9*%
X76210000Y-80860000D02*
X75710000Y-79960000D01*
X76960000Y-83160000D02*
X76960000Y-77760000D01*
X75460000Y-83160000D02*
X76960000Y-83160000D01*
X76710000Y-79960000D02*
X76210000Y-80860000D01*
X75710000Y-80960000D02*
X76710000Y-80960000D01*
X75710000Y-79960000D02*
X76710000Y-79960000D01*
X75460000Y-77760000D02*
X75460000Y-83160000D01*
X76960000Y-77760000D02*
X75460000Y-77760000D01*
%TO.C,D16*%
X64750000Y-111830000D02*
X64750000Y-117230000D01*
X66250000Y-117230000D02*
X66250000Y-111830000D01*
X66000000Y-114030000D02*
X65500000Y-114930000D01*
X64750000Y-117230000D02*
X66250000Y-117230000D01*
X65000000Y-114030000D02*
X66000000Y-114030000D01*
X65500000Y-114930000D02*
X65000000Y-114030000D01*
X66250000Y-111830000D02*
X64750000Y-111830000D01*
X65000000Y-115030000D02*
X66000000Y-115030000D01*
%TO.C,D11*%
X25980000Y-99130000D02*
X25980000Y-104530000D01*
X27480000Y-104530000D02*
X27480000Y-99130000D01*
X27480000Y-99130000D02*
X25980000Y-99130000D01*
X25980000Y-104530000D02*
X27480000Y-104530000D01*
X26230000Y-102330000D02*
X27230000Y-102330000D01*
X27230000Y-101330000D02*
X26730000Y-102230000D01*
X26730000Y-102230000D02*
X26230000Y-101330000D01*
X26230000Y-101330000D02*
X27230000Y-101330000D01*
%TO.C,D14*%
X76770000Y-96730000D02*
X76270000Y-97630000D01*
X77020000Y-94530000D02*
X75520000Y-94530000D01*
X75770000Y-97730000D02*
X76770000Y-97730000D01*
X77020000Y-99930000D02*
X77020000Y-94530000D01*
X75520000Y-94530000D02*
X75520000Y-99930000D01*
X76270000Y-97630000D02*
X75770000Y-96730000D01*
X75520000Y-99930000D02*
X77020000Y-99930000D01*
X75770000Y-96730000D02*
X76770000Y-96730000D01*
%TO.C,D17*%
X82830000Y-117240000D02*
X82830000Y-111840000D01*
X81580000Y-115040000D02*
X82580000Y-115040000D01*
X81330000Y-117240000D02*
X82830000Y-117240000D01*
X82580000Y-114040000D02*
X82080000Y-114940000D01*
X81580000Y-114040000D02*
X82580000Y-114040000D01*
X82080000Y-114940000D02*
X81580000Y-114040000D01*
X82830000Y-111840000D02*
X81330000Y-111840000D01*
X81330000Y-111840000D02*
X81330000Y-117240000D01*
%TO.C,D13*%
X60470000Y-99870000D02*
X60470000Y-94470000D01*
X59720000Y-97570000D02*
X59220000Y-96670000D01*
X58970000Y-99870000D02*
X60470000Y-99870000D01*
X59220000Y-96670000D02*
X60220000Y-96670000D01*
X60470000Y-94470000D02*
X58970000Y-94470000D01*
X58970000Y-94470000D02*
X58970000Y-99870000D01*
X60220000Y-96670000D02*
X59720000Y-97570000D01*
X59220000Y-97670000D02*
X60220000Y-97670000D01*
%TO.C,D1*%
X26270000Y-68510000D02*
X27270000Y-68510000D01*
X26270000Y-69510000D02*
X27270000Y-69510000D01*
X27520000Y-71710000D02*
X27520000Y-66310000D01*
X26020000Y-66310000D02*
X26020000Y-71710000D01*
X26020000Y-71710000D02*
X27520000Y-71710000D01*
X27270000Y-68510000D02*
X26770000Y-69410000D01*
X27520000Y-66310000D02*
X26020000Y-66310000D01*
X26770000Y-69410000D02*
X26270000Y-68510000D01*
%TO.C,D18*%
X98080000Y-114060000D02*
X99080000Y-114060000D01*
X97830000Y-117260000D02*
X99330000Y-117260000D01*
X99080000Y-114060000D02*
X98580000Y-114960000D01*
X98580000Y-114960000D02*
X98080000Y-114060000D01*
X98080000Y-115060000D02*
X99080000Y-115060000D01*
X99330000Y-117260000D02*
X99330000Y-111860000D01*
X97830000Y-111860000D02*
X97830000Y-117260000D01*
X99330000Y-111860000D02*
X97830000Y-111860000D01*
%TO.C,D4*%
X75680000Y-63570000D02*
X76680000Y-63570000D01*
X76930000Y-61370000D02*
X75430000Y-61370000D01*
X76180000Y-64470000D02*
X75680000Y-63570000D01*
X76930000Y-66770000D02*
X76930000Y-61370000D01*
X76680000Y-63570000D02*
X76180000Y-64470000D01*
X75430000Y-61370000D02*
X75430000Y-66770000D01*
X75680000Y-64570000D02*
X76680000Y-64570000D01*
X75430000Y-66770000D02*
X76930000Y-66770000D01*
%TO.C,D10*%
X92020000Y-77940000D02*
X92020000Y-83340000D01*
X93270000Y-80140000D02*
X92770000Y-81040000D01*
X93520000Y-77940000D02*
X92020000Y-77940000D01*
X92020000Y-83340000D02*
X93520000Y-83340000D01*
X92770000Y-81040000D02*
X92270000Y-80140000D01*
X92270000Y-81140000D02*
X93270000Y-81140000D01*
X92270000Y-80140000D02*
X93270000Y-80140000D01*
X93520000Y-83340000D02*
X93520000Y-77940000D01*
%TO.C,J1*%
X54990644Y-47230961D02*
X49121759Y-45983491D01*
X51616699Y-34245719D02*
X57485585Y-35493190D01*
X49121759Y-45983491D02*
X51616699Y-34245719D01*
X57485585Y-35493190D02*
X54990644Y-47230961D01*
%TO.C,D3*%
X58940000Y-61460000D02*
X58940000Y-66860000D01*
X59690000Y-64560000D02*
X59190000Y-63660000D01*
X60440000Y-61460000D02*
X58940000Y-61460000D01*
X60440000Y-66860000D02*
X60440000Y-61460000D01*
X59190000Y-63660000D02*
X60190000Y-63660000D01*
X60190000Y-63660000D02*
X59690000Y-64560000D01*
X59190000Y-64660000D02*
X60190000Y-64660000D01*
X58940000Y-66860000D02*
X60440000Y-66860000D01*
D14*
%TO.C,U1*%
X28220000Y-27175000D02*
X30190000Y-27175000D01*
X30190000Y-27175000D02*
X30190000Y-44665000D01*
X30190000Y-44665000D02*
X28220000Y-44665000D01*
X28220000Y-44665000D02*
X28220000Y-27175000D01*
X43400000Y-27065000D02*
X45370000Y-27065000D01*
X45370000Y-27065000D02*
X45370000Y-44555000D01*
X45370000Y-44555000D02*
X43400000Y-44555000D01*
X43400000Y-44555000D02*
X43400000Y-27065000D01*
D13*
%TO.C,D15*%
X92020000Y-99720000D02*
X93520000Y-99720000D01*
X93270000Y-96520000D02*
X92770000Y-97420000D01*
X92770000Y-97420000D02*
X92270000Y-96520000D01*
X93520000Y-99720000D02*
X93520000Y-94320000D01*
X92270000Y-97520000D02*
X93270000Y-97520000D01*
X93520000Y-94320000D02*
X92020000Y-94320000D01*
X92270000Y-96520000D02*
X93270000Y-96520000D01*
X92020000Y-94320000D02*
X92020000Y-99720000D01*
%TO.C,D5*%
X92730000Y-64550000D02*
X92230000Y-63650000D01*
X93480000Y-61450000D02*
X91980000Y-61450000D01*
X93230000Y-63650000D02*
X92730000Y-64550000D01*
X92230000Y-63650000D02*
X93230000Y-63650000D01*
X91980000Y-61450000D02*
X91980000Y-66850000D01*
X91980000Y-66850000D02*
X93480000Y-66850000D01*
X93480000Y-66850000D02*
X93480000Y-61450000D01*
X92230000Y-64650000D02*
X93230000Y-64650000D01*
%TO.C,D8*%
X58950000Y-83400000D02*
X60450000Y-83400000D01*
X59700000Y-81100000D02*
X59200000Y-80200000D01*
X60200000Y-80200000D02*
X59700000Y-81100000D01*
X59200000Y-81200000D02*
X60200000Y-81200000D01*
X60450000Y-78000000D02*
X58950000Y-78000000D01*
X58950000Y-78000000D02*
X58950000Y-83400000D01*
X59200000Y-80200000D02*
X60200000Y-80200000D01*
X60450000Y-83400000D02*
X60450000Y-78000000D01*
%TO.C,D2*%
X42740000Y-66140000D02*
X43740000Y-66140000D01*
X42490000Y-69340000D02*
X43990000Y-69340000D01*
X43990000Y-69340000D02*
X43990000Y-63940000D01*
X43990000Y-63940000D02*
X42490000Y-63940000D01*
X42740000Y-67140000D02*
X43740000Y-67140000D01*
X43240000Y-67040000D02*
X42740000Y-66140000D01*
X42490000Y-63940000D02*
X42490000Y-69340000D01*
X43740000Y-66140000D02*
X43240000Y-67040000D01*
%TO.C,D12*%
X42810000Y-99160000D02*
X43810000Y-99160000D01*
X43310000Y-100060000D02*
X42810000Y-99160000D01*
X42810000Y-100160000D02*
X43810000Y-100160000D01*
X44060000Y-96960000D02*
X42560000Y-96960000D01*
X42560000Y-102360000D02*
X44060000Y-102360000D01*
X44060000Y-102360000D02*
X44060000Y-96960000D01*
X43810000Y-99160000D02*
X43310000Y-100060000D01*
X42560000Y-96960000D02*
X42560000Y-102360000D01*
%TD*%
D15*
%TO.C,U1*%
X29190000Y-30695000D03*
X29190000Y-28155000D03*
%TD*%
D16*
X42161000Y-68242500D03*
X77288900Y-65845000D03*
X27852700Y-70785000D03*
X58608100Y-65653400D03*
X27003900Y-65975900D03*
X43275000Y-62900000D03*
X59690000Y-60494700D03*
X77268600Y-62245400D03*
X93814000Y-62375000D03*
X28062200Y-83905100D03*
X46310000Y-70810000D03*
X44957700Y-80701600D03*
X60777200Y-78907400D03*
X76139100Y-77349000D03*
X93852100Y-78833600D03*
X59700000Y-83726700D03*
X74701400Y-82266600D03*
X26894700Y-86072300D03*
X43310000Y-86230700D03*
X92770000Y-83682800D03*
X27861900Y-99891200D03*
X42226200Y-97885000D03*
X60500000Y-85200000D03*
X60579000Y-95395000D03*
X77373600Y-96196300D03*
X79380000Y-84520000D03*
X93867200Y-95245000D03*
X65500000Y-114024600D03*
X80986400Y-112765000D03*
X97230000Y-112370000D03*
X100450000Y-102630000D03*
X89154700Y-98795000D03*
X41450000Y-101350000D03*
X73506700Y-116315000D03*
X30225000Y-98900000D03*
X101675000Y-64800000D03*
X69250000Y-64150000D03*
X103000000Y-60575000D03*
X53500000Y-63600000D03*
X36100000Y-70100000D03*
X37600000Y-67025000D03*
X29675000Y-83250000D03*
X58561671Y-81067675D03*
X74950000Y-79975000D03*
X64775000Y-96400000D03*
X48475000Y-104625000D03*
X83625000Y-85700000D03*
X103150000Y-94425000D03*
X30025000Y-85725000D03*
X41975000Y-70500000D03*
X71225000Y-67450000D03*
X96350000Y-61525000D03*
X41700000Y-48675000D03*
X46450000Y-63950000D03*
X44850000Y-46200000D03*
X83275000Y-72725000D03*
X53350000Y-97050000D03*
X82625000Y-96625000D03*
X31600000Y-49800000D03*
X29425000Y-56950000D03*
X102575000Y-77350000D03*
X86800000Y-60900000D03*
X51600000Y-67075000D03*
X29625000Y-68975000D03*
X90850000Y-78875000D03*
X88300000Y-67800000D03*
X37125000Y-83025000D03*
X57150000Y-66025000D03*
X37350000Y-26225000D03*
X68826917Y-80745070D03*
X41925000Y-83700000D03*
X86125000Y-80325000D03*
X57925000Y-68550000D03*
X100850000Y-80675000D03*
X35600000Y-39825000D03*
X82975000Y-82725000D03*
X69775000Y-77950000D03*
X36400000Y-86025000D03*
X37225000Y-44150000D03*
X85325000Y-112600000D03*
X47375000Y-47575000D03*
X66100000Y-52075000D03*
X54475000Y-81500000D03*
X63375000Y-61900000D03*
X66275000Y-100950000D03*
X96575000Y-93525000D03*
X83300000Y-56750000D03*
X66425000Y-84950000D03*
X96250000Y-77675000D03*
X50300000Y-75125000D03*
X41975000Y-66800000D03*
X36925000Y-29700000D03*
X36150000Y-34950000D03*
X98775000Y-97800000D03*
X27419600Y-49298700D03*
X40217900Y-40850500D03*
X45581200Y-53413200D03*
X67510000Y-102180000D03*
X73780000Y-84180000D03*
X85750000Y-49523900D03*
X81320700Y-105493000D03*
X89938900Y-81629800D03*
X103350000Y-97920000D03*
X28570000Y-81050000D03*
X33650000Y-81050000D03*
X37460000Y-78600000D03*
X36190000Y-75970000D03*
X29840000Y-78510000D03*
X38730000Y-81050000D03*
X31110000Y-75970000D03*
X29910000Y-94960000D03*
X37530000Y-95050000D03*
X38800000Y-97500000D03*
X31180000Y-92420000D03*
X36260000Y-92420000D03*
X33720000Y-97500000D03*
X28640000Y-97500000D03*
X88290000Y-76090000D03*
X87020000Y-73640000D03*
X83210000Y-76090000D03*
X85750000Y-71010000D03*
X78130000Y-76090000D03*
X80670000Y-71010000D03*
X79400000Y-73550000D03*
X66650000Y-59590000D03*
X61570000Y-59590000D03*
X71730000Y-59590000D03*
X64110000Y-54510000D03*
X69190000Y-54510000D03*
X70460000Y-57140000D03*
X62840000Y-57050000D03*
X104780000Y-59520000D03*
X95890000Y-56980000D03*
X94620000Y-59520000D03*
X99700000Y-59520000D03*
X103510000Y-57070000D03*
X97160000Y-54440000D03*
X102240000Y-54440000D03*
X99710000Y-49060000D03*
X97190000Y-87490000D03*
X102270000Y-87490000D03*
X104810000Y-92570000D03*
X103540000Y-90120000D03*
X99730000Y-92570000D03*
X94650000Y-92570000D03*
X95920000Y-90030000D03*
X47650000Y-73470000D03*
X55270000Y-78550000D03*
X50190000Y-78550000D03*
X46380000Y-76010000D03*
X52730000Y-73470000D03*
X45110000Y-78550000D03*
X54000000Y-76100000D03*
X60480000Y-112870000D03*
X67390000Y-109870000D03*
X72470000Y-109870000D03*
X68660000Y-107330000D03*
X69930000Y-104790000D03*
X77550000Y-109870000D03*
X75010000Y-104790000D03*
X76280000Y-107420000D03*
X33690000Y-108030000D03*
X102950000Y-104860000D03*
X105490000Y-109940000D03*
X110570000Y-109940000D03*
X109300000Y-107490000D03*
X108030000Y-104860000D03*
X101680000Y-107400000D03*
X100410000Y-109940000D03*
X55951032Y-36700521D03*
X54495651Y-43547555D03*
X54239274Y-36336676D03*
X52783892Y-43183709D03*
D17*
X54151894Y-46848211D03*
X51755432Y-46338827D03*
X57630901Y-38897802D03*
X51810923Y-37660727D03*
X57007166Y-41832244D03*
X51187188Y-40595170D03*
X56175520Y-45744835D03*
X50355541Y-44507760D03*
D16*
X69220000Y-70990000D03*
X71760000Y-76070000D03*
X64140000Y-70990000D03*
X62870000Y-73530000D03*
X70490000Y-73620000D03*
X61600000Y-76070000D03*
X66680000Y-76070000D03*
X110200000Y-93560000D03*
X86500000Y-104820000D03*
X92850000Y-107450000D03*
X89040000Y-109900000D03*
X85230000Y-107360000D03*
X83960000Y-109900000D03*
X94120000Y-109900000D03*
X91580000Y-104820000D03*
X27792500Y-29454000D03*
X44425000Y-28155000D03*
X44425000Y-30695000D03*
X27792500Y-31994000D03*
X44425000Y-33235000D03*
X27792500Y-34534000D03*
X27792500Y-37074000D03*
X44425000Y-35775000D03*
X44425000Y-38315000D03*
X27792500Y-39614000D03*
X44425000Y-40855000D03*
X27792500Y-42154000D03*
X44425000Y-43395000D03*
X27792500Y-44694000D03*
X43027500Y-44694000D03*
X29190000Y-43395000D03*
X43027500Y-42154000D03*
X29190000Y-40855000D03*
X29190000Y-38315000D03*
X43027500Y-39614000D03*
X43027500Y-37074000D03*
X29190000Y-35775000D03*
X43027500Y-34534000D03*
X29190000Y-33235000D03*
X29190000Y-30695000D03*
X43027500Y-31994000D03*
X43027500Y-29454000D03*
X29190000Y-28155000D03*
X95900000Y-73540000D03*
X104790000Y-76080000D03*
X102250000Y-71000000D03*
X94630000Y-76080000D03*
X99710000Y-76080000D03*
X103520000Y-73630000D03*
X97170000Y-71000000D03*
X46370000Y-59500000D03*
X52720000Y-56960000D03*
X55260000Y-62040000D03*
X50180000Y-62040000D03*
X45100000Y-62040000D03*
X47640000Y-56960000D03*
X53990000Y-59590000D03*
X66730000Y-92570000D03*
X70540000Y-90120000D03*
X62920000Y-90030000D03*
X71810000Y-92570000D03*
X64190000Y-87490000D03*
X69270000Y-87490000D03*
X61650000Y-92570000D03*
X33730000Y-54530000D03*
X52750000Y-89970000D03*
X54020000Y-92600000D03*
X45130000Y-95050000D03*
X55290000Y-95050000D03*
X50210000Y-95050000D03*
X47670000Y-89970000D03*
X46400000Y-92510000D03*
X85750000Y-87500000D03*
X88290000Y-92580000D03*
X80670000Y-87500000D03*
X78130000Y-92580000D03*
X79400000Y-90040000D03*
X83210000Y-92580000D03*
X87020000Y-90130000D03*
X36250000Y-59470000D03*
X37520000Y-62100000D03*
X33710000Y-64550000D03*
X28630000Y-64550000D03*
X31170000Y-59470000D03*
X29900000Y-62010000D03*
X38790000Y-64550000D03*
X87020000Y-57130000D03*
X80670000Y-54500000D03*
X78130000Y-59580000D03*
X79400000Y-57040000D03*
X83210000Y-59580000D03*
X85750000Y-54500000D03*
X88290000Y-59580000D03*
%LPC*%
D18*
%TO.C,D7*%
X43310000Y-84915000D03*
X43310000Y-81365000D03*
%TD*%
D19*
%TO.C,SW6*%
X28570000Y-81050000D03*
D20*
X33650000Y-81050000D03*
D21*
X37460000Y-78600000D03*
X36190000Y-75970000D03*
X29840000Y-78510000D03*
D19*
X38730000Y-81050000D03*
D21*
X31110000Y-75970000D03*
D22*
X26565000Y-78510000D03*
X39492000Y-75970000D03*
%TD*%
D21*
%TO.C,SW11*%
X29910000Y-94960000D03*
X37530000Y-95050000D03*
D19*
X38800000Y-97500000D03*
D21*
X31180000Y-92420000D03*
X36260000Y-92420000D03*
D20*
X33720000Y-97500000D03*
D19*
X28640000Y-97500000D03*
D22*
X26635000Y-94960000D03*
X39562000Y-92420000D03*
%TD*%
D18*
%TO.C,D6*%
X26960000Y-87355000D03*
X26960000Y-83805000D03*
%TD*%
D19*
%TO.C,SW9*%
X88290000Y-76090000D03*
D21*
X87020000Y-73640000D03*
D20*
X83210000Y-76090000D03*
D21*
X85750000Y-71010000D03*
D19*
X78130000Y-76090000D03*
D21*
X80670000Y-71010000D03*
X79400000Y-73550000D03*
D22*
X76125000Y-73550000D03*
X89052000Y-71010000D03*
%TD*%
D20*
%TO.C,SW3*%
X66650000Y-59590000D03*
D19*
X61570000Y-59590000D03*
X71730000Y-59590000D03*
D21*
X64110000Y-54510000D03*
X69190000Y-54510000D03*
X70460000Y-57140000D03*
X62840000Y-57050000D03*
D22*
X59565000Y-57050000D03*
X72492000Y-54510000D03*
%TD*%
D18*
%TO.C,D9*%
X76210000Y-82235000D03*
X76210000Y-78685000D03*
%TD*%
%TO.C,D16*%
X65500000Y-116305000D03*
X65500000Y-112755000D03*
%TD*%
%TO.C,D11*%
X26730000Y-103605000D03*
X26730000Y-100055000D03*
%TD*%
%TO.C,D14*%
X76270000Y-99005000D03*
X76270000Y-95455000D03*
%TD*%
%TO.C,D17*%
X82080000Y-116315000D03*
X82080000Y-112765000D03*
%TD*%
D19*
%TO.C,SW5*%
X104780000Y-59520000D03*
D21*
X95890000Y-56980000D03*
D19*
X94620000Y-59520000D03*
D20*
X99700000Y-59520000D03*
D21*
X103510000Y-57070000D03*
X97160000Y-54440000D03*
X102240000Y-54440000D03*
D22*
X92615000Y-56980000D03*
X105542000Y-54440000D03*
%TD*%
D23*
%TO.C,HOLE3*%
X99710000Y-49060000D03*
%TD*%
D21*
%TO.C,SW15*%
X97190000Y-87490000D03*
X102270000Y-87490000D03*
D19*
X104810000Y-92570000D03*
D21*
X103540000Y-90120000D03*
D20*
X99730000Y-92570000D03*
D19*
X94650000Y-92570000D03*
D21*
X95920000Y-90030000D03*
D22*
X92645000Y-90030000D03*
X105572000Y-87490000D03*
%TD*%
D18*
%TO.C,D13*%
X59720000Y-98945000D03*
X59720000Y-95395000D03*
%TD*%
D21*
%TO.C,SW7*%
X47650000Y-73470000D03*
D19*
X55270000Y-78550000D03*
D20*
X50190000Y-78550000D03*
D21*
X46380000Y-76010000D03*
X52730000Y-73470000D03*
D19*
X45110000Y-78550000D03*
D21*
X54000000Y-76100000D03*
D22*
X43105000Y-76010000D03*
X56032000Y-73470000D03*
%TD*%
D18*
%TO.C,D1*%
X26770000Y-70785000D03*
X26770000Y-67235000D03*
%TD*%
D23*
%TO.C,HOLE5*%
X60480000Y-112870000D03*
%TD*%
D19*
%TO.C,SW16*%
X67390000Y-109870000D03*
D20*
X72470000Y-109870000D03*
D21*
X68660000Y-107330000D03*
X69930000Y-104790000D03*
D19*
X77550000Y-109870000D03*
D21*
X75010000Y-104790000D03*
X76280000Y-107420000D03*
D22*
X65385000Y-107330000D03*
X78312000Y-104790000D03*
%TD*%
D18*
%TO.C,D18*%
X98580000Y-116335000D03*
X98580000Y-112785000D03*
%TD*%
D23*
%TO.C,HOLE4*%
X33690000Y-108030000D03*
%TD*%
D18*
%TO.C,D4*%
X76180000Y-65845000D03*
X76180000Y-62295000D03*
%TD*%
%TO.C,D10*%
X92770000Y-82415000D03*
X92770000Y-78865000D03*
%TD*%
D21*
%TO.C,SW18*%
X102950000Y-104860000D03*
D20*
X105490000Y-109940000D03*
D19*
X110570000Y-109940000D03*
D21*
X109300000Y-107490000D03*
X108030000Y-104860000D03*
X101680000Y-107400000D03*
D19*
X100410000Y-109940000D03*
D22*
X98405000Y-107400000D03*
X111332000Y-104860000D03*
%TD*%
D24*
%TO.C,J1*%
X55951032Y-36700521D03*
X54495651Y-43547555D03*
X54239274Y-36336676D03*
X52783892Y-43183709D03*
D25*
X54151894Y-46848211D03*
X51755432Y-46338827D03*
X57630901Y-38897802D03*
X51810923Y-37660727D03*
X57007166Y-41832244D03*
X51187188Y-40595170D03*
X56175520Y-45744835D03*
X50355541Y-44507760D03*
%TD*%
D18*
%TO.C,D3*%
X59690000Y-65935000D03*
X59690000Y-62385000D03*
%TD*%
D21*
%TO.C,SW8*%
X69220000Y-70990000D03*
D19*
X71760000Y-76070000D03*
D21*
X64140000Y-70990000D03*
X62870000Y-73530000D03*
X70490000Y-73620000D03*
D19*
X61600000Y-76070000D03*
D20*
X66680000Y-76070000D03*
D22*
X59595000Y-73530000D03*
X72522000Y-70990000D03*
%TD*%
D23*
%TO.C,HOLE2*%
X110200000Y-93560000D03*
%TD*%
D21*
%TO.C,SW17*%
X86500000Y-104820000D03*
X92850000Y-107450000D03*
D20*
X89040000Y-109900000D03*
D21*
X85230000Y-107360000D03*
D19*
X83960000Y-109900000D03*
X94120000Y-109900000D03*
D21*
X91580000Y-104820000D03*
D22*
X81955000Y-107360000D03*
X94882000Y-104820000D03*
%TD*%
D15*
%TO.C,U1*%
X27792500Y-29454000D03*
X44425000Y-28155000D03*
X44425000Y-30695000D03*
X27792500Y-31994000D03*
X44425000Y-33235000D03*
X27792500Y-34534000D03*
X27792500Y-37074000D03*
X44425000Y-35775000D03*
X44425000Y-38315000D03*
X27792500Y-39614000D03*
X44425000Y-40855000D03*
X27792500Y-42154000D03*
X44425000Y-43395000D03*
X27792500Y-44694000D03*
X43027500Y-44694000D03*
X29190000Y-43395000D03*
X43027500Y-42154000D03*
X29190000Y-40855000D03*
X29190000Y-38315000D03*
X43027500Y-39614000D03*
X43027500Y-37074000D03*
X29190000Y-35775000D03*
X43027500Y-34534000D03*
X29190000Y-33235000D03*
X29190000Y-30695000D03*
X43027500Y-31994000D03*
X43027500Y-29454000D03*
X29190000Y-28155000D03*
%TD*%
D21*
%TO.C,SW10*%
X95900000Y-73540000D03*
D19*
X104790000Y-76080000D03*
D21*
X102250000Y-71000000D03*
D19*
X94630000Y-76080000D03*
D20*
X99710000Y-76080000D03*
D21*
X103520000Y-73630000D03*
X97170000Y-71000000D03*
D22*
X92625000Y-73540000D03*
X105552000Y-71000000D03*
%TD*%
D18*
%TO.C,D15*%
X92770000Y-98795000D03*
X92770000Y-95245000D03*
%TD*%
D21*
%TO.C,SW2*%
X46370000Y-59500000D03*
X52720000Y-56960000D03*
D19*
X55260000Y-62040000D03*
D20*
X50180000Y-62040000D03*
D19*
X45100000Y-62040000D03*
D21*
X47640000Y-56960000D03*
X53990000Y-59590000D03*
D22*
X43095000Y-59500000D03*
X56022000Y-56960000D03*
%TD*%
D20*
%TO.C,SW13*%
X66730000Y-92570000D03*
D21*
X70540000Y-90120000D03*
X62920000Y-90030000D03*
D19*
X71810000Y-92570000D03*
D21*
X64190000Y-87490000D03*
X69270000Y-87490000D03*
D19*
X61650000Y-92570000D03*
D22*
X59645000Y-90030000D03*
X72572000Y-87490000D03*
%TD*%
D23*
%TO.C,HOLE1*%
X33730000Y-54530000D03*
%TD*%
D21*
%TO.C,SW12*%
X52750000Y-89970000D03*
X54020000Y-92600000D03*
D19*
X45130000Y-95050000D03*
X55290000Y-95050000D03*
D20*
X50210000Y-95050000D03*
D21*
X47670000Y-89970000D03*
X46400000Y-92510000D03*
D22*
X43125000Y-92510000D03*
X56052000Y-89970000D03*
%TD*%
D21*
%TO.C,SW14*%
X85750000Y-87500000D03*
D19*
X88290000Y-92580000D03*
D21*
X80670000Y-87500000D03*
D19*
X78130000Y-92580000D03*
D21*
X79400000Y-90040000D03*
D20*
X83210000Y-92580000D03*
D21*
X87020000Y-90130000D03*
D22*
X76125000Y-90040000D03*
X89052000Y-87500000D03*
%TD*%
D21*
%TO.C,SW1*%
X36250000Y-59470000D03*
X37520000Y-62100000D03*
D20*
X33710000Y-64550000D03*
D19*
X28630000Y-64550000D03*
D21*
X31170000Y-59470000D03*
X29900000Y-62010000D03*
D19*
X38790000Y-64550000D03*
D22*
X26625000Y-62010000D03*
X39552000Y-59470000D03*
%TD*%
D18*
%TO.C,D5*%
X92730000Y-65925000D03*
X92730000Y-62375000D03*
%TD*%
%TO.C,D8*%
X59700000Y-82475000D03*
X59700000Y-78925000D03*
%TD*%
D21*
%TO.C,SW4*%
X87020000Y-57130000D03*
X80670000Y-54500000D03*
D19*
X78130000Y-59580000D03*
D21*
X79400000Y-57040000D03*
D20*
X83210000Y-59580000D03*
D21*
X85750000Y-54500000D03*
D19*
X88290000Y-59580000D03*
D22*
X76125000Y-57040000D03*
X89052000Y-54500000D03*
%TD*%
D18*
%TO.C,D2*%
X43240000Y-68415000D03*
X43240000Y-64865000D03*
%TD*%
%TO.C,D12*%
X43310000Y-101435000D03*
X43310000Y-97885000D03*
%TD*%
M02*
