M48
; DRILL file {KiCad (6.0.6)} date 2022年11月27日 23時56分06秒
; FORMAT={-:-/ absolute / metric / decimal}
; #@! TF.CreationDate,2022-11-27T23:56:06+09:00
; #@! TF.GenerationSoftware,Kicad,Pcbnew,(6.0.6)
; #@! TF.FileFunction,MixedPlating,1,2
FMAT,2
METRIC
; #@! TA.AperFunction,Plated,PTH,ViaDrill
T1C0.400
; #@! TA.AperFunction,Plated,PTH,ComponentDrill
T2C0.800
; #@! TA.AperFunction,Plated,PTH,ComponentDrill
T3C1.000
; #@! TA.AperFunction,NonPlated,NPTH,ComponentDrill
T4C1.200
; #@! TA.AperFunction,NonPlated,NPTH,ComponentDrill
T5C1.702
; #@! TA.AperFunction,NonPlated,NPTH,ComponentDrill
T6C3.000
; #@! TA.AperFunction,NonPlated,NPTH,ComponentDrill
T7C3.988
; #@! TA.AperFunction,NonPlated,NPTH,ComponentDrill
T8C5.000
%
G90
G05
T1
X26.895Y-86.072
X27.004Y-65.976
X27.42Y-49.299
X27.853Y-70.785
X27.862Y-99.891
X28.062Y-83.905
X29.425Y-56.95
X29.625Y-68.975
X29.675Y-83.25
X30.025Y-85.725
X30.225Y-98.9
X31.6Y-49.8
X35.6Y-39.825
X36.1Y-70.1
X36.15Y-34.95
X36.4Y-86.025
X36.925Y-29.7
X37.125Y-83.025
X37.225Y-44.15
X37.35Y-26.225
X37.6Y-67.025
X40.218Y-40.85
X41.45Y-101.35
X41.7Y-48.675
X41.925Y-83.7
X41.975Y-66.8
X41.975Y-70.5
X42.161Y-68.242
X42.226Y-97.885
X43.275Y-62.9
X43.31Y-86.231
X44.85Y-46.2
X44.958Y-80.702
X45.581Y-53.413
X46.31Y-70.81
X46.45Y-63.95
X47.375Y-47.575
X48.475Y-104.625
X50.3Y-75.125
X51.6Y-67.075
X53.35Y-97.05
X53.5Y-63.6
X54.475Y-81.5
X57.15Y-66.025
X57.925Y-68.55
X58.562Y-81.068
X58.608Y-65.653
X59.69Y-60.495
X59.7Y-83.727
X60.5Y-85.2
X60.579Y-95.395
X60.777Y-78.907
X63.375Y-61.9
X64.775Y-96.4
X65.5Y-114.025
X66.1Y-52.075
X66.275Y-100.95
X66.425Y-84.95
X67.51Y-102.18
X68.827Y-80.745
X69.25Y-64.15
X69.775Y-77.95
X71.225Y-67.45
X73.507Y-116.315
X73.78Y-84.18
X74.701Y-82.267
X74.95Y-79.975
X76.139Y-77.349
X77.269Y-62.245
X77.289Y-65.845
X77.374Y-96.196
X79.38Y-84.52
X80.986Y-112.765
X81.321Y-105.493
X82.625Y-96.625
X82.975Y-82.725
X83.275Y-72.725
X83.3Y-56.75
X83.625Y-85.7
X85.325Y-112.6
X85.75Y-49.524
X86.125Y-80.325
X86.8Y-60.9
X88.3Y-67.8
X89.155Y-98.795
X89.939Y-81.63
X90.85Y-78.875
X92.77Y-83.683
X93.814Y-62.375
X93.852Y-78.834
X93.867Y-95.245
X96.25Y-77.675
X96.35Y-61.525
X96.575Y-93.525
X97.23Y-112.37
X98.775Y-97.8
X100.45Y-102.63
X100.85Y-80.675
X101.675Y-64.8
X102.575Y-77.35
X103.0Y-60.575
X103.15Y-94.425
X103.35Y-97.92
T2
X27.793Y-29.454
X27.793Y-31.994
X27.793Y-34.534
X27.793Y-37.074
X27.793Y-39.614
X27.793Y-42.154
X27.793Y-44.694
X29.19Y-28.155
X29.19Y-30.695
X29.19Y-33.235
X29.19Y-35.775
X29.19Y-38.315
X29.19Y-40.855
X29.19Y-43.395
X43.027Y-29.454
X43.027Y-31.994
X43.027Y-34.534
X43.027Y-37.074
X43.027Y-39.614
X43.027Y-42.154
X43.027Y-44.694
X44.425Y-28.155
X44.425Y-30.695
X44.425Y-33.235
X44.425Y-35.775
X44.425Y-38.315
X44.425Y-40.855
X44.425Y-43.395
T4
X52.784Y-43.184
X54.239Y-36.337
X54.496Y-43.548
X55.951Y-36.701
T5
X28.57Y-81.05
X28.63Y-64.55
X28.64Y-97.5
X38.73Y-81.05
X38.79Y-64.55
X38.8Y-97.5
X45.1Y-62.04
X45.11Y-78.55
X45.13Y-95.05
X55.26Y-62.04
X55.27Y-78.55
X55.29Y-95.05
X61.57Y-59.59
X61.6Y-76.07
X61.65Y-92.57
X67.39Y-109.87
X71.73Y-59.59
X71.76Y-76.07
X71.81Y-92.57
X77.55Y-109.87
X78.13Y-59.58
X78.13Y-76.09
X78.13Y-92.58
X83.96Y-109.9
X88.29Y-59.58
X88.29Y-76.09
X88.29Y-92.58
X94.12Y-109.9
X94.62Y-59.52
X94.63Y-76.08
X94.65Y-92.57
X100.41Y-109.94
X104.78Y-59.52
X104.79Y-76.08
X104.81Y-92.57
X110.57Y-109.94
T6
X29.84Y-78.51
X29.9Y-62.01
X29.91Y-94.96
X31.11Y-75.97
X31.17Y-59.47
X31.18Y-92.42
X36.19Y-75.97
X36.25Y-59.47
X36.26Y-92.42
X37.46Y-78.6
X37.52Y-62.1
X37.53Y-95.05
X46.37Y-59.5
X46.38Y-76.01
X46.4Y-92.51
X47.64Y-56.96
X47.65Y-73.47
X47.67Y-89.97
X52.72Y-56.96
X52.73Y-73.47
X52.75Y-89.97
X53.99Y-59.59
X54.0Y-76.1
X54.02Y-92.6
X62.84Y-57.05
X62.87Y-73.53
X62.92Y-90.03
X64.11Y-54.51
X64.14Y-70.99
X64.19Y-87.49
X68.66Y-107.33
X69.19Y-54.51
X69.22Y-70.99
X69.27Y-87.49
X69.93Y-104.79
X70.46Y-57.14
X70.49Y-73.62
X70.54Y-90.12
X75.01Y-104.79
X76.28Y-107.42
X79.4Y-57.04
X79.4Y-73.55
X79.4Y-90.04
X80.67Y-54.5
X80.67Y-71.01
X80.67Y-87.5
X85.23Y-107.36
X85.75Y-54.5
X85.75Y-71.01
X85.75Y-87.5
X86.5Y-104.82
X87.02Y-57.13
X87.02Y-73.64
X87.02Y-90.13
X91.58Y-104.82
X92.85Y-107.45
X95.89Y-56.98
X95.9Y-73.54
X95.92Y-90.03
X97.16Y-54.44
X97.17Y-71.0
X97.19Y-87.49
X101.68Y-107.4
X102.24Y-54.44
X102.25Y-71.0
X102.27Y-87.49
X102.95Y-104.86
X103.51Y-57.07
X103.52Y-73.63
X103.54Y-90.12
X108.03Y-104.86
X109.3Y-107.49
T7
X33.65Y-81.05
X33.71Y-64.55
X33.72Y-97.5
X50.18Y-62.04
X50.19Y-78.55
X50.21Y-95.05
X66.65Y-59.59
X66.68Y-76.07
X66.73Y-92.57
X72.47Y-109.87
X83.21Y-59.58
X83.21Y-76.09
X83.21Y-92.58
X89.04Y-109.9
X99.7Y-59.52
X99.71Y-76.08
X99.73Y-92.57
X105.49Y-109.94
T8
X33.69Y-108.03
X33.73Y-54.53
X60.48Y-112.87
X99.71Y-49.06
X110.2Y-93.56
T3
G00X50.408Y-44.263
M15
G01X50.304Y-44.752
M16
G05
G00X51.239Y-40.351
M15
G01X51.135Y-40.84
M16
G05
G00X51.807Y-46.094
M15
G01X51.703Y-46.583
M16
G05
G00X51.863Y-37.416
M15
G01X51.759Y-37.905
M16
G05
G00X54.204Y-46.604
M15
G01X54.1Y-47.093
M16
G05
G00X56.227Y-45.5
M15
G01X56.124Y-45.989
M16
G05
G00X57.059Y-41.588
M15
G01X56.955Y-42.077
M16
G05
G00X57.683Y-38.653
M15
G01X57.579Y-39.142
M16
G05
T0
M30
