0
SECTION
2
HEADER
9
$INSUNITS
70
4
0
ENDSEC
0
SECTION
2
TABLES
0
TABLE
2
LTYPE
0
LTYPE
72
65
70
64
2
CONTINUOUS
3
______
73
0
40
0
0
ENDTAB
0
TABLE
2
LAYER
0
ENDTAB
0
ENDSEC
0
SECTION
2
ENTITIES
0
LINE
8
0
10
52.5
20
-14.25
11
66.5
21
-14.25
0
LINE
8
0
10
52.5
20
-28.25
11
66.5
21
-28.25
0
LINE
8
0
10
52.5
20
-14.25
11
52.5
21
-28.25
0
LINE
8
0
10
66.5
20
-14.25
11
66.5
21
-28.25
0
LINE
8
0
10
69.5
20
-14.25
11
83.5
21
-14.25
0
LINE
8
0
10
69.5
20
-28.25
11
83.5
21
-28.25
0
LINE
8
0
10
69.5
20
-14.25
11
69.5
21
-28.25
0
LINE
8
0
10
83.5
20
-14.25
11
83.5
21
-28.25
0
LINE
8
0
10
86.5
20
-14.25
11
100.5
21
-14.25
0
LINE
8
0
10
86.5
20
-28.25
11
100.5
21
-28.25
0
LINE
8
0
10
86.5
20
-14.25
11
86.5
21
-28.25
0
LINE
8
0
10
100.5
20
-14.25
11
100.5
21
-28.25
0
LINE
8
0
10
35.5
20
-16.8
11
49.5
21
-16.8
0
LINE
8
0
10
35.5
20
-30.8
11
49.5
21
-30.8
0
LINE
8
0
10
35.5
20
-16.8
11
35.5
21
-30.8
0
LINE
8
0
10
49.5
20
-16.8
11
49.5
21
-30.8
0
LINE
8
0
10
18.5
20
-21.05
11
32.5
21
-21.05
0
LINE
8
0
10
18.5
20
-35.05
11
32.5
21
-35.05
0
LINE
8
0
10
18.5
20
-21.05
11
18.5
21
-35.05
0
LINE
8
0
10
32.5
20
-21.05
11
32.5
21
-35.05
0
LINE
8
0
10
52.5
20
-31.25
11
66.5
21
-31.25
0
LINE
8
0
10
52.5
20
-45.25
11
66.5
21
-45.25
0
LINE
8
0
10
52.5
20
-31.25
11
52.5
21
-45.25
0
LINE
8
0
10
66.5
20
-31.25
11
66.5
21
-45.25
0
LINE
8
0
10
69.5
20
-31.25
11
83.5
21
-31.25
0
LINE
8
0
10
69.5
20
-45.25
11
83.5
21
-45.25
0
LINE
8
0
10
69.5
20
-31.25
11
69.5
21
-45.25
0
LINE
8
0
10
83.5
20
-31.25
11
83.5
21
-45.25
0
LINE
8
0
10
86.5
20
-31.25
11
100.5
21
-31.25
0
LINE
8
0
10
86.5
20
-45.25
11
100.5
21
-45.25
0
LINE
8
0
10
86.5
20
-31.25
11
86.5
21
-45.25
0
LINE
8
0
10
100.5
20
-31.25
11
100.5
21
-45.25
0
LINE
8
0
10
35.5
20
-33.8
11
49.5
21
-33.8
0
LINE
8
0
10
35.5
20
-47.8
11
49.5
21
-47.8
0
LINE
8
0
10
35.5
20
-33.8
11
35.5
21
-47.8
0
LINE
8
0
10
49.5
20
-33.8
11
49.5
21
-47.8
0
LINE
8
0
10
18.5
20
-38.05
11
32.5
21
-38.05
0
LINE
8
0
10
18.5
20
-52.05
11
32.5
21
-52.05
0
LINE
8
0
10
18.5
20
-38.05
11
18.5
21
-52.05
0
LINE
8
0
10
32.5
20
-38.05
11
32.5
21
-52.05
0
LINE
8
0
10
52.5
20
-48.25
11
66.5
21
-48.25
0
LINE
8
0
10
52.5
20
-62.25
11
66.5
21
-62.25
0
LINE
8
0
10
52.5
20
-48.25
11
52.5
21
-62.25
0
LINE
8
0
10
66.5
20
-48.25
11
66.5
21
-62.25
0
LINE
8
0
10
69.5
20
-48.25
11
83.5
21
-48.25
0
LINE
8
0
10
69.5
20
-62.25
11
83.5
21
-62.25
0
LINE
8
0
10
69.5
20
-48.25
11
69.5
21
-62.25
0
LINE
8
0
10
83.5
20
-48.25
11
83.5
21
-62.25
0
LINE
8
0
10
86.5
20
-48.25
11
100.5
21
-48.25
0
LINE
8
0
10
86.5
20
-62.25
11
100.5
21
-62.25
0
LINE
8
0
10
86.5
20
-48.25
11
86.5
21
-62.25
0
LINE
8
0
10
100.5
20
-48.25
11
100.5
21
-62.25
0
LINE
8
0
10
35.5
20
-50.8
11
49.5
21
-50.8
0
LINE
8
0
10
35.5
20
-64.8
11
49.5
21
-64.8
0
LINE
8
0
10
35.5
20
-50.8
11
35.5
21
-64.8
0
LINE
8
0
10
49.5
20
-50.8
11
49.5
21
-64.8
0
LINE
8
0
10
18.5
20
-55.05
11
32.5
21
-55.05
0
LINE
8
0
10
18.5
20
-69.05
11
32.5
21
-69.05
0
LINE
8
0
10
18.5
20
-55.05
11
18.5
21
-69.05
0
LINE
8
0
10
32.5
20
-55.05
11
32.5
21
-69.05
0
LINE
8
0
10
59.3
20
-66.1
11
73.3
21
-66.1
0
LINE
8
0
10
59.3
20
-80.1
11
73.3
21
-80.1
0
LINE
8
0
10
59.3
20
-66.1
11
59.3
21
-80.1
0
LINE
8
0
10
73.3
20
-66.1
11
73.3
21
-80.1
0
LINE
8
0
10
76.3
20
-66.1
11
90.3
21
-66.1
0
LINE
8
0
10
76.3
20
-80.1
11
90.3
21
-80.1
0
LINE
8
0
10
76.3
20
-66.1
11
76.3
21
-80.1
0
LINE
8
0
10
90.3
20
-66.1
11
90.3
21
-80.1
0
LINE
8
0
10
93.3
20
-66.1
11
107.3
21
-66.1
0
LINE
8
0
10
93.3
20
-80.1
11
107.3
21
-80.1
0
LINE
8
0
10
93.3
20
-66.1
11
93.3
21
-80.1
0
LINE
8
0
10
107.3
20
-66.1
11
107.3
21
-80.1
0
LINE
8
0
10
17
20
-81.6
11
108.8
21
-81.6
0
LINE
8
0
10
17
20
-12.75
11
108.8
21
-12.75
0
LINE
8
0
10
17
20
-81.6
11
17
21
-12.75
0
LINE
8
0
10
108.8
20
-81.6
11
108.8
21
-12.75
0
ENDSEC
0
EOF