<?xml version="1.0"?>
<!DOCTYPE svg PUBLIC "-//W3C//DTD SVG 1.1//EN" "http://www.w3.org/Graphics/SVG/1.1/DTD/svg11.dtd">
<svg width="100.47000000000001mm" height="80.6774589mm" viewBox="0 0 100.47000000000001 80.6774589" xmlns="http://www.w3.org/2000/svg" version="1.1">
<g id="Sketch006" transform="translate(108.019241,3.228790) scale(1,-1)">
<path id="Sketch006_w0000"  d="M -104.34121872071192 2.243789672851563 A 2.69302 2.69302 0 0 1 -107.034 -0.449232L -107.03424072265625 -73.67562422681853 A 2.78805 2.78805 0 0 1 -104.246 -76.4637L -15.183644088015868 -76.46366922714844 A 1.99447 1.99447 0 0 1 -13.2484 -74.9517L -9.376625734652272 -59.42278081793667 L -8.758037688276598 -56.941759715078014 A 7.53417 7.53417 0 0 1 -8.53424 -55.1191L -8.534240722656248 -46.48070186345986 A 0.244432 0.244432 0 0 1 -8.77867 -46.2363L -23.03424072265625 -46.23626986345986 L -23.034240722656246 -1.3871073035992065 A 3.6309 3.6309 0 0 1 -26.6651 2.24379L -104.34121872071192 2.243789672851563 " stroke="#191919" stroke-width="0.35 px" style="stroke-width:0.35;stroke-miterlimit:4;stroke-dasharray:none;fill:none;fill-opacity:1;fill-rule: evenodd"/>
<title>b'Sketch006'</title>
</g>
</svg>