0
SECTION
2
HEADER
9
$INSUNITS
70
4
0
ENDSEC
0
SECTION
2
TABLES
0
TABLE
2
LTYPE
0
LTYPE
72
65
70
64
2
CONTINUOUS
3
______
73
0
40
0
0
ENDTAB
0
TABLE
2
LAYER
0
ENDTAB
0
ENDSEC
0
SECTION
2
ENTITIES
0
LINE
8
0
10
17.75
20
-17.75
11
31.75
21
-17.75
0
LINE
8
0
10
17.75
20
-31.75
11
31.75
21
-31.75
0
LINE
8
0
10
17.75
20
-17.75
11
17.75
21
-31.75
0
LINE
8
0
10
31.75
20
-17.75
11
31.75
21
-31.75
0
LINE
8
0
10
34.25
20
-17.75
11
48.25
21
-17.75
0
LINE
8
0
10
34.25
20
-31.75
11
48.25
21
-31.75
0
LINE
8
0
10
34.25
20
-17.75
11
34.25
21
-31.75
0
LINE
8
0
10
48.25
20
-17.75
11
48.25
21
-31.75
0
LINE
8
0
10
50.75
20
-17.75
11
64.75
21
-17.75
0
LINE
8
0
10
50.75
20
-31.75
11
64.75
21
-31.75
0
LINE
8
0
10
50.75
20
-17.75
11
50.75
21
-31.75
0
LINE
8
0
10
64.75
20
-17.75
11
64.75
21
-31.75
0
LINE
8
0
10
67.25
20
-17.75
11
81.25
21
-17.75
0
LINE
8
0
10
67.25
20
-31.75
11
81.25
21
-31.75
0
LINE
8
0
10
67.25
20
-17.75
11
67.25
21
-31.75
0
LINE
8
0
10
81.25
20
-17.75
11
81.25
21
-31.75
0
LINE
8
0
10
83.75
20
-17.75
11
97.75
21
-17.75
0
LINE
8
0
10
83.75
20
-31.75
11
97.75
21
-31.75
0
LINE
8
0
10
83.75
20
-17.75
11
83.75
21
-31.75
0
LINE
8
0
10
97.75
20
-17.75
11
97.75
21
-31.75
0
LINE
8
0
10
17.75
20
-34.25
11
31.75
21
-34.25
0
LINE
8
0
10
17.75
20
-48.25
11
31.75
21
-48.25
0
LINE
8
0
10
17.75
20
-34.25
11
17.75
21
-48.25
0
LINE
8
0
10
31.75
20
-34.25
11
31.75
21
-48.25
0
LINE
8
0
10
34.25
20
-34.25
11
48.25
21
-34.25
0
LINE
8
0
10
34.25
20
-48.25
11
48.25
21
-48.25
0
LINE
8
0
10
34.25
20
-34.25
11
34.25
21
-48.25
0
LINE
8
0
10
48.25
20
-34.25
11
48.25
21
-48.25
0
LINE
8
0
10
50.75
20
-34.25
11
64.75
21
-34.25
0
LINE
8
0
10
50.75
20
-48.25
11
64.75
21
-48.25
0
LINE
8
0
10
50.75
20
-34.25
11
50.75
21
-48.25
0
LINE
8
0
10
64.75
20
-34.25
11
64.75
21
-48.25
0
LINE
8
0
10
67.25
20
-34.25
11
81.25
21
-34.25
0
LINE
8
0
10
67.25
20
-48.25
11
81.25
21
-48.25
0
LINE
8
0
10
67.25
20
-34.25
11
67.25
21
-48.25
0
LINE
8
0
10
81.25
20
-34.25
11
81.25
21
-48.25
0
LINE
8
0
10
83.75
20
-34.25
11
97.75
21
-34.25
0
LINE
8
0
10
83.75
20
-48.25
11
97.75
21
-48.25
0
LINE
8
0
10
83.75
20
-34.25
11
83.75
21
-48.25
0
LINE
8
0
10
97.75
20
-34.25
11
97.75
21
-48.25
0
LINE
8
0
10
17.75
20
-50.75
11
31.75
21
-50.75
0
LINE
8
0
10
17.75
20
-64.75
11
31.75
21
-64.75
0
LINE
8
0
10
17.75
20
-50.75
11
17.75
21
-64.75
0
LINE
8
0
10
31.75
20
-50.75
11
31.75
21
-64.75
0
LINE
8
0
10
34.25
20
-50.75
11
48.25
21
-50.75
0
LINE
8
0
10
34.25
20
-64.75
11
48.25
21
-64.75
0
LINE
8
0
10
34.25
20
-50.75
11
34.25
21
-64.75
0
LINE
8
0
10
48.25
20
-50.75
11
48.25
21
-64.75
0
LINE
8
0
10
50.75
20
-50.75
11
64.75
21
-50.75
0
LINE
8
0
10
50.75
20
-64.75
11
64.75
21
-64.75
0
LINE
8
0
10
50.75
20
-50.75
11
50.75
21
-64.75
0
LINE
8
0
10
64.75
20
-50.75
11
64.75
21
-64.75
0
LINE
8
0
10
67.25
20
-50.75
11
81.25
21
-50.75
0
LINE
8
0
10
67.25
20
-64.75
11
81.25
21
-64.75
0
LINE
8
0
10
67.25
20
-50.75
11
67.25
21
-64.75
0
LINE
8
0
10
81.25
20
-50.75
11
81.25
21
-64.75
0
LINE
8
0
10
83.75
20
-50.75
11
97.75
21
-50.75
0
LINE
8
0
10
83.75
20
-64.75
11
97.75
21
-64.75
0
LINE
8
0
10
83.75
20
-50.75
11
83.75
21
-64.75
0
LINE
8
0
10
97.75
20
-50.75
11
97.75
21
-64.75
0
LINE
8
0
10
44.15
20
-69.725
11
58.15
21
-69.725
0
LINE
8
0
10
44.15
20
-83.725
11
58.15
21
-83.725
0
LINE
8
0
10
44.15
20
-69.725
11
44.15
21
-83.725
0
LINE
8
0
10
58.15
20
-69.725
11
58.15
21
-83.725
0
LINE
8
0
10
61.475
20
-69.725
11
75.475
21
-69.725
0
LINE
8
0
10
61.475
20
-83.725
11
75.475
21
-83.725
0
LINE
8
0
10
61.475
20
-69.725
11
61.475
21
-83.725
0
LINE
8
0
10
75.475
20
-69.725
11
75.475
21
-83.725
0
LINE
8
0
10
79.0850627
20
-69.6363257
11
93.0509594
21
-70.6129164
0
LINE
8
0
10
78.108472
20
-83.6022224
11
92.0743687
21
-84.5788131
0
LINE
8
0
10
79.0850627
20
-69.6363257
11
78.108472
21
-83.6022224
0
LINE
8
0
10
93.0509594
20
-70.6129164
11
92.0743687
21
-84.5788131
0
LINE
8
0
10
97.3990394
20
-71.4864121
11
110.9831796
21
-74.8733187
0
LINE
8
0
10
94.0121328
20
-85.0705523
11
107.596273
21
-88.4574589
0
LINE
8
0
10
97.3990394
20
-71.4864121
11
94.0121328
21
-85.0705523
0
LINE
8
0
10
110.9831796
20
-74.8733187
11
107.596273
21
-88.4574589
0
LINE
8
0
10
16.5
20
-88.2219355
11
110.7476562
21
-88.2219355
0
LINE
8
0
10
16.5
20
-16.5
11
110.7476562
21
-16.5
0
LINE
8
0
10
16.5
20
-88.2219355
11
16.5
21
-16.5
0
LINE
8
0
10
110.7476562
20
-88.2219355
11
110.7476562
21
-16.5
0
ENDSEC
0
EOF