<?xml version="1.0"?>
<!DOCTYPE svg PUBLIC "-//W3C//DTD SVG 1.1//EN" "http://www.w3.org/Graphics/SVG/1.1/DTD/svg11.dtd">
<svg width="108.29009470183058mm" height="80.83079409023199mm" viewBox="0 0 108.29009470183058 80.83079409023199" xmlns="http://www.w3.org/2000/svg" version="1.1">
<g id="Sketch002" transform="translate(108.095908,3.305457) scale(1,-1)">
<path id="Sketch002_w0000"  d="M -105.03424072265625 -3.7562103271484375 L -105.03424072265625 -17.756210327148438 L -91.03424072265625 -17.756210327148438 L -91.03424072265625 -3.7562103271484375 L -105.03424072265625 -3.7562103271484375 " stroke="#191919" stroke-width="0.35 px" style="stroke-width:0.35;stroke-miterlimit:4;stroke-dasharray:none;fill:none;fill-opacity:1;fill-rule: evenodd"/>
<path id="Sketch002_w0001"  d="M -39.03424072265625 -3.7562103271484375 L -39.03424072265625 -17.756210327148438 L -25.03424072265625 -17.756210327148438 L -25.03424072265625 -3.7562103271484375 L -39.03424072265625 -3.7562103271484375 " stroke="#191919" stroke-width="0.35 px" style="stroke-width:0.35;stroke-miterlimit:4;stroke-dasharray:none;fill:none;fill-opacity:1;fill-rule: evenodd"/>
<path id="Sketch002_w0002"  d="M -78.63424072265624 -55.73121032714843 L -64.63424072265624 -55.73121032714843 L -64.63424072265624 -69.73121032714843 L -78.63424072265624 -69.73121032714843 L -78.63424072265624 -55.73121032714843 " stroke="#191919" stroke-width="0.35 px" style="stroke-width:0.35;stroke-miterlimit:4;stroke-dasharray:none;fill:none;fill-opacity:1;fill-rule: evenodd"/>
<path id="Sketch002_w0003"  d="M -15.187967722656253 -74.46366922714844 L -28.772107922656247 -71.07676262714844 L -25.385201322656243 -57.49262242714843 L -11.80106112265625 -60.879529027148436 L -15.187967722656253 -74.46366922714844 " stroke="#191919" stroke-width="0.35 px" style="stroke-width:0.35;stroke-miterlimit:4;stroke-dasharray:none;fill:none;fill-opacity:1;fill-rule: evenodd"/>
<path id="Sketch002_w0004"  d="M -39.03424072265625 -20.256210327148438 L -25.03424072265625 -20.256210327148438 L -25.03424072265625 -34.25621032714844 L -39.03424072265625 -34.25621032714844 L -39.03424072265625 -20.256210327148438 " stroke="#191919" stroke-width="0.35 px" style="stroke-width:0.35;stroke-miterlimit:4;stroke-dasharray:none;fill:none;fill-opacity:1;fill-rule: evenodd"/>
<path id="Sketch002_w0005"  d="M -41.53424072265625 -34.25621032714844 L -55.53424072265625 -34.25621032714844 L -55.53424072265625 -20.256210327148438 L -41.53424072265625 -20.256210327148438 L -41.53424072265625 -34.25621032714844 " stroke="#191919" stroke-width="0.35 px" style="stroke-width:0.35;stroke-miterlimit:4;stroke-dasharray:none;fill:none;fill-opacity:1;fill-rule: evenodd"/>
<path id="Sketch002_w0006"  d="M -25.03424072265625 -50.75621032714844 L -39.03424072265625 -50.75621032714844 L -39.03424072265625 -36.75621032714844 L -25.03424072265625 -36.75621032714844 L -25.03424072265625 -50.75621032714844 " stroke="#191919" stroke-width="0.35 px" style="stroke-width:0.35;stroke-miterlimit:4;stroke-dasharray:none;fill:none;fill-opacity:1;fill-rule: evenodd"/>
<path id="Sketch002_w0007"  d="M -72.03424072265625 -20.256210327148438 L -72.03424072265625 -34.25621032714844 L -58.03424072265625 -34.25621032714844 L -58.03424072265625 -20.256210327148438 L -72.03424072265625 -20.256210327148438 " stroke="#191919" stroke-width="0.35 px" style="stroke-width:0.35;stroke-miterlimit:4;stroke-dasharray:none;fill:none;fill-opacity:1;fill-rule: evenodd"/>
<path id="Sketch002_w0008"  d="M -105.03424072265625 -20.256210327148438 L -105.03424072265625 -34.25621032714844 L -91.03424072265625 -34.25621032714844 L -91.03424072265625 -20.256210327148438 L -105.03424072265625 -20.256210327148438 " stroke="#191919" stroke-width="0.35 px" style="stroke-width:0.35;stroke-miterlimit:4;stroke-dasharray:none;fill:none;fill-opacity:1;fill-rule: evenodd"/>
<path id="Sketch002_w0009"  d="M -61.30924072265625 -55.73121032714843 L -47.309240722656256 -55.73121032714843 L -47.309240722656256 -69.73121032714843 L -61.30924072265625 -69.73121032714843 L -61.30924072265625 -55.73121032714843 " stroke="#191919" stroke-width="0.35 px" style="stroke-width:0.35;stroke-miterlimit:4;stroke-dasharray:none;fill:none;fill-opacity:1;fill-rule: evenodd"/>
<path id="Sketch002_w0010"  d="M -55.53424072265625 -36.75621032714844 L -41.53424072265625 -36.75621032714844 L -41.53424072265625 -50.75621032714844 L -55.53424072265625 -50.75621032714844 L -55.53424072265625 -36.75621032714844 " stroke="#191919" stroke-width="0.35 px" style="stroke-width:0.35;stroke-miterlimit:4;stroke-dasharray:none;fill:none;fill-opacity:1;fill-rule: evenodd"/>
<path id="Sketch002_w0011"  d="M -88.53424072265625 -3.7562103271484375 L -88.53424072265625 -17.756210327148438 L -74.53424072265625 -17.756210327148438 L -74.53424072265625 -3.7562103271484375 L -88.53424072265625 -3.7562103271484375 " stroke="#191919" stroke-width="0.35 px" style="stroke-width:0.35;stroke-miterlimit:4;stroke-dasharray:none;fill:none;fill-opacity:1;fill-rule: evenodd"/>
<path id="Sketch002_w0012"  d="M -91.03424072265625 -50.75621032714844 L -105.03424072265625 -50.75621032714844 L -105.03424072265625 -36.75621032714844 L -91.03424072265625 -36.75621032714844 L -91.03424072265625 -50.75621032714844 " stroke="#191919" stroke-width="0.35 px" style="stroke-width:0.35;stroke-miterlimit:4;stroke-dasharray:none;fill:none;fill-opacity:1;fill-rule: evenodd"/>
<path id="Sketch002_w0013"  d="M -72.03424072265625 -36.75621032714844 L -72.03424072265625 -50.75621032714844 L -58.03424072265625 -50.75621032714844 L -58.03424072265625 -36.75621032714844 L -72.03424072265625 -36.75621032714844 " stroke="#191919" stroke-width="0.35 px" style="stroke-width:0.35;stroke-miterlimit:4;stroke-dasharray:none;fill:none;fill-opacity:1;fill-rule: evenodd"/>
<path id="Sketch002_w0014"  d="M -88.53424072265625 -50.75621032714844 L -74.53424072265625 -50.75621032714844 L -74.53424072265625 -36.75621032714844 L -88.53424072265625 -36.75621032714844 L -88.53424072265625 -50.75621032714844 " stroke="#191919" stroke-width="0.35 px" style="stroke-width:0.35;stroke-miterlimit:4;stroke-dasharray:none;fill:none;fill-opacity:1;fill-rule: evenodd"/>
<path id="Sketch002_w0015"  d="M -43.699178022656255 -55.64253602714844 L -29.733281322656254 -56.61912672714844 L -30.709872022656256 -70.58502342714844 L -44.675768722656244 -69.60843272714844 L -43.699178022656255 -55.64253602714844 " stroke="#191919" stroke-width="0.35 px" style="stroke-width:0.35;stroke-miterlimit:4;stroke-dasharray:none;fill:none;fill-opacity:1;fill-rule: evenodd"/>
<path id="Sketch002_w0016"  d="M -74.53424072265625 -20.256210327148438 L -74.53424072265625 -34.25621032714844 L -88.53424072265625 -34.25621032714844 L -88.53424072265625 -20.256210327148438 L -74.53424072265625 -20.256210327148438 " stroke="#191919" stroke-width="0.35 px" style="stroke-width:0.35;stroke-miterlimit:4;stroke-dasharray:none;fill:none;fill-opacity:1;fill-rule: evenodd"/>
<path id="Sketch002_w0017"  d="M -41.53424072265625 -17.756210327148438 L -55.53424072265625 -17.756210327148438 L -55.53424072265625 -3.7562103271484375 L -41.53424072265625 -3.7562103271484375 L -41.53424072265625 -17.756210327148438 " stroke="#191919" stroke-width="0.35 px" style="stroke-width:0.35;stroke-miterlimit:4;stroke-dasharray:none;fill:none;fill-opacity:1;fill-rule: evenodd"/>
<path id="Sketch002_w0018"  d="M -72.03424072265625 -3.7562103271484375 L -58.03424072265625 -3.7562103271484375 L -58.03424072265625 -17.756210327148438 L -72.03424072265625 -17.756210327148438 L -72.03424072265625 -3.7562103271484375 " stroke="#191919" stroke-width="0.35 px" style="stroke-width:0.35;stroke-miterlimit:4;stroke-dasharray:none;fill:none;fill-opacity:1;fill-rule: evenodd"/>
<path id="Sketch002_w0019"  d="M -23.03424072265625 2.2437896728515625 L -7.280576523137086 2.2437896728515625 L -7.2805765231370865 -69.22090785419446 L -13.62539647562437 -76.46366922714844 L -107.03424072265624 -76.46366922714844 L -107.03424072265624 2.2437896728515625 L -23.03424072265625 2.2437896728515625 L -23.03424072265625 -56.729243923551955 M -25.758194436746635 -55.33840193823078 L -9.376625734652272 -59.42278081793667 L -13.62539647562437 -76.46366922714844 " stroke="#191919" stroke-width="0.35 px" style="stroke-width:0.35;stroke-miterlimit:4;stroke-dasharray:none;fill:none;fill-opacity:1;fill-rule: evenodd"/>
<path id="Sketch002_w0020"  d="M -8.280576523137086 -49.43948465196629 L -21.280576523137086 -49.43948465196629 L -21.280576523137086 -55.93948465196629 L -8.280576523137086 -55.93948465196629 L -8.280576523137086 -49.43948465196629 " stroke="#191919" stroke-width="0.35 px" style="stroke-width:0.35;stroke-miterlimit:4;stroke-dasharray:none;fill:none;fill-opacity:1;fill-rule: evenodd"/>
<path id="Sketch002_w0021"  d="M -17.9810248744639 -66.55298639501606 L -0.8674812110576369 -70.81987212569918 " stroke="#191919" stroke-width="0.35 px" style="stroke-width:0.35;stroke-miterlimit:4;stroke-dasharray:none;fill:none;fill-opacity:1;fill-rule: evenodd"/>
<circle cx="-98.03424072265625" cy="-0.7562103271484374" r="2.2" stroke="#191919" stroke-width="0.35 px" style="stroke-width:0.35;stroke-miterlimit:4;stroke-dasharray:none;fill:none"/>
<circle cx="-32.03424072265625" cy="-0.7562103271484373" r="2.2" stroke="#191919" stroke-width="0.35 px" style="stroke-width:0.35;stroke-miterlimit:4;stroke-dasharray:none;fill:none"/>
<circle cx="-10.583627240949495" cy="-68.39736480240133" r="2.2" stroke="#191919" stroke-width="0.35 px" style="stroke-width:0.35;stroke-miterlimit:4;stroke-dasharray:none;fill:none"/>
<circle cx="-71.63424072265624" cy="-73.46366922714844" r="2.2" stroke="#191919" stroke-width="0.35 px" style="stroke-width:0.35;stroke-miterlimit:4;stroke-dasharray:none;fill:none"/>
<circle cx="-11.280576523137086" cy="-1.7562103271484373" r="2.2" stroke="#191919" stroke-width="0.35 px" style="stroke-width:0.35;stroke-miterlimit:4;stroke-dasharray:none;fill:none"/>
<circle cx="-11.280576523137086" cy="-43.43948465196628" r="2.2" stroke="#191919" stroke-width="0.35 px" style="stroke-width:0.35;stroke-miterlimit:4;stroke-dasharray:none;fill:none"/>
<path id="Sketch002_w0028"  d="M -106.03424072265625 -54.46366922714845 L -82.03424072265625 -54.46366922714845 L -82.03424072265625 -75.46366922714846 L -106.03424072265625 -75.46366922714846 L -106.03424072265625 -54.46366922714845 " stroke="#191919" stroke-width="0.35 px" style="stroke-width:0.35;stroke-miterlimit:4;stroke-dasharray:none;fill:none;fill-opacity:1;fill-rule: evenodd"/>
<title>b'Sketch002'</title>
</g>
</svg>