<?xml version="1.0"?>
<!DOCTYPE svg PUBLIC "-//W3C//DTD SVG 1.1//EN" "http://www.w3.org/Graphics/SVG/1.1/DTD/svg11.dtd">
<svg width="99.2778541654713mm" height="80.65022814941368mm" viewBox="0 0 99.2778541654713 80.65022814941368" xmlns="http://www.w3.org/2000/svg" version="1.1">
<g id="Sketch005" transform="translate(108.003312,3.216916) scale(1,-1)">
<path id="Sketch005_w0000"  d="M -104.34121872071196 2.2396219404201645 A 2.68892 2.68892 0 0 1 -107.03 -0.449297L -107.03 -51.250000000000014 A 1.5 1.5 0 0 1 -105.53 -52.75L -78.03 -52.750000000000014 L -78.03 -74.96 A 1.5 1.5 0 0 1 -76.53 -76.46L -15.18431400709231 -76.46 A 1.99151 1.99151 0 0 1 -13.252 -74.9503L -9.743028445750321 -60.87671264619359 A 1.5 1.5 0 0 1 -10.8356 -59.0584L -23.034240722656246 -56.01692078980302 L -23.034240722656254 -1.3871073035992056 A 3.63071 3.63071 0 0 1 -26.6651 2.2436L -104.34121872071196 2.2396219404201645 " stroke="#191919" stroke-width="0.35 px" style="stroke-width:0.35;stroke-miterlimit:4;stroke-dasharray:none;fill:none;fill-opacity:1;fill-rule: evenodd"/>
<title>b'Sketch005'</title>
</g>
</svg>