%TF.GenerationSoftware,KiCad,Pcbnew,(6.0.9)*%
%TF.CreationDate,2023-01-03T16:32:55+09:00*%
%TF.ProjectId,split-mini,73706c69-742d-46d6-996e-692e6b696361,rev?*%
%TF.SameCoordinates,Original*%
%TF.FileFunction,Soldermask,Top*%
%TF.FilePolarity,Negative*%
%FSLAX46Y46*%
G04 Gerber Fmt 4.6, Leading zero omitted, Abs format (unit mm)*
G04 Created by KiCad (PCBNEW (6.0.9)) date 2023-01-03 16:32:55*
%MOMM*%
%LPD*%
G01*
G04 APERTURE LIST*
G04 Aperture macros list*
%AMRoundRect*
0 Rectangle with rounded corners*
0 $1 Rounding radius*
0 $2 $3 $4 $5 $6 $7 $8 $9 X,Y pos of 4 corners*
0 Add a 4 corners polygon primitive as box body*
4,1,4,$2,$3,$4,$5,$6,$7,$8,$9,$2,$3,0*
0 Add four circle primitives for the rounded corners*
1,1,$1+$1,$2,$3*
1,1,$1+$1,$4,$5*
1,1,$1+$1,$6,$7*
1,1,$1+$1,$8,$9*
0 Add four rect primitives between the rounded corners*
20,1,$1+$1,$2,$3,$4,$5,0*
20,1,$1+$1,$4,$5,$6,$7,0*
20,1,$1+$1,$6,$7,$8,$9,0*
20,1,$1+$1,$8,$9,$2,$3,0*%
G04 Aperture macros list end*
%TA.AperFunction,Profile*%
%ADD10C,0.100000*%
%TD*%
%ADD11C,1.524000*%
%ADD12R,0.950000X1.300000*%
%ADD13C,1.701800*%
%ADD14C,3.987800*%
%ADD15C,3.000000*%
%ADD16RoundRect,0.200000X-1.075000X-1.050000X1.075000X-1.050000X1.075000X1.050000X-1.075000X1.050000X0*%
%ADD17C,5.000000*%
%ADD18C,2.000000*%
%ADD19RoundRect,0.200000X-1.240999X-0.847376X0.876338X-1.220720X1.240999X0.847376X-0.876338X1.220720X0*%
%ADD20C,1.200000*%
%ADD21O,1.700000X2.500000*%
G04 APERTURE END LIST*
D10*
X19950000Y-15475000D02*
X19950000Y-111725000D01*
X119667171Y-97563496D02*
X103950000Y-94792135D01*
X66450000Y-22475000D02*
X55950000Y-22475000D01*
X116541504Y-115290036D02*
X119667171Y-97563496D01*
X55950000Y-15475000D02*
X19950000Y-15475000D01*
X55950000Y-15475000D02*
X55950000Y-22475000D01*
X66450000Y-36475000D02*
X103950000Y-36475000D01*
X96323180Y-111725000D02*
X116541504Y-115290036D01*
X103950000Y-94792135D02*
X103950000Y-36475000D01*
X19950000Y-111725000D02*
X96323180Y-111725000D01*
X66450000Y-22475000D02*
X66450000Y-36475000D01*
D11*
%TO.C,H1*%
X84230000Y-38300000D03*
X81690000Y-38300000D03*
X79150000Y-38300000D03*
X76610000Y-38250000D03*
X74070000Y-38300000D03*
%TD*%
D12*
%TO.C,D7*%
X39275000Y-74650000D03*
X39275000Y-71100000D03*
%TD*%
D13*
%TO.C,SW6*%
X23870000Y-73850000D03*
D14*
X28950000Y-73850000D03*
D15*
X32760000Y-71400000D03*
X31490000Y-68770000D03*
X25140000Y-71310000D03*
D13*
X34030000Y-73850000D03*
D15*
X26410000Y-68770000D03*
D16*
X36035000Y-71310000D03*
X23108000Y-68770000D03*
%TD*%
D15*
%TO.C,SW11*%
X25090000Y-88735000D03*
X32710000Y-88825000D03*
D13*
X33980000Y-91275000D03*
D15*
X26360000Y-86195000D03*
X31440000Y-86195000D03*
D14*
X28900000Y-91275000D03*
D13*
X23820000Y-91275000D03*
D16*
X35985000Y-88735000D03*
X23058000Y-86195000D03*
%TD*%
D12*
%TO.C,D6*%
X22675000Y-79850000D03*
X22675000Y-76300000D03*
%TD*%
D13*
%TO.C,SW9*%
X83580000Y-65950000D03*
D15*
X82310000Y-63500000D03*
D14*
X78500000Y-65950000D03*
D15*
X81040000Y-60870000D03*
D13*
X73420000Y-65950000D03*
D15*
X75960000Y-60870000D03*
X74690000Y-63410000D03*
D16*
X85585000Y-63410000D03*
X72658000Y-60870000D03*
%TD*%
D14*
%TO.C,SW3*%
X61965000Y-48530000D03*
D13*
X56885000Y-48530000D03*
X67045000Y-48530000D03*
D15*
X59425000Y-43450000D03*
X64505000Y-43450000D03*
X65775000Y-46080000D03*
X58155000Y-45990000D03*
D16*
X69050000Y-45990000D03*
X56123000Y-43450000D03*
%TD*%
D12*
%TO.C,D9*%
X72300000Y-71925000D03*
X72300000Y-68375000D03*
%TD*%
%TO.C,D16*%
X60750000Y-108725000D03*
X60750000Y-105175000D03*
%TD*%
%TO.C,D11*%
X22900000Y-97425000D03*
X22900000Y-93875000D03*
%TD*%
%TO.C,D14*%
X72225000Y-89550000D03*
X72225000Y-86000000D03*
%TD*%
%TO.C,D17*%
X79225000Y-108800000D03*
X79225000Y-105250000D03*
%TD*%
D13*
%TO.C,SW5*%
X99980000Y-50225000D03*
D15*
X91090000Y-47685000D03*
D13*
X89820000Y-50225000D03*
D14*
X94900000Y-50225000D03*
D15*
X98710000Y-47775000D03*
X92360000Y-45145000D03*
X97440000Y-45145000D03*
D16*
X101985000Y-47685000D03*
X89058000Y-45145000D03*
%TD*%
D17*
%TO.C,HOLE3*%
X94950000Y-39775000D03*
%TD*%
D18*
%TO.C,SW19*%
X22050000Y-44200000D03*
X22050000Y-37700000D03*
%TD*%
D15*
%TO.C,SW15*%
X92410000Y-80170000D03*
X97490000Y-80170000D03*
D13*
X100030000Y-85250000D03*
D15*
X98760000Y-82800000D03*
D14*
X94950000Y-85250000D03*
D13*
X89870000Y-85250000D03*
D15*
X91140000Y-82710000D03*
D16*
X102035000Y-82710000D03*
X89108000Y-80170000D03*
%TD*%
D12*
%TO.C,D13*%
X55750000Y-89525000D03*
X55750000Y-85975000D03*
%TD*%
D15*
%TO.C,SW7*%
X42935000Y-63520000D03*
D13*
X50555000Y-68600000D03*
D14*
X45475000Y-68600000D03*
D15*
X41665000Y-66060000D03*
X48015000Y-63520000D03*
D13*
X40395000Y-68600000D03*
D15*
X49285000Y-66150000D03*
D16*
X52560000Y-66060000D03*
X39633000Y-63520000D03*
%TD*%
D12*
%TO.C,D1*%
X22700000Y-62325000D03*
X22700000Y-58775000D03*
%TD*%
D13*
%TO.C,SW16*%
X61820000Y-102700000D03*
D14*
X66900000Y-102700000D03*
D15*
X63090000Y-100160000D03*
X64360000Y-97620000D03*
D13*
X71980000Y-102700000D03*
D15*
X69440000Y-97620000D03*
X70710000Y-100250000D03*
D16*
X73985000Y-100160000D03*
X61058000Y-97620000D03*
%TD*%
D12*
%TO.C,D18*%
X100350000Y-110100000D03*
X100350000Y-106550000D03*
%TD*%
D17*
%TO.C,HOLE4*%
X28925000Y-106375000D03*
%TD*%
D12*
%TO.C,D4*%
X72300000Y-54575000D03*
X72300000Y-51025000D03*
%TD*%
%TO.C,D10*%
X88900000Y-73700000D03*
X88900000Y-70150000D03*
%TD*%
D15*
%TO.C,SW18*%
X105655721Y-99081110D03*
D14*
X107275000Y-104525000D03*
D13*
X112277823Y-105407133D03*
D15*
X111452556Y-102773821D03*
X110658544Y-99963243D03*
X103963949Y-101361989D03*
D13*
X102272177Y-103642867D03*
D19*
X114693429Y-103253886D03*
X102403886Y-98507724D03*
%TD*%
D20*
%TO.C,J1*%
X62025000Y-24075000D03*
X62025000Y-31075000D03*
X60275000Y-24075000D03*
X60275000Y-31075000D03*
D21*
X62375000Y-34375000D03*
X59925000Y-34375000D03*
X64125000Y-25875000D03*
X58175000Y-25875000D03*
X64125000Y-28875000D03*
X58175000Y-28875000D03*
X64125000Y-32875000D03*
X58175000Y-32875000D03*
%TD*%
D12*
%TO.C,D3*%
X55725000Y-54625000D03*
X55725000Y-51075000D03*
%TD*%
D15*
%TO.C,SW8*%
X64515000Y-60895000D03*
D13*
X67055000Y-65975000D03*
D15*
X59435000Y-60895000D03*
X58165000Y-63435000D03*
X65785000Y-63525000D03*
D13*
X56895000Y-65975000D03*
D14*
X61975000Y-65975000D03*
D16*
X69060000Y-63435000D03*
X56133000Y-60895000D03*
%TD*%
D17*
%TO.C,HOLE2*%
X96450000Y-102475000D03*
%TD*%
D15*
%TO.C,SW17*%
X82885000Y-97645000D03*
X89235000Y-100275000D03*
D14*
X85425000Y-102725000D03*
D15*
X81615000Y-100185000D03*
D13*
X80345000Y-102725000D03*
X90505000Y-102725000D03*
D15*
X87965000Y-97645000D03*
D16*
X92510000Y-100185000D03*
X79583000Y-97645000D03*
%TD*%
D11*
%TO.C,U1*%
X25317000Y-18950000D03*
X24047000Y-32863600D03*
X27857000Y-18950000D03*
X26587000Y-32863600D03*
X29127000Y-32863600D03*
X30397000Y-18950000D03*
X31667000Y-32863600D03*
X32937000Y-18950000D03*
X35477000Y-18950000D03*
X34207000Y-32863600D03*
X36747000Y-32863600D03*
X38017000Y-18950000D03*
X39287000Y-32863600D03*
X40557000Y-18950000D03*
X41827000Y-32863600D03*
X43097000Y-18950000D03*
X44367000Y-32863600D03*
X45637000Y-18950000D03*
X48177000Y-18950000D03*
X46907000Y-32863600D03*
X50717000Y-18950000D03*
X49447000Y-32863600D03*
X53257000Y-18950000D03*
X51987000Y-32863600D03*
X51987000Y-17643600D03*
X53257000Y-34190000D03*
X49447000Y-17643600D03*
X50717000Y-34190000D03*
X48177000Y-34190000D03*
X46907000Y-17643600D03*
X45637000Y-34190000D03*
X44367000Y-17643600D03*
X41827000Y-17643600D03*
X43097000Y-34190000D03*
X40557000Y-34190000D03*
X39287000Y-17643600D03*
X38017000Y-34190000D03*
X36747000Y-17643600D03*
X35477000Y-34190000D03*
X34207000Y-17643600D03*
X32937000Y-34190000D03*
X31667000Y-17643600D03*
X29127000Y-17643600D03*
X30397000Y-34190000D03*
X26587000Y-17643600D03*
X27857000Y-34190000D03*
X24047000Y-17643600D03*
X25317000Y-34190000D03*
%TD*%
D15*
%TO.C,SW10*%
X91140000Y-65185000D03*
D13*
X100030000Y-67725000D03*
D15*
X97490000Y-62645000D03*
D13*
X89870000Y-67725000D03*
D14*
X94950000Y-67725000D03*
D15*
X98760000Y-65275000D03*
X92410000Y-62645000D03*
D16*
X102035000Y-65185000D03*
X89108000Y-62645000D03*
%TD*%
D12*
%TO.C,D15*%
X88750000Y-91275000D03*
X88750000Y-87725000D03*
%TD*%
D15*
%TO.C,SW2*%
X41685000Y-48535000D03*
X48035000Y-45995000D03*
D13*
X50575000Y-51075000D03*
D14*
X45495000Y-51075000D03*
D13*
X40415000Y-51075000D03*
D15*
X42955000Y-45995000D03*
X49305000Y-48625000D03*
D16*
X52580000Y-48535000D03*
X39653000Y-45995000D03*
%TD*%
D14*
%TO.C,SW13*%
X62050000Y-83450000D03*
D15*
X65860000Y-81000000D03*
X58240000Y-80910000D03*
D13*
X67130000Y-83450000D03*
D15*
X59510000Y-78370000D03*
X64590000Y-78370000D03*
D13*
X56970000Y-83450000D03*
D16*
X69135000Y-80910000D03*
X56208000Y-78370000D03*
%TD*%
D17*
%TO.C,HOLE1*%
X28950000Y-41375000D03*
%TD*%
D15*
%TO.C,SW12*%
X48015000Y-80995000D03*
X49285000Y-83625000D03*
D13*
X40395000Y-86075000D03*
X50555000Y-86075000D03*
D14*
X45475000Y-86075000D03*
D15*
X42935000Y-80995000D03*
X41665000Y-83535000D03*
D16*
X52560000Y-83535000D03*
X39633000Y-80995000D03*
%TD*%
D15*
%TO.C,SW14*%
X80990000Y-78395000D03*
D13*
X83530000Y-83475000D03*
D15*
X75910000Y-78395000D03*
D13*
X73370000Y-83475000D03*
D15*
X74640000Y-80935000D03*
D14*
X78450000Y-83475000D03*
D15*
X82260000Y-81025000D03*
D16*
X85535000Y-80935000D03*
X72608000Y-78395000D03*
%TD*%
D15*
%TO.C,SW1*%
X31440000Y-51270000D03*
X32710000Y-53900000D03*
D14*
X28900000Y-56350000D03*
D13*
X23820000Y-56350000D03*
D15*
X26360000Y-51270000D03*
X25090000Y-53810000D03*
D13*
X33980000Y-56350000D03*
D16*
X35985000Y-53810000D03*
X23058000Y-51270000D03*
%TD*%
D12*
%TO.C,D5*%
X88775000Y-56300000D03*
X88775000Y-52750000D03*
%TD*%
%TO.C,D8*%
X55750000Y-71975000D03*
X55750000Y-68425000D03*
%TD*%
D15*
%TO.C,SW4*%
X82335000Y-46070000D03*
X75985000Y-43440000D03*
D13*
X73445000Y-48520000D03*
D15*
X74715000Y-45980000D03*
D14*
X78525000Y-48520000D03*
D15*
X81065000Y-43440000D03*
D13*
X83605000Y-48520000D03*
D16*
X85610000Y-45980000D03*
X72683000Y-43440000D03*
%TD*%
D12*
%TO.C,D2*%
X39300000Y-57000000D03*
X39300000Y-53450000D03*
%TD*%
%TO.C,D12*%
X39200000Y-92125000D03*
X39200000Y-88575000D03*
%TD*%
M02*
