0
SECTION
2
HEADER
9
$INSUNITS
70
4
0
ENDSEC
0
SECTION
2
TABLES
0
TABLE
2
LTYPE
0
LTYPE
72
65
70
64
2
CONTINUOUS
3
______
73
0
40
0
0
ENDTAB
0
TABLE
2
LAYER
0
ENDTAB
0
ENDSEC
0
SECTION
2
ENTITIES
0
LINE
8
0
10
50.75
20
-14.875
11
64.75
21
-14.875
0
LINE
8
0
10
50.75
20
-28.875
11
64.75
21
-28.875
0
LINE
8
0
10
50.75
20
-14.875
11
50.75
21
-28.875
0
LINE
8
0
10
64.75
20
-14.875
11
64.75
21
-28.875
0
LINE
8
0
10
67.25
20
-14.875
11
81.25
21
-14.875
0
LINE
8
0
10
67.25
20
-28.875
11
81.25
21
-28.875
0
LINE
8
0
10
67.25
20
-14.875
11
67.25
21
-28.875
0
LINE
8
0
10
81.25
20
-14.875
11
81.25
21
-28.875
0
LINE
8
0
10
83.75
20
-16.625
11
97.75
21
-16.625
0
LINE
8
0
10
83.75
20
-30.625
11
97.75
21
-30.625
0
LINE
8
0
10
83.75
20
-16.625
11
83.75
21
-30.625
0
LINE
8
0
10
97.75
20
-16.625
11
97.75
21
-30.625
0
LINE
8
0
10
34.25
20
-17.5
11
48.25
21
-17.5
0
LINE
8
0
10
34.25
20
-31.5
11
48.25
21
-31.5
0
LINE
8
0
10
34.25
20
-17.5
11
34.25
21
-31.5
0
LINE
8
0
10
48.25
20
-17.5
11
48.25
21
-31.5
0
LINE
8
0
10
17.75
20
-22.75
11
31.75
21
-22.75
0
LINE
8
0
10
17.75
20
-36.75
11
31.75
21
-36.75
0
LINE
8
0
10
17.75
20
-22.75
11
17.75
21
-36.75
0
LINE
8
0
10
31.75
20
-22.75
11
31.75
21
-36.75
0
LINE
8
0
10
50.75
20
-32.375
11
64.75
21
-32.375
0
LINE
8
0
10
50.75
20
-46.375
11
64.75
21
-46.375
0
LINE
8
0
10
50.75
20
-32.375
11
50.75
21
-46.375
0
LINE
8
0
10
64.75
20
-32.375
11
64.75
21
-46.375
0
LINE
8
0
10
67.25
20
-32.375
11
81.25
21
-32.375
0
LINE
8
0
10
67.25
20
-46.375
11
81.25
21
-46.375
0
LINE
8
0
10
67.25
20
-32.375
11
67.25
21
-46.375
0
LINE
8
0
10
81.25
20
-32.375
11
81.25
21
-46.375
0
LINE
8
0
10
83.75
20
-34.125
11
97.75
21
-34.125
0
LINE
8
0
10
83.75
20
-48.125
11
97.75
21
-48.125
0
LINE
8
0
10
83.75
20
-34.125
11
83.75
21
-48.125
0
LINE
8
0
10
97.75
20
-34.125
11
97.75
21
-48.125
0
LINE
8
0
10
34.25
20
-35
11
48.25
21
-35
0
LINE
8
0
10
34.25
20
-49
11
48.25
21
-49
0
LINE
8
0
10
34.25
20
-35
11
34.25
21
-49
0
LINE
8
0
10
48.25
20
-35
11
48.25
21
-49
0
LINE
8
0
10
17.75
20
-40.25
11
31.75
21
-40.25
0
LINE
8
0
10
17.75
20
-54.25
11
31.75
21
-54.25
0
LINE
8
0
10
17.75
20
-40.25
11
17.75
21
-54.25
0
LINE
8
0
10
31.75
20
-40.25
11
31.75
21
-54.25
0
LINE
8
0
10
50.75
20
-49.875
11
64.75
21
-49.875
0
LINE
8
0
10
50.75
20
-63.875
11
64.75
21
-63.875
0
LINE
8
0
10
50.75
20
-49.875
11
50.75
21
-63.875
0
LINE
8
0
10
64.75
20
-49.875
11
64.75
21
-63.875
0
LINE
8
0
10
67.25
20
-49.875
11
81.25
21
-49.875
0
LINE
8
0
10
67.25
20
-63.875
11
81.25
21
-63.875
0
LINE
8
0
10
67.25
20
-49.875
11
67.25
21
-63.875
0
LINE
8
0
10
81.25
20
-49.875
11
81.25
21
-63.875
0
LINE
8
0
10
83.75
20
-51.625
11
97.75
21
-51.625
0
LINE
8
0
10
83.75
20
-65.625
11
97.75
21
-65.625
0
LINE
8
0
10
83.75
20
-51.625
11
83.75
21
-65.625
0
LINE
8
0
10
97.75
20
-51.625
11
97.75
21
-65.625
0
LINE
8
0
10
34.25
20
-52.5
11
48.25
21
-52.5
0
LINE
8
0
10
34.25
20
-66.5
11
48.25
21
-66.5
0
LINE
8
0
10
34.25
20
-52.5
11
34.25
21
-66.5
0
LINE
8
0
10
48.25
20
-52.5
11
48.25
21
-66.5
0
LINE
8
0
10
17.75
20
-57.75
11
31.75
21
-57.75
0
LINE
8
0
10
17.75
20
-71.75
11
31.75
21
-71.75
0
LINE
8
0
10
17.75
20
-57.75
11
17.75
21
-71.75
0
LINE
8
0
10
31.75
20
-57.75
11
31.75
21
-71.75
0
LINE
8
0
10
55.7
20
-69.125
11
69.7
21
-69.125
0
LINE
8
0
10
55.7
20
-83.125
11
69.7
21
-83.125
0
LINE
8
0
10
55.7
20
-69.125
11
55.7
21
-83.125
0
LINE
8
0
10
69.7
20
-69.125
11
69.7
21
-83.125
0
LINE
8
0
10
74.2625
20
-69.125
11
88.2625
21
-69.125
0
LINE
8
0
10
74.2625
20
-83.125
11
88.2625
21
-83.125
0
LINE
8
0
10
74.2625
20
-69.125
11
74.2625
21
-83.125
0
LINE
8
0
10
88.2625
20
-69.125
11
88.2625
21
-83.125
0
LINE
8
0
10
97.3933356
20
-69.8074448
11
111.1806441
21
-72.2385193
0
LINE
8
0
10
94.9622611
20
-83.5947533
11
108.7495696
21
-86.0258278
0
LINE
8
0
10
97.3933356
20
-69.8074448
11
94.9622611
21
-83.5947533
0
LINE
8
0
10
111.1806441
20
-72.2385193
11
108.7495696
21
-86.0258278
0
LINE
8
0
10
16.5
20
-86.6666363
11
113.3839526
21
-86.6666363
0
LINE
8
0
10
16.5
20
-13.125
11
113.3839526
21
-13.125
0
LINE
8
0
10
16.5
20
-86.6666363
11
16.5
21
-13.125
0
LINE
8
0
10
113.3839526
20
-86.6666363
11
113.3839526
21
-13.125
0
ENDSEC
0
EOF