%TF.GenerationSoftware,KiCad,Pcbnew,(6.0.6)*%
%TF.CreationDate,2022-12-14T08:05:18+09:00*%
%TF.ProjectId,split-mini__right,73706c69-742d-46d6-996e-695f5f726967,rev?*%
%TF.SameCoordinates,Original*%
%TF.FileFunction,Legend,Bot*%
%TF.FilePolarity,Positive*%
%FSLAX46Y46*%
G04 Gerber Fmt 4.6, Leading zero omitted, Abs format (unit mm)*
G04 Created by KiCad (PCBNEW (6.0.6)) date 2022-12-14 08:05:18*
%MOMM*%
%LPD*%
G01*
G04 APERTURE LIST*
G04 Aperture macros list*
%AMRoundRect*
0 Rectangle with rounded corners*
0 $1 Rounding radius*
0 $2 $3 $4 $5 $6 $7 $8 $9 X,Y pos of 4 corners*
0 Add a 4 corners polygon primitive as box body*
4,1,4,$2,$3,$4,$5,$6,$7,$8,$9,$2,$3,0*
0 Add four circle primitives for the rounded corners*
1,1,$1+$1,$2,$3*
1,1,$1+$1,$4,$5*
1,1,$1+$1,$6,$7*
1,1,$1+$1,$8,$9*
0 Add four rect primitives between the rounded corners*
20,1,$1+$1,$2,$3,$4,$5,0*
20,1,$1+$1,$4,$5,$6,$7,0*
20,1,$1+$1,$6,$7,$8,$9,0*
20,1,$1+$1,$8,$9,$2,$3,0*%
G04 Aperture macros list end*
%ADD10C,0.100000*%
%TA.AperFunction,Profile*%
%ADD11C,0.100000*%
%TD*%
%ADD12C,0.200000*%
%ADD13C,0.150000*%
%ADD14C,0.120000*%
%ADD15C,0.350000*%
%ADD16O,0.600000X1.400000*%
%ADD17O,0.600000X1.700000*%
%ADD18O,1.000000X1.500000*%
%ADD19C,1.900000*%
%ADD20C,4.100000*%
%ADD21C,3.000000*%
%ADD22R,2.550000X2.500000*%
%ADD23C,0.650000*%
%ADD24R,0.580000X1.400000*%
%ADD25R,0.280000X1.400000*%
%ADD26O,1.000000X1.800000*%
%ADD27O,1.000000X2.100000*%
%ADD28RoundRect,0.137500X-0.137500X0.600000X-0.137500X-0.600000X0.137500X-0.600000X0.137500X0.600000X0*%
%ADD29RoundRect,0.137500X-0.600000X0.137500X-0.600000X-0.137500X0.600000X-0.137500X0.600000X0.137500X0*%
%ADD30RoundRect,0.250000X-0.625000X0.375000X-0.625000X-0.375000X0.625000X-0.375000X0.625000X0.375000X0*%
%ADD31RoundRect,0.250000X0.262500X0.450000X-0.262500X0.450000X-0.262500X-0.450000X0.262500X-0.450000X0*%
%ADD32RoundRect,0.250000X-0.475000X0.250000X-0.475000X-0.250000X0.475000X-0.250000X0.475000X0.250000X0*%
%ADD33C,1.200000*%
%ADD34RoundRect,0.250000X0.250000X0.475000X-0.250000X0.475000X-0.250000X-0.475000X0.250000X-0.475000X0*%
%ADD35R,0.650000X1.050000*%
%ADD36R,1.800000X2.100000*%
%ADD37RoundRect,0.250000X-0.250000X-0.475000X0.250000X-0.475000X0.250000X0.475000X-0.250000X0.475000X0*%
%ADD38RoundRect,0.250000X0.450000X-0.262500X0.450000X0.262500X-0.450000X0.262500X-0.450000X-0.262500X0*%
%ADD39RoundRect,0.250000X-0.450000X0.262500X-0.450000X-0.262500X0.450000X-0.262500X0.450000X0.262500X0*%
G04 APERTURE END LIST*
D10*
X88696982Y-80950000D02*
G75*
G03*
X88696982Y-80950000I-246982J0D01*
G01*
D11*
X26100000Y-26400000D02*
X26100000Y-18900000D01*
X19600000Y-18900000D02*
X19600000Y-35900000D01*
X23825000Y-95725000D02*
X114600000Y-95725000D01*
X114600000Y-26400000D02*
X110600000Y-26400000D01*
X99600000Y-19100000D02*
X99600000Y-26400000D01*
X23825000Y-35900000D02*
X19600000Y-35900000D01*
X23825000Y-35900000D02*
X23825000Y-95725000D01*
X110600000Y-19100000D02*
X99600000Y-19100000D01*
X26100000Y-18900000D02*
X19600000Y-18900000D01*
X114600000Y-95725000D02*
X114600000Y-26400000D01*
X99600000Y-26400000D02*
X26100000Y-26400000D01*
X110600000Y-26400000D02*
X110600000Y-19100000D01*
D12*
X60179047Y-92249761D02*
X60083809Y-92297380D01*
X59893333Y-92297380D01*
X59798095Y-92249761D01*
X59750476Y-92154523D01*
X59750476Y-92106904D01*
X59798095Y-92011666D01*
X59893333Y-91964047D01*
X60036190Y-91964047D01*
X60131428Y-91916428D01*
X60179047Y-91821190D01*
X60179047Y-91773571D01*
X60131428Y-91678333D01*
X60036190Y-91630714D01*
X59893333Y-91630714D01*
X59798095Y-91678333D01*
X59321904Y-91630714D02*
X59321904Y-92630714D01*
X59321904Y-91678333D02*
X59226666Y-91630714D01*
X59036190Y-91630714D01*
X58940952Y-91678333D01*
X58893333Y-91725952D01*
X58845714Y-91821190D01*
X58845714Y-92106904D01*
X58893333Y-92202142D01*
X58940952Y-92249761D01*
X59036190Y-92297380D01*
X59226666Y-92297380D01*
X59321904Y-92249761D01*
X58274285Y-92297380D02*
X58369523Y-92249761D01*
X58417142Y-92154523D01*
X58417142Y-91297380D01*
X57893333Y-92297380D02*
X57893333Y-91630714D01*
X57893333Y-91297380D02*
X57940952Y-91345000D01*
X57893333Y-91392619D01*
X57845714Y-91345000D01*
X57893333Y-91297380D01*
X57893333Y-91392619D01*
X57560000Y-91630714D02*
X57179047Y-91630714D01*
X57417142Y-91297380D02*
X57417142Y-92154523D01*
X57369523Y-92249761D01*
X57274285Y-92297380D01*
X57179047Y-92297380D01*
X56083809Y-92297380D02*
X56083809Y-91630714D01*
X56083809Y-91725952D02*
X56036190Y-91678333D01*
X55940952Y-91630714D01*
X55798095Y-91630714D01*
X55702857Y-91678333D01*
X55655238Y-91773571D01*
X55655238Y-92297380D01*
X55655238Y-91773571D02*
X55607619Y-91678333D01*
X55512380Y-91630714D01*
X55369523Y-91630714D01*
X55274285Y-91678333D01*
X55226666Y-91773571D01*
X55226666Y-92297380D01*
X54750476Y-92297380D02*
X54750476Y-91630714D01*
X54750476Y-91297380D02*
X54798095Y-91345000D01*
X54750476Y-91392619D01*
X54702857Y-91345000D01*
X54750476Y-91297380D01*
X54750476Y-91392619D01*
X54274285Y-91630714D02*
X54274285Y-92297380D01*
X54274285Y-91725952D02*
X54226666Y-91678333D01*
X54131428Y-91630714D01*
X53988571Y-91630714D01*
X53893333Y-91678333D01*
X53845714Y-91773571D01*
X53845714Y-92297380D01*
X53369523Y-92297380D02*
X53369523Y-91630714D01*
X53369523Y-91297380D02*
X53417142Y-91345000D01*
X53369523Y-91392619D01*
X53321904Y-91345000D01*
X53369523Y-91297380D01*
X53369523Y-91392619D01*
X52131428Y-92297380D02*
X52131428Y-91630714D01*
X52131428Y-91821190D02*
X52083809Y-91725952D01*
X52036190Y-91678333D01*
X51940952Y-91630714D01*
X51845714Y-91630714D01*
X51131428Y-92249761D02*
X51226666Y-92297380D01*
X51417142Y-92297380D01*
X51512380Y-92249761D01*
X51560000Y-92154523D01*
X51560000Y-91773571D01*
X51512380Y-91678333D01*
X51417142Y-91630714D01*
X51226666Y-91630714D01*
X51131428Y-91678333D01*
X51083809Y-91773571D01*
X51083809Y-91868809D01*
X51560000Y-91964047D01*
X50750476Y-91630714D02*
X50512380Y-92297380D01*
X50274285Y-91630714D01*
X49702857Y-91297380D02*
X49607619Y-91297380D01*
X49512380Y-91345000D01*
X49464761Y-91392619D01*
X49417142Y-91487857D01*
X49369523Y-91678333D01*
X49369523Y-91916428D01*
X49417142Y-92106904D01*
X49464761Y-92202142D01*
X49512380Y-92249761D01*
X49607619Y-92297380D01*
X49702857Y-92297380D01*
X49798095Y-92249761D01*
X49845714Y-92202142D01*
X49893333Y-92106904D01*
X49940952Y-91916428D01*
X49940952Y-91678333D01*
X49893333Y-91487857D01*
X49845714Y-91392619D01*
X49798095Y-91345000D01*
X49702857Y-91297380D01*
X48940952Y-92202142D02*
X48893333Y-92249761D01*
X48940952Y-92297380D01*
X48988571Y-92249761D01*
X48940952Y-92202142D01*
X48940952Y-92297380D01*
X48417142Y-92297380D02*
X48226666Y-92297380D01*
X48131428Y-92249761D01*
X48083809Y-92202142D01*
X47988571Y-92059285D01*
X47940952Y-91868809D01*
X47940952Y-91487857D01*
X47988571Y-91392619D01*
X48036190Y-91345000D01*
X48131428Y-91297380D01*
X48321904Y-91297380D01*
X48417142Y-91345000D01*
X48464761Y-91392619D01*
X48512380Y-91487857D01*
X48512380Y-91725952D01*
X48464761Y-91821190D01*
X48417142Y-91868809D01*
X48321904Y-91916428D01*
X48131428Y-91916428D01*
X48036190Y-91868809D01*
X47988571Y-91821190D01*
X47940952Y-91725952D01*
X62488571Y-93907380D02*
X62488571Y-92907380D01*
X62488571Y-93859761D02*
X62583809Y-93907380D01*
X62774285Y-93907380D01*
X62869523Y-93859761D01*
X62917142Y-93812142D01*
X62964761Y-93716904D01*
X62964761Y-93431190D01*
X62917142Y-93335952D01*
X62869523Y-93288333D01*
X62774285Y-93240714D01*
X62583809Y-93240714D01*
X62488571Y-93288333D01*
X61631428Y-93859761D02*
X61726666Y-93907380D01*
X61917142Y-93907380D01*
X62012380Y-93859761D01*
X62060000Y-93764523D01*
X62060000Y-93383571D01*
X62012380Y-93288333D01*
X61917142Y-93240714D01*
X61726666Y-93240714D01*
X61631428Y-93288333D01*
X61583809Y-93383571D01*
X61583809Y-93478809D01*
X62060000Y-93574047D01*
X61202857Y-93859761D02*
X61107619Y-93907380D01*
X60917142Y-93907380D01*
X60821904Y-93859761D01*
X60774285Y-93764523D01*
X60774285Y-93716904D01*
X60821904Y-93621666D01*
X60917142Y-93574047D01*
X61060000Y-93574047D01*
X61155238Y-93526428D01*
X61202857Y-93431190D01*
X61202857Y-93383571D01*
X61155238Y-93288333D01*
X61060000Y-93240714D01*
X60917142Y-93240714D01*
X60821904Y-93288333D01*
X60345714Y-93907380D02*
X60345714Y-93240714D01*
X60345714Y-92907380D02*
X60393333Y-92955000D01*
X60345714Y-93002619D01*
X60298095Y-92955000D01*
X60345714Y-92907380D01*
X60345714Y-93002619D01*
X59440952Y-93240714D02*
X59440952Y-94050238D01*
X59488571Y-94145476D01*
X59536190Y-94193095D01*
X59631428Y-94240714D01*
X59774285Y-94240714D01*
X59869523Y-94193095D01*
X59440952Y-93859761D02*
X59536190Y-93907380D01*
X59726666Y-93907380D01*
X59821904Y-93859761D01*
X59869523Y-93812142D01*
X59917142Y-93716904D01*
X59917142Y-93431190D01*
X59869523Y-93335952D01*
X59821904Y-93288333D01*
X59726666Y-93240714D01*
X59536190Y-93240714D01*
X59440952Y-93288333D01*
X58964761Y-93240714D02*
X58964761Y-93907380D01*
X58964761Y-93335952D02*
X58917142Y-93288333D01*
X58821904Y-93240714D01*
X58679047Y-93240714D01*
X58583809Y-93288333D01*
X58536190Y-93383571D01*
X58536190Y-93907380D01*
X57679047Y-93859761D02*
X57774285Y-93907380D01*
X57964761Y-93907380D01*
X58060000Y-93859761D01*
X58107619Y-93764523D01*
X58107619Y-93383571D01*
X58060000Y-93288333D01*
X57964761Y-93240714D01*
X57774285Y-93240714D01*
X57679047Y-93288333D01*
X57631428Y-93383571D01*
X57631428Y-93478809D01*
X58107619Y-93574047D01*
X56774285Y-93907380D02*
X56774285Y-92907380D01*
X56774285Y-93859761D02*
X56869523Y-93907380D01*
X57060000Y-93907380D01*
X57155238Y-93859761D01*
X57202857Y-93812142D01*
X57250476Y-93716904D01*
X57250476Y-93431190D01*
X57202857Y-93335952D01*
X57155238Y-93288333D01*
X57060000Y-93240714D01*
X56869523Y-93240714D01*
X56774285Y-93288333D01*
X55536190Y-93907380D02*
X55536190Y-92907380D01*
X55536190Y-93288333D02*
X55440952Y-93240714D01*
X55250476Y-93240714D01*
X55155238Y-93288333D01*
X55107619Y-93335952D01*
X55060000Y-93431190D01*
X55060000Y-93716904D01*
X55107619Y-93812142D01*
X55155238Y-93859761D01*
X55250476Y-93907380D01*
X55440952Y-93907380D01*
X55536190Y-93859761D01*
X54726666Y-93240714D02*
X54488571Y-93907380D01*
X54250476Y-93240714D02*
X54488571Y-93907380D01*
X54583809Y-94145476D01*
X54631428Y-94193095D01*
X54726666Y-94240714D01*
X53250476Y-93240714D02*
X52869523Y-93240714D01*
X53107619Y-92907380D02*
X53107619Y-93764523D01*
X53060000Y-93859761D01*
X52964761Y-93907380D01*
X52869523Y-93907380D01*
X52107619Y-93907380D02*
X52107619Y-93383571D01*
X52155238Y-93288333D01*
X52250476Y-93240714D01*
X52440952Y-93240714D01*
X52536190Y-93288333D01*
X52107619Y-93859761D02*
X52202857Y-93907380D01*
X52440952Y-93907380D01*
X52536190Y-93859761D01*
X52583809Y-93764523D01*
X52583809Y-93669285D01*
X52536190Y-93574047D01*
X52440952Y-93526428D01*
X52202857Y-93526428D01*
X52107619Y-93478809D01*
X51631428Y-93907380D02*
X51631428Y-93240714D01*
X51631428Y-93335952D02*
X51583809Y-93288333D01*
X51488571Y-93240714D01*
X51345714Y-93240714D01*
X51250476Y-93288333D01*
X51202857Y-93383571D01*
X51202857Y-93907380D01*
X51202857Y-93383571D02*
X51155238Y-93288333D01*
X51060000Y-93240714D01*
X50917142Y-93240714D01*
X50821904Y-93288333D01*
X50774285Y-93383571D01*
X50774285Y-93907380D01*
X49869523Y-93907380D02*
X49869523Y-93383571D01*
X49917142Y-93288333D01*
X50012380Y-93240714D01*
X50202857Y-93240714D01*
X50298095Y-93288333D01*
X49869523Y-93859761D02*
X49964761Y-93907380D01*
X50202857Y-93907380D01*
X50298095Y-93859761D01*
X50345714Y-93764523D01*
X50345714Y-93669285D01*
X50298095Y-93574047D01*
X50202857Y-93526428D01*
X49964761Y-93526428D01*
X49869523Y-93478809D01*
X48964761Y-93240714D02*
X48964761Y-94050238D01*
X49012380Y-94145476D01*
X49060000Y-94193095D01*
X49155238Y-94240714D01*
X49298095Y-94240714D01*
X49393333Y-94193095D01*
X48964761Y-93859761D02*
X49060000Y-93907380D01*
X49250476Y-93907380D01*
X49345714Y-93859761D01*
X49393333Y-93812142D01*
X49440952Y-93716904D01*
X49440952Y-93431190D01*
X49393333Y-93335952D01*
X49345714Y-93288333D01*
X49250476Y-93240714D01*
X49060000Y-93240714D01*
X48964761Y-93288333D01*
X48345714Y-93907380D02*
X48440952Y-93859761D01*
X48488571Y-93812142D01*
X48536190Y-93716904D01*
X48536190Y-93431190D01*
X48488571Y-93335952D01*
X48440952Y-93288333D01*
X48345714Y-93240714D01*
X48202857Y-93240714D01*
X48107619Y-93288333D01*
X48060000Y-93335952D01*
X48012380Y-93431190D01*
X48012380Y-93716904D01*
X48060000Y-93812142D01*
X48107619Y-93859761D01*
X48202857Y-93907380D01*
X48345714Y-93907380D01*
X47679047Y-92907380D02*
X47060000Y-92907380D01*
X47393333Y-93288333D01*
X47250476Y-93288333D01*
X47155238Y-93335952D01*
X47107619Y-93383571D01*
X47060000Y-93478809D01*
X47060000Y-93716904D01*
X47107619Y-93812142D01*
X47155238Y-93859761D01*
X47250476Y-93907380D01*
X47536190Y-93907380D01*
X47631428Y-93859761D01*
X47679047Y-93812142D01*
X46679047Y-93002619D02*
X46631428Y-92955000D01*
X46536190Y-92907380D01*
X46298095Y-92907380D01*
X46202857Y-92955000D01*
X46155238Y-93002619D01*
X46107619Y-93097857D01*
X46107619Y-93193095D01*
X46155238Y-93335952D01*
X46726666Y-93907380D01*
X46107619Y-93907380D01*
X45250476Y-93240714D02*
X45250476Y-93907380D01*
X45488571Y-92859761D02*
X45726666Y-93574047D01*
X45107619Y-93574047D01*
D13*
%TO.C,J1*%
X105433333Y-26637380D02*
X105433333Y-27351666D01*
X105480952Y-27494523D01*
X105576190Y-27589761D01*
X105719047Y-27637380D01*
X105814285Y-27637380D01*
X104433333Y-27637380D02*
X105004761Y-27637380D01*
X104719047Y-27637380D02*
X104719047Y-26637380D01*
X104814285Y-26780238D01*
X104909523Y-26875476D01*
X105004761Y-26923095D01*
%TO.C,U1*%
X93071904Y-84547380D02*
X93071904Y-85356904D01*
X93024285Y-85452142D01*
X92976666Y-85499761D01*
X92881428Y-85547380D01*
X92690952Y-85547380D01*
X92595714Y-85499761D01*
X92548095Y-85452142D01*
X92500476Y-85356904D01*
X92500476Y-84547380D01*
X91500476Y-85547380D02*
X92071904Y-85547380D01*
X91786190Y-85547380D02*
X91786190Y-84547380D01*
X91881428Y-84690238D01*
X91976666Y-84785476D01*
X92071904Y-84833095D01*
%TO.C,F1*%
X113298333Y-29808571D02*
X113631666Y-29808571D01*
X113631666Y-30332380D02*
X113631666Y-29332380D01*
X113155476Y-29332380D01*
X112250714Y-30332380D02*
X112822142Y-30332380D01*
X112536428Y-30332380D02*
X112536428Y-29332380D01*
X112631666Y-29475238D01*
X112726904Y-29570476D01*
X112822142Y-29618095D01*
%TO.C,R5*%
X82486666Y-91187380D02*
X82820000Y-90711190D01*
X83058095Y-91187380D02*
X83058095Y-90187380D01*
X82677142Y-90187380D01*
X82581904Y-90235000D01*
X82534285Y-90282619D01*
X82486666Y-90377857D01*
X82486666Y-90520714D01*
X82534285Y-90615952D01*
X82581904Y-90663571D01*
X82677142Y-90711190D01*
X83058095Y-90711190D01*
X81581904Y-90187380D02*
X82058095Y-90187380D01*
X82105714Y-90663571D01*
X82058095Y-90615952D01*
X81962857Y-90568333D01*
X81724761Y-90568333D01*
X81629523Y-90615952D01*
X81581904Y-90663571D01*
X81534285Y-90758809D01*
X81534285Y-90996904D01*
X81581904Y-91092142D01*
X81629523Y-91139761D01*
X81724761Y-91187380D01*
X81962857Y-91187380D01*
X82058095Y-91139761D01*
X82105714Y-91092142D01*
%TO.C,R1*%
X95469166Y-31862380D02*
X95802500Y-31386190D01*
X96040595Y-31862380D02*
X96040595Y-30862380D01*
X95659642Y-30862380D01*
X95564404Y-30910000D01*
X95516785Y-30957619D01*
X95469166Y-31052857D01*
X95469166Y-31195714D01*
X95516785Y-31290952D01*
X95564404Y-31338571D01*
X95659642Y-31386190D01*
X96040595Y-31386190D01*
X94516785Y-31862380D02*
X95088214Y-31862380D01*
X94802500Y-31862380D02*
X94802500Y-30862380D01*
X94897738Y-31005238D01*
X94992976Y-31100476D01*
X95088214Y-31148095D01*
%TO.C,C5*%
X104766666Y-79407142D02*
X104814285Y-79454761D01*
X104957142Y-79502380D01*
X105052380Y-79502380D01*
X105195238Y-79454761D01*
X105290476Y-79359523D01*
X105338095Y-79264285D01*
X105385714Y-79073809D01*
X105385714Y-78930952D01*
X105338095Y-78740476D01*
X105290476Y-78645238D01*
X105195238Y-78550000D01*
X105052380Y-78502380D01*
X104957142Y-78502380D01*
X104814285Y-78550000D01*
X104766666Y-78597619D01*
X103861904Y-78502380D02*
X104338095Y-78502380D01*
X104385714Y-78978571D01*
X104338095Y-78930952D01*
X104242857Y-78883333D01*
X104004761Y-78883333D01*
X103909523Y-78930952D01*
X103861904Y-78978571D01*
X103814285Y-79073809D01*
X103814285Y-79311904D01*
X103861904Y-79407142D01*
X103909523Y-79454761D01*
X104004761Y-79502380D01*
X104242857Y-79502380D01*
X104338095Y-79454761D01*
X104385714Y-79407142D01*
%TO.C,J2*%
X25411904Y-24752380D02*
X24840476Y-24752380D01*
X25126190Y-25752380D02*
X25126190Y-24752380D01*
X23935714Y-25752380D02*
X24269047Y-25276190D01*
X24507142Y-25752380D02*
X24507142Y-24752380D01*
X24126190Y-24752380D01*
X24030952Y-24800000D01*
X23983333Y-24847619D01*
X23935714Y-24942857D01*
X23935714Y-25085714D01*
X23983333Y-25180952D01*
X24030952Y-25228571D01*
X24126190Y-25276190D01*
X24507142Y-25276190D01*
X22935714Y-25752380D02*
X23269047Y-25276190D01*
X23507142Y-25752380D02*
X23507142Y-24752380D01*
X23126190Y-24752380D01*
X23030952Y-24800000D01*
X22983333Y-24847619D01*
X22935714Y-24942857D01*
X22935714Y-25085714D01*
X22983333Y-25180952D01*
X23030952Y-25228571D01*
X23126190Y-25276190D01*
X23507142Y-25276190D01*
X22554761Y-25704761D02*
X22411904Y-25752380D01*
X22173809Y-25752380D01*
X22078571Y-25704761D01*
X22030952Y-25657142D01*
X21983333Y-25561904D01*
X21983333Y-25466666D01*
X22030952Y-25371428D01*
X22078571Y-25323809D01*
X22173809Y-25276190D01*
X22364285Y-25228571D01*
X22459523Y-25180952D01*
X22507142Y-25133333D01*
X22554761Y-25038095D01*
X22554761Y-24942857D01*
X22507142Y-24847619D01*
X22459523Y-24800000D01*
X22364285Y-24752380D01*
X22126190Y-24752380D01*
X21983333Y-24800000D01*
%TO.C,C7*%
X105756666Y-83337142D02*
X105804285Y-83384761D01*
X105947142Y-83432380D01*
X106042380Y-83432380D01*
X106185238Y-83384761D01*
X106280476Y-83289523D01*
X106328095Y-83194285D01*
X106375714Y-83003809D01*
X106375714Y-82860952D01*
X106328095Y-82670476D01*
X106280476Y-82575238D01*
X106185238Y-82480000D01*
X106042380Y-82432380D01*
X105947142Y-82432380D01*
X105804285Y-82480000D01*
X105756666Y-82527619D01*
X105423333Y-82432380D02*
X104756666Y-82432380D01*
X105185238Y-83432380D01*
%TO.C,R2*%
X95516666Y-29502380D02*
X95850000Y-29026190D01*
X96088095Y-29502380D02*
X96088095Y-28502380D01*
X95707142Y-28502380D01*
X95611904Y-28550000D01*
X95564285Y-28597619D01*
X95516666Y-28692857D01*
X95516666Y-28835714D01*
X95564285Y-28930952D01*
X95611904Y-28978571D01*
X95707142Y-29026190D01*
X96088095Y-29026190D01*
X95135714Y-28597619D02*
X95088095Y-28550000D01*
X94992857Y-28502380D01*
X94754761Y-28502380D01*
X94659523Y-28550000D01*
X94611904Y-28597619D01*
X94564285Y-28692857D01*
X94564285Y-28788095D01*
X94611904Y-28930952D01*
X95183333Y-29502380D01*
X94564285Y-29502380D01*
%TO.C,RESET1*%
X29778571Y-35482380D02*
X30111904Y-35006190D01*
X30350000Y-35482380D02*
X30350000Y-34482380D01*
X29969047Y-34482380D01*
X29873809Y-34530000D01*
X29826190Y-34577619D01*
X29778571Y-34672857D01*
X29778571Y-34815714D01*
X29826190Y-34910952D01*
X29873809Y-34958571D01*
X29969047Y-35006190D01*
X30350000Y-35006190D01*
X29350000Y-34958571D02*
X29016666Y-34958571D01*
X28873809Y-35482380D02*
X29350000Y-35482380D01*
X29350000Y-34482380D01*
X28873809Y-34482380D01*
X28492857Y-35434761D02*
X28350000Y-35482380D01*
X28111904Y-35482380D01*
X28016666Y-35434761D01*
X27969047Y-35387142D01*
X27921428Y-35291904D01*
X27921428Y-35196666D01*
X27969047Y-35101428D01*
X28016666Y-35053809D01*
X28111904Y-35006190D01*
X28302380Y-34958571D01*
X28397619Y-34910952D01*
X28445238Y-34863333D01*
X28492857Y-34768095D01*
X28492857Y-34672857D01*
X28445238Y-34577619D01*
X28397619Y-34530000D01*
X28302380Y-34482380D01*
X28064285Y-34482380D01*
X27921428Y-34530000D01*
X27492857Y-34958571D02*
X27159523Y-34958571D01*
X27016666Y-35482380D02*
X27492857Y-35482380D01*
X27492857Y-34482380D01*
X27016666Y-34482380D01*
X26730952Y-34482380D02*
X26159523Y-34482380D01*
X26445238Y-35482380D02*
X26445238Y-34482380D01*
X25302380Y-35482380D02*
X25873809Y-35482380D01*
X25588095Y-35482380D02*
X25588095Y-34482380D01*
X25683333Y-34625238D01*
X25778571Y-34720476D01*
X25873809Y-34768095D01*
%TO.C,Y1*%
X105566190Y-87116190D02*
X105566190Y-87592380D01*
X105899523Y-86592380D02*
X105566190Y-87116190D01*
X105232857Y-86592380D01*
X104375714Y-87592380D02*
X104947142Y-87592380D01*
X104661428Y-87592380D02*
X104661428Y-86592380D01*
X104756666Y-86735238D01*
X104851904Y-86830476D01*
X104947142Y-86878095D01*
%TO.C,C4*%
X99196666Y-92222142D02*
X99244285Y-92269761D01*
X99387142Y-92317380D01*
X99482380Y-92317380D01*
X99625238Y-92269761D01*
X99720476Y-92174523D01*
X99768095Y-92079285D01*
X99815714Y-91888809D01*
X99815714Y-91745952D01*
X99768095Y-91555476D01*
X99720476Y-91460238D01*
X99625238Y-91365000D01*
X99482380Y-91317380D01*
X99387142Y-91317380D01*
X99244285Y-91365000D01*
X99196666Y-91412619D01*
X98339523Y-91650714D02*
X98339523Y-92317380D01*
X98577619Y-91269761D02*
X98815714Y-91984047D01*
X98196666Y-91984047D01*
%TO.C,C2*%
X97166666Y-74457142D02*
X97214285Y-74504761D01*
X97357142Y-74552380D01*
X97452380Y-74552380D01*
X97595238Y-74504761D01*
X97690476Y-74409523D01*
X97738095Y-74314285D01*
X97785714Y-74123809D01*
X97785714Y-73980952D01*
X97738095Y-73790476D01*
X97690476Y-73695238D01*
X97595238Y-73600000D01*
X97452380Y-73552380D01*
X97357142Y-73552380D01*
X97214285Y-73600000D01*
X97166666Y-73647619D01*
X96785714Y-73647619D02*
X96738095Y-73600000D01*
X96642857Y-73552380D01*
X96404761Y-73552380D01*
X96309523Y-73600000D01*
X96261904Y-73647619D01*
X96214285Y-73742857D01*
X96214285Y-73838095D01*
X96261904Y-73980952D01*
X96833333Y-74552380D01*
X96214285Y-74552380D01*
%TO.C,R6*%
X29126666Y-45152380D02*
X29460000Y-44676190D01*
X29698095Y-45152380D02*
X29698095Y-44152380D01*
X29317142Y-44152380D01*
X29221904Y-44200000D01*
X29174285Y-44247619D01*
X29126666Y-44342857D01*
X29126666Y-44485714D01*
X29174285Y-44580952D01*
X29221904Y-44628571D01*
X29317142Y-44676190D01*
X29698095Y-44676190D01*
X28269523Y-44152380D02*
X28460000Y-44152380D01*
X28555238Y-44200000D01*
X28602857Y-44247619D01*
X28698095Y-44390476D01*
X28745714Y-44580952D01*
X28745714Y-44961904D01*
X28698095Y-45057142D01*
X28650476Y-45104761D01*
X28555238Y-45152380D01*
X28364761Y-45152380D01*
X28269523Y-45104761D01*
X28221904Y-45057142D01*
X28174285Y-44961904D01*
X28174285Y-44723809D01*
X28221904Y-44628571D01*
X28269523Y-44580952D01*
X28364761Y-44533333D01*
X28555238Y-44533333D01*
X28650476Y-44580952D01*
X28698095Y-44628571D01*
X28745714Y-44723809D01*
%TO.C,C6*%
X105846666Y-92437142D02*
X105894285Y-92484761D01*
X106037142Y-92532380D01*
X106132380Y-92532380D01*
X106275238Y-92484761D01*
X106370476Y-92389523D01*
X106418095Y-92294285D01*
X106465714Y-92103809D01*
X106465714Y-91960952D01*
X106418095Y-91770476D01*
X106370476Y-91675238D01*
X106275238Y-91580000D01*
X106132380Y-91532380D01*
X106037142Y-91532380D01*
X105894285Y-91580000D01*
X105846666Y-91627619D01*
X104989523Y-91532380D02*
X105180000Y-91532380D01*
X105275238Y-91580000D01*
X105322857Y-91627619D01*
X105418095Y-91770476D01*
X105465714Y-91960952D01*
X105465714Y-92341904D01*
X105418095Y-92437142D01*
X105370476Y-92484761D01*
X105275238Y-92532380D01*
X105084761Y-92532380D01*
X104989523Y-92484761D01*
X104941904Y-92437142D01*
X104894285Y-92341904D01*
X104894285Y-92103809D01*
X104941904Y-92008571D01*
X104989523Y-91960952D01*
X105084761Y-91913333D01*
X105275238Y-91913333D01*
X105370476Y-91960952D01*
X105418095Y-92008571D01*
X105465714Y-92103809D01*
%TO.C,R4*%
X96886666Y-41074880D02*
X97220000Y-40598690D01*
X97458095Y-41074880D02*
X97458095Y-40074880D01*
X97077142Y-40074880D01*
X96981904Y-40122500D01*
X96934285Y-40170119D01*
X96886666Y-40265357D01*
X96886666Y-40408214D01*
X96934285Y-40503452D01*
X96981904Y-40551071D01*
X97077142Y-40598690D01*
X97458095Y-40598690D01*
X96029523Y-40408214D02*
X96029523Y-41074880D01*
X96267619Y-40027261D02*
X96505714Y-40741547D01*
X95886666Y-40741547D01*
%TO.C,R3*%
X94256666Y-40994880D02*
X94590000Y-40518690D01*
X94828095Y-40994880D02*
X94828095Y-39994880D01*
X94447142Y-39994880D01*
X94351904Y-40042500D01*
X94304285Y-40090119D01*
X94256666Y-40185357D01*
X94256666Y-40328214D01*
X94304285Y-40423452D01*
X94351904Y-40471071D01*
X94447142Y-40518690D01*
X94828095Y-40518690D01*
X93923333Y-39994880D02*
X93304285Y-39994880D01*
X93637619Y-40375833D01*
X93494761Y-40375833D01*
X93399523Y-40423452D01*
X93351904Y-40471071D01*
X93304285Y-40566309D01*
X93304285Y-40804404D01*
X93351904Y-40899642D01*
X93399523Y-40947261D01*
X93494761Y-40994880D01*
X93780476Y-40994880D01*
X93875714Y-40947261D01*
X93923333Y-40899642D01*
%TO.C,C3*%
X79766666Y-81557142D02*
X79814285Y-81604761D01*
X79957142Y-81652380D01*
X80052380Y-81652380D01*
X80195238Y-81604761D01*
X80290476Y-81509523D01*
X80338095Y-81414285D01*
X80385714Y-81223809D01*
X80385714Y-81080952D01*
X80338095Y-80890476D01*
X80290476Y-80795238D01*
X80195238Y-80700000D01*
X80052380Y-80652380D01*
X79957142Y-80652380D01*
X79814285Y-80700000D01*
X79766666Y-80747619D01*
X79433333Y-80652380D02*
X78814285Y-80652380D01*
X79147619Y-81033333D01*
X79004761Y-81033333D01*
X78909523Y-81080952D01*
X78861904Y-81128571D01*
X78814285Y-81223809D01*
X78814285Y-81461904D01*
X78861904Y-81557142D01*
X78909523Y-81604761D01*
X79004761Y-81652380D01*
X79290476Y-81652380D01*
X79385714Y-81604761D01*
X79433333Y-81557142D01*
%TO.C,C1*%
X97176666Y-60287142D02*
X97224285Y-60334761D01*
X97367142Y-60382380D01*
X97462380Y-60382380D01*
X97605238Y-60334761D01*
X97700476Y-60239523D01*
X97748095Y-60144285D01*
X97795714Y-59953809D01*
X97795714Y-59810952D01*
X97748095Y-59620476D01*
X97700476Y-59525238D01*
X97605238Y-59430000D01*
X97462380Y-59382380D01*
X97367142Y-59382380D01*
X97224285Y-59430000D01*
X97176666Y-59477619D01*
X96224285Y-60382380D02*
X96795714Y-60382380D01*
X96510000Y-60382380D02*
X96510000Y-59382380D01*
X96605238Y-59525238D01*
X96700476Y-59620476D01*
X96795714Y-59668095D01*
D14*
%TO.C,J1*%
X109800000Y-23440000D02*
X109800000Y-21440000D01*
X100400000Y-23440000D02*
X100400000Y-21440000D01*
%TO.C,U1*%
X87855000Y-79905000D02*
X87855000Y-78615000D01*
X87280000Y-80480000D02*
X87280000Y-79905000D01*
X97500000Y-79905000D02*
X96925000Y-79905000D01*
X97500000Y-90125000D02*
X96925000Y-90125000D01*
X97500000Y-89550000D02*
X97500000Y-90125000D01*
X87280000Y-90125000D02*
X87855000Y-90125000D01*
X87280000Y-79905000D02*
X87855000Y-79905000D01*
X87280000Y-89550000D02*
X87280000Y-90125000D01*
X97500000Y-80480000D02*
X97500000Y-79905000D01*
%TO.C,F1*%
X111810000Y-29297936D02*
X111810000Y-30502064D01*
X109990000Y-29297936D02*
X109990000Y-30502064D01*
%TO.C,R5*%
X82547064Y-93120000D02*
X82092936Y-93120000D01*
X82547064Y-91650000D02*
X82092936Y-91650000D01*
%TO.C,R1*%
X98464564Y-32235000D02*
X98010436Y-32235000D01*
X98464564Y-30765000D02*
X98010436Y-30765000D01*
%TO.C,C5*%
X106015000Y-78388748D02*
X106015000Y-78911252D01*
X107485000Y-78388748D02*
X107485000Y-78911252D01*
D13*
%TO.C,J2*%
X20000000Y-30750000D02*
X25800000Y-30750000D01*
X20000000Y-19000000D02*
X20000000Y-30750000D01*
X25800000Y-30750000D02*
X25800000Y-19000000D01*
X25800000Y-19000000D02*
X20000000Y-19000000D01*
D14*
%TO.C,C7*%
X108761252Y-83485000D02*
X108238748Y-83485000D01*
X108761252Y-82015000D02*
X108238748Y-82015000D01*
%TO.C,R2*%
X98444564Y-29545000D02*
X97990436Y-29545000D01*
X98444564Y-28075000D02*
X97990436Y-28075000D01*
D13*
%TO.C,RESET1*%
X26200000Y-36600000D02*
X26200000Y-41200000D01*
X29400000Y-41200000D02*
X29400000Y-36600000D01*
X27250000Y-41200000D02*
X28350000Y-41200000D01*
X28350000Y-36600000D02*
X27250000Y-36600000D01*
D14*
%TO.C,Y1*%
X110600000Y-89900000D02*
X106200000Y-89900000D01*
X106200000Y-89900000D02*
X106200000Y-84500000D01*
%TO.C,C4*%
X98788748Y-92830000D02*
X99311252Y-92830000D01*
X98788748Y-94300000D02*
X99311252Y-94300000D01*
%TO.C,C2*%
X93915000Y-73938748D02*
X93915000Y-74461252D01*
X95385000Y-73938748D02*
X95385000Y-74461252D01*
%TO.C,R6*%
X28365000Y-47527064D02*
X28365000Y-47072936D01*
X29835000Y-47527064D02*
X29835000Y-47072936D01*
%TO.C,C6*%
X108811252Y-91315000D02*
X108288748Y-91315000D01*
X108811252Y-92785000D02*
X108288748Y-92785000D01*
%TO.C,R4*%
X97485000Y-42885436D02*
X97485000Y-43339564D01*
X96015000Y-42885436D02*
X96015000Y-43339564D01*
%TO.C,R3*%
X94755000Y-42875436D02*
X94755000Y-43329564D01*
X93285000Y-42875436D02*
X93285000Y-43329564D01*
%TO.C,C3*%
X78915000Y-83688748D02*
X78915000Y-84211252D01*
X80385000Y-83688748D02*
X80385000Y-84211252D01*
%TO.C,C1*%
X96688748Y-62435000D02*
X97211252Y-62435000D01*
X96688748Y-60965000D02*
X97211252Y-60965000D01*
%TD*%
D15*
X104140000Y-91440000D03*
X91984939Y-94175500D03*
X96425000Y-93625000D03*
X100830025Y-81430025D03*
X82275500Y-80475000D03*
X30000000Y-72300000D03*
X88300000Y-92200000D03*
X89200000Y-92825500D03*
X90200000Y-93275500D03*
X91092470Y-93725500D03*
X92871416Y-94637195D03*
X73400000Y-89500000D03*
X56800000Y-90000000D03*
X40300000Y-90100000D03*
X46300000Y-74500000D03*
X62500000Y-74000000D03*
X77825000Y-74075000D03*
X85000000Y-87200000D03*
X84900000Y-86200000D03*
X85100000Y-85100000D03*
X79100000Y-56100000D03*
X62500000Y-55600000D03*
X46200000Y-56000000D03*
X85000000Y-84000000D03*
X85200000Y-82800000D03*
X88100000Y-76900000D03*
X92099312Y-75450688D03*
X92450000Y-73050000D03*
X91665500Y-76417409D03*
X82700438Y-86349062D03*
X94039500Y-76200000D03*
X95500000Y-72100000D03*
X80900000Y-84900000D03*
X110900000Y-78800000D03*
X111925000Y-32400000D03*
X106450500Y-83113188D03*
X107400000Y-81249500D03*
X102900000Y-27000000D03*
X107650000Y-27000000D03*
X106700000Y-27724500D03*
X101925688Y-27625688D03*
X105025500Y-85739500D03*
X90090500Y-76350000D03*
X94900000Y-47600000D03*
X90850000Y-75550000D03*
X95975653Y-47737174D03*
X30050000Y-35150000D03*
X101012696Y-79953836D03*
X45900000Y-40700000D03*
X62800000Y-41700000D03*
X79100000Y-41100000D03*
X94450000Y-35650000D03*
X96650000Y-77350000D03*
X97500000Y-78100000D03*
X110575000Y-47575000D03*
X95450000Y-77350000D03*
X96449500Y-51900000D03*
X98750000Y-79850000D03*
X109025000Y-63325000D03*
X94305368Y-77344632D03*
X95350000Y-68450000D03*
X110962147Y-77687146D03*
X103875000Y-86539500D03*
X110180000Y-73850000D03*
X105100000Y-73850000D03*
X101290000Y-71310000D03*
X100020000Y-73850000D03*
X107640000Y-68770000D03*
X50520000Y-52400000D03*
X60680000Y-52400000D03*
X58140000Y-47320000D03*
X55600000Y-52400000D03*
X51790000Y-49860000D03*
X67020000Y-35870000D03*
X68290000Y-33330000D03*
X72100000Y-35870000D03*
X74640000Y-30790000D03*
X77180000Y-35870000D03*
X41640000Y-47320000D03*
X34020000Y-52400000D03*
X39100000Y-52400000D03*
X44180000Y-52400000D03*
X35290000Y-49860000D03*
X52380000Y-81140000D03*
X44760000Y-86220000D03*
X49840000Y-86220000D03*
X46030000Y-83680000D03*
X54920000Y-86220000D03*
X91110000Y-66270000D03*
X84760000Y-68810000D03*
X88570000Y-71350000D03*
X93650000Y-71350000D03*
X83490000Y-71350000D03*
X84760000Y-52320000D03*
X88570000Y-54860000D03*
X91110000Y-49780000D03*
X93650000Y-54860000D03*
X83490000Y-54860000D03*
X68270000Y-49840000D03*
X67000000Y-52380000D03*
X72080000Y-52380000D03*
X74620000Y-47300000D03*
X77160000Y-52380000D03*
X110190000Y-57400000D03*
X105110000Y-57400000D03*
X100030000Y-57400000D03*
X101300000Y-54860000D03*
X107650000Y-52320000D03*
X39130000Y-68950000D03*
X35320000Y-66410000D03*
X44210000Y-68950000D03*
X41670000Y-63870000D03*
X34050000Y-68950000D03*
X34040000Y-35870000D03*
X44200000Y-35870000D03*
X35310000Y-33330000D03*
X41660000Y-30790000D03*
X39120000Y-35870000D03*
X51790000Y-66360000D03*
X60680000Y-68900000D03*
X58140000Y-63820000D03*
X50520000Y-68900000D03*
X55600000Y-68900000D03*
X110210000Y-40870000D03*
X100050000Y-40870000D03*
X107670000Y-35790000D03*
X101320000Y-38330000D03*
X105130000Y-40870000D03*
X50530000Y-35870000D03*
X55610000Y-35870000D03*
X58150000Y-30790000D03*
X51800000Y-33330000D03*
X60690000Y-35870000D03*
X77180000Y-68900000D03*
X67020000Y-68900000D03*
X68290000Y-66360000D03*
X74640000Y-63820000D03*
X72100000Y-68900000D03*
X28270000Y-86200000D03*
X35890000Y-81120000D03*
X38430000Y-86200000D03*
X29540000Y-83660000D03*
X33350000Y-86200000D03*
X88600000Y-38350000D03*
X93680000Y-38350000D03*
X83520000Y-38350000D03*
X84790000Y-35810000D03*
X91140000Y-33270000D03*
X61280000Y-86210000D03*
X68900000Y-81130000D03*
X62550000Y-83670000D03*
X71440000Y-86210000D03*
X66360000Y-86210000D03*
X102210000Y-24140000D03*
X107990000Y-24140000D03*
D16*
X109420000Y-20460000D03*
D17*
X100780000Y-24640000D03*
X109420000Y-24640000D03*
D16*
X100780000Y-20460000D03*
D15*
X22900000Y-27350000D03*
X22900000Y-20350000D03*
D18*
X25000000Y-30650000D03*
X20800000Y-22150000D03*
X20800000Y-25150000D03*
X20800000Y-29150000D03*
%LPC*%
D19*
%TO.C,SW15*%
X110180000Y-73850000D03*
D20*
X105100000Y-73850000D03*
D21*
X101290000Y-71310000D03*
D19*
X100020000Y-73850000D03*
D21*
X107640000Y-68770000D03*
D22*
X98015000Y-71310000D03*
X110942000Y-68770000D03*
%TD*%
D19*
%TO.C,SW7*%
X50520000Y-52400000D03*
X60680000Y-52400000D03*
D21*
X58140000Y-47320000D03*
D20*
X55600000Y-52400000D03*
D21*
X51790000Y-49860000D03*
D22*
X48515000Y-49860000D03*
X61442000Y-47320000D03*
%TD*%
D19*
%TO.C,SW3*%
X67020000Y-35870000D03*
D21*
X68290000Y-33330000D03*
D20*
X72100000Y-35870000D03*
D21*
X74640000Y-30790000D03*
D19*
X77180000Y-35870000D03*
D22*
X65015000Y-33330000D03*
X77942000Y-30790000D03*
%TD*%
D21*
%TO.C,SW6*%
X41640000Y-47320000D03*
D19*
X34020000Y-52400000D03*
D20*
X39100000Y-52400000D03*
D19*
X44180000Y-52400000D03*
D21*
X35290000Y-49860000D03*
D22*
X32015000Y-49860000D03*
X44942000Y-47320000D03*
%TD*%
D21*
%TO.C,SW17*%
X52380000Y-81140000D03*
D19*
X44760000Y-86220000D03*
D20*
X49840000Y-86220000D03*
D21*
X46030000Y-83680000D03*
D19*
X54920000Y-86220000D03*
D22*
X42755000Y-83680000D03*
X55682000Y-81140000D03*
%TD*%
D21*
%TO.C,SW14*%
X91110000Y-66270000D03*
X84760000Y-68810000D03*
D20*
X88570000Y-71350000D03*
D19*
X93650000Y-71350000D03*
X83490000Y-71350000D03*
D22*
X81485000Y-68810000D03*
X94412000Y-66270000D03*
%TD*%
D21*
%TO.C,SW9*%
X84760000Y-52320000D03*
D20*
X88570000Y-54860000D03*
D21*
X91110000Y-49780000D03*
D19*
X93650000Y-54860000D03*
X83490000Y-54860000D03*
D22*
X81485000Y-52320000D03*
X94412000Y-49780000D03*
%TD*%
D21*
%TO.C,SW8*%
X68270000Y-49840000D03*
D19*
X67000000Y-52380000D03*
D20*
X72080000Y-52380000D03*
D21*
X74620000Y-47300000D03*
D19*
X77160000Y-52380000D03*
D22*
X64995000Y-49840000D03*
X77922000Y-47300000D03*
%TD*%
D19*
%TO.C,SW10*%
X110190000Y-57400000D03*
D20*
X105110000Y-57400000D03*
D19*
X100030000Y-57400000D03*
D21*
X101300000Y-54860000D03*
X107650000Y-52320000D03*
D22*
X98025000Y-54860000D03*
X110952000Y-52320000D03*
%TD*%
D20*
%TO.C,SW11*%
X39130000Y-68950000D03*
D21*
X35320000Y-66410000D03*
D19*
X44210000Y-68950000D03*
D21*
X41670000Y-63870000D03*
D19*
X34050000Y-68950000D03*
D22*
X32045000Y-66410000D03*
X44972000Y-63870000D03*
%TD*%
D19*
%TO.C,SW1*%
X34040000Y-35870000D03*
X44200000Y-35870000D03*
D21*
X35310000Y-33330000D03*
X41660000Y-30790000D03*
D20*
X39120000Y-35870000D03*
D22*
X32035000Y-33330000D03*
X44962000Y-30790000D03*
%TD*%
D21*
%TO.C,SW12*%
X51790000Y-66360000D03*
D19*
X60680000Y-68900000D03*
D21*
X58140000Y-63820000D03*
D19*
X50520000Y-68900000D03*
D20*
X55600000Y-68900000D03*
D22*
X48515000Y-66360000D03*
X61442000Y-63820000D03*
%TD*%
D19*
%TO.C,SW5*%
X110210000Y-40870000D03*
X100050000Y-40870000D03*
D21*
X107670000Y-35790000D03*
X101320000Y-38330000D03*
D20*
X105130000Y-40870000D03*
D22*
X98045000Y-38330000D03*
X110972000Y-35790000D03*
%TD*%
D19*
%TO.C,SW2*%
X50530000Y-35870000D03*
D20*
X55610000Y-35870000D03*
D21*
X58150000Y-30790000D03*
X51800000Y-33330000D03*
D19*
X60690000Y-35870000D03*
D22*
X48525000Y-33330000D03*
X61452000Y-30790000D03*
%TD*%
D19*
%TO.C,SW13*%
X77180000Y-68900000D03*
X67020000Y-68900000D03*
D21*
X68290000Y-66360000D03*
X74640000Y-63820000D03*
D20*
X72100000Y-68900000D03*
D22*
X65015000Y-66360000D03*
X77942000Y-63820000D03*
%TD*%
D19*
%TO.C,SW16*%
X28270000Y-86200000D03*
D21*
X35890000Y-81120000D03*
D19*
X38430000Y-86200000D03*
D21*
X29540000Y-83660000D03*
D20*
X33350000Y-86200000D03*
D22*
X26265000Y-83660000D03*
X39192000Y-81120000D03*
%TD*%
D20*
%TO.C,SW4*%
X88600000Y-38350000D03*
D19*
X93680000Y-38350000D03*
X83520000Y-38350000D03*
D21*
X84790000Y-35810000D03*
X91140000Y-33270000D03*
D22*
X81515000Y-35810000D03*
X94442000Y-33270000D03*
%TD*%
D19*
%TO.C,SW18*%
X61280000Y-86210000D03*
D21*
X68900000Y-81130000D03*
X62550000Y-83670000D03*
D19*
X71440000Y-86210000D03*
D20*
X66360000Y-86210000D03*
D22*
X59275000Y-83670000D03*
X72202000Y-81130000D03*
%TD*%
D23*
%TO.C,J1*%
X102210000Y-24140000D03*
X107990000Y-24140000D03*
D24*
X101900000Y-25340000D03*
X102700000Y-25340000D03*
D25*
X103850000Y-25340000D03*
X104850000Y-25340000D03*
X105350000Y-25340000D03*
X106350000Y-25340000D03*
D24*
X107500000Y-25340000D03*
X108300000Y-25340000D03*
X108300000Y-25340000D03*
X107500000Y-25340000D03*
D25*
X106850000Y-25340000D03*
X105850000Y-25340000D03*
X104350000Y-25340000D03*
X103350000Y-25340000D03*
D24*
X102700000Y-25340000D03*
X101900000Y-25340000D03*
D26*
X109420000Y-20460000D03*
D27*
X100780000Y-24640000D03*
X109420000Y-24640000D03*
D26*
X100780000Y-20460000D03*
%TD*%
D28*
%TO.C,U1*%
X88390000Y-79352500D03*
X89190000Y-79352500D03*
X89990000Y-79352500D03*
X90790000Y-79352500D03*
X91590000Y-79352500D03*
X92390000Y-79352500D03*
X93190000Y-79352500D03*
X93990000Y-79352500D03*
X94790000Y-79352500D03*
X95590000Y-79352500D03*
X96390000Y-79352500D03*
D29*
X98052500Y-81015000D03*
X98052500Y-81815000D03*
X98052500Y-82615000D03*
X98052500Y-83415000D03*
X98052500Y-84215000D03*
X98052500Y-85015000D03*
X98052500Y-85815000D03*
X98052500Y-86615000D03*
X98052500Y-87415000D03*
X98052500Y-88215000D03*
X98052500Y-89015000D03*
D28*
X96390000Y-90677500D03*
X95590000Y-90677500D03*
X94790000Y-90677500D03*
X93990000Y-90677500D03*
X93190000Y-90677500D03*
X92390000Y-90677500D03*
X91590000Y-90677500D03*
X90790000Y-90677500D03*
X89990000Y-90677500D03*
X89190000Y-90677500D03*
X88390000Y-90677500D03*
D29*
X86727500Y-89015000D03*
X86727500Y-88215000D03*
X86727500Y-87415000D03*
X86727500Y-86615000D03*
X86727500Y-85815000D03*
X86727500Y-85015000D03*
X86727500Y-84215000D03*
X86727500Y-83415000D03*
X86727500Y-82615000D03*
X86727500Y-81815000D03*
X86727500Y-81015000D03*
%TD*%
D30*
%TO.C,F1*%
X110900000Y-28500000D03*
X110900000Y-31300000D03*
%TD*%
D31*
%TO.C,R5*%
X83232500Y-92385000D03*
X81407500Y-92385000D03*
%TD*%
%TO.C,R1*%
X99150000Y-31500000D03*
X97325000Y-31500000D03*
%TD*%
D32*
%TO.C,C5*%
X106750000Y-77700000D03*
X106750000Y-79600000D03*
%TD*%
D33*
%TO.C,J2*%
X22900000Y-27350000D03*
X22900000Y-20350000D03*
%TD*%
D34*
%TO.C,C7*%
X109450000Y-82750000D03*
X107550000Y-82750000D03*
%TD*%
D31*
%TO.C,R2*%
X99130000Y-28810000D03*
X97305000Y-28810000D03*
%TD*%
D35*
%TO.C,RESET1*%
X26720000Y-36820000D03*
X26720000Y-40980000D03*
X28880000Y-36820000D03*
X28880000Y-40980000D03*
%TD*%
D36*
%TO.C,Y1*%
X107300000Y-88650000D03*
X107300000Y-85750000D03*
X109500000Y-85750000D03*
X109500000Y-88650000D03*
%TD*%
D37*
%TO.C,C4*%
X98100000Y-93565000D03*
X100000000Y-93565000D03*
%TD*%
D32*
%TO.C,C2*%
X94650000Y-73250000D03*
X94650000Y-75150000D03*
%TD*%
D38*
%TO.C,R6*%
X29100000Y-48212500D03*
X29100000Y-46387500D03*
%TD*%
D34*
%TO.C,C6*%
X109500000Y-92050000D03*
X107600000Y-92050000D03*
%TD*%
D39*
%TO.C,R4*%
X96750000Y-42200000D03*
X96750000Y-42200000D03*
X96750000Y-44025000D03*
%TD*%
%TO.C,R3*%
X94020000Y-42190000D03*
X94020000Y-44015000D03*
%TD*%
D32*
%TO.C,C3*%
X79650000Y-83000000D03*
X79650000Y-84900000D03*
%TD*%
D37*
%TO.C,C1*%
X96000000Y-61700000D03*
X97900000Y-61700000D03*
%TD*%
M02*
