M48
; DRILL file {KiCad (6.0.6)} date 2022年11月03日 11時36分57秒
; FORMAT={-:-/ absolute / metric / decimal}
; #@! TF.CreationDate,2022-11-03T11:36:57+09:00
; #@! TF.GenerationSoftware,Kicad,Pcbnew,(6.0.6)
; #@! TF.FileFunction,MixedPlating,1,2
FMAT,2
METRIC
; #@! TA.AperFunction,Plated,PTH,ViaDrill
T1C0.400
; #@! TA.AperFunction,Plated,PTH,ComponentDrill
T2C0.800
; #@! TA.AperFunction,Plated,PTH,ComponentDrill
T3C1.000
; #@! TA.AperFunction,NonPlated,NPTH,ComponentDrill
T4C1.200
; #@! TA.AperFunction,NonPlated,NPTH,ComponentDrill
T5C1.700
; #@! TA.AperFunction,NonPlated,NPTH,ComponentDrill
T6C1.900
; #@! TA.AperFunction,NonPlated,NPTH,ComponentDrill
T7C3.000
; #@! TA.AperFunction,NonPlated,NPTH,ComponentDrill
T8C4.000
; #@! TA.AperFunction,NonPlated,NPTH,ComponentDrill
T9C4.500
%
G90
G05
T1
X20.67Y-53.54
X20.97Y-79.67
X21.252Y-30.71
X21.69Y-62.84
X22.011Y-45.0
X22.59Y-77.72
X23.57Y-60.29
X24.09Y-63.3
X24.51Y-45.16
X26.68Y-39.433
X27.044Y-73.714
X27.06Y-56.51
X27.252Y-63.867
X27.768Y-86.081
X29.196Y-45.537
X29.51Y-78.98
X29.73Y-74.39
X30.207Y-85.992
X32.2Y-63.745
X32.98Y-90.04
X34.458Y-44.416
X35.863Y-28.959
X36.215Y-77.6
X36.63Y-88.78
X36.66Y-48.3
X37.197Y-23.05
X37.52Y-43.18
X37.667Y-62.242
X38.14Y-48.029
X38.39Y-77.84
X38.8Y-74.54
X39.2Y-41.016
X39.686Y-59.122
X40.525Y-78.519
X41.93Y-33.12
X41.98Y-67.53
X42.052Y-100.543
X42.144Y-58.732
X43.4Y-34.77
X43.55Y-52.31
X43.995Y-23.895
X45.48Y-88.94
X45.51Y-83.43
X46.26Y-69.54
X47.97Y-31.76
X48.323Y-41.417
X49.434Y-59.682
X49.98Y-73.58
X50.52Y-21.52
X51.69Y-38.42
X52.07Y-59.38
X52.647Y-21.92
X52.72Y-43.34
X53.316Y-22.88
X53.43Y-56.39
X55.2Y-53.77
X56.32Y-35.8
X56.401Y-53.115
X56.811Y-38.219
X58.01Y-64.2
X58.227Y-37.38
X58.66Y-29.79
X59.95Y-48.98
X61.41Y-36.08
X62.61Y-66.12
X63.345Y-30.925
X64.08Y-32.254
X64.86Y-37.579
X65.426Y-55.955
X65.75Y-82.73
X66.68Y-69.66
X67.28Y-37.82
X67.353Y-84.223
X67.74Y-53.96
X69.836Y-26.967
X71.13Y-56.818
X71.28Y-58.56
X71.42Y-41.87
X72.07Y-82.774
X73.66Y-40.51
X74.405Y-94.565
X74.72Y-42.46
X75.66Y-69.21
X75.75Y-35.2
X75.96Y-77.17
X76.061Y-58.165
X76.17Y-84.135
X77.062Y-23.32
X77.74Y-53.25
X79.64Y-21.21
X79.691Y-40.687
X79.87Y-70.73
X80.743Y-24.857
X81.166Y-86.718
X81.403Y-41.907
X81.433Y-59.746
X81.696Y-98.558
X83.715Y-39.032
X83.78Y-82.74
X84.1Y-57.2
X85.59Y-41.38
X85.981Y-61.397
X86.39Y-93.42
X86.65Y-46.76
X87.22Y-95.82
X87.581Y-84.493
X87.7Y-33.18
X88.101Y-46.595
X89.07Y-62.5
X89.5Y-45.17
X90.02Y-41.88
X90.09Y-63.07
X90.214Y-82.806
X91.256Y-63.039
X91.58Y-55.25
X91.61Y-36.15
X92.75Y-39.19
X92.82Y-56.86
X93.479Y-85.231
X94.38Y-47.92
X95.177Y-28.868
X96.903Y-92.944
X97.575Y-45.405
X98.786Y-72.305
X99.399Y-82.806
X99.759Y-89.465
X99.831Y-81.277
X99.89Y-44.01
X100.11Y-61.67
X100.262Y-87.691
X104.08Y-99.05
X105.61Y-87.33
X113.93Y-95.09
T2
X22.688Y-82.785
X22.688Y-98.02
X23.987Y-84.182
X23.987Y-99.417
X25.228Y-82.785
X25.228Y-98.02
X26.527Y-84.182
X26.527Y-99.417
X27.768Y-82.785
X27.768Y-98.02
X29.067Y-84.182
X29.067Y-99.417
X30.308Y-82.785
X30.308Y-98.02
X31.607Y-84.182
X31.607Y-99.417
X32.848Y-82.785
X32.848Y-98.02
X34.147Y-84.182
X34.147Y-99.417
X35.388Y-82.785
X35.388Y-98.02
X36.687Y-84.182
X36.687Y-99.417
X37.928Y-82.785
X37.928Y-98.02
X39.227Y-84.182
X39.227Y-99.417
T4
X108.116Y-77.95
X109.81Y-71.158
X109.814Y-78.373
X111.508Y-71.581
T5
X23.4Y-35.79
X23.4Y-53.29
X23.41Y-70.79
X33.56Y-35.79
X33.56Y-53.29
X33.57Y-70.79
X39.93Y-31.44
X39.96Y-48.9
X39.96Y-66.39
X50.09Y-31.44
X50.12Y-48.9
X50.12Y-66.39
X56.41Y-45.39
X56.44Y-62.91
X56.5Y-27.96
X66.57Y-45.39
X66.6Y-62.91
X66.66Y-27.96
X67.111Y-90.921
X71.96Y-31.92
X72.95Y-67.3
X72.96Y-49.8
X77.271Y-90.921
X82.12Y-31.92
X83.11Y-67.3
X83.12Y-49.8
X84.422Y-91.597
X89.44Y-70.78
X89.45Y-53.29
X89.46Y-35.78
X94.526Y-92.659
X99.6Y-70.78
X99.61Y-53.29
X99.62Y-35.78
X101.761Y-94.851
X111.619Y-97.309
T6
X22.98Y-35.79
X22.98Y-53.29
X22.99Y-70.79
X33.98Y-35.79
X33.98Y-53.29
X33.99Y-70.79
X39.51Y-31.44
X39.54Y-48.9
X39.54Y-66.39
X50.51Y-31.44
X50.54Y-48.9
X50.54Y-66.39
X55.99Y-45.39
X56.02Y-62.91
X56.08Y-27.96
X66.691Y-90.921
X66.99Y-45.39
X67.02Y-62.91
X67.08Y-27.96
X71.54Y-31.92
X72.53Y-67.3
X72.54Y-49.8
X77.691Y-90.921
X82.54Y-31.92
X83.53Y-67.3
X83.54Y-49.8
X84.004Y-91.553
X89.02Y-70.78
X89.03Y-53.29
X89.04Y-35.78
X94.944Y-92.703
X100.02Y-70.78
X100.03Y-53.29
X100.04Y-35.78
X101.354Y-94.749
X112.027Y-97.41
T7
X23.48Y-39.49
X23.48Y-56.99
X23.49Y-74.49
X24.67Y-33.25
X24.67Y-50.75
X24.68Y-68.25
X25.94Y-30.71
X25.94Y-48.21
X25.95Y-65.71
X28.48Y-41.69
X28.48Y-59.19
X28.49Y-76.69
X31.02Y-30.71
X31.02Y-48.21
X31.03Y-65.71
X32.29Y-33.25
X32.29Y-50.75
X32.3Y-68.25
X33.48Y-39.49
X33.48Y-56.99
X33.49Y-74.49
X40.01Y-35.14
X40.04Y-52.6
X40.04Y-70.09
X41.2Y-28.9
X41.23Y-46.36
X41.23Y-63.85
X42.47Y-26.36
X42.5Y-43.82
X42.5Y-61.31
X45.01Y-37.34
X45.04Y-54.8
X45.04Y-72.29
X47.55Y-26.36
X47.58Y-43.82
X47.58Y-61.31
X48.82Y-28.9
X48.85Y-46.36
X48.85Y-63.85
X50.01Y-35.14
X50.04Y-52.6
X50.04Y-70.09
X56.49Y-49.09
X56.52Y-66.61
X56.58Y-31.66
X57.68Y-42.85
X57.71Y-60.37
X57.77Y-25.42
X58.95Y-40.31
X58.98Y-57.83
X59.04Y-22.88
X61.49Y-51.29
X61.52Y-68.81
X61.58Y-33.86
X64.03Y-40.31
X64.06Y-57.83
X64.12Y-22.88
X65.3Y-42.85
X65.33Y-60.37
X65.39Y-25.42
X66.49Y-49.09
X66.52Y-66.61
X66.58Y-31.66
X67.191Y-94.621
X68.381Y-88.381
X69.651Y-85.841
X72.04Y-35.62
X72.191Y-96.821
X73.03Y-71.0
X73.04Y-53.5
X73.23Y-29.38
X74.22Y-64.76
X74.23Y-47.26
X74.5Y-26.84
X74.731Y-85.841
X75.49Y-62.22
X75.5Y-44.72
X76.001Y-88.381
X77.04Y-37.82
X77.191Y-94.621
X78.03Y-73.2
X78.04Y-55.7
X79.58Y-26.84
X80.57Y-62.22
X80.58Y-44.72
X80.85Y-29.38
X81.84Y-64.76
X81.85Y-47.26
X82.04Y-35.62
X83.03Y-71.0
X83.04Y-53.5
X84.115Y-95.285
X85.95Y-89.203
X87.479Y-86.81
X88.857Y-97.995
X89.52Y-74.48
X89.53Y-56.99
X89.54Y-39.48
X90.71Y-68.24
X90.72Y-50.75
X90.73Y-33.24
X91.98Y-65.7
X91.99Y-48.21
X92.0Y-30.7
X92.531Y-87.341
X93.529Y-90.0
X94.06Y-96.33
X94.52Y-76.68
X94.53Y-59.19
X94.54Y-41.68
X97.06Y-65.7
X97.07Y-48.21
X97.08Y-30.7
X98.33Y-68.24
X98.34Y-50.75
X98.35Y-33.24
X99.52Y-74.48
X99.53Y-56.99
X99.54Y-39.48
X100.944Y-98.46
X103.608Y-92.694
X105.263Y-101.805
X105.455Y-90.536
X110.384Y-91.765
X110.647Y-100.88
X111.002Y-94.537
T8
X28.48Y-35.79
X28.48Y-53.29
X28.49Y-70.79
X45.01Y-31.44
X45.04Y-48.9
X45.04Y-66.39
X61.49Y-45.39
X61.52Y-62.91
X61.58Y-27.96
X72.191Y-90.921
X77.04Y-31.92
X78.03Y-67.3
X78.04Y-49.8
X89.474Y-92.128
X94.52Y-70.78
X94.53Y-53.29
X94.54Y-35.78
X106.69Y-96.08
T9
X28.52Y-25.76
X51.5Y-96.76
X94.5Y-25.74
X109.13Y-86.36
T3
G00X105.704Y-78.946
M15
G01X105.583Y-79.431
M16
G05
G00X106.671Y-75.065
M15
G01X106.55Y-75.55
M16
G05
G00X107.039Y-80.825
M15
G01X106.918Y-81.31
M16
G05
G00X107.397Y-72.154
M15
G01X107.276Y-72.639
M16
G05
G00X109.416Y-81.417
M15
G01X109.295Y-81.903
M16
G05
G00X111.477Y-80.385
M15
G01X111.356Y-80.871
M16
G05
G00X112.444Y-76.504
M15
G01X112.324Y-76.989
M16
G05
G00X113.17Y-73.593
M15
G01X113.049Y-74.078
M16
G05
T0
M30
