M48
; DRILL file {KiCad (6.0.6)} date 2022年12月14日 08時04分59秒
; FORMAT={-:-/ absolute / metric / decimal}
; #@! TF.CreationDate,2022-12-14T08:04:59+09:00
; #@! TF.GenerationSoftware,Kicad,Pcbnew,(6.0.6)
; #@! TF.FileFunction,NonPlated,1,2,NPTH
FMAT,2
METRIC
; #@! TA.AperFunction,NonPlated,NPTH,ComponentDrill
T1C0.650
; #@! TA.AperFunction,NonPlated,NPTH,ComponentDrill
T2C1.200
; #@! TA.AperFunction,NonPlated,NPTH,ComponentDrill
T3C1.900
; #@! TA.AperFunction,NonPlated,NPTH,ComponentDrill
T4C3.000
; #@! TA.AperFunction,NonPlated,NPTH,ComponentDrill
T5C4.100
%
G90
G05
T1
X27.0Y-26.0
X32.78Y-26.0
T2
X112.2Y-22.2
X112.2Y-29.2
T3
X24.79Y-59.17
X24.81Y-42.64
X24.82Y-75.72
X34.95Y-59.17
X34.97Y-42.64
X34.98Y-75.72
X41.3Y-56.72
X41.3Y-73.22
X41.31Y-40.19
X51.46Y-56.72
X51.46Y-73.22
X51.47Y-40.19
X57.81Y-54.23
X57.83Y-37.72
X57.83Y-70.75
X63.58Y-88.05
X67.97Y-54.23
X67.99Y-37.72
X67.99Y-70.75
X73.74Y-88.05
X74.31Y-54.23
X74.31Y-70.72
X74.34Y-37.72
X80.07Y-88.07
X84.47Y-54.23
X84.47Y-70.72
X84.5Y-37.72
X90.23Y-88.07
X90.8Y-70.73
X90.81Y-54.23
X90.83Y-37.7
X96.59Y-88.06
X100.96Y-70.73
X100.97Y-54.23
X100.99Y-37.7
X106.75Y-88.06
T4
X26.06Y-56.63
X26.08Y-40.1
X26.09Y-73.18
X32.41Y-54.09
X32.43Y-37.56
X32.44Y-70.64
X42.57Y-54.18
X42.57Y-70.68
X42.58Y-37.65
X48.92Y-51.64
X48.92Y-68.14
X48.93Y-35.11
X59.08Y-51.69
X59.1Y-35.18
X59.1Y-68.21
X64.85Y-85.51
X65.43Y-49.15
X65.45Y-32.64
X65.45Y-65.67
X71.2Y-82.97
X75.58Y-51.69
X75.58Y-68.18
X75.61Y-35.18
X81.34Y-85.53
X81.93Y-49.15
X81.93Y-65.64
X81.96Y-32.64
X87.69Y-82.99
X92.07Y-68.19
X92.08Y-51.69
X92.1Y-35.16
X97.86Y-85.52
X98.42Y-65.65
X98.43Y-49.15
X98.45Y-32.62
X104.21Y-82.98
T5
X29.87Y-59.17
X29.89Y-42.64
X29.9Y-75.72
X46.38Y-56.72
X46.38Y-73.22
X46.39Y-40.19
X62.89Y-54.23
X62.91Y-37.72
X62.91Y-70.75
X68.66Y-88.05
X79.39Y-54.23
X79.39Y-70.72
X79.42Y-37.72
X85.15Y-88.07
X95.88Y-70.73
X95.89Y-54.23
X95.91Y-37.7
X101.67Y-88.06
T0
M30
