%TF.GenerationSoftware,KiCad,Pcbnew,(6.0.6)*%
%TF.CreationDate,2022-11-03T11:36:57+09:00*%
%TF.ProjectId,split-mini,73706c69-742d-46d6-996e-692e6b696361,rev?*%
%TF.SameCoordinates,Original*%
%TF.FileFunction,Legend,Bot*%
%TF.FilePolarity,Positive*%
%FSLAX46Y46*%
G04 Gerber Fmt 4.6, Leading zero omitted, Abs format (unit mm)*
G04 Created by KiCad (PCBNEW (6.0.6)) date 2022-11-03 11:36:57*
%MOMM*%
%LPD*%
G01*
G04 APERTURE LIST*
G04 Aperture macros list*
%AMHorizOval*
0 Thick line with rounded ends*
0 $1 width*
0 $2 $3 position (X,Y) of the first rounded end (center of the circle)*
0 $4 $5 position (X,Y) of the second rounded end (center of the circle)*
0 Add line between two ends*
20,1,$1,$2,$3,$4,$5,0*
0 Add two circle primitives to create the rounded ends*
1,1,$1,$2,$3*
1,1,$1,$4,$5*%
%AMRotRect*
0 Rectangle, with rotation*
0 The origin of the aperture is its center*
0 $1 length*
0 $2 width*
0 $3 Rotation angle, in degrees counterclockwise*
0 Add horizontal line*
21,1,$1,$2,0,0,$3*%
G04 Aperture macros list end*
%TA.AperFunction,Profile*%
%ADD10C,0.100000*%
%TD*%
%ADD11C,0.300000*%
%ADD12C,0.100000*%
%ADD13C,0.150000*%
%ADD14C,0.120000*%
%ADD15C,1.600000*%
%ADD16C,0.350000*%
%ADD17HorizOval,1.000000X-0.060480X-0.242574X0.060480X0.242574X0*%
%ADD18R,1.300000X0.950000*%
%ADD19C,3.000000*%
%ADD20C,1.700000*%
%ADD21C,1.900000*%
%ADD22C,4.000000*%
%ADD23R,2.000000X2.000000*%
%ADD24R,1.900000X2.000000*%
%ADD25RotRect,1.300000X0.950000X354.000000*%
%ADD26C,4.500000*%
%ADD27RotRect,1.300000X0.950000X346.000000*%
%ADD28RotRect,2.000000X2.000000X166.000000*%
%ADD29RotRect,1.900000X2.000000X166.000000*%
%ADD30C,1.200000*%
%ADD31HorizOval,1.700000X-0.096769X-0.388118X0.096769X0.388118X0*%
%ADD32RotRect,2.000000X2.000000X174.000000*%
%ADD33RotRect,1.900000X2.000000X174.000000*%
%ADD34R,1.850000X2.000000*%
G04 APERTURE END LIST*
D10*
X116123324Y-72166634D02*
G75*
G03*
X113860370Y-69515158I-2988724J-259366D01*
G01*
X103530843Y-66939718D02*
X113860370Y-69515158D01*
X110364219Y-106260861D02*
G75*
G03*
X114000870Y-104075745I725781J2910861D01*
G01*
X21530843Y-102768057D02*
X45530843Y-102768057D01*
X78079754Y-99947838D02*
X89423885Y-101140154D01*
X66703035Y-99893057D02*
X77034469Y-99893057D01*
X45530843Y-102768057D02*
X54083652Y-102768057D01*
X56918659Y-102357777D02*
X63868027Y-100303337D01*
X19530843Y-21893057D02*
X19530843Y-100768057D01*
X117508504Y-90007398D02*
G75*
G03*
X117586379Y-89022217I-2911304J725798D01*
G01*
X103530843Y-21893057D02*
G75*
G03*
X100530843Y-18893057I-3000043J-43D01*
G01*
X78079754Y-99947841D02*
G75*
G03*
X77034469Y-99893057I-1045254J-9944059D01*
G01*
X54083652Y-102768065D02*
G75*
G03*
X56918659Y-102357777I-52J10000165D01*
G01*
X66703035Y-99893053D02*
G75*
G03*
X63868027Y-100303337I65J-10000347D01*
G01*
X22530843Y-18893063D02*
G75*
G03*
X19530843Y-21893057I-3J-2999997D01*
G01*
X114000870Y-104075745D02*
X117508503Y-90007398D01*
X90797818Y-101382418D02*
G75*
G03*
X89423885Y-101140154I-2419118J-9702282D01*
G01*
X19530843Y-100768057D02*
G75*
G03*
X21530843Y-102768057I1999997J-3D01*
G01*
X90797819Y-101382416D02*
X110364217Y-106260867D01*
X100530843Y-18893057D02*
X22530843Y-18893057D01*
X103530843Y-66939718D02*
X103530843Y-21893057D01*
X116123367Y-72166630D02*
X117586379Y-89022217D01*
D11*
X69052857Y-75729714D02*
X68938571Y-75786857D01*
X68710000Y-75786857D01*
X68595714Y-75729714D01*
X68538571Y-75615428D01*
X68538571Y-75558285D01*
X68595714Y-75444000D01*
X68710000Y-75386857D01*
X68881428Y-75386857D01*
X68995714Y-75329714D01*
X69052857Y-75215428D01*
X69052857Y-75158285D01*
X68995714Y-75044000D01*
X68881428Y-74986857D01*
X68710000Y-74986857D01*
X68595714Y-75044000D01*
X68024285Y-74986857D02*
X68024285Y-76186857D01*
X68024285Y-75044000D02*
X67910000Y-74986857D01*
X67681428Y-74986857D01*
X67567142Y-75044000D01*
X67510000Y-75101142D01*
X67452857Y-75215428D01*
X67452857Y-75558285D01*
X67510000Y-75672571D01*
X67567142Y-75729714D01*
X67681428Y-75786857D01*
X67910000Y-75786857D01*
X68024285Y-75729714D01*
X66767142Y-75786857D02*
X66881428Y-75729714D01*
X66938571Y-75615428D01*
X66938571Y-74586857D01*
X66310000Y-75786857D02*
X66310000Y-74986857D01*
X66310000Y-74586857D02*
X66367142Y-74644000D01*
X66310000Y-74701142D01*
X66252857Y-74644000D01*
X66310000Y-74586857D01*
X66310000Y-74701142D01*
X65910000Y-74986857D02*
X65452857Y-74986857D01*
X65738571Y-74586857D02*
X65738571Y-75615428D01*
X65681428Y-75729714D01*
X65567142Y-75786857D01*
X65452857Y-75786857D01*
X64138571Y-75786857D02*
X64138571Y-74986857D01*
X64138571Y-75101142D02*
X64081428Y-75044000D01*
X63967142Y-74986857D01*
X63795714Y-74986857D01*
X63681428Y-75044000D01*
X63624285Y-75158285D01*
X63624285Y-75786857D01*
X63624285Y-75158285D02*
X63567142Y-75044000D01*
X63452857Y-74986857D01*
X63281428Y-74986857D01*
X63167142Y-75044000D01*
X63110000Y-75158285D01*
X63110000Y-75786857D01*
X62538571Y-75786857D02*
X62538571Y-74986857D01*
X62538571Y-74586857D02*
X62595714Y-74644000D01*
X62538571Y-74701142D01*
X62481428Y-74644000D01*
X62538571Y-74586857D01*
X62538571Y-74701142D01*
X61967142Y-74986857D02*
X61967142Y-75786857D01*
X61967142Y-75101142D02*
X61910000Y-75044000D01*
X61795714Y-74986857D01*
X61624285Y-74986857D01*
X61510000Y-75044000D01*
X61452857Y-75158285D01*
X61452857Y-75786857D01*
X60881428Y-75786857D02*
X60881428Y-74986857D01*
X60881428Y-74586857D02*
X60938571Y-74644000D01*
X60881428Y-74701142D01*
X60824285Y-74644000D01*
X60881428Y-74586857D01*
X60881428Y-74701142D01*
X59395714Y-75786857D02*
X59395714Y-74986857D01*
X59395714Y-75215428D02*
X59338571Y-75101142D01*
X59281428Y-75044000D01*
X59167142Y-74986857D01*
X59052857Y-74986857D01*
X58195714Y-75729714D02*
X58310000Y-75786857D01*
X58538571Y-75786857D01*
X58652857Y-75729714D01*
X58710000Y-75615428D01*
X58710000Y-75158285D01*
X58652857Y-75044000D01*
X58538571Y-74986857D01*
X58310000Y-74986857D01*
X58195714Y-75044000D01*
X58138571Y-75158285D01*
X58138571Y-75272571D01*
X58710000Y-75386857D01*
X57738571Y-74986857D02*
X57452857Y-75786857D01*
X57167142Y-74986857D01*
X56481428Y-74586857D02*
X56367142Y-74586857D01*
X56252857Y-74644000D01*
X56195714Y-74701142D01*
X56138571Y-74815428D01*
X56081428Y-75044000D01*
X56081428Y-75329714D01*
X56138571Y-75558285D01*
X56195714Y-75672571D01*
X56252857Y-75729714D01*
X56367142Y-75786857D01*
X56481428Y-75786857D01*
X56595714Y-75729714D01*
X56652857Y-75672571D01*
X56710000Y-75558285D01*
X56767142Y-75329714D01*
X56767142Y-75044000D01*
X56710000Y-74815428D01*
X56652857Y-74701142D01*
X56595714Y-74644000D01*
X56481428Y-74586857D01*
X55567142Y-75672571D02*
X55510000Y-75729714D01*
X55567142Y-75786857D01*
X55624285Y-75729714D01*
X55567142Y-75672571D01*
X55567142Y-75786857D01*
X54481428Y-74986857D02*
X54481428Y-75786857D01*
X54767142Y-74529714D02*
X55052857Y-75386857D01*
X54310000Y-75386857D01*
X71824285Y-77718857D02*
X71824285Y-76518857D01*
X71824285Y-77661714D02*
X71938571Y-77718857D01*
X72167142Y-77718857D01*
X72281428Y-77661714D01*
X72338571Y-77604571D01*
X72395714Y-77490285D01*
X72395714Y-77147428D01*
X72338571Y-77033142D01*
X72281428Y-76976000D01*
X72167142Y-76918857D01*
X71938571Y-76918857D01*
X71824285Y-76976000D01*
X70795714Y-77661714D02*
X70910000Y-77718857D01*
X71138571Y-77718857D01*
X71252857Y-77661714D01*
X71310000Y-77547428D01*
X71310000Y-77090285D01*
X71252857Y-76976000D01*
X71138571Y-76918857D01*
X70910000Y-76918857D01*
X70795714Y-76976000D01*
X70738571Y-77090285D01*
X70738571Y-77204571D01*
X71310000Y-77318857D01*
X70281428Y-77661714D02*
X70167142Y-77718857D01*
X69938571Y-77718857D01*
X69824285Y-77661714D01*
X69767142Y-77547428D01*
X69767142Y-77490285D01*
X69824285Y-77376000D01*
X69938571Y-77318857D01*
X70110000Y-77318857D01*
X70224285Y-77261714D01*
X70281428Y-77147428D01*
X70281428Y-77090285D01*
X70224285Y-76976000D01*
X70110000Y-76918857D01*
X69938571Y-76918857D01*
X69824285Y-76976000D01*
X69252857Y-77718857D02*
X69252857Y-76918857D01*
X69252857Y-76518857D02*
X69310000Y-76576000D01*
X69252857Y-76633142D01*
X69195714Y-76576000D01*
X69252857Y-76518857D01*
X69252857Y-76633142D01*
X68167142Y-76918857D02*
X68167142Y-77890285D01*
X68224285Y-78004571D01*
X68281428Y-78061714D01*
X68395714Y-78118857D01*
X68567142Y-78118857D01*
X68681428Y-78061714D01*
X68167142Y-77661714D02*
X68281428Y-77718857D01*
X68510000Y-77718857D01*
X68624285Y-77661714D01*
X68681428Y-77604571D01*
X68738571Y-77490285D01*
X68738571Y-77147428D01*
X68681428Y-77033142D01*
X68624285Y-76976000D01*
X68510000Y-76918857D01*
X68281428Y-76918857D01*
X68167142Y-76976000D01*
X67595714Y-76918857D02*
X67595714Y-77718857D01*
X67595714Y-77033142D02*
X67538571Y-76976000D01*
X67424285Y-76918857D01*
X67252857Y-76918857D01*
X67138571Y-76976000D01*
X67081428Y-77090285D01*
X67081428Y-77718857D01*
X66052857Y-77661714D02*
X66167142Y-77718857D01*
X66395714Y-77718857D01*
X66510000Y-77661714D01*
X66567142Y-77547428D01*
X66567142Y-77090285D01*
X66510000Y-76976000D01*
X66395714Y-76918857D01*
X66167142Y-76918857D01*
X66052857Y-76976000D01*
X65995714Y-77090285D01*
X65995714Y-77204571D01*
X66567142Y-77318857D01*
X64967142Y-77718857D02*
X64967142Y-76518857D01*
X64967142Y-77661714D02*
X65081428Y-77718857D01*
X65310000Y-77718857D01*
X65424285Y-77661714D01*
X65481428Y-77604571D01*
X65538571Y-77490285D01*
X65538571Y-77147428D01*
X65481428Y-77033142D01*
X65424285Y-76976000D01*
X65310000Y-76918857D01*
X65081428Y-76918857D01*
X64967142Y-76976000D01*
X63481428Y-77718857D02*
X63481428Y-76518857D01*
X63481428Y-76976000D02*
X63367142Y-76918857D01*
X63138571Y-76918857D01*
X63024285Y-76976000D01*
X62967142Y-77033142D01*
X62910000Y-77147428D01*
X62910000Y-77490285D01*
X62967142Y-77604571D01*
X63024285Y-77661714D01*
X63138571Y-77718857D01*
X63367142Y-77718857D01*
X63481428Y-77661714D01*
X62510000Y-76918857D02*
X62224285Y-77718857D01*
X61938571Y-76918857D02*
X62224285Y-77718857D01*
X62338571Y-78004571D01*
X62395714Y-78061714D01*
X62510000Y-78118857D01*
X60738571Y-76918857D02*
X60281428Y-76918857D01*
X60567142Y-76518857D02*
X60567142Y-77547428D01*
X60510000Y-77661714D01*
X60395714Y-77718857D01*
X60281428Y-77718857D01*
X59367142Y-77718857D02*
X59367142Y-77090285D01*
X59424285Y-76976000D01*
X59538571Y-76918857D01*
X59767142Y-76918857D01*
X59881428Y-76976000D01*
X59367142Y-77661714D02*
X59481428Y-77718857D01*
X59767142Y-77718857D01*
X59881428Y-77661714D01*
X59938571Y-77547428D01*
X59938571Y-77433142D01*
X59881428Y-77318857D01*
X59767142Y-77261714D01*
X59481428Y-77261714D01*
X59367142Y-77204571D01*
X58795714Y-77718857D02*
X58795714Y-76918857D01*
X58795714Y-77033142D02*
X58738571Y-76976000D01*
X58624285Y-76918857D01*
X58452857Y-76918857D01*
X58338571Y-76976000D01*
X58281428Y-77090285D01*
X58281428Y-77718857D01*
X58281428Y-77090285D02*
X58224285Y-76976000D01*
X58110000Y-76918857D01*
X57938571Y-76918857D01*
X57824285Y-76976000D01*
X57767142Y-77090285D01*
X57767142Y-77718857D01*
X56681428Y-77718857D02*
X56681428Y-77090285D01*
X56738571Y-76976000D01*
X56852857Y-76918857D01*
X57081428Y-76918857D01*
X57195714Y-76976000D01*
X56681428Y-77661714D02*
X56795714Y-77718857D01*
X57081428Y-77718857D01*
X57195714Y-77661714D01*
X57252857Y-77547428D01*
X57252857Y-77433142D01*
X57195714Y-77318857D01*
X57081428Y-77261714D01*
X56795714Y-77261714D01*
X56681428Y-77204571D01*
X55595714Y-76918857D02*
X55595714Y-77890285D01*
X55652857Y-78004571D01*
X55710000Y-78061714D01*
X55824285Y-78118857D01*
X55995714Y-78118857D01*
X56110000Y-78061714D01*
X55595714Y-77661714D02*
X55710000Y-77718857D01*
X55938571Y-77718857D01*
X56052857Y-77661714D01*
X56110000Y-77604571D01*
X56167142Y-77490285D01*
X56167142Y-77147428D01*
X56110000Y-77033142D01*
X56052857Y-76976000D01*
X55938571Y-76918857D01*
X55710000Y-76918857D01*
X55595714Y-76976000D01*
X54852857Y-77718857D02*
X54967142Y-77661714D01*
X55024285Y-77604571D01*
X55081428Y-77490285D01*
X55081428Y-77147428D01*
X55024285Y-77033142D01*
X54967142Y-76976000D01*
X54852857Y-76918857D01*
X54681428Y-76918857D01*
X54567142Y-76976000D01*
X54510000Y-77033142D01*
X54452857Y-77147428D01*
X54452857Y-77490285D01*
X54510000Y-77604571D01*
X54567142Y-77661714D01*
X54681428Y-77718857D01*
X54852857Y-77718857D01*
X54052857Y-76518857D02*
X53310000Y-76518857D01*
X53710000Y-76976000D01*
X53538571Y-76976000D01*
X53424285Y-77033142D01*
X53367142Y-77090285D01*
X53310000Y-77204571D01*
X53310000Y-77490285D01*
X53367142Y-77604571D01*
X53424285Y-77661714D01*
X53538571Y-77718857D01*
X53881428Y-77718857D01*
X53995714Y-77661714D01*
X54052857Y-77604571D01*
X52852857Y-76633142D02*
X52795714Y-76576000D01*
X52681428Y-76518857D01*
X52395714Y-76518857D01*
X52281428Y-76576000D01*
X52224285Y-76633142D01*
X52167142Y-76747428D01*
X52167142Y-76861714D01*
X52224285Y-77033142D01*
X52910000Y-77718857D01*
X52167142Y-77718857D01*
X51138571Y-76918857D02*
X51138571Y-77718857D01*
X51424285Y-76461714D02*
X51710000Y-77318857D01*
X50967142Y-77318857D01*
D12*
%TO.C,U1*%
X30531809Y-94838095D02*
X30569904Y-94761904D01*
X30569904Y-94609523D01*
X30531809Y-94533333D01*
X30493714Y-94495238D01*
X30417523Y-94457142D01*
X30188952Y-94457142D01*
X30112761Y-94495238D01*
X30074666Y-94533333D01*
X30036571Y-94609523D01*
X30036571Y-94761904D01*
X30074666Y-94838095D01*
X30569904Y-95295238D02*
X30531809Y-95219047D01*
X30493714Y-95180952D01*
X30417523Y-95142857D01*
X30188952Y-95142857D01*
X30112761Y-95180952D01*
X30074666Y-95219047D01*
X30036571Y-95295238D01*
X30036571Y-95409523D01*
X30074666Y-95485714D01*
X30112761Y-95523809D01*
X30188952Y-95561904D01*
X30417523Y-95561904D01*
X30493714Y-95523809D01*
X30531809Y-95485714D01*
X30569904Y-95409523D01*
X30569904Y-95295238D01*
X30569904Y-96019047D02*
X30531809Y-95942857D01*
X30455619Y-95904761D01*
X29769904Y-95904761D01*
X29846095Y-96285714D02*
X29808000Y-96323809D01*
X29769904Y-96400000D01*
X29769904Y-96590476D01*
X29808000Y-96666666D01*
X29846095Y-96704761D01*
X29922285Y-96742857D01*
X29998476Y-96742857D01*
X30112761Y-96704761D01*
X30569904Y-96247619D01*
X30569904Y-96742857D01*
X22879904Y-84020952D02*
X22346571Y-84020952D01*
X22498952Y-84020952D02*
X22422761Y-84059047D01*
X22384666Y-84097142D01*
X22346571Y-84173333D01*
X22346571Y-84249523D01*
X22879904Y-84630476D02*
X22841809Y-84554285D01*
X22803714Y-84516190D01*
X22727523Y-84478095D01*
X22498952Y-84478095D01*
X22422761Y-84516190D01*
X22384666Y-84554285D01*
X22346571Y-84630476D01*
X22346571Y-84744761D01*
X22384666Y-84820952D01*
X22422761Y-84859047D01*
X22498952Y-84897142D01*
X22727523Y-84897142D01*
X22803714Y-84859047D01*
X22841809Y-84820952D01*
X22879904Y-84744761D01*
X22879904Y-84630476D01*
X22346571Y-85163809D02*
X22879904Y-85316190D01*
X22498952Y-85468571D01*
X22879904Y-85620952D01*
X22346571Y-85773333D01*
X22079904Y-86230476D02*
X22079904Y-86306666D01*
X22118000Y-86382857D01*
X22156095Y-86420952D01*
X22232285Y-86459047D01*
X22384666Y-86497142D01*
X22575142Y-86497142D01*
X22727523Y-86459047D01*
X22803714Y-86420952D01*
X22841809Y-86382857D01*
X22879904Y-86306666D01*
X22879904Y-86230476D01*
X22841809Y-86154285D01*
X22803714Y-86116190D01*
X22727523Y-86078095D01*
X22575142Y-86040000D01*
X22384666Y-86040000D01*
X22232285Y-86078095D01*
X22156095Y-86116190D01*
X22118000Y-86154285D01*
X22079904Y-86230476D01*
X35521809Y-94828095D02*
X35559904Y-94751904D01*
X35559904Y-94599523D01*
X35521809Y-94523333D01*
X35483714Y-94485238D01*
X35407523Y-94447142D01*
X35178952Y-94447142D01*
X35102761Y-94485238D01*
X35064666Y-94523333D01*
X35026571Y-94599523D01*
X35026571Y-94751904D01*
X35064666Y-94828095D01*
X35559904Y-95285238D02*
X35521809Y-95209047D01*
X35483714Y-95170952D01*
X35407523Y-95132857D01*
X35178952Y-95132857D01*
X35102761Y-95170952D01*
X35064666Y-95209047D01*
X35026571Y-95285238D01*
X35026571Y-95399523D01*
X35064666Y-95475714D01*
X35102761Y-95513809D01*
X35178952Y-95551904D01*
X35407523Y-95551904D01*
X35483714Y-95513809D01*
X35521809Y-95475714D01*
X35559904Y-95399523D01*
X35559904Y-95285238D01*
X35559904Y-96009047D02*
X35521809Y-95932857D01*
X35445619Y-95894761D01*
X34759904Y-95894761D01*
X35026571Y-96656666D02*
X35559904Y-96656666D01*
X34721809Y-96466190D02*
X35293238Y-96275714D01*
X35293238Y-96770952D01*
X22289904Y-94733333D02*
X23089904Y-95000000D01*
X22289904Y-95266666D01*
X23013714Y-95990476D02*
X23051809Y-95952380D01*
X23089904Y-95838095D01*
X23089904Y-95761904D01*
X23051809Y-95647619D01*
X22975619Y-95571428D01*
X22899428Y-95533333D01*
X22747047Y-95495238D01*
X22632761Y-95495238D01*
X22480380Y-95533333D01*
X22404190Y-95571428D01*
X22328000Y-95647619D01*
X22289904Y-95761904D01*
X22289904Y-95838095D01*
X22328000Y-95952380D01*
X22366095Y-95990476D01*
X23013714Y-96790476D02*
X23051809Y-96752380D01*
X23089904Y-96638095D01*
X23089904Y-96561904D01*
X23051809Y-96447619D01*
X22975619Y-96371428D01*
X22899428Y-96333333D01*
X22747047Y-96295238D01*
X22632761Y-96295238D01*
X22480380Y-96333333D01*
X22404190Y-96371428D01*
X22328000Y-96447619D01*
X22289904Y-96561904D01*
X22289904Y-96638095D01*
X22328000Y-96752380D01*
X22366095Y-96790476D01*
X38279904Y-94749047D02*
X37479904Y-94749047D01*
X38241809Y-94749047D02*
X38279904Y-94672857D01*
X38279904Y-94520476D01*
X38241809Y-94444285D01*
X38203714Y-94406190D01*
X38127523Y-94368095D01*
X37898952Y-94368095D01*
X37822761Y-94406190D01*
X37784666Y-94444285D01*
X37746571Y-94520476D01*
X37746571Y-94672857D01*
X37784666Y-94749047D01*
X38279904Y-95472857D02*
X37860857Y-95472857D01*
X37784666Y-95434761D01*
X37746571Y-95358571D01*
X37746571Y-95206190D01*
X37784666Y-95130000D01*
X38241809Y-95472857D02*
X38279904Y-95396666D01*
X38279904Y-95206190D01*
X38241809Y-95130000D01*
X38165619Y-95091904D01*
X38089428Y-95091904D01*
X38013238Y-95130000D01*
X37975142Y-95206190D01*
X37975142Y-95396666D01*
X37937047Y-95472857D01*
X37746571Y-95739523D02*
X37746571Y-96044285D01*
X37479904Y-95853809D02*
X38165619Y-95853809D01*
X38241809Y-95891904D01*
X38279904Y-95968095D01*
X38279904Y-96044285D01*
X38279904Y-96653809D02*
X37860857Y-96653809D01*
X37784666Y-96615714D01*
X37746571Y-96539523D01*
X37746571Y-96387142D01*
X37784666Y-96310952D01*
X38241809Y-96653809D02*
X38279904Y-96577619D01*
X38279904Y-96387142D01*
X38241809Y-96310952D01*
X38165619Y-96272857D01*
X38089428Y-96272857D01*
X38013238Y-96310952D01*
X37975142Y-96387142D01*
X37975142Y-96577619D01*
X37937047Y-96653809D01*
X24778000Y-95090476D02*
X24739904Y-95014285D01*
X24739904Y-94900000D01*
X24778000Y-94785714D01*
X24854190Y-94709523D01*
X24930380Y-94671428D01*
X25082761Y-94633333D01*
X25197047Y-94633333D01*
X25349428Y-94671428D01*
X25425619Y-94709523D01*
X25501809Y-94785714D01*
X25539904Y-94900000D01*
X25539904Y-94976190D01*
X25501809Y-95090476D01*
X25463714Y-95128571D01*
X25197047Y-95128571D01*
X25197047Y-94976190D01*
X25539904Y-95471428D02*
X24739904Y-95471428D01*
X25539904Y-95928571D01*
X24739904Y-95928571D01*
X25539904Y-96309523D02*
X24739904Y-96309523D01*
X24739904Y-96500000D01*
X24778000Y-96614285D01*
X24854190Y-96690476D01*
X24930380Y-96728571D01*
X25082761Y-96766666D01*
X25197047Y-96766666D01*
X25349428Y-96728571D01*
X25425619Y-96690476D01*
X25501809Y-96614285D01*
X25539904Y-96500000D01*
X25539904Y-96309523D01*
X33141809Y-94908095D02*
X33179904Y-94831904D01*
X33179904Y-94679523D01*
X33141809Y-94603333D01*
X33103714Y-94565238D01*
X33027523Y-94527142D01*
X32798952Y-94527142D01*
X32722761Y-94565238D01*
X32684666Y-94603333D01*
X32646571Y-94679523D01*
X32646571Y-94831904D01*
X32684666Y-94908095D01*
X33179904Y-95365238D02*
X33141809Y-95289047D01*
X33103714Y-95250952D01*
X33027523Y-95212857D01*
X32798952Y-95212857D01*
X32722761Y-95250952D01*
X32684666Y-95289047D01*
X32646571Y-95365238D01*
X32646571Y-95479523D01*
X32684666Y-95555714D01*
X32722761Y-95593809D01*
X32798952Y-95631904D01*
X33027523Y-95631904D01*
X33103714Y-95593809D01*
X33141809Y-95555714D01*
X33179904Y-95479523D01*
X33179904Y-95365238D01*
X33179904Y-96089047D02*
X33141809Y-96012857D01*
X33065619Y-95974761D01*
X32379904Y-95974761D01*
X32379904Y-96317619D02*
X32379904Y-96812857D01*
X32684666Y-96546190D01*
X32684666Y-96660476D01*
X32722761Y-96736666D01*
X32760857Y-96774761D01*
X32837047Y-96812857D01*
X33027523Y-96812857D01*
X33103714Y-96774761D01*
X33141809Y-96736666D01*
X33179904Y-96660476D01*
X33179904Y-96431904D01*
X33141809Y-96355714D01*
X33103714Y-96317619D01*
X33191809Y-84498095D02*
X33229904Y-84421904D01*
X33229904Y-84269523D01*
X33191809Y-84193333D01*
X33153714Y-84155238D01*
X33077523Y-84117142D01*
X32848952Y-84117142D01*
X32772761Y-84155238D01*
X32734666Y-84193333D01*
X32696571Y-84269523D01*
X32696571Y-84421904D01*
X32734666Y-84498095D01*
X33229904Y-84955238D02*
X33191809Y-84879047D01*
X33153714Y-84840952D01*
X33077523Y-84802857D01*
X32848952Y-84802857D01*
X32772761Y-84840952D01*
X32734666Y-84879047D01*
X32696571Y-84955238D01*
X32696571Y-85069523D01*
X32734666Y-85145714D01*
X32772761Y-85183809D01*
X32848952Y-85221904D01*
X33077523Y-85221904D01*
X33153714Y-85183809D01*
X33191809Y-85145714D01*
X33229904Y-85069523D01*
X33229904Y-84955238D01*
X33229904Y-85679047D02*
X33191809Y-85602857D01*
X33115619Y-85564761D01*
X32429904Y-85564761D01*
X32429904Y-86136190D02*
X32429904Y-86212380D01*
X32468000Y-86288571D01*
X32506095Y-86326666D01*
X32582285Y-86364761D01*
X32734666Y-86402857D01*
X32925142Y-86402857D01*
X33077523Y-86364761D01*
X33153714Y-86326666D01*
X33191809Y-86288571D01*
X33229904Y-86212380D01*
X33229904Y-86136190D01*
X33191809Y-86060000D01*
X33153714Y-86021904D01*
X33077523Y-85983809D01*
X32925142Y-85945714D01*
X32734666Y-85945714D01*
X32582285Y-85983809D01*
X32506095Y-86021904D01*
X32468000Y-86060000D01*
X32429904Y-86136190D01*
X25609904Y-84020952D02*
X25076571Y-84020952D01*
X25228952Y-84020952D02*
X25152761Y-84059047D01*
X25114666Y-84097142D01*
X25076571Y-84173333D01*
X25076571Y-84249523D01*
X25609904Y-84630476D02*
X25571809Y-84554285D01*
X25533714Y-84516190D01*
X25457523Y-84478095D01*
X25228952Y-84478095D01*
X25152761Y-84516190D01*
X25114666Y-84554285D01*
X25076571Y-84630476D01*
X25076571Y-84744761D01*
X25114666Y-84820952D01*
X25152761Y-84859047D01*
X25228952Y-84897142D01*
X25457523Y-84897142D01*
X25533714Y-84859047D01*
X25571809Y-84820952D01*
X25609904Y-84744761D01*
X25609904Y-84630476D01*
X25076571Y-85163809D02*
X25609904Y-85316190D01*
X25228952Y-85468571D01*
X25609904Y-85620952D01*
X25076571Y-85773333D01*
X25609904Y-86497142D02*
X25609904Y-86040000D01*
X25609904Y-86268571D02*
X24809904Y-86268571D01*
X24924190Y-86192380D01*
X25000380Y-86116190D01*
X25038476Y-86040000D01*
X28189904Y-84080952D02*
X27656571Y-84080952D01*
X27808952Y-84080952D02*
X27732761Y-84119047D01*
X27694666Y-84157142D01*
X27656571Y-84233333D01*
X27656571Y-84309523D01*
X28189904Y-84690476D02*
X28151809Y-84614285D01*
X28113714Y-84576190D01*
X28037523Y-84538095D01*
X27808952Y-84538095D01*
X27732761Y-84576190D01*
X27694666Y-84614285D01*
X27656571Y-84690476D01*
X27656571Y-84804761D01*
X27694666Y-84880952D01*
X27732761Y-84919047D01*
X27808952Y-84957142D01*
X28037523Y-84957142D01*
X28113714Y-84919047D01*
X28151809Y-84880952D01*
X28189904Y-84804761D01*
X28189904Y-84690476D01*
X27656571Y-85223809D02*
X28189904Y-85376190D01*
X27808952Y-85528571D01*
X28189904Y-85680952D01*
X27656571Y-85833333D01*
X27466095Y-86100000D02*
X27428000Y-86138095D01*
X27389904Y-86214285D01*
X27389904Y-86404761D01*
X27428000Y-86480952D01*
X27466095Y-86519047D01*
X27542285Y-86557142D01*
X27618476Y-86557142D01*
X27732761Y-86519047D01*
X28189904Y-86061904D01*
X28189904Y-86557142D01*
X30719904Y-84080952D02*
X30186571Y-84080952D01*
X30338952Y-84080952D02*
X30262761Y-84119047D01*
X30224666Y-84157142D01*
X30186571Y-84233333D01*
X30186571Y-84309523D01*
X30719904Y-84690476D02*
X30681809Y-84614285D01*
X30643714Y-84576190D01*
X30567523Y-84538095D01*
X30338952Y-84538095D01*
X30262761Y-84576190D01*
X30224666Y-84614285D01*
X30186571Y-84690476D01*
X30186571Y-84804761D01*
X30224666Y-84880952D01*
X30262761Y-84919047D01*
X30338952Y-84957142D01*
X30567523Y-84957142D01*
X30643714Y-84919047D01*
X30681809Y-84880952D01*
X30719904Y-84804761D01*
X30719904Y-84690476D01*
X30186571Y-85223809D02*
X30719904Y-85376190D01*
X30338952Y-85528571D01*
X30719904Y-85680952D01*
X30186571Y-85833333D01*
X29919904Y-86061904D02*
X29919904Y-86557142D01*
X30224666Y-86290476D01*
X30224666Y-86404761D01*
X30262761Y-86480952D01*
X30300857Y-86519047D01*
X30377047Y-86557142D01*
X30567523Y-86557142D01*
X30643714Y-86519047D01*
X30681809Y-86480952D01*
X30719904Y-86404761D01*
X30719904Y-86176190D01*
X30681809Y-86100000D01*
X30643714Y-86061904D01*
X35711809Y-84358095D02*
X35749904Y-84281904D01*
X35749904Y-84129523D01*
X35711809Y-84053333D01*
X35673714Y-84015238D01*
X35597523Y-83977142D01*
X35368952Y-83977142D01*
X35292761Y-84015238D01*
X35254666Y-84053333D01*
X35216571Y-84129523D01*
X35216571Y-84281904D01*
X35254666Y-84358095D01*
X35749904Y-84815238D02*
X35711809Y-84739047D01*
X35673714Y-84700952D01*
X35597523Y-84662857D01*
X35368952Y-84662857D01*
X35292761Y-84700952D01*
X35254666Y-84739047D01*
X35216571Y-84815238D01*
X35216571Y-84929523D01*
X35254666Y-85005714D01*
X35292761Y-85043809D01*
X35368952Y-85081904D01*
X35597523Y-85081904D01*
X35673714Y-85043809D01*
X35711809Y-85005714D01*
X35749904Y-84929523D01*
X35749904Y-84815238D01*
X35749904Y-85539047D02*
X35711809Y-85462857D01*
X35635619Y-85424761D01*
X34949904Y-85424761D01*
X35749904Y-86262857D02*
X35749904Y-85805714D01*
X35749904Y-86034285D02*
X34949904Y-86034285D01*
X35064190Y-85958095D01*
X35140380Y-85881904D01*
X35178476Y-85805714D01*
D13*
%TO.C,D7*%
X45450000Y-41360000D02*
X44550000Y-40860000D01*
X47650000Y-41610000D02*
X47650000Y-40110000D01*
X42250000Y-40110000D02*
X42250000Y-41610000D01*
X44450000Y-40360000D02*
X44450000Y-41360000D01*
X47650000Y-40110000D02*
X42250000Y-40110000D01*
X45450000Y-40360000D02*
X45450000Y-41360000D01*
X42250000Y-41610000D02*
X47650000Y-41610000D01*
X44550000Y-40860000D02*
X45450000Y-40360000D01*
%TO.C,SW6*%
X30780000Y-56890000D02*
X30780000Y-61490000D01*
X21205000Y-59315000D02*
X20755000Y-59315000D01*
X30755000Y-56865000D02*
X28205000Y-56865000D01*
X33280000Y-50394000D02*
X33280000Y-46486000D01*
X22380000Y-52394000D02*
X25990000Y-52394000D01*
X33280000Y-46486000D02*
X24655000Y-46486000D01*
X30755000Y-61515000D02*
X26205000Y-61515000D01*
X22380000Y-48440000D02*
X22380000Y-52385000D01*
X26200000Y-60790000D02*
X26200000Y-61490000D01*
X21205000Y-54690000D02*
X21205000Y-58090000D01*
X33280000Y-50440000D02*
X28230000Y-50486000D01*
X25905000Y-54665000D02*
X21205000Y-54665000D01*
X24980000Y-59315000D02*
X21205000Y-59315000D01*
X21205000Y-58090000D02*
X20755000Y-58090000D01*
X20755000Y-58090000D02*
X20755000Y-59315000D01*
X28255000Y-50490000D02*
G75*
G03*
X25995000Y-52370000I-190000J-2070000D01*
G01*
X25910000Y-54690000D02*
G75*
G03*
X28280000Y-56860000I2270000J100000D01*
G01*
X24655000Y-46486000D02*
G75*
G03*
X22391000Y-48370000I-190000J-2074000D01*
G01*
X26200000Y-60740000D02*
G75*
G03*
X24980000Y-59320000I-1320000J100000D01*
G01*
%TO.C,SW11*%
X33290000Y-67940000D02*
X28240000Y-67986000D01*
X22390000Y-65940000D02*
X22390000Y-69885000D01*
X21215000Y-72190000D02*
X21215000Y-75590000D01*
X21215000Y-76815000D02*
X20765000Y-76815000D01*
X21215000Y-75590000D02*
X20765000Y-75590000D01*
X30790000Y-74390000D02*
X30790000Y-78990000D01*
X20765000Y-75590000D02*
X20765000Y-76815000D01*
X30765000Y-74365000D02*
X28215000Y-74365000D01*
X33290000Y-63986000D02*
X24665000Y-63986000D01*
X26210000Y-78290000D02*
X26210000Y-78990000D01*
X24990000Y-76815000D02*
X21215000Y-76815000D01*
X22390000Y-69894000D02*
X26000000Y-69894000D01*
X30765000Y-79015000D02*
X26215000Y-79015000D01*
X25915000Y-72165000D02*
X21215000Y-72165000D01*
X33290000Y-67894000D02*
X33290000Y-63986000D01*
X24665000Y-63986000D02*
G75*
G03*
X22401000Y-65870000I-190000J-2074000D01*
G01*
X25920000Y-72190000D02*
G75*
G03*
X28290000Y-74360000I2270000J100000D01*
G01*
X28265000Y-67990000D02*
G75*
G03*
X26005000Y-69870000I-190000J-2070000D01*
G01*
X26210000Y-78240000D02*
G75*
G03*
X24990000Y-76820000I-1320000J100000D01*
G01*
%TO.C,D6*%
X31750000Y-45000000D02*
X31750000Y-46000000D01*
X29550000Y-46250000D02*
X34950000Y-46250000D01*
X31850000Y-45500000D02*
X32750000Y-45000000D01*
X29550000Y-44750000D02*
X29550000Y-46250000D01*
X34950000Y-46250000D02*
X34950000Y-44750000D01*
X32750000Y-45000000D02*
X32750000Y-46000000D01*
X32750000Y-46000000D02*
X31850000Y-45500000D01*
X34950000Y-44750000D02*
X29550000Y-44750000D01*
%TO.C,SW9*%
X70315000Y-54600000D02*
X70315000Y-55825000D01*
X75760000Y-57300000D02*
X75760000Y-58000000D01*
X70765000Y-55825000D02*
X70315000Y-55825000D01*
X82840000Y-46950000D02*
X77790000Y-46996000D01*
X74540000Y-55825000D02*
X70765000Y-55825000D01*
X70765000Y-54600000D02*
X70315000Y-54600000D01*
X80340000Y-53400000D02*
X80340000Y-58000000D01*
X75465000Y-51175000D02*
X70765000Y-51175000D01*
X70765000Y-51200000D02*
X70765000Y-54600000D01*
X82840000Y-46904000D02*
X82840000Y-42996000D01*
X80315000Y-58025000D02*
X75765000Y-58025000D01*
X71940000Y-44950000D02*
X71940000Y-48895000D01*
X82840000Y-42996000D02*
X74215000Y-42996000D01*
X71940000Y-48904000D02*
X75550000Y-48904000D01*
X80315000Y-53375000D02*
X77765000Y-53375000D01*
X75760000Y-57250000D02*
G75*
G03*
X74540000Y-55830000I-1320000J100000D01*
G01*
X74215000Y-42996000D02*
G75*
G03*
X71951000Y-44880000I-190000J-2074000D01*
G01*
X77815000Y-47000000D02*
G75*
G03*
X75555000Y-48880000I-190000J-2070000D01*
G01*
X75470000Y-51200000D02*
G75*
G03*
X77840000Y-53370000I2270000J100000D01*
G01*
%TO.C,SW3*%
X53855000Y-32760000D02*
X53855000Y-33985000D01*
X55480000Y-27064000D02*
X59090000Y-27064000D01*
X66380000Y-25110000D02*
X61330000Y-25156000D01*
X59005000Y-29335000D02*
X54305000Y-29335000D01*
X63855000Y-36185000D02*
X59305000Y-36185000D01*
X66380000Y-25064000D02*
X66380000Y-21156000D01*
X54305000Y-29360000D02*
X54305000Y-32760000D01*
X55480000Y-23110000D02*
X55480000Y-27055000D01*
X59300000Y-35460000D02*
X59300000Y-36160000D01*
X54305000Y-33985000D02*
X53855000Y-33985000D01*
X63880000Y-31560000D02*
X63880000Y-36160000D01*
X66380000Y-21156000D02*
X57755000Y-21156000D01*
X58080000Y-33985000D02*
X54305000Y-33985000D01*
X54305000Y-32760000D02*
X53855000Y-32760000D01*
X63855000Y-31535000D02*
X61305000Y-31535000D01*
X57755000Y-21156000D02*
G75*
G03*
X55491000Y-23040000I-190000J-2074000D01*
G01*
X59010000Y-29360000D02*
G75*
G03*
X61380000Y-31530000I2270000J100000D01*
G01*
X59300000Y-35410000D02*
G75*
G03*
X58080000Y-33990000I-1320000J100000D01*
G01*
X61355000Y-25160000D02*
G75*
G03*
X59095000Y-27040000I-190000J-2070000D01*
G01*
%TO.C,D9*%
X77660000Y-41790000D02*
X78560000Y-41290000D01*
X75360000Y-42540000D02*
X80760000Y-42540000D01*
X75360000Y-41040000D02*
X75360000Y-42540000D01*
X78560000Y-42290000D02*
X77660000Y-41790000D01*
X77560000Y-41290000D02*
X77560000Y-42290000D01*
X78560000Y-41290000D02*
X78560000Y-42290000D01*
X80760000Y-41040000D02*
X75360000Y-41040000D01*
X80760000Y-42540000D02*
X80760000Y-41040000D01*
%TO.C,D16*%
X74770000Y-82130000D02*
X69370000Y-82130000D01*
X69370000Y-83630000D02*
X74770000Y-83630000D01*
X72570000Y-83380000D02*
X71670000Y-82880000D01*
X69370000Y-82130000D02*
X69370000Y-83630000D01*
X72570000Y-82380000D02*
X72570000Y-83380000D01*
X71670000Y-82880000D02*
X72570000Y-82380000D01*
X74770000Y-83630000D02*
X74770000Y-82130000D01*
X71570000Y-82380000D02*
X71570000Y-83380000D01*
%TO.C,D11*%
X31230000Y-62030000D02*
X25830000Y-62030000D01*
X25830000Y-63530000D02*
X31230000Y-63530000D01*
X31230000Y-63530000D02*
X31230000Y-62030000D01*
X25830000Y-62030000D02*
X25830000Y-63530000D01*
X28030000Y-62280000D02*
X28030000Y-63280000D01*
X29030000Y-63280000D02*
X28130000Y-62780000D01*
X28130000Y-62780000D02*
X29030000Y-62280000D01*
X29030000Y-62280000D02*
X29030000Y-63280000D01*
%TO.C,D14*%
X78620000Y-59750000D02*
X77720000Y-59250000D01*
X80820000Y-60000000D02*
X80820000Y-58500000D01*
X77620000Y-58750000D02*
X77620000Y-59750000D01*
X75420000Y-60000000D02*
X80820000Y-60000000D01*
X80820000Y-58500000D02*
X75420000Y-58500000D01*
X77720000Y-59250000D02*
X78620000Y-58750000D01*
X75420000Y-58500000D02*
X75420000Y-60000000D01*
X78620000Y-58750000D02*
X78620000Y-59750000D01*
%TO.C,D17*%
X87896395Y-84773665D02*
X93266813Y-85338118D01*
X90215003Y-83760475D02*
X90110475Y-84754997D01*
X88053187Y-83281882D02*
X87896395Y-84773665D01*
X91104997Y-84859525D02*
X90262191Y-84268189D01*
X91209525Y-83865003D02*
X91104997Y-84859525D01*
X90262191Y-84268189D02*
X91209525Y-83865003D01*
X93266813Y-85338118D02*
X93423605Y-83846335D01*
X93423605Y-83846335D02*
X88053187Y-83281882D01*
%TO.C,SW5*%
X92260000Y-43280000D02*
X92260000Y-43980000D01*
X96815000Y-44005000D02*
X92265000Y-44005000D01*
X91040000Y-41805000D02*
X87265000Y-41805000D01*
X99340000Y-32884000D02*
X99340000Y-28976000D01*
X91965000Y-37155000D02*
X87265000Y-37155000D01*
X99340000Y-32930000D02*
X94290000Y-32976000D01*
X87265000Y-40580000D02*
X86815000Y-40580000D01*
X96815000Y-39355000D02*
X94265000Y-39355000D01*
X86815000Y-40580000D02*
X86815000Y-41805000D01*
X87265000Y-37180000D02*
X87265000Y-40580000D01*
X88440000Y-30930000D02*
X88440000Y-34875000D01*
X87265000Y-41805000D02*
X86815000Y-41805000D01*
X96840000Y-39380000D02*
X96840000Y-43980000D01*
X99340000Y-28976000D02*
X90715000Y-28976000D01*
X88440000Y-34884000D02*
X92050000Y-34884000D01*
X94315000Y-32980000D02*
G75*
G03*
X92055000Y-34860000I-190000J-2070000D01*
G01*
X92260000Y-43230000D02*
G75*
G03*
X91040000Y-41810000I-1320000J100000D01*
G01*
X90715000Y-28976000D02*
G75*
G03*
X88451000Y-30860000I-190000J-2074000D01*
G01*
X91970000Y-37180000D02*
G75*
G03*
X94340000Y-39350000I2270000J100000D01*
G01*
%TO.C,SW15*%
X91020000Y-76805000D02*
X87245000Y-76805000D01*
X88420000Y-69884000D02*
X92030000Y-69884000D01*
X86795000Y-75580000D02*
X86795000Y-76805000D01*
X88420000Y-65930000D02*
X88420000Y-69875000D01*
X87245000Y-75580000D02*
X86795000Y-75580000D01*
X96795000Y-74355000D02*
X94245000Y-74355000D01*
X96820000Y-74380000D02*
X96820000Y-78980000D01*
X87245000Y-76805000D02*
X86795000Y-76805000D01*
X99320000Y-63976000D02*
X90695000Y-63976000D01*
X91945000Y-72155000D02*
X87245000Y-72155000D01*
X92240000Y-78280000D02*
X92240000Y-78980000D01*
X87245000Y-72180000D02*
X87245000Y-75580000D01*
X99320000Y-67884000D02*
X99320000Y-63976000D01*
X96795000Y-79005000D02*
X92245000Y-79005000D01*
X99320000Y-67930000D02*
X94270000Y-67976000D01*
X94295000Y-67980000D02*
G75*
G03*
X92035000Y-69860000I-190000J-2070000D01*
G01*
X90695000Y-63976000D02*
G75*
G03*
X88431000Y-65860000I-190000J-2074000D01*
G01*
X92240000Y-78230000D02*
G75*
G03*
X91020000Y-76810000I-1320000J100000D01*
G01*
X91950000Y-72180000D02*
G75*
G03*
X94320000Y-74350000I2270000J100000D01*
G01*
%TO.C,D13*%
X58840000Y-55570000D02*
X64240000Y-55570000D01*
X61140000Y-54820000D02*
X62040000Y-54320000D01*
X58840000Y-54070000D02*
X58840000Y-55570000D01*
X62040000Y-54320000D02*
X62040000Y-55320000D01*
X64240000Y-55570000D02*
X64240000Y-54070000D01*
X64240000Y-54070000D02*
X58840000Y-54070000D01*
X62040000Y-55320000D02*
X61140000Y-54820000D01*
X61040000Y-54320000D02*
X61040000Y-55320000D01*
%TO.C,SW7*%
X37765000Y-50300000D02*
X37765000Y-53700000D01*
X49840000Y-46004000D02*
X49840000Y-42096000D01*
X47340000Y-52500000D02*
X47340000Y-57100000D01*
X42465000Y-50275000D02*
X37765000Y-50275000D01*
X47315000Y-52475000D02*
X44765000Y-52475000D01*
X49840000Y-46050000D02*
X44790000Y-46096000D01*
X37765000Y-54925000D02*
X37315000Y-54925000D01*
X38940000Y-44050000D02*
X38940000Y-47995000D01*
X38940000Y-48004000D02*
X42550000Y-48004000D01*
X47315000Y-57125000D02*
X42765000Y-57125000D01*
X42760000Y-56400000D02*
X42760000Y-57100000D01*
X41540000Y-54925000D02*
X37765000Y-54925000D01*
X49840000Y-42096000D02*
X41215000Y-42096000D01*
X37315000Y-53700000D02*
X37315000Y-54925000D01*
X37765000Y-53700000D02*
X37315000Y-53700000D01*
X44815000Y-46100000D02*
G75*
G03*
X42555000Y-47980000I-190000J-2070000D01*
G01*
X42760000Y-56350000D02*
G75*
G03*
X41540000Y-54930000I-1320000J100000D01*
G01*
X42470000Y-50300000D02*
G75*
G03*
X44840000Y-52470000I2270000J100000D01*
G01*
X41215000Y-42096000D02*
G75*
G03*
X38951000Y-43980000I-190000J-2074000D01*
G01*
%TO.C,D1*%
X34330000Y-27380000D02*
X34330000Y-28380000D01*
X33330000Y-27380000D02*
X33330000Y-28380000D01*
X31130000Y-28630000D02*
X36530000Y-28630000D01*
X36530000Y-27130000D02*
X31130000Y-27130000D01*
X31130000Y-27130000D02*
X31130000Y-28630000D01*
X34330000Y-28380000D02*
X33430000Y-27880000D01*
X36530000Y-28630000D02*
X36530000Y-27130000D01*
X33430000Y-27880000D02*
X34330000Y-27380000D01*
%TO.C,SW16*%
X74466200Y-94495900D02*
X71916200Y-94495900D01*
X76991200Y-84116900D02*
X68366200Y-84116900D01*
X74466200Y-99145900D02*
X69916200Y-99145900D01*
X64916200Y-92320900D02*
X64916200Y-95720900D01*
X69616200Y-92295900D02*
X64916200Y-92295900D01*
X66091200Y-90024900D02*
X69701200Y-90024900D01*
X64466200Y-95720900D02*
X64466200Y-96945900D01*
X64916200Y-95720900D02*
X64466200Y-95720900D01*
X74491200Y-94520900D02*
X74491200Y-99120900D01*
X76991200Y-88070900D02*
X71941200Y-88116900D01*
X69911200Y-98420900D02*
X69911200Y-99120900D01*
X64916200Y-96945900D02*
X64466200Y-96945900D01*
X68691200Y-96945900D02*
X64916200Y-96945900D01*
X66091200Y-86070900D02*
X66091200Y-90015900D01*
X76991200Y-88024900D02*
X76991200Y-84116900D01*
X69911200Y-98370900D02*
G75*
G03*
X68691200Y-96950900I-1320000J100000D01*
G01*
X69621200Y-92320900D02*
G75*
G03*
X71991200Y-94490900I2270000J100000D01*
G01*
X71966200Y-88120900D02*
G75*
G03*
X69706200Y-90000900I-190000J-2070000D01*
G01*
X68366200Y-84116900D02*
G75*
G03*
X66102200Y-86000900I-190000J-2074000D01*
G01*
%TO.C,D18*%
X103096109Y-86515813D02*
X102854187Y-87486109D01*
X100051643Y-85499089D02*
X99688760Y-86954533D01*
X102854187Y-87486109D02*
X102101882Y-86783231D01*
X102101882Y-86783231D02*
X103096109Y-86515813D01*
X102125813Y-86273891D02*
X101883891Y-87244187D01*
X99688760Y-86954533D02*
X104928357Y-88260911D01*
X105291240Y-86805467D02*
X100051643Y-85499089D01*
X104928357Y-88260911D02*
X105291240Y-86805467D01*
%TO.C,D4*%
X78060000Y-23620000D02*
X78060000Y-24620000D01*
X80260000Y-24870000D02*
X80260000Y-23370000D01*
X77160000Y-24120000D02*
X78060000Y-23620000D01*
X74860000Y-24870000D02*
X80260000Y-24870000D01*
X78060000Y-24620000D02*
X77160000Y-24120000D01*
X80260000Y-23370000D02*
X74860000Y-23370000D01*
X77060000Y-23620000D02*
X77060000Y-24620000D01*
X74860000Y-23370000D02*
X74860000Y-24870000D01*
%TO.C,D10*%
X97190000Y-44600000D02*
X91790000Y-44600000D01*
X94990000Y-45850000D02*
X94090000Y-45350000D01*
X97190000Y-46100000D02*
X97190000Y-44600000D01*
X91790000Y-44600000D02*
X91790000Y-46100000D01*
X94090000Y-45350000D02*
X94990000Y-44850000D01*
X93990000Y-44850000D02*
X93990000Y-45850000D01*
X94990000Y-44850000D02*
X94990000Y-45850000D01*
X91790000Y-46100000D02*
X97190000Y-46100000D01*
%TO.C,SW18*%
X112037197Y-94475782D02*
X107126075Y-93298710D01*
X112048325Y-94431149D02*
X112993756Y-90639233D01*
X99292708Y-95678332D02*
X98470173Y-98977338D01*
X101944817Y-89898242D02*
X100990435Y-93726059D01*
X98470173Y-98977338D02*
X98033540Y-98868473D01*
X103859146Y-96791108D02*
X99298756Y-95654075D01*
X108032852Y-100099080D02*
X105558598Y-99482179D01*
X100988258Y-93734791D02*
X104491026Y-94608130D01*
X106907915Y-104610955D02*
X102493070Y-103510210D01*
X108051061Y-100129385D02*
X106938221Y-104592745D01*
X98033540Y-98868473D02*
X97737186Y-100057085D01*
X102663612Y-102805536D02*
X102494266Y-103484743D01*
X98173819Y-100165950D02*
X97737186Y-100057085D01*
X112993756Y-90639233D02*
X104624955Y-88552657D01*
X101836686Y-101079205D02*
X98173819Y-100165950D01*
X104624955Y-88552657D02*
G75*
G03*
X101972425Y-89832983I-686102J-1966428D01*
G01*
X107149365Y-93308640D02*
G75*
G03*
X104501683Y-94586052I-685135J-1962547D01*
G01*
X102675707Y-102757021D02*
G75*
G03*
X101835476Y-101084057I-1256598J416366D01*
G01*
X103857950Y-96816575D02*
G75*
G03*
X105632580Y-99495471I2226763J-452133D01*
G01*
%TO.C,J1*%
X110180307Y-82071851D02*
X104358533Y-80620320D01*
X107261595Y-68976771D02*
X113083370Y-70428302D01*
X104358533Y-80620320D02*
X107261595Y-68976771D01*
X113083370Y-70428302D02*
X110180307Y-82071851D01*
%TO.C,D3*%
X52480000Y-22610000D02*
X47080000Y-22610000D01*
X49380000Y-23360000D02*
X50280000Y-22860000D01*
X52480000Y-24110000D02*
X52480000Y-22610000D01*
X47080000Y-24110000D02*
X52480000Y-24110000D01*
X50280000Y-22860000D02*
X50280000Y-23860000D01*
X50280000Y-23860000D02*
X49380000Y-23360000D01*
X49280000Y-22860000D02*
X49280000Y-23860000D01*
X47080000Y-22610000D02*
X47080000Y-24110000D01*
%TO.C,SW8*%
X66290000Y-42494000D02*
X66290000Y-38586000D01*
X59210000Y-52890000D02*
X59210000Y-53590000D01*
X53765000Y-50190000D02*
X53765000Y-51415000D01*
X54215000Y-50190000D02*
X53765000Y-50190000D01*
X58915000Y-46765000D02*
X54215000Y-46765000D01*
X63765000Y-53615000D02*
X59215000Y-53615000D01*
X57990000Y-51415000D02*
X54215000Y-51415000D01*
X55390000Y-40540000D02*
X55390000Y-44485000D01*
X63765000Y-48965000D02*
X61215000Y-48965000D01*
X54215000Y-51415000D02*
X53765000Y-51415000D01*
X55390000Y-44494000D02*
X59000000Y-44494000D01*
X66290000Y-38586000D02*
X57665000Y-38586000D01*
X63790000Y-48990000D02*
X63790000Y-53590000D01*
X54215000Y-46790000D02*
X54215000Y-50190000D01*
X66290000Y-42540000D02*
X61240000Y-42586000D01*
X58920000Y-46790000D02*
G75*
G03*
X61290000Y-48960000I2270000J100000D01*
G01*
X57665000Y-38586000D02*
G75*
G03*
X55401000Y-40470000I-190000J-2074000D01*
G01*
X61265000Y-42590000D02*
G75*
G03*
X59005000Y-44470000I-190000J-2070000D01*
G01*
X59210000Y-52840000D02*
G75*
G03*
X57990000Y-51420000I-1320000J100000D01*
G01*
%TO.C,SW17*%
X81609169Y-97359150D02*
X81161634Y-97312112D01*
X83501174Y-90598885D02*
X87091398Y-90976233D01*
X83914479Y-86666545D02*
X83502115Y-90589934D01*
X86769479Y-93225907D02*
X82095227Y-92734623D01*
X90876891Y-100545345D02*
X86351816Y-100069740D01*
X91362948Y-95920818D02*
X88826917Y-95654270D01*
X86422627Y-99348189D02*
X86349457Y-100044355D01*
X94545711Y-89794949D02*
X89518567Y-89312828D01*
X94550520Y-89749201D02*
X94959017Y-85862610D01*
X81289682Y-96093823D02*
X81161634Y-97312112D01*
X81737217Y-96140861D02*
X81289682Y-96093823D01*
X85363489Y-97753745D02*
X81609169Y-97359150D01*
X91385198Y-95948294D02*
X90904367Y-100523095D01*
X94959017Y-85862610D02*
X86381265Y-84961052D01*
X82092613Y-92759486D02*
X81737217Y-96140861D01*
X86771839Y-93251293D02*
G75*
G03*
X88902029Y-95657137I2268017J-137827D01*
G01*
X89543012Y-89319420D02*
G75*
G03*
X87098879Y-90952887I-405333J-2038800D01*
G01*
X86427853Y-99298463D02*
G75*
G03*
X85362967Y-97758717I-1302316J237430D01*
G01*
X86381265Y-84961052D02*
G75*
G03*
X83932736Y-86598078I-405751J-2042778D01*
G01*
D14*
%TO.C,U1*%
X21598000Y-83810000D02*
X39088000Y-83810000D01*
X39088000Y-83810000D02*
X39088000Y-81840000D01*
X39088000Y-81840000D02*
X21598000Y-81840000D01*
X21598000Y-81840000D02*
X21598000Y-83810000D01*
X21708000Y-98990000D02*
X39198000Y-98990000D01*
X39198000Y-98990000D02*
X39198000Y-97020000D01*
X39198000Y-97020000D02*
X21708000Y-97020000D01*
X21708000Y-97020000D02*
X21708000Y-98990000D01*
D13*
%TO.C,SW10*%
X87255000Y-54690000D02*
X87255000Y-58090000D01*
X88430000Y-52394000D02*
X92040000Y-52394000D01*
X86805000Y-58090000D02*
X86805000Y-59315000D01*
X87255000Y-59315000D02*
X86805000Y-59315000D01*
X96805000Y-56865000D02*
X94255000Y-56865000D01*
X92250000Y-60790000D02*
X92250000Y-61490000D01*
X87255000Y-58090000D02*
X86805000Y-58090000D01*
X99330000Y-50440000D02*
X94280000Y-50486000D01*
X96830000Y-56890000D02*
X96830000Y-61490000D01*
X99330000Y-50394000D02*
X99330000Y-46486000D01*
X88430000Y-48440000D02*
X88430000Y-52385000D01*
X96805000Y-61515000D02*
X92255000Y-61515000D01*
X99330000Y-46486000D02*
X90705000Y-46486000D01*
X91030000Y-59315000D02*
X87255000Y-59315000D01*
X91955000Y-54665000D02*
X87255000Y-54665000D01*
X92250000Y-60740000D02*
G75*
G03*
X91030000Y-59320000I-1320000J100000D01*
G01*
X91960000Y-54690000D02*
G75*
G03*
X94330000Y-56860000I2270000J100000D01*
G01*
X94305000Y-50490000D02*
G75*
G03*
X92045000Y-52370000I-190000J-2070000D01*
G01*
X90705000Y-46486000D02*
G75*
G03*
X88441000Y-48370000I-190000J-2074000D01*
G01*
%TO.C,D15*%
X91910000Y-62090000D02*
X91910000Y-63590000D01*
X95110000Y-63340000D02*
X94210000Y-62840000D01*
X94210000Y-62840000D02*
X95110000Y-62340000D01*
X91910000Y-63590000D02*
X97310000Y-63590000D01*
X94110000Y-62340000D02*
X94110000Y-63340000D01*
X97310000Y-63590000D02*
X97310000Y-62090000D01*
X95110000Y-62340000D02*
X95110000Y-63340000D01*
X97310000Y-62090000D02*
X91910000Y-62090000D01*
%TO.C,SW2*%
X47310000Y-35040000D02*
X47310000Y-39640000D01*
X38910000Y-26590000D02*
X38910000Y-30535000D01*
X42730000Y-38940000D02*
X42730000Y-39640000D01*
X49810000Y-28590000D02*
X44760000Y-28636000D01*
X47285000Y-39665000D02*
X42735000Y-39665000D01*
X47285000Y-35015000D02*
X44735000Y-35015000D01*
X38910000Y-30544000D02*
X42520000Y-30544000D01*
X49810000Y-28544000D02*
X49810000Y-24636000D01*
X49810000Y-24636000D02*
X41185000Y-24636000D01*
X37285000Y-36240000D02*
X37285000Y-37465000D01*
X41510000Y-37465000D02*
X37735000Y-37465000D01*
X37735000Y-37465000D02*
X37285000Y-37465000D01*
X37735000Y-32840000D02*
X37735000Y-36240000D01*
X37735000Y-36240000D02*
X37285000Y-36240000D01*
X42435000Y-32815000D02*
X37735000Y-32815000D01*
X44785000Y-28640000D02*
G75*
G03*
X42525000Y-30520000I-190000J-2070000D01*
G01*
X41185000Y-24636000D02*
G75*
G03*
X38921000Y-26520000I-190000J-2074000D01*
G01*
X42440000Y-32840000D02*
G75*
G03*
X44810000Y-35010000I2270000J100000D01*
G01*
X42730000Y-38890000D02*
G75*
G03*
X41510000Y-37470000I-1320000J100000D01*
G01*
%TO.C,SW13*%
X55420000Y-62014000D02*
X59030000Y-62014000D01*
X63795000Y-66485000D02*
X61245000Y-66485000D01*
X63820000Y-66510000D02*
X63820000Y-71110000D01*
X55420000Y-58060000D02*
X55420000Y-62005000D01*
X66320000Y-60014000D02*
X66320000Y-56106000D01*
X53795000Y-67710000D02*
X53795000Y-68935000D01*
X63795000Y-71135000D02*
X59245000Y-71135000D01*
X66320000Y-60060000D02*
X61270000Y-60106000D01*
X58945000Y-64285000D02*
X54245000Y-64285000D01*
X54245000Y-64310000D02*
X54245000Y-67710000D01*
X66320000Y-56106000D02*
X57695000Y-56106000D01*
X54245000Y-68935000D02*
X53795000Y-68935000D01*
X59240000Y-70410000D02*
X59240000Y-71110000D01*
X54245000Y-67710000D02*
X53795000Y-67710000D01*
X58020000Y-68935000D02*
X54245000Y-68935000D01*
X58950000Y-64310000D02*
G75*
G03*
X61320000Y-66480000I2270000J100000D01*
G01*
X61295000Y-60110000D02*
G75*
G03*
X59035000Y-61990000I-190000J-2070000D01*
G01*
X57695000Y-56106000D02*
G75*
G03*
X55431000Y-57990000I-190000J-2074000D01*
G01*
X59240000Y-70360000D02*
G75*
G03*
X58020000Y-68940000I-1320000J100000D01*
G01*
%TO.C,SW12*%
X37765000Y-72415000D02*
X37315000Y-72415000D01*
X38940000Y-65494000D02*
X42550000Y-65494000D01*
X49840000Y-59586000D02*
X41215000Y-59586000D01*
X37765000Y-67790000D02*
X37765000Y-71190000D01*
X47315000Y-69965000D02*
X44765000Y-69965000D01*
X37315000Y-71190000D02*
X37315000Y-72415000D01*
X47315000Y-74615000D02*
X42765000Y-74615000D01*
X49840000Y-63540000D02*
X44790000Y-63586000D01*
X47340000Y-69990000D02*
X47340000Y-74590000D01*
X41540000Y-72415000D02*
X37765000Y-72415000D01*
X38940000Y-61540000D02*
X38940000Y-65485000D01*
X42760000Y-73890000D02*
X42760000Y-74590000D01*
X49840000Y-63494000D02*
X49840000Y-59586000D01*
X42465000Y-67765000D02*
X37765000Y-67765000D01*
X37765000Y-71190000D02*
X37315000Y-71190000D01*
X42470000Y-67790000D02*
G75*
G03*
X44840000Y-69960000I2270000J100000D01*
G01*
X44815000Y-63590000D02*
G75*
G03*
X42555000Y-65470000I-190000J-2070000D01*
G01*
X41215000Y-59586000D02*
G75*
G03*
X38951000Y-61470000I-190000J-2074000D01*
G01*
X42760000Y-73840000D02*
G75*
G03*
X41540000Y-72420000I-1320000J100000D01*
G01*
%TO.C,SW14*%
X70755000Y-73325000D02*
X70305000Y-73325000D01*
X75455000Y-68675000D02*
X70755000Y-68675000D01*
X80330000Y-70900000D02*
X80330000Y-75500000D01*
X82830000Y-64450000D02*
X77780000Y-64496000D01*
X80305000Y-75525000D02*
X75755000Y-75525000D01*
X75750000Y-74800000D02*
X75750000Y-75500000D01*
X80305000Y-70875000D02*
X77755000Y-70875000D01*
X74530000Y-73325000D02*
X70755000Y-73325000D01*
X82830000Y-60496000D02*
X74205000Y-60496000D01*
X71930000Y-66404000D02*
X75540000Y-66404000D01*
X71930000Y-62450000D02*
X71930000Y-66395000D01*
X70305000Y-72100000D02*
X70305000Y-73325000D01*
X70755000Y-68700000D02*
X70755000Y-72100000D01*
X70755000Y-72100000D02*
X70305000Y-72100000D01*
X82830000Y-64404000D02*
X82830000Y-60496000D01*
X75460000Y-68700000D02*
G75*
G03*
X77830000Y-70870000I2270000J100000D01*
G01*
X74205000Y-60496000D02*
G75*
G03*
X71941000Y-62380000I-190000J-2074000D01*
G01*
X75750000Y-74750000D02*
G75*
G03*
X74530000Y-73330000I-1320000J100000D01*
G01*
X77805000Y-64500000D02*
G75*
G03*
X75545000Y-66380000I-190000J-2070000D01*
G01*
%TO.C,SW1*%
X24980000Y-41815000D02*
X21205000Y-41815000D01*
X33280000Y-32940000D02*
X28230000Y-32986000D01*
X30755000Y-44015000D02*
X26205000Y-44015000D01*
X21205000Y-40590000D02*
X20755000Y-40590000D01*
X25905000Y-37165000D02*
X21205000Y-37165000D01*
X21205000Y-41815000D02*
X20755000Y-41815000D01*
X21205000Y-37190000D02*
X21205000Y-40590000D01*
X33280000Y-32894000D02*
X33280000Y-28986000D01*
X20755000Y-40590000D02*
X20755000Y-41815000D01*
X30755000Y-39365000D02*
X28205000Y-39365000D01*
X22380000Y-30940000D02*
X22380000Y-34885000D01*
X22380000Y-34894000D02*
X25990000Y-34894000D01*
X33280000Y-28986000D02*
X24655000Y-28986000D01*
X26200000Y-43290000D02*
X26200000Y-43990000D01*
X30780000Y-39390000D02*
X30780000Y-43990000D01*
X28255000Y-32990000D02*
G75*
G03*
X25995000Y-34870000I-190000J-2070000D01*
G01*
X26200000Y-43240000D02*
G75*
G03*
X24980000Y-41820000I-1320000J100000D01*
G01*
X24655000Y-28986000D02*
G75*
G03*
X22391000Y-30870000I-190000J-2074000D01*
G01*
X25910000Y-37190000D02*
G75*
G03*
X28280000Y-39360000I2270000J100000D01*
G01*
%TO.C,D5*%
X88340000Y-27670000D02*
X89240000Y-27170000D01*
X91440000Y-28420000D02*
X91440000Y-26920000D01*
X89240000Y-28170000D02*
X88340000Y-27670000D01*
X89240000Y-27170000D02*
X89240000Y-28170000D01*
X91440000Y-26920000D02*
X86040000Y-26920000D01*
X86040000Y-26920000D02*
X86040000Y-28420000D01*
X86040000Y-28420000D02*
X91440000Y-28420000D01*
X88240000Y-27170000D02*
X88240000Y-28170000D01*
%TO.C,D8*%
X58840000Y-36630000D02*
X58840000Y-38130000D01*
X61140000Y-37380000D02*
X62040000Y-36880000D01*
X62040000Y-37880000D02*
X61140000Y-37380000D01*
X61040000Y-36880000D02*
X61040000Y-37880000D01*
X64240000Y-38130000D02*
X64240000Y-36630000D01*
X64240000Y-36630000D02*
X58840000Y-36630000D01*
X62040000Y-36880000D02*
X62040000Y-37880000D01*
X58840000Y-38130000D02*
X64240000Y-38130000D01*
%TO.C,SW4*%
X81840000Y-25116000D02*
X73215000Y-25116000D01*
X69765000Y-36720000D02*
X69315000Y-36720000D01*
X79340000Y-35520000D02*
X79340000Y-40120000D01*
X79315000Y-40145000D02*
X74765000Y-40145000D01*
X81840000Y-29024000D02*
X81840000Y-25116000D01*
X81840000Y-29070000D02*
X76790000Y-29116000D01*
X74760000Y-39420000D02*
X74760000Y-40120000D01*
X69765000Y-37945000D02*
X69315000Y-37945000D01*
X69765000Y-33320000D02*
X69765000Y-36720000D01*
X79315000Y-35495000D02*
X76765000Y-35495000D01*
X73540000Y-37945000D02*
X69765000Y-37945000D01*
X74465000Y-33295000D02*
X69765000Y-33295000D01*
X69315000Y-36720000D02*
X69315000Y-37945000D01*
X70940000Y-31024000D02*
X74550000Y-31024000D01*
X70940000Y-27070000D02*
X70940000Y-31015000D01*
X74760000Y-39370000D02*
G75*
G03*
X73540000Y-37950000I-1320000J100000D01*
G01*
X76815000Y-29120000D02*
G75*
G03*
X74555000Y-31000000I-190000J-2070000D01*
G01*
X73215000Y-25116000D02*
G75*
G03*
X70951000Y-27000000I-190000J-2074000D01*
G01*
X74470000Y-33320000D02*
G75*
G03*
X76840000Y-35490000I2270000J100000D01*
G01*
%TO.C,D2*%
X41260000Y-22950000D02*
X41260000Y-23950000D01*
X38060000Y-22700000D02*
X38060000Y-24200000D01*
X38060000Y-24200000D02*
X43460000Y-24200000D01*
X43460000Y-24200000D02*
X43460000Y-22700000D01*
X40260000Y-22950000D02*
X40260000Y-23950000D01*
X40360000Y-23450000D02*
X41260000Y-22950000D01*
X43460000Y-22700000D02*
X38060000Y-22700000D01*
X41260000Y-23950000D02*
X40360000Y-23450000D01*
%TO.C,D12*%
X45670000Y-57870000D02*
X45670000Y-58870000D01*
X44770000Y-58370000D02*
X45670000Y-57870000D01*
X44670000Y-57870000D02*
X44670000Y-58870000D01*
X47870000Y-59120000D02*
X47870000Y-57620000D01*
X42470000Y-57620000D02*
X42470000Y-59120000D01*
X42470000Y-59120000D02*
X47870000Y-59120000D01*
X45670000Y-58870000D02*
X44770000Y-58370000D01*
X47870000Y-57620000D02*
X42470000Y-57620000D01*
%TD*%
D15*
%TO.C,U1*%
X25228000Y-98020000D03*
X22688000Y-98020000D03*
%TD*%
D16*
X37197400Y-23049800D03*
X77061700Y-23319700D03*
X26679539Y-39433123D03*
X35863300Y-28959100D03*
X43995000Y-23895000D03*
X43400000Y-34770000D03*
X52647200Y-21919800D03*
X63345000Y-30925000D03*
X80742650Y-24857350D03*
X75750000Y-35200000D03*
X92750000Y-39190000D03*
X95176600Y-28867700D03*
X34457800Y-44415600D03*
X27060000Y-56510000D03*
X43550000Y-52310000D03*
X48322650Y-41417350D03*
X64860200Y-37579400D03*
X59950000Y-48980000D03*
X77740000Y-53250000D03*
X81403500Y-41906600D03*
X97575000Y-45405000D03*
X92820000Y-56860000D03*
X79690500Y-40687200D03*
X39199700Y-41016300D03*
X42051700Y-100542800D03*
X37667200Y-62242400D03*
X29730000Y-74390000D03*
X64080000Y-32254400D03*
X38800000Y-74540000D03*
X58227200Y-37380000D03*
X29195700Y-45536700D03*
X27043630Y-73713788D03*
X32200500Y-63744800D03*
X49433900Y-59682500D03*
X46260000Y-69540000D03*
X65425800Y-55955400D03*
X62610000Y-66120000D03*
X79870000Y-70730000D03*
X81433500Y-59745600D03*
X98785700Y-72305000D03*
X74405000Y-94565000D03*
X76170200Y-84134600D03*
X93479000Y-85231000D03*
X87220000Y-95820000D03*
X96902900Y-92943700D03*
X104080000Y-99050000D03*
X113930000Y-95090000D03*
X105610000Y-87330000D03*
X27768000Y-86081400D03*
X36215500Y-77600000D03*
X76060800Y-58165500D03*
X27252400Y-63866800D03*
X39685900Y-59122500D03*
X42144300Y-58731700D03*
X91255800Y-63039400D03*
X90213600Y-82805600D03*
X87581000Y-84493000D03*
X100262300Y-87691500D03*
X30207500Y-85992300D03*
X72070000Y-82773800D03*
X99398600Y-82805600D03*
X99830900Y-81276800D03*
X74720000Y-42460000D03*
X56320000Y-35800000D03*
X89500000Y-45170000D03*
X20670000Y-53540000D03*
X32980000Y-90040000D03*
X67280000Y-37820000D03*
X83780000Y-82740000D03*
X49980000Y-73580000D03*
X99890000Y-44010000D03*
X51690000Y-38420000D03*
X91610000Y-36150000D03*
X75660000Y-69210000D03*
X90020000Y-41880000D03*
X81695624Y-98557579D03*
X71420000Y-41870000D03*
X73660000Y-40510000D03*
X47970000Y-31760000D03*
X20970000Y-79670000D03*
X29510000Y-78980000D03*
X21690000Y-62840000D03*
X84100000Y-57200000D03*
X94380000Y-47920000D03*
X58660000Y-29790000D03*
X38390000Y-77840000D03*
X41930000Y-33120000D03*
X75960000Y-77170000D03*
X24510000Y-45160000D03*
X85590000Y-41380000D03*
X52720000Y-43340000D03*
X86650000Y-46760000D03*
X23570000Y-60290000D03*
X36660000Y-48300000D03*
X71280000Y-58560000D03*
X65750000Y-82730000D03*
X85980802Y-61397385D03*
X37520000Y-43180000D03*
X91580000Y-55250000D03*
X24090000Y-63300000D03*
X58010000Y-64200000D03*
X45480000Y-88940000D03*
X66680000Y-69660000D03*
X55200000Y-53770000D03*
X52070000Y-59380000D03*
X67740000Y-53960000D03*
X50520000Y-21520000D03*
X45510000Y-83430000D03*
X36630000Y-88780000D03*
X89070000Y-62500000D03*
X86390000Y-93420000D03*
X83715171Y-39032033D03*
X41980000Y-67530000D03*
X53430000Y-56390000D03*
X22011149Y-45000488D03*
X79640000Y-21210000D03*
X22590000Y-77720000D03*
X100110000Y-61670000D03*
X61410000Y-36080000D03*
X21251900Y-30710000D03*
X38140000Y-48028500D03*
X53316000Y-22880000D03*
X56810800Y-38219200D03*
X67353000Y-84222900D03*
X56401100Y-53115400D03*
X81166300Y-86717500D03*
X69835700Y-26966800D03*
X71130000Y-56818100D03*
X40525300Y-78519500D03*
X99759100Y-89465000D03*
X88101400Y-46595400D03*
X87699800Y-33180200D03*
X90090000Y-63070000D03*
X32290000Y-50750000D03*
X24670000Y-50750000D03*
X33560000Y-53290000D03*
X33480000Y-56990000D03*
X22980000Y-53290000D03*
X28480000Y-53290000D03*
X31020000Y-48210000D03*
X23480000Y-56990000D03*
X25940000Y-48210000D03*
X23400000Y-53290000D03*
X28480000Y-59190000D03*
X33980000Y-53290000D03*
X33490000Y-74490000D03*
X25950000Y-65710000D03*
X23410000Y-70790000D03*
X32300000Y-68250000D03*
X23490000Y-74490000D03*
X33570000Y-70790000D03*
X33990000Y-70790000D03*
X28490000Y-76690000D03*
X24680000Y-68250000D03*
X31030000Y-65710000D03*
X22990000Y-70790000D03*
X28490000Y-70790000D03*
X75500000Y-44720000D03*
X72960000Y-49800000D03*
X78040000Y-49800000D03*
X83540000Y-49800000D03*
X83120000Y-49800000D03*
X81850000Y-47260000D03*
X83040000Y-53500000D03*
X73040000Y-53500000D03*
X80580000Y-44720000D03*
X74230000Y-47260000D03*
X78040000Y-55700000D03*
X72540000Y-49800000D03*
X64120000Y-22880000D03*
X66580000Y-31660000D03*
X65390000Y-25420000D03*
X66660000Y-27960000D03*
X61580000Y-27960000D03*
X59040000Y-22880000D03*
X57770000Y-25420000D03*
X61580000Y-33860000D03*
X56500000Y-27960000D03*
X67080000Y-27960000D03*
X56580000Y-31660000D03*
X56080000Y-27960000D03*
X97080000Y-30700000D03*
X99620000Y-35780000D03*
X89540000Y-39480000D03*
X94540000Y-35780000D03*
X98350000Y-33240000D03*
X89040000Y-35780000D03*
X90730000Y-33240000D03*
X100040000Y-35780000D03*
X94540000Y-41680000D03*
X99540000Y-39480000D03*
X92000000Y-30700000D03*
X89460000Y-35780000D03*
X91980000Y-65700000D03*
X89440000Y-70780000D03*
X98330000Y-68240000D03*
X89020000Y-70780000D03*
X94520000Y-70780000D03*
X100020000Y-70780000D03*
X94520000Y-76680000D03*
X99600000Y-70780000D03*
X90710000Y-68240000D03*
X97060000Y-65700000D03*
X99520000Y-74480000D03*
X89520000Y-74480000D03*
X39960000Y-48900000D03*
X48850000Y-46360000D03*
X47580000Y-43820000D03*
X50540000Y-48900000D03*
X41230000Y-46360000D03*
X40040000Y-52600000D03*
X50120000Y-48900000D03*
X45040000Y-48900000D03*
X50040000Y-52600000D03*
X42500000Y-43820000D03*
X39540000Y-48900000D03*
X45040000Y-54800000D03*
X109130000Y-86360000D03*
X67191200Y-94620900D03*
X77271200Y-90920900D03*
X67111200Y-90920900D03*
X77191200Y-94620900D03*
X66691200Y-90920900D03*
X74731200Y-85840900D03*
X72191200Y-96820900D03*
X72191200Y-90920900D03*
X68381200Y-88380900D03*
X76001200Y-88380900D03*
X69651200Y-85840900D03*
X77691200Y-90920900D03*
X51500000Y-96760000D03*
X112026926Y-97410470D03*
X103607955Y-92693626D03*
X111619402Y-97308863D03*
X105454712Y-90536316D03*
X101761198Y-94850937D03*
X110646668Y-100879604D03*
X111001608Y-94537071D03*
X101353674Y-94749330D03*
X100943710Y-98460385D03*
X110383814Y-91765279D03*
X106690300Y-96079900D03*
X105262961Y-101804645D03*
X111507617Y-71581344D03*
X109814164Y-78373414D03*
X109809600Y-71157980D03*
X108116146Y-77950050D03*
D17*
X109355425Y-81660062D03*
X106978201Y-81067354D03*
X113109779Y-73835912D03*
X107336519Y-72396477D03*
X112384013Y-76746799D03*
X106610754Y-75307364D03*
X111416326Y-80627982D03*
X105643066Y-79188547D03*
D16*
X66990000Y-45390000D03*
X66490000Y-49090000D03*
X58950000Y-40310000D03*
X57680000Y-42850000D03*
X55990000Y-45390000D03*
X61490000Y-51290000D03*
X56490000Y-49090000D03*
X56410000Y-45390000D03*
X66570000Y-45390000D03*
X65300000Y-42850000D03*
X61490000Y-45390000D03*
X64030000Y-40310000D03*
X94500000Y-25740000D03*
X94943970Y-92702507D03*
X92531190Y-87340931D03*
X88857382Y-97995279D03*
X94526271Y-92658605D03*
X84114735Y-95284689D03*
X84421929Y-91596595D03*
X89474100Y-92127600D03*
X87479019Y-86809926D03*
X93528731Y-89999768D03*
X94059954Y-96329973D03*
X84004230Y-91552693D03*
X85950474Y-89203261D03*
X23987000Y-99417500D03*
X22688000Y-82785000D03*
X25228000Y-82785000D03*
X26527000Y-99417500D03*
X29067000Y-99417500D03*
X27768000Y-82785000D03*
X31607000Y-99417500D03*
X30308000Y-82785000D03*
X34147000Y-99417500D03*
X32848000Y-82785000D03*
X36687000Y-99417500D03*
X35388000Y-82785000D03*
X39227000Y-99417500D03*
X37928000Y-82785000D03*
X37928000Y-98020000D03*
X39227000Y-84182500D03*
X36687000Y-84182500D03*
X35388000Y-98020000D03*
X34147000Y-84182500D03*
X32848000Y-98020000D03*
X30308000Y-98020000D03*
X31607000Y-84182500D03*
X27768000Y-98020000D03*
X29067000Y-84182500D03*
X25228000Y-98020000D03*
X26527000Y-84182500D03*
X23987000Y-84182500D03*
X22688000Y-98020000D03*
X91990000Y-48210000D03*
X94530000Y-59190000D03*
X90720000Y-50750000D03*
X89530000Y-56990000D03*
X89030000Y-53290000D03*
X100030000Y-53290000D03*
X99530000Y-56990000D03*
X94530000Y-53290000D03*
X99610000Y-53290000D03*
X97070000Y-48210000D03*
X89450000Y-53290000D03*
X98340000Y-50750000D03*
X45010000Y-37340000D03*
X39930000Y-31440000D03*
X47550000Y-26360000D03*
X50090000Y-31440000D03*
X50510000Y-31440000D03*
X40010000Y-35140000D03*
X42470000Y-26360000D03*
X39510000Y-31440000D03*
X41200000Y-28900000D03*
X45010000Y-31440000D03*
X48820000Y-28900000D03*
X50010000Y-35140000D03*
X61520000Y-62910000D03*
X61520000Y-68810000D03*
X56440000Y-62910000D03*
X57710000Y-60370000D03*
X65330000Y-60370000D03*
X66600000Y-62910000D03*
X66520000Y-66610000D03*
X56520000Y-66610000D03*
X56020000Y-62910000D03*
X64060000Y-57830000D03*
X58980000Y-57830000D03*
X67020000Y-62910000D03*
X28520000Y-25760000D03*
X48850000Y-63850000D03*
X50540000Y-66390000D03*
X45040000Y-72290000D03*
X45040000Y-66390000D03*
X50040000Y-70090000D03*
X50120000Y-66390000D03*
X39540000Y-66390000D03*
X47580000Y-61310000D03*
X41230000Y-63850000D03*
X40040000Y-70090000D03*
X39960000Y-66390000D03*
X42500000Y-61310000D03*
X72530000Y-67300000D03*
X83110000Y-67300000D03*
X81840000Y-64760000D03*
X83030000Y-71000000D03*
X80570000Y-62220000D03*
X73030000Y-71000000D03*
X75490000Y-62220000D03*
X78030000Y-73200000D03*
X83530000Y-67300000D03*
X74220000Y-64760000D03*
X72950000Y-67300000D03*
X78030000Y-67300000D03*
X22980000Y-35790000D03*
X32290000Y-33250000D03*
X33480000Y-39490000D03*
X28480000Y-41690000D03*
X33560000Y-35790000D03*
X23400000Y-35790000D03*
X33980000Y-35790000D03*
X23480000Y-39490000D03*
X25940000Y-30710000D03*
X31020000Y-30710000D03*
X24670000Y-33250000D03*
X28480000Y-35790000D03*
X73230000Y-29380000D03*
X71960000Y-31920000D03*
X77040000Y-37820000D03*
X80850000Y-29380000D03*
X74500000Y-26840000D03*
X82040000Y-35620000D03*
X72040000Y-35620000D03*
X71540000Y-31920000D03*
X79580000Y-26840000D03*
X77040000Y-31920000D03*
X82120000Y-31920000D03*
X82540000Y-31920000D03*
%LPC*%
D18*
%TO.C,D7*%
X43175000Y-40860000D03*
X46725000Y-40860000D03*
%TD*%
D19*
%TO.C,SW6*%
X32290000Y-50750000D03*
X24670000Y-50750000D03*
D20*
X33560000Y-53290000D03*
D19*
X33480000Y-56990000D03*
D21*
X22980000Y-53290000D03*
D22*
X28480000Y-53290000D03*
D19*
X31020000Y-48210000D03*
X23480000Y-56990000D03*
X25940000Y-48210000D03*
D20*
X23400000Y-53290000D03*
D19*
X28480000Y-59190000D03*
D21*
X33980000Y-53290000D03*
D23*
X21580000Y-50750000D03*
D24*
X20540000Y-56990000D03*
D23*
X34080000Y-48210000D03*
D24*
X31280000Y-59190000D03*
%TD*%
D19*
%TO.C,SW11*%
X33490000Y-74490000D03*
X25950000Y-65710000D03*
D20*
X23410000Y-70790000D03*
D19*
X32300000Y-68250000D03*
X23490000Y-74490000D03*
D20*
X33570000Y-70790000D03*
D21*
X33990000Y-70790000D03*
D19*
X28490000Y-76690000D03*
X24680000Y-68250000D03*
X31030000Y-65710000D03*
D21*
X22990000Y-70790000D03*
D22*
X28490000Y-70790000D03*
D23*
X21590000Y-68250000D03*
D24*
X20640000Y-74490000D03*
D23*
X34090000Y-65710000D03*
D24*
X31290000Y-76690000D03*
%TD*%
D18*
%TO.C,D6*%
X30475000Y-45500000D03*
X34025000Y-45500000D03*
%TD*%
D19*
%TO.C,SW9*%
X75500000Y-44720000D03*
D20*
X72960000Y-49800000D03*
D22*
X78040000Y-49800000D03*
D21*
X83540000Y-49800000D03*
D20*
X83120000Y-49800000D03*
D19*
X81850000Y-47260000D03*
X83040000Y-53500000D03*
X73040000Y-53500000D03*
X80580000Y-44720000D03*
X74230000Y-47260000D03*
X78040000Y-55700000D03*
D21*
X72540000Y-49800000D03*
D23*
X71140000Y-47260000D03*
X69940000Y-53500000D03*
X83640000Y-44720000D03*
D24*
X80840000Y-55700000D03*
%TD*%
D19*
%TO.C,SW3*%
X64120000Y-22880000D03*
X66580000Y-31660000D03*
X65390000Y-25420000D03*
D20*
X66660000Y-27960000D03*
D22*
X61580000Y-27960000D03*
D19*
X59040000Y-22880000D03*
X57770000Y-25420000D03*
X61580000Y-33860000D03*
D20*
X56500000Y-27960000D03*
D21*
X67080000Y-27960000D03*
D19*
X56580000Y-31660000D03*
D21*
X56080000Y-27960000D03*
D23*
X54680000Y-25420000D03*
X53480000Y-31660000D03*
D24*
X64380000Y-33860000D03*
D23*
X67180000Y-22880000D03*
%TD*%
D18*
%TO.C,D9*%
X76285000Y-41790000D03*
X79835000Y-41790000D03*
%TD*%
%TO.C,D16*%
X70295000Y-82880000D03*
X73845000Y-82880000D03*
%TD*%
%TO.C,D11*%
X26755000Y-62780000D03*
X30305000Y-62780000D03*
%TD*%
%TO.C,D14*%
X76345000Y-59250000D03*
X79895000Y-59250000D03*
%TD*%
D25*
%TO.C,D17*%
X88894724Y-84124462D03*
X92425276Y-84495538D03*
%TD*%
D19*
%TO.C,SW5*%
X97080000Y-30700000D03*
D20*
X99620000Y-35780000D03*
D19*
X89540000Y-39480000D03*
D22*
X94540000Y-35780000D03*
D19*
X98350000Y-33240000D03*
D21*
X89040000Y-35780000D03*
D19*
X90730000Y-33240000D03*
D21*
X100040000Y-35780000D03*
D19*
X94540000Y-41680000D03*
X99540000Y-39480000D03*
X92000000Y-30700000D03*
D20*
X89460000Y-35780000D03*
D23*
X86440000Y-39480000D03*
X87640000Y-33240000D03*
D24*
X97340000Y-41680000D03*
D23*
X100140000Y-30700000D03*
%TD*%
D19*
%TO.C,SW15*%
X91980000Y-65700000D03*
D20*
X89440000Y-70780000D03*
D19*
X98330000Y-68240000D03*
D21*
X89020000Y-70780000D03*
D22*
X94520000Y-70780000D03*
D21*
X100020000Y-70780000D03*
D19*
X94520000Y-76680000D03*
D20*
X99600000Y-70780000D03*
D19*
X90710000Y-68240000D03*
X97060000Y-65700000D03*
X99520000Y-74480000D03*
X89520000Y-74480000D03*
D23*
X87620000Y-68240000D03*
X86420000Y-74480000D03*
X100120000Y-65700000D03*
D24*
X97320000Y-76680000D03*
%TD*%
D18*
%TO.C,D13*%
X59765000Y-54820000D03*
X63315000Y-54820000D03*
%TD*%
D20*
%TO.C,SW7*%
X39960000Y-48900000D03*
D19*
X48850000Y-46360000D03*
X47580000Y-43820000D03*
D21*
X50540000Y-48900000D03*
D19*
X41230000Y-46360000D03*
X40040000Y-52600000D03*
D20*
X50120000Y-48900000D03*
D22*
X45040000Y-48900000D03*
D19*
X50040000Y-52600000D03*
X42500000Y-43820000D03*
D21*
X39540000Y-48900000D03*
D19*
X45040000Y-54800000D03*
D23*
X36940000Y-52600000D03*
X38140000Y-46360000D03*
D24*
X47840000Y-54800000D03*
D23*
X50640000Y-43820000D03*
%TD*%
D18*
%TO.C,D1*%
X32055000Y-27880000D03*
X35605000Y-27880000D03*
%TD*%
D26*
%TO.C,HOLE5*%
X109130000Y-86360000D03*
%TD*%
D19*
%TO.C,SW16*%
X67191200Y-94620900D03*
D20*
X77271200Y-90920900D03*
X67111200Y-90920900D03*
D19*
X77191200Y-94620900D03*
D21*
X66691200Y-90920900D03*
D19*
X74731200Y-85840900D03*
X72191200Y-96820900D03*
D22*
X72191200Y-90920900D03*
D19*
X68381200Y-88380900D03*
X76001200Y-88380900D03*
X69651200Y-85840900D03*
D21*
X77691200Y-90920900D03*
D23*
X65291200Y-88380900D03*
X64091200Y-94620900D03*
D24*
X74991200Y-96820900D03*
D23*
X77791200Y-85840900D03*
%TD*%
D27*
%TO.C,D18*%
X100767725Y-86450589D03*
X104212275Y-87309411D03*
%TD*%
D26*
%TO.C,HOLE4*%
X51500000Y-96760000D03*
%TD*%
D18*
%TO.C,D4*%
X75785000Y-24120000D03*
X79335000Y-24120000D03*
%TD*%
%TO.C,D10*%
X92715000Y-45350000D03*
X96265000Y-45350000D03*
%TD*%
D21*
%TO.C,SW18*%
X112026926Y-97410470D03*
D19*
X103607955Y-92693626D03*
D20*
X111619402Y-97308863D03*
D19*
X105454712Y-90536316D03*
D20*
X101761198Y-94850937D03*
D19*
X110646668Y-100879604D03*
X111001608Y-94537071D03*
D21*
X101353674Y-94749330D03*
D19*
X100943710Y-98460385D03*
X110383814Y-91765279D03*
D22*
X106690300Y-96079900D03*
D19*
X105262961Y-101804645D03*
D28*
X97935794Y-97710427D03*
X100609741Y-91946088D03*
D29*
X107979789Y-102482026D03*
D28*
X113352919Y-92505560D03*
%TD*%
D30*
%TO.C,J1*%
X111507617Y-71581344D03*
X109814164Y-78373414D03*
X109809600Y-71157980D03*
X108116146Y-77950050D03*
D31*
X109355425Y-81660062D03*
X106978201Y-81067354D03*
X113109779Y-73835912D03*
X107336519Y-72396477D03*
X112384013Y-76746799D03*
X106610754Y-75307364D03*
X111416326Y-80627982D03*
X105643066Y-79188547D03*
%TD*%
D18*
%TO.C,D3*%
X48005000Y-23360000D03*
X51555000Y-23360000D03*
%TD*%
D21*
%TO.C,SW8*%
X66990000Y-45390000D03*
D19*
X66490000Y-49090000D03*
X58950000Y-40310000D03*
X57680000Y-42850000D03*
D21*
X55990000Y-45390000D03*
D19*
X61490000Y-51290000D03*
X56490000Y-49090000D03*
D20*
X56410000Y-45390000D03*
X66570000Y-45390000D03*
D19*
X65300000Y-42850000D03*
D22*
X61490000Y-45390000D03*
D19*
X64030000Y-40310000D03*
D23*
X53390000Y-49090000D03*
X54590000Y-42850000D03*
D24*
X64290000Y-51290000D03*
D23*
X67090000Y-40310000D03*
%TD*%
D26*
%TO.C,HOLE2*%
X94500000Y-25740000D03*
%TD*%
D21*
%TO.C,SW17*%
X94943970Y-92702507D03*
D19*
X92531190Y-87340931D03*
X88857382Y-97995279D03*
D20*
X94526271Y-92658605D03*
D19*
X84114735Y-95284689D03*
D20*
X84421929Y-91596595D03*
D22*
X89474100Y-92127600D03*
D19*
X87479019Y-86809926D03*
X93528731Y-89999768D03*
X94059954Y-96329973D03*
D21*
X84004230Y-91552693D03*
D19*
X85950474Y-89203261D03*
D32*
X82877401Y-88880268D03*
X81031717Y-94960650D03*
D33*
X91642043Y-98287959D03*
D32*
X95574427Y-87660788D03*
%TD*%
D15*
%TO.C,U1*%
X23987000Y-99417500D03*
X22688000Y-82785000D03*
X25228000Y-82785000D03*
X26527000Y-99417500D03*
X29067000Y-99417500D03*
X27768000Y-82785000D03*
X31607000Y-99417500D03*
X30308000Y-82785000D03*
X34147000Y-99417500D03*
X32848000Y-82785000D03*
X36687000Y-99417500D03*
X35388000Y-82785000D03*
X39227000Y-99417500D03*
X37928000Y-82785000D03*
X37928000Y-98020000D03*
X39227000Y-84182500D03*
X36687000Y-84182500D03*
X35388000Y-98020000D03*
X34147000Y-84182500D03*
X32848000Y-98020000D03*
X30308000Y-98020000D03*
X31607000Y-84182500D03*
X27768000Y-98020000D03*
X29067000Y-84182500D03*
X25228000Y-98020000D03*
X26527000Y-84182500D03*
X23987000Y-84182500D03*
X22688000Y-98020000D03*
%TD*%
D19*
%TO.C,SW10*%
X91990000Y-48210000D03*
X94530000Y-59190000D03*
X90720000Y-50750000D03*
X89530000Y-56990000D03*
D21*
X89030000Y-53290000D03*
X100030000Y-53290000D03*
D19*
X99530000Y-56990000D03*
D22*
X94530000Y-53290000D03*
D20*
X99610000Y-53290000D03*
D19*
X97070000Y-48210000D03*
D20*
X89450000Y-53290000D03*
D19*
X98340000Y-50750000D03*
D23*
X86430000Y-56990000D03*
X87630000Y-50750000D03*
X100130000Y-48210000D03*
D24*
X97330000Y-59190000D03*
%TD*%
D18*
%TO.C,D15*%
X92835000Y-62840000D03*
X96385000Y-62840000D03*
%TD*%
D19*
%TO.C,SW2*%
X45010000Y-37340000D03*
D20*
X39930000Y-31440000D03*
D19*
X47550000Y-26360000D03*
D20*
X50090000Y-31440000D03*
D21*
X50510000Y-31440000D03*
D19*
X40010000Y-35140000D03*
X42470000Y-26360000D03*
D21*
X39510000Y-31440000D03*
D19*
X41200000Y-28900000D03*
D22*
X45010000Y-31440000D03*
D19*
X48820000Y-28900000D03*
X50010000Y-35140000D03*
D23*
X38110000Y-28900000D03*
X36910000Y-35140000D03*
D24*
X47810000Y-37340000D03*
D23*
X50610000Y-26360000D03*
%TD*%
D22*
%TO.C,SW13*%
X61520000Y-62910000D03*
D19*
X61520000Y-68810000D03*
D20*
X56440000Y-62910000D03*
D19*
X57710000Y-60370000D03*
X65330000Y-60370000D03*
D20*
X66600000Y-62910000D03*
D19*
X66520000Y-66610000D03*
X56520000Y-66610000D03*
D21*
X56020000Y-62910000D03*
D19*
X64060000Y-57830000D03*
X58980000Y-57830000D03*
D21*
X67020000Y-62910000D03*
D23*
X54620000Y-60370000D03*
X53420000Y-66610000D03*
D24*
X64320000Y-68810000D03*
D23*
X67120000Y-57830000D03*
%TD*%
D26*
%TO.C,HOLE1*%
X28520000Y-25760000D03*
%TD*%
D19*
%TO.C,SW12*%
X48850000Y-63850000D03*
D21*
X50540000Y-66390000D03*
D19*
X45040000Y-72290000D03*
D22*
X45040000Y-66390000D03*
D19*
X50040000Y-70090000D03*
D20*
X50120000Y-66390000D03*
D21*
X39540000Y-66390000D03*
D19*
X47580000Y-61310000D03*
X41230000Y-63850000D03*
X40040000Y-70090000D03*
D20*
X39960000Y-66390000D03*
D19*
X42500000Y-61310000D03*
D23*
X38140000Y-63850000D03*
X36940000Y-70090000D03*
X50640000Y-61310000D03*
D24*
X47840000Y-72290000D03*
%TD*%
D21*
%TO.C,SW14*%
X72530000Y-67300000D03*
D20*
X83110000Y-67300000D03*
D19*
X81840000Y-64760000D03*
X83030000Y-71000000D03*
X80570000Y-62220000D03*
X73030000Y-71000000D03*
X75490000Y-62220000D03*
X78030000Y-73200000D03*
D21*
X83530000Y-67300000D03*
D19*
X74220000Y-64760000D03*
D20*
X72950000Y-67300000D03*
D22*
X78030000Y-67300000D03*
D23*
X71130000Y-64760000D03*
X69930000Y-71000000D03*
X83630000Y-62220000D03*
D24*
X80830000Y-73200000D03*
%TD*%
D21*
%TO.C,SW1*%
X22980000Y-35790000D03*
D19*
X32290000Y-33250000D03*
X33480000Y-39490000D03*
X28480000Y-41690000D03*
D20*
X33560000Y-35790000D03*
X23400000Y-35790000D03*
D21*
X33980000Y-35790000D03*
D19*
X23480000Y-39490000D03*
X25940000Y-30710000D03*
X31020000Y-30710000D03*
X24670000Y-33250000D03*
D22*
X28480000Y-35790000D03*
D23*
X21580000Y-33250000D03*
D34*
X20540000Y-39490000D03*
D24*
X31280000Y-41690000D03*
D23*
X34080000Y-30710000D03*
%TD*%
D18*
%TO.C,D5*%
X86965000Y-27670000D03*
X90515000Y-27670000D03*
%TD*%
%TO.C,D8*%
X59765000Y-37380000D03*
X63315000Y-37380000D03*
%TD*%
D19*
%TO.C,SW4*%
X73230000Y-29380000D03*
D20*
X71960000Y-31920000D03*
D19*
X77040000Y-37820000D03*
X80850000Y-29380000D03*
X74500000Y-26840000D03*
X82040000Y-35620000D03*
X72040000Y-35620000D03*
D21*
X71540000Y-31920000D03*
D19*
X79580000Y-26840000D03*
D22*
X77040000Y-31920000D03*
D20*
X82120000Y-31920000D03*
D21*
X82540000Y-31920000D03*
D23*
X70140000Y-29380000D03*
X68940000Y-35620000D03*
X82640000Y-26840000D03*
D24*
X79840000Y-37820000D03*
%TD*%
D18*
%TO.C,D2*%
X38985000Y-23450000D03*
X42535000Y-23450000D03*
%TD*%
%TO.C,D12*%
X43395000Y-58370000D03*
X46945000Y-58370000D03*
%TD*%
M02*
