M48
; DRILL file {KiCad (6.0.6)} date 2022年11月13日 11時43分20秒
; FORMAT={-:-/ absolute / metric / decimal}
; #@! TF.CreationDate,2022-11-13T11:43:20+09:00
; #@! TF.GenerationSoftware,Kicad,Pcbnew,(6.0.6)
; #@! TF.FileFunction,NonPlated,1,2,NPTH
FMAT,2
METRIC
; #@! TA.AperFunction,NonPlated,NPTH,ComponentDrill
T1C0.650
; #@! TA.AperFunction,NonPlated,NPTH,ComponentDrill
T2C1.200
; #@! TA.AperFunction,NonPlated,NPTH,ComponentDrill
T3C1.900
; #@! TA.AperFunction,NonPlated,NPTH,ComponentDrill
T4C3.000
; #@! TA.AperFunction,NonPlated,NPTH,ComponentDrill
T5C4.100
%
G90
G05
T1
X70.97Y-20.35
X76.75Y-20.35
T2
X22.355Y-38.662
X26.37Y-44.396
T3
X23.916Y-104.807
X33.464Y-101.333
X35.77Y-75.44
X35.78Y-40.44
X35.79Y-57.94
X40.597Y-98.322
X45.93Y-75.44
X45.94Y-40.44
X45.95Y-57.94
X50.603Y-96.558
X52.27Y-54.46
X52.28Y-71.95
X52.31Y-36.93
X58.06Y-95.56
X62.43Y-54.46
X62.44Y-71.95
X62.47Y-36.93
X68.22Y-95.56
X68.76Y-50.08
X68.77Y-32.57
X68.77Y-67.58
X78.92Y-50.08
X78.93Y-32.57
X78.93Y-67.58
X85.27Y-36.07
X85.28Y-53.56
X85.28Y-71.07
X95.43Y-36.07
X95.44Y-53.56
X95.44Y-71.07
X101.76Y-75.43
X101.77Y-40.44
X101.77Y-57.94
X111.92Y-75.43
X111.93Y-40.44
X111.93Y-57.94
T4
X28.041Y-108.712
X33.139Y-104.154
X37.04Y-72.9
X37.05Y-37.9
X37.06Y-55.4
X43.39Y-70.36
X43.4Y-35.36
X43.41Y-52.86
X43.981Y-102.884
X49.793Y-99.28
X53.54Y-51.92
X53.55Y-69.41
X53.58Y-34.39
X59.89Y-49.38
X59.9Y-66.87
X59.93Y-31.85
X60.6Y-100.64
X66.95Y-98.1
X70.03Y-47.54
X70.04Y-65.04
X71.31Y-37.65
X76.38Y-45.0
X76.39Y-62.5
X77.66Y-35.11
X86.55Y-51.02
X86.55Y-68.53
X87.81Y-41.15
X92.9Y-48.48
X92.9Y-65.99
X94.16Y-38.61
X103.03Y-72.89
X103.04Y-55.4
X104.31Y-45.52
X109.38Y-70.35
X109.39Y-52.86
X110.66Y-42.98
T5
X28.69Y-103.07
X40.85Y-75.44
X40.86Y-40.44
X40.87Y-57.94
X45.6Y-97.44
X57.35Y-54.46
X57.36Y-71.95
X57.39Y-36.93
X63.14Y-95.56
X73.84Y-50.08
X73.85Y-32.57
X73.85Y-67.58
X90.35Y-36.07
X90.36Y-53.56
X90.36Y-71.07
X106.84Y-75.43
X106.85Y-40.44
X106.85Y-57.94
T0
M30
