%TF.GenerationSoftware,KiCad,Pcbnew,(6.0.6)*%
%TF.CreationDate,2022-09-17T23:42:14+09:00*%
%TF.ProjectId,split-mini_bottom,73706c69-742d-46d6-996e-695f626f7474,rev?*%
%TF.SameCoordinates,Original*%
%TF.FileFunction,Legend,Top*%
%TF.FilePolarity,Positive*%
%FSLAX46Y46*%
G04 Gerber Fmt 4.6, Leading zero omitted, Abs format (unit mm)*
G04 Created by KiCad (PCBNEW (6.0.6)) date 2022-09-17 23:42:14*
%MOMM*%
%LPD*%
G01*
G04 APERTURE LIST*
%TA.AperFunction,Profile*%
%ADD10C,0.349999*%
%TD*%
%ADD11C,0.300000*%
%ADD12C,0.350000*%
%ADD13C,2.200000*%
G04 APERTURE END LIST*
D10*
X120734058Y-85321050D02*
X120746346Y-84517181D01*
X94563467Y-99773630D02*
X95006416Y-99879974D01*
X21067121Y-99747413D02*
X21097288Y-99856121D01*
X95006416Y-99879974D02*
X95006416Y-99879974D01*
X106613959Y-23464589D02*
X106588365Y-23321274D01*
X21022792Y-99525582D02*
X21042263Y-99637170D01*
X21450528Y-100558221D02*
X21520346Y-100647842D01*
X23314208Y-21027240D02*
X23182826Y-21050152D01*
X120663178Y-69673555D02*
X120617953Y-69555976D01*
X120429619Y-69232038D02*
X120350533Y-69135311D01*
X116257734Y-104147387D02*
X116337281Y-104072331D01*
X65730083Y-98890289D02*
X65730083Y-98890289D01*
X104737877Y-21174101D02*
X104602654Y-21128344D01*
X120306060Y-89309528D02*
X120440307Y-88517806D01*
X106647491Y-64950611D02*
X106647491Y-23907794D01*
X114417834Y-104707695D02*
X114531519Y-104721167D01*
X22319756Y-101272024D02*
X22422725Y-101317646D01*
X21325017Y-100370023D02*
X21385392Y-100465551D01*
X116831755Y-103339065D02*
X116873233Y-103232363D01*
X114869318Y-104727193D02*
X114980256Y-104718084D01*
X116678483Y-103640152D02*
X116734207Y-103543064D01*
X21793434Y-21793513D02*
X21700478Y-21891184D01*
X106069327Y-22166530D02*
X105982931Y-22056589D01*
X105588428Y-21662081D02*
X105478488Y-21575683D01*
X104870037Y-21226211D02*
X104737877Y-21174101D01*
X79268402Y-98118347D02*
X79619825Y-98120645D01*
X119962618Y-68817891D02*
X119849615Y-68758387D01*
X120725055Y-69920137D02*
X120699003Y-69795107D01*
X21042263Y-99637170D02*
X21067121Y-99747413D01*
X120699003Y-69795107D02*
X120663178Y-69673555D01*
X81724553Y-98230937D02*
X82074291Y-98265381D01*
X119606995Y-68666672D02*
X106647491Y-64950611D01*
X21218860Y-100171147D02*
X21269480Y-100271825D01*
X21049932Y-23182830D02*
X21027007Y-23314210D01*
X23078052Y-101482078D02*
X23191759Y-101490535D01*
X20997490Y-99184639D02*
X21000327Y-99299127D01*
X115907617Y-104406218D02*
X115999590Y-104347927D01*
X105694026Y-21753553D02*
X105588428Y-21662081D01*
X105891460Y-21950990D02*
X105795097Y-21849917D01*
X23306244Y-101493370D02*
X54168747Y-101493347D01*
X23715622Y-20997488D02*
X23715622Y-20997488D01*
X21992830Y-21612950D02*
X21891115Y-21700567D01*
X57823814Y-101011581D02*
X57823814Y-101011581D01*
X120746346Y-84517181D02*
X120746346Y-70178646D01*
X120563702Y-69442866D02*
X120500800Y-69334721D01*
X120744992Y-70113118D02*
X120740961Y-70048149D01*
X21114721Y-22925043D02*
X21079201Y-23053033D01*
X21000556Y-23580829D02*
X20997215Y-23715622D01*
X93224898Y-99501293D02*
X93672605Y-99584271D01*
X115411094Y-104628832D02*
X115514710Y-104593834D01*
X116618357Y-103733828D02*
X116678483Y-103640152D01*
X55553294Y-101425245D02*
X56012088Y-101372398D01*
X21932681Y-101040365D02*
X22025351Y-101105499D01*
X79971141Y-98127542D02*
X80322305Y-98139037D01*
X94118828Y-99675056D02*
X94563467Y-99773630D01*
X119965073Y-90880112D02*
X120147626Y-90097149D01*
X21520346Y-100647842D02*
X21594767Y-100734227D01*
X21843058Y-100970549D02*
X21932681Y-101040365D01*
X116413290Y-103993343D02*
X116485588Y-103910527D01*
X114980256Y-104718084D02*
X115090076Y-104703590D01*
X92325451Y-99358830D02*
X92775813Y-99426140D01*
X119790967Y-68731954D02*
X119730949Y-68707815D01*
X22207471Y-21454070D02*
X22098356Y-21530754D01*
X103737228Y-20997492D02*
X23715622Y-20997488D01*
X116088715Y-104285289D02*
X116174821Y-104218407D01*
X105982931Y-22056589D02*
X105891460Y-21950990D01*
X104034787Y-21012522D02*
X103886991Y-21001281D01*
X116337281Y-104072331D02*
X116413290Y-103993343D01*
X22634779Y-101393589D02*
X22743485Y-101423753D01*
X23182826Y-21050152D02*
X23053027Y-21079407D01*
X21156400Y-22799082D02*
X21114721Y-22925043D01*
X21700478Y-21891184D02*
X21612850Y-21992890D01*
X105364387Y-21494542D02*
X105246308Y-21418842D01*
X22435573Y-21317612D02*
X22319950Y-21382992D01*
X69367896Y-98227495D02*
X70105548Y-98166918D01*
X22925033Y-21114915D02*
X22799069Y-21156581D01*
X103737228Y-20997492D02*
X103737228Y-20997492D01*
X115812969Y-104460058D02*
X115907617Y-104406218D01*
X54631255Y-101485768D02*
X55092893Y-101463051D01*
X82074291Y-98265381D02*
X91421310Y-99247810D01*
X104464550Y-21089126D02*
X104323750Y-21056627D01*
X21010518Y-23446950D02*
X21000556Y-23580829D01*
X104180434Y-21031031D02*
X104034787Y-21012522D01*
X119606995Y-68666672D02*
X119606995Y-68666672D01*
X22098356Y-21530754D02*
X21992830Y-21612950D01*
X115514710Y-104593834D02*
X115616343Y-104553970D01*
X21453948Y-22207514D02*
X21382859Y-22319987D01*
X106418789Y-22774986D02*
X106360509Y-22646071D01*
X106470898Y-22907146D02*
X106418789Y-22774986D01*
X80322305Y-98139037D02*
X80673272Y-98155126D01*
X21673714Y-100817184D02*
X21673714Y-100817184D01*
X106643705Y-23758032D02*
X106632466Y-23610236D01*
X55092893Y-101463051D02*
X55553294Y-101425245D01*
X80673272Y-98155126D02*
X81023999Y-98175807D01*
X105246308Y-21418842D02*
X105124435Y-21348765D01*
X106647491Y-64950611D02*
X106647491Y-64950611D01*
X57823814Y-101011581D02*
X65730083Y-98890289D01*
X56468906Y-101304560D02*
X56923379Y-101221779D01*
X79268402Y-98118347D02*
X79268402Y-98118347D01*
X106296240Y-22520586D02*
X106226164Y-22398712D01*
X70105548Y-98166918D02*
X70845185Y-98130517D01*
X116940735Y-103010071D02*
X116940735Y-103010071D01*
X54168747Y-101493347D02*
X54168747Y-101493347D01*
X119730949Y-68707815D02*
X119669610Y-68686034D01*
X106647491Y-23907794D02*
X106643705Y-23758032D01*
X21204145Y-22675373D02*
X21156400Y-22799082D01*
X116554001Y-103823988D02*
X116618357Y-103733828D01*
X56012088Y-101372398D02*
X56468906Y-101304560D01*
X57375138Y-101124103D02*
X57823814Y-101011581D01*
X120746346Y-70178646D02*
X120744992Y-70113118D01*
X67900910Y-98420864D02*
X68632820Y-98312169D01*
X21000327Y-99299127D02*
X21008788Y-99412838D01*
X23053027Y-21079407D02*
X22925033Y-21114915D01*
X91421310Y-99247810D02*
X91873916Y-99299381D01*
X71586216Y-98118370D02*
X71586216Y-98118370D01*
X21382859Y-22319987D02*
X21317467Y-22435603D01*
X20997490Y-99184639D02*
X20997490Y-99184639D01*
X21673714Y-100817184D02*
X21756673Y-100896129D01*
X114189873Y-104662933D02*
X114189873Y-104662933D01*
X21612850Y-21992890D02*
X21530643Y-22098408D01*
X23191759Y-101490535D02*
X23306244Y-101493370D01*
X82074291Y-98265381D02*
X82074291Y-98265381D01*
X115090076Y-104703590D02*
X115198604Y-104683814D01*
X21891115Y-21700567D02*
X21793434Y-21793513D01*
X106632466Y-23610236D02*
X106613959Y-23464589D01*
X92775813Y-99426140D02*
X93224898Y-99501293D01*
X120697243Y-86123603D02*
X120734058Y-85321050D01*
X22965311Y-101468076D02*
X23078052Y-101482078D01*
X114757434Y-104730812D02*
X114869318Y-104727193D01*
X21756673Y-100896129D02*
X21843058Y-100970549D01*
X116940735Y-103010071D02*
X119965073Y-90880112D01*
X120734300Y-69983801D02*
X120725055Y-69920137D01*
X119669610Y-68686034D02*
X119606995Y-68666672D01*
X23580829Y-21000816D02*
X23446950Y-21010763D01*
X115999590Y-104347927D02*
X116088715Y-104285289D01*
X106226164Y-22398712D02*
X106150466Y-22280632D01*
X81374440Y-98201078D02*
X81724553Y-98230937D01*
X104998950Y-21284494D02*
X104870037Y-21226211D01*
X22120879Y-101165872D02*
X22219077Y-101221407D01*
X116485588Y-103910527D02*
X116554001Y-103823988D01*
X21079201Y-23053033D02*
X21049932Y-23182830D01*
X23446950Y-21010763D02*
X23314208Y-21027240D01*
X116909617Y-103122663D02*
X116940735Y-103010071D01*
X22554116Y-21258022D02*
X22435573Y-21317612D01*
X120147626Y-90097149D02*
X120306060Y-89309528D01*
X21530643Y-22098408D02*
X21453948Y-22207514D01*
X106588365Y-23321274D02*
X106555869Y-23180473D01*
X120635967Y-86924286D02*
X120697243Y-86123603D01*
X116873233Y-103232363D02*
X116909617Y-103122663D01*
X68632820Y-98312169D02*
X69367896Y-98227495D01*
X22743485Y-101423753D02*
X22853726Y-101448609D01*
X120440307Y-88517806D02*
X120550299Y-87722539D01*
X22527796Y-101358194D02*
X22634779Y-101393589D01*
X21132686Y-99963106D02*
X21173236Y-100068177D01*
X22025351Y-101105499D02*
X22120879Y-101165872D01*
X95006416Y-99879974D02*
X114189873Y-104662933D01*
X21385392Y-100465551D02*
X21450528Y-100558221D01*
X21008788Y-99412838D02*
X21022792Y-99525582D01*
X115198604Y-104683814D02*
X115305668Y-104658860D01*
X67172756Y-98553501D02*
X67900910Y-98420864D01*
X106150466Y-22280632D02*
X106069327Y-22166530D01*
X21097288Y-99856121D02*
X21132686Y-99963106D01*
X120500800Y-69334721D02*
X120429619Y-69232038D01*
X21027007Y-23314210D02*
X21010518Y-23446950D01*
X116174821Y-104218407D02*
X116257734Y-104147387D01*
X120263917Y-69045037D02*
X120170143Y-68961712D01*
X70845185Y-98130517D02*
X71586216Y-98118370D01*
X91421310Y-99247810D02*
X91421310Y-99247810D01*
X22675355Y-21204314D02*
X22554116Y-21258022D01*
X21257865Y-22554139D02*
X21204145Y-22675373D01*
X22422725Y-101317646D02*
X22527796Y-101358194D01*
X114644776Y-104728838D02*
X114757434Y-104730812D01*
X116734207Y-103543064D02*
X116785355Y-103442667D01*
X120350533Y-69135311D02*
X120263917Y-69045037D01*
X120550299Y-87722539D02*
X120635967Y-86924286D01*
X21594767Y-100734227D02*
X21673714Y-100817184D01*
X106360509Y-22646071D02*
X106296240Y-22520586D01*
X79619825Y-98120645D02*
X79971141Y-98127542D01*
X115715821Y-104509343D02*
X115812969Y-104460058D01*
X120746346Y-70178646D02*
X120746346Y-70178646D01*
X20997215Y-23715622D02*
X20997215Y-23715622D01*
X104323750Y-21056627D02*
X104180434Y-21031031D01*
X71586216Y-98118370D02*
X79268402Y-98118347D01*
X105795097Y-21849917D02*
X105694026Y-21753553D01*
X119849615Y-68758387D02*
X119790967Y-68731954D01*
X54168747Y-101493347D02*
X54631255Y-101485768D01*
X116785355Y-103442667D02*
X116831755Y-103339065D01*
X120170143Y-68961712D02*
X120069586Y-68885831D01*
X66448951Y-98710002D02*
X67172756Y-98553501D01*
X104602654Y-21128344D02*
X104464550Y-21089126D01*
X114189873Y-104662933D02*
X114303894Y-104688319D01*
X22799069Y-21156581D02*
X22675355Y-21204314D01*
X120746346Y-84517181D02*
X120746346Y-84517181D01*
X120617953Y-69555976D02*
X120563702Y-69442866D01*
X114303894Y-104688319D02*
X114417834Y-104707695D01*
X106555869Y-23180473D02*
X106516652Y-23042369D01*
X65730083Y-98890289D02*
X66448951Y-98710002D01*
X81023999Y-98175807D02*
X81374440Y-98201078D01*
X21173236Y-100068177D02*
X21218860Y-100171147D01*
X115616343Y-104553970D02*
X115715821Y-104509343D01*
X106516652Y-23042369D02*
X106470898Y-22907146D01*
X23715622Y-20997488D02*
X23580829Y-21000816D01*
X120740961Y-70048149D02*
X120734300Y-69983801D01*
X22219077Y-101221407D02*
X22319756Y-101272024D01*
X56923379Y-101221779D02*
X57375138Y-101124103D01*
X103886991Y-21001281D02*
X103737228Y-20997492D01*
X22853726Y-101448609D02*
X22965311Y-101468076D01*
X105478488Y-21575683D02*
X105364387Y-21494542D01*
X119965073Y-90880112D02*
X119965073Y-90880112D01*
X105124435Y-21348765D02*
X104998950Y-21284494D01*
X21793434Y-21793513D02*
X21793434Y-21793513D01*
X93672605Y-99584271D02*
X94118828Y-99675056D01*
X21317467Y-22435603D02*
X21257865Y-22554139D01*
X20997215Y-23715622D02*
X20997490Y-99184639D01*
X23306244Y-101493370D02*
X23306244Y-101493370D01*
X22319950Y-21382992D02*
X22207471Y-21454070D01*
X91873916Y-99299381D02*
X92325451Y-99358830D01*
X120069586Y-68885831D02*
X119962618Y-68817891D01*
X21269480Y-100271825D02*
X21325017Y-100370023D01*
X115305668Y-104658860D02*
X115411094Y-104628832D01*
X114531519Y-104721167D02*
X114644776Y-104728838D01*
D11*
X28267142Y-94919714D02*
X28381428Y-94976857D01*
X28610000Y-94976857D01*
X28724285Y-94919714D01*
X28781428Y-94805428D01*
X28781428Y-94748285D01*
X28724285Y-94634000D01*
X28610000Y-94576857D01*
X28438571Y-94576857D01*
X28324285Y-94519714D01*
X28267142Y-94405428D01*
X28267142Y-94348285D01*
X28324285Y-94234000D01*
X28438571Y-94176857D01*
X28610000Y-94176857D01*
X28724285Y-94234000D01*
X29295714Y-94176857D02*
X29295714Y-95376857D01*
X29295714Y-94234000D02*
X29410000Y-94176857D01*
X29638571Y-94176857D01*
X29752857Y-94234000D01*
X29810000Y-94291142D01*
X29867142Y-94405428D01*
X29867142Y-94748285D01*
X29810000Y-94862571D01*
X29752857Y-94919714D01*
X29638571Y-94976857D01*
X29410000Y-94976857D01*
X29295714Y-94919714D01*
X30552857Y-94976857D02*
X30438571Y-94919714D01*
X30381428Y-94805428D01*
X30381428Y-93776857D01*
X31010000Y-94976857D02*
X31010000Y-94176857D01*
X31010000Y-93776857D02*
X30952857Y-93834000D01*
X31010000Y-93891142D01*
X31067142Y-93834000D01*
X31010000Y-93776857D01*
X31010000Y-93891142D01*
X31410000Y-94176857D02*
X31867142Y-94176857D01*
X31581428Y-93776857D02*
X31581428Y-94805428D01*
X31638571Y-94919714D01*
X31752857Y-94976857D01*
X31867142Y-94976857D01*
X33181428Y-94976857D02*
X33181428Y-94176857D01*
X33181428Y-94291142D02*
X33238571Y-94234000D01*
X33352857Y-94176857D01*
X33524285Y-94176857D01*
X33638571Y-94234000D01*
X33695714Y-94348285D01*
X33695714Y-94976857D01*
X33695714Y-94348285D02*
X33752857Y-94234000D01*
X33867142Y-94176857D01*
X34038571Y-94176857D01*
X34152857Y-94234000D01*
X34210000Y-94348285D01*
X34210000Y-94976857D01*
X34781428Y-94976857D02*
X34781428Y-94176857D01*
X34781428Y-93776857D02*
X34724285Y-93834000D01*
X34781428Y-93891142D01*
X34838571Y-93834000D01*
X34781428Y-93776857D01*
X34781428Y-93891142D01*
X35352857Y-94176857D02*
X35352857Y-94976857D01*
X35352857Y-94291142D02*
X35410000Y-94234000D01*
X35524285Y-94176857D01*
X35695714Y-94176857D01*
X35810000Y-94234000D01*
X35867142Y-94348285D01*
X35867142Y-94976857D01*
X36438571Y-94976857D02*
X36438571Y-94176857D01*
X36438571Y-93776857D02*
X36381428Y-93834000D01*
X36438571Y-93891142D01*
X36495714Y-93834000D01*
X36438571Y-93776857D01*
X36438571Y-93891142D01*
X37924285Y-94976857D02*
X37924285Y-94176857D01*
X37924285Y-94405428D02*
X37981428Y-94291142D01*
X38038571Y-94234000D01*
X38152857Y-94176857D01*
X38267142Y-94176857D01*
X39124285Y-94919714D02*
X39010000Y-94976857D01*
X38781428Y-94976857D01*
X38667142Y-94919714D01*
X38610000Y-94805428D01*
X38610000Y-94348285D01*
X38667142Y-94234000D01*
X38781428Y-94176857D01*
X39010000Y-94176857D01*
X39124285Y-94234000D01*
X39181428Y-94348285D01*
X39181428Y-94462571D01*
X38610000Y-94576857D01*
X39581428Y-94176857D02*
X39867142Y-94976857D01*
X40152857Y-94176857D01*
X40838571Y-93776857D02*
X40952857Y-93776857D01*
X41067142Y-93834000D01*
X41124285Y-93891142D01*
X41181428Y-94005428D01*
X41238571Y-94234000D01*
X41238571Y-94519714D01*
X41181428Y-94748285D01*
X41124285Y-94862571D01*
X41067142Y-94919714D01*
X40952857Y-94976857D01*
X40838571Y-94976857D01*
X40724285Y-94919714D01*
X40667142Y-94862571D01*
X40610000Y-94748285D01*
X40552857Y-94519714D01*
X40552857Y-94234000D01*
X40610000Y-94005428D01*
X40667142Y-93891142D01*
X40724285Y-93834000D01*
X40838571Y-93776857D01*
X41752857Y-94862571D02*
X41810000Y-94919714D01*
X41752857Y-94976857D01*
X41695714Y-94919714D01*
X41752857Y-94862571D01*
X41752857Y-94976857D01*
X42267142Y-93891142D02*
X42324285Y-93834000D01*
X42438571Y-93776857D01*
X42724285Y-93776857D01*
X42838571Y-93834000D01*
X42895714Y-93891142D01*
X42952857Y-94005428D01*
X42952857Y-94119714D01*
X42895714Y-94291142D01*
X42210000Y-94976857D01*
X42952857Y-94976857D01*
X25495714Y-96908857D02*
X25495714Y-95708857D01*
X25495714Y-96851714D02*
X25381428Y-96908857D01*
X25152857Y-96908857D01*
X25038571Y-96851714D01*
X24981428Y-96794571D01*
X24924285Y-96680285D01*
X24924285Y-96337428D01*
X24981428Y-96223142D01*
X25038571Y-96166000D01*
X25152857Y-96108857D01*
X25381428Y-96108857D01*
X25495714Y-96166000D01*
X26524285Y-96851714D02*
X26409999Y-96908857D01*
X26181428Y-96908857D01*
X26067142Y-96851714D01*
X26009999Y-96737428D01*
X26009999Y-96280285D01*
X26067142Y-96166000D01*
X26181428Y-96108857D01*
X26409999Y-96108857D01*
X26524285Y-96166000D01*
X26581428Y-96280285D01*
X26581428Y-96394571D01*
X26009999Y-96508857D01*
X27038571Y-96851714D02*
X27152857Y-96908857D01*
X27381428Y-96908857D01*
X27495714Y-96851714D01*
X27552857Y-96737428D01*
X27552857Y-96680285D01*
X27495714Y-96566000D01*
X27381428Y-96508857D01*
X27209999Y-96508857D01*
X27095714Y-96451714D01*
X27038571Y-96337428D01*
X27038571Y-96280285D01*
X27095714Y-96166000D01*
X27209999Y-96108857D01*
X27381428Y-96108857D01*
X27495714Y-96166000D01*
X28067142Y-96908857D02*
X28067142Y-96108857D01*
X28067142Y-95708857D02*
X28009999Y-95766000D01*
X28067142Y-95823142D01*
X28124285Y-95766000D01*
X28067142Y-95708857D01*
X28067142Y-95823142D01*
X29152857Y-96108857D02*
X29152857Y-97080285D01*
X29095714Y-97194571D01*
X29038571Y-97251714D01*
X28924285Y-97308857D01*
X28752857Y-97308857D01*
X28638571Y-97251714D01*
X29152857Y-96851714D02*
X29038571Y-96908857D01*
X28809999Y-96908857D01*
X28695714Y-96851714D01*
X28638571Y-96794571D01*
X28581428Y-96680285D01*
X28581428Y-96337428D01*
X28638571Y-96223142D01*
X28695714Y-96166000D01*
X28809999Y-96108857D01*
X29038571Y-96108857D01*
X29152857Y-96166000D01*
X29724285Y-96108857D02*
X29724285Y-96908857D01*
X29724285Y-96223142D02*
X29781428Y-96166000D01*
X29895714Y-96108857D01*
X30067142Y-96108857D01*
X30181428Y-96166000D01*
X30238571Y-96280285D01*
X30238571Y-96908857D01*
X31267142Y-96851714D02*
X31152857Y-96908857D01*
X30924285Y-96908857D01*
X30809999Y-96851714D01*
X30752857Y-96737428D01*
X30752857Y-96280285D01*
X30809999Y-96166000D01*
X30924285Y-96108857D01*
X31152857Y-96108857D01*
X31267142Y-96166000D01*
X31324285Y-96280285D01*
X31324285Y-96394571D01*
X30752857Y-96508857D01*
X32352857Y-96908857D02*
X32352857Y-95708857D01*
X32352857Y-96851714D02*
X32238571Y-96908857D01*
X32009999Y-96908857D01*
X31895714Y-96851714D01*
X31838571Y-96794571D01*
X31781428Y-96680285D01*
X31781428Y-96337428D01*
X31838571Y-96223142D01*
X31895714Y-96166000D01*
X32009999Y-96108857D01*
X32238571Y-96108857D01*
X32352857Y-96166000D01*
X33838571Y-96908857D02*
X33838571Y-95708857D01*
X33838571Y-96166000D02*
X33952857Y-96108857D01*
X34181428Y-96108857D01*
X34295714Y-96166000D01*
X34352857Y-96223142D01*
X34410000Y-96337428D01*
X34410000Y-96680285D01*
X34352857Y-96794571D01*
X34295714Y-96851714D01*
X34181428Y-96908857D01*
X33952857Y-96908857D01*
X33838571Y-96851714D01*
X34810000Y-96108857D02*
X35095714Y-96908857D01*
X35381428Y-96108857D02*
X35095714Y-96908857D01*
X34981428Y-97194571D01*
X34924285Y-97251714D01*
X34810000Y-97308857D01*
X36581428Y-96108857D02*
X37038571Y-96108857D01*
X36752857Y-95708857D02*
X36752857Y-96737428D01*
X36810000Y-96851714D01*
X36924285Y-96908857D01*
X37038571Y-96908857D01*
X37952857Y-96908857D02*
X37952857Y-96280285D01*
X37895714Y-96166000D01*
X37781428Y-96108857D01*
X37552857Y-96108857D01*
X37438571Y-96166000D01*
X37952857Y-96851714D02*
X37838571Y-96908857D01*
X37552857Y-96908857D01*
X37438571Y-96851714D01*
X37381428Y-96737428D01*
X37381428Y-96623142D01*
X37438571Y-96508857D01*
X37552857Y-96451714D01*
X37838571Y-96451714D01*
X37952857Y-96394571D01*
X38524285Y-96908857D02*
X38524285Y-96108857D01*
X38524285Y-96223142D02*
X38581428Y-96166000D01*
X38695714Y-96108857D01*
X38867142Y-96108857D01*
X38981428Y-96166000D01*
X39038571Y-96280285D01*
X39038571Y-96908857D01*
X39038571Y-96280285D02*
X39095714Y-96166000D01*
X39210000Y-96108857D01*
X39381428Y-96108857D01*
X39495714Y-96166000D01*
X39552857Y-96280285D01*
X39552857Y-96908857D01*
X40638571Y-96908857D02*
X40638571Y-96280285D01*
X40581428Y-96166000D01*
X40467142Y-96108857D01*
X40238571Y-96108857D01*
X40124285Y-96166000D01*
X40638571Y-96851714D02*
X40524285Y-96908857D01*
X40238571Y-96908857D01*
X40124285Y-96851714D01*
X40067142Y-96737428D01*
X40067142Y-96623142D01*
X40124285Y-96508857D01*
X40238571Y-96451714D01*
X40524285Y-96451714D01*
X40638571Y-96394571D01*
X41724285Y-96108857D02*
X41724285Y-97080285D01*
X41667142Y-97194571D01*
X41610000Y-97251714D01*
X41495714Y-97308857D01*
X41324285Y-97308857D01*
X41210000Y-97251714D01*
X41724285Y-96851714D02*
X41610000Y-96908857D01*
X41381428Y-96908857D01*
X41267142Y-96851714D01*
X41210000Y-96794571D01*
X41152857Y-96680285D01*
X41152857Y-96337428D01*
X41210000Y-96223142D01*
X41267142Y-96166000D01*
X41381428Y-96108857D01*
X41610000Y-96108857D01*
X41724285Y-96166000D01*
X42467142Y-96908857D02*
X42352857Y-96851714D01*
X42295714Y-96794571D01*
X42238571Y-96680285D01*
X42238571Y-96337428D01*
X42295714Y-96223142D01*
X42352857Y-96166000D01*
X42467142Y-96108857D01*
X42638571Y-96108857D01*
X42752857Y-96166000D01*
X42810000Y-96223142D01*
X42867142Y-96337428D01*
X42867142Y-96680285D01*
X42810000Y-96794571D01*
X42752857Y-96851714D01*
X42638571Y-96908857D01*
X42467142Y-96908857D01*
X43267142Y-95708857D02*
X44010000Y-95708857D01*
X43610000Y-96166000D01*
X43781428Y-96166000D01*
X43895714Y-96223142D01*
X43952857Y-96280285D01*
X44010000Y-96394571D01*
X44010000Y-96680285D01*
X43952857Y-96794571D01*
X43895714Y-96851714D01*
X43781428Y-96908857D01*
X43438571Y-96908857D01*
X43324285Y-96851714D01*
X43267142Y-96794571D01*
X44467142Y-95823142D02*
X44524285Y-95766000D01*
X44638571Y-95708857D01*
X44924285Y-95708857D01*
X45038571Y-95766000D01*
X45095714Y-95823142D01*
X45152857Y-95937428D01*
X45152857Y-96051714D01*
X45095714Y-96223142D01*
X44410000Y-96908857D01*
X45152857Y-96908857D01*
X46181428Y-96108857D02*
X46181428Y-96908857D01*
X45895714Y-95651714D02*
X45610000Y-96508857D01*
X46352857Y-96508857D01*
D12*
X52020000Y-80950000D03*
X112800000Y-84690000D03*
X53040000Y-95600000D03*
X97680000Y-23950000D03*
X30040000Y-23950000D03*
%LPC*%
D13*
%TO.C,HOLE3*%
X52020000Y-80950000D03*
%TD*%
%TO.C,HOLE5*%
X112800000Y-84690000D03*
%TD*%
%TO.C,HOLE4*%
X53040000Y-95600000D03*
%TD*%
%TO.C,HOLE2*%
X97680000Y-23950000D03*
%TD*%
%TO.C,HOLE1*%
X30040000Y-23950000D03*
%TD*%
M02*
