M48
; DRILL file {KiCad (6.0.6)} date 2022年11月13日 11時43分50秒
; FORMAT={-:-/ absolute / metric / decimal}
; #@! TF.CreationDate,2022-11-13T11:43:50+09:00
; #@! TF.GenerationSoftware,Kicad,Pcbnew,(6.0.6)
; #@! TF.FileFunction,MixedPlating,1,2
FMAT,2
METRIC
; #@! TA.AperFunction,Plated,PTH,ViaDrill
T1C0.400
; #@! TA.AperFunction,Plated,PTH,ComponentDrill
T2C0.600
; #@! TA.AperFunction,Plated,PTH,ComponentDrill
T3C1.000
; #@! TA.AperFunction,NonPlated,NPTH,ComponentDrill
T4C0.650
; #@! TA.AperFunction,NonPlated,NPTH,ComponentDrill
T5C1.200
; #@! TA.AperFunction,NonPlated,NPTH,ComponentDrill
T6C1.900
; #@! TA.AperFunction,NonPlated,NPTH,ComponentDrill
T7C3.000
; #@! TA.AperFunction,NonPlated,NPTH,ComponentDrill
T8C4.100
%
G90
G05
T1
X33.328Y-65.226
X34.45Y-65.02
X50.14Y-62.261
X51.139Y-62.029
X53.0Y-75.695
X54.005Y-75.52
X55.6Y-28.94
X56.3Y-29.755
X57.333Y-45.402
X57.594Y-30.704
X58.116Y-46.184
X58.343Y-32.003
X63.2Y-30.674
X63.2Y-100.95
X63.75Y-28.72
X64.05Y-106.075
X64.375Y-56.45
X64.575Y-63.225
X65.158Y-91.365
X65.996Y-92.321
X66.74Y-38.31
X67.35Y-52.26
X68.0Y-85.1
X68.34Y-52.59
X68.49Y-91.12
X68.63Y-70.26
X68.64Y-88.73
X68.876Y-92.3
X69.56Y-81.17
X69.6Y-93.07
X70.09Y-82.98
X73.35Y-80.5
X73.42Y-94.98
X74.914Y-95.19
X75.745Y-95.747
X77.35Y-80.59
X78.22Y-96.6
X78.25Y-79.06
X78.26Y-97.84
X79.362Y-78.823
X81.679Y-94.581
X81.81Y-79.06
X82.025Y-81.3
X83.1Y-55.42
X83.3Y-64.2
X84.3Y-90.275
X85.62Y-95.41
X87.37Y-82.59
X89.0Y-65.0
X89.53Y-85.56
X90.02Y-87.42
X92.38Y-98.62
X92.45Y-83.21
X95.24Y-94.16
X99.6Y-76.26
T4
X56.67Y-23.52
X62.45Y-23.52
T5
X107.016Y-47.577
X111.031Y-41.843
T6
X21.47Y-43.64
X21.48Y-78.65
X21.49Y-61.16
X31.63Y-43.64
X31.64Y-78.65
X31.65Y-61.16
X37.98Y-39.26
X37.98Y-56.77
X37.99Y-74.28
X48.14Y-39.26
X48.14Y-56.77
X48.15Y-74.28
X54.48Y-35.75
X54.49Y-70.78
X54.495Y-53.25
X64.64Y-35.75
X64.65Y-70.78
X64.655Y-53.25
X65.18Y-98.78
X70.96Y-75.13
X70.97Y-57.65
X70.98Y-40.17
X75.34Y-98.78
X81.12Y-75.13
X81.13Y-57.65
X81.14Y-40.17
X82.827Y-99.768
X87.47Y-61.15
X87.49Y-78.66
X87.495Y-43.64
X92.833Y-101.532
X97.63Y-61.15
X97.65Y-78.66
X97.655Y-43.64
X99.966Y-104.553
X109.514Y-108.027
T7
X22.74Y-41.1
X22.75Y-76.11
X22.76Y-58.62
X29.09Y-38.56
X29.1Y-73.57
X29.11Y-56.08
X39.25Y-36.72
X39.25Y-54.23
X39.26Y-71.74
X45.6Y-34.18
X45.6Y-51.69
X45.61Y-69.2
X55.76Y-68.24
X55.765Y-50.71
X57.02Y-40.83
X62.11Y-65.7
X62.115Y-48.17
X63.37Y-38.29
X67.72Y-103.86
X72.23Y-72.59
X72.24Y-55.11
X73.52Y-45.25
X74.07Y-101.32
X78.58Y-70.05
X78.59Y-52.57
X79.87Y-42.71
X84.446Y-105.212
X88.74Y-58.61
X88.76Y-76.12
X90.035Y-48.72
X91.141Y-103.813
X95.09Y-56.07
X95.11Y-73.58
X96.385Y-46.18
X100.616Y-110.195
X107.451Y-109.98
T8
X26.55Y-43.64
X26.56Y-78.65
X26.57Y-61.16
X43.06Y-39.26
X43.06Y-56.77
X43.07Y-74.28
X59.56Y-35.75
X59.57Y-70.78
X59.575Y-53.25
X70.26Y-98.78
X76.04Y-75.13
X76.05Y-57.65
X76.06Y-40.17
X87.83Y-100.65
X92.55Y-61.15
X92.57Y-78.66
X92.575Y-43.64
X104.74Y-106.29
T2
G00X55.24Y-20.24
M15
G01X55.24Y-19.44
M16
G05
G00X55.24Y-24.57
M15
G01X55.24Y-23.47
M16
G05
G00X63.88Y-20.24
M15
G01X63.88Y-19.44
M16
G05
G00X63.88Y-24.57
M15
G01X63.88Y-23.47
M16
G05
T3
G00X103.547Y-48.871
M15
G01X103.26Y-49.281
M16
G05
G00X107.847Y-50.052
M15
G01X107.561Y-50.461
M16
G05
G00X110.142Y-46.775
M15
G01X109.855Y-47.185
M16
G05
G00X111.862Y-44.318
M15
G01X111.576Y-44.727
M16
G05
T0
M30
