%TF.GenerationSoftware,KiCad,Pcbnew,(6.0.6)*%
%TF.CreationDate,2022-11-13T11:43:50+09:00*%
%TF.ProjectId,split-mini__left,73706c69-742d-46d6-996e-695f5f6c6566,rev?*%
%TF.SameCoordinates,Original*%
%TF.FileFunction,Soldermask,Bot*%
%TF.FilePolarity,Negative*%
%FSLAX46Y46*%
G04 Gerber Fmt 4.6, Leading zero omitted, Abs format (unit mm)*
G04 Created by KiCad (PCBNEW (6.0.6)) date 2022-11-13 11:43:50*
%MOMM*%
%LPD*%
G01*
G04 APERTURE LIST*
G04 Aperture macros list*
%AMRoundRect*
0 Rectangle with rounded corners*
0 $1 Rounding radius*
0 $2 $3 $4 $5 $6 $7 $8 $9 X,Y pos of 4 corners*
0 Add a 4 corners polygon primitive as box body*
4,1,4,$2,$3,$4,$5,$6,$7,$8,$9,$2,$3,0*
0 Add four circle primitives for the rounded corners*
1,1,$1+$1,$2,$3*
1,1,$1+$1,$4,$5*
1,1,$1+$1,$6,$7*
1,1,$1+$1,$8,$9*
0 Add four rect primitives between the rounded corners*
20,1,$1+$1,$2,$3,$4,$5,0*
20,1,$1+$1,$4,$5,$6,$7,0*
20,1,$1+$1,$6,$7,$8,$9,0*
20,1,$1+$1,$8,$9,$2,$3,0*%
%AMHorizOval*
0 Thick line with rounded ends*
0 $1 width*
0 $2 $3 position (X,Y) of the first rounded end (center of the circle)*
0 $4 $5 position (X,Y) of the second rounded end (center of the circle)*
0 Add line between two ends*
20,1,$1,$2,$3,$4,$5,0*
0 Add two circle primitives to create the rounded ends*
1,1,$1,$2,$3*
1,1,$1,$4,$5*%
%AMRotRect*
0 Rectangle, with rotation*
0 The origin of the aperture is its center*
0 $1 length*
0 $2 width*
0 $3 Rotation angle, in degrees counterclockwise*
0 Add horizontal line*
21,1,$1,$2,0,0,$3*%
G04 Aperture macros list end*
%TA.AperFunction,Profile*%
%ADD10C,0.100000*%
%TD*%
%ADD11C,1.900000*%
%ADD12C,3.000000*%
%ADD13C,4.100000*%
%ADD14R,2.550000X2.500000*%
%ADD15C,0.650000*%
%ADD16O,1.000000X1.800000*%
%ADD17O,1.000000X2.100000*%
%ADD18RotRect,2.550000X2.500000X350.000000*%
%ADD19C,1.200000*%
%ADD20HorizOval,1.700000X-0.229431X-0.327661X0.229431X0.327661X0*%
%ADD21RotRect,2.550000X2.500000X340.000000*%
%ADD22RoundRect,0.137500X-0.137500X0.600000X-0.137500X-0.600000X0.137500X-0.600000X0.137500X0.600000X0*%
%ADD23RoundRect,0.137500X-0.600000X0.137500X-0.600000X-0.137500X0.600000X-0.137500X0.600000X0.137500X0*%
%ADD24RoundRect,0.250000X-0.625000X0.375000X-0.625000X-0.375000X0.625000X-0.375000X0.625000X0.375000X0*%
%ADD25RoundRect,0.250000X0.262500X0.450000X-0.262500X0.450000X-0.262500X-0.450000X0.262500X-0.450000X0*%
%ADD26RoundRect,0.250000X-0.262500X-0.450000X0.262500X-0.450000X0.262500X0.450000X-0.262500X0.450000X0*%
%ADD27RoundRect,0.250000X0.250000X0.475000X-0.250000X0.475000X-0.250000X-0.475000X0.250000X-0.475000X0*%
%ADD28RoundRect,0.250000X-0.475000X0.250000X-0.475000X-0.250000X0.475000X-0.250000X0.475000X0.250000X0*%
%ADD29R,0.650000X1.050000*%
%ADD30R,2.100000X1.800000*%
%ADD31RoundRect,0.250000X0.475000X-0.250000X0.475000X0.250000X-0.475000X0.250000X-0.475000X-0.250000X0*%
%ADD32RoundRect,0.250000X0.450000X-0.262500X0.450000X0.262500X-0.450000X0.262500X-0.450000X-0.262500X0*%
%ADD33RoundRect,0.250000X-0.450000X0.262500X-0.450000X-0.262500X0.450000X-0.262500X0.450000X0.262500X0*%
%ADD34RoundRect,0.250000X-0.250000X-0.475000X0.250000X-0.475000X0.250000X0.475000X-0.250000X0.475000X0*%
G04 APERTURE END LIST*
D10*
X116274472Y-100918426D02*
X101550000Y-95559156D01*
X50550000Y-30270000D02*
X34050000Y-30270000D01*
X34050000Y-30270000D02*
X34050000Y-34645000D01*
X109006494Y-38645000D02*
X101550000Y-38645000D01*
X114740558Y-42660035D02*
X101550000Y-61498104D01*
X35550000Y-87645000D02*
X35550000Y-83270000D01*
X88214983Y-109860807D02*
X110118110Y-117832893D01*
X35550000Y-83270000D02*
X52050000Y-83270000D01*
X110118110Y-117832893D02*
X116274472Y-100918426D01*
X68550000Y-31145000D02*
X85050000Y-31145000D01*
X34050000Y-34645000D02*
X17550000Y-34645000D01*
X61275000Y-79770000D02*
X61275000Y-107770000D01*
X61275000Y-107770000D02*
X76357429Y-107770000D01*
X17550000Y-87645000D02*
X35550000Y-87645000D01*
X50550000Y-26770000D02*
X50550000Y-30270000D01*
X101550000Y-95559156D02*
X101550000Y-61498104D01*
X65050000Y-26770000D02*
X68550000Y-26770000D01*
X76357429Y-107770000D02*
X88214983Y-109860807D01*
X65050000Y-26770000D02*
X65050000Y-18470000D01*
X17550000Y-34645000D02*
X17550000Y-87645000D01*
X85050000Y-31145000D02*
X85050000Y-34645000D01*
X109006494Y-38645000D02*
X114740558Y-42660035D01*
X54050000Y-26770000D02*
X54050000Y-18470000D01*
X50550000Y-26770000D02*
X54050000Y-26770000D01*
X54050000Y-18470000D02*
X65050000Y-18470000D01*
X101550000Y-38645000D02*
X101550000Y-34645000D01*
X68550000Y-26770000D02*
X68550000Y-31145000D01*
X101550000Y-34645000D02*
X85050000Y-34645000D01*
X52050000Y-83270000D02*
X52050000Y-79770000D01*
X52050000Y-79770000D02*
X61275000Y-79770000D01*
D11*
%TO.C,SW15*%
X97650000Y-78660000D03*
D12*
X88760000Y-76120000D03*
D13*
X92570000Y-78660000D03*
D11*
X87490000Y-78660000D03*
D12*
X95110000Y-73580000D03*
D14*
X85485000Y-76120000D03*
X98412000Y-73580000D03*
%TD*%
D15*
%TO.C,J1*%
X62450000Y-23520000D03*
X56670000Y-23520000D03*
D16*
X55240000Y-19840000D03*
D17*
X63880000Y-24020000D03*
X55240000Y-24020000D03*
D16*
X63880000Y-19840000D03*
%TD*%
D11*
%TO.C,SW7*%
X37980000Y-56770000D03*
D12*
X39250000Y-54230000D03*
X45600000Y-51690000D03*
D11*
X48140000Y-56770000D03*
D13*
X43060000Y-56770000D03*
D14*
X35975000Y-54230000D03*
X48902000Y-51690000D03*
%TD*%
D11*
%TO.C,SW3*%
X64640000Y-35750000D03*
D12*
X63370000Y-38290000D03*
D11*
X54480000Y-35750000D03*
D13*
X59560000Y-35750000D03*
D12*
X57020000Y-40830000D03*
D14*
X66645000Y-38290000D03*
X53718000Y-40830000D03*
%TD*%
D11*
%TO.C,SW6*%
X31650000Y-61160000D03*
X21490000Y-61160000D03*
D12*
X22760000Y-58620000D03*
D13*
X26570000Y-61160000D03*
D12*
X29110000Y-56080000D03*
D14*
X19485000Y-58620000D03*
X32412000Y-56080000D03*
%TD*%
D11*
%TO.C,SW17*%
X82827177Y-99767867D03*
D12*
X91141051Y-103813011D03*
X84446456Y-105211757D03*
D13*
X87830000Y-100650000D03*
D11*
X92832823Y-101532133D03*
D18*
X94366297Y-104381709D03*
X81194620Y-104638371D03*
%TD*%
D12*
%TO.C,SW14*%
X72230000Y-72590000D03*
X78580000Y-70050000D03*
D11*
X81120000Y-75130000D03*
X70960000Y-75130000D03*
D13*
X76040000Y-75130000D03*
D14*
X68955000Y-72590000D03*
X81882000Y-70050000D03*
%TD*%
D12*
%TO.C,SW9*%
X72240000Y-55110000D03*
D13*
X76050000Y-57650000D03*
D12*
X78590000Y-52570000D03*
D11*
X81130000Y-57650000D03*
X70970000Y-57650000D03*
D14*
X68965000Y-55110000D03*
X81892000Y-52570000D03*
%TD*%
D12*
%TO.C,SW8*%
X55765000Y-50710000D03*
D13*
X59575000Y-53250000D03*
D11*
X64655000Y-53250000D03*
X54495000Y-53250000D03*
D12*
X62115000Y-48170000D03*
D14*
X52490000Y-50710000D03*
X65417000Y-48170000D03*
%TD*%
D19*
%TO.C,J2*%
X107016274Y-47577401D03*
X111031309Y-41843337D03*
D20*
X103403253Y-49076093D03*
X111719091Y-44522321D03*
X109998362Y-46979777D03*
X107704056Y-50256386D03*
%TD*%
D12*
%TO.C,SW10*%
X95090000Y-56070000D03*
D13*
X92550000Y-61150000D03*
D11*
X97630000Y-61150000D03*
D12*
X88740000Y-58610000D03*
D11*
X87470000Y-61150000D03*
D14*
X85465000Y-58610000D03*
X98392000Y-56070000D03*
%TD*%
D11*
%TO.C,SW11*%
X31640000Y-78650000D03*
D12*
X22750000Y-76110000D03*
D13*
X26560000Y-78650000D03*
D12*
X29100000Y-73570000D03*
D11*
X21480000Y-78650000D03*
D14*
X19475000Y-76110000D03*
X32402000Y-73570000D03*
%TD*%
D11*
%TO.C,SW1*%
X31630000Y-43640000D03*
D13*
X26550000Y-43640000D03*
D11*
X21470000Y-43640000D03*
D12*
X22740000Y-41100000D03*
X29090000Y-38560000D03*
D14*
X19465000Y-41100000D03*
X32392000Y-38560000D03*
%TD*%
D12*
%TO.C,SW12*%
X45610000Y-69200000D03*
D11*
X37990000Y-74280000D03*
X48150000Y-74280000D03*
D13*
X43070000Y-74280000D03*
D12*
X39260000Y-71740000D03*
D14*
X35985000Y-71740000D03*
X48912000Y-69200000D03*
%TD*%
D11*
%TO.C,SW5*%
X97655000Y-43640000D03*
D12*
X90035000Y-48720000D03*
X96385000Y-46180000D03*
D13*
X92575000Y-43640000D03*
D11*
X87495000Y-43640000D03*
D14*
X99660000Y-46180000D03*
X86733000Y-48720000D03*
%TD*%
D11*
%TO.C,SW2*%
X48140000Y-39260000D03*
D12*
X39250000Y-36720000D03*
D13*
X43060000Y-39260000D03*
D12*
X45600000Y-34180000D03*
D11*
X37980000Y-39260000D03*
D14*
X35975000Y-36720000D03*
X48902000Y-34180000D03*
%TD*%
D12*
%TO.C,SW13*%
X62110000Y-65700000D03*
D13*
X59570000Y-70780000D03*
D12*
X55760000Y-68240000D03*
D11*
X64650000Y-70780000D03*
X54490000Y-70780000D03*
D14*
X52485000Y-68240000D03*
X65412000Y-65700000D03*
%TD*%
D11*
%TO.C,SW16*%
X65180000Y-98780000D03*
D12*
X67720000Y-103860000D03*
D13*
X70260000Y-98780000D03*
D12*
X74070000Y-101320000D03*
D11*
X75340000Y-98780000D03*
D14*
X77345000Y-101320000D03*
X64418000Y-103860000D03*
%TD*%
D11*
%TO.C,SW4*%
X70980000Y-40170000D03*
X81140000Y-40170000D03*
D13*
X76060000Y-40170000D03*
D12*
X79870000Y-42710000D03*
X73520000Y-45250000D03*
D14*
X83145000Y-42710000D03*
X70218000Y-45250000D03*
%TD*%
D11*
%TO.C,SW18*%
X99966361Y-104552538D03*
X109513639Y-108027462D03*
D13*
X104740000Y-106290000D03*
D12*
X107451498Y-109979916D03*
X100615718Y-110194907D03*
D21*
X110528991Y-111100032D03*
X97512853Y-109065557D03*
%TD*%
D22*
%TO.C,U1*%
X72590000Y-82167500D03*
X73390000Y-82167500D03*
X74190000Y-82167500D03*
X74990000Y-82167500D03*
X75790000Y-82167500D03*
X76590000Y-82167500D03*
X77390000Y-82167500D03*
X78190000Y-82167500D03*
X78990000Y-82167500D03*
X79790000Y-82167500D03*
X80590000Y-82167500D03*
D23*
X82252500Y-83830000D03*
X82252500Y-84630000D03*
X82252500Y-85430000D03*
X82252500Y-86230000D03*
X82252500Y-87030000D03*
X82252500Y-87830000D03*
X82252500Y-88630000D03*
X82252500Y-89430000D03*
X82252500Y-90230000D03*
X82252500Y-91030000D03*
X82252500Y-91830000D03*
D22*
X80590000Y-93492500D03*
X79790000Y-93492500D03*
X78990000Y-93492500D03*
X78190000Y-93492500D03*
X77390000Y-93492500D03*
X76590000Y-93492500D03*
X75790000Y-93492500D03*
X74990000Y-93492500D03*
X74190000Y-93492500D03*
X73390000Y-93492500D03*
X72590000Y-93492500D03*
D23*
X70927500Y-91830000D03*
X70927500Y-91030000D03*
X70927500Y-90230000D03*
X70927500Y-89430000D03*
X70927500Y-88630000D03*
X70927500Y-87830000D03*
X70927500Y-87030000D03*
X70927500Y-86230000D03*
X70927500Y-85430000D03*
X70927500Y-84630000D03*
X70927500Y-83830000D03*
%TD*%
D24*
%TO.C,F1*%
X52860000Y-29620000D03*
X52860000Y-32420000D03*
%TD*%
D25*
%TO.C,R5*%
X67072500Y-94270000D03*
X65247500Y-94270000D03*
%TD*%
D26*
%TO.C,R1*%
X71927500Y-36010000D03*
X73752500Y-36010000D03*
%TD*%
D27*
%TO.C,C5*%
X66210000Y-76910000D03*
X64310000Y-76910000D03*
%TD*%
D28*
%TO.C,C7*%
X88500000Y-89780000D03*
X88500000Y-91680000D03*
%TD*%
D26*
%TO.C,R2*%
X71917500Y-33310000D03*
X73742500Y-33310000D03*
%TD*%
D29*
%TO.C,RESET1*%
X99010000Y-86820000D03*
X99010000Y-82660000D03*
X96850000Y-86820000D03*
X96850000Y-82660000D03*
%TD*%
D30*
%TO.C,Y1*%
X95210000Y-91960000D03*
X92310000Y-91960000D03*
X92310000Y-89760000D03*
X95210000Y-89760000D03*
%TD*%
D28*
%TO.C,C4*%
X66370000Y-86740000D03*
X66370000Y-88640000D03*
%TD*%
D31*
%TO.C,C2*%
X83740000Y-96450000D03*
X83740000Y-94550000D03*
%TD*%
D32*
%TO.C,R6*%
X92540000Y-86662500D03*
X92540000Y-84837500D03*
%TD*%
D28*
%TO.C,C6*%
X98790000Y-90090000D03*
X98790000Y-91990000D03*
%TD*%
D33*
%TO.C,R4*%
X67780000Y-59697500D03*
X67780000Y-61522500D03*
%TD*%
%TO.C,R3*%
X64770000Y-59647500D03*
X64770000Y-61472500D03*
%TD*%
D28*
%TO.C,C3*%
X87890000Y-83940000D03*
X87890000Y-85840000D03*
%TD*%
D34*
%TO.C,C1*%
X75960000Y-65630000D03*
X77860000Y-65630000D03*
%TD*%
M02*
