M48
; DRILL file {KiCad (6.0.6)} date 2022年11月13日 11時43分20秒
; FORMAT={-:-/ absolute / metric / decimal}
; #@! TF.CreationDate,2022-11-13T11:43:20+09:00
; #@! TF.GenerationSoftware,Kicad,Pcbnew,(6.0.6)
; #@! TF.FileFunction,Plated,1,2,PTH
FMAT,2
METRIC
; #@! TA.AperFunction,Plated,PTH,ViaDrill
T1C0.400
; #@! TA.AperFunction,Plated,PTH,ComponentDrill
T2C0.600
; #@! TA.AperFunction,Plated,PTH,ComponentDrill
T3C1.000
%
G90
G05
T1
X23.5Y-99.0
X35.367Y-95.33
X37.25Y-78.25
X37.84Y-87.98
X37.96Y-86.204
X38.36Y-89.36
X38.58Y-85.42
X38.88Y-87.13
X39.0Y-63.5
X39.7Y-84.7
X40.5Y-80.25
X40.683Y-51.423
X41.2Y-52.56
X43.25Y-93.76
X43.879Y-78.621
X44.5Y-85.75
X45.84Y-72.93
X46.328Y-94.253
X47.33Y-55.54
X47.42Y-94.09
X48.403Y-55.492
X48.752Y-78.362
X48.82Y-93.76
X50.26Y-78.06
X50.786Y-75.789
X51.32Y-46.05
X51.392Y-77.952
X51.47Y-47.5
X52.59Y-64.5
X52.652Y-77.832
X54.01Y-77.84
X54.331Y-88.01
X54.78Y-83.85
X55.36Y-77.7
X56.17Y-91.89
X56.206Y-90.49
X56.29Y-81.6
X57.788Y-88.552
X58.072Y-86.788
X60.55Y-64.67
X60.71Y-81.38
X61.25Y-59.0
X65.445Y-43.24
X67.61Y-43.53
X67.863Y-61.103
X70.5Y-52.5
X71.35Y-24.4
X72.878Y-28.488
X72.885Y-25.17
X74.847Y-27.204
X75.77Y-25.72
X76.02Y-24.4
X78.9Y-24.85
X82.705Y-39.045
X83.21Y-48.07
X97.41Y-69.94
X98.915Y-69.843
X101.005Y-68.495
X101.058Y-67.332
T2
G00X69.54Y-17.07
M15
G01X69.54Y-16.27
M16
G05
G00X69.54Y-21.4
M15
G01X69.54Y-20.3
M16
G05
G00X78.18Y-17.07
M15
G01X78.18Y-16.27
M16
G05
G00X78.18Y-21.4
M15
G01X78.18Y-20.3
M16
G05
T3
G00X24.964Y-38.728
M15
G01X25.251Y-39.137
M16
G05
G00X26.399Y-48.099
M15
G01X26.686Y-48.509
M16
G05
G00X26.685Y-41.185
M15
G01X26.971Y-41.595
M16
G05
G00X28.979Y-44.462
M15
G01X29.266Y-44.871
M16
G05
T0
M30
