M48
METRIC,TZ
T1C1.200
T2C1.700
T3C1.900
T4C3.000
T5C4.000
T6C4.100
T7C4.500
%
G90
G05
T1
X111460Y-72875
X111460Y-74625
X118460Y-72875
X118460Y-74625
T2
X70290Y-89080
X80450Y-89080
X87601Y-89756
X97705Y-90818
X104940Y-93010
X114798Y-95468
T3
X24960Y-33930
X24960Y-51460
X24970Y-68960
X35120Y-33930
X35120Y-51460
X35130Y-68960
X43090Y-33950
X43100Y-51450
X43100Y-68940
X53250Y-33950
X53260Y-51450
X53260Y-68940
X59630Y-33950
X59630Y-51460
X59660Y-68980
X69790Y-33950
X69790Y-51460
X69820Y-68980
X69870Y-89080
X76080Y-68960
X76090Y-51460
X76100Y-33930
X80870Y-89080
X86240Y-68960
X86250Y-51460
X86260Y-33930
X87183Y-89712
X92590Y-68960
X92600Y-51470
X92610Y-33960
X98123Y-90862
X102750Y-68960
X102760Y-51470
X102770Y-33960
X104532Y-92908
X115206Y-95570
T4
X26230Y-31390
X26230Y-48920
X26240Y-66420
X27500Y-28850
X27500Y-46380
X27510Y-63880
X32580Y-28850
X32580Y-46380
X32590Y-63880
X33850Y-31390
X33850Y-48920
X33860Y-66420
X44360Y-31410
X44370Y-48910
X44370Y-66400
X45630Y-28870
X45640Y-46370
X45640Y-63860
X50710Y-28870
X50720Y-46370
X50720Y-63860
X51980Y-31410
X51990Y-48910
X51990Y-66400
X60900Y-31410
X60900Y-48920
X60930Y-66440
X62170Y-28870
X62170Y-46380
X62200Y-63900
X67250Y-28870
X67250Y-46380
X67280Y-63900
X68520Y-31410
X68520Y-48920
X68550Y-66440
X70370Y-92780
X71560Y-86540
X72830Y-84000
X75370Y-94980
X77350Y-66420
X77360Y-48920
X77370Y-31390
X77910Y-84000
X78620Y-63880
X78630Y-46380
X78640Y-28850
X79180Y-86540
X80370Y-92780
X83700Y-63880
X83710Y-46380
X83720Y-28850
X84970Y-66420
X84980Y-48920
X84990Y-31390
X87294Y-93444
X89129Y-87362
X90658Y-84969
X92036Y-96154
X93860Y-66420
X93870Y-48930
X93880Y-31420
X95130Y-63880
X95140Y-46390
X95150Y-28880
X95710Y-85500
X96708Y-88159
X97239Y-94489
X100210Y-63880
X100220Y-46390
X100230Y-28880
X101480Y-66420
X101490Y-48930
X101500Y-31420
X104123Y-96619
X106787Y-90853
X108442Y-99964
X108634Y-88695
X113563Y-89924
X113825Y-99039
X114180Y-92696
T5
X75370Y-89080
X92653Y-90287
X109869Y-94239
T6
X30040Y-33930
X30040Y-51460
X30050Y-68960
X48170Y-33950
X48180Y-51450
X48180Y-68940
X64710Y-33950
X64710Y-51460
X64740Y-68980
X81160Y-68960
X81170Y-51460
X81180Y-33930
X97670Y-68960
X97680Y-51470
X97690Y-33960
T7
X30040Y-23950
X52020Y-80950
X53040Y-95600
X97680Y-23950
X112800Y-84690
T0
M30
