%TF.GenerationSoftware,KiCad,Pcbnew,(6.0.6)*%
%TF.CreationDate,2022-09-17T23:41:45+09:00*%
%TF.ProjectId,split-mini,73706c69-742d-46d6-996e-692e6b696361,rev?*%
%TF.SameCoordinates,Original*%
%TF.FileFunction,Legend,Top*%
%TF.FilePolarity,Positive*%
%FSLAX46Y46*%
G04 Gerber Fmt 4.6, Leading zero omitted, Abs format (unit mm)*
G04 Created by KiCad (PCBNEW (6.0.6)) date 2022-09-17 23:41:45*
%MOMM*%
%LPD*%
G01*
G04 APERTURE LIST*
G04 Aperture macros list*
%AMRotRect*
0 Rectangle, with rotation*
0 The origin of the aperture is its center*
0 $1 length*
0 $2 width*
0 $3 Rotation angle, in degrees counterclockwise*
0 Add horizontal line*
21,1,$1,$2,0,0,$3*%
G04 Aperture macros list end*
%TA.AperFunction,Profile*%
%ADD10C,0.349999*%
%TD*%
%ADD11C,0.300000*%
%ADD12C,0.100000*%
%ADD13C,0.150000*%
%ADD14C,0.500000*%
%ADD15C,0.120000*%
%ADD16C,1.200000*%
%ADD17O,2.500000X1.700000*%
%ADD18C,1.600000*%
%ADD19C,0.350000*%
%ADD20C,0.300000*%
%ADD21O,1.500000X1.000000*%
%ADD22R,1.300000X0.950000*%
%ADD23C,1.900000*%
%ADD24C,3.000000*%
%ADD25C,4.100000*%
%ADD26R,2.300000X2.000000*%
%ADD27C,4.500000*%
%ADD28C,4.000000*%
%ADD29C,1.700000*%
%ADD30R,2.000000X2.000000*%
%ADD31R,1.800000X2.000000*%
%ADD32RotRect,1.900000X2.000000X166.000000*%
%ADD33RotRect,2.000000X2.000000X166.000000*%
%ADD34RotRect,1.800000X2.000000X166.000000*%
%ADD35RotRect,2.000000X2.000000X174.000000*%
%ADD36RotRect,1.800000X2.000000X174.000000*%
G04 APERTURE END LIST*
D10*
X120734058Y-85321050D02*
X120746346Y-84517181D01*
X94563467Y-99773630D02*
X95006416Y-99879974D01*
X21067121Y-99747413D02*
X21097288Y-99856121D01*
X95006416Y-99879974D02*
X95006416Y-99879974D01*
X106613959Y-23464589D02*
X106588365Y-23321274D01*
X21022792Y-99525582D02*
X21042263Y-99637170D01*
X21450528Y-100558221D02*
X21520346Y-100647842D01*
X23314208Y-21027240D02*
X23182826Y-21050152D01*
X120663178Y-69673555D02*
X120617953Y-69555976D01*
X120429619Y-69232038D02*
X120350533Y-69135311D01*
X116257734Y-104147387D02*
X116337281Y-104072331D01*
X65730083Y-98890289D02*
X65730083Y-98890289D01*
X104737877Y-21174101D02*
X104602654Y-21128344D01*
X120306060Y-89309528D02*
X120440307Y-88517806D01*
X106647491Y-64950611D02*
X106647491Y-23907794D01*
X114417834Y-104707695D02*
X114531519Y-104721167D01*
X22319756Y-101272024D02*
X22422725Y-101317646D01*
X21325017Y-100370023D02*
X21385392Y-100465551D01*
X116831755Y-103339065D02*
X116873233Y-103232363D01*
X114869318Y-104727193D02*
X114980256Y-104718084D01*
X116678483Y-103640152D02*
X116734207Y-103543064D01*
X21793434Y-21793513D02*
X21700478Y-21891184D01*
X106069327Y-22166530D02*
X105982931Y-22056589D01*
X105588428Y-21662081D02*
X105478488Y-21575683D01*
X104870037Y-21226211D02*
X104737877Y-21174101D01*
X79268402Y-98118347D02*
X79619825Y-98120645D01*
X119962618Y-68817891D02*
X119849615Y-68758387D01*
X120725055Y-69920137D02*
X120699003Y-69795107D01*
X21042263Y-99637170D02*
X21067121Y-99747413D01*
X120699003Y-69795107D02*
X120663178Y-69673555D01*
X81724553Y-98230937D02*
X82074291Y-98265381D01*
X119606995Y-68666672D02*
X106647491Y-64950611D01*
X21218860Y-100171147D02*
X21269480Y-100271825D01*
X21049932Y-23182830D02*
X21027007Y-23314210D01*
X23078052Y-101482078D02*
X23191759Y-101490535D01*
X20997490Y-99184639D02*
X21000327Y-99299127D01*
X115907617Y-104406218D02*
X115999590Y-104347927D01*
X105694026Y-21753553D02*
X105588428Y-21662081D01*
X105891460Y-21950990D02*
X105795097Y-21849917D01*
X23306244Y-101493370D02*
X54168747Y-101493347D01*
X23715622Y-20997488D02*
X23715622Y-20997488D01*
X21992830Y-21612950D02*
X21891115Y-21700567D01*
X57823814Y-101011581D02*
X57823814Y-101011581D01*
X120746346Y-84517181D02*
X120746346Y-70178646D01*
X120563702Y-69442866D02*
X120500800Y-69334721D01*
X120744992Y-70113118D02*
X120740961Y-70048149D01*
X21114721Y-22925043D02*
X21079201Y-23053033D01*
X21000556Y-23580829D02*
X20997215Y-23715622D01*
X93224898Y-99501293D02*
X93672605Y-99584271D01*
X115411094Y-104628832D02*
X115514710Y-104593834D01*
X116618357Y-103733828D02*
X116678483Y-103640152D01*
X55553294Y-101425245D02*
X56012088Y-101372398D01*
X21932681Y-101040365D02*
X22025351Y-101105499D01*
X79971141Y-98127542D02*
X80322305Y-98139037D01*
X94118828Y-99675056D02*
X94563467Y-99773630D01*
X119965073Y-90880112D02*
X120147626Y-90097149D01*
X21520346Y-100647842D02*
X21594767Y-100734227D01*
X21843058Y-100970549D02*
X21932681Y-101040365D01*
X116413290Y-103993343D02*
X116485588Y-103910527D01*
X114980256Y-104718084D02*
X115090076Y-104703590D01*
X92325451Y-99358830D02*
X92775813Y-99426140D01*
X119790967Y-68731954D02*
X119730949Y-68707815D01*
X22207471Y-21454070D02*
X22098356Y-21530754D01*
X103737228Y-20997492D02*
X23715622Y-20997488D01*
X116088715Y-104285289D02*
X116174821Y-104218407D01*
X105982931Y-22056589D02*
X105891460Y-21950990D01*
X104034787Y-21012522D02*
X103886991Y-21001281D01*
X116337281Y-104072331D02*
X116413290Y-103993343D01*
X22634779Y-101393589D02*
X22743485Y-101423753D01*
X23182826Y-21050152D02*
X23053027Y-21079407D01*
X21156400Y-22799082D02*
X21114721Y-22925043D01*
X21700478Y-21891184D02*
X21612850Y-21992890D01*
X105364387Y-21494542D02*
X105246308Y-21418842D01*
X22435573Y-21317612D02*
X22319950Y-21382992D01*
X69367896Y-98227495D02*
X70105548Y-98166918D01*
X22925033Y-21114915D02*
X22799069Y-21156581D01*
X103737228Y-20997492D02*
X103737228Y-20997492D01*
X115812969Y-104460058D02*
X115907617Y-104406218D01*
X54631255Y-101485768D02*
X55092893Y-101463051D01*
X82074291Y-98265381D02*
X91421310Y-99247810D01*
X104464550Y-21089126D02*
X104323750Y-21056627D01*
X21010518Y-23446950D02*
X21000556Y-23580829D01*
X104180434Y-21031031D02*
X104034787Y-21012522D01*
X119606995Y-68666672D02*
X119606995Y-68666672D01*
X22098356Y-21530754D02*
X21992830Y-21612950D01*
X115514710Y-104593834D02*
X115616343Y-104553970D01*
X21453948Y-22207514D02*
X21382859Y-22319987D01*
X106418789Y-22774986D02*
X106360509Y-22646071D01*
X106470898Y-22907146D02*
X106418789Y-22774986D01*
X80322305Y-98139037D02*
X80673272Y-98155126D01*
X21673714Y-100817184D02*
X21673714Y-100817184D01*
X106643705Y-23758032D02*
X106632466Y-23610236D01*
X55092893Y-101463051D02*
X55553294Y-101425245D01*
X80673272Y-98155126D02*
X81023999Y-98175807D01*
X105246308Y-21418842D02*
X105124435Y-21348765D01*
X106647491Y-64950611D02*
X106647491Y-64950611D01*
X57823814Y-101011581D02*
X65730083Y-98890289D01*
X56468906Y-101304560D02*
X56923379Y-101221779D01*
X79268402Y-98118347D02*
X79268402Y-98118347D01*
X106296240Y-22520586D02*
X106226164Y-22398712D01*
X70105548Y-98166918D02*
X70845185Y-98130517D01*
X116940735Y-103010071D02*
X116940735Y-103010071D01*
X54168747Y-101493347D02*
X54168747Y-101493347D01*
X119730949Y-68707815D02*
X119669610Y-68686034D01*
X106647491Y-23907794D02*
X106643705Y-23758032D01*
X21204145Y-22675373D02*
X21156400Y-22799082D01*
X116554001Y-103823988D02*
X116618357Y-103733828D01*
X56012088Y-101372398D02*
X56468906Y-101304560D01*
X57375138Y-101124103D02*
X57823814Y-101011581D01*
X120746346Y-70178646D02*
X120744992Y-70113118D01*
X67900910Y-98420864D02*
X68632820Y-98312169D01*
X21000327Y-99299127D02*
X21008788Y-99412838D01*
X23053027Y-21079407D02*
X22925033Y-21114915D01*
X91421310Y-99247810D02*
X91873916Y-99299381D01*
X71586216Y-98118370D02*
X71586216Y-98118370D01*
X21382859Y-22319987D02*
X21317467Y-22435603D01*
X20997490Y-99184639D02*
X20997490Y-99184639D01*
X21673714Y-100817184D02*
X21756673Y-100896129D01*
X114189873Y-104662933D02*
X114189873Y-104662933D01*
X21612850Y-21992890D02*
X21530643Y-22098408D01*
X23191759Y-101490535D02*
X23306244Y-101493370D01*
X82074291Y-98265381D02*
X82074291Y-98265381D01*
X115090076Y-104703590D02*
X115198604Y-104683814D01*
X21891115Y-21700567D02*
X21793434Y-21793513D01*
X106632466Y-23610236D02*
X106613959Y-23464589D01*
X92775813Y-99426140D02*
X93224898Y-99501293D01*
X120697243Y-86123603D02*
X120734058Y-85321050D01*
X22965311Y-101468076D02*
X23078052Y-101482078D01*
X114757434Y-104730812D02*
X114869318Y-104727193D01*
X21756673Y-100896129D02*
X21843058Y-100970549D01*
X116940735Y-103010071D02*
X119965073Y-90880112D01*
X120734300Y-69983801D02*
X120725055Y-69920137D01*
X119669610Y-68686034D02*
X119606995Y-68666672D01*
X23580829Y-21000816D02*
X23446950Y-21010763D01*
X115999590Y-104347927D02*
X116088715Y-104285289D01*
X106226164Y-22398712D02*
X106150466Y-22280632D01*
X81374440Y-98201078D02*
X81724553Y-98230937D01*
X104998950Y-21284494D02*
X104870037Y-21226211D01*
X22120879Y-101165872D02*
X22219077Y-101221407D01*
X116485588Y-103910527D02*
X116554001Y-103823988D01*
X21079201Y-23053033D02*
X21049932Y-23182830D01*
X23446950Y-21010763D02*
X23314208Y-21027240D01*
X116909617Y-103122663D02*
X116940735Y-103010071D01*
X22554116Y-21258022D02*
X22435573Y-21317612D01*
X120147626Y-90097149D02*
X120306060Y-89309528D01*
X21530643Y-22098408D02*
X21453948Y-22207514D01*
X106588365Y-23321274D02*
X106555869Y-23180473D01*
X120635967Y-86924286D02*
X120697243Y-86123603D01*
X116873233Y-103232363D02*
X116909617Y-103122663D01*
X68632820Y-98312169D02*
X69367896Y-98227495D01*
X22743485Y-101423753D02*
X22853726Y-101448609D01*
X120440307Y-88517806D02*
X120550299Y-87722539D01*
X22527796Y-101358194D02*
X22634779Y-101393589D01*
X21132686Y-99963106D02*
X21173236Y-100068177D01*
X22025351Y-101105499D02*
X22120879Y-101165872D01*
X95006416Y-99879974D02*
X114189873Y-104662933D01*
X21385392Y-100465551D02*
X21450528Y-100558221D01*
X21008788Y-99412838D02*
X21022792Y-99525582D01*
X115198604Y-104683814D02*
X115305668Y-104658860D01*
X67172756Y-98553501D02*
X67900910Y-98420864D01*
X106150466Y-22280632D02*
X106069327Y-22166530D01*
X21097288Y-99856121D02*
X21132686Y-99963106D01*
X120500800Y-69334721D02*
X120429619Y-69232038D01*
X21027007Y-23314210D02*
X21010518Y-23446950D01*
X116174821Y-104218407D02*
X116257734Y-104147387D01*
X120263917Y-69045037D02*
X120170143Y-68961712D01*
X70845185Y-98130517D02*
X71586216Y-98118370D01*
X91421310Y-99247810D02*
X91421310Y-99247810D01*
X22675355Y-21204314D02*
X22554116Y-21258022D01*
X21257865Y-22554139D02*
X21204145Y-22675373D01*
X22422725Y-101317646D02*
X22527796Y-101358194D01*
X114644776Y-104728838D02*
X114757434Y-104730812D01*
X116734207Y-103543064D02*
X116785355Y-103442667D01*
X120350533Y-69135311D02*
X120263917Y-69045037D01*
X120550299Y-87722539D02*
X120635967Y-86924286D01*
X21594767Y-100734227D02*
X21673714Y-100817184D01*
X106360509Y-22646071D02*
X106296240Y-22520586D01*
X79619825Y-98120645D02*
X79971141Y-98127542D01*
X115715821Y-104509343D02*
X115812969Y-104460058D01*
X120746346Y-70178646D02*
X120746346Y-70178646D01*
X20997215Y-23715622D02*
X20997215Y-23715622D01*
X104323750Y-21056627D02*
X104180434Y-21031031D01*
X71586216Y-98118370D02*
X79268402Y-98118347D01*
X105795097Y-21849917D02*
X105694026Y-21753553D01*
X119849615Y-68758387D02*
X119790967Y-68731954D01*
X54168747Y-101493347D02*
X54631255Y-101485768D01*
X116785355Y-103442667D02*
X116831755Y-103339065D01*
X120170143Y-68961712D02*
X120069586Y-68885831D01*
X66448951Y-98710002D02*
X67172756Y-98553501D01*
X104602654Y-21128344D02*
X104464550Y-21089126D01*
X114189873Y-104662933D02*
X114303894Y-104688319D01*
X22799069Y-21156581D02*
X22675355Y-21204314D01*
X120746346Y-84517181D02*
X120746346Y-84517181D01*
X120617953Y-69555976D02*
X120563702Y-69442866D01*
X114303894Y-104688319D02*
X114417834Y-104707695D01*
X106555869Y-23180473D02*
X106516652Y-23042369D01*
X65730083Y-98890289D02*
X66448951Y-98710002D01*
X81023999Y-98175807D02*
X81374440Y-98201078D01*
X21173236Y-100068177D02*
X21218860Y-100171147D01*
X115616343Y-104553970D02*
X115715821Y-104509343D01*
X106516652Y-23042369D02*
X106470898Y-22907146D01*
X23715622Y-20997488D02*
X23580829Y-21000816D01*
X120740961Y-70048149D02*
X120734300Y-69983801D01*
X22219077Y-101221407D02*
X22319756Y-101272024D01*
X56923379Y-101221779D02*
X57375138Y-101124103D01*
X103886991Y-21001281D02*
X103737228Y-20997492D01*
X22853726Y-101448609D02*
X22965311Y-101468076D01*
X105478488Y-21575683D02*
X105364387Y-21494542D01*
X119965073Y-90880112D02*
X119965073Y-90880112D01*
X105124435Y-21348765D02*
X104998950Y-21284494D01*
X21793434Y-21793513D02*
X21793434Y-21793513D01*
X93672605Y-99584271D02*
X94118828Y-99675056D01*
X21317467Y-22435603D02*
X21257865Y-22554139D01*
X20997215Y-23715622D02*
X20997490Y-99184639D01*
X23306244Y-101493370D02*
X23306244Y-101493370D01*
X22319950Y-21382992D02*
X22207471Y-21454070D01*
X91873916Y-99299381D02*
X92325451Y-99358830D01*
X120069586Y-68885831D02*
X119962618Y-68817891D01*
X21269480Y-100271825D02*
X21325017Y-100370023D01*
X115305668Y-104658860D02*
X115411094Y-104628832D01*
X114531519Y-104721167D02*
X114644776Y-104728838D01*
D11*
X60097142Y-58119714D02*
X60211428Y-58176857D01*
X60440000Y-58176857D01*
X60554285Y-58119714D01*
X60611428Y-58005428D01*
X60611428Y-57948285D01*
X60554285Y-57834000D01*
X60440000Y-57776857D01*
X60268571Y-57776857D01*
X60154285Y-57719714D01*
X60097142Y-57605428D01*
X60097142Y-57548285D01*
X60154285Y-57434000D01*
X60268571Y-57376857D01*
X60440000Y-57376857D01*
X60554285Y-57434000D01*
X61125714Y-57376857D02*
X61125714Y-58576857D01*
X61125714Y-57434000D02*
X61240000Y-57376857D01*
X61468571Y-57376857D01*
X61582857Y-57434000D01*
X61640000Y-57491142D01*
X61697142Y-57605428D01*
X61697142Y-57948285D01*
X61640000Y-58062571D01*
X61582857Y-58119714D01*
X61468571Y-58176857D01*
X61240000Y-58176857D01*
X61125714Y-58119714D01*
X62382857Y-58176857D02*
X62268571Y-58119714D01*
X62211428Y-58005428D01*
X62211428Y-56976857D01*
X62840000Y-58176857D02*
X62840000Y-57376857D01*
X62840000Y-56976857D02*
X62782857Y-57034000D01*
X62840000Y-57091142D01*
X62897142Y-57034000D01*
X62840000Y-56976857D01*
X62840000Y-57091142D01*
X63240000Y-57376857D02*
X63697142Y-57376857D01*
X63411428Y-56976857D02*
X63411428Y-58005428D01*
X63468571Y-58119714D01*
X63582857Y-58176857D01*
X63697142Y-58176857D01*
X65011428Y-58176857D02*
X65011428Y-57376857D01*
X65011428Y-57491142D02*
X65068571Y-57434000D01*
X65182857Y-57376857D01*
X65354285Y-57376857D01*
X65468571Y-57434000D01*
X65525714Y-57548285D01*
X65525714Y-58176857D01*
X65525714Y-57548285D02*
X65582857Y-57434000D01*
X65697142Y-57376857D01*
X65868571Y-57376857D01*
X65982857Y-57434000D01*
X66040000Y-57548285D01*
X66040000Y-58176857D01*
X66611428Y-58176857D02*
X66611428Y-57376857D01*
X66611428Y-56976857D02*
X66554285Y-57034000D01*
X66611428Y-57091142D01*
X66668571Y-57034000D01*
X66611428Y-56976857D01*
X66611428Y-57091142D01*
X67182857Y-57376857D02*
X67182857Y-58176857D01*
X67182857Y-57491142D02*
X67240000Y-57434000D01*
X67354285Y-57376857D01*
X67525714Y-57376857D01*
X67640000Y-57434000D01*
X67697142Y-57548285D01*
X67697142Y-58176857D01*
X68268571Y-58176857D02*
X68268571Y-57376857D01*
X68268571Y-56976857D02*
X68211428Y-57034000D01*
X68268571Y-57091142D01*
X68325714Y-57034000D01*
X68268571Y-56976857D01*
X68268571Y-57091142D01*
X69754285Y-58176857D02*
X69754285Y-57376857D01*
X69754285Y-57605428D02*
X69811428Y-57491142D01*
X69868571Y-57434000D01*
X69982857Y-57376857D01*
X70097142Y-57376857D01*
X70954285Y-58119714D02*
X70840000Y-58176857D01*
X70611428Y-58176857D01*
X70497142Y-58119714D01*
X70440000Y-58005428D01*
X70440000Y-57548285D01*
X70497142Y-57434000D01*
X70611428Y-57376857D01*
X70840000Y-57376857D01*
X70954285Y-57434000D01*
X71011428Y-57548285D01*
X71011428Y-57662571D01*
X70440000Y-57776857D01*
X71411428Y-57376857D02*
X71697142Y-58176857D01*
X71982857Y-57376857D01*
X72668571Y-56976857D02*
X72782857Y-56976857D01*
X72897142Y-57034000D01*
X72954285Y-57091142D01*
X73011428Y-57205428D01*
X73068571Y-57434000D01*
X73068571Y-57719714D01*
X73011428Y-57948285D01*
X72954285Y-58062571D01*
X72897142Y-58119714D01*
X72782857Y-58176857D01*
X72668571Y-58176857D01*
X72554285Y-58119714D01*
X72497142Y-58062571D01*
X72440000Y-57948285D01*
X72382857Y-57719714D01*
X72382857Y-57434000D01*
X72440000Y-57205428D01*
X72497142Y-57091142D01*
X72554285Y-57034000D01*
X72668571Y-56976857D01*
X73582857Y-58062571D02*
X73640000Y-58119714D01*
X73582857Y-58176857D01*
X73525714Y-58119714D01*
X73582857Y-58062571D01*
X73582857Y-58176857D01*
X74097142Y-57091142D02*
X74154285Y-57034000D01*
X74268571Y-56976857D01*
X74554285Y-56976857D01*
X74668571Y-57034000D01*
X74725714Y-57091142D01*
X74782857Y-57205428D01*
X74782857Y-57319714D01*
X74725714Y-57491142D01*
X74040000Y-58176857D01*
X74782857Y-58176857D01*
X57325714Y-60108857D02*
X57325714Y-58908857D01*
X57325714Y-60051714D02*
X57211428Y-60108857D01*
X56982857Y-60108857D01*
X56868571Y-60051714D01*
X56811428Y-59994571D01*
X56754285Y-59880285D01*
X56754285Y-59537428D01*
X56811428Y-59423142D01*
X56868571Y-59366000D01*
X56982857Y-59308857D01*
X57211428Y-59308857D01*
X57325714Y-59366000D01*
X58354285Y-60051714D02*
X58240000Y-60108857D01*
X58011428Y-60108857D01*
X57897142Y-60051714D01*
X57840000Y-59937428D01*
X57840000Y-59480285D01*
X57897142Y-59366000D01*
X58011428Y-59308857D01*
X58240000Y-59308857D01*
X58354285Y-59366000D01*
X58411428Y-59480285D01*
X58411428Y-59594571D01*
X57840000Y-59708857D01*
X58868571Y-60051714D02*
X58982857Y-60108857D01*
X59211428Y-60108857D01*
X59325714Y-60051714D01*
X59382857Y-59937428D01*
X59382857Y-59880285D01*
X59325714Y-59766000D01*
X59211428Y-59708857D01*
X59040000Y-59708857D01*
X58925714Y-59651714D01*
X58868571Y-59537428D01*
X58868571Y-59480285D01*
X58925714Y-59366000D01*
X59040000Y-59308857D01*
X59211428Y-59308857D01*
X59325714Y-59366000D01*
X59897142Y-60108857D02*
X59897142Y-59308857D01*
X59897142Y-58908857D02*
X59840000Y-58966000D01*
X59897142Y-59023142D01*
X59954285Y-58966000D01*
X59897142Y-58908857D01*
X59897142Y-59023142D01*
X60982857Y-59308857D02*
X60982857Y-60280285D01*
X60925714Y-60394571D01*
X60868571Y-60451714D01*
X60754285Y-60508857D01*
X60582857Y-60508857D01*
X60468571Y-60451714D01*
X60982857Y-60051714D02*
X60868571Y-60108857D01*
X60640000Y-60108857D01*
X60525714Y-60051714D01*
X60468571Y-59994571D01*
X60411428Y-59880285D01*
X60411428Y-59537428D01*
X60468571Y-59423142D01*
X60525714Y-59366000D01*
X60640000Y-59308857D01*
X60868571Y-59308857D01*
X60982857Y-59366000D01*
X61554285Y-59308857D02*
X61554285Y-60108857D01*
X61554285Y-59423142D02*
X61611428Y-59366000D01*
X61725714Y-59308857D01*
X61897142Y-59308857D01*
X62011428Y-59366000D01*
X62068571Y-59480285D01*
X62068571Y-60108857D01*
X63097142Y-60051714D02*
X62982857Y-60108857D01*
X62754285Y-60108857D01*
X62640000Y-60051714D01*
X62582857Y-59937428D01*
X62582857Y-59480285D01*
X62640000Y-59366000D01*
X62754285Y-59308857D01*
X62982857Y-59308857D01*
X63097142Y-59366000D01*
X63154285Y-59480285D01*
X63154285Y-59594571D01*
X62582857Y-59708857D01*
X64182857Y-60108857D02*
X64182857Y-58908857D01*
X64182857Y-60051714D02*
X64068571Y-60108857D01*
X63840000Y-60108857D01*
X63725714Y-60051714D01*
X63668571Y-59994571D01*
X63611428Y-59880285D01*
X63611428Y-59537428D01*
X63668571Y-59423142D01*
X63725714Y-59366000D01*
X63840000Y-59308857D01*
X64068571Y-59308857D01*
X64182857Y-59366000D01*
X65668571Y-60108857D02*
X65668571Y-58908857D01*
X65668571Y-59366000D02*
X65782857Y-59308857D01*
X66011428Y-59308857D01*
X66125714Y-59366000D01*
X66182857Y-59423142D01*
X66240000Y-59537428D01*
X66240000Y-59880285D01*
X66182857Y-59994571D01*
X66125714Y-60051714D01*
X66011428Y-60108857D01*
X65782857Y-60108857D01*
X65668571Y-60051714D01*
X66640000Y-59308857D02*
X66925714Y-60108857D01*
X67211428Y-59308857D02*
X66925714Y-60108857D01*
X66811428Y-60394571D01*
X66754285Y-60451714D01*
X66640000Y-60508857D01*
X68411428Y-59308857D02*
X68868571Y-59308857D01*
X68582857Y-58908857D02*
X68582857Y-59937428D01*
X68640000Y-60051714D01*
X68754285Y-60108857D01*
X68868571Y-60108857D01*
X69782857Y-60108857D02*
X69782857Y-59480285D01*
X69725714Y-59366000D01*
X69611428Y-59308857D01*
X69382857Y-59308857D01*
X69268571Y-59366000D01*
X69782857Y-60051714D02*
X69668571Y-60108857D01*
X69382857Y-60108857D01*
X69268571Y-60051714D01*
X69211428Y-59937428D01*
X69211428Y-59823142D01*
X69268571Y-59708857D01*
X69382857Y-59651714D01*
X69668571Y-59651714D01*
X69782857Y-59594571D01*
X70354285Y-60108857D02*
X70354285Y-59308857D01*
X70354285Y-59423142D02*
X70411428Y-59366000D01*
X70525714Y-59308857D01*
X70697142Y-59308857D01*
X70811428Y-59366000D01*
X70868571Y-59480285D01*
X70868571Y-60108857D01*
X70868571Y-59480285D02*
X70925714Y-59366000D01*
X71040000Y-59308857D01*
X71211428Y-59308857D01*
X71325714Y-59366000D01*
X71382857Y-59480285D01*
X71382857Y-60108857D01*
X72468571Y-60108857D02*
X72468571Y-59480285D01*
X72411428Y-59366000D01*
X72297142Y-59308857D01*
X72068571Y-59308857D01*
X71954285Y-59366000D01*
X72468571Y-60051714D02*
X72354285Y-60108857D01*
X72068571Y-60108857D01*
X71954285Y-60051714D01*
X71897142Y-59937428D01*
X71897142Y-59823142D01*
X71954285Y-59708857D01*
X72068571Y-59651714D01*
X72354285Y-59651714D01*
X72468571Y-59594571D01*
X73554285Y-59308857D02*
X73554285Y-60280285D01*
X73497142Y-60394571D01*
X73440000Y-60451714D01*
X73325714Y-60508857D01*
X73154285Y-60508857D01*
X73040000Y-60451714D01*
X73554285Y-60051714D02*
X73440000Y-60108857D01*
X73211428Y-60108857D01*
X73097142Y-60051714D01*
X73040000Y-59994571D01*
X72982857Y-59880285D01*
X72982857Y-59537428D01*
X73040000Y-59423142D01*
X73097142Y-59366000D01*
X73211428Y-59308857D01*
X73440000Y-59308857D01*
X73554285Y-59366000D01*
X74297142Y-60108857D02*
X74182857Y-60051714D01*
X74125714Y-59994571D01*
X74068571Y-59880285D01*
X74068571Y-59537428D01*
X74125714Y-59423142D01*
X74182857Y-59366000D01*
X74297142Y-59308857D01*
X74468571Y-59308857D01*
X74582857Y-59366000D01*
X74640000Y-59423142D01*
X74697142Y-59537428D01*
X74697142Y-59880285D01*
X74640000Y-59994571D01*
X74582857Y-60051714D01*
X74468571Y-60108857D01*
X74297142Y-60108857D01*
X75097142Y-58908857D02*
X75840000Y-58908857D01*
X75440000Y-59366000D01*
X75611428Y-59366000D01*
X75725714Y-59423142D01*
X75782857Y-59480285D01*
X75840000Y-59594571D01*
X75840000Y-59880285D01*
X75782857Y-59994571D01*
X75725714Y-60051714D01*
X75611428Y-60108857D01*
X75268571Y-60108857D01*
X75154285Y-60051714D01*
X75097142Y-59994571D01*
X76297142Y-59023142D02*
X76354285Y-58966000D01*
X76468571Y-58908857D01*
X76754285Y-58908857D01*
X76868571Y-58966000D01*
X76925714Y-59023142D01*
X76982857Y-59137428D01*
X76982857Y-59251714D01*
X76925714Y-59423142D01*
X76240000Y-60108857D01*
X76982857Y-60108857D01*
X78011428Y-59308857D02*
X78011428Y-60108857D01*
X77725714Y-58851714D02*
X77440000Y-59708857D01*
X78182857Y-59708857D01*
D12*
%TO.C,U1*%
X28837500Y-85843223D02*
X28799404Y-85919414D01*
X28799404Y-86033700D01*
X28837500Y-86147985D01*
X28913690Y-86224176D01*
X28989880Y-86262271D01*
X29142261Y-86300366D01*
X29256547Y-86300366D01*
X29408928Y-86262271D01*
X29485119Y-86224176D01*
X29561309Y-86147985D01*
X29599404Y-86033700D01*
X29599404Y-85957509D01*
X29561309Y-85843223D01*
X29523214Y-85805128D01*
X29256547Y-85805128D01*
X29256547Y-85957509D01*
X29599404Y-85462271D02*
X28799404Y-85462271D01*
X29599404Y-85005128D01*
X28799404Y-85005128D01*
X29599404Y-84624176D02*
X28799404Y-84624176D01*
X28799404Y-84433700D01*
X28837500Y-84319414D01*
X28913690Y-84243223D01*
X28989880Y-84205128D01*
X29142261Y-84167033D01*
X29256547Y-84167033D01*
X29408928Y-84205128D01*
X29485119Y-84243223D01*
X29561309Y-84319414D01*
X29599404Y-84433700D01*
X29599404Y-84624176D01*
X26929404Y-96782747D02*
X26396071Y-96782747D01*
X26548452Y-96782747D02*
X26472261Y-96744652D01*
X26434166Y-96706557D01*
X26396071Y-96630366D01*
X26396071Y-96554176D01*
X26929404Y-96173223D02*
X26891309Y-96249414D01*
X26853214Y-96287509D01*
X26777023Y-96325604D01*
X26548452Y-96325604D01*
X26472261Y-96287509D01*
X26434166Y-96249414D01*
X26396071Y-96173223D01*
X26396071Y-96058938D01*
X26434166Y-95982747D01*
X26472261Y-95944652D01*
X26548452Y-95906557D01*
X26777023Y-95906557D01*
X26853214Y-95944652D01*
X26891309Y-95982747D01*
X26929404Y-96058938D01*
X26929404Y-96173223D01*
X26396071Y-95639890D02*
X26929404Y-95487509D01*
X26548452Y-95335128D01*
X26929404Y-95182747D01*
X26396071Y-95030366D01*
X26129404Y-94573223D02*
X26129404Y-94497033D01*
X26167500Y-94420842D01*
X26205595Y-94382747D01*
X26281785Y-94344652D01*
X26434166Y-94306557D01*
X26624642Y-94306557D01*
X26777023Y-94344652D01*
X26853214Y-94382747D01*
X26891309Y-94420842D01*
X26929404Y-94497033D01*
X26929404Y-94573223D01*
X26891309Y-94649414D01*
X26853214Y-94687509D01*
X26777023Y-94725604D01*
X26624642Y-94763700D01*
X26434166Y-94763700D01*
X26281785Y-94725604D01*
X26205595Y-94687509D01*
X26167500Y-94649414D01*
X26129404Y-94573223D01*
X37301309Y-85945604D02*
X37339404Y-86021795D01*
X37339404Y-86174176D01*
X37301309Y-86250366D01*
X37263214Y-86288461D01*
X37187023Y-86326557D01*
X36958452Y-86326557D01*
X36882261Y-86288461D01*
X36844166Y-86250366D01*
X36806071Y-86174176D01*
X36806071Y-86021795D01*
X36844166Y-85945604D01*
X37339404Y-85488461D02*
X37301309Y-85564652D01*
X37263214Y-85602747D01*
X37187023Y-85640842D01*
X36958452Y-85640842D01*
X36882261Y-85602747D01*
X36844166Y-85564652D01*
X36806071Y-85488461D01*
X36806071Y-85374176D01*
X36844166Y-85297985D01*
X36882261Y-85259890D01*
X36958452Y-85221795D01*
X37187023Y-85221795D01*
X37263214Y-85259890D01*
X37301309Y-85297985D01*
X37339404Y-85374176D01*
X37339404Y-85488461D01*
X37339404Y-84764652D02*
X37301309Y-84840842D01*
X37225119Y-84878938D01*
X36539404Y-84878938D01*
X36539404Y-84536080D02*
X36539404Y-84040842D01*
X36844166Y-84307509D01*
X36844166Y-84193223D01*
X36882261Y-84117033D01*
X36920357Y-84078938D01*
X36996547Y-84040842D01*
X37187023Y-84040842D01*
X37263214Y-84078938D01*
X37301309Y-84117033D01*
X37339404Y-84193223D01*
X37339404Y-84421795D01*
X37301309Y-84497985D01*
X37263214Y-84536080D01*
X26379404Y-86300366D02*
X27179404Y-86033700D01*
X26379404Y-85767033D01*
X27103214Y-85043223D02*
X27141309Y-85081319D01*
X27179404Y-85195604D01*
X27179404Y-85271795D01*
X27141309Y-85386080D01*
X27065119Y-85462271D01*
X26988928Y-85500366D01*
X26836547Y-85538461D01*
X26722261Y-85538461D01*
X26569880Y-85500366D01*
X26493690Y-85462271D01*
X26417500Y-85386080D01*
X26379404Y-85271795D01*
X26379404Y-85195604D01*
X26417500Y-85081319D01*
X26455595Y-85043223D01*
X27103214Y-84243223D02*
X27141309Y-84281319D01*
X27179404Y-84395604D01*
X27179404Y-84471795D01*
X27141309Y-84586080D01*
X27065119Y-84662271D01*
X26988928Y-84700366D01*
X26836547Y-84738461D01*
X26722261Y-84738461D01*
X26569880Y-84700366D01*
X26493690Y-84662271D01*
X26417500Y-84586080D01*
X26379404Y-84471795D01*
X26379404Y-84395604D01*
X26417500Y-84281319D01*
X26455595Y-84243223D01*
X29529404Y-96772747D02*
X28996071Y-96772747D01*
X29148452Y-96772747D02*
X29072261Y-96734652D01*
X29034166Y-96696557D01*
X28996071Y-96620366D01*
X28996071Y-96544176D01*
X29529404Y-96163223D02*
X29491309Y-96239414D01*
X29453214Y-96277509D01*
X29377023Y-96315604D01*
X29148452Y-96315604D01*
X29072261Y-96277509D01*
X29034166Y-96239414D01*
X28996071Y-96163223D01*
X28996071Y-96048938D01*
X29034166Y-95972747D01*
X29072261Y-95934652D01*
X29148452Y-95896557D01*
X29377023Y-95896557D01*
X29453214Y-95934652D01*
X29491309Y-95972747D01*
X29529404Y-96048938D01*
X29529404Y-96163223D01*
X28996071Y-95629890D02*
X29529404Y-95477509D01*
X29148452Y-95325128D01*
X29529404Y-95172747D01*
X28996071Y-95020366D01*
X29529404Y-94296557D02*
X29529404Y-94753700D01*
X29529404Y-94525128D02*
X28729404Y-94525128D01*
X28843690Y-94601319D01*
X28919880Y-94677509D01*
X28957976Y-94753700D01*
X39631309Y-96325604D02*
X39669404Y-96401795D01*
X39669404Y-96554176D01*
X39631309Y-96630366D01*
X39593214Y-96668461D01*
X39517023Y-96706557D01*
X39288452Y-96706557D01*
X39212261Y-96668461D01*
X39174166Y-96630366D01*
X39136071Y-96554176D01*
X39136071Y-96401795D01*
X39174166Y-96325604D01*
X39669404Y-95868461D02*
X39631309Y-95944652D01*
X39593214Y-95982747D01*
X39517023Y-96020842D01*
X39288452Y-96020842D01*
X39212261Y-95982747D01*
X39174166Y-95944652D01*
X39136071Y-95868461D01*
X39136071Y-95754176D01*
X39174166Y-95677985D01*
X39212261Y-95639890D01*
X39288452Y-95601795D01*
X39517023Y-95601795D01*
X39593214Y-95639890D01*
X39631309Y-95677985D01*
X39669404Y-95754176D01*
X39669404Y-95868461D01*
X39669404Y-95144652D02*
X39631309Y-95220842D01*
X39555119Y-95258938D01*
X38869404Y-95258938D01*
X39669404Y-94420842D02*
X39669404Y-94877985D01*
X39669404Y-94649414D02*
X38869404Y-94649414D01*
X38983690Y-94725604D01*
X39059880Y-94801795D01*
X39097976Y-94877985D01*
X34841309Y-85845604D02*
X34879404Y-85921795D01*
X34879404Y-86074176D01*
X34841309Y-86150366D01*
X34803214Y-86188461D01*
X34727023Y-86226557D01*
X34498452Y-86226557D01*
X34422261Y-86188461D01*
X34384166Y-86150366D01*
X34346071Y-86074176D01*
X34346071Y-85921795D01*
X34384166Y-85845604D01*
X34879404Y-85388461D02*
X34841309Y-85464652D01*
X34803214Y-85502747D01*
X34727023Y-85540842D01*
X34498452Y-85540842D01*
X34422261Y-85502747D01*
X34384166Y-85464652D01*
X34346071Y-85388461D01*
X34346071Y-85274176D01*
X34384166Y-85197985D01*
X34422261Y-85159890D01*
X34498452Y-85121795D01*
X34727023Y-85121795D01*
X34803214Y-85159890D01*
X34841309Y-85197985D01*
X34879404Y-85274176D01*
X34879404Y-85388461D01*
X34879404Y-84664652D02*
X34841309Y-84740842D01*
X34765119Y-84778938D01*
X34079404Y-84778938D01*
X34155595Y-84397985D02*
X34117500Y-84359890D01*
X34079404Y-84283700D01*
X34079404Y-84093223D01*
X34117500Y-84017033D01*
X34155595Y-83978938D01*
X34231785Y-83940842D01*
X34307976Y-83940842D01*
X34422261Y-83978938D01*
X34879404Y-84436080D01*
X34879404Y-83940842D01*
X42319404Y-86034652D02*
X41519404Y-86034652D01*
X42281309Y-86034652D02*
X42319404Y-86110842D01*
X42319404Y-86263223D01*
X42281309Y-86339414D01*
X42243214Y-86377509D01*
X42167023Y-86415604D01*
X41938452Y-86415604D01*
X41862261Y-86377509D01*
X41824166Y-86339414D01*
X41786071Y-86263223D01*
X41786071Y-86110842D01*
X41824166Y-86034652D01*
X42319404Y-85310842D02*
X41900357Y-85310842D01*
X41824166Y-85348938D01*
X41786071Y-85425128D01*
X41786071Y-85577509D01*
X41824166Y-85653700D01*
X42281309Y-85310842D02*
X42319404Y-85387033D01*
X42319404Y-85577509D01*
X42281309Y-85653700D01*
X42205119Y-85691795D01*
X42128928Y-85691795D01*
X42052738Y-85653700D01*
X42014642Y-85577509D01*
X42014642Y-85387033D01*
X41976547Y-85310842D01*
X41786071Y-85044176D02*
X41786071Y-84739414D01*
X41519404Y-84929890D02*
X42205119Y-84929890D01*
X42281309Y-84891795D01*
X42319404Y-84815604D01*
X42319404Y-84739414D01*
X42319404Y-84129890D02*
X41900357Y-84129890D01*
X41824166Y-84167985D01*
X41786071Y-84244176D01*
X41786071Y-84396557D01*
X41824166Y-84472747D01*
X42281309Y-84129890D02*
X42319404Y-84206080D01*
X42319404Y-84396557D01*
X42281309Y-84472747D01*
X42205119Y-84510842D01*
X42128928Y-84510842D01*
X42052738Y-84472747D01*
X42014642Y-84396557D01*
X42014642Y-84206080D01*
X41976547Y-84129890D01*
X32049404Y-96762747D02*
X31516071Y-96762747D01*
X31668452Y-96762747D02*
X31592261Y-96724652D01*
X31554166Y-96686557D01*
X31516071Y-96610366D01*
X31516071Y-96534176D01*
X32049404Y-96153223D02*
X32011309Y-96229414D01*
X31973214Y-96267509D01*
X31897023Y-96305604D01*
X31668452Y-96305604D01*
X31592261Y-96267509D01*
X31554166Y-96229414D01*
X31516071Y-96153223D01*
X31516071Y-96038938D01*
X31554166Y-95962747D01*
X31592261Y-95924652D01*
X31668452Y-95886557D01*
X31897023Y-95886557D01*
X31973214Y-95924652D01*
X32011309Y-95962747D01*
X32049404Y-96038938D01*
X32049404Y-96153223D01*
X31516071Y-95619890D02*
X32049404Y-95467509D01*
X31668452Y-95315128D01*
X32049404Y-95162747D01*
X31516071Y-95010366D01*
X31325595Y-94743700D02*
X31287500Y-94705604D01*
X31249404Y-94629414D01*
X31249404Y-94438938D01*
X31287500Y-94362747D01*
X31325595Y-94324652D01*
X31401785Y-94286557D01*
X31477976Y-94286557D01*
X31592261Y-94324652D01*
X32049404Y-94781795D01*
X32049404Y-94286557D01*
X37091309Y-96345604D02*
X37129404Y-96421795D01*
X37129404Y-96574176D01*
X37091309Y-96650366D01*
X37053214Y-96688461D01*
X36977023Y-96726557D01*
X36748452Y-96726557D01*
X36672261Y-96688461D01*
X36634166Y-96650366D01*
X36596071Y-96574176D01*
X36596071Y-96421795D01*
X36634166Y-96345604D01*
X37129404Y-95888461D02*
X37091309Y-95964652D01*
X37053214Y-96002747D01*
X36977023Y-96040842D01*
X36748452Y-96040842D01*
X36672261Y-96002747D01*
X36634166Y-95964652D01*
X36596071Y-95888461D01*
X36596071Y-95774176D01*
X36634166Y-95697985D01*
X36672261Y-95659890D01*
X36748452Y-95621795D01*
X36977023Y-95621795D01*
X37053214Y-95659890D01*
X37091309Y-95697985D01*
X37129404Y-95774176D01*
X37129404Y-95888461D01*
X37129404Y-95164652D02*
X37091309Y-95240842D01*
X37015119Y-95278938D01*
X36329404Y-95278938D01*
X36329404Y-94707509D02*
X36329404Y-94631319D01*
X36367500Y-94555128D01*
X36405595Y-94517033D01*
X36481785Y-94478938D01*
X36634166Y-94440842D01*
X36824642Y-94440842D01*
X36977023Y-94478938D01*
X37053214Y-94517033D01*
X37091309Y-94555128D01*
X37129404Y-94631319D01*
X37129404Y-94707509D01*
X37091309Y-94783700D01*
X37053214Y-94821795D01*
X36977023Y-94859890D01*
X36824642Y-94897985D01*
X36634166Y-94897985D01*
X36481785Y-94859890D01*
X36405595Y-94821795D01*
X36367500Y-94783700D01*
X36329404Y-94707509D01*
X39701309Y-85875604D02*
X39739404Y-85951795D01*
X39739404Y-86104176D01*
X39701309Y-86180366D01*
X39663214Y-86218461D01*
X39587023Y-86256557D01*
X39358452Y-86256557D01*
X39282261Y-86218461D01*
X39244166Y-86180366D01*
X39206071Y-86104176D01*
X39206071Y-85951795D01*
X39244166Y-85875604D01*
X39739404Y-85418461D02*
X39701309Y-85494652D01*
X39663214Y-85532747D01*
X39587023Y-85570842D01*
X39358452Y-85570842D01*
X39282261Y-85532747D01*
X39244166Y-85494652D01*
X39206071Y-85418461D01*
X39206071Y-85304176D01*
X39244166Y-85227985D01*
X39282261Y-85189890D01*
X39358452Y-85151795D01*
X39587023Y-85151795D01*
X39663214Y-85189890D01*
X39701309Y-85227985D01*
X39739404Y-85304176D01*
X39739404Y-85418461D01*
X39739404Y-84694652D02*
X39701309Y-84770842D01*
X39625119Y-84808938D01*
X38939404Y-84808938D01*
X39206071Y-84047033D02*
X39739404Y-84047033D01*
X38901309Y-84237509D02*
X39472738Y-84427985D01*
X39472738Y-83932747D01*
X34619404Y-96782747D02*
X34086071Y-96782747D01*
X34238452Y-96782747D02*
X34162261Y-96744652D01*
X34124166Y-96706557D01*
X34086071Y-96630366D01*
X34086071Y-96554176D01*
X34619404Y-96173223D02*
X34581309Y-96249414D01*
X34543214Y-96287509D01*
X34467023Y-96325604D01*
X34238452Y-96325604D01*
X34162261Y-96287509D01*
X34124166Y-96249414D01*
X34086071Y-96173223D01*
X34086071Y-96058938D01*
X34124166Y-95982747D01*
X34162261Y-95944652D01*
X34238452Y-95906557D01*
X34467023Y-95906557D01*
X34543214Y-95944652D01*
X34581309Y-95982747D01*
X34619404Y-96058938D01*
X34619404Y-96173223D01*
X34086071Y-95639890D02*
X34619404Y-95487509D01*
X34238452Y-95335128D01*
X34619404Y-95182747D01*
X34086071Y-95030366D01*
X33819404Y-94801795D02*
X33819404Y-94306557D01*
X34124166Y-94573223D01*
X34124166Y-94458938D01*
X34162261Y-94382747D01*
X34200357Y-94344652D01*
X34276547Y-94306557D01*
X34467023Y-94306557D01*
X34543214Y-94344652D01*
X34581309Y-94382747D01*
X34619404Y-94458938D01*
X34619404Y-94687509D01*
X34581309Y-94763700D01*
X34543214Y-94801795D01*
D13*
%TO.C,D7*%
X47790000Y-55230000D02*
X48690000Y-54730000D01*
X47690000Y-54730000D02*
X47690000Y-55730000D01*
X48690000Y-55730000D02*
X47790000Y-55230000D01*
X45490000Y-55980000D02*
X50890000Y-55980000D01*
X50890000Y-54480000D02*
X50890000Y-55980000D01*
X45490000Y-54480000D02*
X45490000Y-55980000D01*
X50890000Y-54480000D02*
X45490000Y-54480000D01*
X48690000Y-54730000D02*
X48690000Y-55730000D01*
%TO.C,SW6*%
X30440000Y-48460000D02*
X25440000Y-48460000D01*
X25440000Y-47460000D02*
X25440000Y-44860000D01*
X25440000Y-44860000D02*
X33840000Y-44859999D01*
D14*
X25740000Y-48160000D02*
X27140000Y-48160000D01*
D13*
X35940000Y-46760000D02*
X35940000Y-50000000D01*
X35940000Y-50360000D02*
X32660000Y-50360000D01*
X25440000Y-48460000D02*
X25440000Y-47460000D01*
X35940000Y-50360000D02*
X35940000Y-50000000D01*
X35940001Y-46760000D02*
G75*
G03*
X33840000Y-44859999I-2000001J-100000D01*
G01*
X32656318Y-50338529D02*
G75*
G03*
X30440000Y-48460000I-2151318J-291471D01*
G01*
%TO.C,SW11*%
X35950000Y-67860000D02*
X35950000Y-67500000D01*
X35950000Y-64260000D02*
X35950000Y-67500000D01*
X30450000Y-65960000D02*
X25450000Y-65960000D01*
X25450000Y-65960000D02*
X25450000Y-64960000D01*
X25450000Y-62360000D02*
X33850000Y-62359999D01*
X35950000Y-67860000D02*
X32670000Y-67860000D01*
X25450000Y-64960000D02*
X25450000Y-62360000D01*
D14*
X25750000Y-65660000D02*
X27150000Y-65660000D01*
D13*
X32666318Y-67838529D02*
G75*
G03*
X30450000Y-65960000I-2151318J-291471D01*
G01*
X35950001Y-64260000D02*
G75*
G03*
X33850000Y-62359999I-2000001J-100000D01*
G01*
%TO.C,D6*%
X32750000Y-54510000D02*
X32750000Y-56010000D01*
X30550000Y-55760000D02*
X29650000Y-55260000D01*
X29550000Y-54760000D02*
X29550000Y-55760000D01*
X32750000Y-54510000D02*
X27350000Y-54510000D01*
X30550000Y-54760000D02*
X30550000Y-55760000D01*
X29650000Y-55260000D02*
X30550000Y-54760000D01*
X27350000Y-54510000D02*
X27350000Y-56010000D01*
X27350000Y-56010000D02*
X32750000Y-56010000D01*
D14*
%TO.C,SW9*%
X76870000Y-48160000D02*
X78270000Y-48160000D01*
D13*
X76570000Y-47460000D02*
X76570000Y-44860000D01*
X87070000Y-50360000D02*
X87070000Y-50000000D01*
X87070000Y-50360000D02*
X83790000Y-50360000D01*
X76570000Y-44860000D02*
X84970000Y-44859999D01*
X87070000Y-46760000D02*
X87070000Y-50000000D01*
X76570000Y-48460000D02*
X76570000Y-47460000D01*
X81570000Y-48460000D02*
X76570000Y-48460000D01*
X87070001Y-46760000D02*
G75*
G03*
X84970000Y-44859999I-2000001J-100000D01*
G01*
X83786318Y-50338529D02*
G75*
G03*
X81570000Y-48460000I-2151318J-291471D01*
G01*
%TO.C,SW3*%
X70610000Y-32850000D02*
X70610000Y-32490000D01*
X60110000Y-30950000D02*
X60110000Y-29950000D01*
X70610000Y-32850000D02*
X67330000Y-32850000D01*
X60110000Y-29950000D02*
X60110000Y-27350000D01*
X65110000Y-30950000D02*
X60110000Y-30950000D01*
D14*
X60410000Y-30650000D02*
X61810000Y-30650000D01*
D13*
X60110000Y-27350000D02*
X68510000Y-27349999D01*
X70610000Y-29250000D02*
X70610000Y-32490000D01*
X67326318Y-32828529D02*
G75*
G03*
X65110000Y-30950000I-2151318J-291471D01*
G01*
X70610001Y-29250000D02*
G75*
G03*
X68510000Y-27349999I-2000001J-100000D01*
G01*
%TO.C,D9*%
X80780000Y-55270000D02*
X81680000Y-54770000D01*
X83880000Y-54520000D02*
X78480000Y-54520000D01*
X81680000Y-54770000D02*
X81680000Y-55770000D01*
X83880000Y-54520000D02*
X83880000Y-56020000D01*
X80680000Y-54770000D02*
X80680000Y-55770000D01*
X78480000Y-56020000D02*
X83880000Y-56020000D01*
X78480000Y-54520000D02*
X78480000Y-56020000D01*
X81680000Y-55770000D02*
X80780000Y-55270000D01*
%TO.C,D16*%
X62430000Y-90850000D02*
X61530000Y-90350000D01*
X64630000Y-89600000D02*
X59230000Y-89600000D01*
X61530000Y-90350000D02*
X62430000Y-89850000D01*
X59230000Y-89600000D02*
X59230000Y-91100000D01*
X64630000Y-89600000D02*
X64630000Y-91100000D01*
X61430000Y-89850000D02*
X61430000Y-90850000D01*
X62430000Y-89850000D02*
X62430000Y-90850000D01*
X59230000Y-91100000D02*
X64630000Y-91100000D01*
%TO.C,D11*%
X32780000Y-72000000D02*
X32780000Y-73500000D01*
X27380000Y-72000000D02*
X27380000Y-73500000D01*
X30580000Y-73250000D02*
X29680000Y-72750000D01*
X27380000Y-73500000D02*
X32780000Y-73500000D01*
X29580000Y-72250000D02*
X29580000Y-73250000D01*
X32780000Y-72000000D02*
X27380000Y-72000000D01*
X29680000Y-72750000D02*
X30580000Y-72250000D01*
X30580000Y-72250000D02*
X30580000Y-73250000D01*
%TO.C,D14*%
X81670000Y-72270000D02*
X81670000Y-73270000D01*
X83870000Y-72020000D02*
X83870000Y-73520000D01*
X80670000Y-72270000D02*
X80670000Y-73270000D01*
X78470000Y-73520000D02*
X83870000Y-73520000D01*
X81670000Y-73270000D02*
X80770000Y-72770000D01*
X83870000Y-72020000D02*
X78470000Y-72020000D01*
X78470000Y-72020000D02*
X78470000Y-73520000D01*
X80770000Y-72770000D02*
X81670000Y-72270000D01*
%TO.C,D17*%
X64570000Y-91540000D02*
X64570000Y-93040000D01*
X61470000Y-92290000D02*
X62370000Y-91790000D01*
X64570000Y-91540000D02*
X59170000Y-91540000D01*
X59170000Y-91540000D02*
X59170000Y-93040000D01*
X62370000Y-92790000D02*
X61470000Y-92290000D01*
X62370000Y-91790000D02*
X62370000Y-92790000D01*
X61370000Y-91790000D02*
X61370000Y-92790000D01*
X59170000Y-93040000D02*
X64570000Y-93040000D01*
%TO.C,SW5*%
X93090000Y-27360000D02*
X101490000Y-27359999D01*
X103590000Y-32860000D02*
X100310000Y-32860000D01*
D14*
X93390000Y-30660000D02*
X94790000Y-30660000D01*
D13*
X103590000Y-29260000D02*
X103590000Y-32500000D01*
X93090000Y-29960000D02*
X93090000Y-27360000D01*
X98090000Y-30960000D02*
X93090000Y-30960000D01*
X103590000Y-32860000D02*
X103590000Y-32500000D01*
X93090000Y-30960000D02*
X93090000Y-29960000D01*
X100306318Y-32838529D02*
G75*
G03*
X98090000Y-30960000I-2151318J-291471D01*
G01*
X103590001Y-29260000D02*
G75*
G03*
X101490000Y-27359999I-2000001J-100000D01*
G01*
%TO.C,SW15*%
X103570000Y-64260000D02*
X103570000Y-67500000D01*
X93070000Y-65960000D02*
X93070000Y-64960000D01*
X103570000Y-67860000D02*
X103570000Y-67500000D01*
X103570000Y-67860000D02*
X100290000Y-67860000D01*
X93070000Y-62360000D02*
X101470000Y-62359999D01*
X98070000Y-65960000D02*
X93070000Y-65960000D01*
D14*
X93370000Y-65660000D02*
X94770000Y-65660000D01*
D13*
X93070000Y-64960000D02*
X93070000Y-62360000D01*
X100286318Y-67838529D02*
G75*
G03*
X98070000Y-65960000I-2151318J-291471D01*
G01*
X103570001Y-64260000D02*
G75*
G03*
X101470000Y-62359999I-2000001J-100000D01*
G01*
%TO.C,D13*%
X65260000Y-73280000D02*
X64360000Y-72780000D01*
X65260000Y-72280000D02*
X65260000Y-73280000D01*
X64260000Y-72280000D02*
X64260000Y-73280000D01*
X67460000Y-72030000D02*
X62060000Y-72030000D01*
X62060000Y-72030000D02*
X62060000Y-73530000D01*
X67460000Y-72030000D02*
X67460000Y-73530000D01*
X62060000Y-73530000D02*
X67460000Y-73530000D01*
X64360000Y-72780000D02*
X65260000Y-72280000D01*
%TO.C,SW7*%
X43580000Y-47450000D02*
X43580000Y-44850000D01*
D14*
X43880000Y-48150000D02*
X45280000Y-48150000D01*
D13*
X54080000Y-46750000D02*
X54080000Y-49990000D01*
X54080000Y-50350000D02*
X54080000Y-49990000D01*
X54080000Y-50350000D02*
X50800000Y-50350000D01*
X43580000Y-48450000D02*
X43580000Y-47450000D01*
X43580000Y-44850000D02*
X51980000Y-44849999D01*
X48580000Y-48450000D02*
X43580000Y-48450000D01*
X54080001Y-46750000D02*
G75*
G03*
X51980000Y-44849999I-2000001J-100000D01*
G01*
X50796318Y-50328529D02*
G75*
G03*
X48580000Y-48450000I-2151318J-291471D01*
G01*
%TO.C,D1*%
X30560000Y-38240000D02*
X29660000Y-37740000D01*
X32760000Y-36990000D02*
X32760000Y-38490000D01*
X29660000Y-37740000D02*
X30560000Y-37240000D01*
X30560000Y-37240000D02*
X30560000Y-38240000D01*
X27360000Y-36990000D02*
X27360000Y-38490000D01*
X29560000Y-37240000D02*
X29560000Y-38240000D01*
X32760000Y-36990000D02*
X27360000Y-36990000D01*
X27360000Y-38490000D02*
X32760000Y-38490000D01*
%TO.C,SW16*%
X73095000Y-97305000D02*
X77645000Y-97305000D01*
X78870000Y-95105000D02*
X82645000Y-95105000D01*
X77945000Y-90455000D02*
X82645000Y-90455000D01*
X82645000Y-90480000D02*
X82670000Y-95080000D01*
X73095000Y-92655000D02*
X75645000Y-92655000D01*
X81470000Y-84230000D02*
X81470000Y-88175000D01*
X81470000Y-88184000D02*
X77860000Y-88184000D01*
X70570000Y-86184000D02*
X70570000Y-82276000D01*
X73070000Y-92680000D02*
X73070000Y-97280000D01*
X70570000Y-86230000D02*
X75620000Y-86276000D01*
X70570000Y-82276000D02*
X79195000Y-82276000D01*
X77650000Y-96580000D02*
X77650000Y-97280000D01*
X77855000Y-88160000D02*
G75*
G03*
X75595000Y-86280000I-2070000J-190000D01*
G01*
X75570000Y-92650000D02*
G75*
G03*
X77940000Y-90480000I100000J2270000D01*
G01*
X81459000Y-84160000D02*
G75*
G03*
X79195000Y-82276000I-2074000J-190000D01*
G01*
X78870000Y-95110000D02*
G75*
G03*
X77650000Y-96530000I100000J-1320000D01*
G01*
%TO.C,D18*%
X62400000Y-93720000D02*
X62400000Y-94720000D01*
X61400000Y-93720000D02*
X61400000Y-94720000D01*
X59200000Y-93470000D02*
X59200000Y-94970000D01*
X62400000Y-94720000D02*
X61500000Y-94220000D01*
X61500000Y-94220000D02*
X62400000Y-93720000D01*
X64600000Y-93470000D02*
X64600000Y-94970000D01*
X64600000Y-93470000D02*
X59200000Y-93470000D01*
X59200000Y-94970000D02*
X64600000Y-94970000D01*
%TO.C,D4*%
X83890000Y-36980000D02*
X83890000Y-38480000D01*
X81690000Y-38230000D02*
X80790000Y-37730000D01*
X80690000Y-37230000D02*
X80690000Y-38230000D01*
X81690000Y-37230000D02*
X81690000Y-38230000D01*
X80790000Y-37730000D02*
X81690000Y-37230000D01*
X78490000Y-38480000D02*
X83890000Y-38480000D01*
X78490000Y-36980000D02*
X78490000Y-38480000D01*
X83890000Y-36980000D02*
X78490000Y-36980000D01*
%TO.C,D10*%
X98190000Y-54790000D02*
X98190000Y-55790000D01*
X97190000Y-54790000D02*
X97190000Y-55790000D01*
X100390000Y-54540000D02*
X100390000Y-56040000D01*
X100390000Y-54540000D02*
X94990000Y-54540000D01*
X98190000Y-55790000D02*
X97290000Y-55290000D01*
X97290000Y-55290000D02*
X98190000Y-54790000D01*
X94990000Y-56040000D02*
X100390000Y-56040000D01*
X94990000Y-54540000D02*
X94990000Y-56040000D01*
%TO.C,SW18*%
X106796806Y-97157435D02*
X109271061Y-97774336D01*
X110266960Y-102067800D02*
X110097615Y-102747007D01*
X116961225Y-91008789D02*
X116006843Y-94836606D01*
X116004666Y-94845339D02*
X112501898Y-93972001D01*
X105901158Y-90312432D02*
X110790023Y-91578771D01*
X106766501Y-97175644D02*
X105653660Y-101639005D01*
X116589311Y-97357396D02*
X115500727Y-101826804D01*
X105671870Y-101669310D02*
X110086715Y-102770055D01*
X106857717Y-86475883D02*
X115226518Y-88562459D01*
X105912286Y-90267798D02*
X106857717Y-86475883D01*
X112034969Y-96196106D02*
X116595359Y-97333138D01*
X111807556Y-100931758D02*
X115470422Y-101845014D01*
X112502854Y-93947504D02*
G75*
G03*
X110764798Y-91576604I-2054478J316422D01*
G01*
X109199498Y-97751340D02*
G75*
G03*
X112024069Y-96219153I646192J2178379D01*
G01*
X116967487Y-90938207D02*
G75*
G03*
X115226518Y-88562459I-2058359J317389D01*
G01*
X111806346Y-100936609D02*
G75*
G03*
X110279056Y-102019285I-222307J-1304983D01*
G01*
%TO.C,J1*%
X107960000Y-77625000D02*
X107960000Y-71625000D01*
X119960000Y-71625000D02*
X119960000Y-77625000D01*
X107960000Y-71625000D02*
X119960000Y-71625000D01*
X119960000Y-77625000D02*
X107960000Y-77625000D01*
%TO.C,D3*%
X64330000Y-37760000D02*
X65230000Y-37260000D01*
X62030000Y-38510000D02*
X67430000Y-38510000D01*
X67430000Y-37010000D02*
X62030000Y-37010000D01*
X62030000Y-37010000D02*
X62030000Y-38510000D01*
X65230000Y-38260000D02*
X64330000Y-37760000D01*
X65230000Y-37260000D02*
X65230000Y-38260000D01*
X64230000Y-37260000D02*
X64230000Y-38260000D01*
X67430000Y-37010000D02*
X67430000Y-38510000D01*
%TO.C,SW8*%
X60110000Y-47460000D02*
X60110000Y-44860000D01*
X70610000Y-50360000D02*
X67330000Y-50360000D01*
X70610000Y-46760000D02*
X70610000Y-50000000D01*
X60110000Y-44860000D02*
X68510000Y-44859999D01*
D14*
X60410000Y-48160000D02*
X61810000Y-48160000D01*
D13*
X70610000Y-50360000D02*
X70610000Y-50000000D01*
X65110000Y-48460000D02*
X60110000Y-48460000D01*
X60110000Y-48460000D02*
X60110000Y-47460000D01*
X70610001Y-46760000D02*
G75*
G03*
X68510000Y-44859999I-2000001J-100000D01*
G01*
X67326318Y-50338529D02*
G75*
G03*
X65110000Y-48460000I-2151318J-291471D01*
G01*
%TO.C,SW17*%
X95070067Y-91923328D02*
X99744320Y-92414612D01*
X95503943Y-96644544D02*
X99258263Y-97039139D01*
X98813141Y-90033232D02*
X95222917Y-89655884D01*
X89530616Y-98228840D02*
X94055691Y-98704445D01*
X94136446Y-97983939D02*
X94063277Y-98680104D01*
X90016673Y-93604314D02*
X92552704Y-93870861D01*
X99741707Y-92439475D02*
X99285739Y-97016889D01*
X89989197Y-93626563D02*
X89508366Y-98201364D01*
X88590407Y-83018236D02*
X97168158Y-83919794D01*
X99226447Y-86100892D02*
X98814082Y-90024281D01*
X88177101Y-86950576D02*
X93194628Y-87524193D01*
X88181909Y-86904828D02*
X88590407Y-83018236D01*
X95220452Y-89631493D02*
G75*
G03*
X93169347Y-87525558I-2078520J27415D01*
G01*
X95503420Y-96649516D02*
G75*
G03*
X94141673Y-97934213I-38525J-1323222D01*
G01*
X92478638Y-93858048D02*
G75*
G03*
X95062481Y-91947669I336732J2247111D01*
G01*
X99222824Y-86030126D02*
G75*
G03*
X97168158Y-83919794I-2082499J27833D01*
G01*
D15*
%TO.C,U1*%
X25557500Y-83793700D02*
X43047500Y-83793700D01*
X43047500Y-83793700D02*
X43047500Y-81823700D01*
X43047500Y-81823700D02*
X25557500Y-81823700D01*
X25557500Y-81823700D02*
X25557500Y-83793700D01*
X25537500Y-99003700D02*
X43027500Y-99003700D01*
X43027500Y-99003700D02*
X43027500Y-97033700D01*
X43027500Y-97033700D02*
X25537500Y-97033700D01*
X25537500Y-97033700D02*
X25537500Y-99003700D01*
D13*
%TO.C,SW10*%
X93080000Y-48470000D02*
X93080000Y-47470000D01*
X103580000Y-50370000D02*
X100300000Y-50370000D01*
D14*
X93380000Y-48170000D02*
X94780000Y-48170000D01*
D13*
X103580000Y-50370000D02*
X103580000Y-50010000D01*
X93080000Y-44870000D02*
X101480000Y-44869999D01*
X98080000Y-48470000D02*
X93080000Y-48470000D01*
X93080000Y-47470000D02*
X93080000Y-44870000D01*
X103580000Y-46770000D02*
X103580000Y-50010000D01*
X100296318Y-50348529D02*
G75*
G03*
X98080000Y-48470000I-2151318J-291471D01*
G01*
X103580001Y-46770000D02*
G75*
G03*
X101480000Y-44869999I-2000001J-100000D01*
G01*
%TO.C,D15*%
X98180000Y-72260000D02*
X98180000Y-73260000D01*
X94980000Y-73510000D02*
X100380000Y-73510000D01*
X97280000Y-72760000D02*
X98180000Y-72260000D01*
X97180000Y-72260000D02*
X97180000Y-73260000D01*
X100380000Y-72010000D02*
X94980000Y-72010000D01*
X98180000Y-73260000D02*
X97280000Y-72760000D01*
X94980000Y-72010000D02*
X94980000Y-73510000D01*
X100380000Y-72010000D02*
X100380000Y-73510000D01*
D14*
%TO.C,SW2*%
X43870000Y-30650000D02*
X45270000Y-30650000D01*
D13*
X43570000Y-27350000D02*
X51970000Y-27349999D01*
X43570000Y-29950000D02*
X43570000Y-27350000D01*
X54070000Y-32850000D02*
X54070000Y-32490000D01*
X54070000Y-29250000D02*
X54070000Y-32490000D01*
X54070000Y-32850000D02*
X50790000Y-32850000D01*
X43570000Y-30950000D02*
X43570000Y-29950000D01*
X48570000Y-30950000D02*
X43570000Y-30950000D01*
X50786318Y-32828529D02*
G75*
G03*
X48570000Y-30950000I-2151318J-291471D01*
G01*
X54070001Y-29250000D02*
G75*
G03*
X51970000Y-27349999I-2000001J-100000D01*
G01*
%TO.C,SW13*%
X70640000Y-67880000D02*
X70640000Y-67520000D01*
X70640000Y-64280000D02*
X70640000Y-67520000D01*
D14*
X60440000Y-65680000D02*
X61840000Y-65680000D01*
D13*
X60140000Y-65980000D02*
X60140000Y-64980000D01*
X60140000Y-62380000D02*
X68540000Y-62379999D01*
X65140000Y-65980000D02*
X60140000Y-65980000D01*
X70640000Y-67880000D02*
X67360000Y-67880000D01*
X60140000Y-64980000D02*
X60140000Y-62380000D01*
X67356318Y-67858529D02*
G75*
G03*
X65140000Y-65980000I-2151318J-291471D01*
G01*
X70640001Y-64280000D02*
G75*
G03*
X68540000Y-62379999I-2000001J-100000D01*
G01*
%TO.C,SW12*%
X43580000Y-62340000D02*
X51980000Y-62339999D01*
D14*
X43880000Y-65640000D02*
X45280000Y-65640000D01*
D13*
X43580000Y-65940000D02*
X43580000Y-64940000D01*
X54080000Y-64240000D02*
X54080000Y-67480000D01*
X43580000Y-64940000D02*
X43580000Y-62340000D01*
X54080000Y-67840000D02*
X54080000Y-67480000D01*
X54080000Y-67840000D02*
X50800000Y-67840000D01*
X48580000Y-65940000D02*
X43580000Y-65940000D01*
X54080001Y-64240000D02*
G75*
G03*
X51980000Y-62339999I-2000001J-100000D01*
G01*
X50796318Y-67818529D02*
G75*
G03*
X48580000Y-65940000I-2151318J-291471D01*
G01*
%TO.C,SW14*%
X87060000Y-67860000D02*
X87060000Y-67500000D01*
X87060000Y-64260000D02*
X87060000Y-67500000D01*
X87060000Y-67860000D02*
X83780000Y-67860000D01*
X76560000Y-64960000D02*
X76560000Y-62360000D01*
X76560000Y-62360000D02*
X84960000Y-62359999D01*
X81560000Y-65960000D02*
X76560000Y-65960000D01*
X76560000Y-65960000D02*
X76560000Y-64960000D01*
D14*
X76860000Y-65660000D02*
X78260000Y-65660000D01*
D13*
X83776318Y-67838529D02*
G75*
G03*
X81560000Y-65960000I-2151318J-291471D01*
G01*
X87060001Y-64260000D02*
G75*
G03*
X84960000Y-62359999I-2000001J-100000D01*
G01*
%TO.C,SW1*%
X25440000Y-27330000D02*
X33840000Y-27329999D01*
X25440000Y-30930000D02*
X25440000Y-29930000D01*
X35940000Y-32830000D02*
X32660000Y-32830000D01*
X35940000Y-29230000D02*
X35940000Y-32470000D01*
X25440000Y-29930000D02*
X25440000Y-27330000D01*
D14*
X25740000Y-30630000D02*
X27140000Y-30630000D01*
D13*
X30440000Y-30930000D02*
X25440000Y-30930000D01*
X35940000Y-32830000D02*
X35940000Y-32470000D01*
X35940001Y-29230000D02*
G75*
G03*
X33840000Y-27329999I-2000001J-100000D01*
G01*
X32656318Y-32808529D02*
G75*
G03*
X30440000Y-30930000I-2151318J-291471D01*
G01*
%TO.C,D5*%
X97310000Y-37770000D02*
X98210000Y-37270000D01*
X95010000Y-37020000D02*
X95010000Y-38520000D01*
X100410000Y-37020000D02*
X100410000Y-38520000D01*
X100410000Y-37020000D02*
X95010000Y-37020000D01*
X98210000Y-38270000D02*
X97310000Y-37770000D01*
X98210000Y-37270000D02*
X98210000Y-38270000D01*
X97210000Y-37270000D02*
X97210000Y-38270000D01*
X95010000Y-38520000D02*
X100410000Y-38520000D01*
%TO.C,D8*%
X67420000Y-54510000D02*
X62020000Y-54510000D01*
X64220000Y-54760000D02*
X64220000Y-55760000D01*
X64320000Y-55260000D02*
X65220000Y-54760000D01*
X65220000Y-55760000D02*
X64320000Y-55260000D01*
X62020000Y-56010000D02*
X67420000Y-56010000D01*
X67420000Y-54510000D02*
X67420000Y-56010000D01*
X62020000Y-54510000D02*
X62020000Y-56010000D01*
X65220000Y-54760000D02*
X65220000Y-55760000D01*
%TO.C,SW4*%
X76580000Y-27330000D02*
X84980000Y-27329999D01*
X87080000Y-32830000D02*
X83800000Y-32830000D01*
X76580000Y-29930000D02*
X76580000Y-27330000D01*
X87080000Y-29230000D02*
X87080000Y-32470000D01*
X81580000Y-30930000D02*
X76580000Y-30930000D01*
X87080000Y-32830000D02*
X87080000Y-32470000D01*
D14*
X76880000Y-30630000D02*
X78280000Y-30630000D01*
D13*
X76580000Y-30930000D02*
X76580000Y-29930000D01*
X87080001Y-29230000D02*
G75*
G03*
X84980000Y-27329999I-2000001J-100000D01*
G01*
X83796318Y-32808529D02*
G75*
G03*
X81580000Y-30930000I-2151318J-291471D01*
G01*
%TO.C,D2*%
X47755000Y-37730000D02*
X48655000Y-37230000D01*
X45455000Y-36980000D02*
X45455000Y-38480000D01*
X48655000Y-38230000D02*
X47755000Y-37730000D01*
X48655000Y-37230000D02*
X48655000Y-38230000D01*
X45455000Y-38480000D02*
X50855000Y-38480000D01*
X50855000Y-36980000D02*
X45455000Y-36980000D01*
X50855000Y-36980000D02*
X50855000Y-38480000D01*
X47655000Y-37230000D02*
X47655000Y-38230000D01*
%TO.C,D12*%
X45500000Y-71990000D02*
X45500000Y-73490000D01*
X48700000Y-73240000D02*
X47800000Y-72740000D01*
X47800000Y-72740000D02*
X48700000Y-72240000D01*
X45500000Y-73490000D02*
X50900000Y-73490000D01*
X48700000Y-72240000D02*
X48700000Y-73240000D01*
X50900000Y-71990000D02*
X45500000Y-71990000D01*
X47700000Y-72240000D02*
X47700000Y-73240000D01*
X50900000Y-71990000D02*
X50900000Y-73490000D01*
%TD*%
D16*
%TO.C,J1*%
X118460000Y-74625000D03*
X111460000Y-74625000D03*
X118460000Y-72875000D03*
X111460000Y-72875000D03*
D17*
X108160000Y-74975000D03*
X108160000Y-72525000D03*
X116660000Y-76725000D03*
X116660000Y-70775000D03*
X113660000Y-76725000D03*
X113660000Y-70775000D03*
X109660000Y-76725000D03*
X109660000Y-70775000D03*
%TD*%
D18*
%TO.C,U1*%
X26686500Y-98011200D03*
X29226500Y-98011200D03*
X31766500Y-98011200D03*
X34306500Y-98011200D03*
X36846500Y-98011200D03*
X39386500Y-98011200D03*
X41926500Y-98011200D03*
X41926500Y-82776200D03*
X39386500Y-82776200D03*
X36846500Y-82776200D03*
X34306500Y-82776200D03*
X31766500Y-82776200D03*
X29226500Y-82776200D03*
X26686500Y-82776200D03*
%TD*%
D19*
X62955000Y-38838100D03*
X28753000Y-39008300D03*
X30564500Y-37339800D03*
X44975300Y-36929600D03*
X67799300Y-37655900D03*
X67219700Y-36187600D03*
X81691300Y-37730000D03*
X82070000Y-26954500D03*
X99618400Y-38852600D03*
X30574000Y-55726400D03*
X51237400Y-55230000D03*
X55073100Y-53588000D03*
X53122300Y-54996700D03*
X68194700Y-54859800D03*
X82454000Y-43413000D03*
X81699500Y-55731400D03*
X99759000Y-54190300D03*
X64235100Y-56060300D03*
X95798900Y-54190100D03*
X38888200Y-54869700D03*
X31855000Y-73826700D03*
X48718200Y-73140100D03*
X66535000Y-71702300D03*
X75910000Y-62030000D03*
X82945000Y-73858700D03*
X99455000Y-73836500D03*
X72195400Y-91616100D03*
X62361700Y-92327600D03*
X98861400Y-97992800D03*
X103137400Y-98638000D03*
X118345000Y-90646400D03*
X65512003Y-93817997D03*
X28335000Y-71632400D03*
X31024800Y-75015000D03*
X58885800Y-90329200D03*
D20*
X61000000Y-58000000D03*
X46840000Y-82500000D03*
X91720000Y-80940000D03*
X24000000Y-39000000D03*
X63170000Y-82670000D03*
X37000000Y-60000000D03*
X83970000Y-97260000D03*
X36740000Y-72820000D03*
X103511246Y-41001037D03*
X57020000Y-79240000D03*
X76000000Y-72000000D03*
X84000000Y-40000000D03*
X77820000Y-35710000D03*
X40240000Y-79250000D03*
X30000000Y-80000000D03*
X24000000Y-73000000D03*
X53000000Y-58000000D03*
X103240000Y-100300000D03*
X57150000Y-38100000D03*
D19*
X22289100Y-50760000D03*
X38128700Y-29721100D03*
X39071800Y-74266900D03*
X39694700Y-27028200D03*
X55635200Y-47148300D03*
X41180000Y-55450000D03*
X36360000Y-78460000D03*
X57740000Y-73147200D03*
X72166700Y-29597400D03*
X68470000Y-75110200D03*
X72410000Y-50580000D03*
X72166700Y-37831400D03*
X72230600Y-64335100D03*
X72230000Y-80750000D03*
X34277500Y-84211300D03*
X74170000Y-39288400D03*
X88995400Y-29721100D03*
X74180000Y-37820700D03*
X88909400Y-64749600D03*
X85894900Y-84303300D03*
X85894900Y-75080200D03*
X101780000Y-75030000D03*
X97851650Y-81348350D03*
X104402800Y-90422800D03*
X99848300Y-35996500D03*
X37980000Y-94040000D03*
X35120000Y-51460000D03*
X32580000Y-46380000D03*
X30040000Y-51460000D03*
X24960000Y-51460000D03*
X33850000Y-48919999D03*
X26230000Y-48920000D03*
X27500000Y-46380000D03*
X26240000Y-66420000D03*
X30050000Y-68960000D03*
X27510000Y-63880000D03*
X35130000Y-68960000D03*
X33860000Y-66419999D03*
X32590000Y-63880000D03*
X24970000Y-68960000D03*
X76090000Y-51460000D03*
X84980000Y-48919999D03*
X78630000Y-46380000D03*
X81170000Y-51460000D03*
X86250000Y-51460000D03*
X77360000Y-48920000D03*
X83710000Y-46380000D03*
X67250000Y-28870000D03*
X60900000Y-31410000D03*
X59630000Y-33950000D03*
X68520000Y-31409999D03*
X62170000Y-28870000D03*
X64710000Y-33950000D03*
X69790000Y-33950000D03*
X97690000Y-33960000D03*
X95150000Y-28880000D03*
X102770000Y-33960000D03*
X100230000Y-28880000D03*
X92610000Y-33960000D03*
X101500000Y-31419999D03*
X93880000Y-31420000D03*
X52020000Y-80950000D03*
X101480000Y-66419999D03*
X97670000Y-68960000D03*
X92590000Y-68960000D03*
X102750000Y-68960000D03*
X95130000Y-63880000D03*
X100210000Y-63880000D03*
X93860000Y-66420000D03*
X45640000Y-46370000D03*
X44370000Y-48910000D03*
X43100000Y-51450000D03*
X51990000Y-48909999D03*
X50720000Y-46370000D03*
X48180000Y-51450000D03*
X53260000Y-51450000D03*
X112800000Y-84690000D03*
X75370000Y-89080000D03*
X72830000Y-84000000D03*
X80370000Y-92780000D03*
X71560000Y-86540000D03*
X70370000Y-92780000D03*
X75370000Y-94980000D03*
X80450000Y-89080000D03*
X69870000Y-89080000D03*
X79180000Y-86540000D03*
X70290000Y-89080000D03*
X80870000Y-89080000D03*
X77910000Y-84000000D03*
X53040000Y-95600000D03*
X104122510Y-96619485D03*
X104939998Y-93010037D03*
X108441761Y-99963745D03*
X113825468Y-99038704D03*
X108633512Y-88695416D03*
X115205726Y-95569570D03*
X113562614Y-89924379D03*
X114798202Y-95467963D03*
X114180408Y-92696171D03*
X106786755Y-90852726D03*
X104532474Y-92908430D03*
X109869100Y-94239000D03*
X118460000Y-74625000D03*
X111460000Y-74625000D03*
X118460000Y-72875000D03*
X111460000Y-72875000D03*
D21*
X108160000Y-74975000D03*
X108160000Y-72525000D03*
X116660000Y-76725000D03*
X116660000Y-70775000D03*
X113660000Y-76725000D03*
X113660000Y-70775000D03*
X109660000Y-76725000D03*
X109660000Y-70775000D03*
D19*
X68520000Y-48919999D03*
X60900000Y-48920000D03*
X67250000Y-46380000D03*
X69790000Y-51460000D03*
X64710000Y-51460000D03*
X62170000Y-46380000D03*
X59630000Y-51460000D03*
X97680000Y-23950000D03*
X87600729Y-89755695D03*
X87293535Y-93443789D03*
X96707531Y-88158868D03*
X87183030Y-89711793D03*
X92652900Y-90286700D03*
X90657819Y-84969026D03*
X97238754Y-94489073D03*
X95709990Y-85500031D03*
X98122770Y-90861607D03*
X89129274Y-87362361D03*
X97705071Y-90817705D03*
X92036182Y-96154379D03*
X26686500Y-98011200D03*
X25387500Y-81378700D03*
X27927500Y-81378700D03*
X29226500Y-98011200D03*
X30467500Y-81378700D03*
X31766500Y-98011200D03*
X34306500Y-98011200D03*
X33007500Y-81378700D03*
X35547500Y-81378700D03*
X36846500Y-98011200D03*
X38087500Y-81378700D03*
X39386500Y-98011200D03*
X40627500Y-81378700D03*
X41926500Y-98011200D03*
X41926500Y-82776200D03*
X40627500Y-96613700D03*
X39386500Y-82776200D03*
X38087500Y-96613700D03*
X35547500Y-96613700D03*
X36846500Y-82776200D03*
X34306500Y-82776200D03*
X33007500Y-96613700D03*
X31766500Y-82776200D03*
X30467500Y-96613700D03*
X27927500Y-96613700D03*
X29226500Y-82776200D03*
X26686500Y-82776200D03*
X25387500Y-96613700D03*
X100220000Y-46390000D03*
X97680000Y-51470000D03*
X101490000Y-48929999D03*
X102760000Y-51470000D03*
X92600000Y-51470000D03*
X93870000Y-48930000D03*
X95140000Y-46390000D03*
X53250000Y-33950000D03*
X50710000Y-28870000D03*
X45630000Y-28870000D03*
X43090000Y-33950000D03*
X44360000Y-31410000D03*
X48170000Y-33950000D03*
X51980000Y-31409999D03*
X59660000Y-68980000D03*
X60930000Y-66440000D03*
X68550000Y-66439999D03*
X69820000Y-68980000D03*
X64740000Y-68980000D03*
X62200000Y-63900000D03*
X67280000Y-63900000D03*
X30040000Y-23950000D03*
X45640000Y-63860000D03*
X50720000Y-63860000D03*
X44370000Y-66400000D03*
X51990000Y-66399999D03*
X48180000Y-68940000D03*
X53260000Y-68940000D03*
X43100000Y-68940000D03*
X77350000Y-66420000D03*
X81160000Y-68960000D03*
X78620000Y-63880000D03*
X84970000Y-66419999D03*
X86240000Y-68960000D03*
X76080000Y-68960000D03*
X83700000Y-63880000D03*
X35120000Y-33930000D03*
X27500000Y-28850000D03*
X26230000Y-31390000D03*
X32580000Y-28850000D03*
X24960000Y-33930000D03*
X30040000Y-33930000D03*
X33850000Y-31389999D03*
X78640000Y-28850000D03*
X84990000Y-31389999D03*
X86260000Y-33930000D03*
X77370000Y-31390000D03*
X83720000Y-28850000D03*
X81180000Y-33930000D03*
X76100000Y-33930000D03*
%LPC*%
D22*
%TO.C,D7*%
X46415000Y-55230000D03*
X49965000Y-55230000D03*
%TD*%
D23*
%TO.C,SW6*%
X35120000Y-51460000D03*
D24*
X32580000Y-46380000D03*
D25*
X30040000Y-51460000D03*
D23*
X24960000Y-51460000D03*
D24*
X33850000Y-48919999D03*
X26230000Y-48920000D03*
X27500000Y-46380000D03*
D26*
X37040000Y-48880000D03*
X24340000Y-46340000D03*
%TD*%
D24*
%TO.C,SW11*%
X26240000Y-66420000D03*
D25*
X30050000Y-68960000D03*
D24*
X27510000Y-63880000D03*
D23*
X35130000Y-68960000D03*
D24*
X33860000Y-66419999D03*
X32590000Y-63880000D03*
D23*
X24970000Y-68960000D03*
D26*
X37050000Y-66380000D03*
X24350000Y-63840000D03*
%TD*%
D22*
%TO.C,D6*%
X28275000Y-55260000D03*
X31825000Y-55260000D03*
%TD*%
D23*
%TO.C,SW9*%
X76090000Y-51460000D03*
D24*
X84980000Y-48919999D03*
X78630000Y-46380000D03*
D25*
X81170000Y-51460000D03*
D23*
X86250000Y-51460000D03*
D24*
X77360000Y-48920000D03*
X83710000Y-46380000D03*
D26*
X88170000Y-48880000D03*
X75470000Y-46340000D03*
%TD*%
D24*
%TO.C,SW3*%
X67250000Y-28870000D03*
X60900000Y-31410000D03*
D23*
X59630000Y-33950000D03*
D24*
X68520000Y-31409999D03*
X62170000Y-28870000D03*
D25*
X64710000Y-33950000D03*
D23*
X69790000Y-33950000D03*
D26*
X71710000Y-31370000D03*
X59010000Y-28830000D03*
%TD*%
D22*
%TO.C,D9*%
X79405000Y-55270000D03*
X82955000Y-55270000D03*
%TD*%
%TO.C,D16*%
X60155000Y-90350000D03*
X63705000Y-90350000D03*
%TD*%
%TO.C,D11*%
X28305000Y-72750000D03*
X31855000Y-72750000D03*
%TD*%
%TO.C,D14*%
X79395000Y-72770000D03*
X82945000Y-72770000D03*
%TD*%
%TO.C,D17*%
X60095000Y-92290000D03*
X63645000Y-92290000D03*
%TD*%
D25*
%TO.C,SW5*%
X97690000Y-33960000D03*
D24*
X95150000Y-28880000D03*
D23*
X102770000Y-33960000D03*
D24*
X100230000Y-28880000D03*
D23*
X92610000Y-33960000D03*
D24*
X101500000Y-31419999D03*
X93880000Y-31420000D03*
D26*
X104690000Y-31380000D03*
X91990000Y-28840000D03*
%TD*%
D27*
%TO.C,HOLE3*%
X52020000Y-80950000D03*
%TD*%
D24*
%TO.C,SW15*%
X101480000Y-66419999D03*
D25*
X97670000Y-68960000D03*
D23*
X92590000Y-68960000D03*
X102750000Y-68960000D03*
D24*
X95130000Y-63880000D03*
X100210000Y-63880000D03*
X93860000Y-66420000D03*
D26*
X104670000Y-66380000D03*
X91970000Y-63840000D03*
%TD*%
D22*
%TO.C,D13*%
X62985000Y-72780000D03*
X66535000Y-72780000D03*
%TD*%
D24*
%TO.C,SW7*%
X45640000Y-46370000D03*
X44370000Y-48910000D03*
D23*
X43100000Y-51450000D03*
D24*
X51990000Y-48909999D03*
X50720000Y-46370000D03*
D25*
X48180000Y-51450000D03*
D23*
X53260000Y-51450000D03*
D26*
X55180000Y-48870000D03*
X42480000Y-46330000D03*
%TD*%
D22*
%TO.C,D1*%
X28285000Y-37740000D03*
X31835000Y-37740000D03*
%TD*%
D27*
%TO.C,HOLE5*%
X112800000Y-84690000D03*
%TD*%
D28*
%TO.C,SW16*%
X75370000Y-89080000D03*
D24*
X72830000Y-84000000D03*
X80370000Y-92780000D03*
X71560000Y-86540000D03*
X70370000Y-92780000D03*
X75370000Y-94980000D03*
D29*
X80450000Y-89080000D03*
D23*
X69870000Y-89080000D03*
D24*
X79180000Y-86540000D03*
D29*
X70290000Y-89080000D03*
D23*
X80870000Y-89080000D03*
D24*
X77910000Y-84000000D03*
D30*
X83470000Y-92780000D03*
X69770000Y-84000000D03*
X82270000Y-86540000D03*
D31*
X72570000Y-94980000D03*
%TD*%
D22*
%TO.C,D18*%
X60125000Y-94220000D03*
X63675000Y-94220000D03*
%TD*%
D27*
%TO.C,HOLE4*%
X53040000Y-95600000D03*
%TD*%
D22*
%TO.C,D4*%
X79415000Y-37730000D03*
X82965000Y-37730000D03*
%TD*%
%TO.C,D10*%
X95915000Y-55290000D03*
X99465000Y-55290000D03*
%TD*%
D24*
%TO.C,SW18*%
X104122510Y-96619485D03*
D29*
X104939998Y-93010037D03*
D24*
X108441761Y-99963745D03*
X113825468Y-99038704D03*
X108633512Y-88695416D03*
D23*
X115205726Y-95569570D03*
D24*
X113562614Y-89924379D03*
D29*
X114798202Y-95467963D03*
D24*
X114180408Y-92696171D03*
X106786755Y-90852726D03*
D23*
X104532474Y-92908430D03*
D28*
X109869100Y-94239000D03*
D32*
X116599998Y-99688662D03*
D33*
X105664407Y-87955135D03*
X117178622Y-93443710D03*
D34*
X105724933Y-99286363D03*
%TD*%
D16*
%TO.C,J1*%
X118460000Y-74625000D03*
X111460000Y-74625000D03*
X118460000Y-72875000D03*
X111460000Y-72875000D03*
D17*
X108160000Y-74975000D03*
X108160000Y-72525000D03*
X116660000Y-76725000D03*
X116660000Y-70775000D03*
X113660000Y-76725000D03*
X113660000Y-70775000D03*
X109660000Y-76725000D03*
X109660000Y-70775000D03*
%TD*%
D22*
%TO.C,D3*%
X62955000Y-37760000D03*
X66505000Y-37760000D03*
%TD*%
D24*
%TO.C,SW8*%
X68520000Y-48919999D03*
X60900000Y-48920000D03*
X67250000Y-46380000D03*
D23*
X69790000Y-51460000D03*
D25*
X64710000Y-51460000D03*
D24*
X62170000Y-46380000D03*
D23*
X59630000Y-51460000D03*
D26*
X71710000Y-48880000D03*
X59010000Y-46340000D03*
%TD*%
D27*
%TO.C,HOLE2*%
X97680000Y-23950000D03*
%TD*%
D29*
%TO.C,SW17*%
X87600729Y-89755695D03*
D24*
X87293535Y-93443789D03*
X96707531Y-88158868D03*
D23*
X87183030Y-89711793D03*
D28*
X92652900Y-90286700D03*
D24*
X90657819Y-84969026D03*
X97238754Y-94489073D03*
X95709990Y-85500031D03*
D23*
X98122770Y-90861607D03*
D24*
X89129274Y-87362361D03*
D29*
X97705071Y-90817705D03*
D24*
X92036182Y-96154379D03*
D35*
X87614582Y-84649169D03*
X100321772Y-94813112D03*
X99780603Y-88481861D03*
D36*
X89251521Y-95861699D03*
%TD*%
D18*
%TO.C,U1*%
X26686500Y-98011200D03*
X25387500Y-81378700D03*
X27927500Y-81378700D03*
X29226500Y-98011200D03*
X30467500Y-81378700D03*
X31766500Y-98011200D03*
X34306500Y-98011200D03*
X33007500Y-81378700D03*
X35547500Y-81378700D03*
X36846500Y-98011200D03*
X38087500Y-81378700D03*
X39386500Y-98011200D03*
X40627500Y-81378700D03*
X41926500Y-98011200D03*
X41926500Y-82776200D03*
X40627500Y-96613700D03*
X39386500Y-82776200D03*
X38087500Y-96613700D03*
X35547500Y-96613700D03*
X36846500Y-82776200D03*
X34306500Y-82776200D03*
X33007500Y-96613700D03*
X31766500Y-82776200D03*
X30467500Y-96613700D03*
X27927500Y-96613700D03*
X29226500Y-82776200D03*
X26686500Y-82776200D03*
X25387500Y-96613700D03*
%TD*%
D24*
%TO.C,SW10*%
X100220000Y-46390000D03*
D25*
X97680000Y-51470000D03*
D24*
X101490000Y-48929999D03*
D23*
X102760000Y-51470000D03*
X92600000Y-51470000D03*
D24*
X93870000Y-48930000D03*
X95140000Y-46390000D03*
D26*
X104680000Y-48890000D03*
X91980000Y-46350000D03*
%TD*%
D22*
%TO.C,D15*%
X95905000Y-72760000D03*
X99455000Y-72760000D03*
%TD*%
D23*
%TO.C,SW2*%
X53250000Y-33950000D03*
D24*
X50710000Y-28870000D03*
X45630000Y-28870000D03*
D23*
X43090000Y-33950000D03*
D24*
X44360000Y-31410000D03*
D25*
X48170000Y-33950000D03*
D24*
X51980000Y-31409999D03*
D26*
X55170000Y-31370000D03*
X42470000Y-28830000D03*
%TD*%
D23*
%TO.C,SW13*%
X59660000Y-68980000D03*
D24*
X60930000Y-66440000D03*
X68550000Y-66439999D03*
D23*
X69820000Y-68980000D03*
D25*
X64740000Y-68980000D03*
D24*
X62200000Y-63900000D03*
X67280000Y-63900000D03*
D26*
X71740000Y-66400000D03*
X59040000Y-63860000D03*
%TD*%
D27*
%TO.C,HOLE1*%
X30040000Y-23950000D03*
%TD*%
D24*
%TO.C,SW12*%
X45640000Y-63860000D03*
X50720000Y-63860000D03*
X44370000Y-66400000D03*
X51990000Y-66399999D03*
D25*
X48180000Y-68940000D03*
D23*
X53260000Y-68940000D03*
X43100000Y-68940000D03*
D26*
X55180000Y-66360000D03*
X42480000Y-63820000D03*
%TD*%
D24*
%TO.C,SW14*%
X77350000Y-66420000D03*
D25*
X81160000Y-68960000D03*
D24*
X78620000Y-63880000D03*
X84970000Y-66419999D03*
D23*
X86240000Y-68960000D03*
X76080000Y-68960000D03*
D24*
X83700000Y-63880000D03*
D26*
X88160000Y-66380000D03*
X75460000Y-63840000D03*
%TD*%
D23*
%TO.C,SW1*%
X35120000Y-33930000D03*
D24*
X27500000Y-28850000D03*
X26230000Y-31390000D03*
X32580000Y-28850000D03*
D23*
X24960000Y-33930000D03*
D25*
X30040000Y-33930000D03*
D24*
X33850000Y-31389999D03*
D26*
X37040000Y-31350000D03*
X24340000Y-28810000D03*
%TD*%
D22*
%TO.C,D5*%
X95935000Y-37770000D03*
X99485000Y-37770000D03*
%TD*%
%TO.C,D8*%
X62945000Y-55260000D03*
X66495000Y-55260000D03*
%TD*%
D24*
%TO.C,SW4*%
X78640000Y-28850000D03*
X84990000Y-31389999D03*
D23*
X86260000Y-33930000D03*
D24*
X77370000Y-31390000D03*
X83720000Y-28850000D03*
D25*
X81180000Y-33930000D03*
D23*
X76100000Y-33930000D03*
D26*
X88180000Y-31350000D03*
X75480000Y-28810000D03*
%TD*%
D22*
%TO.C,D2*%
X46380000Y-37730000D03*
X49930000Y-37730000D03*
%TD*%
%TO.C,D12*%
X46425000Y-72740000D03*
X49975000Y-72740000D03*
%TD*%
M02*
