M48
; DRILL file {KiCad (6.0.6)} date 2022年12月14日 08時04分59秒
; FORMAT={-:-/ absolute / metric / decimal}
; #@! TF.CreationDate,2022-12-14T08:04:59+09:00
; #@! TF.GenerationSoftware,Kicad,Pcbnew,(6.0.6)
; #@! TF.FileFunction,Plated,1,2,PTH
FMAT,2
METRIC
; #@! TA.AperFunction,Plated,PTH,ViaDrill
T1C0.400
; #@! TA.AperFunction,Plated,PTH,ComponentDrill
T2C0.600
; #@! TA.AperFunction,Plated,PTH,ComponentDrill
T3C1.000
%
G90
G05
T1
X22.59Y-36.88
X23.563Y-37.109
X23.634Y-53.4
X23.97Y-70.871
X25.65Y-84.625
X27.46Y-28.87
X28.024Y-29.695
X28.387Y-83.267
X28.44Y-82.268
X28.55Y-81.275
X28.961Y-80.364
X29.33Y-88.87
X32.076Y-88.626
X32.83Y-28.94
X32.9Y-34.18
X32.947Y-88.136
X33.775Y-87.575
X34.18Y-29.56
X34.27Y-34.08
X35.075Y-30.353
X35.74Y-32.59
X37.594Y-40.037
X37.95Y-93.775
X38.0Y-79.0
X38.426Y-51.165
X38.684Y-41.14
X39.025Y-95.048
X39.05Y-78.902
X39.45Y-51.2
X39.764Y-94.375
X39.875Y-78.075
X40.15Y-74.575
X40.775Y-94.0
X41.489Y-78.094
X43.41Y-78.75
X44.65Y-78.55
X45.225Y-79.5
X46.025Y-96.0
X46.85Y-79.5
X47.125Y-81.05
X47.2Y-76.75
X48.85Y-82.325
X49.0Y-75.935
X49.175Y-87.675
X50.075Y-88.2
X50.6Y-84.9
X50.95Y-88.8
X51.15Y-89.95
X52.33Y-84.82
X53.5Y-42.7
X53.725Y-59.55
X53.8Y-79.3
X69.85Y-57.85
X69.85Y-75.35
X70.025Y-43.05
X75.825Y-93.0
X86.025Y-58.35
X86.425Y-75.7
X86.675Y-43.7
X88.725Y-45.25
X92.425Y-93.35
X102.9Y-76.05
X103.05Y-58.575
X103.25Y-44.4
X104.975Y-50.75
X105.775Y-48.925
X105.875Y-41.025
X105.975Y-51.825
X106.8Y-34.3
X108.35Y-93.475
T2
G00X25.57Y-21.92
M15
G01X25.57Y-22.72
M16
G05
G00X25.57Y-25.95
M15
G01X25.57Y-27.05
M16
G05
G00X34.21Y-21.92
M15
G01X34.21Y-22.72
M16
G05
G00X34.21Y-25.95
M15
G01X34.21Y-27.05
M16
G05
T3
G00X110.1Y-24.25
M15
G01X110.1Y-23.75
M16
G05
G00X110.1Y-27.25
M15
G01X110.1Y-26.75
M16
G05
G00X110.1Y-31.25
M15
G01X110.1Y-30.75
M16
G05
G00X114.3Y-32.75
M15
G01X114.3Y-32.25
M16
G05
T0
M30
