%TF.GenerationSoftware,KiCad,Pcbnew,(6.0.6)*%
%TF.CreationDate,2022-12-14T08:04:59+09:00*%
%TF.ProjectId,split-mini__left,73706c69-742d-46d6-996e-695f5f6c6566,rev?*%
%TF.SameCoordinates,Original*%
%TF.FileFunction,Legend,Top*%
%TF.FilePolarity,Positive*%
%FSLAX46Y46*%
G04 Gerber Fmt 4.6, Leading zero omitted, Abs format (unit mm)*
G04 Created by KiCad (PCBNEW (6.0.6)) date 2022-12-14 08:04:59*
%MOMM*%
%LPD*%
G01*
G04 APERTURE LIST*
%TA.AperFunction,Profile*%
%ADD10C,0.100000*%
%TD*%
%ADD11C,0.350000*%
%ADD12O,0.600000X1.400000*%
%ADD13O,0.600000X1.700000*%
%ADD14O,1.000000X1.500000*%
%ADD15C,1.900000*%
%ADD16C,4.100000*%
%ADD17C,3.000000*%
%ADD18C,0.650000*%
%ADD19O,1.000000X1.800000*%
%ADD20O,1.000000X2.100000*%
%ADD21C,1.200000*%
%ADD22O,1.700000X2.500000*%
G04 APERTURE END LIST*
D10*
X108880000Y-20730000D02*
X108880000Y-28230000D01*
X115380000Y-37730000D02*
X115380000Y-20730000D01*
X20380000Y-97555000D02*
X111155000Y-97555000D01*
X24380000Y-28230000D02*
X20380000Y-28230000D01*
X35380000Y-28230000D02*
X35380000Y-20930000D01*
X115380000Y-37730000D02*
X111155000Y-37730000D01*
X111155000Y-97555000D02*
X111155000Y-37730000D01*
X35380000Y-20930000D02*
X24380000Y-20930000D01*
X115380000Y-20730000D02*
X108880000Y-20730000D01*
X20380000Y-28230000D02*
X20380000Y-97555000D01*
X108880000Y-28230000D02*
X35380000Y-28230000D01*
X24380000Y-20930000D02*
X24380000Y-28230000D01*
D11*
X41489500Y-78094500D03*
X47200000Y-76750000D03*
X40150000Y-74575000D03*
X52330000Y-84820000D03*
X88725000Y-45250000D03*
X39875000Y-78075000D03*
X50600000Y-84900000D03*
X105875000Y-41025000D03*
X22590000Y-36880000D03*
X25650000Y-84625000D03*
X29330353Y-88869647D03*
X53800000Y-79300000D03*
X46025000Y-96000000D03*
X105975000Y-51825000D03*
X28961382Y-80364083D03*
X32830000Y-28940000D03*
X27460000Y-28870000D03*
X35740000Y-32590000D03*
X28024028Y-29695152D03*
X34270000Y-34080000D03*
X38684500Y-41140000D03*
X32900000Y-34180000D03*
X37594177Y-40037183D03*
X34180000Y-29560000D03*
X35074779Y-30353484D03*
X104974799Y-50749799D03*
X49175000Y-87675000D03*
X106800000Y-34300000D03*
X38000000Y-79000000D03*
X38425994Y-51165238D03*
X39050500Y-78901576D03*
X39450000Y-51200000D03*
X105775000Y-48925000D03*
X48850000Y-82325000D03*
X28387352Y-83266524D03*
X23562933Y-37108925D03*
X32076475Y-88625807D03*
X53500000Y-42700000D03*
X70025000Y-43050000D03*
X32947493Y-88135569D03*
X33775000Y-87575000D03*
X86675000Y-43700000D03*
X37950000Y-93775000D03*
X103250000Y-44400000D03*
X23634500Y-53400000D03*
X28439623Y-82268389D03*
X53725000Y-59550000D03*
X44650000Y-78550000D03*
X45225000Y-79500000D03*
X69850000Y-57850000D03*
X86025000Y-58350000D03*
X46850000Y-79500000D03*
X47125000Y-81050000D03*
X103050000Y-58575000D03*
X23970438Y-70870938D03*
X28550000Y-81275000D03*
X49000000Y-75935500D03*
X43410000Y-78750000D03*
X50075000Y-88200000D03*
X69850000Y-75350000D03*
X86425000Y-75700000D03*
X50950000Y-88800000D03*
X102900000Y-76050000D03*
X51150000Y-89950000D03*
X40775000Y-94000000D03*
X75825000Y-93000000D03*
X92425000Y-93350000D03*
X39764500Y-94375000D03*
X108350000Y-93475000D03*
X39025162Y-95047596D03*
X100960000Y-70730000D03*
X95880000Y-70730000D03*
X92070000Y-68190000D03*
X90800000Y-70730000D03*
X98420000Y-65650000D03*
X41300000Y-56720000D03*
X51460000Y-56720000D03*
X48920000Y-51640000D03*
X46380000Y-56720000D03*
X42570000Y-54180000D03*
X57830000Y-37720000D03*
X59100000Y-35180000D03*
X62910000Y-37720000D03*
X65450000Y-32640000D03*
X67990000Y-37720000D03*
X32410000Y-54090000D03*
X24790000Y-59170000D03*
X29870000Y-59170000D03*
X34950000Y-59170000D03*
X26060000Y-56630000D03*
X87690000Y-82990000D03*
X80070000Y-88070000D03*
X85150000Y-88070000D03*
X81340000Y-85530000D03*
X90230000Y-88070000D03*
X81930000Y-65640000D03*
X75580000Y-68180000D03*
X79390000Y-70720000D03*
X84470000Y-70720000D03*
X74310000Y-70720000D03*
X75580000Y-51690000D03*
X79390000Y-54230000D03*
X81930000Y-49150000D03*
X84470000Y-54230000D03*
X74310000Y-54230000D03*
X59080000Y-51690000D03*
X57810000Y-54230000D03*
X62890000Y-54230000D03*
X65430000Y-49150000D03*
X67970000Y-54230000D03*
X100970000Y-54230000D03*
X95890000Y-54230000D03*
X90810000Y-54230000D03*
X92080000Y-51690000D03*
X98430000Y-49150000D03*
X29900000Y-75720000D03*
X26090000Y-73180000D03*
X34980000Y-75720000D03*
X32440000Y-70640000D03*
X24820000Y-75720000D03*
X24810000Y-42640000D03*
X34970000Y-42640000D03*
X26080000Y-40100000D03*
X32430000Y-37560000D03*
X29890000Y-42640000D03*
X42570000Y-70680000D03*
X51460000Y-73220000D03*
X48920000Y-68140000D03*
X41300000Y-73220000D03*
X46380000Y-73220000D03*
X100990000Y-37700000D03*
X90830000Y-37700000D03*
X98450000Y-32620000D03*
X92100000Y-35160000D03*
X95910000Y-37700000D03*
X41310000Y-40190000D03*
X46390000Y-40190000D03*
X48930000Y-35110000D03*
X42580000Y-37650000D03*
X51470000Y-40190000D03*
X67990000Y-70750000D03*
X57830000Y-70750000D03*
X59100000Y-68210000D03*
X65450000Y-65670000D03*
X62910000Y-70750000D03*
X63580000Y-88050000D03*
X71200000Y-82970000D03*
X73740000Y-88050000D03*
X64850000Y-85510000D03*
X68660000Y-88050000D03*
X79420000Y-37720000D03*
X84500000Y-37720000D03*
X74340000Y-37720000D03*
X75610000Y-35180000D03*
X81960000Y-32640000D03*
X96590000Y-88060000D03*
X104210000Y-82980000D03*
X97860000Y-85520000D03*
X106750000Y-88060000D03*
X101670000Y-88060000D03*
X27000000Y-26000000D03*
X32780000Y-26000000D03*
D12*
X34210000Y-22320000D03*
D13*
X25570000Y-26500000D03*
X34210000Y-26500000D03*
D12*
X25570000Y-22320000D03*
D11*
X112200000Y-29200000D03*
X112200000Y-22200000D03*
D14*
X114300000Y-32500000D03*
X110100000Y-24000000D03*
X110100000Y-27000000D03*
X110100000Y-31000000D03*
%LPC*%
D15*
%TO.C,SW15*%
X100960000Y-70730000D03*
D16*
X95880000Y-70730000D03*
D17*
X92070000Y-68190000D03*
D15*
X90800000Y-70730000D03*
D17*
X98420000Y-65650000D03*
%TD*%
D15*
%TO.C,SW7*%
X41300000Y-56720000D03*
X51460000Y-56720000D03*
D17*
X48920000Y-51640000D03*
D16*
X46380000Y-56720000D03*
D17*
X42570000Y-54180000D03*
%TD*%
D15*
%TO.C,SW3*%
X57830000Y-37720000D03*
D17*
X59100000Y-35180000D03*
D16*
X62910000Y-37720000D03*
D17*
X65450000Y-32640000D03*
D15*
X67990000Y-37720000D03*
%TD*%
D17*
%TO.C,SW6*%
X32410000Y-54090000D03*
D15*
X24790000Y-59170000D03*
D16*
X29870000Y-59170000D03*
D15*
X34950000Y-59170000D03*
D17*
X26060000Y-56630000D03*
%TD*%
%TO.C,SW17*%
X87690000Y-82990000D03*
D15*
X80070000Y-88070000D03*
D16*
X85150000Y-88070000D03*
D17*
X81340000Y-85530000D03*
D15*
X90230000Y-88070000D03*
%TD*%
D17*
%TO.C,SW14*%
X81930000Y-65640000D03*
X75580000Y-68180000D03*
D16*
X79390000Y-70720000D03*
D15*
X84470000Y-70720000D03*
X74310000Y-70720000D03*
%TD*%
D17*
%TO.C,SW9*%
X75580000Y-51690000D03*
D16*
X79390000Y-54230000D03*
D17*
X81930000Y-49150000D03*
D15*
X84470000Y-54230000D03*
X74310000Y-54230000D03*
%TD*%
D17*
%TO.C,SW8*%
X59080000Y-51690000D03*
D15*
X57810000Y-54230000D03*
D16*
X62890000Y-54230000D03*
D17*
X65430000Y-49150000D03*
D15*
X67970000Y-54230000D03*
%TD*%
%TO.C,SW10*%
X100970000Y-54230000D03*
D16*
X95890000Y-54230000D03*
D15*
X90810000Y-54230000D03*
D17*
X92080000Y-51690000D03*
X98430000Y-49150000D03*
%TD*%
D16*
%TO.C,SW11*%
X29900000Y-75720000D03*
D17*
X26090000Y-73180000D03*
D15*
X34980000Y-75720000D03*
D17*
X32440000Y-70640000D03*
D15*
X24820000Y-75720000D03*
%TD*%
%TO.C,SW1*%
X24810000Y-42640000D03*
X34970000Y-42640000D03*
D17*
X26080000Y-40100000D03*
X32430000Y-37560000D03*
D16*
X29890000Y-42640000D03*
%TD*%
D17*
%TO.C,SW12*%
X42570000Y-70680000D03*
D15*
X51460000Y-73220000D03*
D17*
X48920000Y-68140000D03*
D15*
X41300000Y-73220000D03*
D16*
X46380000Y-73220000D03*
%TD*%
D15*
%TO.C,SW5*%
X100990000Y-37700000D03*
X90830000Y-37700000D03*
D17*
X98450000Y-32620000D03*
X92100000Y-35160000D03*
D16*
X95910000Y-37700000D03*
%TD*%
D15*
%TO.C,SW2*%
X41310000Y-40190000D03*
D16*
X46390000Y-40190000D03*
D17*
X48930000Y-35110000D03*
X42580000Y-37650000D03*
D15*
X51470000Y-40190000D03*
%TD*%
%TO.C,SW13*%
X67990000Y-70750000D03*
X57830000Y-70750000D03*
D17*
X59100000Y-68210000D03*
X65450000Y-65670000D03*
D16*
X62910000Y-70750000D03*
%TD*%
D15*
%TO.C,SW16*%
X63580000Y-88050000D03*
D17*
X71200000Y-82970000D03*
D15*
X73740000Y-88050000D03*
D17*
X64850000Y-85510000D03*
D16*
X68660000Y-88050000D03*
%TD*%
%TO.C,SW4*%
X79420000Y-37720000D03*
D15*
X84500000Y-37720000D03*
X74340000Y-37720000D03*
D17*
X75610000Y-35180000D03*
X81960000Y-32640000D03*
%TD*%
D15*
%TO.C,SW18*%
X96590000Y-88060000D03*
D17*
X104210000Y-82980000D03*
X97860000Y-85520000D03*
D15*
X106750000Y-88060000D03*
D16*
X101670000Y-88060000D03*
%TD*%
D18*
%TO.C,J1*%
X27000000Y-26000000D03*
X32780000Y-26000000D03*
D19*
X34210000Y-22320000D03*
D20*
X25570000Y-26500000D03*
X34210000Y-26500000D03*
D19*
X25570000Y-22320000D03*
%TD*%
D21*
%TO.C,J2*%
X112200000Y-29200000D03*
X112200000Y-22200000D03*
D22*
X114300000Y-32500000D03*
X110100000Y-24000000D03*
X110100000Y-27000000D03*
X110100000Y-31000000D03*
%TD*%
M02*
