%TF.GenerationSoftware,KiCad,Pcbnew,(6.0.9)*%
%TF.CreationDate,2023-01-03T16:44:31+09:00*%
%TF.ProjectId,split-mini__bottom,73706c69-742d-46d6-996e-695f5f626f74,rev?*%
%TF.SameCoordinates,Original*%
%TF.FileFunction,Legend,Bot*%
%TF.FilePolarity,Positive*%
%FSLAX46Y46*%
G04 Gerber Fmt 4.6, Leading zero omitted, Abs format (unit mm)*
G04 Created by KiCad (PCBNEW (6.0.9)) date 2023-01-03 16:44:31*
%MOMM*%
%LPD*%
G01*
G04 APERTURE LIST*
%TA.AperFunction,Profile*%
%ADD10C,0.100000*%
%TD*%
%ADD11C,0.300000*%
%ADD12C,0.350000*%
%ADD13C,2.200000*%
G04 APERTURE END LIST*
D10*
X66450000Y-22475000D02*
X66450000Y-36475000D01*
X19950000Y-111725000D02*
X96323180Y-111725000D01*
X103950000Y-94792135D02*
X103950000Y-36475000D01*
X96323180Y-111725000D02*
X116541504Y-115290036D01*
X66450000Y-36475000D02*
X103950000Y-36475000D01*
X55950000Y-15475000D02*
X55950000Y-22475000D01*
X55950000Y-15475000D02*
X19950000Y-15475000D01*
X116541504Y-115290036D02*
X119667171Y-97563496D01*
X66450000Y-22475000D02*
X55950000Y-22475000D01*
X119667171Y-97563496D02*
X103950000Y-94792135D01*
X19950000Y-15475000D02*
X19950000Y-111725000D01*
D11*
X71828571Y-39010714D02*
X71714285Y-39067857D01*
X71485714Y-39067857D01*
X71371428Y-39010714D01*
X71314285Y-38896428D01*
X71314285Y-38839285D01*
X71371428Y-38725000D01*
X71485714Y-38667857D01*
X71657142Y-38667857D01*
X71771428Y-38610714D01*
X71828571Y-38496428D01*
X71828571Y-38439285D01*
X71771428Y-38325000D01*
X71657142Y-38267857D01*
X71485714Y-38267857D01*
X71371428Y-38325000D01*
X70800000Y-38267857D02*
X70800000Y-39467857D01*
X70800000Y-38325000D02*
X70685714Y-38267857D01*
X70457142Y-38267857D01*
X70342857Y-38325000D01*
X70285714Y-38382142D01*
X70228571Y-38496428D01*
X70228571Y-38839285D01*
X70285714Y-38953571D01*
X70342857Y-39010714D01*
X70457142Y-39067857D01*
X70685714Y-39067857D01*
X70800000Y-39010714D01*
X69542857Y-39067857D02*
X69657142Y-39010714D01*
X69714285Y-38896428D01*
X69714285Y-37867857D01*
X69085714Y-39067857D02*
X69085714Y-38267857D01*
X69085714Y-37867857D02*
X69142857Y-37925000D01*
X69085714Y-37982142D01*
X69028571Y-37925000D01*
X69085714Y-37867857D01*
X69085714Y-37982142D01*
X68685714Y-38267857D02*
X68228571Y-38267857D01*
X68514285Y-37867857D02*
X68514285Y-38896428D01*
X68457142Y-39010714D01*
X68342857Y-39067857D01*
X68228571Y-39067857D01*
X66914285Y-39067857D02*
X66914285Y-38267857D01*
X66914285Y-38382142D02*
X66857142Y-38325000D01*
X66742857Y-38267857D01*
X66571428Y-38267857D01*
X66457142Y-38325000D01*
X66400000Y-38439285D01*
X66400000Y-39067857D01*
X66400000Y-38439285D02*
X66342857Y-38325000D01*
X66228571Y-38267857D01*
X66057142Y-38267857D01*
X65942857Y-38325000D01*
X65885714Y-38439285D01*
X65885714Y-39067857D01*
X65314285Y-39067857D02*
X65314285Y-38267857D01*
X65314285Y-37867857D02*
X65371428Y-37925000D01*
X65314285Y-37982142D01*
X65257142Y-37925000D01*
X65314285Y-37867857D01*
X65314285Y-37982142D01*
X64742857Y-38267857D02*
X64742857Y-39067857D01*
X64742857Y-38382142D02*
X64685714Y-38325000D01*
X64571428Y-38267857D01*
X64400000Y-38267857D01*
X64285714Y-38325000D01*
X64228571Y-38439285D01*
X64228571Y-39067857D01*
X63657142Y-39067857D02*
X63657142Y-38267857D01*
X63657142Y-37867857D02*
X63714285Y-37925000D01*
X63657142Y-37982142D01*
X63600000Y-37925000D01*
X63657142Y-37867857D01*
X63657142Y-37982142D01*
X62171428Y-39067857D02*
X62171428Y-38267857D01*
X62171428Y-38496428D02*
X62114285Y-38382142D01*
X62057142Y-38325000D01*
X61942857Y-38267857D01*
X61828571Y-38267857D01*
X60971428Y-39010714D02*
X61085714Y-39067857D01*
X61314285Y-39067857D01*
X61428571Y-39010714D01*
X61485714Y-38896428D01*
X61485714Y-38439285D01*
X61428571Y-38325000D01*
X61314285Y-38267857D01*
X61085714Y-38267857D01*
X60971428Y-38325000D01*
X60914285Y-38439285D01*
X60914285Y-38553571D01*
X61485714Y-38667857D01*
X60514285Y-38267857D02*
X60228571Y-39067857D01*
X59942857Y-38267857D01*
X59257142Y-37867857D02*
X59142857Y-37867857D01*
X59028571Y-37925000D01*
X58971428Y-37982142D01*
X58914285Y-38096428D01*
X58857142Y-38325000D01*
X58857142Y-38610714D01*
X58914285Y-38839285D01*
X58971428Y-38953571D01*
X59028571Y-39010714D01*
X59142857Y-39067857D01*
X59257142Y-39067857D01*
X59371428Y-39010714D01*
X59428571Y-38953571D01*
X59485714Y-38839285D01*
X59542857Y-38610714D01*
X59542857Y-38325000D01*
X59485714Y-38096428D01*
X59428571Y-37982142D01*
X59371428Y-37925000D01*
X59257142Y-37867857D01*
X58342857Y-38953571D02*
X58285714Y-39010714D01*
X58342857Y-39067857D01*
X58400000Y-39010714D01*
X58342857Y-38953571D01*
X58342857Y-39067857D01*
X57142857Y-39067857D02*
X57828571Y-39067857D01*
X57485714Y-39067857D02*
X57485714Y-37867857D01*
X57600000Y-38039285D01*
X57714285Y-38153571D01*
X57828571Y-38210714D01*
X56685714Y-37982142D02*
X56628571Y-37925000D01*
X56514285Y-37867857D01*
X56228571Y-37867857D01*
X56114285Y-37925000D01*
X56057142Y-37982142D01*
X56000000Y-38096428D01*
X56000000Y-38210714D01*
X56057142Y-38382142D01*
X56742857Y-39067857D01*
X56000000Y-39067857D01*
X54571428Y-38953571D02*
X54514285Y-39010714D01*
X54571428Y-39067857D01*
X54628571Y-39010714D01*
X54571428Y-38953571D01*
X54571428Y-39067857D01*
X54571428Y-38325000D02*
X54514285Y-38382142D01*
X54571428Y-38439285D01*
X54628571Y-38382142D01*
X54571428Y-38325000D01*
X54571428Y-38439285D01*
X52571428Y-39067857D02*
X52571428Y-37867857D01*
X52571428Y-39010714D02*
X52685714Y-39067857D01*
X52914285Y-39067857D01*
X53028571Y-39010714D01*
X53085714Y-38953571D01*
X53142857Y-38839285D01*
X53142857Y-38496428D01*
X53085714Y-38382142D01*
X53028571Y-38325000D01*
X52914285Y-38267857D01*
X52685714Y-38267857D01*
X52571428Y-38325000D01*
X51542857Y-39010714D02*
X51657142Y-39067857D01*
X51885714Y-39067857D01*
X52000000Y-39010714D01*
X52057142Y-38896428D01*
X52057142Y-38439285D01*
X52000000Y-38325000D01*
X51885714Y-38267857D01*
X51657142Y-38267857D01*
X51542857Y-38325000D01*
X51485714Y-38439285D01*
X51485714Y-38553571D01*
X52057142Y-38667857D01*
X51028571Y-39010714D02*
X50914285Y-39067857D01*
X50685714Y-39067857D01*
X50571428Y-39010714D01*
X50514285Y-38896428D01*
X50514285Y-38839285D01*
X50571428Y-38725000D01*
X50685714Y-38667857D01*
X50857142Y-38667857D01*
X50971428Y-38610714D01*
X51028571Y-38496428D01*
X51028571Y-38439285D01*
X50971428Y-38325000D01*
X50857142Y-38267857D01*
X50685714Y-38267857D01*
X50571428Y-38325000D01*
X50000000Y-39067857D02*
X50000000Y-38267857D01*
X50000000Y-37867857D02*
X50057142Y-37925000D01*
X50000000Y-37982142D01*
X49942857Y-37925000D01*
X50000000Y-37867857D01*
X50000000Y-37982142D01*
X48914285Y-38267857D02*
X48914285Y-39239285D01*
X48971428Y-39353571D01*
X49028571Y-39410714D01*
X49142857Y-39467857D01*
X49314285Y-39467857D01*
X49428571Y-39410714D01*
X48914285Y-39010714D02*
X49028571Y-39067857D01*
X49257142Y-39067857D01*
X49371428Y-39010714D01*
X49428571Y-38953571D01*
X49485714Y-38839285D01*
X49485714Y-38496428D01*
X49428571Y-38382142D01*
X49371428Y-38325000D01*
X49257142Y-38267857D01*
X49028571Y-38267857D01*
X48914285Y-38325000D01*
X48342857Y-38267857D02*
X48342857Y-39067857D01*
X48342857Y-38382142D02*
X48285714Y-38325000D01*
X48171428Y-38267857D01*
X48000000Y-38267857D01*
X47885714Y-38325000D01*
X47828571Y-38439285D01*
X47828571Y-39067857D01*
X46800000Y-39010714D02*
X46914285Y-39067857D01*
X47142857Y-39067857D01*
X47257142Y-39010714D01*
X47314285Y-38896428D01*
X47314285Y-38439285D01*
X47257142Y-38325000D01*
X47142857Y-38267857D01*
X46914285Y-38267857D01*
X46800000Y-38325000D01*
X46742857Y-38439285D01*
X46742857Y-38553571D01*
X47314285Y-38667857D01*
X45714285Y-39067857D02*
X45714285Y-37867857D01*
X45714285Y-39010714D02*
X45828571Y-39067857D01*
X46057142Y-39067857D01*
X46171428Y-39010714D01*
X46228571Y-38953571D01*
X46285714Y-38839285D01*
X46285714Y-38496428D01*
X46228571Y-38382142D01*
X46171428Y-38325000D01*
X46057142Y-38267857D01*
X45828571Y-38267857D01*
X45714285Y-38325000D01*
X44228571Y-39067857D02*
X44228571Y-37867857D01*
X44228571Y-38325000D02*
X44114285Y-38267857D01*
X43885714Y-38267857D01*
X43771428Y-38325000D01*
X43714285Y-38382142D01*
X43657142Y-38496428D01*
X43657142Y-38839285D01*
X43714285Y-38953571D01*
X43771428Y-39010714D01*
X43885714Y-39067857D01*
X44114285Y-39067857D01*
X44228571Y-39010714D01*
X43257142Y-38267857D02*
X42971428Y-39067857D01*
X42685714Y-38267857D02*
X42971428Y-39067857D01*
X43085714Y-39353571D01*
X43142857Y-39410714D01*
X43257142Y-39467857D01*
X41485714Y-38267857D02*
X41028571Y-38267857D01*
X41314285Y-37867857D02*
X41314285Y-38896428D01*
X41257142Y-39010714D01*
X41142857Y-39067857D01*
X41028571Y-39067857D01*
X40114285Y-39067857D02*
X40114285Y-38439285D01*
X40171428Y-38325000D01*
X40285714Y-38267857D01*
X40514285Y-38267857D01*
X40628571Y-38325000D01*
X40114285Y-39010714D02*
X40228571Y-39067857D01*
X40514285Y-39067857D01*
X40628571Y-39010714D01*
X40685714Y-38896428D01*
X40685714Y-38782142D01*
X40628571Y-38667857D01*
X40514285Y-38610714D01*
X40228571Y-38610714D01*
X40114285Y-38553571D01*
X39542857Y-39067857D02*
X39542857Y-38267857D01*
X39542857Y-38382142D02*
X39485714Y-38325000D01*
X39371428Y-38267857D01*
X39200000Y-38267857D01*
X39085714Y-38325000D01*
X39028571Y-38439285D01*
X39028571Y-39067857D01*
X39028571Y-38439285D02*
X38971428Y-38325000D01*
X38857142Y-38267857D01*
X38685714Y-38267857D01*
X38571428Y-38325000D01*
X38514285Y-38439285D01*
X38514285Y-39067857D01*
X37428571Y-39067857D02*
X37428571Y-38439285D01*
X37485714Y-38325000D01*
X37600000Y-38267857D01*
X37828571Y-38267857D01*
X37942857Y-38325000D01*
X37428571Y-39010714D02*
X37542857Y-39067857D01*
X37828571Y-39067857D01*
X37942857Y-39010714D01*
X38000000Y-38896428D01*
X38000000Y-38782142D01*
X37942857Y-38667857D01*
X37828571Y-38610714D01*
X37542857Y-38610714D01*
X37428571Y-38553571D01*
X36342857Y-38267857D02*
X36342857Y-39239285D01*
X36400000Y-39353571D01*
X36457142Y-39410714D01*
X36571428Y-39467857D01*
X36742857Y-39467857D01*
X36857142Y-39410714D01*
X36342857Y-39010714D02*
X36457142Y-39067857D01*
X36685714Y-39067857D01*
X36800000Y-39010714D01*
X36857142Y-38953571D01*
X36914285Y-38839285D01*
X36914285Y-38496428D01*
X36857142Y-38382142D01*
X36800000Y-38325000D01*
X36685714Y-38267857D01*
X36457142Y-38267857D01*
X36342857Y-38325000D01*
X35600000Y-39067857D02*
X35714285Y-39010714D01*
X35771428Y-38953571D01*
X35828571Y-38839285D01*
X35828571Y-38496428D01*
X35771428Y-38382142D01*
X35714285Y-38325000D01*
X35600000Y-38267857D01*
X35428571Y-38267857D01*
X35314285Y-38325000D01*
X35257142Y-38382142D01*
X35200000Y-38496428D01*
X35200000Y-38839285D01*
X35257142Y-38953571D01*
X35314285Y-39010714D01*
X35428571Y-39067857D01*
X35600000Y-39067857D01*
X34800000Y-37867857D02*
X34057142Y-37867857D01*
X34457142Y-38325000D01*
X34285714Y-38325000D01*
X34171428Y-38382142D01*
X34114285Y-38439285D01*
X34057142Y-38553571D01*
X34057142Y-38839285D01*
X34114285Y-38953571D01*
X34171428Y-39010714D01*
X34285714Y-39067857D01*
X34628571Y-39067857D01*
X34742857Y-39010714D01*
X34800000Y-38953571D01*
X33600000Y-37982142D02*
X33542857Y-37925000D01*
X33428571Y-37867857D01*
X33142857Y-37867857D01*
X33028571Y-37925000D01*
X32971428Y-37982142D01*
X32914285Y-38096428D01*
X32914285Y-38210714D01*
X32971428Y-38382142D01*
X33657142Y-39067857D01*
X32914285Y-39067857D01*
X31885714Y-38267857D02*
X31885714Y-39067857D01*
X32171428Y-37810714D02*
X32457142Y-38667857D01*
X31714285Y-38667857D01*
D12*
X94950000Y-39775000D03*
X28925000Y-106375000D03*
X96450000Y-102475000D03*
X28950000Y-41375000D03*
%LPC*%
D13*
%TO.C,HOLE3*%
X94950000Y-39775000D03*
%TD*%
%TO.C,HOLE4*%
X28925000Y-106375000D03*
%TD*%
%TO.C,HOLE2*%
X96450000Y-102475000D03*
%TD*%
%TO.C,HOLE1*%
X28950000Y-41375000D03*
%TD*%
M02*
