%TF.GenerationSoftware,KiCad,Pcbnew,(6.0.6)*%
%TF.CreationDate,2022-10-07T23:53:12+09:00*%
%TF.ProjectId,split-mini,73706c69-742d-46d6-996e-692e6b696361,rev?*%
%TF.SameCoordinates,Original*%
%TF.FileFunction,Legend,Top*%
%TF.FilePolarity,Positive*%
%FSLAX46Y46*%
G04 Gerber Fmt 4.6, Leading zero omitted, Abs format (unit mm)*
G04 Created by KiCad (PCBNEW (6.0.6)) date 2022-10-07 23:53:12*
%MOMM*%
%LPD*%
G01*
G04 APERTURE LIST*
G04 Aperture macros list*
%AMRotRect*
0 Rectangle, with rotation*
0 The origin of the aperture is its center*
0 $1 length*
0 $2 width*
0 $3 Rotation angle, in degrees counterclockwise*
0 Add horizontal line*
21,1,$1,$2,0,0,$3*%
G04 Aperture macros list end*
%ADD10C,0.300000*%
%TA.AperFunction,Profile*%
%ADD11C,0.349999*%
%TD*%
%ADD12C,0.100000*%
%ADD13C,0.150000*%
%ADD14C,0.120000*%
%ADD15C,1.200000*%
%ADD16O,2.500000X1.700000*%
%ADD17C,1.600000*%
%ADD18C,0.300000*%
%ADD19C,0.350000*%
%ADD20O,1.500000X1.000000*%
%ADD21C,3.000000*%
%ADD22C,1.700000*%
%ADD23C,1.900000*%
%ADD24C,4.000000*%
%ADD25R,2.000000X2.000000*%
%ADD26R,1.900000X2.000000*%
%ADD27R,1.800000X2.000000*%
%ADD28R,1.300000X0.950000*%
%ADD29RotRect,2.000000X2.000000X174.000000*%
%ADD30RotRect,1.800000X2.000000X174.000000*%
%ADD31RotRect,2.000000X2.000000X166.000000*%
%ADD32RotRect,1.800000X2.000000X166.000000*%
%ADD33RotRect,1.950000X2.000000X166.000000*%
%ADD34C,4.500000*%
G04 APERTURE END LIST*
D10*
X44142857Y-23585714D02*
X44257142Y-23642857D01*
X44485714Y-23642857D01*
X44600000Y-23585714D01*
X44657142Y-23471428D01*
X44657142Y-23414285D01*
X44600000Y-23300000D01*
X44485714Y-23242857D01*
X44314285Y-23242857D01*
X44200000Y-23185714D01*
X44142857Y-23071428D01*
X44142857Y-23014285D01*
X44200000Y-22900000D01*
X44314285Y-22842857D01*
X44485714Y-22842857D01*
X44600000Y-22900000D01*
X45171428Y-22842857D02*
X45171428Y-24042857D01*
X45171428Y-22900000D02*
X45285714Y-22842857D01*
X45514285Y-22842857D01*
X45628571Y-22900000D01*
X45685714Y-22957142D01*
X45742857Y-23071428D01*
X45742857Y-23414285D01*
X45685714Y-23528571D01*
X45628571Y-23585714D01*
X45514285Y-23642857D01*
X45285714Y-23642857D01*
X45171428Y-23585714D01*
X46428571Y-23642857D02*
X46314285Y-23585714D01*
X46257142Y-23471428D01*
X46257142Y-22442857D01*
X46885714Y-23642857D02*
X46885714Y-22842857D01*
X46885714Y-22442857D02*
X46828571Y-22500000D01*
X46885714Y-22557142D01*
X46942857Y-22500000D01*
X46885714Y-22442857D01*
X46885714Y-22557142D01*
X47285714Y-22842857D02*
X47742857Y-22842857D01*
X47457142Y-22442857D02*
X47457142Y-23471428D01*
X47514285Y-23585714D01*
X47628571Y-23642857D01*
X47742857Y-23642857D01*
X49057142Y-23642857D02*
X49057142Y-22842857D01*
X49057142Y-22957142D02*
X49114285Y-22900000D01*
X49228571Y-22842857D01*
X49400000Y-22842857D01*
X49514285Y-22900000D01*
X49571428Y-23014285D01*
X49571428Y-23642857D01*
X49571428Y-23014285D02*
X49628571Y-22900000D01*
X49742857Y-22842857D01*
X49914285Y-22842857D01*
X50028571Y-22900000D01*
X50085714Y-23014285D01*
X50085714Y-23642857D01*
X50657142Y-23642857D02*
X50657142Y-22842857D01*
X50657142Y-22442857D02*
X50600000Y-22500000D01*
X50657142Y-22557142D01*
X50714285Y-22500000D01*
X50657142Y-22442857D01*
X50657142Y-22557142D01*
X51228571Y-22842857D02*
X51228571Y-23642857D01*
X51228571Y-22957142D02*
X51285714Y-22900000D01*
X51400000Y-22842857D01*
X51571428Y-22842857D01*
X51685714Y-22900000D01*
X51742857Y-23014285D01*
X51742857Y-23642857D01*
X52314285Y-23642857D02*
X52314285Y-22842857D01*
X52314285Y-22442857D02*
X52257142Y-22500000D01*
X52314285Y-22557142D01*
X52371428Y-22500000D01*
X52314285Y-22442857D01*
X52314285Y-22557142D01*
X53800000Y-23642857D02*
X53800000Y-22842857D01*
X53800000Y-23071428D02*
X53857142Y-22957142D01*
X53914285Y-22900000D01*
X54028571Y-22842857D01*
X54142857Y-22842857D01*
X55000000Y-23585714D02*
X54885714Y-23642857D01*
X54657142Y-23642857D01*
X54542857Y-23585714D01*
X54485714Y-23471428D01*
X54485714Y-23014285D01*
X54542857Y-22900000D01*
X54657142Y-22842857D01*
X54885714Y-22842857D01*
X55000000Y-22900000D01*
X55057142Y-23014285D01*
X55057142Y-23128571D01*
X54485714Y-23242857D01*
X55457142Y-22842857D02*
X55742857Y-23642857D01*
X56028571Y-22842857D01*
X56714285Y-22442857D02*
X56828571Y-22442857D01*
X56942857Y-22500000D01*
X57000000Y-22557142D01*
X57057142Y-22671428D01*
X57114285Y-22900000D01*
X57114285Y-23185714D01*
X57057142Y-23414285D01*
X57000000Y-23528571D01*
X56942857Y-23585714D01*
X56828571Y-23642857D01*
X56714285Y-23642857D01*
X56600000Y-23585714D01*
X56542857Y-23528571D01*
X56485714Y-23414285D01*
X56428571Y-23185714D01*
X56428571Y-22900000D01*
X56485714Y-22671428D01*
X56542857Y-22557142D01*
X56600000Y-22500000D01*
X56714285Y-22442857D01*
X57628571Y-23528571D02*
X57685714Y-23585714D01*
X57628571Y-23642857D01*
X57571428Y-23585714D01*
X57628571Y-23528571D01*
X57628571Y-23642857D01*
X58085714Y-22442857D02*
X58828571Y-22442857D01*
X58428571Y-22900000D01*
X58600000Y-22900000D01*
X58714285Y-22957142D01*
X58771428Y-23014285D01*
X58828571Y-23128571D01*
X58828571Y-23414285D01*
X58771428Y-23528571D01*
X58714285Y-23585714D01*
X58600000Y-23642857D01*
X58257142Y-23642857D01*
X58142857Y-23585714D01*
X58085714Y-23528571D01*
X60257142Y-23528571D02*
X60314285Y-23585714D01*
X60257142Y-23642857D01*
X60200000Y-23585714D01*
X60257142Y-23528571D01*
X60257142Y-23642857D01*
X60257142Y-22900000D02*
X60314285Y-22957142D01*
X60257142Y-23014285D01*
X60200000Y-22957142D01*
X60257142Y-22900000D01*
X60257142Y-23014285D01*
X62257142Y-23642857D02*
X62257142Y-22442857D01*
X62257142Y-23585714D02*
X62142857Y-23642857D01*
X61914285Y-23642857D01*
X61800000Y-23585714D01*
X61742857Y-23528571D01*
X61685714Y-23414285D01*
X61685714Y-23071428D01*
X61742857Y-22957142D01*
X61800000Y-22900000D01*
X61914285Y-22842857D01*
X62142857Y-22842857D01*
X62257142Y-22900000D01*
X63285714Y-23585714D02*
X63171428Y-23642857D01*
X62942857Y-23642857D01*
X62828571Y-23585714D01*
X62771428Y-23471428D01*
X62771428Y-23014285D01*
X62828571Y-22900000D01*
X62942857Y-22842857D01*
X63171428Y-22842857D01*
X63285714Y-22900000D01*
X63342857Y-23014285D01*
X63342857Y-23128571D01*
X62771428Y-23242857D01*
X63800000Y-23585714D02*
X63914285Y-23642857D01*
X64142857Y-23642857D01*
X64257142Y-23585714D01*
X64314285Y-23471428D01*
X64314285Y-23414285D01*
X64257142Y-23300000D01*
X64142857Y-23242857D01*
X63971428Y-23242857D01*
X63857142Y-23185714D01*
X63800000Y-23071428D01*
X63800000Y-23014285D01*
X63857142Y-22900000D01*
X63971428Y-22842857D01*
X64142857Y-22842857D01*
X64257142Y-22900000D01*
X64828571Y-23642857D02*
X64828571Y-22842857D01*
X64828571Y-22442857D02*
X64771428Y-22500000D01*
X64828571Y-22557142D01*
X64885714Y-22500000D01*
X64828571Y-22442857D01*
X64828571Y-22557142D01*
X65914285Y-22842857D02*
X65914285Y-23814285D01*
X65857142Y-23928571D01*
X65800000Y-23985714D01*
X65685714Y-24042857D01*
X65514285Y-24042857D01*
X65400000Y-23985714D01*
X65914285Y-23585714D02*
X65800000Y-23642857D01*
X65571428Y-23642857D01*
X65457142Y-23585714D01*
X65400000Y-23528571D01*
X65342857Y-23414285D01*
X65342857Y-23071428D01*
X65400000Y-22957142D01*
X65457142Y-22900000D01*
X65571428Y-22842857D01*
X65800000Y-22842857D01*
X65914285Y-22900000D01*
X66485714Y-22842857D02*
X66485714Y-23642857D01*
X66485714Y-22957142D02*
X66542857Y-22900000D01*
X66657142Y-22842857D01*
X66828571Y-22842857D01*
X66942857Y-22900000D01*
X67000000Y-23014285D01*
X67000000Y-23642857D01*
X68028571Y-23585714D02*
X67914285Y-23642857D01*
X67685714Y-23642857D01*
X67571428Y-23585714D01*
X67514285Y-23471428D01*
X67514285Y-23014285D01*
X67571428Y-22900000D01*
X67685714Y-22842857D01*
X67914285Y-22842857D01*
X68028571Y-22900000D01*
X68085714Y-23014285D01*
X68085714Y-23128571D01*
X67514285Y-23242857D01*
X69114285Y-23642857D02*
X69114285Y-22442857D01*
X69114285Y-23585714D02*
X69000000Y-23642857D01*
X68771428Y-23642857D01*
X68657142Y-23585714D01*
X68600000Y-23528571D01*
X68542857Y-23414285D01*
X68542857Y-23071428D01*
X68600000Y-22957142D01*
X68657142Y-22900000D01*
X68771428Y-22842857D01*
X69000000Y-22842857D01*
X69114285Y-22900000D01*
X70600000Y-23642857D02*
X70600000Y-22442857D01*
X70600000Y-22900000D02*
X70714285Y-22842857D01*
X70942857Y-22842857D01*
X71057142Y-22900000D01*
X71114285Y-22957142D01*
X71171428Y-23071428D01*
X71171428Y-23414285D01*
X71114285Y-23528571D01*
X71057142Y-23585714D01*
X70942857Y-23642857D01*
X70714285Y-23642857D01*
X70600000Y-23585714D01*
X71571428Y-22842857D02*
X71857142Y-23642857D01*
X72142857Y-22842857D02*
X71857142Y-23642857D01*
X71742857Y-23928571D01*
X71685714Y-23985714D01*
X71571428Y-24042857D01*
X73342857Y-22842857D02*
X73800000Y-22842857D01*
X73514285Y-22442857D02*
X73514285Y-23471428D01*
X73571428Y-23585714D01*
X73685714Y-23642857D01*
X73800000Y-23642857D01*
X74714285Y-23642857D02*
X74714285Y-23014285D01*
X74657142Y-22900000D01*
X74542857Y-22842857D01*
X74314285Y-22842857D01*
X74200000Y-22900000D01*
X74714285Y-23585714D02*
X74600000Y-23642857D01*
X74314285Y-23642857D01*
X74200000Y-23585714D01*
X74142857Y-23471428D01*
X74142857Y-23357142D01*
X74200000Y-23242857D01*
X74314285Y-23185714D01*
X74600000Y-23185714D01*
X74714285Y-23128571D01*
X75285714Y-23642857D02*
X75285714Y-22842857D01*
X75285714Y-22957142D02*
X75342857Y-22900000D01*
X75457142Y-22842857D01*
X75628571Y-22842857D01*
X75742857Y-22900000D01*
X75800000Y-23014285D01*
X75800000Y-23642857D01*
X75800000Y-23014285D02*
X75857142Y-22900000D01*
X75971428Y-22842857D01*
X76142857Y-22842857D01*
X76257142Y-22900000D01*
X76314285Y-23014285D01*
X76314285Y-23642857D01*
X77400000Y-23642857D02*
X77400000Y-23014285D01*
X77342857Y-22900000D01*
X77228571Y-22842857D01*
X77000000Y-22842857D01*
X76885714Y-22900000D01*
X77400000Y-23585714D02*
X77285714Y-23642857D01*
X77000000Y-23642857D01*
X76885714Y-23585714D01*
X76828571Y-23471428D01*
X76828571Y-23357142D01*
X76885714Y-23242857D01*
X77000000Y-23185714D01*
X77285714Y-23185714D01*
X77400000Y-23128571D01*
X78485714Y-22842857D02*
X78485714Y-23814285D01*
X78428571Y-23928571D01*
X78371428Y-23985714D01*
X78257142Y-24042857D01*
X78085714Y-24042857D01*
X77971428Y-23985714D01*
X78485714Y-23585714D02*
X78371428Y-23642857D01*
X78142857Y-23642857D01*
X78028571Y-23585714D01*
X77971428Y-23528571D01*
X77914285Y-23414285D01*
X77914285Y-23071428D01*
X77971428Y-22957142D01*
X78028571Y-22900000D01*
X78142857Y-22842857D01*
X78371428Y-22842857D01*
X78485714Y-22900000D01*
X79228571Y-23642857D02*
X79114285Y-23585714D01*
X79057142Y-23528571D01*
X79000000Y-23414285D01*
X79000000Y-23071428D01*
X79057142Y-22957142D01*
X79114285Y-22900000D01*
X79228571Y-22842857D01*
X79400000Y-22842857D01*
X79514285Y-22900000D01*
X79571428Y-22957142D01*
X79628571Y-23071428D01*
X79628571Y-23414285D01*
X79571428Y-23528571D01*
X79514285Y-23585714D01*
X79400000Y-23642857D01*
X79228571Y-23642857D01*
X80028571Y-22442857D02*
X80771428Y-22442857D01*
X80371428Y-22900000D01*
X80542857Y-22900000D01*
X80657142Y-22957142D01*
X80714285Y-23014285D01*
X80771428Y-23128571D01*
X80771428Y-23414285D01*
X80714285Y-23528571D01*
X80657142Y-23585714D01*
X80542857Y-23642857D01*
X80200000Y-23642857D01*
X80085714Y-23585714D01*
X80028571Y-23528571D01*
X81228571Y-22557142D02*
X81285714Y-22500000D01*
X81400000Y-22442857D01*
X81685714Y-22442857D01*
X81800000Y-22500000D01*
X81857142Y-22557142D01*
X81914285Y-22671428D01*
X81914285Y-22785714D01*
X81857142Y-22957142D01*
X81171428Y-23642857D01*
X81914285Y-23642857D01*
X82942857Y-22842857D02*
X82942857Y-23642857D01*
X82657142Y-22385714D02*
X82371428Y-23242857D01*
X83114285Y-23242857D01*
D11*
X120734058Y-85321050D02*
X120746346Y-84517181D01*
X94563467Y-99773630D02*
X95006416Y-99879974D01*
X21067121Y-99747413D02*
X21097288Y-99856121D01*
X95006416Y-99879974D02*
X95006416Y-99879974D01*
X106613959Y-23464589D02*
X106588365Y-23321274D01*
X21022792Y-99525582D02*
X21042263Y-99637170D01*
X21450528Y-100558221D02*
X21520346Y-100647842D01*
X23314208Y-21027240D02*
X23182826Y-21050152D01*
X120663178Y-69673555D02*
X120617953Y-69555976D01*
X120429619Y-69232038D02*
X120350533Y-69135311D01*
X116257734Y-104147387D02*
X116337281Y-104072331D01*
X65730083Y-98890289D02*
X65730083Y-98890289D01*
X104737877Y-21174101D02*
X104602654Y-21128344D01*
X120306060Y-89309528D02*
X120440307Y-88517806D01*
X106647491Y-64950611D02*
X106647491Y-23907794D01*
X114417834Y-104707695D02*
X114531519Y-104721167D01*
X22319756Y-101272024D02*
X22422725Y-101317646D01*
X21325017Y-100370023D02*
X21385392Y-100465551D01*
X116831755Y-103339065D02*
X116873233Y-103232363D01*
X114869318Y-104727193D02*
X114980256Y-104718084D01*
X116678483Y-103640152D02*
X116734207Y-103543064D01*
X21793434Y-21793513D02*
X21700478Y-21891184D01*
X106069327Y-22166530D02*
X105982931Y-22056589D01*
X105588428Y-21662081D02*
X105478488Y-21575683D01*
X104870037Y-21226211D02*
X104737877Y-21174101D01*
X79268402Y-98118347D02*
X79619825Y-98120645D01*
X119962618Y-68817891D02*
X119849615Y-68758387D01*
X120725055Y-69920137D02*
X120699003Y-69795107D01*
X21042263Y-99637170D02*
X21067121Y-99747413D01*
X120699003Y-69795107D02*
X120663178Y-69673555D01*
X81724553Y-98230937D02*
X82074291Y-98265381D01*
X119606995Y-68666672D02*
X106647491Y-64950611D01*
X21218860Y-100171147D02*
X21269480Y-100271825D01*
X21049932Y-23182830D02*
X21027007Y-23314210D01*
X23078052Y-101482078D02*
X23191759Y-101490535D01*
X20997490Y-99184639D02*
X21000327Y-99299127D01*
X115907617Y-104406218D02*
X115999590Y-104347927D01*
X105694026Y-21753553D02*
X105588428Y-21662081D01*
X105891460Y-21950990D02*
X105795097Y-21849917D01*
X23306244Y-101493370D02*
X54168747Y-101493347D01*
X23715622Y-20997488D02*
X23715622Y-20997488D01*
X21992830Y-21612950D02*
X21891115Y-21700567D01*
X57823814Y-101011581D02*
X57823814Y-101011581D01*
X120746346Y-84517181D02*
X120746346Y-70178646D01*
X120563702Y-69442866D02*
X120500800Y-69334721D01*
X120744992Y-70113118D02*
X120740961Y-70048149D01*
X21114721Y-22925043D02*
X21079201Y-23053033D01*
X21000556Y-23580829D02*
X20997215Y-23715622D01*
X93224898Y-99501293D02*
X93672605Y-99584271D01*
X115411094Y-104628832D02*
X115514710Y-104593834D01*
X116618357Y-103733828D02*
X116678483Y-103640152D01*
X55553294Y-101425245D02*
X56012088Y-101372398D01*
X21932681Y-101040365D02*
X22025351Y-101105499D01*
X79971141Y-98127542D02*
X80322305Y-98139037D01*
X94118828Y-99675056D02*
X94563467Y-99773630D01*
X119965073Y-90880112D02*
X120147626Y-90097149D01*
X21520346Y-100647842D02*
X21594767Y-100734227D01*
X21843058Y-100970549D02*
X21932681Y-101040365D01*
X116413290Y-103993343D02*
X116485588Y-103910527D01*
X114980256Y-104718084D02*
X115090076Y-104703590D01*
X92325451Y-99358830D02*
X92775813Y-99426140D01*
X119790967Y-68731954D02*
X119730949Y-68707815D01*
X22207471Y-21454070D02*
X22098356Y-21530754D01*
X103737228Y-20997492D02*
X23715622Y-20997488D01*
X116088715Y-104285289D02*
X116174821Y-104218407D01*
X105982931Y-22056589D02*
X105891460Y-21950990D01*
X104034787Y-21012522D02*
X103886991Y-21001281D01*
X116337281Y-104072331D02*
X116413290Y-103993343D01*
X22634779Y-101393589D02*
X22743485Y-101423753D01*
X23182826Y-21050152D02*
X23053027Y-21079407D01*
X21156400Y-22799082D02*
X21114721Y-22925043D01*
X21700478Y-21891184D02*
X21612850Y-21992890D01*
X105364387Y-21494542D02*
X105246308Y-21418842D01*
X22435573Y-21317612D02*
X22319950Y-21382992D01*
X69367896Y-98227495D02*
X70105548Y-98166918D01*
X22925033Y-21114915D02*
X22799069Y-21156581D01*
X103737228Y-20997492D02*
X103737228Y-20997492D01*
X115812969Y-104460058D02*
X115907617Y-104406218D01*
X54631255Y-101485768D02*
X55092893Y-101463051D01*
X82074291Y-98265381D02*
X91421310Y-99247810D01*
X104464550Y-21089126D02*
X104323750Y-21056627D01*
X21010518Y-23446950D02*
X21000556Y-23580829D01*
X104180434Y-21031031D02*
X104034787Y-21012522D01*
X119606995Y-68666672D02*
X119606995Y-68666672D01*
X22098356Y-21530754D02*
X21992830Y-21612950D01*
X115514710Y-104593834D02*
X115616343Y-104553970D01*
X21453948Y-22207514D02*
X21382859Y-22319987D01*
X106418789Y-22774986D02*
X106360509Y-22646071D01*
X106470898Y-22907146D02*
X106418789Y-22774986D01*
X80322305Y-98139037D02*
X80673272Y-98155126D01*
X21673714Y-100817184D02*
X21673714Y-100817184D01*
X106643705Y-23758032D02*
X106632466Y-23610236D01*
X55092893Y-101463051D02*
X55553294Y-101425245D01*
X80673272Y-98155126D02*
X81023999Y-98175807D01*
X105246308Y-21418842D02*
X105124435Y-21348765D01*
X106647491Y-64950611D02*
X106647491Y-64950611D01*
X57823814Y-101011581D02*
X65730083Y-98890289D01*
X56468906Y-101304560D02*
X56923379Y-101221779D01*
X79268402Y-98118347D02*
X79268402Y-98118347D01*
X106296240Y-22520586D02*
X106226164Y-22398712D01*
X70105548Y-98166918D02*
X70845185Y-98130517D01*
X116940735Y-103010071D02*
X116940735Y-103010071D01*
X54168747Y-101493347D02*
X54168747Y-101493347D01*
X119730949Y-68707815D02*
X119669610Y-68686034D01*
X106647491Y-23907794D02*
X106643705Y-23758032D01*
X21204145Y-22675373D02*
X21156400Y-22799082D01*
X116554001Y-103823988D02*
X116618357Y-103733828D01*
X56012088Y-101372398D02*
X56468906Y-101304560D01*
X57375138Y-101124103D02*
X57823814Y-101011581D01*
X120746346Y-70178646D02*
X120744992Y-70113118D01*
X67900910Y-98420864D02*
X68632820Y-98312169D01*
X21000327Y-99299127D02*
X21008788Y-99412838D01*
X23053027Y-21079407D02*
X22925033Y-21114915D01*
X91421310Y-99247810D02*
X91873916Y-99299381D01*
X71586216Y-98118370D02*
X71586216Y-98118370D01*
X21382859Y-22319987D02*
X21317467Y-22435603D01*
X20997490Y-99184639D02*
X20997490Y-99184639D01*
X21673714Y-100817184D02*
X21756673Y-100896129D01*
X114189873Y-104662933D02*
X114189873Y-104662933D01*
X21612850Y-21992890D02*
X21530643Y-22098408D01*
X23191759Y-101490535D02*
X23306244Y-101493370D01*
X82074291Y-98265381D02*
X82074291Y-98265381D01*
X115090076Y-104703590D02*
X115198604Y-104683814D01*
X21891115Y-21700567D02*
X21793434Y-21793513D01*
X106632466Y-23610236D02*
X106613959Y-23464589D01*
X92775813Y-99426140D02*
X93224898Y-99501293D01*
X120697243Y-86123603D02*
X120734058Y-85321050D01*
X22965311Y-101468076D02*
X23078052Y-101482078D01*
X114757434Y-104730812D02*
X114869318Y-104727193D01*
X21756673Y-100896129D02*
X21843058Y-100970549D01*
X116940735Y-103010071D02*
X119965073Y-90880112D01*
X120734300Y-69983801D02*
X120725055Y-69920137D01*
X119669610Y-68686034D02*
X119606995Y-68666672D01*
X23580829Y-21000816D02*
X23446950Y-21010763D01*
X115999590Y-104347927D02*
X116088715Y-104285289D01*
X106226164Y-22398712D02*
X106150466Y-22280632D01*
X81374440Y-98201078D02*
X81724553Y-98230937D01*
X104998950Y-21284494D02*
X104870037Y-21226211D01*
X22120879Y-101165872D02*
X22219077Y-101221407D01*
X116485588Y-103910527D02*
X116554001Y-103823988D01*
X21079201Y-23053033D02*
X21049932Y-23182830D01*
X23446950Y-21010763D02*
X23314208Y-21027240D01*
X116909617Y-103122663D02*
X116940735Y-103010071D01*
X22554116Y-21258022D02*
X22435573Y-21317612D01*
X120147626Y-90097149D02*
X120306060Y-89309528D01*
X21530643Y-22098408D02*
X21453948Y-22207514D01*
X106588365Y-23321274D02*
X106555869Y-23180473D01*
X120635967Y-86924286D02*
X120697243Y-86123603D01*
X116873233Y-103232363D02*
X116909617Y-103122663D01*
X68632820Y-98312169D02*
X69367896Y-98227495D01*
X22743485Y-101423753D02*
X22853726Y-101448609D01*
X120440307Y-88517806D02*
X120550299Y-87722539D01*
X22527796Y-101358194D02*
X22634779Y-101393589D01*
X21132686Y-99963106D02*
X21173236Y-100068177D01*
X22025351Y-101105499D02*
X22120879Y-101165872D01*
X95006416Y-99879974D02*
X114189873Y-104662933D01*
X21385392Y-100465551D02*
X21450528Y-100558221D01*
X21008788Y-99412838D02*
X21022792Y-99525582D01*
X115198604Y-104683814D02*
X115305668Y-104658860D01*
X67172756Y-98553501D02*
X67900910Y-98420864D01*
X106150466Y-22280632D02*
X106069327Y-22166530D01*
X21097288Y-99856121D02*
X21132686Y-99963106D01*
X120500800Y-69334721D02*
X120429619Y-69232038D01*
X21027007Y-23314210D02*
X21010518Y-23446950D01*
X116174821Y-104218407D02*
X116257734Y-104147387D01*
X120263917Y-69045037D02*
X120170143Y-68961712D01*
X70845185Y-98130517D02*
X71586216Y-98118370D01*
X91421310Y-99247810D02*
X91421310Y-99247810D01*
X22675355Y-21204314D02*
X22554116Y-21258022D01*
X21257865Y-22554139D02*
X21204145Y-22675373D01*
X22422725Y-101317646D02*
X22527796Y-101358194D01*
X114644776Y-104728838D02*
X114757434Y-104730812D01*
X116734207Y-103543064D02*
X116785355Y-103442667D01*
X120350533Y-69135311D02*
X120263917Y-69045037D01*
X120550299Y-87722539D02*
X120635967Y-86924286D01*
X21594767Y-100734227D02*
X21673714Y-100817184D01*
X106360509Y-22646071D02*
X106296240Y-22520586D01*
X79619825Y-98120645D02*
X79971141Y-98127542D01*
X115715821Y-104509343D02*
X115812969Y-104460058D01*
X120746346Y-70178646D02*
X120746346Y-70178646D01*
X20997215Y-23715622D02*
X20997215Y-23715622D01*
X104323750Y-21056627D02*
X104180434Y-21031031D01*
X71586216Y-98118370D02*
X79268402Y-98118347D01*
X105795097Y-21849917D02*
X105694026Y-21753553D01*
X119849615Y-68758387D02*
X119790967Y-68731954D01*
X54168747Y-101493347D02*
X54631255Y-101485768D01*
X116785355Y-103442667D02*
X116831755Y-103339065D01*
X120170143Y-68961712D02*
X120069586Y-68885831D01*
X66448951Y-98710002D02*
X67172756Y-98553501D01*
X104602654Y-21128344D02*
X104464550Y-21089126D01*
X114189873Y-104662933D02*
X114303894Y-104688319D01*
X22799069Y-21156581D02*
X22675355Y-21204314D01*
X120746346Y-84517181D02*
X120746346Y-84517181D01*
X120617953Y-69555976D02*
X120563702Y-69442866D01*
X114303894Y-104688319D02*
X114417834Y-104707695D01*
X106555869Y-23180473D02*
X106516652Y-23042369D01*
X65730083Y-98890289D02*
X66448951Y-98710002D01*
X81023999Y-98175807D02*
X81374440Y-98201078D01*
X21173236Y-100068177D02*
X21218860Y-100171147D01*
X115616343Y-104553970D02*
X115715821Y-104509343D01*
X106516652Y-23042369D02*
X106470898Y-22907146D01*
X23715622Y-20997488D02*
X23580829Y-21000816D01*
X120740961Y-70048149D02*
X120734300Y-69983801D01*
X22219077Y-101221407D02*
X22319756Y-101272024D01*
X56923379Y-101221779D02*
X57375138Y-101124103D01*
X103886991Y-21001281D02*
X103737228Y-20997492D01*
X22853726Y-101448609D02*
X22965311Y-101468076D01*
X105478488Y-21575683D02*
X105364387Y-21494542D01*
X119965073Y-90880112D02*
X119965073Y-90880112D01*
X105124435Y-21348765D02*
X104998950Y-21284494D01*
X21793434Y-21793513D02*
X21793434Y-21793513D01*
X93672605Y-99584271D02*
X94118828Y-99675056D01*
X21317467Y-22435603D02*
X21257865Y-22554139D01*
X20997215Y-23715622D02*
X20997490Y-99184639D01*
X23306244Y-101493370D02*
X23306244Y-101493370D01*
X22319950Y-21382992D02*
X22207471Y-21454070D01*
X91873916Y-99299381D02*
X92325451Y-99358830D01*
X120069586Y-68885831D02*
X119962618Y-68817891D01*
X21269480Y-100271825D02*
X21325017Y-100370023D01*
X115305668Y-104658860D02*
X115411094Y-104628832D01*
X114531519Y-104721167D02*
X114644776Y-104728838D01*
D12*
%TO.C,U1*%
X28837500Y-85843223D02*
X28799404Y-85919414D01*
X28799404Y-86033700D01*
X28837500Y-86147985D01*
X28913690Y-86224176D01*
X28989880Y-86262271D01*
X29142261Y-86300366D01*
X29256547Y-86300366D01*
X29408928Y-86262271D01*
X29485119Y-86224176D01*
X29561309Y-86147985D01*
X29599404Y-86033700D01*
X29599404Y-85957509D01*
X29561309Y-85843223D01*
X29523214Y-85805128D01*
X29256547Y-85805128D01*
X29256547Y-85957509D01*
X29599404Y-85462271D02*
X28799404Y-85462271D01*
X29599404Y-85005128D01*
X28799404Y-85005128D01*
X29599404Y-84624176D02*
X28799404Y-84624176D01*
X28799404Y-84433700D01*
X28837500Y-84319414D01*
X28913690Y-84243223D01*
X28989880Y-84205128D01*
X29142261Y-84167033D01*
X29256547Y-84167033D01*
X29408928Y-84205128D01*
X29485119Y-84243223D01*
X29561309Y-84319414D01*
X29599404Y-84433700D01*
X29599404Y-84624176D01*
X26929404Y-96782747D02*
X26396071Y-96782747D01*
X26548452Y-96782747D02*
X26472261Y-96744652D01*
X26434166Y-96706557D01*
X26396071Y-96630366D01*
X26396071Y-96554176D01*
X26929404Y-96173223D02*
X26891309Y-96249414D01*
X26853214Y-96287509D01*
X26777023Y-96325604D01*
X26548452Y-96325604D01*
X26472261Y-96287509D01*
X26434166Y-96249414D01*
X26396071Y-96173223D01*
X26396071Y-96058938D01*
X26434166Y-95982747D01*
X26472261Y-95944652D01*
X26548452Y-95906557D01*
X26777023Y-95906557D01*
X26853214Y-95944652D01*
X26891309Y-95982747D01*
X26929404Y-96058938D01*
X26929404Y-96173223D01*
X26396071Y-95639890D02*
X26929404Y-95487509D01*
X26548452Y-95335128D01*
X26929404Y-95182747D01*
X26396071Y-95030366D01*
X26129404Y-94573223D02*
X26129404Y-94497033D01*
X26167500Y-94420842D01*
X26205595Y-94382747D01*
X26281785Y-94344652D01*
X26434166Y-94306557D01*
X26624642Y-94306557D01*
X26777023Y-94344652D01*
X26853214Y-94382747D01*
X26891309Y-94420842D01*
X26929404Y-94497033D01*
X26929404Y-94573223D01*
X26891309Y-94649414D01*
X26853214Y-94687509D01*
X26777023Y-94725604D01*
X26624642Y-94763700D01*
X26434166Y-94763700D01*
X26281785Y-94725604D01*
X26205595Y-94687509D01*
X26167500Y-94649414D01*
X26129404Y-94573223D01*
X37301309Y-85945604D02*
X37339404Y-86021795D01*
X37339404Y-86174176D01*
X37301309Y-86250366D01*
X37263214Y-86288461D01*
X37187023Y-86326557D01*
X36958452Y-86326557D01*
X36882261Y-86288461D01*
X36844166Y-86250366D01*
X36806071Y-86174176D01*
X36806071Y-86021795D01*
X36844166Y-85945604D01*
X37339404Y-85488461D02*
X37301309Y-85564652D01*
X37263214Y-85602747D01*
X37187023Y-85640842D01*
X36958452Y-85640842D01*
X36882261Y-85602747D01*
X36844166Y-85564652D01*
X36806071Y-85488461D01*
X36806071Y-85374176D01*
X36844166Y-85297985D01*
X36882261Y-85259890D01*
X36958452Y-85221795D01*
X37187023Y-85221795D01*
X37263214Y-85259890D01*
X37301309Y-85297985D01*
X37339404Y-85374176D01*
X37339404Y-85488461D01*
X37339404Y-84764652D02*
X37301309Y-84840842D01*
X37225119Y-84878938D01*
X36539404Y-84878938D01*
X36539404Y-84536080D02*
X36539404Y-84040842D01*
X36844166Y-84307509D01*
X36844166Y-84193223D01*
X36882261Y-84117033D01*
X36920357Y-84078938D01*
X36996547Y-84040842D01*
X37187023Y-84040842D01*
X37263214Y-84078938D01*
X37301309Y-84117033D01*
X37339404Y-84193223D01*
X37339404Y-84421795D01*
X37301309Y-84497985D01*
X37263214Y-84536080D01*
X26379404Y-86300366D02*
X27179404Y-86033700D01*
X26379404Y-85767033D01*
X27103214Y-85043223D02*
X27141309Y-85081319D01*
X27179404Y-85195604D01*
X27179404Y-85271795D01*
X27141309Y-85386080D01*
X27065119Y-85462271D01*
X26988928Y-85500366D01*
X26836547Y-85538461D01*
X26722261Y-85538461D01*
X26569880Y-85500366D01*
X26493690Y-85462271D01*
X26417500Y-85386080D01*
X26379404Y-85271795D01*
X26379404Y-85195604D01*
X26417500Y-85081319D01*
X26455595Y-85043223D01*
X27103214Y-84243223D02*
X27141309Y-84281319D01*
X27179404Y-84395604D01*
X27179404Y-84471795D01*
X27141309Y-84586080D01*
X27065119Y-84662271D01*
X26988928Y-84700366D01*
X26836547Y-84738461D01*
X26722261Y-84738461D01*
X26569880Y-84700366D01*
X26493690Y-84662271D01*
X26417500Y-84586080D01*
X26379404Y-84471795D01*
X26379404Y-84395604D01*
X26417500Y-84281319D01*
X26455595Y-84243223D01*
X29529404Y-96772747D02*
X28996071Y-96772747D01*
X29148452Y-96772747D02*
X29072261Y-96734652D01*
X29034166Y-96696557D01*
X28996071Y-96620366D01*
X28996071Y-96544176D01*
X29529404Y-96163223D02*
X29491309Y-96239414D01*
X29453214Y-96277509D01*
X29377023Y-96315604D01*
X29148452Y-96315604D01*
X29072261Y-96277509D01*
X29034166Y-96239414D01*
X28996071Y-96163223D01*
X28996071Y-96048938D01*
X29034166Y-95972747D01*
X29072261Y-95934652D01*
X29148452Y-95896557D01*
X29377023Y-95896557D01*
X29453214Y-95934652D01*
X29491309Y-95972747D01*
X29529404Y-96048938D01*
X29529404Y-96163223D01*
X28996071Y-95629890D02*
X29529404Y-95477509D01*
X29148452Y-95325128D01*
X29529404Y-95172747D01*
X28996071Y-95020366D01*
X29529404Y-94296557D02*
X29529404Y-94753700D01*
X29529404Y-94525128D02*
X28729404Y-94525128D01*
X28843690Y-94601319D01*
X28919880Y-94677509D01*
X28957976Y-94753700D01*
X39631309Y-96325604D02*
X39669404Y-96401795D01*
X39669404Y-96554176D01*
X39631309Y-96630366D01*
X39593214Y-96668461D01*
X39517023Y-96706557D01*
X39288452Y-96706557D01*
X39212261Y-96668461D01*
X39174166Y-96630366D01*
X39136071Y-96554176D01*
X39136071Y-96401795D01*
X39174166Y-96325604D01*
X39669404Y-95868461D02*
X39631309Y-95944652D01*
X39593214Y-95982747D01*
X39517023Y-96020842D01*
X39288452Y-96020842D01*
X39212261Y-95982747D01*
X39174166Y-95944652D01*
X39136071Y-95868461D01*
X39136071Y-95754176D01*
X39174166Y-95677985D01*
X39212261Y-95639890D01*
X39288452Y-95601795D01*
X39517023Y-95601795D01*
X39593214Y-95639890D01*
X39631309Y-95677985D01*
X39669404Y-95754176D01*
X39669404Y-95868461D01*
X39669404Y-95144652D02*
X39631309Y-95220842D01*
X39555119Y-95258938D01*
X38869404Y-95258938D01*
X39669404Y-94420842D02*
X39669404Y-94877985D01*
X39669404Y-94649414D02*
X38869404Y-94649414D01*
X38983690Y-94725604D01*
X39059880Y-94801795D01*
X39097976Y-94877985D01*
X34841309Y-85845604D02*
X34879404Y-85921795D01*
X34879404Y-86074176D01*
X34841309Y-86150366D01*
X34803214Y-86188461D01*
X34727023Y-86226557D01*
X34498452Y-86226557D01*
X34422261Y-86188461D01*
X34384166Y-86150366D01*
X34346071Y-86074176D01*
X34346071Y-85921795D01*
X34384166Y-85845604D01*
X34879404Y-85388461D02*
X34841309Y-85464652D01*
X34803214Y-85502747D01*
X34727023Y-85540842D01*
X34498452Y-85540842D01*
X34422261Y-85502747D01*
X34384166Y-85464652D01*
X34346071Y-85388461D01*
X34346071Y-85274176D01*
X34384166Y-85197985D01*
X34422261Y-85159890D01*
X34498452Y-85121795D01*
X34727023Y-85121795D01*
X34803214Y-85159890D01*
X34841309Y-85197985D01*
X34879404Y-85274176D01*
X34879404Y-85388461D01*
X34879404Y-84664652D02*
X34841309Y-84740842D01*
X34765119Y-84778938D01*
X34079404Y-84778938D01*
X34155595Y-84397985D02*
X34117500Y-84359890D01*
X34079404Y-84283700D01*
X34079404Y-84093223D01*
X34117500Y-84017033D01*
X34155595Y-83978938D01*
X34231785Y-83940842D01*
X34307976Y-83940842D01*
X34422261Y-83978938D01*
X34879404Y-84436080D01*
X34879404Y-83940842D01*
X42319404Y-86034652D02*
X41519404Y-86034652D01*
X42281309Y-86034652D02*
X42319404Y-86110842D01*
X42319404Y-86263223D01*
X42281309Y-86339414D01*
X42243214Y-86377509D01*
X42167023Y-86415604D01*
X41938452Y-86415604D01*
X41862261Y-86377509D01*
X41824166Y-86339414D01*
X41786071Y-86263223D01*
X41786071Y-86110842D01*
X41824166Y-86034652D01*
X42319404Y-85310842D02*
X41900357Y-85310842D01*
X41824166Y-85348938D01*
X41786071Y-85425128D01*
X41786071Y-85577509D01*
X41824166Y-85653700D01*
X42281309Y-85310842D02*
X42319404Y-85387033D01*
X42319404Y-85577509D01*
X42281309Y-85653700D01*
X42205119Y-85691795D01*
X42128928Y-85691795D01*
X42052738Y-85653700D01*
X42014642Y-85577509D01*
X42014642Y-85387033D01*
X41976547Y-85310842D01*
X41786071Y-85044176D02*
X41786071Y-84739414D01*
X41519404Y-84929890D02*
X42205119Y-84929890D01*
X42281309Y-84891795D01*
X42319404Y-84815604D01*
X42319404Y-84739414D01*
X42319404Y-84129890D02*
X41900357Y-84129890D01*
X41824166Y-84167985D01*
X41786071Y-84244176D01*
X41786071Y-84396557D01*
X41824166Y-84472747D01*
X42281309Y-84129890D02*
X42319404Y-84206080D01*
X42319404Y-84396557D01*
X42281309Y-84472747D01*
X42205119Y-84510842D01*
X42128928Y-84510842D01*
X42052738Y-84472747D01*
X42014642Y-84396557D01*
X42014642Y-84206080D01*
X41976547Y-84129890D01*
X32049404Y-96762747D02*
X31516071Y-96762747D01*
X31668452Y-96762747D02*
X31592261Y-96724652D01*
X31554166Y-96686557D01*
X31516071Y-96610366D01*
X31516071Y-96534176D01*
X32049404Y-96153223D02*
X32011309Y-96229414D01*
X31973214Y-96267509D01*
X31897023Y-96305604D01*
X31668452Y-96305604D01*
X31592261Y-96267509D01*
X31554166Y-96229414D01*
X31516071Y-96153223D01*
X31516071Y-96038938D01*
X31554166Y-95962747D01*
X31592261Y-95924652D01*
X31668452Y-95886557D01*
X31897023Y-95886557D01*
X31973214Y-95924652D01*
X32011309Y-95962747D01*
X32049404Y-96038938D01*
X32049404Y-96153223D01*
X31516071Y-95619890D02*
X32049404Y-95467509D01*
X31668452Y-95315128D01*
X32049404Y-95162747D01*
X31516071Y-95010366D01*
X31325595Y-94743700D02*
X31287500Y-94705604D01*
X31249404Y-94629414D01*
X31249404Y-94438938D01*
X31287500Y-94362747D01*
X31325595Y-94324652D01*
X31401785Y-94286557D01*
X31477976Y-94286557D01*
X31592261Y-94324652D01*
X32049404Y-94781795D01*
X32049404Y-94286557D01*
X37091309Y-96345604D02*
X37129404Y-96421795D01*
X37129404Y-96574176D01*
X37091309Y-96650366D01*
X37053214Y-96688461D01*
X36977023Y-96726557D01*
X36748452Y-96726557D01*
X36672261Y-96688461D01*
X36634166Y-96650366D01*
X36596071Y-96574176D01*
X36596071Y-96421795D01*
X36634166Y-96345604D01*
X37129404Y-95888461D02*
X37091309Y-95964652D01*
X37053214Y-96002747D01*
X36977023Y-96040842D01*
X36748452Y-96040842D01*
X36672261Y-96002747D01*
X36634166Y-95964652D01*
X36596071Y-95888461D01*
X36596071Y-95774176D01*
X36634166Y-95697985D01*
X36672261Y-95659890D01*
X36748452Y-95621795D01*
X36977023Y-95621795D01*
X37053214Y-95659890D01*
X37091309Y-95697985D01*
X37129404Y-95774176D01*
X37129404Y-95888461D01*
X37129404Y-95164652D02*
X37091309Y-95240842D01*
X37015119Y-95278938D01*
X36329404Y-95278938D01*
X36329404Y-94707509D02*
X36329404Y-94631319D01*
X36367500Y-94555128D01*
X36405595Y-94517033D01*
X36481785Y-94478938D01*
X36634166Y-94440842D01*
X36824642Y-94440842D01*
X36977023Y-94478938D01*
X37053214Y-94517033D01*
X37091309Y-94555128D01*
X37129404Y-94631319D01*
X37129404Y-94707509D01*
X37091309Y-94783700D01*
X37053214Y-94821795D01*
X36977023Y-94859890D01*
X36824642Y-94897985D01*
X36634166Y-94897985D01*
X36481785Y-94859890D01*
X36405595Y-94821795D01*
X36367500Y-94783700D01*
X36329404Y-94707509D01*
X39701309Y-85875604D02*
X39739404Y-85951795D01*
X39739404Y-86104176D01*
X39701309Y-86180366D01*
X39663214Y-86218461D01*
X39587023Y-86256557D01*
X39358452Y-86256557D01*
X39282261Y-86218461D01*
X39244166Y-86180366D01*
X39206071Y-86104176D01*
X39206071Y-85951795D01*
X39244166Y-85875604D01*
X39739404Y-85418461D02*
X39701309Y-85494652D01*
X39663214Y-85532747D01*
X39587023Y-85570842D01*
X39358452Y-85570842D01*
X39282261Y-85532747D01*
X39244166Y-85494652D01*
X39206071Y-85418461D01*
X39206071Y-85304176D01*
X39244166Y-85227985D01*
X39282261Y-85189890D01*
X39358452Y-85151795D01*
X39587023Y-85151795D01*
X39663214Y-85189890D01*
X39701309Y-85227985D01*
X39739404Y-85304176D01*
X39739404Y-85418461D01*
X39739404Y-84694652D02*
X39701309Y-84770842D01*
X39625119Y-84808938D01*
X38939404Y-84808938D01*
X39206071Y-84047033D02*
X39739404Y-84047033D01*
X38901309Y-84237509D02*
X39472738Y-84427985D01*
X39472738Y-83932747D01*
X34619404Y-96782747D02*
X34086071Y-96782747D01*
X34238452Y-96782747D02*
X34162261Y-96744652D01*
X34124166Y-96706557D01*
X34086071Y-96630366D01*
X34086071Y-96554176D01*
X34619404Y-96173223D02*
X34581309Y-96249414D01*
X34543214Y-96287509D01*
X34467023Y-96325604D01*
X34238452Y-96325604D01*
X34162261Y-96287509D01*
X34124166Y-96249414D01*
X34086071Y-96173223D01*
X34086071Y-96058938D01*
X34124166Y-95982747D01*
X34162261Y-95944652D01*
X34238452Y-95906557D01*
X34467023Y-95906557D01*
X34543214Y-95944652D01*
X34581309Y-95982747D01*
X34619404Y-96058938D01*
X34619404Y-96173223D01*
X34086071Y-95639890D02*
X34619404Y-95487509D01*
X34238452Y-95335128D01*
X34619404Y-95182747D01*
X34086071Y-95030366D01*
X33819404Y-94801795D02*
X33819404Y-94306557D01*
X34124166Y-94573223D01*
X34124166Y-94458938D01*
X34162261Y-94382747D01*
X34200357Y-94344652D01*
X34276547Y-94306557D01*
X34467023Y-94306557D01*
X34543214Y-94344652D01*
X34581309Y-94382747D01*
X34619404Y-94458938D01*
X34619404Y-94687509D01*
X34581309Y-94763700D01*
X34543214Y-94801795D01*
D13*
%TO.C,SW10*%
X95405000Y-55045000D02*
X97955000Y-55045000D01*
X99960000Y-58970000D02*
X99960000Y-59670000D01*
X92880000Y-44666000D02*
X101505000Y-44666000D01*
X100255000Y-52845000D02*
X104955000Y-52845000D01*
X95380000Y-55070000D02*
X95380000Y-59670000D01*
X103780000Y-50574000D02*
X100170000Y-50574000D01*
X92880000Y-48620000D02*
X97930000Y-48666000D01*
X105280000Y-52845000D02*
X105280000Y-54020000D01*
X92880000Y-48574000D02*
X92880000Y-44666000D01*
X95405000Y-59695000D02*
X99955000Y-59695000D01*
X103780000Y-46620000D02*
X103780000Y-50565000D01*
X104980000Y-54020000D02*
X104980000Y-57470000D01*
X105280000Y-54020000D02*
X104980000Y-54020000D01*
X104955000Y-52845000D02*
X105280000Y-52845000D01*
X101180000Y-57495000D02*
X104955000Y-57495000D01*
X97880000Y-55040000D02*
G75*
G03*
X100250000Y-52870000I100000J2270000D01*
G01*
X103769000Y-46550000D02*
G75*
G03*
X101505000Y-44666000I-2074000J-190000D01*
G01*
X101180000Y-57500000D02*
G75*
G03*
X99960000Y-58920000I100000J-1320000D01*
G01*
X100165000Y-50550000D02*
G75*
G03*
X97905000Y-48670000I-2070000J-190000D01*
G01*
%TO.C,D13*%
X65260000Y-61390000D02*
X64360000Y-60890000D01*
X65260000Y-60390000D02*
X65260000Y-61390000D01*
X64260000Y-60390000D02*
X64260000Y-61390000D01*
X67460000Y-60140000D02*
X62060000Y-60140000D01*
X62060000Y-60140000D02*
X62060000Y-61640000D01*
X67460000Y-60140000D02*
X67460000Y-61640000D01*
X62060000Y-61640000D02*
X67460000Y-61640000D01*
X64360000Y-60890000D02*
X65260000Y-60390000D01*
%TO.C,SW13*%
X62465000Y-72555000D02*
X65015000Y-72555000D01*
X67020000Y-76480000D02*
X67020000Y-77180000D01*
X59940000Y-62176000D02*
X68565000Y-62176000D01*
X67315000Y-70355000D02*
X72015000Y-70355000D01*
X62440000Y-72580000D02*
X62440000Y-77180000D01*
X70840000Y-68084000D02*
X67230000Y-68084000D01*
X59940000Y-66130000D02*
X64990000Y-66176000D01*
X72340000Y-70355000D02*
X72340000Y-71530000D01*
X59940000Y-66084000D02*
X59940000Y-62176000D01*
X62465000Y-77205000D02*
X67015000Y-77205000D01*
X70840000Y-64130000D02*
X70840000Y-68075000D01*
X72040000Y-71530000D02*
X72040000Y-74980000D01*
X72340000Y-71530000D02*
X72040000Y-71530000D01*
X72015000Y-70355000D02*
X72340000Y-70355000D01*
X68240000Y-75005000D02*
X72015000Y-75005000D01*
X64940000Y-72550000D02*
G75*
G03*
X67310000Y-70380000I100000J2270000D01*
G01*
X70829000Y-64060000D02*
G75*
G03*
X68565000Y-62176000I-2074000J-190000D01*
G01*
X68240000Y-75010000D02*
G75*
G03*
X67020000Y-76430000I100000J-1320000D01*
G01*
X67225000Y-68060000D02*
G75*
G03*
X64965000Y-66180000I-2070000J-190000D01*
G01*
%TO.C,SW9*%
X78895000Y-55035000D02*
X81445000Y-55035000D01*
X83450000Y-58960000D02*
X83450000Y-59660000D01*
X76370000Y-44656000D02*
X84995000Y-44656000D01*
X83745000Y-52835000D02*
X88445000Y-52835000D01*
X78870000Y-55060000D02*
X78870000Y-59660000D01*
X87270000Y-50564000D02*
X83660000Y-50564000D01*
X76370000Y-48610000D02*
X81420000Y-48656000D01*
X88770000Y-52835000D02*
X88770000Y-54010000D01*
X76370000Y-48564000D02*
X76370000Y-44656000D01*
X78895000Y-59685000D02*
X83445000Y-59685000D01*
X87270000Y-46610000D02*
X87270000Y-50555000D01*
X88470000Y-54010000D02*
X88470000Y-57460000D01*
X88770000Y-54010000D02*
X88470000Y-54010000D01*
X88445000Y-52835000D02*
X88770000Y-52835000D01*
X84670000Y-57485000D02*
X88445000Y-57485000D01*
X81370000Y-55030000D02*
G75*
G03*
X83740000Y-52860000I100000J2270000D01*
G01*
X87259000Y-46540000D02*
G75*
G03*
X84995000Y-44656000I-2074000J-190000D01*
G01*
X84670000Y-57490000D02*
G75*
G03*
X83450000Y-58910000I100000J-1320000D01*
G01*
X83655000Y-50540000D02*
G75*
G03*
X81395000Y-48660000I-2070000J-190000D01*
G01*
%TO.C,D10*%
X98140000Y-43030000D02*
X98140000Y-44030000D01*
X97140000Y-43030000D02*
X97140000Y-44030000D01*
X100340000Y-42780000D02*
X100340000Y-44280000D01*
X100340000Y-42780000D02*
X94940000Y-42780000D01*
X98140000Y-44030000D02*
X97240000Y-43530000D01*
X97240000Y-43530000D02*
X98140000Y-43030000D01*
X94940000Y-44280000D02*
X100340000Y-44280000D01*
X94940000Y-42780000D02*
X94940000Y-44280000D01*
%TO.C,SW7*%
X45905000Y-55025000D02*
X48455000Y-55025000D01*
X50460000Y-58950000D02*
X50460000Y-59650000D01*
X43380000Y-44646000D02*
X52005000Y-44646000D01*
X50755000Y-52825000D02*
X55455000Y-52825000D01*
X45880000Y-55050000D02*
X45880000Y-59650000D01*
X54280000Y-50554000D02*
X50670000Y-50554000D01*
X43380000Y-48600000D02*
X48430000Y-48646000D01*
X55780000Y-52825000D02*
X55780000Y-54000000D01*
X43380000Y-48554000D02*
X43380000Y-44646000D01*
X45905000Y-59675000D02*
X50455000Y-59675000D01*
X54280000Y-46600000D02*
X54280000Y-50545000D01*
X55480000Y-54000000D02*
X55480000Y-57450000D01*
X55780000Y-54000000D02*
X55480000Y-54000000D01*
X55455000Y-52825000D02*
X55780000Y-52825000D01*
X51680000Y-57475000D02*
X55455000Y-57475000D01*
X48380000Y-55020000D02*
G75*
G03*
X50750000Y-52850000I100000J2270000D01*
G01*
X54269000Y-46530000D02*
G75*
G03*
X52005000Y-44646000I-2074000J-190000D01*
G01*
X51680000Y-57480000D02*
G75*
G03*
X50460000Y-58900000I100000J-1320000D01*
G01*
X50665000Y-50530000D02*
G75*
G03*
X48405000Y-48650000I-2070000J-190000D01*
G01*
%TO.C,SW17*%
X90016673Y-93604314D02*
X92552704Y-93870861D01*
X94136446Y-97983939D02*
X94063277Y-98680104D01*
X88590407Y-83018236D02*
X97168158Y-83919794D01*
X95070067Y-91923328D02*
X99744320Y-92414612D01*
X89989197Y-93626563D02*
X89508366Y-98201364D01*
X98813141Y-90033232D02*
X95222917Y-89655884D01*
X88177101Y-86950576D02*
X93194628Y-87524193D01*
X100067540Y-92448584D02*
X99944719Y-93617147D01*
X88181909Y-86904828D02*
X88590407Y-83018236D01*
X89530616Y-98228840D02*
X94055691Y-98704445D01*
X99226447Y-86100892D02*
X98814082Y-90024281D01*
X99646362Y-93585789D02*
X99285739Y-97016889D01*
X99944719Y-93617147D02*
X99646362Y-93585789D01*
X99744320Y-92414612D02*
X100067540Y-92448584D01*
X95503943Y-96644544D02*
X99258263Y-97039139D01*
X92478638Y-93858048D02*
G75*
G03*
X95062481Y-91947669I336732J2247111D01*
G01*
X99222824Y-86030126D02*
G75*
G03*
X97168158Y-83919794I-2082499J27833D01*
G01*
X95503420Y-96649516D02*
G75*
G03*
X94141673Y-97934213I-38525J-1323222D01*
G01*
X95220452Y-89631493D02*
G75*
G03*
X93169347Y-87525558I-2078520J27415D01*
G01*
%TO.C,SW6*%
X27765000Y-55035000D02*
X30315000Y-55035000D01*
X32320000Y-58960000D02*
X32320000Y-59660000D01*
X25240000Y-44656000D02*
X33865000Y-44656000D01*
X32615000Y-52835000D02*
X37315000Y-52835000D01*
X27740000Y-55060000D02*
X27740000Y-59660000D01*
X36140000Y-50564000D02*
X32530000Y-50564000D01*
X25240000Y-48610000D02*
X30290000Y-48656000D01*
X37640000Y-52835000D02*
X37640000Y-54010000D01*
X25240000Y-48564000D02*
X25240000Y-44656000D01*
X27765000Y-59685000D02*
X32315000Y-59685000D01*
X36140000Y-46610000D02*
X36140000Y-50555000D01*
X37340000Y-54010000D02*
X37340000Y-57460000D01*
X37640000Y-54010000D02*
X37340000Y-54010000D01*
X37315000Y-52835000D02*
X37640000Y-52835000D01*
X33540000Y-57485000D02*
X37315000Y-57485000D01*
X30240000Y-55030000D02*
G75*
G03*
X32610000Y-52860000I100000J2270000D01*
G01*
X36129000Y-46540000D02*
G75*
G03*
X33865000Y-44656000I-2074000J-190000D01*
G01*
X33540000Y-57490000D02*
G75*
G03*
X32320000Y-58910000I100000J-1320000D01*
G01*
X32525000Y-50540000D02*
G75*
G03*
X30265000Y-48660000I-2070000J-190000D01*
G01*
%TO.C,SW11*%
X27775000Y-72535000D02*
X30325000Y-72535000D01*
X32330000Y-76460000D02*
X32330000Y-77160000D01*
X25250000Y-62156000D02*
X33875000Y-62156000D01*
X32625000Y-70335000D02*
X37325000Y-70335000D01*
X27750000Y-72560000D02*
X27750000Y-77160000D01*
X36150000Y-68064000D02*
X32540000Y-68064000D01*
X25250000Y-66110000D02*
X30300000Y-66156000D01*
X37650000Y-70335000D02*
X37650000Y-71510000D01*
X25250000Y-66064000D02*
X25250000Y-62156000D01*
X27775000Y-77185000D02*
X32325000Y-77185000D01*
X36150000Y-64110000D02*
X36150000Y-68055000D01*
X37350000Y-71510000D02*
X37350000Y-74960000D01*
X37650000Y-71510000D02*
X37350000Y-71510000D01*
X37325000Y-70335000D02*
X37650000Y-70335000D01*
X33550000Y-74985000D02*
X37325000Y-74985000D01*
X30250000Y-72530000D02*
G75*
G03*
X32620000Y-70360000I100000J2270000D01*
G01*
X36139000Y-64040000D02*
G75*
G03*
X33875000Y-62156000I-2074000J-190000D01*
G01*
X33550000Y-74990000D02*
G75*
G03*
X32330000Y-76410000I100000J-1320000D01*
G01*
X32535000Y-68040000D02*
G75*
G03*
X30275000Y-66160000I-2070000J-190000D01*
G01*
%TO.C,SW3*%
X62435000Y-37525000D02*
X64985000Y-37525000D01*
X66990000Y-41450000D02*
X66990000Y-42150000D01*
X59910000Y-27146000D02*
X68535000Y-27146000D01*
X67285000Y-35325000D02*
X71985000Y-35325000D01*
X62410000Y-37550000D02*
X62410000Y-42150000D01*
X70810000Y-33054000D02*
X67200000Y-33054000D01*
X59910000Y-31100000D02*
X64960000Y-31146000D01*
X72310000Y-35325000D02*
X72310000Y-36500000D01*
X59910000Y-31054000D02*
X59910000Y-27146000D01*
X62435000Y-42175000D02*
X66985000Y-42175000D01*
X70810000Y-29100000D02*
X70810000Y-33045000D01*
X72010000Y-36500000D02*
X72010000Y-39950000D01*
X72310000Y-36500000D02*
X72010000Y-36500000D01*
X71985000Y-35325000D02*
X72310000Y-35325000D01*
X68210000Y-39975000D02*
X71985000Y-39975000D01*
X64910000Y-37520000D02*
G75*
G03*
X67280000Y-35350000I100000J2270000D01*
G01*
X70799000Y-29030000D02*
G75*
G03*
X68535000Y-27146000I-2074000J-190000D01*
G01*
X68210000Y-39980000D02*
G75*
G03*
X66990000Y-41400000I100000J-1320000D01*
G01*
X67195000Y-33030000D02*
G75*
G03*
X64935000Y-31150000I-2070000J-190000D01*
G01*
%TO.C,SW5*%
X100175000Y-33040000D02*
G75*
G03*
X97915000Y-31160000I-2070000J-190000D01*
G01*
X101190000Y-39990000D02*
G75*
G03*
X99970000Y-41410000I100000J-1320000D01*
G01*
X103779000Y-29040000D02*
G75*
G03*
X101515000Y-27156000I-2074000J-190000D01*
G01*
X97890000Y-37530000D02*
G75*
G03*
X100260000Y-35360000I100000J2270000D01*
G01*
X101190000Y-39985000D02*
X104965000Y-39985000D01*
X104965000Y-35335000D02*
X105290000Y-35335000D01*
X105290000Y-36510000D02*
X104990000Y-36510000D01*
X104990000Y-36510000D02*
X104990000Y-39960000D01*
X103790000Y-29110000D02*
X103790000Y-33055000D01*
X95415000Y-42185000D02*
X99965000Y-42185000D01*
X92890000Y-31064000D02*
X92890000Y-27156000D01*
X105290000Y-35335000D02*
X105290000Y-36510000D01*
X92890000Y-31110000D02*
X97940000Y-31156000D01*
X103790000Y-33064000D02*
X100180000Y-33064000D01*
X95390000Y-37560000D02*
X95390000Y-42160000D01*
X100265000Y-35335000D02*
X104965000Y-35335000D01*
X92890000Y-27156000D02*
X101515000Y-27156000D01*
X99970000Y-41460000D02*
X99970000Y-42160000D01*
X95415000Y-37535000D02*
X97965000Y-37535000D01*
%TO.C,SW15*%
X95395000Y-72535000D02*
X97945000Y-72535000D01*
X99950000Y-76460000D02*
X99950000Y-77160000D01*
X92870000Y-62156000D02*
X101495000Y-62156000D01*
X100245000Y-70335000D02*
X104945000Y-70335000D01*
X95370000Y-72560000D02*
X95370000Y-77160000D01*
X103770000Y-68064000D02*
X100160000Y-68064000D01*
X92870000Y-66110000D02*
X97920000Y-66156000D01*
X105270000Y-70335000D02*
X105270000Y-71510000D01*
X92870000Y-66064000D02*
X92870000Y-62156000D01*
X95395000Y-77185000D02*
X99945000Y-77185000D01*
X103770000Y-64110000D02*
X103770000Y-68055000D01*
X104970000Y-71510000D02*
X104970000Y-74960000D01*
X105270000Y-71510000D02*
X104970000Y-71510000D01*
X104945000Y-70335000D02*
X105270000Y-70335000D01*
X101170000Y-74985000D02*
X104945000Y-74985000D01*
X97870000Y-72530000D02*
G75*
G03*
X100240000Y-70360000I100000J2270000D01*
G01*
X103759000Y-64040000D02*
G75*
G03*
X101495000Y-62156000I-2074000J-190000D01*
G01*
X101170000Y-74990000D02*
G75*
G03*
X99950000Y-76410000I100000J-1320000D01*
G01*
X100155000Y-68040000D02*
G75*
G03*
X97895000Y-66160000I-2070000J-190000D01*
G01*
%TO.C,SW16*%
X73095000Y-92655000D02*
X75645000Y-92655000D01*
X77650000Y-96580000D02*
X77650000Y-97280000D01*
X70570000Y-82276000D02*
X79195000Y-82276000D01*
X77945000Y-90455000D02*
X82645000Y-90455000D01*
X73070000Y-92680000D02*
X73070000Y-97280000D01*
X81470000Y-88184000D02*
X77860000Y-88184000D01*
X70570000Y-86230000D02*
X75620000Y-86276000D01*
X82970000Y-90455000D02*
X82970000Y-91630000D01*
X70570000Y-86184000D02*
X70570000Y-82276000D01*
X73095000Y-97305000D02*
X77645000Y-97305000D01*
X81470000Y-84230000D02*
X81470000Y-88175000D01*
X82670000Y-91630000D02*
X82670000Y-95080000D01*
X82970000Y-91630000D02*
X82670000Y-91630000D01*
X82645000Y-90455000D02*
X82970000Y-90455000D01*
X78870000Y-95105000D02*
X82645000Y-95105000D01*
X75570000Y-92650000D02*
G75*
G03*
X77940000Y-90480000I100000J2270000D01*
G01*
X81459000Y-84160000D02*
G75*
G03*
X79195000Y-82276000I-2074000J-190000D01*
G01*
X78870000Y-95110000D02*
G75*
G03*
X77650000Y-96530000I100000J-1320000D01*
G01*
X77855000Y-88160000D02*
G75*
G03*
X75595000Y-86280000I-2070000J-190000D01*
G01*
%TO.C,SW18*%
X112502854Y-93947504D02*
G75*
G03*
X110764798Y-91576604I-2054478J316422D01*
G01*
X111806346Y-100936609D02*
G75*
G03*
X110279056Y-102019285I-222307J-1304983D01*
G01*
X116967487Y-90938207D02*
G75*
G03*
X115226518Y-88562459I-2058359J317389D01*
G01*
X109199498Y-97751340D02*
G75*
G03*
X112024069Y-96219153I646192J2178379D01*
G01*
X111807556Y-100931758D02*
X115470422Y-101845014D01*
X116595359Y-97333138D02*
X116910705Y-97411763D01*
X116626447Y-98551861D02*
X116335358Y-98479284D01*
X116335358Y-98479284D02*
X115500727Y-101826804D01*
X116961225Y-91008789D02*
X116006843Y-94836606D01*
X105671870Y-101669310D02*
X110086715Y-102770055D01*
X105912286Y-90267798D02*
X106857717Y-86475883D01*
X116910705Y-97411763D02*
X116626447Y-98551861D01*
X105901158Y-90312432D02*
X110790023Y-91578771D01*
X116004666Y-94845339D02*
X112501898Y-93972001D01*
X106766501Y-97175644D02*
X105653660Y-101639005D01*
X112034969Y-96196106D02*
X116595359Y-97333138D01*
X106857717Y-86475883D02*
X115226518Y-88562459D01*
X110266960Y-102067800D02*
X110097615Y-102747007D01*
X106796806Y-97157435D02*
X109271061Y-97774336D01*
%TO.C,SW8*%
X62435000Y-55035000D02*
X64985000Y-55035000D01*
X66990000Y-58960000D02*
X66990000Y-59660000D01*
X59910000Y-44656000D02*
X68535000Y-44656000D01*
X67285000Y-52835000D02*
X71985000Y-52835000D01*
X62410000Y-55060000D02*
X62410000Y-59660000D01*
X70810000Y-50564000D02*
X67200000Y-50564000D01*
X59910000Y-48610000D02*
X64960000Y-48656000D01*
X72310000Y-52835000D02*
X72310000Y-54010000D01*
X59910000Y-48564000D02*
X59910000Y-44656000D01*
X62435000Y-59685000D02*
X66985000Y-59685000D01*
X70810000Y-46610000D02*
X70810000Y-50555000D01*
X72010000Y-54010000D02*
X72010000Y-57460000D01*
X72310000Y-54010000D02*
X72010000Y-54010000D01*
X71985000Y-52835000D02*
X72310000Y-52835000D01*
X68210000Y-57485000D02*
X71985000Y-57485000D01*
X64910000Y-55030000D02*
G75*
G03*
X67280000Y-52860000I100000J2270000D01*
G01*
X70799000Y-46540000D02*
G75*
G03*
X68535000Y-44656000I-2074000J-190000D01*
G01*
X68210000Y-57490000D02*
G75*
G03*
X66990000Y-58910000I100000J-1320000D01*
G01*
X67195000Y-50540000D02*
G75*
G03*
X64935000Y-48660000I-2070000J-190000D01*
G01*
%TO.C,SW2*%
X45895000Y-37525000D02*
X48445000Y-37525000D01*
X50450000Y-41450000D02*
X50450000Y-42150000D01*
X43370000Y-27146000D02*
X51995000Y-27146000D01*
X50745000Y-35325000D02*
X55445000Y-35325000D01*
X45870000Y-37550000D02*
X45870000Y-42150000D01*
X54270000Y-33054000D02*
X50660000Y-33054000D01*
X43370000Y-31100000D02*
X48420000Y-31146000D01*
X55770000Y-35325000D02*
X55770000Y-36500000D01*
X43370000Y-31054000D02*
X43370000Y-27146000D01*
X45895000Y-42175000D02*
X50445000Y-42175000D01*
X54270000Y-29100000D02*
X54270000Y-33045000D01*
X55470000Y-36500000D02*
X55470000Y-39950000D01*
X55770000Y-36500000D02*
X55470000Y-36500000D01*
X55445000Y-35325000D02*
X55770000Y-35325000D01*
X51670000Y-39975000D02*
X55445000Y-39975000D01*
X48370000Y-37520000D02*
G75*
G03*
X50740000Y-35350000I100000J2270000D01*
G01*
X54259000Y-29030000D02*
G75*
G03*
X51995000Y-27146000I-2074000J-190000D01*
G01*
X51670000Y-39980000D02*
G75*
G03*
X50450000Y-41400000I100000J-1320000D01*
G01*
X50655000Y-33030000D02*
G75*
G03*
X48395000Y-31150000I-2070000J-190000D01*
G01*
%TO.C,SW12*%
X45905000Y-72515000D02*
X48455000Y-72515000D01*
X50460000Y-76440000D02*
X50460000Y-77140000D01*
X43380000Y-62136000D02*
X52005000Y-62136000D01*
X50755000Y-70315000D02*
X55455000Y-70315000D01*
X45880000Y-72540000D02*
X45880000Y-77140000D01*
X54280000Y-68044000D02*
X50670000Y-68044000D01*
X43380000Y-66090000D02*
X48430000Y-66136000D01*
X55780000Y-70315000D02*
X55780000Y-71490000D01*
X43380000Y-66044000D02*
X43380000Y-62136000D01*
X45905000Y-77165000D02*
X50455000Y-77165000D01*
X54280000Y-64090000D02*
X54280000Y-68035000D01*
X55480000Y-71490000D02*
X55480000Y-74940000D01*
X55780000Y-71490000D02*
X55480000Y-71490000D01*
X55455000Y-70315000D02*
X55780000Y-70315000D01*
X51680000Y-74965000D02*
X55455000Y-74965000D01*
X48380000Y-72510000D02*
G75*
G03*
X50750000Y-70340000I100000J2270000D01*
G01*
X54269000Y-64020000D02*
G75*
G03*
X52005000Y-62136000I-2074000J-190000D01*
G01*
X51680000Y-74970000D02*
G75*
G03*
X50460000Y-76390000I100000J-1320000D01*
G01*
X50665000Y-68020000D02*
G75*
G03*
X48405000Y-66140000I-2070000J-190000D01*
G01*
%TO.C,SW14*%
X78885000Y-72535000D02*
X81435000Y-72535000D01*
X83440000Y-76460000D02*
X83440000Y-77160000D01*
X76360000Y-62156000D02*
X84985000Y-62156000D01*
X83735000Y-70335000D02*
X88435000Y-70335000D01*
X78860000Y-72560000D02*
X78860000Y-77160000D01*
X87260000Y-68064000D02*
X83650000Y-68064000D01*
X76360000Y-66110000D02*
X81410000Y-66156000D01*
X88760000Y-70335000D02*
X88760000Y-71510000D01*
X76360000Y-66064000D02*
X76360000Y-62156000D01*
X78885000Y-77185000D02*
X83435000Y-77185000D01*
X87260000Y-64110000D02*
X87260000Y-68055000D01*
X88460000Y-71510000D02*
X88460000Y-74960000D01*
X88760000Y-71510000D02*
X88460000Y-71510000D01*
X88435000Y-70335000D02*
X88760000Y-70335000D01*
X84660000Y-74985000D02*
X88435000Y-74985000D01*
X81360000Y-72530000D02*
G75*
G03*
X83730000Y-70360000I100000J2270000D01*
G01*
X87249000Y-64040000D02*
G75*
G03*
X84985000Y-62156000I-2074000J-190000D01*
G01*
X84660000Y-74990000D02*
G75*
G03*
X83440000Y-76410000I100000J-1320000D01*
G01*
X83645000Y-68040000D02*
G75*
G03*
X81385000Y-66160000I-2070000J-190000D01*
G01*
%TO.C,SW1*%
X27765000Y-37505000D02*
X30315000Y-37505000D01*
X32320000Y-41430000D02*
X32320000Y-42130000D01*
X25240000Y-27126000D02*
X33865000Y-27126000D01*
X32615000Y-35305000D02*
X37315000Y-35305000D01*
X27740000Y-37530000D02*
X27740000Y-42130000D01*
X36140000Y-33034000D02*
X32530000Y-33034000D01*
X25240000Y-31080000D02*
X30290000Y-31126000D01*
X37640000Y-35305000D02*
X37640000Y-36480000D01*
X25240000Y-31034000D02*
X25240000Y-27126000D01*
X27765000Y-42155000D02*
X32315000Y-42155000D01*
X36140000Y-29080000D02*
X36140000Y-33025000D01*
X37340000Y-36480000D02*
X37340000Y-39930000D01*
X37640000Y-36480000D02*
X37340000Y-36480000D01*
X37315000Y-35305000D02*
X37640000Y-35305000D01*
X33540000Y-39955000D02*
X37315000Y-39955000D01*
X30240000Y-37500000D02*
G75*
G03*
X32610000Y-35330000I100000J2270000D01*
G01*
X36129000Y-29010000D02*
G75*
G03*
X33865000Y-27126000I-2074000J-190000D01*
G01*
X33540000Y-39960000D02*
G75*
G03*
X32320000Y-41380000I100000J-1320000D01*
G01*
X32525000Y-33010000D02*
G75*
G03*
X30265000Y-31130000I-2070000J-190000D01*
G01*
%TO.C,SW4*%
X78905000Y-37505000D02*
X81455000Y-37505000D01*
X83460000Y-41430000D02*
X83460000Y-42130000D01*
X76380000Y-27126000D02*
X85005000Y-27126000D01*
X83755000Y-35305000D02*
X88455000Y-35305000D01*
X78880000Y-37530000D02*
X78880000Y-42130000D01*
X87280000Y-33034000D02*
X83670000Y-33034000D01*
X76380000Y-31080000D02*
X81430000Y-31126000D01*
X88780000Y-35305000D02*
X88780000Y-36480000D01*
X76380000Y-31034000D02*
X76380000Y-27126000D01*
X78905000Y-42155000D02*
X83455000Y-42155000D01*
X87280000Y-29080000D02*
X87280000Y-33025000D01*
X88480000Y-36480000D02*
X88480000Y-39930000D01*
X88780000Y-36480000D02*
X88480000Y-36480000D01*
X88455000Y-35305000D02*
X88780000Y-35305000D01*
X84680000Y-39955000D02*
X88455000Y-39955000D01*
X81380000Y-37500000D02*
G75*
G03*
X83750000Y-35330000I100000J2270000D01*
G01*
X87269000Y-29010000D02*
G75*
G03*
X85005000Y-27126000I-2074000J-190000D01*
G01*
X84680000Y-39960000D02*
G75*
G03*
X83460000Y-41380000I100000J-1320000D01*
G01*
X83665000Y-33010000D02*
G75*
G03*
X81405000Y-31130000I-2070000J-190000D01*
G01*
%TO.C,D7*%
X47690000Y-43410000D02*
X48590000Y-42910000D01*
X47590000Y-42910000D02*
X47590000Y-43910000D01*
X48590000Y-43910000D02*
X47690000Y-43410000D01*
X45390000Y-44160000D02*
X50790000Y-44160000D01*
X50790000Y-42660000D02*
X50790000Y-44160000D01*
X45390000Y-42660000D02*
X45390000Y-44160000D01*
X50790000Y-42660000D02*
X45390000Y-42660000D01*
X48590000Y-42910000D02*
X48590000Y-43910000D01*
%TO.C,D6*%
X32780000Y-42700000D02*
X32780000Y-44200000D01*
X30580000Y-43950000D02*
X29680000Y-43450000D01*
X29580000Y-42950000D02*
X29580000Y-43950000D01*
X32780000Y-42700000D02*
X27380000Y-42700000D01*
X30580000Y-42950000D02*
X30580000Y-43950000D01*
X29680000Y-43450000D02*
X30580000Y-42950000D01*
X27380000Y-42700000D02*
X27380000Y-44200000D01*
X27380000Y-44200000D02*
X32780000Y-44200000D01*
%TO.C,D9*%
X80790000Y-43450000D02*
X81690000Y-42950000D01*
X83890000Y-42700000D02*
X78490000Y-42700000D01*
X81690000Y-42950000D02*
X81690000Y-43950000D01*
X83890000Y-42700000D02*
X83890000Y-44200000D01*
X80690000Y-42950000D02*
X80690000Y-43950000D01*
X78490000Y-44200000D02*
X83890000Y-44200000D01*
X78490000Y-42700000D02*
X78490000Y-44200000D01*
X81690000Y-43950000D02*
X80790000Y-43450000D01*
%TO.C,D16*%
X62330000Y-89650000D02*
X61430000Y-89150000D01*
X64530000Y-88400000D02*
X59130000Y-88400000D01*
X61430000Y-89150000D02*
X62330000Y-88650000D01*
X59130000Y-88400000D02*
X59130000Y-89900000D01*
X64530000Y-88400000D02*
X64530000Y-89900000D01*
X61330000Y-88650000D02*
X61330000Y-89650000D01*
X62330000Y-88650000D02*
X62330000Y-89650000D01*
X59130000Y-89900000D02*
X64530000Y-89900000D01*
%TO.C,D11*%
X32790000Y-60200000D02*
X32790000Y-61700000D01*
X27390000Y-60200000D02*
X27390000Y-61700000D01*
X30590000Y-61450000D02*
X29690000Y-60950000D01*
X27390000Y-61700000D02*
X32790000Y-61700000D01*
X29590000Y-60450000D02*
X29590000Y-61450000D01*
X32790000Y-60200000D02*
X27390000Y-60200000D01*
X29690000Y-60950000D02*
X30590000Y-60450000D01*
X30590000Y-60450000D02*
X30590000Y-61450000D01*
%TO.C,D14*%
X81750000Y-60410000D02*
X81750000Y-61410000D01*
X83950000Y-60160000D02*
X83950000Y-61660000D01*
X80750000Y-60410000D02*
X80750000Y-61410000D01*
X78550000Y-61660000D02*
X83950000Y-61660000D01*
X81750000Y-61410000D02*
X80850000Y-60910000D01*
X83950000Y-60160000D02*
X78550000Y-60160000D01*
X78550000Y-60160000D02*
X78550000Y-61660000D01*
X80850000Y-60910000D02*
X81750000Y-60410000D01*
%TO.C,D17*%
X64510000Y-90700000D02*
X64510000Y-92200000D01*
X61410000Y-91450000D02*
X62310000Y-90950000D01*
X64510000Y-90700000D02*
X59110000Y-90700000D01*
X59110000Y-90700000D02*
X59110000Y-92200000D01*
X62310000Y-91950000D02*
X61410000Y-91450000D01*
X62310000Y-90950000D02*
X62310000Y-91950000D01*
X61310000Y-90950000D02*
X61310000Y-91950000D01*
X59110000Y-92200000D02*
X64510000Y-92200000D01*
%TO.C,D1*%
X37070000Y-25940000D02*
X36170000Y-25440000D01*
X39270000Y-24690000D02*
X39270000Y-26190000D01*
X36170000Y-25440000D02*
X37070000Y-24940000D01*
X37070000Y-24940000D02*
X37070000Y-25940000D01*
X33870000Y-24690000D02*
X33870000Y-26190000D01*
X36070000Y-24940000D02*
X36070000Y-25940000D01*
X39270000Y-24690000D02*
X33870000Y-24690000D01*
X33870000Y-26190000D02*
X39270000Y-26190000D01*
%TO.C,D18*%
X62350000Y-93440000D02*
X62350000Y-94440000D01*
X61350000Y-93440000D02*
X61350000Y-94440000D01*
X59150000Y-93190000D02*
X59150000Y-94690000D01*
X62350000Y-94440000D02*
X61450000Y-93940000D01*
X61450000Y-93940000D02*
X62350000Y-93440000D01*
X64550000Y-93190000D02*
X64550000Y-94690000D01*
X64550000Y-93190000D02*
X59150000Y-93190000D01*
X59150000Y-94690000D02*
X64550000Y-94690000D01*
%TO.C,D4*%
X84370000Y-25070000D02*
X84370000Y-26570000D01*
X82170000Y-26320000D02*
X81270000Y-25820000D01*
X81170000Y-25320000D02*
X81170000Y-26320000D01*
X82170000Y-25320000D02*
X82170000Y-26320000D01*
X81270000Y-25820000D02*
X82170000Y-25320000D01*
X78970000Y-26570000D02*
X84370000Y-26570000D01*
X78970000Y-25070000D02*
X78970000Y-26570000D01*
X84370000Y-25070000D02*
X78970000Y-25070000D01*
%TO.C,J1*%
X107960000Y-77625000D02*
X107960000Y-71625000D01*
X119960000Y-71625000D02*
X119960000Y-77625000D01*
X107960000Y-71625000D02*
X119960000Y-71625000D01*
X119960000Y-77625000D02*
X107960000Y-77625000D01*
%TO.C,D3*%
X64090000Y-25820000D02*
X64990000Y-25320000D01*
X61790000Y-26570000D02*
X67190000Y-26570000D01*
X67190000Y-25070000D02*
X61790000Y-25070000D01*
X61790000Y-25070000D02*
X61790000Y-26570000D01*
X64990000Y-26320000D02*
X64090000Y-25820000D01*
X64990000Y-25320000D02*
X64990000Y-26320000D01*
X63990000Y-25320000D02*
X63990000Y-26320000D01*
X67190000Y-25070000D02*
X67190000Y-26570000D01*
D14*
%TO.C,U1*%
X25557500Y-83793700D02*
X43047500Y-83793700D01*
X43047500Y-83793700D02*
X43047500Y-81823700D01*
X43047500Y-81823700D02*
X25557500Y-81823700D01*
X25557500Y-81823700D02*
X25557500Y-83793700D01*
X25537500Y-99003700D02*
X43027500Y-99003700D01*
X43027500Y-99003700D02*
X43027500Y-97033700D01*
X43027500Y-97033700D02*
X25537500Y-97033700D01*
X25537500Y-97033700D02*
X25537500Y-99003700D01*
D13*
%TO.C,D15*%
X98260000Y-60520000D02*
X98260000Y-61520000D01*
X95060000Y-61770000D02*
X100460000Y-61770000D01*
X97360000Y-61020000D02*
X98260000Y-60520000D01*
X97260000Y-60520000D02*
X97260000Y-61520000D01*
X100460000Y-60270000D02*
X95060000Y-60270000D01*
X98260000Y-61520000D02*
X97360000Y-61020000D01*
X95060000Y-60270000D02*
X95060000Y-61770000D01*
X100460000Y-60270000D02*
X100460000Y-61770000D01*
%TO.C,D5*%
X91260000Y-25800000D02*
X92160000Y-25300000D01*
X88960000Y-25050000D02*
X88960000Y-26550000D01*
X94360000Y-25050000D02*
X94360000Y-26550000D01*
X94360000Y-25050000D02*
X88960000Y-25050000D01*
X92160000Y-26300000D02*
X91260000Y-25800000D01*
X92160000Y-25300000D02*
X92160000Y-26300000D01*
X91160000Y-25300000D02*
X91160000Y-26300000D01*
X88960000Y-26550000D02*
X94360000Y-26550000D01*
%TO.C,D8*%
X67460000Y-42700000D02*
X62060000Y-42700000D01*
X64260000Y-42950000D02*
X64260000Y-43950000D01*
X64360000Y-43450000D02*
X65260000Y-42950000D01*
X65260000Y-43950000D02*
X64360000Y-43450000D01*
X62060000Y-44200000D02*
X67460000Y-44200000D01*
X67460000Y-42700000D02*
X67460000Y-44200000D01*
X62060000Y-42700000D02*
X62060000Y-44200000D01*
X65260000Y-42950000D02*
X65260000Y-43950000D01*
%TO.C,D2*%
X47620000Y-25530000D02*
X48520000Y-25030000D01*
X45320000Y-24780000D02*
X45320000Y-26280000D01*
X48520000Y-26030000D02*
X47620000Y-25530000D01*
X48520000Y-25030000D02*
X48520000Y-26030000D01*
X45320000Y-26280000D02*
X50720000Y-26280000D01*
X50720000Y-24780000D02*
X45320000Y-24780000D01*
X50720000Y-24780000D02*
X50720000Y-26280000D01*
X47520000Y-25030000D02*
X47520000Y-26030000D01*
%TO.C,D12*%
X45610000Y-60170000D02*
X45610000Y-61670000D01*
X48810000Y-61420000D02*
X47910000Y-60920000D01*
X47910000Y-60920000D02*
X48810000Y-60420000D01*
X45610000Y-61670000D02*
X51010000Y-61670000D01*
X48810000Y-60420000D02*
X48810000Y-61420000D01*
X51010000Y-60170000D02*
X45610000Y-60170000D01*
X47810000Y-60420000D02*
X47810000Y-61420000D01*
X51010000Y-60170000D02*
X51010000Y-61670000D01*
%TD*%
D15*
%TO.C,J1*%
X118460000Y-74625000D03*
X111460000Y-74625000D03*
X118460000Y-72875000D03*
X111460000Y-72875000D03*
D16*
X108160000Y-74975000D03*
X108160000Y-72525000D03*
X116660000Y-76725000D03*
X116660000Y-70775000D03*
X113660000Y-76725000D03*
X113660000Y-70775000D03*
X109660000Y-76725000D03*
X109660000Y-70775000D03*
%TD*%
D17*
%TO.C,U1*%
X26686500Y-98011200D03*
X29226500Y-98011200D03*
X31766500Y-98011200D03*
X34306500Y-98011200D03*
X36846500Y-98011200D03*
X39386500Y-98011200D03*
X41926500Y-98011200D03*
X41926500Y-82776200D03*
X39386500Y-82776200D03*
X36846500Y-82776200D03*
X34306500Y-82776200D03*
X31766500Y-82776200D03*
X29226500Y-82776200D03*
X26686500Y-82776200D03*
%TD*%
D18*
X41300000Y-48400000D03*
X24302500Y-63902500D03*
X95200000Y-70800000D03*
X78400000Y-70100000D03*
X60300000Y-76100000D03*
X65400000Y-72100000D03*
X88900000Y-62100000D03*
X104500000Y-59400000D03*
X105500000Y-74500000D03*
X61800000Y-35500000D03*
X56200000Y-27800000D03*
X55100000Y-29800000D03*
X38345000Y-24655000D03*
X36200000Y-27100000D03*
X36940000Y-29860800D03*
X78300000Y-52100000D03*
X84400000Y-53000000D03*
X37600000Y-69700000D03*
X24000000Y-77100000D03*
X33000000Y-69500000D03*
X26700000Y-34800000D03*
X22100000Y-52000000D03*
X36800000Y-58900000D03*
X22300000Y-63700000D03*
X90600000Y-76300000D03*
X43800000Y-27200000D03*
X24800000Y-23000000D03*
X49000000Y-37800000D03*
X59700000Y-40500000D03*
X84200000Y-34000000D03*
X78100000Y-34900000D03*
X100782990Y-34482844D03*
X100800000Y-33500000D03*
X76800000Y-26800000D03*
X72700000Y-27600000D03*
X86000000Y-39800000D03*
X71200000Y-40500000D03*
X74397134Y-40391878D03*
X74900000Y-44100000D03*
X56485646Y-43782888D03*
X55400000Y-41100000D03*
X45500000Y-36400000D03*
X39356699Y-27958175D03*
X71200000Y-44200000D03*
X88300000Y-41600000D03*
X95400000Y-54100000D03*
X92797713Y-58771654D03*
X88300000Y-58800000D03*
X103200000Y-42000000D03*
X30500000Y-30400000D03*
X72500000Y-58600000D03*
X65800000Y-84200000D03*
X89400000Y-44200000D03*
X104900000Y-42000000D03*
X39500000Y-31100000D03*
X39500000Y-44800000D03*
X22172493Y-43298334D03*
X38800000Y-57500000D03*
X37800000Y-62500000D03*
X39000000Y-50800000D03*
X56400000Y-58200000D03*
X103276620Y-24266557D03*
X95100000Y-81500000D03*
X101300000Y-90900000D03*
X98700000Y-96700000D03*
X100800000Y-99500000D03*
X84500000Y-96100000D03*
X76000000Y-81400000D03*
X75000000Y-77100000D03*
X105200000Y-81500000D03*
X39000000Y-87700000D03*
X42700000Y-40800000D03*
X94600000Y-34700000D03*
X37200000Y-41000000D03*
X24600000Y-42600000D03*
X36100000Y-44200000D03*
X41900000Y-76200000D03*
X104200000Y-76200000D03*
X46700000Y-92200000D03*
X57100000Y-86200000D03*
X72700000Y-61500000D03*
X56700000Y-62600000D03*
X42600000Y-58900000D03*
D19*
X99755000Y-54005000D03*
X83440000Y-77370000D03*
X99060000Y-37080000D03*
X49820000Y-36650000D03*
X32500000Y-55700000D03*
X51800000Y-76580000D03*
X66100000Y-54520000D03*
X68383500Y-76716500D03*
X68029100Y-61115000D03*
X87410000Y-75480000D03*
X99575000Y-72055000D03*
X106119400Y-97703900D03*
X90300000Y-46440000D03*
X79260000Y-55180000D03*
X73870000Y-29050000D03*
X78750000Y-38200000D03*
X40970000Y-29210000D03*
X62480000Y-37990000D03*
X57420000Y-29220000D03*
X57784700Y-68075300D03*
X57460000Y-46680000D03*
X49330000Y-54580000D03*
X55246400Y-47293600D03*
X31940000Y-76410000D03*
X28130000Y-37560000D03*
X102300000Y-87910000D03*
X102259850Y-92839850D03*
X67980000Y-84320000D03*
X89890000Y-94220000D03*
X111556100Y-97130000D03*
X117630000Y-91810000D03*
X90770000Y-62120200D03*
X90791000Y-40714500D03*
X84363500Y-90471900D03*
X35031000Y-94145500D03*
X73931500Y-45555100D03*
X73942700Y-63871000D03*
X67800000Y-80729500D03*
X59313797Y-81513797D03*
X62962800Y-59362500D03*
X56610000Y-39604900D03*
X40792700Y-68003600D03*
X41560000Y-43530000D03*
X22813600Y-28850000D03*
X37891100Y-74973600D03*
X60055000Y-90300000D03*
X94901500Y-60109700D03*
X46535000Y-59804800D03*
X29429000Y-61851500D03*
X77577400Y-60089700D03*
X39327400Y-60149700D03*
X60200600Y-61632800D03*
X62359400Y-93627600D03*
X62312900Y-91746800D03*
X100974700Y-86825400D03*
X70271600Y-94980000D03*
X101390200Y-61955200D03*
X86760000Y-62260400D03*
X51808100Y-61130000D03*
X33760500Y-61952000D03*
X64255100Y-43049800D03*
X78124400Y-42937300D03*
X94732300Y-42657300D03*
X27028600Y-43751100D03*
X44665700Y-43054500D03*
X98163200Y-43966200D03*
X84426700Y-43936300D03*
X67957800Y-43897400D03*
X30597600Y-43450000D03*
X101689900Y-26940100D03*
X84810000Y-35350000D03*
X68340000Y-35530000D03*
X51663100Y-25449000D03*
X63972700Y-25476100D03*
X92680000Y-55170000D03*
X102760000Y-51470000D03*
X97680000Y-57370000D03*
X103180000Y-51470000D03*
X101490000Y-48930000D03*
X97680000Y-51470000D03*
X95140000Y-46390000D03*
X93870000Y-48930000D03*
X100220000Y-46390000D03*
X102680000Y-55170000D03*
X92600000Y-51470000D03*
X92180000Y-51470000D03*
X59740000Y-72680000D03*
X69820000Y-68980000D03*
X64740000Y-74880000D03*
X70240000Y-68980000D03*
X68550000Y-66440000D03*
X64740000Y-68980000D03*
X62200000Y-63900000D03*
X60930000Y-66440000D03*
X67280000Y-63900000D03*
X69740000Y-72680000D03*
X59660000Y-68980000D03*
X59240000Y-68980000D03*
X76170000Y-55160000D03*
X86250000Y-51460000D03*
X81170000Y-57360000D03*
X86670000Y-51460000D03*
X84980000Y-48920000D03*
X81170000Y-51460000D03*
X78630000Y-46380000D03*
X77360000Y-48920000D03*
X83710000Y-46380000D03*
X86170000Y-55160000D03*
X76090000Y-51460000D03*
X75670000Y-51460000D03*
X43180000Y-55150000D03*
X53260000Y-51450000D03*
X48180000Y-57350000D03*
X53680000Y-51450000D03*
X51990000Y-48910000D03*
X48180000Y-51450000D03*
X45640000Y-46370000D03*
X44370000Y-48910000D03*
X50720000Y-46370000D03*
X53180000Y-55150000D03*
X43100000Y-51450000D03*
X42680000Y-51450000D03*
X87293535Y-93443789D03*
X97705071Y-90817705D03*
X92036182Y-96154379D03*
X98122770Y-90861607D03*
X96707531Y-88158868D03*
X92652900Y-90286700D03*
X90657819Y-84969026D03*
X89129274Y-87362361D03*
X95709990Y-85500031D03*
X97238754Y-94489073D03*
X87600729Y-89755695D03*
X87183030Y-89711793D03*
X25040000Y-55160000D03*
X35120000Y-51460000D03*
X30040000Y-57360000D03*
X35540000Y-51460000D03*
X33850000Y-48920000D03*
X30040000Y-51460000D03*
X27500000Y-46380000D03*
X26230000Y-48920000D03*
X32580000Y-46380000D03*
X35040000Y-55160000D03*
X24960000Y-51460000D03*
X24540000Y-51460000D03*
X25050000Y-72660000D03*
X35130000Y-68960000D03*
X30050000Y-74860000D03*
X35550000Y-68960000D03*
X33860000Y-66420000D03*
X30050000Y-68960000D03*
X27510000Y-63880000D03*
X26240000Y-66420000D03*
X32590000Y-63880000D03*
X35050000Y-72660000D03*
X24970000Y-68960000D03*
X24550000Y-68960000D03*
X59710000Y-37650000D03*
X69790000Y-33950000D03*
X64710000Y-39850000D03*
X70210000Y-33950000D03*
X68520000Y-31410000D03*
X64710000Y-33950000D03*
X62170000Y-28870000D03*
X60900000Y-31410000D03*
X67250000Y-28870000D03*
X69710000Y-37650000D03*
X59630000Y-33950000D03*
X59210000Y-33950000D03*
X92190000Y-33960000D03*
X92610000Y-33960000D03*
X102690000Y-37660000D03*
X100230000Y-28880000D03*
X93880000Y-31420000D03*
X95150000Y-28880000D03*
X97690000Y-33960000D03*
X101500000Y-31420000D03*
X103190000Y-33960000D03*
X97690000Y-39860000D03*
X102770000Y-33960000D03*
X92690000Y-37660000D03*
X92670000Y-72660000D03*
X102750000Y-68960000D03*
X97670000Y-74860000D03*
X103170000Y-68960000D03*
X101480000Y-66420000D03*
X97670000Y-68960000D03*
X95130000Y-63880000D03*
X93860000Y-66420000D03*
X100210000Y-63880000D03*
X102670000Y-72660000D03*
X92590000Y-68960000D03*
X92170000Y-68960000D03*
X70370000Y-92780000D03*
X80450000Y-89080000D03*
X75370000Y-94980000D03*
X80870000Y-89080000D03*
X79180000Y-86540000D03*
X75370000Y-89080000D03*
X72830000Y-84000000D03*
X71560000Y-86540000D03*
X77910000Y-84000000D03*
X80370000Y-92780000D03*
X70290000Y-89080000D03*
X69870000Y-89080000D03*
X104532474Y-92908430D03*
X104939998Y-93010037D03*
X113825468Y-99038704D03*
X113562614Y-89924379D03*
X106786755Y-90852726D03*
X108633512Y-88695416D03*
X109869100Y-94239000D03*
X114180408Y-92696171D03*
X115205726Y-95569570D03*
X108441761Y-99963745D03*
X114798202Y-95467963D03*
X104122510Y-96619485D03*
X59710000Y-55160000D03*
X69790000Y-51460000D03*
X64710000Y-57360000D03*
X70210000Y-51460000D03*
X68520000Y-48920000D03*
X64710000Y-51460000D03*
X62170000Y-46380000D03*
X60900000Y-48920000D03*
X67250000Y-46380000D03*
X69710000Y-55160000D03*
X59630000Y-51460000D03*
X59210000Y-51460000D03*
X43170000Y-37650000D03*
X53250000Y-33950000D03*
X48170000Y-39850000D03*
X53670000Y-33950000D03*
X51980000Y-31410000D03*
X48170000Y-33950000D03*
X45630000Y-28870000D03*
X44360000Y-31410000D03*
X50710000Y-28870000D03*
X53170000Y-37650000D03*
X43090000Y-33950000D03*
X42670000Y-33950000D03*
X43180000Y-72640000D03*
X53260000Y-68940000D03*
X48180000Y-74840000D03*
X53680000Y-68940000D03*
X51990000Y-66400000D03*
X48180000Y-68940000D03*
X45640000Y-63860000D03*
X44370000Y-66400000D03*
X50720000Y-63860000D03*
X53180000Y-72640000D03*
X43100000Y-68940000D03*
X42680000Y-68940000D03*
X76160000Y-72660000D03*
X86240000Y-68960000D03*
X81160000Y-74860000D03*
X86660000Y-68960000D03*
X84970000Y-66420000D03*
X81160000Y-68960000D03*
X78620000Y-63880000D03*
X77350000Y-66420000D03*
X83700000Y-63880000D03*
X86160000Y-72660000D03*
X76080000Y-68960000D03*
X75660000Y-68960000D03*
X25040000Y-37630000D03*
X35120000Y-33930000D03*
X30040000Y-39830000D03*
X35540000Y-33930000D03*
X33850000Y-31390000D03*
X30040000Y-33930000D03*
X27500000Y-28850000D03*
X26230000Y-31390000D03*
X32580000Y-28850000D03*
X35040000Y-37630000D03*
X24960000Y-33930000D03*
X24540000Y-33930000D03*
X76180000Y-37630000D03*
X86260000Y-33930000D03*
X81180000Y-39830000D03*
X86680000Y-33930000D03*
X84990000Y-31390000D03*
X81180000Y-33930000D03*
X78640000Y-28850000D03*
X77370000Y-31390000D03*
X83720000Y-28850000D03*
X86180000Y-37630000D03*
X76100000Y-33930000D03*
X75680000Y-33930000D03*
X52020000Y-80950000D03*
X112800000Y-84690000D03*
X53040000Y-95600000D03*
X118460000Y-74625000D03*
X111460000Y-74625000D03*
X118460000Y-72875000D03*
X111460000Y-72875000D03*
D20*
X108160000Y-74975000D03*
X108160000Y-72525000D03*
X116660000Y-76725000D03*
X116660000Y-70775000D03*
X113660000Y-76725000D03*
X113660000Y-70775000D03*
X109660000Y-76725000D03*
X109660000Y-70775000D03*
D19*
X97680000Y-23950000D03*
X26686500Y-98011200D03*
X25387500Y-81378700D03*
X27927500Y-81378700D03*
X29226500Y-98011200D03*
X30467500Y-81378700D03*
X31766500Y-98011200D03*
X34306500Y-98011200D03*
X33007500Y-81378700D03*
X35547500Y-81378700D03*
X36846500Y-98011200D03*
X38087500Y-81378700D03*
X39386500Y-98011200D03*
X40627500Y-81378700D03*
X41926500Y-98011200D03*
X41926500Y-82776200D03*
X40627500Y-96613700D03*
X39386500Y-82776200D03*
X38087500Y-96613700D03*
X35547500Y-96613700D03*
X36846500Y-82776200D03*
X34306500Y-82776200D03*
X33007500Y-96613700D03*
X31766500Y-82776200D03*
X30467500Y-96613700D03*
X27927500Y-96613700D03*
X29226500Y-82776200D03*
X26686500Y-82776200D03*
X25387500Y-96613700D03*
X30040000Y-23950000D03*
%LPC*%
D21*
%TO.C,SW10*%
X92680000Y-55170000D03*
D22*
X102760000Y-51470000D03*
D21*
X97680000Y-57370000D03*
D23*
X103180000Y-51470000D03*
D21*
X101490000Y-48930000D03*
D24*
X97680000Y-51470000D03*
D21*
X95140000Y-46390000D03*
X93870000Y-48930000D03*
X100220000Y-46390000D03*
X102680000Y-55170000D03*
D22*
X92600000Y-51470000D03*
D23*
X92180000Y-51470000D03*
D25*
X92080000Y-46390000D03*
D26*
X105500000Y-55170000D03*
D27*
X94880000Y-57370000D03*
D25*
X104580000Y-48930000D03*
%TD*%
D28*
%TO.C,D13*%
X62985000Y-60890000D03*
X66535000Y-60890000D03*
%TD*%
D21*
%TO.C,SW13*%
X59740000Y-72680000D03*
D22*
X69820000Y-68980000D03*
D21*
X64740000Y-74880000D03*
D23*
X70240000Y-68980000D03*
D21*
X68550000Y-66440000D03*
D24*
X64740000Y-68980000D03*
D21*
X62200000Y-63900000D03*
X60930000Y-66440000D03*
X67280000Y-63900000D03*
X69740000Y-72680000D03*
D22*
X59660000Y-68980000D03*
D23*
X59240000Y-68980000D03*
D25*
X59140000Y-63900000D03*
X72840000Y-72680000D03*
D27*
X61940000Y-74880000D03*
D25*
X71640000Y-66440000D03*
%TD*%
D21*
%TO.C,SW9*%
X76170000Y-55160000D03*
D22*
X86250000Y-51460000D03*
D21*
X81170000Y-57360000D03*
D23*
X86670000Y-51460000D03*
D21*
X84980000Y-48920000D03*
D24*
X81170000Y-51460000D03*
D21*
X78630000Y-46380000D03*
X77360000Y-48920000D03*
X83710000Y-46380000D03*
X86170000Y-55160000D03*
D22*
X76090000Y-51460000D03*
D23*
X75670000Y-51460000D03*
D25*
X75570000Y-46380000D03*
X89270000Y-55160000D03*
D27*
X78370000Y-57360000D03*
D25*
X88070000Y-48920000D03*
%TD*%
D28*
%TO.C,D10*%
X95865000Y-43530000D03*
X99415000Y-43530000D03*
%TD*%
D21*
%TO.C,SW7*%
X43180000Y-55150000D03*
D22*
X53260000Y-51450000D03*
D21*
X48180000Y-57350000D03*
D23*
X53680000Y-51450000D03*
D21*
X51990000Y-48910000D03*
D24*
X48180000Y-51450000D03*
D21*
X45640000Y-46370000D03*
X44370000Y-48910000D03*
X50720000Y-46370000D03*
X53180000Y-55150000D03*
D22*
X43100000Y-51450000D03*
D23*
X42680000Y-51450000D03*
D25*
X42580000Y-46370000D03*
X56280000Y-55150000D03*
D27*
X45380000Y-57350000D03*
D25*
X55080000Y-48910000D03*
%TD*%
D21*
%TO.C,SW17*%
X87293535Y-93443789D03*
D22*
X97705071Y-90817705D03*
D21*
X92036182Y-96154379D03*
D23*
X98122770Y-90861607D03*
D21*
X96707531Y-88158868D03*
D24*
X92652900Y-90286700D03*
D21*
X90657819Y-84969026D03*
X89129274Y-87362361D03*
X95709990Y-85500031D03*
X97238754Y-94489073D03*
D22*
X87600729Y-89755695D03*
D23*
X87183030Y-89711793D03*
D29*
X87614582Y-84649169D03*
X100321772Y-94813112D03*
D30*
X89251521Y-95861699D03*
D29*
X99780603Y-88481861D03*
%TD*%
D21*
%TO.C,SW6*%
X25040000Y-55160000D03*
D22*
X35120000Y-51460000D03*
D21*
X30040000Y-57360000D03*
D23*
X35540000Y-51460000D03*
D21*
X33850000Y-48920000D03*
D24*
X30040000Y-51460000D03*
D21*
X27500000Y-46380000D03*
X26230000Y-48920000D03*
X32580000Y-46380000D03*
X35040000Y-55160000D03*
D22*
X24960000Y-51460000D03*
D23*
X24540000Y-51460000D03*
D25*
X24440000Y-46380000D03*
X38140000Y-55160000D03*
D27*
X27240000Y-57360000D03*
D25*
X36940000Y-48920000D03*
%TD*%
D21*
%TO.C,SW11*%
X25050000Y-72660000D03*
D22*
X35130000Y-68960000D03*
D21*
X30050000Y-74860000D03*
D23*
X35550000Y-68960000D03*
D21*
X33860000Y-66420000D03*
D24*
X30050000Y-68960000D03*
D21*
X27510000Y-63880000D03*
X26240000Y-66420000D03*
X32590000Y-63880000D03*
X35050000Y-72660000D03*
D22*
X24970000Y-68960000D03*
D23*
X24550000Y-68960000D03*
D25*
X24450000Y-63880000D03*
X38150000Y-72660000D03*
D27*
X27250000Y-74860000D03*
D25*
X36950000Y-66420000D03*
%TD*%
D21*
%TO.C,SW3*%
X59710000Y-37650000D03*
D22*
X69790000Y-33950000D03*
D21*
X64710000Y-39850000D03*
D23*
X70210000Y-33950000D03*
D21*
X68520000Y-31410000D03*
D24*
X64710000Y-33950000D03*
D21*
X62170000Y-28870000D03*
X60900000Y-31410000D03*
X67250000Y-28870000D03*
X69710000Y-37650000D03*
D22*
X59630000Y-33950000D03*
D23*
X59210000Y-33950000D03*
D25*
X59110000Y-28870000D03*
X72810000Y-37650000D03*
D27*
X61910000Y-39850000D03*
D25*
X71610000Y-31410000D03*
%TD*%
%TO.C,SW5*%
X104590000Y-31420000D03*
D27*
X94890000Y-39860000D03*
D26*
X105500000Y-37660000D03*
D25*
X92090000Y-28880000D03*
D23*
X92190000Y-33960000D03*
D22*
X92610000Y-33960000D03*
D21*
X102690000Y-37660000D03*
X100230000Y-28880000D03*
X93880000Y-31420000D03*
X95150000Y-28880000D03*
D24*
X97690000Y-33960000D03*
D21*
X101500000Y-31420000D03*
D23*
X103190000Y-33960000D03*
D21*
X97690000Y-39860000D03*
D22*
X102770000Y-33960000D03*
D21*
X92690000Y-37660000D03*
%TD*%
%TO.C,SW15*%
X92670000Y-72660000D03*
D22*
X102750000Y-68960000D03*
D21*
X97670000Y-74860000D03*
D23*
X103170000Y-68960000D03*
D21*
X101480000Y-66420000D03*
D24*
X97670000Y-68960000D03*
D21*
X95130000Y-63880000D03*
X93860000Y-66420000D03*
X100210000Y-63880000D03*
X102670000Y-72660000D03*
D22*
X92590000Y-68960000D03*
D23*
X92170000Y-68960000D03*
D25*
X92070000Y-63880000D03*
D26*
X105500000Y-72660000D03*
D27*
X94870000Y-74860000D03*
D25*
X104570000Y-66420000D03*
%TD*%
D21*
%TO.C,SW16*%
X70370000Y-92780000D03*
D22*
X80450000Y-89080000D03*
D21*
X75370000Y-94980000D03*
D23*
X80870000Y-89080000D03*
D21*
X79180000Y-86540000D03*
D24*
X75370000Y-89080000D03*
D21*
X72830000Y-84000000D03*
X71560000Y-86540000D03*
X77910000Y-84000000D03*
X80370000Y-92780000D03*
D22*
X70290000Y-89080000D03*
D23*
X69870000Y-89080000D03*
D25*
X69770000Y-84000000D03*
X83470000Y-92780000D03*
D27*
X72570000Y-94980000D03*
D25*
X82270000Y-86540000D03*
%TD*%
D31*
%TO.C,SW18*%
X117178622Y-93443710D03*
D32*
X105724933Y-99286363D03*
D33*
X116500000Y-99700000D03*
D31*
X105664407Y-87955135D03*
D23*
X104532474Y-92908430D03*
D22*
X104939998Y-93010037D03*
D21*
X113825468Y-99038704D03*
X113562614Y-89924379D03*
X106786755Y-90852726D03*
X108633512Y-88695416D03*
D24*
X109869100Y-94239000D03*
D21*
X114180408Y-92696171D03*
D23*
X115205726Y-95569570D03*
D21*
X108441761Y-99963745D03*
D22*
X114798202Y-95467963D03*
D21*
X104122510Y-96619485D03*
%TD*%
%TO.C,SW8*%
X59710000Y-55160000D03*
D22*
X69790000Y-51460000D03*
D21*
X64710000Y-57360000D03*
D23*
X70210000Y-51460000D03*
D21*
X68520000Y-48920000D03*
D24*
X64710000Y-51460000D03*
D21*
X62170000Y-46380000D03*
X60900000Y-48920000D03*
X67250000Y-46380000D03*
X69710000Y-55160000D03*
D22*
X59630000Y-51460000D03*
D23*
X59210000Y-51460000D03*
D25*
X59110000Y-46380000D03*
X72810000Y-55160000D03*
D27*
X61910000Y-57360000D03*
D25*
X71610000Y-48920000D03*
%TD*%
D21*
%TO.C,SW2*%
X43170000Y-37650000D03*
D22*
X53250000Y-33950000D03*
D21*
X48170000Y-39850000D03*
D23*
X53670000Y-33950000D03*
D21*
X51980000Y-31410000D03*
D24*
X48170000Y-33950000D03*
D21*
X45630000Y-28870000D03*
X44360000Y-31410000D03*
X50710000Y-28870000D03*
X53170000Y-37650000D03*
D22*
X43090000Y-33950000D03*
D23*
X42670000Y-33950000D03*
D25*
X42570000Y-28870000D03*
X56270000Y-37650000D03*
D27*
X45370000Y-39850000D03*
D25*
X55070000Y-31410000D03*
%TD*%
D21*
%TO.C,SW12*%
X43180000Y-72640000D03*
D22*
X53260000Y-68940000D03*
D21*
X48180000Y-74840000D03*
D23*
X53680000Y-68940000D03*
D21*
X51990000Y-66400000D03*
D24*
X48180000Y-68940000D03*
D21*
X45640000Y-63860000D03*
X44370000Y-66400000D03*
X50720000Y-63860000D03*
X53180000Y-72640000D03*
D22*
X43100000Y-68940000D03*
D23*
X42680000Y-68940000D03*
D25*
X42580000Y-63860000D03*
X56280000Y-72640000D03*
D27*
X45380000Y-74840000D03*
D25*
X55080000Y-66400000D03*
%TD*%
D21*
%TO.C,SW14*%
X76160000Y-72660000D03*
D22*
X86240000Y-68960000D03*
D21*
X81160000Y-74860000D03*
D23*
X86660000Y-68960000D03*
D21*
X84970000Y-66420000D03*
D24*
X81160000Y-68960000D03*
D21*
X78620000Y-63880000D03*
X77350000Y-66420000D03*
X83700000Y-63880000D03*
X86160000Y-72660000D03*
D22*
X76080000Y-68960000D03*
D23*
X75660000Y-68960000D03*
D25*
X75560000Y-63880000D03*
X89260000Y-72660000D03*
D27*
X78360000Y-74860000D03*
D25*
X88060000Y-66420000D03*
%TD*%
D21*
%TO.C,SW1*%
X25040000Y-37630000D03*
D22*
X35120000Y-33930000D03*
D21*
X30040000Y-39830000D03*
D23*
X35540000Y-33930000D03*
D21*
X33850000Y-31390000D03*
D24*
X30040000Y-33930000D03*
D21*
X27500000Y-28850000D03*
X26230000Y-31390000D03*
X32580000Y-28850000D03*
X35040000Y-37630000D03*
D22*
X24960000Y-33930000D03*
D23*
X24540000Y-33930000D03*
D25*
X24440000Y-28850000D03*
X38140000Y-37630000D03*
D27*
X27240000Y-39830000D03*
D25*
X36940000Y-31390000D03*
%TD*%
D21*
%TO.C,SW4*%
X76180000Y-37630000D03*
D22*
X86260000Y-33930000D03*
D21*
X81180000Y-39830000D03*
D23*
X86680000Y-33930000D03*
D21*
X84990000Y-31390000D03*
D24*
X81180000Y-33930000D03*
D21*
X78640000Y-28850000D03*
X77370000Y-31390000D03*
X83720000Y-28850000D03*
X86180000Y-37630000D03*
D22*
X76100000Y-33930000D03*
D23*
X75680000Y-33930000D03*
D25*
X75580000Y-28850000D03*
X89280000Y-37630000D03*
D27*
X78380000Y-39830000D03*
D25*
X88080000Y-31390000D03*
%TD*%
D28*
%TO.C,D7*%
X46315000Y-43410000D03*
X49865000Y-43410000D03*
%TD*%
%TO.C,D6*%
X28305000Y-43450000D03*
X31855000Y-43450000D03*
%TD*%
%TO.C,D9*%
X79415000Y-43450000D03*
X82965000Y-43450000D03*
%TD*%
%TO.C,D16*%
X60055000Y-89150000D03*
X63605000Y-89150000D03*
%TD*%
%TO.C,D11*%
X28315000Y-60950000D03*
X31865000Y-60950000D03*
%TD*%
%TO.C,D14*%
X79475000Y-60910000D03*
X83025000Y-60910000D03*
%TD*%
%TO.C,D17*%
X60035000Y-91450000D03*
X63585000Y-91450000D03*
%TD*%
D34*
%TO.C,HOLE3*%
X52020000Y-80950000D03*
%TD*%
D28*
%TO.C,D1*%
X34795000Y-25440000D03*
X38345000Y-25440000D03*
%TD*%
D34*
%TO.C,HOLE5*%
X112800000Y-84690000D03*
%TD*%
D28*
%TO.C,D18*%
X60075000Y-93940000D03*
X63625000Y-93940000D03*
%TD*%
D34*
%TO.C,HOLE4*%
X53040000Y-95600000D03*
%TD*%
D28*
%TO.C,D4*%
X79895000Y-25820000D03*
X83445000Y-25820000D03*
%TD*%
D15*
%TO.C,J1*%
X118460000Y-74625000D03*
X111460000Y-74625000D03*
X118460000Y-72875000D03*
X111460000Y-72875000D03*
D16*
X108160000Y-74975000D03*
X108160000Y-72525000D03*
X116660000Y-76725000D03*
X116660000Y-70775000D03*
X113660000Y-76725000D03*
X113660000Y-70775000D03*
X109660000Y-76725000D03*
X109660000Y-70775000D03*
%TD*%
D28*
%TO.C,D3*%
X62715000Y-25820000D03*
X66265000Y-25820000D03*
%TD*%
D34*
%TO.C,HOLE2*%
X97680000Y-23950000D03*
%TD*%
D17*
%TO.C,U1*%
X26686500Y-98011200D03*
X25387500Y-81378700D03*
X27927500Y-81378700D03*
X29226500Y-98011200D03*
X30467500Y-81378700D03*
X31766500Y-98011200D03*
X34306500Y-98011200D03*
X33007500Y-81378700D03*
X35547500Y-81378700D03*
X36846500Y-98011200D03*
X38087500Y-81378700D03*
X39386500Y-98011200D03*
X40627500Y-81378700D03*
X41926500Y-98011200D03*
X41926500Y-82776200D03*
X40627500Y-96613700D03*
X39386500Y-82776200D03*
X38087500Y-96613700D03*
X35547500Y-96613700D03*
X36846500Y-82776200D03*
X34306500Y-82776200D03*
X33007500Y-96613700D03*
X31766500Y-82776200D03*
X30467500Y-96613700D03*
X27927500Y-96613700D03*
X29226500Y-82776200D03*
X26686500Y-82776200D03*
X25387500Y-96613700D03*
%TD*%
D28*
%TO.C,D15*%
X95985000Y-61020000D03*
X99535000Y-61020000D03*
%TD*%
D34*
%TO.C,HOLE1*%
X30040000Y-23950000D03*
%TD*%
D28*
%TO.C,D5*%
X89885000Y-25800000D03*
X93435000Y-25800000D03*
%TD*%
%TO.C,D8*%
X62985000Y-43450000D03*
X66535000Y-43450000D03*
%TD*%
%TO.C,D2*%
X46245000Y-25530000D03*
X49795000Y-25530000D03*
%TD*%
%TO.C,D12*%
X46535000Y-60920000D03*
X50085000Y-60920000D03*
%TD*%
M02*
