M48
METRIC,TZ
T1C0.787
T2C2.200
%
G90
G05
T1
X23970Y-78516
X25240Y-78516
X26510Y-78516
X27780Y-78516
X29050Y-78516
X47240Y-93320
X47240Y-94590
X47240Y-95860
X47240Y-97130
X47240Y-98400
X107196Y-67760
X107196Y-69030
X107196Y-70300
X107196Y-71570
X107196Y-72840
X112690Y-78114
X113960Y-78114
X115230Y-78114
X116500Y-78114
X117770Y-78114
T2
X30040Y-23950
X52020Y-80950
X53040Y-95600
X97680Y-23950
X112800Y-84690
T0
M30
