M48
; DRILL file {KiCad (6.0.9)} date 2023年01月09日 12時53分46秒
; FORMAT={-:-/ absolute / metric / decimal}
; #@! TF.CreationDate,2023-01-09T12:53:46+09:00
; #@! TF.GenerationSoftware,Kicad,Pcbnew,(6.0.9)
; #@! TF.FileFunction,Plated,1,2,PTH
FMAT,2
METRIC
; #@! TA.AperFunction,Plated,PTH,ViaDrill
T1C0.400
; #@! TA.AperFunction,Plated,PTH,ComponentDrill
T2C0.600
; #@! TA.AperFunction,Plated,PTH,ComponentDrill
T3C1.000
%
G90
G05
T1
X19.45Y-38.475
X20.7Y-40.9
X21.075Y-57.975
X21.625Y-74.075
X22.425Y-90.0
X23.508Y-89.882
X23.935Y-88.8
X24.157Y-87.826
X28.725Y-86.175
X28.785Y-95.215
X32.146Y-92.397
X33.087Y-92.062
X34.325Y-91.975
X34.975Y-44.025
X35.5Y-98.25
X35.909Y-55.248
X36.1Y-43.925
X36.95Y-55.3
X37.5Y-28.875
X37.95Y-36.55
X38.25Y-31.125
X38.325Y-78.75
X38.825Y-37.075
X39.15Y-98.5
X39.45Y-82.425
X40.4Y-81.925
X40.44Y-98.39
X40.65Y-80.85
X41.812Y-98.387
X41.875Y-32.4
X42.75Y-83.025
X45.675Y-80.9
X45.775Y-100.45
X46.875Y-80.9
X47.752Y-81.378
X47.95Y-82.525
X48.4Y-33.2
X48.95Y-82.625
X49.55Y-87.3
X50.05Y-74.475
X50.125Y-91.95
X50.165Y-92.949
X50.725Y-65.0
X50.75Y-47.1
X51.375Y-95.05
X51.6Y-93.85
X51.792Y-37.3
X51.975Y-88.4
X52.625Y-82.025
X53.087Y-89.512
X53.25Y-34.8
X67.875Y-79.05
X68.412Y-46.788
X68.675Y-60.45
X75.2Y-97.1
X84.925Y-47.075
X85.45Y-79.8
X85.775Y-61.175
X85.775Y-61.175
X91.8Y-97.25
X102.325Y-79.875
X102.45Y-47.525
X102.525Y-61.35
X108.6Y-97.775
X110.0Y-24.15
T2
G00X35.455Y-21.145
M15
G01X35.455Y-21.945
M16
G05
G00X35.455Y-25.175
M15
G01X35.455Y-26.275
M16
G05
G00X44.095Y-21.145
M15
G01X44.095Y-21.945
M16
G05
G00X44.095Y-25.175
M15
G01X44.095Y-26.275
M16
G05
T3
G00X107.05Y-23.325
M15
G01X107.05Y-22.825
M16
G05
G00X107.05Y-26.325
M15
G01X107.05Y-25.825
M16
G05
G00X107.05Y-30.325
M15
G01X107.05Y-29.825
M16
G05
G00X111.25Y-31.825
M15
G01X111.25Y-31.325
M16
G05
T0
M30
