M48
; DRILL file {KiCad (6.0.9)} date 2023年01月09日 12時53分46秒
; FORMAT={-:-/ absolute / metric / decimal}
; #@! TF.CreationDate,2023-01-09T12:53:46+09:00
; #@! TF.GenerationSoftware,Kicad,Pcbnew,(6.0.9)
; #@! TF.FileFunction,NonPlated,1,2,NPTH
FMAT,2
METRIC
; #@! TA.AperFunction,NonPlated,NPTH,ComponentDrill
T1C0.650
; #@! TA.AperFunction,NonPlated,NPTH,ComponentDrill
T2C1.200
; #@! TA.AperFunction,NonPlated,NPTH,ComponentDrill
T3C1.900
; #@! TA.AperFunction,NonPlated,NPTH,ComponentDrill
T4C3.000
; #@! TA.AperFunction,NonPlated,NPTH,ComponentDrill
T5C4.100
%
G90
G05
T1
X36.885Y-25.225
X42.665Y-25.225
T2
X109.15Y-21.275
X109.15Y-28.275
T3
X22.005Y-81.08
X22.02Y-47.075
X22.02Y-64.1
X32.165Y-81.08
X32.18Y-47.075
X32.18Y-64.1
X38.97Y-76.825
X38.995Y-42.85
X38.995Y-59.85
X49.13Y-76.825
X49.155Y-42.85
X49.155Y-59.85
X55.995Y-40.3
X55.995Y-57.3
X55.995Y-74.275
X62.795Y-92.15
X66.155Y-40.3
X66.155Y-57.3
X66.155Y-74.275
X72.955Y-92.15
X72.995Y-40.3
X72.995Y-57.3
X73.005Y-74.315
X79.795Y-92.15
X83.155Y-40.3
X83.155Y-57.3
X83.165Y-74.315
X89.955Y-92.15
X89.97Y-57.3
X89.995Y-40.3
X89.995Y-74.3
X96.795Y-92.15
X100.13Y-57.3
X100.155Y-40.3
X100.155Y-74.3
X106.955Y-92.15
T4
X23.275Y-78.54
X23.29Y-44.535
X23.29Y-61.56
X29.625Y-76.0
X29.64Y-41.995
X29.64Y-59.02
X40.24Y-74.285
X40.265Y-40.31
X40.265Y-57.31
X46.59Y-71.745
X46.615Y-37.77
X46.615Y-54.77
X57.265Y-37.76
X57.265Y-54.76
X57.265Y-71.735
X63.615Y-35.22
X63.615Y-52.22
X63.615Y-69.195
X64.065Y-89.61
X70.415Y-87.07
X74.265Y-37.76
X74.265Y-54.76
X74.275Y-71.775
X80.615Y-35.22
X80.615Y-52.22
X80.625Y-69.235
X81.065Y-89.61
X87.415Y-87.07
X91.24Y-54.76
X91.265Y-37.76
X91.265Y-71.76
X97.59Y-52.22
X97.615Y-35.22
X97.615Y-69.22
X98.065Y-89.61
X104.415Y-87.07
T5
X27.085Y-81.08
X27.1Y-47.075
X27.1Y-64.1
X44.05Y-76.825
X44.075Y-42.85
X44.075Y-59.85
X61.075Y-40.3
X61.075Y-57.3
X61.075Y-74.275
X67.875Y-92.15
X78.075Y-40.3
X78.075Y-57.3
X78.085Y-74.315
X84.875Y-92.15
X95.05Y-57.3
X95.075Y-40.3
X95.075Y-74.3
X101.875Y-92.15
T0
M30
