%TF.GenerationSoftware,KiCad,Pcbnew,(6.0.9)*%
%TF.CreationDate,2023-01-09T12:53:46+09:00*%
%TF.ProjectId,split-mini__left,73706c69-742d-46d6-996e-695f5f6c6566,rev?*%
%TF.SameCoordinates,Original*%
%TF.FileFunction,Legend,Top*%
%TF.FilePolarity,Positive*%
%FSLAX46Y46*%
G04 Gerber Fmt 4.6, Leading zero omitted, Abs format (unit mm)*
G04 Created by KiCad (PCBNEW (6.0.9)) date 2023-01-09 12:53:46*
%MOMM*%
%LPD*%
G01*
G04 APERTURE LIST*
%TA.AperFunction,Profile*%
%ADD10C,0.100000*%
%TD*%
%ADD11C,0.350000*%
%ADD12O,0.600000X1.400000*%
%ADD13O,0.600000X1.700000*%
%ADD14O,1.000000X1.500000*%
%ADD15C,1.900000*%
%ADD16C,4.100000*%
%ADD17C,3.000000*%
%ADD18C,0.650000*%
%ADD19O,1.000000X1.800000*%
%ADD20O,1.000000X2.100000*%
%ADD21C,1.200000*%
%ADD22O,1.700000X2.500000*%
G04 APERTURE END LIST*
D10*
X45300000Y-24800000D02*
X51300000Y-24800000D01*
X112386197Y-19800000D02*
X112386197Y-101650000D01*
X34300000Y-20168424D02*
X45300000Y-20168424D01*
X17586197Y-30800000D02*
X34300000Y-30800000D01*
X105886197Y-19800000D02*
X112386197Y-19800000D01*
X105886197Y-30800000D02*
X105886197Y-19800000D01*
X34300000Y-30800000D02*
X34300000Y-20168424D01*
X17586197Y-101650000D02*
X17586197Y-30800000D01*
X51300000Y-24800000D02*
X51300000Y-30800000D01*
X51300000Y-30800000D02*
X105886197Y-30800000D01*
X45300000Y-20168424D02*
X45300000Y-24800000D01*
X112386197Y-101650000D02*
X17586197Y-101650000D01*
D11*
X52625000Y-82025000D03*
X42750000Y-83025000D03*
X51975000Y-88400000D03*
X53087299Y-89512299D03*
X40650000Y-80850000D03*
X110000000Y-24150000D03*
X38325000Y-78750000D03*
X28725000Y-86175000D03*
X28785000Y-95215000D03*
X53250000Y-34800000D03*
X45775000Y-100450000D03*
X51791502Y-37300000D03*
X19450000Y-38475000D03*
X22425000Y-90000000D03*
X37500000Y-28875000D03*
X41875000Y-32400000D03*
X38250000Y-31125000D03*
X38825000Y-37075000D03*
X36099799Y-43924799D03*
X34975000Y-44025000D03*
X37950000Y-36550000D03*
X50125000Y-91950000D03*
X39450000Y-82425000D03*
X35908820Y-55248063D03*
X40400000Y-81925000D03*
X36950000Y-55300000D03*
X49550000Y-87300000D03*
X48400000Y-33200000D03*
X20700000Y-40900000D03*
X23507920Y-89881544D03*
X32145549Y-92397131D03*
X50750000Y-47100000D03*
X33087299Y-92062299D03*
X68412500Y-46787500D03*
X34325000Y-91975000D03*
X84925000Y-47075000D03*
X35500000Y-98250000D03*
X102450000Y-47525000D03*
X21075000Y-57975000D03*
X23934953Y-88800500D03*
X50725000Y-65000000D03*
X46874549Y-80899500D03*
X47751913Y-81378288D03*
X68675000Y-60450000D03*
X47950000Y-82525000D03*
X85775000Y-61175000D03*
X85775000Y-61175000D03*
X102525000Y-61350000D03*
X48950000Y-82625000D03*
X24156888Y-87825949D03*
X21625000Y-74075000D03*
X50050000Y-74475000D03*
X45675000Y-80899500D03*
X67875000Y-79050000D03*
X50165409Y-92948686D03*
X85450000Y-79800000D03*
X51600000Y-93850000D03*
X51375000Y-95050000D03*
X102325000Y-79875000D03*
X41812500Y-98387500D03*
X75200000Y-97100000D03*
X91800000Y-97250000D03*
X40440000Y-98390000D03*
X108600000Y-97775000D03*
X39150000Y-98500000D03*
X100155000Y-74300000D03*
X95075000Y-74300000D03*
X91265000Y-71760000D03*
X89995000Y-74300000D03*
X97615000Y-69220000D03*
X38995000Y-59850000D03*
X49155000Y-59850000D03*
X46615000Y-54770000D03*
X44075000Y-59850000D03*
X40265000Y-57310000D03*
X55995000Y-40300000D03*
X57265000Y-37760000D03*
X61075000Y-40300000D03*
X63615000Y-35220000D03*
X66155000Y-40300000D03*
X29640000Y-59020000D03*
X22020000Y-64100000D03*
X27100000Y-64100000D03*
X32180000Y-64100000D03*
X23290000Y-61560000D03*
X87415000Y-87070000D03*
X79795000Y-92150000D03*
X84875000Y-92150000D03*
X81065000Y-89610000D03*
X89955000Y-92150000D03*
X80625000Y-69235000D03*
X74275000Y-71775000D03*
X78085000Y-74315000D03*
X83165000Y-74315000D03*
X73005000Y-74315000D03*
X74265000Y-54760000D03*
X78075000Y-57300000D03*
X80615000Y-52220000D03*
X83155000Y-57300000D03*
X72995000Y-57300000D03*
X57265000Y-54760000D03*
X55995000Y-57300000D03*
X61075000Y-57300000D03*
X63615000Y-52220000D03*
X66155000Y-57300000D03*
X100130000Y-57300000D03*
X95050000Y-57300000D03*
X89970000Y-57300000D03*
X91240000Y-54760000D03*
X97590000Y-52220000D03*
X27085000Y-81080000D03*
X23275000Y-78540000D03*
X32165000Y-81080000D03*
X29625000Y-76000000D03*
X22005000Y-81080000D03*
X22020000Y-47075000D03*
X32180000Y-47075000D03*
X23290000Y-44535000D03*
X29640000Y-41995000D03*
X27100000Y-47075000D03*
X40240000Y-74285000D03*
X49130000Y-76825000D03*
X46590000Y-71745000D03*
X38970000Y-76825000D03*
X44050000Y-76825000D03*
X100155000Y-40300000D03*
X89995000Y-40300000D03*
X97615000Y-35220000D03*
X91265000Y-37760000D03*
X95075000Y-40300000D03*
X38995000Y-42850000D03*
X44075000Y-42850000D03*
X46615000Y-37770000D03*
X40265000Y-40310000D03*
X49155000Y-42850000D03*
X66155000Y-74275000D03*
X55995000Y-74275000D03*
X57265000Y-71735000D03*
X63615000Y-69195000D03*
X61075000Y-74275000D03*
X62795000Y-92150000D03*
X70415000Y-87070000D03*
X72955000Y-92150000D03*
X64065000Y-89610000D03*
X67875000Y-92150000D03*
X78075000Y-40300000D03*
X83155000Y-40300000D03*
X72995000Y-40300000D03*
X74265000Y-37760000D03*
X80615000Y-35220000D03*
X96795000Y-92150000D03*
X104415000Y-87070000D03*
X98065000Y-89610000D03*
X106955000Y-92150000D03*
X101875000Y-92150000D03*
X36885000Y-25225000D03*
X42665000Y-25225000D03*
D12*
X44095000Y-21545000D03*
D13*
X35455000Y-25725000D03*
X44095000Y-25725000D03*
D12*
X35455000Y-21545000D03*
D11*
X109150000Y-28275000D03*
X109150000Y-21275000D03*
D14*
X111250000Y-31575000D03*
X107050000Y-23075000D03*
X107050000Y-26075000D03*
X107050000Y-30075000D03*
%LPC*%
D15*
%TO.C,SW15*%
X100155000Y-74300000D03*
D16*
X95075000Y-74300000D03*
D17*
X91265000Y-71760000D03*
D15*
X89995000Y-74300000D03*
D17*
X97615000Y-69220000D03*
%TD*%
D15*
%TO.C,SW7*%
X38995000Y-59850000D03*
X49155000Y-59850000D03*
D17*
X46615000Y-54770000D03*
D16*
X44075000Y-59850000D03*
D17*
X40265000Y-57310000D03*
%TD*%
D15*
%TO.C,SW3*%
X55995000Y-40300000D03*
D17*
X57265000Y-37760000D03*
D16*
X61075000Y-40300000D03*
D17*
X63615000Y-35220000D03*
D15*
X66155000Y-40300000D03*
%TD*%
D17*
%TO.C,SW6*%
X29640000Y-59020000D03*
D15*
X22020000Y-64100000D03*
D16*
X27100000Y-64100000D03*
D15*
X32180000Y-64100000D03*
D17*
X23290000Y-61560000D03*
%TD*%
%TO.C,SW17*%
X87415000Y-87070000D03*
D15*
X79795000Y-92150000D03*
D16*
X84875000Y-92150000D03*
D17*
X81065000Y-89610000D03*
D15*
X89955000Y-92150000D03*
%TD*%
D17*
%TO.C,SW14*%
X80625000Y-69235000D03*
X74275000Y-71775000D03*
D16*
X78085000Y-74315000D03*
D15*
X83165000Y-74315000D03*
X73005000Y-74315000D03*
%TD*%
D17*
%TO.C,SW9*%
X74265000Y-54760000D03*
D16*
X78075000Y-57300000D03*
D17*
X80615000Y-52220000D03*
D15*
X83155000Y-57300000D03*
X72995000Y-57300000D03*
%TD*%
D17*
%TO.C,SW8*%
X57265000Y-54760000D03*
D15*
X55995000Y-57300000D03*
D16*
X61075000Y-57300000D03*
D17*
X63615000Y-52220000D03*
D15*
X66155000Y-57300000D03*
%TD*%
%TO.C,SW10*%
X100130000Y-57300000D03*
D16*
X95050000Y-57300000D03*
D15*
X89970000Y-57300000D03*
D17*
X91240000Y-54760000D03*
X97590000Y-52220000D03*
%TD*%
D16*
%TO.C,SW11*%
X27085000Y-81080000D03*
D17*
X23275000Y-78540000D03*
D15*
X32165000Y-81080000D03*
D17*
X29625000Y-76000000D03*
D15*
X22005000Y-81080000D03*
%TD*%
%TO.C,SW1*%
X22020000Y-47075000D03*
X32180000Y-47075000D03*
D17*
X23290000Y-44535000D03*
X29640000Y-41995000D03*
D16*
X27100000Y-47075000D03*
%TD*%
D17*
%TO.C,SW12*%
X40240000Y-74285000D03*
D15*
X49130000Y-76825000D03*
D17*
X46590000Y-71745000D03*
D15*
X38970000Y-76825000D03*
D16*
X44050000Y-76825000D03*
%TD*%
D15*
%TO.C,SW5*%
X100155000Y-40300000D03*
X89995000Y-40300000D03*
D17*
X97615000Y-35220000D03*
X91265000Y-37760000D03*
D16*
X95075000Y-40300000D03*
%TD*%
D15*
%TO.C,SW2*%
X38995000Y-42850000D03*
D16*
X44075000Y-42850000D03*
D17*
X46615000Y-37770000D03*
X40265000Y-40310000D03*
D15*
X49155000Y-42850000D03*
%TD*%
%TO.C,SW13*%
X66155000Y-74275000D03*
X55995000Y-74275000D03*
D17*
X57265000Y-71735000D03*
X63615000Y-69195000D03*
D16*
X61075000Y-74275000D03*
%TD*%
D15*
%TO.C,SW16*%
X62795000Y-92150000D03*
D17*
X70415000Y-87070000D03*
D15*
X72955000Y-92150000D03*
D17*
X64065000Y-89610000D03*
D16*
X67875000Y-92150000D03*
%TD*%
%TO.C,SW4*%
X78075000Y-40300000D03*
D15*
X83155000Y-40300000D03*
X72995000Y-40300000D03*
D17*
X74265000Y-37760000D03*
X80615000Y-35220000D03*
%TD*%
D15*
%TO.C,SW18*%
X96795000Y-92150000D03*
D17*
X104415000Y-87070000D03*
X98065000Y-89610000D03*
D15*
X106955000Y-92150000D03*
D16*
X101875000Y-92150000D03*
%TD*%
D18*
%TO.C,J1*%
X36885000Y-25225000D03*
X42665000Y-25225000D03*
D19*
X44095000Y-21545000D03*
D20*
X35455000Y-25725000D03*
X44095000Y-25725000D03*
D19*
X35455000Y-21545000D03*
%TD*%
D21*
%TO.C,J2*%
X109150000Y-28275000D03*
X109150000Y-21275000D03*
D22*
X111250000Y-31575000D03*
X107050000Y-23075000D03*
X107050000Y-26075000D03*
X107050000Y-30075000D03*
%TD*%
M02*
