M48
; DRILL file {KiCad (6.0.6)} date 2022年09月17日 23時41分45秒
; FORMAT={-:-/ absolute / metric / decimal}
; #@! TF.CreationDate,2022-09-17T23:41:45+09:00
; #@! TF.GenerationSoftware,Kicad,Pcbnew,(6.0.6)
; #@! TF.FileFunction,Plated,1,2,PTH
FMAT,2
METRIC
; #@! TA.AperFunction,Plated,PTH,ViaDrill
T1C0.300
; #@! TA.AperFunction,Plated,PTH,ViaDrill
T2C0.400
; #@! TA.AperFunction,Plated,PTH,ComponentDrill
T3C0.800
; #@! TA.AperFunction,Plated,PTH,ComponentDrill
T4C1.000
%
G90
G05
T1
X24.0Y-39.0
X24.0Y-73.0
X30.0Y-80.0
X36.74Y-72.82
X37.0Y-60.0
X40.24Y-79.25
X46.84Y-82.5
X53.0Y-58.0
X57.02Y-79.24
X57.15Y-38.1
X61.0Y-58.0
X63.17Y-82.67
X76.0Y-72.0
X77.82Y-35.71
X83.97Y-97.26
X84.0Y-40.0
X91.72Y-80.94
X103.24Y-100.3
X103.511Y-41.001
T2
X22.289Y-50.76
X28.335Y-71.632
X28.753Y-39.008
X30.564Y-37.34
X30.574Y-55.726
X31.025Y-75.015
X31.855Y-73.827
X34.277Y-84.211
X36.36Y-78.46
X37.98Y-94.04
X38.129Y-29.721
X38.888Y-54.87
X39.072Y-74.267
X39.695Y-27.028
X41.18Y-55.45
X44.975Y-36.93
X48.718Y-73.14
X51.237Y-55.23
X53.122Y-54.997
X55.073Y-53.588
X55.635Y-47.148
X57.74Y-73.147
X58.886Y-90.329
X62.362Y-92.328
X62.955Y-38.838
X64.235Y-56.06
X65.512Y-93.818
X66.535Y-71.702
X67.22Y-36.188
X67.799Y-37.656
X68.195Y-54.86
X68.47Y-75.11
X72.167Y-29.597
X72.167Y-37.831
X72.195Y-91.616
X72.23Y-80.75
X72.231Y-64.335
X72.41Y-50.58
X74.17Y-39.288
X74.18Y-37.821
X75.91Y-62.03
X81.691Y-37.73
X81.7Y-55.731
X82.07Y-26.954
X82.454Y-43.413
X82.945Y-73.859
X85.895Y-75.08
X85.895Y-84.303
X88.909Y-64.75
X88.995Y-29.721
X95.799Y-54.19
X97.852Y-81.348
X98.861Y-97.993
X99.455Y-73.837
X99.618Y-38.853
X99.759Y-54.19
X99.848Y-35.996
X101.78Y-75.03
X103.137Y-98.638
X104.403Y-90.423
X118.345Y-90.646
T3
X25.387Y-81.379
X25.387Y-96.614
X26.686Y-82.776
X26.686Y-98.011
X27.927Y-81.379
X27.927Y-96.614
X29.226Y-82.776
X29.226Y-98.011
X30.467Y-81.379
X30.467Y-96.614
X31.766Y-82.776
X31.766Y-98.011
X33.008Y-81.379
X33.008Y-96.614
X34.306Y-82.776
X34.306Y-98.011
X35.547Y-81.379
X35.547Y-96.614
X36.846Y-82.776
X36.846Y-98.011
X38.087Y-81.379
X38.087Y-96.614
X39.386Y-82.776
X39.386Y-98.011
X40.627Y-81.379
X40.627Y-96.614
X41.926Y-82.776
X41.926Y-98.011
T4
G00X108.41Y-72.525
M15
G01X107.91Y-72.525
M16
G05
G00X108.41Y-74.975
M15
G01X107.91Y-74.975
M16
G05
G00X109.91Y-70.775
M15
G01X109.41Y-70.775
M16
G05
G00X109.91Y-76.725
M15
G01X109.41Y-76.725
M16
G05
G00X113.91Y-70.775
M15
G01X113.41Y-70.775
M16
G05
G00X113.91Y-76.725
M15
G01X113.41Y-76.725
M16
G05
G00X116.91Y-70.775
M15
G01X116.41Y-70.775
M16
G05
G00X116.91Y-76.725
M15
G01X116.41Y-76.725
M16
G05
T0
M30
