%TF.GenerationSoftware,KiCad,Pcbnew,(6.0.6)*%
%TF.CreationDate,2022-12-14T08:04:59+09:00*%
%TF.ProjectId,split-mini__left,73706c69-742d-46d6-996e-695f5f6c6566,rev?*%
%TF.SameCoordinates,Original*%
%TF.FileFunction,Legend,Bot*%
%TF.FilePolarity,Positive*%
%FSLAX46Y46*%
G04 Gerber Fmt 4.6, Leading zero omitted, Abs format (unit mm)*
G04 Created by KiCad (PCBNEW (6.0.6)) date 2022-12-14 08:04:59*
%MOMM*%
%LPD*%
G01*
G04 APERTURE LIST*
G04 Aperture macros list*
%AMRoundRect*
0 Rectangle with rounded corners*
0 $1 Rounding radius*
0 $2 $3 $4 $5 $6 $7 $8 $9 X,Y pos of 4 corners*
0 Add a 4 corners polygon primitive as box body*
4,1,4,$2,$3,$4,$5,$6,$7,$8,$9,$2,$3,0*
0 Add four circle primitives for the rounded corners*
1,1,$1+$1,$2,$3*
1,1,$1+$1,$4,$5*
1,1,$1+$1,$6,$7*
1,1,$1+$1,$8,$9*
0 Add four rect primitives between the rounded corners*
20,1,$1+$1,$2,$3,$4,$5,0*
20,1,$1+$1,$4,$5,$6,$7,0*
20,1,$1+$1,$6,$7,$8,$9,0*
20,1,$1+$1,$8,$9,$2,$3,0*%
G04 Aperture macros list end*
%ADD10C,0.100000*%
%TA.AperFunction,Profile*%
%ADD11C,0.100000*%
%TD*%
%ADD12C,0.200000*%
%ADD13C,0.150000*%
%ADD14C,0.120000*%
%ADD15C,0.350000*%
%ADD16O,0.600000X1.400000*%
%ADD17O,0.600000X1.700000*%
%ADD18O,1.000000X1.500000*%
%ADD19C,1.900000*%
%ADD20C,4.100000*%
%ADD21C,3.000000*%
%ADD22R,2.550000X2.500000*%
%ADD23C,0.650000*%
%ADD24R,0.580000X1.400000*%
%ADD25R,0.280000X1.400000*%
%ADD26O,1.000000X1.800000*%
%ADD27O,1.000000X2.100000*%
%ADD28RoundRect,0.137500X-0.137500X0.600000X-0.137500X-0.600000X0.137500X-0.600000X0.137500X0.600000X0*%
%ADD29RoundRect,0.137500X-0.600000X0.137500X-0.600000X-0.137500X0.600000X-0.137500X0.600000X0.137500X0*%
%ADD30RoundRect,0.250000X-0.625000X0.375000X-0.625000X-0.375000X0.625000X-0.375000X0.625000X0.375000X0*%
%ADD31RoundRect,0.250000X0.262500X0.450000X-0.262500X0.450000X-0.262500X-0.450000X0.262500X-0.450000X0*%
%ADD32RoundRect,0.250000X-0.262500X-0.450000X0.262500X-0.450000X0.262500X0.450000X-0.262500X0.450000X0*%
%ADD33RoundRect,0.250000X-0.250000X-0.475000X0.250000X-0.475000X0.250000X0.475000X-0.250000X0.475000X0*%
%ADD34C,1.200000*%
%ADD35RoundRect,0.250000X0.250000X0.475000X-0.250000X0.475000X-0.250000X-0.475000X0.250000X-0.475000X0*%
%ADD36R,0.650000X1.050000*%
%ADD37R,1.800000X2.100000*%
%ADD38RoundRect,0.250000X-0.475000X0.250000X-0.475000X-0.250000X0.475000X-0.250000X0.475000X0.250000X0*%
%ADD39RoundRect,0.250000X0.450000X-0.262500X0.450000X0.262500X-0.450000X0.262500X-0.450000X-0.262500X0*%
%ADD40RoundRect,0.250000X-0.450000X0.262500X-0.450000X-0.262500X0.450000X-0.262500X0.450000X0.262500X0*%
G04 APERTURE END LIST*
D10*
X37746982Y-82775000D02*
G75*
G03*
X37746982Y-82775000I-246982J0D01*
G01*
D11*
X108880000Y-20730000D02*
X108880000Y-28230000D01*
X115380000Y-37730000D02*
X115380000Y-20730000D01*
X20380000Y-97555000D02*
X111155000Y-97555000D01*
X24380000Y-28230000D02*
X20380000Y-28230000D01*
X35380000Y-28230000D02*
X35380000Y-20930000D01*
X115380000Y-37730000D02*
X111155000Y-37730000D01*
X111155000Y-97555000D02*
X111155000Y-37730000D01*
X35380000Y-20930000D02*
X24380000Y-20930000D01*
X115380000Y-20730000D02*
X108880000Y-20730000D01*
X20380000Y-28230000D02*
X20380000Y-97555000D01*
X108880000Y-28230000D02*
X35380000Y-28230000D01*
X24380000Y-20930000D02*
X24380000Y-28230000D01*
D12*
X95489047Y-94099761D02*
X95393809Y-94147380D01*
X95203333Y-94147380D01*
X95108095Y-94099761D01*
X95060476Y-94004523D01*
X95060476Y-93956904D01*
X95108095Y-93861666D01*
X95203333Y-93814047D01*
X95346190Y-93814047D01*
X95441428Y-93766428D01*
X95489047Y-93671190D01*
X95489047Y-93623571D01*
X95441428Y-93528333D01*
X95346190Y-93480714D01*
X95203333Y-93480714D01*
X95108095Y-93528333D01*
X94631904Y-93480714D02*
X94631904Y-94480714D01*
X94631904Y-93528333D02*
X94536666Y-93480714D01*
X94346190Y-93480714D01*
X94250952Y-93528333D01*
X94203333Y-93575952D01*
X94155714Y-93671190D01*
X94155714Y-93956904D01*
X94203333Y-94052142D01*
X94250952Y-94099761D01*
X94346190Y-94147380D01*
X94536666Y-94147380D01*
X94631904Y-94099761D01*
X93584285Y-94147380D02*
X93679523Y-94099761D01*
X93727142Y-94004523D01*
X93727142Y-93147380D01*
X93203333Y-94147380D02*
X93203333Y-93480714D01*
X93203333Y-93147380D02*
X93250952Y-93195000D01*
X93203333Y-93242619D01*
X93155714Y-93195000D01*
X93203333Y-93147380D01*
X93203333Y-93242619D01*
X92870000Y-93480714D02*
X92489047Y-93480714D01*
X92727142Y-93147380D02*
X92727142Y-94004523D01*
X92679523Y-94099761D01*
X92584285Y-94147380D01*
X92489047Y-94147380D01*
X91393809Y-94147380D02*
X91393809Y-93480714D01*
X91393809Y-93575952D02*
X91346190Y-93528333D01*
X91250952Y-93480714D01*
X91108095Y-93480714D01*
X91012857Y-93528333D01*
X90965238Y-93623571D01*
X90965238Y-94147380D01*
X90965238Y-93623571D02*
X90917619Y-93528333D01*
X90822380Y-93480714D01*
X90679523Y-93480714D01*
X90584285Y-93528333D01*
X90536666Y-93623571D01*
X90536666Y-94147380D01*
X90060476Y-94147380D02*
X90060476Y-93480714D01*
X90060476Y-93147380D02*
X90108095Y-93195000D01*
X90060476Y-93242619D01*
X90012857Y-93195000D01*
X90060476Y-93147380D01*
X90060476Y-93242619D01*
X89584285Y-93480714D02*
X89584285Y-94147380D01*
X89584285Y-93575952D02*
X89536666Y-93528333D01*
X89441428Y-93480714D01*
X89298571Y-93480714D01*
X89203333Y-93528333D01*
X89155714Y-93623571D01*
X89155714Y-94147380D01*
X88679523Y-94147380D02*
X88679523Y-93480714D01*
X88679523Y-93147380D02*
X88727142Y-93195000D01*
X88679523Y-93242619D01*
X88631904Y-93195000D01*
X88679523Y-93147380D01*
X88679523Y-93242619D01*
X87441428Y-94147380D02*
X87441428Y-93480714D01*
X87441428Y-93671190D02*
X87393809Y-93575952D01*
X87346190Y-93528333D01*
X87250952Y-93480714D01*
X87155714Y-93480714D01*
X86441428Y-94099761D02*
X86536666Y-94147380D01*
X86727142Y-94147380D01*
X86822380Y-94099761D01*
X86870000Y-94004523D01*
X86870000Y-93623571D01*
X86822380Y-93528333D01*
X86727142Y-93480714D01*
X86536666Y-93480714D01*
X86441428Y-93528333D01*
X86393809Y-93623571D01*
X86393809Y-93718809D01*
X86870000Y-93814047D01*
X86060476Y-93480714D02*
X85822380Y-94147380D01*
X85584285Y-93480714D01*
X85012857Y-93147380D02*
X84917619Y-93147380D01*
X84822380Y-93195000D01*
X84774761Y-93242619D01*
X84727142Y-93337857D01*
X84679523Y-93528333D01*
X84679523Y-93766428D01*
X84727142Y-93956904D01*
X84774761Y-94052142D01*
X84822380Y-94099761D01*
X84917619Y-94147380D01*
X85012857Y-94147380D01*
X85108095Y-94099761D01*
X85155714Y-94052142D01*
X85203333Y-93956904D01*
X85250952Y-93766428D01*
X85250952Y-93528333D01*
X85203333Y-93337857D01*
X85155714Y-93242619D01*
X85108095Y-93195000D01*
X85012857Y-93147380D01*
X84250952Y-94052142D02*
X84203333Y-94099761D01*
X84250952Y-94147380D01*
X84298571Y-94099761D01*
X84250952Y-94052142D01*
X84250952Y-94147380D01*
X83727142Y-94147380D02*
X83536666Y-94147380D01*
X83441428Y-94099761D01*
X83393809Y-94052142D01*
X83298571Y-93909285D01*
X83250952Y-93718809D01*
X83250952Y-93337857D01*
X83298571Y-93242619D01*
X83346190Y-93195000D01*
X83441428Y-93147380D01*
X83631904Y-93147380D01*
X83727142Y-93195000D01*
X83774761Y-93242619D01*
X83822380Y-93337857D01*
X83822380Y-93575952D01*
X83774761Y-93671190D01*
X83727142Y-93718809D01*
X83631904Y-93766428D01*
X83441428Y-93766428D01*
X83346190Y-93718809D01*
X83298571Y-93671190D01*
X83250952Y-93575952D01*
X97798571Y-95757380D02*
X97798571Y-94757380D01*
X97798571Y-95709761D02*
X97893809Y-95757380D01*
X98084285Y-95757380D01*
X98179523Y-95709761D01*
X98227142Y-95662142D01*
X98274761Y-95566904D01*
X98274761Y-95281190D01*
X98227142Y-95185952D01*
X98179523Y-95138333D01*
X98084285Y-95090714D01*
X97893809Y-95090714D01*
X97798571Y-95138333D01*
X96941428Y-95709761D02*
X97036666Y-95757380D01*
X97227142Y-95757380D01*
X97322380Y-95709761D01*
X97370000Y-95614523D01*
X97370000Y-95233571D01*
X97322380Y-95138333D01*
X97227142Y-95090714D01*
X97036666Y-95090714D01*
X96941428Y-95138333D01*
X96893809Y-95233571D01*
X96893809Y-95328809D01*
X97370000Y-95424047D01*
X96512857Y-95709761D02*
X96417619Y-95757380D01*
X96227142Y-95757380D01*
X96131904Y-95709761D01*
X96084285Y-95614523D01*
X96084285Y-95566904D01*
X96131904Y-95471666D01*
X96227142Y-95424047D01*
X96370000Y-95424047D01*
X96465238Y-95376428D01*
X96512857Y-95281190D01*
X96512857Y-95233571D01*
X96465238Y-95138333D01*
X96370000Y-95090714D01*
X96227142Y-95090714D01*
X96131904Y-95138333D01*
X95655714Y-95757380D02*
X95655714Y-95090714D01*
X95655714Y-94757380D02*
X95703333Y-94805000D01*
X95655714Y-94852619D01*
X95608095Y-94805000D01*
X95655714Y-94757380D01*
X95655714Y-94852619D01*
X94750952Y-95090714D02*
X94750952Y-95900238D01*
X94798571Y-95995476D01*
X94846190Y-96043095D01*
X94941428Y-96090714D01*
X95084285Y-96090714D01*
X95179523Y-96043095D01*
X94750952Y-95709761D02*
X94846190Y-95757380D01*
X95036666Y-95757380D01*
X95131904Y-95709761D01*
X95179523Y-95662142D01*
X95227142Y-95566904D01*
X95227142Y-95281190D01*
X95179523Y-95185952D01*
X95131904Y-95138333D01*
X95036666Y-95090714D01*
X94846190Y-95090714D01*
X94750952Y-95138333D01*
X94274761Y-95090714D02*
X94274761Y-95757380D01*
X94274761Y-95185952D02*
X94227142Y-95138333D01*
X94131904Y-95090714D01*
X93989047Y-95090714D01*
X93893809Y-95138333D01*
X93846190Y-95233571D01*
X93846190Y-95757380D01*
X92989047Y-95709761D02*
X93084285Y-95757380D01*
X93274761Y-95757380D01*
X93370000Y-95709761D01*
X93417619Y-95614523D01*
X93417619Y-95233571D01*
X93370000Y-95138333D01*
X93274761Y-95090714D01*
X93084285Y-95090714D01*
X92989047Y-95138333D01*
X92941428Y-95233571D01*
X92941428Y-95328809D01*
X93417619Y-95424047D01*
X92084285Y-95757380D02*
X92084285Y-94757380D01*
X92084285Y-95709761D02*
X92179523Y-95757380D01*
X92370000Y-95757380D01*
X92465238Y-95709761D01*
X92512857Y-95662142D01*
X92560476Y-95566904D01*
X92560476Y-95281190D01*
X92512857Y-95185952D01*
X92465238Y-95138333D01*
X92370000Y-95090714D01*
X92179523Y-95090714D01*
X92084285Y-95138333D01*
X90846190Y-95757380D02*
X90846190Y-94757380D01*
X90846190Y-95138333D02*
X90750952Y-95090714D01*
X90560476Y-95090714D01*
X90465238Y-95138333D01*
X90417619Y-95185952D01*
X90370000Y-95281190D01*
X90370000Y-95566904D01*
X90417619Y-95662142D01*
X90465238Y-95709761D01*
X90560476Y-95757380D01*
X90750952Y-95757380D01*
X90846190Y-95709761D01*
X90036666Y-95090714D02*
X89798571Y-95757380D01*
X89560476Y-95090714D02*
X89798571Y-95757380D01*
X89893809Y-95995476D01*
X89941428Y-96043095D01*
X90036666Y-96090714D01*
X88560476Y-95090714D02*
X88179523Y-95090714D01*
X88417619Y-94757380D02*
X88417619Y-95614523D01*
X88370000Y-95709761D01*
X88274761Y-95757380D01*
X88179523Y-95757380D01*
X87417619Y-95757380D02*
X87417619Y-95233571D01*
X87465238Y-95138333D01*
X87560476Y-95090714D01*
X87750952Y-95090714D01*
X87846190Y-95138333D01*
X87417619Y-95709761D02*
X87512857Y-95757380D01*
X87750952Y-95757380D01*
X87846190Y-95709761D01*
X87893809Y-95614523D01*
X87893809Y-95519285D01*
X87846190Y-95424047D01*
X87750952Y-95376428D01*
X87512857Y-95376428D01*
X87417619Y-95328809D01*
X86941428Y-95757380D02*
X86941428Y-95090714D01*
X86941428Y-95185952D02*
X86893809Y-95138333D01*
X86798571Y-95090714D01*
X86655714Y-95090714D01*
X86560476Y-95138333D01*
X86512857Y-95233571D01*
X86512857Y-95757380D01*
X86512857Y-95233571D02*
X86465238Y-95138333D01*
X86370000Y-95090714D01*
X86227142Y-95090714D01*
X86131904Y-95138333D01*
X86084285Y-95233571D01*
X86084285Y-95757380D01*
X85179523Y-95757380D02*
X85179523Y-95233571D01*
X85227142Y-95138333D01*
X85322380Y-95090714D01*
X85512857Y-95090714D01*
X85608095Y-95138333D01*
X85179523Y-95709761D02*
X85274761Y-95757380D01*
X85512857Y-95757380D01*
X85608095Y-95709761D01*
X85655714Y-95614523D01*
X85655714Y-95519285D01*
X85608095Y-95424047D01*
X85512857Y-95376428D01*
X85274761Y-95376428D01*
X85179523Y-95328809D01*
X84274761Y-95090714D02*
X84274761Y-95900238D01*
X84322380Y-95995476D01*
X84370000Y-96043095D01*
X84465238Y-96090714D01*
X84608095Y-96090714D01*
X84703333Y-96043095D01*
X84274761Y-95709761D02*
X84370000Y-95757380D01*
X84560476Y-95757380D01*
X84655714Y-95709761D01*
X84703333Y-95662142D01*
X84750952Y-95566904D01*
X84750952Y-95281190D01*
X84703333Y-95185952D01*
X84655714Y-95138333D01*
X84560476Y-95090714D01*
X84370000Y-95090714D01*
X84274761Y-95138333D01*
X83655714Y-95757380D02*
X83750952Y-95709761D01*
X83798571Y-95662142D01*
X83846190Y-95566904D01*
X83846190Y-95281190D01*
X83798571Y-95185952D01*
X83750952Y-95138333D01*
X83655714Y-95090714D01*
X83512857Y-95090714D01*
X83417619Y-95138333D01*
X83370000Y-95185952D01*
X83322380Y-95281190D01*
X83322380Y-95566904D01*
X83370000Y-95662142D01*
X83417619Y-95709761D01*
X83512857Y-95757380D01*
X83655714Y-95757380D01*
X82989047Y-94757380D02*
X82370000Y-94757380D01*
X82703333Y-95138333D01*
X82560476Y-95138333D01*
X82465238Y-95185952D01*
X82417619Y-95233571D01*
X82370000Y-95328809D01*
X82370000Y-95566904D01*
X82417619Y-95662142D01*
X82465238Y-95709761D01*
X82560476Y-95757380D01*
X82846190Y-95757380D01*
X82941428Y-95709761D01*
X82989047Y-95662142D01*
X81989047Y-94852619D02*
X81941428Y-94805000D01*
X81846190Y-94757380D01*
X81608095Y-94757380D01*
X81512857Y-94805000D01*
X81465238Y-94852619D01*
X81417619Y-94947857D01*
X81417619Y-95043095D01*
X81465238Y-95185952D01*
X82036666Y-95757380D01*
X81417619Y-95757380D01*
X80560476Y-95090714D02*
X80560476Y-95757380D01*
X80798571Y-94709761D02*
X81036666Y-95424047D01*
X80417619Y-95424047D01*
D13*
%TO.C,J1*%
X30223333Y-28497380D02*
X30223333Y-29211666D01*
X30270952Y-29354523D01*
X30366190Y-29449761D01*
X30509047Y-29497380D01*
X30604285Y-29497380D01*
X29223333Y-29497380D02*
X29794761Y-29497380D01*
X29509047Y-29497380D02*
X29509047Y-28497380D01*
X29604285Y-28640238D01*
X29699523Y-28735476D01*
X29794761Y-28783095D01*
%TO.C,U1*%
X42121904Y-86372380D02*
X42121904Y-87181904D01*
X42074285Y-87277142D01*
X42026666Y-87324761D01*
X41931428Y-87372380D01*
X41740952Y-87372380D01*
X41645714Y-87324761D01*
X41598095Y-87277142D01*
X41550476Y-87181904D01*
X41550476Y-86372380D01*
X40550476Y-87372380D02*
X41121904Y-87372380D01*
X40836190Y-87372380D02*
X40836190Y-86372380D01*
X40931428Y-86515238D01*
X41026666Y-86610476D01*
X41121904Y-86658095D01*
%TO.C,F1*%
X25988333Y-32678571D02*
X26321666Y-32678571D01*
X26321666Y-33202380D02*
X26321666Y-32202380D01*
X25845476Y-32202380D01*
X24940714Y-33202380D02*
X25512142Y-33202380D01*
X25226428Y-33202380D02*
X25226428Y-32202380D01*
X25321666Y-32345238D01*
X25416904Y-32440476D01*
X25512142Y-32488095D01*
%TO.C,R5*%
X31536666Y-93012380D02*
X31870000Y-92536190D01*
X32108095Y-93012380D02*
X32108095Y-92012380D01*
X31727142Y-92012380D01*
X31631904Y-92060000D01*
X31584285Y-92107619D01*
X31536666Y-92202857D01*
X31536666Y-92345714D01*
X31584285Y-92440952D01*
X31631904Y-92488571D01*
X31727142Y-92536190D01*
X32108095Y-92536190D01*
X30631904Y-92012380D02*
X31108095Y-92012380D01*
X31155714Y-92488571D01*
X31108095Y-92440952D01*
X31012857Y-92393333D01*
X30774761Y-92393333D01*
X30679523Y-92440952D01*
X30631904Y-92488571D01*
X30584285Y-92583809D01*
X30584285Y-92821904D01*
X30631904Y-92917142D01*
X30679523Y-92964761D01*
X30774761Y-93012380D01*
X31012857Y-93012380D01*
X31108095Y-92964761D01*
X31155714Y-92917142D01*
%TO.C,R1*%
X40801666Y-34012380D02*
X41135000Y-33536190D01*
X41373095Y-34012380D02*
X41373095Y-33012380D01*
X40992142Y-33012380D01*
X40896904Y-33060000D01*
X40849285Y-33107619D01*
X40801666Y-33202857D01*
X40801666Y-33345714D01*
X40849285Y-33440952D01*
X40896904Y-33488571D01*
X40992142Y-33536190D01*
X41373095Y-33536190D01*
X39849285Y-34012380D02*
X40420714Y-34012380D01*
X40135000Y-34012380D02*
X40135000Y-33012380D01*
X40230238Y-33155238D01*
X40325476Y-33250476D01*
X40420714Y-33298095D01*
%TO.C,C5*%
X26896666Y-85087142D02*
X26944285Y-85134761D01*
X27087142Y-85182380D01*
X27182380Y-85182380D01*
X27325238Y-85134761D01*
X27420476Y-85039523D01*
X27468095Y-84944285D01*
X27515714Y-84753809D01*
X27515714Y-84610952D01*
X27468095Y-84420476D01*
X27420476Y-84325238D01*
X27325238Y-84230000D01*
X27182380Y-84182380D01*
X27087142Y-84182380D01*
X26944285Y-84230000D01*
X26896666Y-84277619D01*
X25991904Y-84182380D02*
X26468095Y-84182380D01*
X26515714Y-84658571D01*
X26468095Y-84610952D01*
X26372857Y-84563333D01*
X26134761Y-84563333D01*
X26039523Y-84610952D01*
X25991904Y-84658571D01*
X25944285Y-84753809D01*
X25944285Y-84991904D01*
X25991904Y-85087142D01*
X26039523Y-85134761D01*
X26134761Y-85182380D01*
X26372857Y-85182380D01*
X26468095Y-85134761D01*
X26515714Y-85087142D01*
%TO.C,J2*%
X114711904Y-26602380D02*
X114140476Y-26602380D01*
X114426190Y-27602380D02*
X114426190Y-26602380D01*
X113235714Y-27602380D02*
X113569047Y-27126190D01*
X113807142Y-27602380D02*
X113807142Y-26602380D01*
X113426190Y-26602380D01*
X113330952Y-26650000D01*
X113283333Y-26697619D01*
X113235714Y-26792857D01*
X113235714Y-26935714D01*
X113283333Y-27030952D01*
X113330952Y-27078571D01*
X113426190Y-27126190D01*
X113807142Y-27126190D01*
X112235714Y-27602380D02*
X112569047Y-27126190D01*
X112807142Y-27602380D02*
X112807142Y-26602380D01*
X112426190Y-26602380D01*
X112330952Y-26650000D01*
X112283333Y-26697619D01*
X112235714Y-26792857D01*
X112235714Y-26935714D01*
X112283333Y-27030952D01*
X112330952Y-27078571D01*
X112426190Y-27126190D01*
X112807142Y-27126190D01*
X111854761Y-27554761D02*
X111711904Y-27602380D01*
X111473809Y-27602380D01*
X111378571Y-27554761D01*
X111330952Y-27507142D01*
X111283333Y-27411904D01*
X111283333Y-27316666D01*
X111330952Y-27221428D01*
X111378571Y-27173809D01*
X111473809Y-27126190D01*
X111664285Y-27078571D01*
X111759523Y-27030952D01*
X111807142Y-26983333D01*
X111854761Y-26888095D01*
X111854761Y-26792857D01*
X111807142Y-26697619D01*
X111759523Y-26650000D01*
X111664285Y-26602380D01*
X111426190Y-26602380D01*
X111283333Y-26650000D01*
%TO.C,C7*%
X52396666Y-85107142D02*
X52444285Y-85154761D01*
X52587142Y-85202380D01*
X52682380Y-85202380D01*
X52825238Y-85154761D01*
X52920476Y-85059523D01*
X52968095Y-84964285D01*
X53015714Y-84773809D01*
X53015714Y-84630952D01*
X52968095Y-84440476D01*
X52920476Y-84345238D01*
X52825238Y-84250000D01*
X52682380Y-84202380D01*
X52587142Y-84202380D01*
X52444285Y-84250000D01*
X52396666Y-84297619D01*
X52063333Y-84202380D02*
X51396666Y-84202380D01*
X51825238Y-85202380D01*
%TO.C,R2*%
X40956666Y-31202380D02*
X41290000Y-30726190D01*
X41528095Y-31202380D02*
X41528095Y-30202380D01*
X41147142Y-30202380D01*
X41051904Y-30250000D01*
X41004285Y-30297619D01*
X40956666Y-30392857D01*
X40956666Y-30535714D01*
X41004285Y-30630952D01*
X41051904Y-30678571D01*
X41147142Y-30726190D01*
X41528095Y-30726190D01*
X40575714Y-30297619D02*
X40528095Y-30250000D01*
X40432857Y-30202380D01*
X40194761Y-30202380D01*
X40099523Y-30250000D01*
X40051904Y-30297619D01*
X40004285Y-30392857D01*
X40004285Y-30488095D01*
X40051904Y-30630952D01*
X40623333Y-31202380D01*
X40004285Y-31202380D01*
%TO.C,RESET1*%
X108928571Y-37452380D02*
X109261904Y-36976190D01*
X109500000Y-37452380D02*
X109500000Y-36452380D01*
X109119047Y-36452380D01*
X109023809Y-36500000D01*
X108976190Y-36547619D01*
X108928571Y-36642857D01*
X108928571Y-36785714D01*
X108976190Y-36880952D01*
X109023809Y-36928571D01*
X109119047Y-36976190D01*
X109500000Y-36976190D01*
X108500000Y-36928571D02*
X108166666Y-36928571D01*
X108023809Y-37452380D02*
X108500000Y-37452380D01*
X108500000Y-36452380D01*
X108023809Y-36452380D01*
X107642857Y-37404761D02*
X107500000Y-37452380D01*
X107261904Y-37452380D01*
X107166666Y-37404761D01*
X107119047Y-37357142D01*
X107071428Y-37261904D01*
X107071428Y-37166666D01*
X107119047Y-37071428D01*
X107166666Y-37023809D01*
X107261904Y-36976190D01*
X107452380Y-36928571D01*
X107547619Y-36880952D01*
X107595238Y-36833333D01*
X107642857Y-36738095D01*
X107642857Y-36642857D01*
X107595238Y-36547619D01*
X107547619Y-36500000D01*
X107452380Y-36452380D01*
X107214285Y-36452380D01*
X107071428Y-36500000D01*
X106642857Y-36928571D02*
X106309523Y-36928571D01*
X106166666Y-37452380D02*
X106642857Y-37452380D01*
X106642857Y-36452380D01*
X106166666Y-36452380D01*
X105880952Y-36452380D02*
X105309523Y-36452380D01*
X105595238Y-37452380D02*
X105595238Y-36452380D01*
X104452380Y-37452380D02*
X105023809Y-37452380D01*
X104738095Y-37452380D02*
X104738095Y-36452380D01*
X104833333Y-36595238D01*
X104928571Y-36690476D01*
X105023809Y-36738095D01*
%TO.C,Y1*%
X52376190Y-89106190D02*
X52376190Y-89582380D01*
X52709523Y-88582380D02*
X52376190Y-89106190D01*
X52042857Y-88582380D01*
X51185714Y-89582380D02*
X51757142Y-89582380D01*
X51471428Y-89582380D02*
X51471428Y-88582380D01*
X51566666Y-88725238D01*
X51661904Y-88820476D01*
X51757142Y-88868095D01*
%TO.C,C4*%
X48246666Y-94047142D02*
X48294285Y-94094761D01*
X48437142Y-94142380D01*
X48532380Y-94142380D01*
X48675238Y-94094761D01*
X48770476Y-93999523D01*
X48818095Y-93904285D01*
X48865714Y-93713809D01*
X48865714Y-93570952D01*
X48818095Y-93380476D01*
X48770476Y-93285238D01*
X48675238Y-93190000D01*
X48532380Y-93142380D01*
X48437142Y-93142380D01*
X48294285Y-93190000D01*
X48246666Y-93237619D01*
X47389523Y-93475714D02*
X47389523Y-94142380D01*
X47627619Y-93094761D02*
X47865714Y-93809047D01*
X47246666Y-93809047D01*
%TO.C,C2*%
X31066666Y-80657142D02*
X31114285Y-80704761D01*
X31257142Y-80752380D01*
X31352380Y-80752380D01*
X31495238Y-80704761D01*
X31590476Y-80609523D01*
X31638095Y-80514285D01*
X31685714Y-80323809D01*
X31685714Y-80180952D01*
X31638095Y-79990476D01*
X31590476Y-79895238D01*
X31495238Y-79800000D01*
X31352380Y-79752380D01*
X31257142Y-79752380D01*
X31114285Y-79800000D01*
X31066666Y-79847619D01*
X30685714Y-79847619D02*
X30638095Y-79800000D01*
X30542857Y-79752380D01*
X30304761Y-79752380D01*
X30209523Y-79800000D01*
X30161904Y-79847619D01*
X30114285Y-79942857D01*
X30114285Y-80038095D01*
X30161904Y-80180952D01*
X30733333Y-80752380D01*
X30114285Y-80752380D01*
%TO.C,R6*%
X107506666Y-46864880D02*
X107840000Y-46388690D01*
X108078095Y-46864880D02*
X108078095Y-45864880D01*
X107697142Y-45864880D01*
X107601904Y-45912500D01*
X107554285Y-45960119D01*
X107506666Y-46055357D01*
X107506666Y-46198214D01*
X107554285Y-46293452D01*
X107601904Y-46341071D01*
X107697142Y-46388690D01*
X108078095Y-46388690D01*
X106649523Y-45864880D02*
X106840000Y-45864880D01*
X106935238Y-45912500D01*
X106982857Y-45960119D01*
X107078095Y-46102976D01*
X107125714Y-46293452D01*
X107125714Y-46674404D01*
X107078095Y-46769642D01*
X107030476Y-46817261D01*
X106935238Y-46864880D01*
X106744761Y-46864880D01*
X106649523Y-46817261D01*
X106601904Y-46769642D01*
X106554285Y-46674404D01*
X106554285Y-46436309D01*
X106601904Y-46341071D01*
X106649523Y-46293452D01*
X106744761Y-46245833D01*
X106935238Y-46245833D01*
X107030476Y-46293452D01*
X107078095Y-46341071D01*
X107125714Y-46436309D01*
%TO.C,C6*%
X52446666Y-94587142D02*
X52494285Y-94634761D01*
X52637142Y-94682380D01*
X52732380Y-94682380D01*
X52875238Y-94634761D01*
X52970476Y-94539523D01*
X53018095Y-94444285D01*
X53065714Y-94253809D01*
X53065714Y-94110952D01*
X53018095Y-93920476D01*
X52970476Y-93825238D01*
X52875238Y-93730000D01*
X52732380Y-93682380D01*
X52637142Y-93682380D01*
X52494285Y-93730000D01*
X52446666Y-93777619D01*
X51589523Y-93682380D02*
X51780000Y-93682380D01*
X51875238Y-93730000D01*
X51922857Y-93777619D01*
X52018095Y-93920476D01*
X52065714Y-94110952D01*
X52065714Y-94491904D01*
X52018095Y-94587142D01*
X51970476Y-94634761D01*
X51875238Y-94682380D01*
X51684761Y-94682380D01*
X51589523Y-94634761D01*
X51541904Y-94587142D01*
X51494285Y-94491904D01*
X51494285Y-94253809D01*
X51541904Y-94158571D01*
X51589523Y-94110952D01*
X51684761Y-94063333D01*
X51875238Y-94063333D01*
X51970476Y-94110952D01*
X52018095Y-94158571D01*
X52065714Y-94253809D01*
%TO.C,R4*%
X39786666Y-44172380D02*
X40120000Y-43696190D01*
X40358095Y-44172380D02*
X40358095Y-43172380D01*
X39977142Y-43172380D01*
X39881904Y-43220000D01*
X39834285Y-43267619D01*
X39786666Y-43362857D01*
X39786666Y-43505714D01*
X39834285Y-43600952D01*
X39881904Y-43648571D01*
X39977142Y-43696190D01*
X40358095Y-43696190D01*
X38929523Y-43505714D02*
X38929523Y-44172380D01*
X39167619Y-43124761D02*
X39405714Y-43839047D01*
X38786666Y-43839047D01*
%TO.C,R3*%
X37156666Y-44092380D02*
X37490000Y-43616190D01*
X37728095Y-44092380D02*
X37728095Y-43092380D01*
X37347142Y-43092380D01*
X37251904Y-43140000D01*
X37204285Y-43187619D01*
X37156666Y-43282857D01*
X37156666Y-43425714D01*
X37204285Y-43520952D01*
X37251904Y-43568571D01*
X37347142Y-43616190D01*
X37728095Y-43616190D01*
X36823333Y-43092380D02*
X36204285Y-43092380D01*
X36537619Y-43473333D01*
X36394761Y-43473333D01*
X36299523Y-43520952D01*
X36251904Y-43568571D01*
X36204285Y-43663809D01*
X36204285Y-43901904D01*
X36251904Y-43997142D01*
X36299523Y-44044761D01*
X36394761Y-44092380D01*
X36680476Y-44092380D01*
X36775714Y-44044761D01*
X36823333Y-43997142D01*
%TO.C,C3*%
X39866666Y-77187142D02*
X39914285Y-77234761D01*
X40057142Y-77282380D01*
X40152380Y-77282380D01*
X40295238Y-77234761D01*
X40390476Y-77139523D01*
X40438095Y-77044285D01*
X40485714Y-76853809D01*
X40485714Y-76710952D01*
X40438095Y-76520476D01*
X40390476Y-76425238D01*
X40295238Y-76330000D01*
X40152380Y-76282380D01*
X40057142Y-76282380D01*
X39914285Y-76330000D01*
X39866666Y-76377619D01*
X39533333Y-76282380D02*
X38914285Y-76282380D01*
X39247619Y-76663333D01*
X39104761Y-76663333D01*
X39009523Y-76710952D01*
X38961904Y-76758571D01*
X38914285Y-76853809D01*
X38914285Y-77091904D01*
X38961904Y-77187142D01*
X39009523Y-77234761D01*
X39104761Y-77282380D01*
X39390476Y-77282380D01*
X39485714Y-77234761D01*
X39533333Y-77187142D01*
%TO.C,C1*%
X54526666Y-75247142D02*
X54574285Y-75294761D01*
X54717142Y-75342380D01*
X54812380Y-75342380D01*
X54955238Y-75294761D01*
X55050476Y-75199523D01*
X55098095Y-75104285D01*
X55145714Y-74913809D01*
X55145714Y-74770952D01*
X55098095Y-74580476D01*
X55050476Y-74485238D01*
X54955238Y-74390000D01*
X54812380Y-74342380D01*
X54717142Y-74342380D01*
X54574285Y-74390000D01*
X54526666Y-74437619D01*
X53574285Y-75342380D02*
X54145714Y-75342380D01*
X53860000Y-75342380D02*
X53860000Y-74342380D01*
X53955238Y-74485238D01*
X54050476Y-74580476D01*
X54145714Y-74628095D01*
D14*
%TO.C,J1*%
X34590000Y-25300000D02*
X34590000Y-23300000D01*
X25190000Y-25300000D02*
X25190000Y-23300000D01*
%TO.C,U1*%
X36905000Y-81730000D02*
X36905000Y-80440000D01*
X36330000Y-82305000D02*
X36330000Y-81730000D01*
X46550000Y-81730000D02*
X45975000Y-81730000D01*
X46550000Y-91950000D02*
X45975000Y-91950000D01*
X46550000Y-91375000D02*
X46550000Y-91950000D01*
X36330000Y-91950000D02*
X36905000Y-91950000D01*
X36330000Y-81730000D02*
X36905000Y-81730000D01*
X36330000Y-91375000D02*
X36330000Y-91950000D01*
X46550000Y-82305000D02*
X46550000Y-81730000D01*
%TO.C,F1*%
X24500000Y-32167936D02*
X24500000Y-33372064D01*
X22680000Y-32167936D02*
X22680000Y-33372064D01*
%TO.C,R5*%
X31597064Y-94945000D02*
X31142936Y-94945000D01*
X31597064Y-93475000D02*
X31142936Y-93475000D01*
%TO.C,R1*%
X37472936Y-32735000D02*
X37927064Y-32735000D01*
X37472936Y-34205000D02*
X37927064Y-34205000D01*
%TO.C,C5*%
X26368748Y-87145000D02*
X26891252Y-87145000D01*
X26368748Y-85675000D02*
X26891252Y-85675000D01*
D13*
%TO.C,J2*%
X109300000Y-32600000D02*
X115100000Y-32600000D01*
X109300000Y-20850000D02*
X109300000Y-32600000D01*
X115100000Y-32600000D02*
X115100000Y-20850000D01*
X115100000Y-20850000D02*
X109300000Y-20850000D01*
D14*
%TO.C,C7*%
X55401252Y-85255000D02*
X54878748Y-85255000D01*
X55401252Y-83785000D02*
X54878748Y-83785000D01*
%TO.C,R2*%
X37452936Y-30045000D02*
X37907064Y-30045000D01*
X37452936Y-31515000D02*
X37907064Y-31515000D01*
D13*
%TO.C,RESET1*%
X105350000Y-38570000D02*
X105350000Y-43170000D01*
X108550000Y-43170000D02*
X108550000Y-38570000D01*
X106400000Y-43170000D02*
X107500000Y-43170000D01*
X107500000Y-38570000D02*
X106400000Y-38570000D01*
D14*
%TO.C,Y1*%
X57410000Y-91890000D02*
X53010000Y-91890000D01*
X53010000Y-91890000D02*
X53010000Y-86490000D01*
%TO.C,C4*%
X47838748Y-94655000D02*
X48361252Y-94655000D01*
X47838748Y-96125000D02*
X48361252Y-96125000D01*
%TO.C,C2*%
X32305000Y-79878748D02*
X32305000Y-80401252D01*
X33775000Y-79878748D02*
X33775000Y-80401252D01*
%TO.C,R6*%
X106745000Y-49239564D02*
X106745000Y-48785436D01*
X108215000Y-49239564D02*
X108215000Y-48785436D01*
%TO.C,C6*%
X55411252Y-93465000D02*
X54888748Y-93465000D01*
X55411252Y-94935000D02*
X54888748Y-94935000D01*
%TO.C,R4*%
X40385000Y-45982936D02*
X40385000Y-46437064D01*
X38915000Y-45982936D02*
X38915000Y-46437064D01*
%TO.C,R3*%
X37655000Y-45972936D02*
X37655000Y-46427064D01*
X36185000Y-45972936D02*
X36185000Y-46427064D01*
%TO.C,C3*%
X42751252Y-76035000D02*
X42228748Y-76035000D01*
X42751252Y-77505000D02*
X42228748Y-77505000D01*
%TO.C,C1*%
X54038748Y-77395000D02*
X54561252Y-77395000D01*
X54038748Y-75925000D02*
X54561252Y-75925000D01*
%TD*%
D15*
X41489500Y-78094500D03*
X47200000Y-76750000D03*
X40150000Y-74575000D03*
X52330000Y-84820000D03*
X88725000Y-45250000D03*
X39875000Y-78075000D03*
X50600000Y-84900000D03*
X105875000Y-41025000D03*
X22590000Y-36880000D03*
X25650000Y-84625000D03*
X29330353Y-88869647D03*
X53800000Y-79300000D03*
X46025000Y-96000000D03*
X105975000Y-51825000D03*
X28961382Y-80364083D03*
X32830000Y-28940000D03*
X27460000Y-28870000D03*
X35740000Y-32590000D03*
X28024028Y-29695152D03*
X34270000Y-34080000D03*
X38684500Y-41140000D03*
X32900000Y-34180000D03*
X37594177Y-40037183D03*
X34180000Y-29560000D03*
X35074779Y-30353484D03*
X104974799Y-50749799D03*
X49175000Y-87675000D03*
X106800000Y-34300000D03*
X38000000Y-79000000D03*
X38425994Y-51165238D03*
X39050500Y-78901576D03*
X39450000Y-51200000D03*
X105775000Y-48925000D03*
X48850000Y-82325000D03*
X28387352Y-83266524D03*
X23562933Y-37108925D03*
X32076475Y-88625807D03*
X53500000Y-42700000D03*
X70025000Y-43050000D03*
X32947493Y-88135569D03*
X33775000Y-87575000D03*
X86675000Y-43700000D03*
X37950000Y-93775000D03*
X103250000Y-44400000D03*
X23634500Y-53400000D03*
X28439623Y-82268389D03*
X53725000Y-59550000D03*
X44650000Y-78550000D03*
X45225000Y-79500000D03*
X69850000Y-57850000D03*
X86025000Y-58350000D03*
X46850000Y-79500000D03*
X47125000Y-81050000D03*
X103050000Y-58575000D03*
X23970438Y-70870938D03*
X28550000Y-81275000D03*
X49000000Y-75935500D03*
X43410000Y-78750000D03*
X50075000Y-88200000D03*
X69850000Y-75350000D03*
X86425000Y-75700000D03*
X50950000Y-88800000D03*
X102900000Y-76050000D03*
X51150000Y-89950000D03*
X40775000Y-94000000D03*
X75825000Y-93000000D03*
X92425000Y-93350000D03*
X39764500Y-94375000D03*
X108350000Y-93475000D03*
X39025162Y-95047596D03*
X100960000Y-70730000D03*
X95880000Y-70730000D03*
X92070000Y-68190000D03*
X90800000Y-70730000D03*
X98420000Y-65650000D03*
X41300000Y-56720000D03*
X51460000Y-56720000D03*
X48920000Y-51640000D03*
X46380000Y-56720000D03*
X42570000Y-54180000D03*
X57830000Y-37720000D03*
X59100000Y-35180000D03*
X62910000Y-37720000D03*
X65450000Y-32640000D03*
X67990000Y-37720000D03*
X32410000Y-54090000D03*
X24790000Y-59170000D03*
X29870000Y-59170000D03*
X34950000Y-59170000D03*
X26060000Y-56630000D03*
X87690000Y-82990000D03*
X80070000Y-88070000D03*
X85150000Y-88070000D03*
X81340000Y-85530000D03*
X90230000Y-88070000D03*
X81930000Y-65640000D03*
X75580000Y-68180000D03*
X79390000Y-70720000D03*
X84470000Y-70720000D03*
X74310000Y-70720000D03*
X75580000Y-51690000D03*
X79390000Y-54230000D03*
X81930000Y-49150000D03*
X84470000Y-54230000D03*
X74310000Y-54230000D03*
X59080000Y-51690000D03*
X57810000Y-54230000D03*
X62890000Y-54230000D03*
X65430000Y-49150000D03*
X67970000Y-54230000D03*
X100970000Y-54230000D03*
X95890000Y-54230000D03*
X90810000Y-54230000D03*
X92080000Y-51690000D03*
X98430000Y-49150000D03*
X29900000Y-75720000D03*
X26090000Y-73180000D03*
X34980000Y-75720000D03*
X32440000Y-70640000D03*
X24820000Y-75720000D03*
X24810000Y-42640000D03*
X34970000Y-42640000D03*
X26080000Y-40100000D03*
X32430000Y-37560000D03*
X29890000Y-42640000D03*
X42570000Y-70680000D03*
X51460000Y-73220000D03*
X48920000Y-68140000D03*
X41300000Y-73220000D03*
X46380000Y-73220000D03*
X100990000Y-37700000D03*
X90830000Y-37700000D03*
X98450000Y-32620000D03*
X92100000Y-35160000D03*
X95910000Y-37700000D03*
X41310000Y-40190000D03*
X46390000Y-40190000D03*
X48930000Y-35110000D03*
X42580000Y-37650000D03*
X51470000Y-40190000D03*
X67990000Y-70750000D03*
X57830000Y-70750000D03*
X59100000Y-68210000D03*
X65450000Y-65670000D03*
X62910000Y-70750000D03*
X63580000Y-88050000D03*
X71200000Y-82970000D03*
X73740000Y-88050000D03*
X64850000Y-85510000D03*
X68660000Y-88050000D03*
X79420000Y-37720000D03*
X84500000Y-37720000D03*
X74340000Y-37720000D03*
X75610000Y-35180000D03*
X81960000Y-32640000D03*
X96590000Y-88060000D03*
X104210000Y-82980000D03*
X97860000Y-85520000D03*
X106750000Y-88060000D03*
X101670000Y-88060000D03*
X27000000Y-26000000D03*
X32780000Y-26000000D03*
D16*
X34210000Y-22320000D03*
D17*
X25570000Y-26500000D03*
X34210000Y-26500000D03*
D16*
X25570000Y-22320000D03*
D15*
X112200000Y-29200000D03*
X112200000Y-22200000D03*
D18*
X114300000Y-32500000D03*
X110100000Y-24000000D03*
X110100000Y-27000000D03*
X110100000Y-31000000D03*
%LPC*%
D19*
%TO.C,SW15*%
X100960000Y-70730000D03*
D20*
X95880000Y-70730000D03*
D21*
X92070000Y-68190000D03*
D19*
X90800000Y-70730000D03*
D21*
X98420000Y-65650000D03*
D22*
X88795000Y-68190000D03*
X101722000Y-65650000D03*
%TD*%
D19*
%TO.C,SW7*%
X41300000Y-56720000D03*
X51460000Y-56720000D03*
D21*
X48920000Y-51640000D03*
D20*
X46380000Y-56720000D03*
D21*
X42570000Y-54180000D03*
D22*
X39295000Y-54180000D03*
X52222000Y-51640000D03*
%TD*%
D19*
%TO.C,SW3*%
X57830000Y-37720000D03*
D21*
X59100000Y-35180000D03*
D20*
X62910000Y-37720000D03*
D21*
X65450000Y-32640000D03*
D19*
X67990000Y-37720000D03*
D22*
X55825000Y-35180000D03*
X68752000Y-32640000D03*
%TD*%
D21*
%TO.C,SW6*%
X32410000Y-54090000D03*
D19*
X24790000Y-59170000D03*
D20*
X29870000Y-59170000D03*
D19*
X34950000Y-59170000D03*
D21*
X26060000Y-56630000D03*
D22*
X22785000Y-56630000D03*
X35712000Y-54090000D03*
%TD*%
D21*
%TO.C,SW17*%
X87690000Y-82990000D03*
D19*
X80070000Y-88070000D03*
D20*
X85150000Y-88070000D03*
D21*
X81340000Y-85530000D03*
D19*
X90230000Y-88070000D03*
D22*
X78065000Y-85530000D03*
X90992000Y-82990000D03*
%TD*%
D21*
%TO.C,SW14*%
X81930000Y-65640000D03*
X75580000Y-68180000D03*
D20*
X79390000Y-70720000D03*
D19*
X84470000Y-70720000D03*
X74310000Y-70720000D03*
D22*
X72305000Y-68180000D03*
X85232000Y-65640000D03*
%TD*%
D21*
%TO.C,SW9*%
X75580000Y-51690000D03*
D20*
X79390000Y-54230000D03*
D21*
X81930000Y-49150000D03*
D19*
X84470000Y-54230000D03*
X74310000Y-54230000D03*
D22*
X72305000Y-51690000D03*
X85232000Y-49150000D03*
%TD*%
D21*
%TO.C,SW8*%
X59080000Y-51690000D03*
D19*
X57810000Y-54230000D03*
D20*
X62890000Y-54230000D03*
D21*
X65430000Y-49150000D03*
D19*
X67970000Y-54230000D03*
D22*
X55805000Y-51690000D03*
X68732000Y-49150000D03*
%TD*%
D19*
%TO.C,SW10*%
X100970000Y-54230000D03*
D20*
X95890000Y-54230000D03*
D19*
X90810000Y-54230000D03*
D21*
X92080000Y-51690000D03*
X98430000Y-49150000D03*
D22*
X88805000Y-51690000D03*
X101732000Y-49150000D03*
%TD*%
D20*
%TO.C,SW11*%
X29900000Y-75720000D03*
D21*
X26090000Y-73180000D03*
D19*
X34980000Y-75720000D03*
D21*
X32440000Y-70640000D03*
D19*
X24820000Y-75720000D03*
D22*
X22815000Y-73180000D03*
X35742000Y-70640000D03*
%TD*%
D19*
%TO.C,SW1*%
X24810000Y-42640000D03*
X34970000Y-42640000D03*
D21*
X26080000Y-40100000D03*
X32430000Y-37560000D03*
D20*
X29890000Y-42640000D03*
D22*
X22805000Y-40100000D03*
X35732000Y-37560000D03*
%TD*%
D21*
%TO.C,SW12*%
X42570000Y-70680000D03*
D19*
X51460000Y-73220000D03*
D21*
X48920000Y-68140000D03*
D19*
X41300000Y-73220000D03*
D20*
X46380000Y-73220000D03*
D22*
X39295000Y-70680000D03*
X52222000Y-68140000D03*
%TD*%
D19*
%TO.C,SW5*%
X100990000Y-37700000D03*
X90830000Y-37700000D03*
D21*
X98450000Y-32620000D03*
X92100000Y-35160000D03*
D20*
X95910000Y-37700000D03*
D22*
X88825000Y-35160000D03*
X101752000Y-32620000D03*
%TD*%
D19*
%TO.C,SW2*%
X41310000Y-40190000D03*
D20*
X46390000Y-40190000D03*
D21*
X48930000Y-35110000D03*
X42580000Y-37650000D03*
D19*
X51470000Y-40190000D03*
D22*
X39305000Y-37650000D03*
X52232000Y-35110000D03*
%TD*%
D19*
%TO.C,SW13*%
X67990000Y-70750000D03*
X57830000Y-70750000D03*
D21*
X59100000Y-68210000D03*
X65450000Y-65670000D03*
D20*
X62910000Y-70750000D03*
D22*
X55825000Y-68210000D03*
X68752000Y-65670000D03*
%TD*%
D19*
%TO.C,SW16*%
X63580000Y-88050000D03*
D21*
X71200000Y-82970000D03*
D19*
X73740000Y-88050000D03*
D21*
X64850000Y-85510000D03*
D20*
X68660000Y-88050000D03*
D22*
X61575000Y-85510000D03*
X74502000Y-82970000D03*
%TD*%
D20*
%TO.C,SW4*%
X79420000Y-37720000D03*
D19*
X84500000Y-37720000D03*
X74340000Y-37720000D03*
D21*
X75610000Y-35180000D03*
X81960000Y-32640000D03*
D22*
X72335000Y-35180000D03*
X85262000Y-32640000D03*
%TD*%
D19*
%TO.C,SW18*%
X96590000Y-88060000D03*
D21*
X104210000Y-82980000D03*
X97860000Y-85520000D03*
D19*
X106750000Y-88060000D03*
D20*
X101670000Y-88060000D03*
D22*
X94585000Y-85520000D03*
X107512000Y-82980000D03*
%TD*%
D23*
%TO.C,J1*%
X27000000Y-26000000D03*
X32780000Y-26000000D03*
D24*
X26690000Y-27200000D03*
X27490000Y-27200000D03*
D25*
X28640000Y-27200000D03*
X29640000Y-27200000D03*
X30140000Y-27200000D03*
X31140000Y-27200000D03*
D24*
X32290000Y-27200000D03*
X33090000Y-27200000D03*
X33090000Y-27200000D03*
X32290000Y-27200000D03*
D25*
X31640000Y-27200000D03*
X30640000Y-27200000D03*
X29140000Y-27200000D03*
X28140000Y-27200000D03*
D24*
X27490000Y-27200000D03*
X26690000Y-27200000D03*
D26*
X34210000Y-22320000D03*
D27*
X25570000Y-26500000D03*
X34210000Y-26500000D03*
D26*
X25570000Y-22320000D03*
%TD*%
D28*
%TO.C,U1*%
X37440000Y-81177500D03*
X38240000Y-81177500D03*
X39040000Y-81177500D03*
X39840000Y-81177500D03*
X40640000Y-81177500D03*
X41440000Y-81177500D03*
X42240000Y-81177500D03*
X43040000Y-81177500D03*
X43840000Y-81177500D03*
X44640000Y-81177500D03*
X45440000Y-81177500D03*
D29*
X47102500Y-82840000D03*
X47102500Y-83640000D03*
X47102500Y-84440000D03*
X47102500Y-85240000D03*
X47102500Y-86040000D03*
X47102500Y-86840000D03*
X47102500Y-87640000D03*
X47102500Y-88440000D03*
X47102500Y-89240000D03*
X47102500Y-90040000D03*
X47102500Y-90840000D03*
D28*
X45440000Y-92502500D03*
X44640000Y-92502500D03*
X43840000Y-92502500D03*
X43040000Y-92502500D03*
X42240000Y-92502500D03*
X41440000Y-92502500D03*
X40640000Y-92502500D03*
X39840000Y-92502500D03*
X39040000Y-92502500D03*
X38240000Y-92502500D03*
X37440000Y-92502500D03*
D29*
X35777500Y-90840000D03*
X35777500Y-90040000D03*
X35777500Y-89240000D03*
X35777500Y-88440000D03*
X35777500Y-87640000D03*
X35777500Y-86840000D03*
X35777500Y-86040000D03*
X35777500Y-85240000D03*
X35777500Y-84440000D03*
X35777500Y-83640000D03*
X35777500Y-82840000D03*
%TD*%
D30*
%TO.C,F1*%
X23590000Y-31370000D03*
X23590000Y-34170000D03*
%TD*%
D31*
%TO.C,R5*%
X32282500Y-94210000D03*
X30457500Y-94210000D03*
%TD*%
D32*
%TO.C,R1*%
X36787500Y-33470000D03*
X38612500Y-33470000D03*
%TD*%
D33*
%TO.C,C5*%
X25680000Y-86410000D03*
X27580000Y-86410000D03*
%TD*%
D34*
%TO.C,J2*%
X112200000Y-29200000D03*
X112200000Y-22200000D03*
%TD*%
D35*
%TO.C,C7*%
X56090000Y-84520000D03*
X54190000Y-84520000D03*
%TD*%
D32*
%TO.C,R2*%
X36767500Y-30780000D03*
X38592500Y-30780000D03*
%TD*%
D36*
%TO.C,RESET1*%
X105870000Y-38790000D03*
X105870000Y-42950000D03*
X108030000Y-38790000D03*
X108030000Y-42950000D03*
%TD*%
D37*
%TO.C,Y1*%
X54110000Y-90640000D03*
X54110000Y-87740000D03*
X56310000Y-87740000D03*
X56310000Y-90640000D03*
%TD*%
D33*
%TO.C,C4*%
X47150000Y-95390000D03*
X49050000Y-95390000D03*
%TD*%
D38*
%TO.C,C2*%
X33040000Y-79190000D03*
X33040000Y-81090000D03*
%TD*%
D39*
%TO.C,R6*%
X107480000Y-49925000D03*
X107480000Y-48100000D03*
%TD*%
D35*
%TO.C,C6*%
X56100000Y-94200000D03*
X54200000Y-94200000D03*
%TD*%
D40*
%TO.C,R4*%
X39650000Y-45297500D03*
X39650000Y-45297500D03*
X39650000Y-47122500D03*
%TD*%
%TO.C,R3*%
X36920000Y-45287500D03*
X36920000Y-47112500D03*
%TD*%
D35*
%TO.C,C3*%
X43440000Y-76770000D03*
X41540000Y-76770000D03*
%TD*%
D33*
%TO.C,C1*%
X53350000Y-76660000D03*
X55250000Y-76660000D03*
%TD*%
M02*
