M48
METRIC,TZ
T1C0.400
T2C0.800
T3C1.000
%
G90
G05
T1
X26895Y-86072
X27004Y-65976
X27420Y-49299
X27853Y-70785
X27862Y-99891
X28062Y-83905
X29425Y-56950
X29625Y-68975
X29675Y-83250
X30025Y-85725
X30225Y-98900
X31600Y-49800
X35600Y-39825
X36100Y-70100
X36150Y-34950
X36400Y-86025
X36925Y-29700
X37125Y-83025
X37225Y-44150
X37350Y-26225
X37600Y-67025
X40218Y-40851
X41450Y-101350
X41700Y-48675
X41925Y-83700
X41975Y-66800
X41975Y-70500
X42161Y-68243
X42226Y-97885
X43275Y-62900
X43310Y-86231
X44850Y-46200
X44958Y-80702
X45581Y-53413
X46310Y-70810
X46450Y-63950
X47375Y-47575
X48475Y-104625
X50300Y-75125
X51600Y-67075
X53350Y-97050
X53500Y-63600
X54475Y-81500
X57150Y-66025
X57925Y-68550
X58562Y-81068
X58608Y-65653
X59690Y-60495
X59700Y-83727
X60500Y-85200
X60579Y-95395
X60777Y-78907
X63375Y-61900
X64775Y-96400
X65500Y-114025
X66100Y-52075
X66275Y-100950
X66425Y-84950
X67510Y-102180
X68827Y-80745
X69250Y-64150
X69775Y-77950
X71225Y-67450
X73507Y-116315
X73780Y-84180
X74701Y-82267
X74950Y-79975
X76139Y-77349
X77269Y-62245
X77289Y-65845
X77374Y-96196
X79380Y-84520
X80986Y-112765
X81321Y-105493
X82625Y-96625
X82975Y-82725
X83275Y-72725
X83300Y-56750
X83625Y-85700
X85325Y-112600
X85750Y-49524
X86125Y-80325
X86800Y-60900
X88300Y-67800
X89155Y-98795
X89939Y-81630
X90850Y-78875
X92770Y-83683
X93814Y-62375
X93852Y-78834
X93867Y-95245
X96250Y-77675
X96350Y-61525
X96575Y-93525
X97230Y-112370
X98775Y-97800
X100450Y-102630
X100850Y-80675
X101675Y-64800
X102575Y-77350
X103000Y-60575
X103150Y-94425
X103350Y-97920
T2
X27793Y-29454
X27793Y-31994
X27793Y-34534
X27793Y-37074
X27793Y-39614
X27793Y-42154
X27793Y-44694
X29190Y-28155
X29190Y-30695
X29190Y-33235
X29190Y-35775
X29190Y-38315
X29190Y-40855
X29190Y-43395
X43028Y-29454
X43028Y-31994
X43028Y-34534
X43028Y-37074
X43028Y-39614
X43028Y-42154
X43028Y-44694
X44425Y-28155
X44425Y-30695
X44425Y-33235
X44425Y-35775
X44425Y-38315
X44425Y-40855
X44425Y-43395
T3
G00X50408Y-44263
M15
G01X50304Y-44752
M16
G05
G00X51239Y-40351
M15
G01X51135Y-40840
M16
G05
G00X51807Y-46094
M15
G01X51703Y-46583
M16
G05
G00X51863Y-37416
M15
G01X51759Y-37905
M16
G05
G00X54204Y-46604
M15
G01X54100Y-47093
M16
G05
G00X56227Y-45500
M15
G01X56124Y-45989
M16
G05
G00X57059Y-41588
M15
G01X56955Y-42077
M16
G05
G00X57683Y-38653
M15
G01X57579Y-39142
M16
G05
T0
M30
