M48
METRIC,TZ
T1C1.200
T2C1.702
T3C3.000
T4C3.988
T5C5.000
%
G90
G05
T1
X52784Y-43184
X54239Y-36337
X54496Y-43548
X55951Y-36701
T2
X28570Y-81050
X28630Y-64550
X28640Y-97500
X38730Y-81050
X38790Y-64550
X38800Y-97500
X45100Y-62040
X45110Y-78550
X45130Y-95050
X55260Y-62040
X55270Y-78550
X55290Y-95050
X61570Y-59590
X61600Y-76070
X61650Y-92570
X67390Y-109870
X71730Y-59590
X71760Y-76070
X71810Y-92570
X77550Y-109870
X78130Y-59580
X78130Y-76090
X78130Y-92580
X83960Y-109900
X88290Y-59580
X88290Y-76090
X88290Y-92580
X94120Y-109900
X94620Y-59520
X94630Y-76080
X94650Y-92570
X100410Y-109940
X104780Y-59520
X104790Y-76080
X104810Y-92570
X110570Y-109940
T3
X29840Y-78510
X29900Y-62010
X29910Y-94960
X31110Y-75970
X31170Y-59470
X31180Y-92420
X36190Y-75970
X36250Y-59470
X36260Y-92420
X37460Y-78600
X37520Y-62100
X37530Y-95050
X46370Y-59500
X46380Y-76010
X46400Y-92510
X47640Y-56960
X47650Y-73470
X47670Y-89970
X52720Y-56960
X52730Y-73470
X52750Y-89970
X53990Y-59590
X54000Y-76100
X54020Y-92600
X62840Y-57050
X62870Y-73530
X62920Y-90030
X64110Y-54510
X64140Y-70990
X64190Y-87490
X68660Y-107330
X69190Y-54510
X69220Y-70990
X69270Y-87490
X69930Y-104790
X70460Y-57140
X70490Y-73620
X70540Y-90120
X75010Y-104790
X76280Y-107420
X79400Y-57040
X79400Y-73550
X79400Y-90040
X80670Y-54500
X80670Y-71010
X80670Y-87500
X85230Y-107360
X85750Y-54500
X85750Y-71010
X85750Y-87500
X86500Y-104820
X87020Y-57130
X87020Y-73640
X87020Y-90130
X91580Y-104820
X92850Y-107450
X95890Y-56980
X95900Y-73540
X95920Y-90030
X97160Y-54440
X97170Y-71000
X97190Y-87490
X101680Y-107400
X102240Y-54440
X102250Y-71000
X102270Y-87490
X102950Y-104860
X103510Y-57070
X103520Y-73630
X103540Y-90120
X108030Y-104860
X109300Y-107490
T4
X33650Y-81050
X33710Y-64550
X33720Y-97500
X50180Y-62040
X50190Y-78550
X50210Y-95050
X66650Y-59590
X66680Y-76070
X66730Y-92570
X72470Y-109870
X83210Y-59580
X83210Y-76090
X83210Y-92580
X89040Y-109900
X99700Y-59520
X99710Y-76080
X99730Y-92570
X105490Y-109940
T5
X33690Y-108030
X33730Y-54530
X60480Y-112870
X99710Y-49060
X110200Y-93560
T0
M30
