%TF.GenerationSoftware,KiCad,Pcbnew,(6.0.6)*%
%TF.CreationDate,2022-11-03T11:36:34+09:00*%
%TF.ProjectId,bottom_plate__split-mini,626f7474-6f6d-45f7-906c-6174655f5f73,rev?*%
%TF.SameCoordinates,Original*%
%TF.FileFunction,Copper,L1,Top*%
%TF.FilePolarity,Positive*%
%FSLAX46Y46*%
G04 Gerber Fmt 4.6, Leading zero omitted, Abs format (unit mm)*
G04 Created by KiCad (PCBNEW (6.0.6)) date 2022-11-03 11:36:34*
%MOMM*%
%LPD*%
G01*
G04 APERTURE LIST*
%TA.AperFunction,Profile*%
%ADD10C,0.100000*%
%TD*%
%ADD11C,0.350000*%
G04 APERTURE END LIST*
D10*
X116123324Y-72166634D02*
G75*
G03*
X113860370Y-69515158I-2988724J-259366D01*
G01*
X103530843Y-66939718D02*
X113860370Y-69515158D01*
X110364219Y-106260861D02*
G75*
G03*
X114000870Y-104075745I725781J2910861D01*
G01*
X21530843Y-102768057D02*
X45530843Y-102768057D01*
X78079754Y-99947838D02*
X89423885Y-101140154D01*
X66703035Y-99893057D02*
X77034469Y-99893057D01*
X45530843Y-102768057D02*
X54083652Y-102768057D01*
X56918659Y-102357777D02*
X63868027Y-100303337D01*
X19530843Y-21893057D02*
X19530843Y-100768057D01*
X117508504Y-90007398D02*
G75*
G03*
X117586379Y-89022217I-2911304J725798D01*
G01*
X103530843Y-21893057D02*
G75*
G03*
X100530843Y-18893057I-3000043J-43D01*
G01*
X78079754Y-99947841D02*
G75*
G03*
X77034469Y-99893057I-1045254J-9944059D01*
G01*
X54083652Y-102768065D02*
G75*
G03*
X56918659Y-102357777I-52J10000165D01*
G01*
X66703035Y-99893053D02*
G75*
G03*
X63868027Y-100303337I65J-10000347D01*
G01*
X22530843Y-18893063D02*
G75*
G03*
X19530843Y-21893057I-3J-2999997D01*
G01*
X114000870Y-104075745D02*
X117508503Y-90007398D01*
X90797818Y-101382418D02*
G75*
G03*
X89423885Y-101140154I-2419118J-9702282D01*
G01*
X19530843Y-100768057D02*
G75*
G03*
X21530843Y-102768057I1999997J-3D01*
G01*
X90797819Y-101382416D02*
X110364217Y-106260867D01*
X100530843Y-18893057D02*
X22530843Y-18893057D01*
X103530843Y-66939718D02*
X103530843Y-21893057D01*
X116123367Y-72166630D02*
X117586379Y-89022217D01*
D11*
X109130000Y-86360000D03*
X51500000Y-96760000D03*
X94500000Y-25740000D03*
X28520000Y-25760000D03*
M02*
