%TF.GenerationSoftware,KiCad,Pcbnew,(6.0.6)*%
%TF.CreationDate,2022-11-03T11:36:34+09:00*%
%TF.ProjectId,bottom_plate__split-mini,626f7474-6f6d-45f7-906c-6174655f5f73,rev?*%
%TF.SameCoordinates,Original*%
%TF.FileFunction,Legend,Top*%
%TF.FilePolarity,Positive*%
%FSLAX46Y46*%
G04 Gerber Fmt 4.6, Leading zero omitted, Abs format (unit mm)*
G04 Created by KiCad (PCBNEW (6.0.6)) date 2022-11-03 11:36:34*
%MOMM*%
%LPD*%
G01*
G04 APERTURE LIST*
%TA.AperFunction,Profile*%
%ADD10C,0.100000*%
%TD*%
%ADD11C,0.300000*%
%ADD12C,0.350000*%
%ADD13C,2.200000*%
G04 APERTURE END LIST*
D10*
X116123324Y-72166634D02*
G75*
G03*
X113860370Y-69515158I-2988724J-259366D01*
G01*
X103530843Y-66939718D02*
X113860370Y-69515158D01*
X110364219Y-106260861D02*
G75*
G03*
X114000870Y-104075745I725781J2910861D01*
G01*
X21530843Y-102768057D02*
X45530843Y-102768057D01*
X78079754Y-99947838D02*
X89423885Y-101140154D01*
X66703035Y-99893057D02*
X77034469Y-99893057D01*
X45530843Y-102768057D02*
X54083652Y-102768057D01*
X56918659Y-102357777D02*
X63868027Y-100303337D01*
X19530843Y-21893057D02*
X19530843Y-100768057D01*
X117508504Y-90007398D02*
G75*
G03*
X117586379Y-89022217I-2911304J725798D01*
G01*
X103530843Y-21893057D02*
G75*
G03*
X100530843Y-18893057I-3000043J-43D01*
G01*
X78079754Y-99947841D02*
G75*
G03*
X77034469Y-99893057I-1045254J-9944059D01*
G01*
X54083652Y-102768065D02*
G75*
G03*
X56918659Y-102357777I-52J10000165D01*
G01*
X66703035Y-99893053D02*
G75*
G03*
X63868027Y-100303337I65J-10000347D01*
G01*
X22530843Y-18893063D02*
G75*
G03*
X19530843Y-21893057I-3J-2999997D01*
G01*
X114000870Y-104075745D02*
X117508503Y-90007398D01*
X90797818Y-101382418D02*
G75*
G03*
X89423885Y-101140154I-2419118J-9702282D01*
G01*
X19530843Y-100768057D02*
G75*
G03*
X21530843Y-102768057I1999997J-3D01*
G01*
X90797819Y-101382416D02*
X110364217Y-106260867D01*
X100530843Y-18893057D02*
X22530843Y-18893057D01*
X103530843Y-66939718D02*
X103530843Y-21893057D01*
X116123367Y-72166630D02*
X117586379Y-89022217D01*
D11*
X54147142Y-21559714D02*
X54261428Y-21616857D01*
X54490000Y-21616857D01*
X54604285Y-21559714D01*
X54661428Y-21445428D01*
X54661428Y-21388285D01*
X54604285Y-21274000D01*
X54490000Y-21216857D01*
X54318571Y-21216857D01*
X54204285Y-21159714D01*
X54147142Y-21045428D01*
X54147142Y-20988285D01*
X54204285Y-20874000D01*
X54318571Y-20816857D01*
X54490000Y-20816857D01*
X54604285Y-20874000D01*
X55175714Y-20816857D02*
X55175714Y-22016857D01*
X55175714Y-20874000D02*
X55290000Y-20816857D01*
X55518571Y-20816857D01*
X55632857Y-20874000D01*
X55690000Y-20931142D01*
X55747142Y-21045428D01*
X55747142Y-21388285D01*
X55690000Y-21502571D01*
X55632857Y-21559714D01*
X55518571Y-21616857D01*
X55290000Y-21616857D01*
X55175714Y-21559714D01*
X56432857Y-21616857D02*
X56318571Y-21559714D01*
X56261428Y-21445428D01*
X56261428Y-20416857D01*
X56890000Y-21616857D02*
X56890000Y-20816857D01*
X56890000Y-20416857D02*
X56832857Y-20474000D01*
X56890000Y-20531142D01*
X56947142Y-20474000D01*
X56890000Y-20416857D01*
X56890000Y-20531142D01*
X57290000Y-20816857D02*
X57747142Y-20816857D01*
X57461428Y-20416857D02*
X57461428Y-21445428D01*
X57518571Y-21559714D01*
X57632857Y-21616857D01*
X57747142Y-21616857D01*
X59061428Y-21616857D02*
X59061428Y-20816857D01*
X59061428Y-20931142D02*
X59118571Y-20874000D01*
X59232857Y-20816857D01*
X59404285Y-20816857D01*
X59518571Y-20874000D01*
X59575714Y-20988285D01*
X59575714Y-21616857D01*
X59575714Y-20988285D02*
X59632857Y-20874000D01*
X59747142Y-20816857D01*
X59918571Y-20816857D01*
X60032857Y-20874000D01*
X60090000Y-20988285D01*
X60090000Y-21616857D01*
X60661428Y-21616857D02*
X60661428Y-20816857D01*
X60661428Y-20416857D02*
X60604285Y-20474000D01*
X60661428Y-20531142D01*
X60718571Y-20474000D01*
X60661428Y-20416857D01*
X60661428Y-20531142D01*
X61232857Y-20816857D02*
X61232857Y-21616857D01*
X61232857Y-20931142D02*
X61290000Y-20874000D01*
X61404285Y-20816857D01*
X61575714Y-20816857D01*
X61690000Y-20874000D01*
X61747142Y-20988285D01*
X61747142Y-21616857D01*
X62318571Y-21616857D02*
X62318571Y-20816857D01*
X62318571Y-20416857D02*
X62261428Y-20474000D01*
X62318571Y-20531142D01*
X62375714Y-20474000D01*
X62318571Y-20416857D01*
X62318571Y-20531142D01*
X63804285Y-21616857D02*
X63804285Y-20816857D01*
X63804285Y-21045428D02*
X63861428Y-20931142D01*
X63918571Y-20874000D01*
X64032857Y-20816857D01*
X64147142Y-20816857D01*
X65004285Y-21559714D02*
X64890000Y-21616857D01*
X64661428Y-21616857D01*
X64547142Y-21559714D01*
X64490000Y-21445428D01*
X64490000Y-20988285D01*
X64547142Y-20874000D01*
X64661428Y-20816857D01*
X64890000Y-20816857D01*
X65004285Y-20874000D01*
X65061428Y-20988285D01*
X65061428Y-21102571D01*
X64490000Y-21216857D01*
X65461428Y-20816857D02*
X65747142Y-21616857D01*
X66032857Y-20816857D01*
X66718571Y-20416857D02*
X66832857Y-20416857D01*
X66947142Y-20474000D01*
X67004285Y-20531142D01*
X67061428Y-20645428D01*
X67118571Y-20874000D01*
X67118571Y-21159714D01*
X67061428Y-21388285D01*
X67004285Y-21502571D01*
X66947142Y-21559714D01*
X66832857Y-21616857D01*
X66718571Y-21616857D01*
X66604285Y-21559714D01*
X66547142Y-21502571D01*
X66490000Y-21388285D01*
X66432857Y-21159714D01*
X66432857Y-20874000D01*
X66490000Y-20645428D01*
X66547142Y-20531142D01*
X66604285Y-20474000D01*
X66718571Y-20416857D01*
X67632857Y-21502571D02*
X67690000Y-21559714D01*
X67632857Y-21616857D01*
X67575714Y-21559714D01*
X67632857Y-21502571D01*
X67632857Y-21616857D01*
X68718571Y-20816857D02*
X68718571Y-21616857D01*
X68432857Y-20359714D02*
X68147142Y-21216857D01*
X68890000Y-21216857D01*
X51375714Y-23548857D02*
X51375714Y-22348857D01*
X51375714Y-23491714D02*
X51261428Y-23548857D01*
X51032857Y-23548857D01*
X50918571Y-23491714D01*
X50861428Y-23434571D01*
X50804285Y-23320285D01*
X50804285Y-22977428D01*
X50861428Y-22863142D01*
X50918571Y-22806000D01*
X51032857Y-22748857D01*
X51261428Y-22748857D01*
X51375714Y-22806000D01*
X52404285Y-23491714D02*
X52290000Y-23548857D01*
X52061428Y-23548857D01*
X51947142Y-23491714D01*
X51890000Y-23377428D01*
X51890000Y-22920285D01*
X51947142Y-22806000D01*
X52061428Y-22748857D01*
X52290000Y-22748857D01*
X52404285Y-22806000D01*
X52461428Y-22920285D01*
X52461428Y-23034571D01*
X51890000Y-23148857D01*
X52918571Y-23491714D02*
X53032857Y-23548857D01*
X53261428Y-23548857D01*
X53375714Y-23491714D01*
X53432857Y-23377428D01*
X53432857Y-23320285D01*
X53375714Y-23206000D01*
X53261428Y-23148857D01*
X53090000Y-23148857D01*
X52975714Y-23091714D01*
X52918571Y-22977428D01*
X52918571Y-22920285D01*
X52975714Y-22806000D01*
X53090000Y-22748857D01*
X53261428Y-22748857D01*
X53375714Y-22806000D01*
X53947142Y-23548857D02*
X53947142Y-22748857D01*
X53947142Y-22348857D02*
X53890000Y-22406000D01*
X53947142Y-22463142D01*
X54004285Y-22406000D01*
X53947142Y-22348857D01*
X53947142Y-22463142D01*
X55032857Y-22748857D02*
X55032857Y-23720285D01*
X54975714Y-23834571D01*
X54918571Y-23891714D01*
X54804285Y-23948857D01*
X54632857Y-23948857D01*
X54518571Y-23891714D01*
X55032857Y-23491714D02*
X54918571Y-23548857D01*
X54690000Y-23548857D01*
X54575714Y-23491714D01*
X54518571Y-23434571D01*
X54461428Y-23320285D01*
X54461428Y-22977428D01*
X54518571Y-22863142D01*
X54575714Y-22806000D01*
X54690000Y-22748857D01*
X54918571Y-22748857D01*
X55032857Y-22806000D01*
X55604285Y-22748857D02*
X55604285Y-23548857D01*
X55604285Y-22863142D02*
X55661428Y-22806000D01*
X55775714Y-22748857D01*
X55947142Y-22748857D01*
X56061428Y-22806000D01*
X56118571Y-22920285D01*
X56118571Y-23548857D01*
X57147142Y-23491714D02*
X57032857Y-23548857D01*
X56804285Y-23548857D01*
X56690000Y-23491714D01*
X56632857Y-23377428D01*
X56632857Y-22920285D01*
X56690000Y-22806000D01*
X56804285Y-22748857D01*
X57032857Y-22748857D01*
X57147142Y-22806000D01*
X57204285Y-22920285D01*
X57204285Y-23034571D01*
X56632857Y-23148857D01*
X58232857Y-23548857D02*
X58232857Y-22348857D01*
X58232857Y-23491714D02*
X58118571Y-23548857D01*
X57890000Y-23548857D01*
X57775714Y-23491714D01*
X57718571Y-23434571D01*
X57661428Y-23320285D01*
X57661428Y-22977428D01*
X57718571Y-22863142D01*
X57775714Y-22806000D01*
X57890000Y-22748857D01*
X58118571Y-22748857D01*
X58232857Y-22806000D01*
X59718571Y-23548857D02*
X59718571Y-22348857D01*
X59718571Y-22806000D02*
X59832857Y-22748857D01*
X60061428Y-22748857D01*
X60175714Y-22806000D01*
X60232857Y-22863142D01*
X60290000Y-22977428D01*
X60290000Y-23320285D01*
X60232857Y-23434571D01*
X60175714Y-23491714D01*
X60061428Y-23548857D01*
X59832857Y-23548857D01*
X59718571Y-23491714D01*
X60690000Y-22748857D02*
X60975714Y-23548857D01*
X61261428Y-22748857D02*
X60975714Y-23548857D01*
X60861428Y-23834571D01*
X60804285Y-23891714D01*
X60690000Y-23948857D01*
X62461428Y-22748857D02*
X62918571Y-22748857D01*
X62632857Y-22348857D02*
X62632857Y-23377428D01*
X62690000Y-23491714D01*
X62804285Y-23548857D01*
X62918571Y-23548857D01*
X63832857Y-23548857D02*
X63832857Y-22920285D01*
X63775714Y-22806000D01*
X63661428Y-22748857D01*
X63432857Y-22748857D01*
X63318571Y-22806000D01*
X63832857Y-23491714D02*
X63718571Y-23548857D01*
X63432857Y-23548857D01*
X63318571Y-23491714D01*
X63261428Y-23377428D01*
X63261428Y-23263142D01*
X63318571Y-23148857D01*
X63432857Y-23091714D01*
X63718571Y-23091714D01*
X63832857Y-23034571D01*
X64404285Y-23548857D02*
X64404285Y-22748857D01*
X64404285Y-22863142D02*
X64461428Y-22806000D01*
X64575714Y-22748857D01*
X64747142Y-22748857D01*
X64861428Y-22806000D01*
X64918571Y-22920285D01*
X64918571Y-23548857D01*
X64918571Y-22920285D02*
X64975714Y-22806000D01*
X65090000Y-22748857D01*
X65261428Y-22748857D01*
X65375714Y-22806000D01*
X65432857Y-22920285D01*
X65432857Y-23548857D01*
X66518571Y-23548857D02*
X66518571Y-22920285D01*
X66461428Y-22806000D01*
X66347142Y-22748857D01*
X66118571Y-22748857D01*
X66004285Y-22806000D01*
X66518571Y-23491714D02*
X66404285Y-23548857D01*
X66118571Y-23548857D01*
X66004285Y-23491714D01*
X65947142Y-23377428D01*
X65947142Y-23263142D01*
X66004285Y-23148857D01*
X66118571Y-23091714D01*
X66404285Y-23091714D01*
X66518571Y-23034571D01*
X67604285Y-22748857D02*
X67604285Y-23720285D01*
X67547142Y-23834571D01*
X67490000Y-23891714D01*
X67375714Y-23948857D01*
X67204285Y-23948857D01*
X67090000Y-23891714D01*
X67604285Y-23491714D02*
X67490000Y-23548857D01*
X67261428Y-23548857D01*
X67147142Y-23491714D01*
X67090000Y-23434571D01*
X67032857Y-23320285D01*
X67032857Y-22977428D01*
X67090000Y-22863142D01*
X67147142Y-22806000D01*
X67261428Y-22748857D01*
X67490000Y-22748857D01*
X67604285Y-22806000D01*
X68347142Y-23548857D02*
X68232857Y-23491714D01*
X68175714Y-23434571D01*
X68118571Y-23320285D01*
X68118571Y-22977428D01*
X68175714Y-22863142D01*
X68232857Y-22806000D01*
X68347142Y-22748857D01*
X68518571Y-22748857D01*
X68632857Y-22806000D01*
X68690000Y-22863142D01*
X68747142Y-22977428D01*
X68747142Y-23320285D01*
X68690000Y-23434571D01*
X68632857Y-23491714D01*
X68518571Y-23548857D01*
X68347142Y-23548857D01*
X69147142Y-22348857D02*
X69890000Y-22348857D01*
X69490000Y-22806000D01*
X69661428Y-22806000D01*
X69775714Y-22863142D01*
X69832857Y-22920285D01*
X69890000Y-23034571D01*
X69890000Y-23320285D01*
X69832857Y-23434571D01*
X69775714Y-23491714D01*
X69661428Y-23548857D01*
X69318571Y-23548857D01*
X69204285Y-23491714D01*
X69147142Y-23434571D01*
X70347142Y-22463142D02*
X70404285Y-22406000D01*
X70518571Y-22348857D01*
X70804285Y-22348857D01*
X70918571Y-22406000D01*
X70975714Y-22463142D01*
X71032857Y-22577428D01*
X71032857Y-22691714D01*
X70975714Y-22863142D01*
X70290000Y-23548857D01*
X71032857Y-23548857D01*
X72061428Y-22748857D02*
X72061428Y-23548857D01*
X71775714Y-22291714D02*
X71490000Y-23148857D01*
X72232857Y-23148857D01*
D12*
X109130000Y-86360000D03*
X51500000Y-96760000D03*
X94500000Y-25740000D03*
X28520000Y-25760000D03*
%LPC*%
D13*
%TO.C,HOLE5*%
X109130000Y-86360000D03*
%TD*%
%TO.C,HOLE4*%
X51500000Y-96760000D03*
%TD*%
%TO.C,HOLE2*%
X94500000Y-25740000D03*
%TD*%
%TO.C,HOLE1*%
X28520000Y-25760000D03*
%TD*%
M02*
