0
SECTION
2
HEADER
9
$INSUNITS
70
4
0
ENDSEC
0
SECTION
2
TABLES
0
TABLE
2
LTYPE
0
LTYPE
72
65
70
64
2
CONTINUOUS
3
______
73
0
40
0
0
ENDTAB
0
TABLE
2
LAYER
0
ENDTAB
0
ENDSEC
0
SECTION
2
ENTITIES
0
LINE
8
0
10
50.75
20
-11.375
11
64.75
21
-11.375
0
LINE
8
0
10
50.75
20
-25.375
11
64.75
21
-25.375
0
LINE
8
0
10
50.75
20
-11.375
11
50.75
21
-25.375
0
LINE
8
0
10
64.75
20
-11.375
11
64.75
21
-25.375
0
LINE
8
0
10
34.25
20
-14.875
11
48.25
21
-14.875
0
LINE
8
0
10
34.25
20
-28.875
11
48.25
21
-28.875
0
LINE
8
0
10
34.25
20
-14.875
11
34.25
21
-28.875
0
LINE
8
0
10
48.25
20
-14.875
11
48.25
21
-28.875
0
LINE
8
0
10
67.25
20
-15.75
11
81.25
21
-15.75
0
LINE
8
0
10
67.25
20
-29.75
11
81.25
21
-29.75
0
LINE
8
0
10
67.25
20
-15.75
11
67.25
21
-29.75
0
LINE
8
0
10
81.25
20
-15.75
11
81.25
21
-29.75
0
LINE
8
0
10
83.75
20
-17.5
11
97.75
21
-17.5
0
LINE
8
0
10
83.75
20
-31.5
11
97.75
21
-31.5
0
LINE
8
0
10
83.75
20
-17.5
11
83.75
21
-31.5
0
LINE
8
0
10
97.75
20
-17.5
11
97.75
21
-31.5
0
LINE
8
0
10
17.75
20
-19.25
11
31.75
21
-19.25
0
LINE
8
0
10
17.75
20
-33.25
11
31.75
21
-33.25
0
LINE
8
0
10
17.75
20
-19.25
11
17.75
21
-33.25
0
LINE
8
0
10
31.75
20
-19.25
11
31.75
21
-33.25
0
LINE
8
0
10
50.75
20
-28.875
11
64.75
21
-28.875
0
LINE
8
0
10
50.75
20
-42.875
11
64.75
21
-42.875
0
LINE
8
0
10
50.75
20
-28.875
11
50.75
21
-42.875
0
LINE
8
0
10
64.75
20
-28.875
11
64.75
21
-42.875
0
LINE
8
0
10
34.25
20
-32.375
11
48.25
21
-32.375
0
LINE
8
0
10
34.25
20
-46.375
11
48.25
21
-46.375
0
LINE
8
0
10
34.25
20
-32.375
11
34.25
21
-46.375
0
LINE
8
0
10
48.25
20
-32.375
11
48.25
21
-46.375
0
LINE
8
0
10
67.25
20
-33.25
11
81.25
21
-33.25
0
LINE
8
0
10
67.25
20
-47.25
11
81.25
21
-47.25
0
LINE
8
0
10
67.25
20
-33.25
11
67.25
21
-47.25
0
LINE
8
0
10
81.25
20
-33.25
11
81.25
21
-47.25
0
LINE
8
0
10
83.75
20
-35
11
97.75
21
-35
0
LINE
8
0
10
83.75
20
-49
11
97.75
21
-49
0
LINE
8
0
10
83.75
20
-35
11
83.75
21
-49
0
LINE
8
0
10
97.75
20
-35
11
97.75
21
-49
0
LINE
8
0
10
17.75
20
-36.75
11
31.75
21
-36.75
0
LINE
8
0
10
17.75
20
-50.75
11
31.75
21
-50.75
0
LINE
8
0
10
17.75
20
-36.75
11
17.75
21
-50.75
0
LINE
8
0
10
31.75
20
-36.75
11
31.75
21
-50.75
0
LINE
8
0
10
50.75
20
-46.375
11
64.75
21
-46.375
0
LINE
8
0
10
50.75
20
-60.375
11
64.75
21
-60.375
0
LINE
8
0
10
50.75
20
-46.375
11
50.75
21
-60.375
0
LINE
8
0
10
64.75
20
-46.375
11
64.75
21
-60.375
0
LINE
8
0
10
34.25
20
-49.875
11
48.25
21
-49.875
0
LINE
8
0
10
34.25
20
-63.875
11
48.25
21
-63.875
0
LINE
8
0
10
34.25
20
-49.875
11
34.25
21
-63.875
0
LINE
8
0
10
48.25
20
-49.875
11
48.25
21
-63.875
0
LINE
8
0
10
67.25
20
-50.75
11
81.25
21
-50.75
0
LINE
8
0
10
67.25
20
-64.75
11
81.25
21
-64.75
0
LINE
8
0
10
67.25
20
-50.75
11
67.25
21
-64.75
0
LINE
8
0
10
81.25
20
-50.75
11
81.25
21
-64.75
0
LINE
8
0
10
83.75
20
-52.5
11
97.75
21
-52.5
0
LINE
8
0
10
83.75
20
-66.5
11
97.75
21
-66.5
0
LINE
8
0
10
83.75
20
-52.5
11
83.75
21
-66.5
0
LINE
8
0
10
97.75
20
-52.5
11
97.75
21
-66.5
0
LINE
8
0
10
17.75
20
-54.25
11
31.75
21
-54.25
0
LINE
8
0
10
17.75
20
-68.25
11
31.75
21
-68.25
0
LINE
8
0
10
17.75
20
-54.25
11
17.75
21
-68.25
0
LINE
8
0
10
31.75
20
-54.25
11
31.75
21
-68.25
0
LINE
8
0
10
61.475
20
-70.875
11
75.475
21
-70.875
0
LINE
8
0
10
61.475
20
-84.875
11
75.475
21
-84.875
0
LINE
8
0
10
61.475
20
-70.875
11
61.475
21
-84.875
0
LINE
8
0
10
75.475
20
-70.875
11
75.475
21
-84.875
0
LINE
8
0
10
78.9745532
20
-70.9681964
11
92.9404499
21
-71.9447871
0
LINE
8
0
10
77.9979625
20
-84.9340931
11
91.9638592
21
-85.9106838
0
LINE
8
0
10
78.9745532
20
-70.9681964
11
77.9979625
21
-84.9340931
0
LINE
8
0
10
92.9404499
20
-71.9447871
11
91.9638592
21
-85.9106838
0
LINE
8
0
10
96.9588472
20
-72.9247834
11
110.7461557
21
-75.3558579
0
LINE
8
0
10
94.5277727
20
-86.7120919
11
108.3150812
21
-89.1431664
0
LINE
8
0
10
96.9588472
20
-72.9247834
11
94.5277727
21
-86.7120919
0
LINE
8
0
10
110.7461557
20
-75.3558579
11
108.3150812
21
-89.1431664
0
LINE
8
0
10
16.5
20
-89.7839749
11
110.8869642
21
-89.7839749
0
LINE
8
0
10
16.5
20
-9.625
11
110.8869642
21
-9.625
0
LINE
8
0
10
16.5
20
-89.7839749
11
16.5
21
-9.625
0
LINE
8
0
10
110.8869642
20
-89.7839749
11
110.8869642
21
-9.625
0
ENDSEC
0
EOF