M48
METRIC,TZ
T1C0.300
T2C0.400
T3C0.800
T4C1.000
%
G90
G05
T1
X24000Y-39000
X24000Y-73000
X30000Y-80000
X36740Y-72820
X37000Y-60000
X40240Y-79250
X46840Y-82500
X53000Y-58000
X57020Y-79240
X57150Y-38100
X61000Y-58000
X63170Y-82670
X76000Y-72000
X77820Y-35710
X83970Y-97260
X84000Y-40000
X91720Y-80940
X103240Y-100300
X103511Y-41001
T2
X22289Y-50760
X28335Y-71632
X28753Y-39008
X30565Y-37340
X30574Y-55726
X31025Y-75015
X31855Y-73827
X34278Y-84211
X36360Y-78460
X37980Y-94040
X38129Y-29721
X38888Y-54870
X39072Y-74267
X39695Y-27028
X41180Y-55450
X44975Y-36930
X48718Y-73140
X51237Y-55230
X53122Y-54997
X55073Y-53588
X55635Y-47148
X57740Y-73147
X58886Y-90329
X62362Y-92328
X62955Y-38838
X64235Y-56060
X65512Y-93818
X66535Y-71702
X67220Y-36188
X67799Y-37656
X68195Y-54860
X68470Y-75110
X72167Y-29597
X72167Y-37831
X72195Y-91616
X72230Y-80750
X72231Y-64335
X72410Y-50580
X74170Y-39288
X74180Y-37821
X75910Y-62030
X81691Y-37730
X81700Y-55731
X82070Y-26955
X82454Y-43413
X82945Y-73859
X85895Y-75080
X85895Y-84303
X88909Y-64750
X88995Y-29721
X95799Y-54190
X97852Y-81348
X98861Y-97993
X99455Y-73837
X99618Y-38853
X99759Y-54190
X99848Y-35997
X101780Y-75030
X103137Y-98638
X104403Y-90423
X118345Y-90646
T3
X25388Y-81379
X25388Y-96614
X26687Y-82776
X26687Y-98011
X27928Y-81379
X27928Y-96614
X29226Y-82776
X29226Y-98011
X30467Y-81379
X30467Y-96614
X31766Y-82776
X31766Y-98011
X33008Y-81379
X33008Y-96614
X34307Y-82776
X34307Y-98011
X35548Y-81379
X35548Y-96614
X36847Y-82776
X36847Y-98011
X38088Y-81379
X38088Y-96614
X39387Y-82776
X39387Y-98011
X40628Y-81379
X40628Y-96614
X41927Y-82776
X41927Y-98011
T4
G00X108410Y-72525
M15
G01X107910Y-72525
M16
G05
G00X108410Y-74975
M15
G01X107910Y-74975
M16
G05
G00X109910Y-70775
M15
G01X109410Y-70775
M16
G05
G00X109910Y-76725
M15
G01X109410Y-76725
M16
G05
G00X113910Y-70775
M15
G01X113410Y-70775
M16
G05
G00X113910Y-76725
M15
G01X113410Y-76725
M16
G05
G00X116910Y-70775
M15
G01X116410Y-70775
M16
G05
G00X116910Y-76725
M15
G01X116410Y-76725
M16
G05
T0
M30
