M48
; DRILL file {KiCad (6.0.6)} date 2022年11月13日 11時43分50秒
; FORMAT={-:-/ absolute / metric / decimal}
; #@! TF.CreationDate,2022-11-13T11:43:50+09:00
; #@! TF.GenerationSoftware,Kicad,Pcbnew,(6.0.6)
; #@! TF.FileFunction,Plated,1,2,PTH
FMAT,2
METRIC
; #@! TA.AperFunction,Plated,PTH,ViaDrill
T1C0.400
; #@! TA.AperFunction,Plated,PTH,ComponentDrill
T2C0.600
; #@! TA.AperFunction,Plated,PTH,ComponentDrill
T3C1.000
%
G90
G05
T1
X33.328Y-65.226
X34.45Y-65.02
X50.14Y-62.261
X51.139Y-62.029
X53.0Y-75.695
X54.005Y-75.52
X55.6Y-28.94
X56.3Y-29.755
X57.333Y-45.402
X57.594Y-30.704
X58.116Y-46.184
X58.343Y-32.003
X63.2Y-30.674
X63.2Y-100.95
X63.75Y-28.72
X64.05Y-106.075
X64.375Y-56.45
X64.575Y-63.225
X65.158Y-91.365
X65.996Y-92.321
X66.74Y-38.31
X67.35Y-52.26
X68.0Y-85.1
X68.34Y-52.59
X68.49Y-91.12
X68.63Y-70.26
X68.64Y-88.73
X68.876Y-92.3
X69.56Y-81.17
X69.6Y-93.07
X70.09Y-82.98
X73.35Y-80.5
X73.42Y-94.98
X74.914Y-95.19
X75.745Y-95.747
X77.35Y-80.59
X78.22Y-96.6
X78.25Y-79.06
X78.26Y-97.84
X79.362Y-78.823
X81.679Y-94.581
X81.81Y-79.06
X82.025Y-81.3
X83.1Y-55.42
X83.3Y-64.2
X84.3Y-90.275
X85.62Y-95.41
X87.37Y-82.59
X89.0Y-65.0
X89.53Y-85.56
X90.02Y-87.42
X92.38Y-98.62
X92.45Y-83.21
X95.24Y-94.16
X99.6Y-76.26
T2
G00X55.24Y-20.24
M15
G01X55.24Y-19.44
M16
G05
G00X55.24Y-24.57
M15
G01X55.24Y-23.47
M16
G05
G00X63.88Y-20.24
M15
G01X63.88Y-19.44
M16
G05
G00X63.88Y-24.57
M15
G01X63.88Y-23.47
M16
G05
T3
G00X103.547Y-48.871
M15
G01X103.26Y-49.281
M16
G05
G00X107.847Y-50.052
M15
G01X107.561Y-50.461
M16
G05
G00X110.142Y-46.775
M15
G01X109.855Y-47.185
M16
G05
G00X111.862Y-44.318
M15
G01X111.576Y-44.727
M16
G05
T0
M30
