%TF.GenerationSoftware,KiCad,Pcbnew,(6.0.6)*%
%TF.CreationDate,2022-11-13T11:43:50+09:00*%
%TF.ProjectId,split-mini__left,73706c69-742d-46d6-996e-695f5f6c6566,rev?*%
%TF.SameCoordinates,Original*%
%TF.FileFunction,Legend,Top*%
%TF.FilePolarity,Positive*%
%FSLAX46Y46*%
G04 Gerber Fmt 4.6, Leading zero omitted, Abs format (unit mm)*
G04 Created by KiCad (PCBNEW (6.0.6)) date 2022-11-13 11:43:50*
%MOMM*%
%LPD*%
G01*
G04 APERTURE LIST*
G04 Aperture macros list*
%AMHorizOval*
0 Thick line with rounded ends*
0 $1 width*
0 $2 $3 position (X,Y) of the first rounded end (center of the circle)*
0 $4 $5 position (X,Y) of the second rounded end (center of the circle)*
0 Add line between two ends*
20,1,$1,$2,$3,$4,$5,0*
0 Add two circle primitives to create the rounded ends*
1,1,$1,$2,$3*
1,1,$1,$4,$5*%
G04 Aperture macros list end*
%TA.AperFunction,Profile*%
%ADD10C,0.100000*%
%TD*%
%ADD11C,0.150000*%
%ADD12C,0.120000*%
%ADD13C,0.350000*%
%ADD14O,0.600000X1.400000*%
%ADD15O,0.600000X1.700000*%
%ADD16HorizOval,1.000000X-0.143394X-0.204788X0.143394X0.204788X0*%
%ADD17C,1.900000*%
%ADD18C,3.000000*%
%ADD19C,4.100000*%
%ADD20C,0.650000*%
%ADD21R,0.580000X1.400000*%
%ADD22R,0.280000X1.400000*%
%ADD23O,1.000000X1.800000*%
%ADD24O,1.000000X2.100000*%
%ADD25C,1.200000*%
G04 APERTURE END LIST*
D10*
X116274472Y-100918426D02*
X101550000Y-95559156D01*
X50550000Y-30270000D02*
X34050000Y-30270000D01*
X34050000Y-30270000D02*
X34050000Y-34645000D01*
X109006494Y-38645000D02*
X101550000Y-38645000D01*
X114740558Y-42660035D02*
X101550000Y-61498104D01*
X35550000Y-87645000D02*
X35550000Y-83270000D01*
X88214983Y-109860807D02*
X110118110Y-117832893D01*
X35550000Y-83270000D02*
X52050000Y-83270000D01*
X110118110Y-117832893D02*
X116274472Y-100918426D01*
X68550000Y-31145000D02*
X85050000Y-31145000D01*
X34050000Y-34645000D02*
X17550000Y-34645000D01*
X61275000Y-79770000D02*
X61275000Y-107770000D01*
X61275000Y-107770000D02*
X76357429Y-107770000D01*
X17550000Y-87645000D02*
X35550000Y-87645000D01*
X50550000Y-26770000D02*
X50550000Y-30270000D01*
X101550000Y-95559156D02*
X101550000Y-61498104D01*
X65050000Y-26770000D02*
X68550000Y-26770000D01*
X76357429Y-107770000D02*
X88214983Y-109860807D01*
X65050000Y-26770000D02*
X65050000Y-18470000D01*
X17550000Y-34645000D02*
X17550000Y-87645000D01*
X85050000Y-31145000D02*
X85050000Y-34645000D01*
X109006494Y-38645000D02*
X114740558Y-42660035D01*
X54050000Y-26770000D02*
X54050000Y-18470000D01*
X50550000Y-26770000D02*
X54050000Y-26770000D01*
X54050000Y-18470000D02*
X65050000Y-18470000D01*
X101550000Y-38645000D02*
X101550000Y-34645000D01*
X68550000Y-26770000D02*
X68550000Y-31145000D01*
X101550000Y-34645000D02*
X85050000Y-34645000D01*
X52050000Y-83270000D02*
X52050000Y-79770000D01*
X52050000Y-79770000D02*
X61275000Y-79770000D01*
D11*
%TO.C,J1*%
X59226666Y-26017380D02*
X59226666Y-26731666D01*
X59179047Y-26874523D01*
X59083809Y-26969761D01*
X58940952Y-27017380D01*
X58845714Y-27017380D01*
X60226666Y-27017380D02*
X59655238Y-27017380D01*
X59940952Y-27017380D02*
X59940952Y-26017380D01*
X59845714Y-26160238D01*
X59750476Y-26255476D01*
X59655238Y-26303095D01*
%TO.C,J2*%
X108706908Y-46927127D02*
X108238821Y-46599369D01*
X109046441Y-45944096D02*
X108472865Y-46763248D01*
X108071260Y-45261267D02*
X108071179Y-45842531D01*
X108539347Y-45589025D02*
X107965770Y-46408177D01*
X107653713Y-46189671D01*
X107603011Y-46096038D01*
X107591317Y-46029717D01*
X107606936Y-45924390D01*
X107688876Y-45807368D01*
X107782509Y-45756667D01*
X107848830Y-45744973D01*
X107954157Y-45760592D01*
X108266215Y-45979097D01*
X107252108Y-44687690D02*
X107252027Y-45268955D01*
X107720195Y-45015448D02*
X107146618Y-45834600D01*
X106834560Y-45616095D01*
X106783859Y-45522461D01*
X106772165Y-45456141D01*
X106787784Y-45350813D01*
X106869724Y-45233792D01*
X106963357Y-45183090D01*
X107029678Y-45171396D01*
X107135005Y-45187015D01*
X107447063Y-45405521D01*
X106912737Y-44508192D02*
X106823028Y-44387245D01*
X106627992Y-44250680D01*
X106522664Y-44235061D01*
X106456344Y-44246755D01*
X106362710Y-44297456D01*
X106308084Y-44375470D01*
X106292465Y-44480798D01*
X106304159Y-44547118D01*
X106354860Y-44640752D01*
X106483576Y-44789012D01*
X106534278Y-44882646D01*
X106545972Y-44948966D01*
X106530353Y-45054294D01*
X106475726Y-45132308D01*
X106382093Y-45183009D01*
X106315772Y-45194703D01*
X106210445Y-45179084D01*
X106015408Y-45042519D01*
X105925700Y-44921572D01*
D12*
%TO.C,J1*%
X54860000Y-22820000D02*
X54860000Y-20820000D01*
X64260000Y-22820000D02*
X64260000Y-20820000D01*
D11*
%TO.C,J2*%
X107441655Y-52025890D02*
X102690573Y-48699147D01*
X114181178Y-42400853D02*
X107441655Y-52025890D01*
X102690573Y-48699147D02*
X109430097Y-39074110D01*
X109430097Y-39074110D02*
X114181178Y-42400853D01*
%TD*%
D13*
X64375000Y-56450000D03*
X68000000Y-85100000D03*
X92380000Y-98620000D03*
X70090000Y-82980500D03*
X78260000Y-97840000D03*
X66740000Y-38310000D03*
X89530000Y-85560000D03*
X68630000Y-70260000D03*
X81678750Y-94581250D03*
X92450000Y-83210000D03*
X63200000Y-100950000D03*
X89000000Y-65000000D03*
X73350000Y-80500000D03*
X77350000Y-80590000D03*
X85620000Y-95410500D03*
X90020000Y-87420000D03*
X87370000Y-82590000D03*
X69560000Y-81170000D03*
X63750000Y-28720000D03*
X55600000Y-28940000D03*
X63200000Y-30674500D03*
X57593764Y-30703764D03*
X58343362Y-32003362D03*
X68340000Y-52590000D03*
X67350000Y-52260000D03*
X56300000Y-29754500D03*
X82025000Y-81300000D03*
X81810500Y-79060500D03*
X84300000Y-90275000D03*
X74914500Y-95190000D03*
X34450000Y-65020000D03*
X51139312Y-62029312D03*
X69600000Y-93070000D03*
X65995562Y-92320562D03*
X57333094Y-45401718D03*
X53000000Y-75695500D03*
X68875500Y-92300205D03*
X78250000Y-79060500D03*
X83300500Y-64200000D03*
X75744707Y-95746563D03*
X33328091Y-65225935D03*
X50140000Y-62260500D03*
X73420000Y-94980000D03*
X65158418Y-91365500D03*
X58115688Y-46184312D03*
X68490000Y-91120000D03*
X54005201Y-75519799D03*
X79362100Y-78822601D03*
X83100000Y-55420000D03*
X64575000Y-63225000D03*
X68640000Y-88730000D03*
X99600000Y-76260000D03*
X95240000Y-94160000D03*
X64050000Y-106075000D03*
X78220000Y-96600000D03*
X97650000Y-78660000D03*
X88760000Y-76120000D03*
X92570000Y-78660000D03*
X87490000Y-78660000D03*
X95110000Y-73580000D03*
X62450000Y-23520000D03*
X56670000Y-23520000D03*
D14*
X55240000Y-19840000D03*
D15*
X63880000Y-24020000D03*
X55240000Y-24020000D03*
D14*
X63880000Y-19840000D03*
D13*
X37980000Y-56770000D03*
X39250000Y-54230000D03*
X45600000Y-51690000D03*
X48140000Y-56770000D03*
X43060000Y-56770000D03*
X64640000Y-35750000D03*
X63370000Y-38290000D03*
X54480000Y-35750000D03*
X59560000Y-35750000D03*
X57020000Y-40830000D03*
X31650000Y-61160000D03*
X21490000Y-61160000D03*
X22760000Y-58620000D03*
X26570000Y-61160000D03*
X29110000Y-56080000D03*
X82827177Y-99767867D03*
X91141051Y-103813011D03*
X84446456Y-105211757D03*
X87830000Y-100650000D03*
X92832823Y-101532133D03*
X72230000Y-72590000D03*
X78580000Y-70050000D03*
X81120000Y-75130000D03*
X70960000Y-75130000D03*
X76040000Y-75130000D03*
X72240000Y-55110000D03*
X76050000Y-57650000D03*
X78590000Y-52570000D03*
X81130000Y-57650000D03*
X70970000Y-57650000D03*
X55765000Y-50710000D03*
X59575000Y-53250000D03*
X64655000Y-53250000D03*
X54495000Y-53250000D03*
X62115000Y-48170000D03*
X107016274Y-47577401D03*
X111031309Y-41843337D03*
D16*
X103403253Y-49076093D03*
X111719091Y-44522321D03*
X109998362Y-46979777D03*
X107704056Y-50256386D03*
D13*
X95090000Y-56070000D03*
X92550000Y-61150000D03*
X97630000Y-61150000D03*
X88740000Y-58610000D03*
X87470000Y-61150000D03*
X31640000Y-78650000D03*
X22750000Y-76110000D03*
X26560000Y-78650000D03*
X29100000Y-73570000D03*
X21480000Y-78650000D03*
X31630000Y-43640000D03*
X26550000Y-43640000D03*
X21470000Y-43640000D03*
X22740000Y-41100000D03*
X29090000Y-38560000D03*
X45610000Y-69200000D03*
X37990000Y-74280000D03*
X48150000Y-74280000D03*
X43070000Y-74280000D03*
X39260000Y-71740000D03*
X97655000Y-43640000D03*
X90035000Y-48720000D03*
X96385000Y-46180000D03*
X92575000Y-43640000D03*
X87495000Y-43640000D03*
X48140000Y-39260000D03*
X39250000Y-36720000D03*
X43060000Y-39260000D03*
X45600000Y-34180000D03*
X37980000Y-39260000D03*
X62110000Y-65700000D03*
X59570000Y-70780000D03*
X55760000Y-68240000D03*
X64650000Y-70780000D03*
X54490000Y-70780000D03*
X65180000Y-98780000D03*
X67720000Y-103860000D03*
X70260000Y-98780000D03*
X74070000Y-101320000D03*
X75340000Y-98780000D03*
X70980000Y-40170000D03*
X81140000Y-40170000D03*
X76060000Y-40170000D03*
X79870000Y-42710000D03*
X73520000Y-45250000D03*
X99966361Y-104552538D03*
X109513639Y-108027462D03*
X104740000Y-106290000D03*
X107451498Y-109979916D03*
X100615718Y-110194907D03*
%LPC*%
D17*
%TO.C,SW15*%
X97650000Y-78660000D03*
D18*
X88760000Y-76120000D03*
D19*
X92570000Y-78660000D03*
D17*
X87490000Y-78660000D03*
D18*
X95110000Y-73580000D03*
%TD*%
D20*
%TO.C,J1*%
X62450000Y-23520000D03*
X56670000Y-23520000D03*
D21*
X62760000Y-24720000D03*
X61960000Y-24720000D03*
D22*
X60810000Y-24720000D03*
X59810000Y-24720000D03*
X59310000Y-24720000D03*
X58310000Y-24720000D03*
D21*
X57160000Y-24720000D03*
X56360000Y-24720000D03*
X56360000Y-24720000D03*
X57160000Y-24720000D03*
D22*
X57810000Y-24720000D03*
X58810000Y-24720000D03*
X60310000Y-24720000D03*
X61310000Y-24720000D03*
D21*
X61960000Y-24720000D03*
X62760000Y-24720000D03*
D23*
X55240000Y-19840000D03*
D24*
X63880000Y-24020000D03*
X55240000Y-24020000D03*
D23*
X63880000Y-19840000D03*
%TD*%
D17*
%TO.C,SW7*%
X37980000Y-56770000D03*
D18*
X39250000Y-54230000D03*
X45600000Y-51690000D03*
D17*
X48140000Y-56770000D03*
D19*
X43060000Y-56770000D03*
%TD*%
D17*
%TO.C,SW3*%
X64640000Y-35750000D03*
D18*
X63370000Y-38290000D03*
D17*
X54480000Y-35750000D03*
D19*
X59560000Y-35750000D03*
D18*
X57020000Y-40830000D03*
%TD*%
D17*
%TO.C,SW6*%
X31650000Y-61160000D03*
X21490000Y-61160000D03*
D18*
X22760000Y-58620000D03*
D19*
X26570000Y-61160000D03*
D18*
X29110000Y-56080000D03*
%TD*%
D17*
%TO.C,SW17*%
X82827177Y-99767867D03*
D18*
X91141051Y-103813011D03*
X84446456Y-105211757D03*
D19*
X87830000Y-100650000D03*
D17*
X92832823Y-101532133D03*
%TD*%
D18*
%TO.C,SW14*%
X72230000Y-72590000D03*
X78580000Y-70050000D03*
D17*
X81120000Y-75130000D03*
X70960000Y-75130000D03*
D19*
X76040000Y-75130000D03*
%TD*%
D18*
%TO.C,SW9*%
X72240000Y-55110000D03*
D19*
X76050000Y-57650000D03*
D18*
X78590000Y-52570000D03*
D17*
X81130000Y-57650000D03*
X70970000Y-57650000D03*
%TD*%
D18*
%TO.C,SW8*%
X55765000Y-50710000D03*
D19*
X59575000Y-53250000D03*
D17*
X64655000Y-53250000D03*
X54495000Y-53250000D03*
D18*
X62115000Y-48170000D03*
%TD*%
D25*
%TO.C,J2*%
X107016274Y-47577401D03*
X111031309Y-41843337D03*
%TD*%
D18*
%TO.C,SW10*%
X95090000Y-56070000D03*
D19*
X92550000Y-61150000D03*
D17*
X97630000Y-61150000D03*
D18*
X88740000Y-58610000D03*
D17*
X87470000Y-61150000D03*
%TD*%
%TO.C,SW11*%
X31640000Y-78650000D03*
D18*
X22750000Y-76110000D03*
D19*
X26560000Y-78650000D03*
D18*
X29100000Y-73570000D03*
D17*
X21480000Y-78650000D03*
%TD*%
%TO.C,SW1*%
X31630000Y-43640000D03*
D19*
X26550000Y-43640000D03*
D17*
X21470000Y-43640000D03*
D18*
X22740000Y-41100000D03*
X29090000Y-38560000D03*
%TD*%
%TO.C,SW12*%
X45610000Y-69200000D03*
D17*
X37990000Y-74280000D03*
X48150000Y-74280000D03*
D19*
X43070000Y-74280000D03*
D18*
X39260000Y-71740000D03*
%TD*%
D17*
%TO.C,SW5*%
X97655000Y-43640000D03*
D18*
X90035000Y-48720000D03*
X96385000Y-46180000D03*
D19*
X92575000Y-43640000D03*
D17*
X87495000Y-43640000D03*
%TD*%
%TO.C,SW2*%
X48140000Y-39260000D03*
D18*
X39250000Y-36720000D03*
D19*
X43060000Y-39260000D03*
D18*
X45600000Y-34180000D03*
D17*
X37980000Y-39260000D03*
%TD*%
D18*
%TO.C,SW13*%
X62110000Y-65700000D03*
D19*
X59570000Y-70780000D03*
D18*
X55760000Y-68240000D03*
D17*
X64650000Y-70780000D03*
X54490000Y-70780000D03*
%TD*%
%TO.C,SW16*%
X65180000Y-98780000D03*
D18*
X67720000Y-103860000D03*
D19*
X70260000Y-98780000D03*
D18*
X74070000Y-101320000D03*
D17*
X75340000Y-98780000D03*
%TD*%
%TO.C,SW4*%
X70980000Y-40170000D03*
X81140000Y-40170000D03*
D19*
X76060000Y-40170000D03*
D18*
X79870000Y-42710000D03*
X73520000Y-45250000D03*
%TD*%
D17*
%TO.C,SW18*%
X99966361Y-104552538D03*
X109513639Y-108027462D03*
D19*
X104740000Y-106290000D03*
D18*
X107451498Y-109979916D03*
X100615718Y-110194907D03*
%TD*%
M02*
