M48
; DRILL file {KiCad (6.0.6)} date 2022年09月17日 23時41分45秒
; FORMAT={-:-/ absolute / metric / decimal}
; #@! TF.CreationDate,2022-09-17T23:41:45+09:00
; #@! TF.GenerationSoftware,Kicad,Pcbnew,(6.0.6)
; #@! TF.FileFunction,NonPlated,1,2,NPTH
FMAT,2
METRIC
; #@! TA.AperFunction,NonPlated,NPTH,ComponentDrill
T1C1.200
; #@! TA.AperFunction,NonPlated,NPTH,ComponentDrill
T2C1.700
; #@! TA.AperFunction,NonPlated,NPTH,ComponentDrill
T3C1.900
; #@! TA.AperFunction,NonPlated,NPTH,ComponentDrill
T4C3.000
; #@! TA.AperFunction,NonPlated,NPTH,ComponentDrill
T5C4.000
; #@! TA.AperFunction,NonPlated,NPTH,ComponentDrill
T6C4.100
; #@! TA.AperFunction,NonPlated,NPTH,ComponentDrill
T7C4.500
%
G90
G05
T1
X111.46Y-72.875
X111.46Y-74.625
X118.46Y-72.875
X118.46Y-74.625
T2
X70.29Y-89.08
X80.45Y-89.08
X87.601Y-89.756
X97.705Y-90.818
X104.94Y-93.01
X114.798Y-95.468
T3
X24.96Y-33.93
X24.96Y-51.46
X24.97Y-68.96
X35.12Y-33.93
X35.12Y-51.46
X35.13Y-68.96
X43.09Y-33.95
X43.1Y-51.45
X43.1Y-68.94
X53.25Y-33.95
X53.26Y-51.45
X53.26Y-68.94
X59.63Y-33.95
X59.63Y-51.46
X59.66Y-68.98
X69.79Y-33.95
X69.79Y-51.46
X69.82Y-68.98
X69.87Y-89.08
X76.08Y-68.96
X76.09Y-51.46
X76.1Y-33.93
X80.87Y-89.08
X86.24Y-68.96
X86.25Y-51.46
X86.26Y-33.93
X87.183Y-89.712
X92.59Y-68.96
X92.6Y-51.47
X92.61Y-33.96
X98.123Y-90.862
X102.75Y-68.96
X102.76Y-51.47
X102.77Y-33.96
X104.532Y-92.908
X115.206Y-95.57
T4
X26.23Y-31.39
X26.23Y-48.92
X26.24Y-66.42
X27.5Y-28.85
X27.5Y-46.38
X27.51Y-63.88
X32.58Y-28.85
X32.58Y-46.38
X32.59Y-63.88
X33.85Y-31.39
X33.85Y-48.92
X33.86Y-66.42
X44.36Y-31.41
X44.37Y-48.91
X44.37Y-66.4
X45.63Y-28.87
X45.64Y-46.37
X45.64Y-63.86
X50.71Y-28.87
X50.72Y-46.37
X50.72Y-63.86
X51.98Y-31.41
X51.99Y-48.91
X51.99Y-66.4
X60.9Y-31.41
X60.9Y-48.92
X60.93Y-66.44
X62.17Y-28.87
X62.17Y-46.38
X62.2Y-63.9
X67.25Y-28.87
X67.25Y-46.38
X67.28Y-63.9
X68.52Y-31.41
X68.52Y-48.92
X68.55Y-66.44
X70.37Y-92.78
X71.56Y-86.54
X72.83Y-84.0
X75.37Y-94.98
X77.35Y-66.42
X77.36Y-48.92
X77.37Y-31.39
X77.91Y-84.0
X78.62Y-63.88
X78.63Y-46.38
X78.64Y-28.85
X79.18Y-86.54
X80.37Y-92.78
X83.7Y-63.88
X83.71Y-46.38
X83.72Y-28.85
X84.97Y-66.42
X84.98Y-48.92
X84.99Y-31.39
X87.294Y-93.444
X89.129Y-87.362
X90.658Y-84.969
X92.036Y-96.154
X93.86Y-66.42
X93.87Y-48.93
X93.88Y-31.42
X95.13Y-63.88
X95.14Y-46.39
X95.15Y-28.88
X95.71Y-85.5
X96.708Y-88.159
X97.239Y-94.489
X100.21Y-63.88
X100.22Y-46.39
X100.23Y-28.88
X101.48Y-66.42
X101.49Y-48.93
X101.5Y-31.42
X104.123Y-96.619
X106.787Y-90.853
X108.442Y-99.964
X108.634Y-88.695
X113.563Y-89.924
X113.825Y-99.039
X114.18Y-92.696
T5
X75.37Y-89.08
X92.653Y-90.287
X109.869Y-94.239
T6
X30.04Y-33.93
X30.04Y-51.46
X30.05Y-68.96
X48.17Y-33.95
X48.18Y-51.45
X48.18Y-68.94
X64.71Y-33.95
X64.71Y-51.46
X64.74Y-68.98
X81.16Y-68.96
X81.17Y-51.46
X81.18Y-33.93
X97.67Y-68.96
X97.68Y-51.47
X97.69Y-33.96
T7
X30.04Y-23.95
X52.02Y-80.95
X53.04Y-95.6
X97.68Y-23.95
X112.8Y-84.69
T0
M30
