M48
METRIC,TZ
T1C1.200
T2C1.700
T3C1.900
T4C3.000
T5C4.100
T6C4.300
%
G90
G05
T1
X103780Y-69265
X103780Y-71015
X110780Y-69265
X110780Y-71015
T2
X18920Y-29980
X18920Y-62920
X18930Y-46360
X27920Y-29980
X27920Y-62920
X27930Y-46360
X35400Y-29960
X35430Y-46370
X35470Y-62890
X44400Y-29960
X44430Y-46370
X44470Y-62890
X51900Y-62860
X51910Y-29970
X51930Y-46360
X60900Y-62860
X60910Y-29970
X60930Y-46360
X62670Y-81880
X68390Y-29980
X68450Y-62910
X68460Y-46370
X71670Y-81880
X77390Y-29980
X77450Y-62910
X77460Y-46370
X79781Y-81926
X84890Y-29950
X84960Y-46380
X84970Y-62880
X88759Y-82554
X93890Y-29950
X93960Y-46380
X93970Y-62880
X96824Y-84011
X105556Y-86189
T3
X18340Y-29980
X18340Y-62920
X18350Y-46360
X28500Y-29980
X28500Y-62920
X28510Y-46360
X34820Y-29960
X34850Y-46370
X34890Y-62890
X44980Y-29960
X45010Y-46370
X45050Y-62890
X51320Y-62860
X51330Y-29970
X51350Y-46360
X61480Y-62860
X61490Y-29970
X61510Y-46360
X62090Y-81880
X67810Y-29980
X67870Y-62910
X67880Y-46370
X72250Y-81880
X77970Y-29980
X78030Y-62910
X78040Y-46370
X79202Y-81886
X84310Y-29950
X84380Y-46380
X84390Y-62880
X89338Y-82594
X94470Y-29950
X94540Y-46380
X94550Y-62880
X96261Y-83871
X106119Y-86329
T4
X19610Y-27440
X19610Y-60380
X19620Y-43820
X20880Y-24900
X20880Y-57840
X20890Y-41280
X25960Y-24900
X25960Y-57840
X25970Y-41280
X27230Y-27440
X27230Y-60380
X27240Y-43820
X36090Y-27420
X36120Y-43830
X36160Y-60350
X37360Y-24880
X37390Y-41290
X37430Y-57810
X42440Y-24880
X42470Y-41290
X42510Y-57810
X43710Y-27420
X43740Y-43830
X43780Y-60350
X52590Y-60320
X52600Y-27430
X52620Y-43820
X53860Y-57780
X53870Y-24890
X53890Y-41280
X58940Y-57780
X58950Y-24890
X58970Y-41280
X60210Y-60320
X60220Y-27430
X60240Y-43820
X63360Y-79340
X64630Y-76800
X69080Y-27440
X69140Y-60370
X69150Y-43830
X69710Y-76800
X70350Y-24900
X70410Y-57830
X70420Y-41290
X70980Y-79340
X75430Y-24900
X75490Y-57830
X75500Y-41290
X76700Y-27440
X76760Y-60370
X76770Y-43830
X80646Y-79440
X82091Y-76995
X85580Y-27410
X85650Y-43840
X85660Y-60340
X86850Y-24870
X86920Y-41300
X86930Y-57800
X87158Y-77350
X88248Y-79972
X91930Y-24870
X92000Y-41300
X92010Y-57800
X93200Y-27410
X93270Y-43840
X93280Y-60340
X98108Y-81714
X99954Y-79556
X104884Y-80785
X105501Y-83557
T5
X23420Y-29980
X23420Y-62920
X23430Y-46360
X39900Y-29960
X39930Y-46370
X39970Y-62890
X56400Y-62860
X56410Y-29970
X56430Y-46360
X67170Y-81880
X72890Y-29980
X72950Y-62910
X72960Y-46370
X84270Y-82240
X89390Y-29950
X89460Y-46380
X89470Y-62880
X101190Y-85100
T6
X23570Y-19920
X48460Y-74800
X89550Y-19930
X94740Y-73210
T0
M30
