M48
METRIC,TZ
T1C0.300
T2C0.400
T3C0.800
T4C1.000
%
G90
G05
T1
X17430Y-36090
X19737Y-53910
X28010Y-72850
X29867Y-49796
X30170Y-52720
X31670Y-32730
X42030Y-75960
X42470Y-20990
X49170Y-84040
X76110Y-84250
X78920Y-35480
X80510Y-33020
X81440Y-66200
X92230Y-87060
X93260Y-53860
T2
X20400Y-50170
X21655Y-34861
X23944Y-67130
X25417Y-49073
X25441Y-31872
X30747Y-78407
X31035Y-42150
X31553Y-61946
X32267Y-88884
X32970Y-54104
X33324Y-51440
X36277Y-48887
X36920Y-66710
X37128Y-34757
X40413Y-33538
X40441Y-50459
X40479Y-66310
X47680Y-34587
X49400Y-53160
X54151Y-51273
X55196Y-34846
X55900Y-66949
X56357Y-78854
X58215Y-49087
X59431Y-66650
X59602Y-33668
X63895Y-25392
X63895Y-42150
X68989Y-84607
X71145Y-34878
X72560Y-74948
X74705Y-65017
X75180Y-86490
X75815Y-65787
X75999Y-50133
X77040Y-33800
X83418Y-34600
X86418Y-66962
X86424Y-49682
X87928Y-85878
X90269Y-74498
X91356Y-64961
X92439Y-33608
X92533Y-66868
X92860Y-49220
X102857Y-88057
X103379Y-89741
T3
X19267Y-75519
X19267Y-90754
X20566Y-76916
X20566Y-92151
X21808Y-75519
X21808Y-90754
X23107Y-76916
X23107Y-92151
X24348Y-75519
X24348Y-90754
X25646Y-76916
X25646Y-92151
X26888Y-75519
X26888Y-90754
X28187Y-76916
X28187Y-92151
X29428Y-75519
X29428Y-90754
X30726Y-76916
X30726Y-92151
X31967Y-75519
X31967Y-90754
X33267Y-76916
X33267Y-92151
X34508Y-75519
X34508Y-90754
X35807Y-76916
X35807Y-92151
T4
G00X100730Y-68915
M15
G01X100230Y-68915
M16
G05
G00X100730Y-71365
M15
G01X100230Y-71365
M16
G05
G00X102230Y-67165
M15
G01X101730Y-67165
M16
G05
G00X102230Y-73115
M15
G01X101730Y-73115
M16
G05
G00X106230Y-67165
M15
G01X105730Y-67165
M16
G05
G00X106230Y-73115
M15
G01X105730Y-73115
M16
G05
G00X109230Y-67165
M15
G01X108730Y-67165
M16
G05
G00X109230Y-73115
M15
G01X108730Y-73115
M16
G05
T0
M30
