%TF.GenerationSoftware,KiCad,Pcbnew,(6.0.9)*%
%TF.CreationDate,2023-01-09T12:53:46+09:00*%
%TF.ProjectId,split-mini__left,73706c69-742d-46d6-996e-695f5f6c6566,rev?*%
%TF.SameCoordinates,Original*%
%TF.FileFunction,Soldermask,Top*%
%TF.FilePolarity,Negative*%
%FSLAX46Y46*%
G04 Gerber Fmt 4.6, Leading zero omitted, Abs format (unit mm)*
G04 Created by KiCad (PCBNEW (6.0.9)) date 2023-01-09 12:53:46*
%MOMM*%
%LPD*%
G01*
G04 APERTURE LIST*
%TA.AperFunction,Profile*%
%ADD10C,0.100000*%
%TD*%
%ADD11C,1.900000*%
%ADD12C,4.100000*%
%ADD13C,3.000000*%
%ADD14C,0.650000*%
%ADD15O,1.000000X1.800000*%
%ADD16O,1.000000X2.100000*%
%ADD17C,1.200000*%
%ADD18O,1.700000X2.500000*%
G04 APERTURE END LIST*
D10*
X45300000Y-24800000D02*
X51300000Y-24800000D01*
X112386197Y-19800000D02*
X112386197Y-101650000D01*
X34300000Y-20168424D02*
X45300000Y-20168424D01*
X17586197Y-30800000D02*
X34300000Y-30800000D01*
X105886197Y-19800000D02*
X112386197Y-19800000D01*
X105886197Y-30800000D02*
X105886197Y-19800000D01*
X34300000Y-30800000D02*
X34300000Y-20168424D01*
X17586197Y-101650000D02*
X17586197Y-30800000D01*
X51300000Y-24800000D02*
X51300000Y-30800000D01*
X51300000Y-30800000D02*
X105886197Y-30800000D01*
X45300000Y-20168424D02*
X45300000Y-24800000D01*
X112386197Y-101650000D02*
X17586197Y-101650000D01*
D11*
%TO.C,SW15*%
X100155000Y-74300000D03*
D12*
X95075000Y-74300000D03*
D13*
X91265000Y-71760000D03*
D11*
X89995000Y-74300000D03*
D13*
X97615000Y-69220000D03*
%TD*%
D11*
%TO.C,SW7*%
X38995000Y-59850000D03*
X49155000Y-59850000D03*
D13*
X46615000Y-54770000D03*
D12*
X44075000Y-59850000D03*
D13*
X40265000Y-57310000D03*
%TD*%
D11*
%TO.C,SW3*%
X55995000Y-40300000D03*
D13*
X57265000Y-37760000D03*
D12*
X61075000Y-40300000D03*
D13*
X63615000Y-35220000D03*
D11*
X66155000Y-40300000D03*
%TD*%
D13*
%TO.C,SW6*%
X29640000Y-59020000D03*
D11*
X22020000Y-64100000D03*
D12*
X27100000Y-64100000D03*
D11*
X32180000Y-64100000D03*
D13*
X23290000Y-61560000D03*
%TD*%
%TO.C,SW17*%
X87415000Y-87070000D03*
D11*
X79795000Y-92150000D03*
D12*
X84875000Y-92150000D03*
D13*
X81065000Y-89610000D03*
D11*
X89955000Y-92150000D03*
%TD*%
D13*
%TO.C,SW14*%
X80625000Y-69235000D03*
X74275000Y-71775000D03*
D12*
X78085000Y-74315000D03*
D11*
X83165000Y-74315000D03*
X73005000Y-74315000D03*
%TD*%
D13*
%TO.C,SW9*%
X74265000Y-54760000D03*
D12*
X78075000Y-57300000D03*
D13*
X80615000Y-52220000D03*
D11*
X83155000Y-57300000D03*
X72995000Y-57300000D03*
%TD*%
D13*
%TO.C,SW8*%
X57265000Y-54760000D03*
D11*
X55995000Y-57300000D03*
D12*
X61075000Y-57300000D03*
D13*
X63615000Y-52220000D03*
D11*
X66155000Y-57300000D03*
%TD*%
%TO.C,SW10*%
X100130000Y-57300000D03*
D12*
X95050000Y-57300000D03*
D11*
X89970000Y-57300000D03*
D13*
X91240000Y-54760000D03*
X97590000Y-52220000D03*
%TD*%
D12*
%TO.C,SW11*%
X27085000Y-81080000D03*
D13*
X23275000Y-78540000D03*
D11*
X32165000Y-81080000D03*
D13*
X29625000Y-76000000D03*
D11*
X22005000Y-81080000D03*
%TD*%
%TO.C,SW1*%
X22020000Y-47075000D03*
X32180000Y-47075000D03*
D13*
X23290000Y-44535000D03*
X29640000Y-41995000D03*
D12*
X27100000Y-47075000D03*
%TD*%
D13*
%TO.C,SW12*%
X40240000Y-74285000D03*
D11*
X49130000Y-76825000D03*
D13*
X46590000Y-71745000D03*
D11*
X38970000Y-76825000D03*
D12*
X44050000Y-76825000D03*
%TD*%
D11*
%TO.C,SW5*%
X100155000Y-40300000D03*
X89995000Y-40300000D03*
D13*
X97615000Y-35220000D03*
X91265000Y-37760000D03*
D12*
X95075000Y-40300000D03*
%TD*%
D11*
%TO.C,SW2*%
X38995000Y-42850000D03*
D12*
X44075000Y-42850000D03*
D13*
X46615000Y-37770000D03*
X40265000Y-40310000D03*
D11*
X49155000Y-42850000D03*
%TD*%
%TO.C,SW13*%
X66155000Y-74275000D03*
X55995000Y-74275000D03*
D13*
X57265000Y-71735000D03*
X63615000Y-69195000D03*
D12*
X61075000Y-74275000D03*
%TD*%
D11*
%TO.C,SW16*%
X62795000Y-92150000D03*
D13*
X70415000Y-87070000D03*
D11*
X72955000Y-92150000D03*
D13*
X64065000Y-89610000D03*
D12*
X67875000Y-92150000D03*
%TD*%
%TO.C,SW4*%
X78075000Y-40300000D03*
D11*
X83155000Y-40300000D03*
X72995000Y-40300000D03*
D13*
X74265000Y-37760000D03*
X80615000Y-35220000D03*
%TD*%
D11*
%TO.C,SW18*%
X96795000Y-92150000D03*
D13*
X104415000Y-87070000D03*
X98065000Y-89610000D03*
D11*
X106955000Y-92150000D03*
D12*
X101875000Y-92150000D03*
%TD*%
D14*
%TO.C,J1*%
X36885000Y-25225000D03*
X42665000Y-25225000D03*
D15*
X44095000Y-21545000D03*
D16*
X35455000Y-25725000D03*
X44095000Y-25725000D03*
D15*
X35455000Y-21545000D03*
%TD*%
D17*
%TO.C,J2*%
X109150000Y-28275000D03*
X109150000Y-21275000D03*
D18*
X111250000Y-31575000D03*
X107050000Y-23075000D03*
X107050000Y-26075000D03*
X107050000Y-30075000D03*
%TD*%
M02*
