%TF.GenerationSoftware,KiCad,Pcbnew,(6.0.9)*%
%TF.CreationDate,2023-01-09T12:53:46+09:00*%
%TF.ProjectId,split-mini__left,73706c69-742d-46d6-996e-695f5f6c6566,rev?*%
%TF.SameCoordinates,Original*%
%TF.FileFunction,Soldermask,Bot*%
%TF.FilePolarity,Negative*%
%FSLAX46Y46*%
G04 Gerber Fmt 4.6, Leading zero omitted, Abs format (unit mm)*
G04 Created by KiCad (PCBNEW (6.0.9)) date 2023-01-09 12:53:46*
%MOMM*%
%LPD*%
G01*
G04 APERTURE LIST*
G04 Aperture macros list*
%AMRoundRect*
0 Rectangle with rounded corners*
0 $1 Rounding radius*
0 $2 $3 $4 $5 $6 $7 $8 $9 X,Y pos of 4 corners*
0 Add a 4 corners polygon primitive as box body*
4,1,4,$2,$3,$4,$5,$6,$7,$8,$9,$2,$3,0*
0 Add four circle primitives for the rounded corners*
1,1,$1+$1,$2,$3*
1,1,$1+$1,$4,$5*
1,1,$1+$1,$6,$7*
1,1,$1+$1,$8,$9*
0 Add four rect primitives between the rounded corners*
20,1,$1+$1,$2,$3,$4,$5,0*
20,1,$1+$1,$4,$5,$6,$7,0*
20,1,$1+$1,$6,$7,$8,$9,0*
20,1,$1+$1,$8,$9,$2,$3,0*%
G04 Aperture macros list end*
%TA.AperFunction,Profile*%
%ADD10C,0.100000*%
%TD*%
%ADD11C,1.900000*%
%ADD12C,4.100000*%
%ADD13C,3.000000*%
%ADD14R,2.550000X2.500000*%
%ADD15C,0.650000*%
%ADD16R,0.580000X1.400000*%
%ADD17R,0.280000X1.400000*%
%ADD18O,1.000000X1.800000*%
%ADD19O,1.000000X2.100000*%
%ADD20RoundRect,0.137500X-0.137500X0.600000X-0.137500X-0.600000X0.137500X-0.600000X0.137500X0.600000X0*%
%ADD21RoundRect,0.137500X-0.600000X0.137500X-0.600000X-0.137500X0.600000X-0.137500X0.600000X0.137500X0*%
%ADD22RoundRect,0.250000X-0.625000X0.375000X-0.625000X-0.375000X0.625000X-0.375000X0.625000X0.375000X0*%
%ADD23RoundRect,0.250000X0.262500X0.450000X-0.262500X0.450000X-0.262500X-0.450000X0.262500X-0.450000X0*%
%ADD24RoundRect,0.250000X-0.262500X-0.450000X0.262500X-0.450000X0.262500X0.450000X-0.262500X0.450000X0*%
%ADD25RoundRect,0.250000X-0.250000X-0.475000X0.250000X-0.475000X0.250000X0.475000X-0.250000X0.475000X0*%
%ADD26C,1.200000*%
%ADD27RoundRect,0.250000X0.250000X0.475000X-0.250000X0.475000X-0.250000X-0.475000X0.250000X-0.475000X0*%
%ADD28R,0.650000X1.050000*%
%ADD29R,1.800000X2.100000*%
%ADD30RoundRect,0.250000X-0.475000X0.250000X-0.475000X-0.250000X0.475000X-0.250000X0.475000X0.250000X0*%
%ADD31RoundRect,0.250000X-0.450000X0.262500X-0.450000X-0.262500X0.450000X-0.262500X0.450000X0.262500X0*%
G04 APERTURE END LIST*
D10*
X45300000Y-24800000D02*
X51300000Y-24800000D01*
X112386197Y-19800000D02*
X112386197Y-101650000D01*
X34300000Y-20168424D02*
X45300000Y-20168424D01*
X17586197Y-30800000D02*
X34300000Y-30800000D01*
X105886197Y-19800000D02*
X112386197Y-19800000D01*
X105886197Y-30800000D02*
X105886197Y-19800000D01*
X34300000Y-30800000D02*
X34300000Y-20168424D01*
X17586197Y-101650000D02*
X17586197Y-30800000D01*
X51300000Y-24800000D02*
X51300000Y-30800000D01*
X51300000Y-30800000D02*
X105886197Y-30800000D01*
X45300000Y-20168424D02*
X45300000Y-24800000D01*
X112386197Y-101650000D02*
X17586197Y-101650000D01*
D11*
%TO.C,SW15*%
X100155000Y-74300000D03*
D12*
X95075000Y-74300000D03*
D13*
X91265000Y-71760000D03*
D11*
X89995000Y-74300000D03*
D13*
X97615000Y-69220000D03*
D14*
X87990000Y-71760000D03*
X100917000Y-69220000D03*
%TD*%
D11*
%TO.C,SW7*%
X38995000Y-59850000D03*
X49155000Y-59850000D03*
D13*
X46615000Y-54770000D03*
D12*
X44075000Y-59850000D03*
D13*
X40265000Y-57310000D03*
D14*
X36990000Y-57310000D03*
X49917000Y-54770000D03*
%TD*%
D11*
%TO.C,SW3*%
X55995000Y-40300000D03*
D13*
X57265000Y-37760000D03*
D12*
X61075000Y-40300000D03*
D13*
X63615000Y-35220000D03*
D11*
X66155000Y-40300000D03*
D14*
X53990000Y-37760000D03*
X66917000Y-35220000D03*
%TD*%
D13*
%TO.C,SW6*%
X29640000Y-59020000D03*
D11*
X22020000Y-64100000D03*
D12*
X27100000Y-64100000D03*
D11*
X32180000Y-64100000D03*
D13*
X23290000Y-61560000D03*
D14*
X20015000Y-61560000D03*
X32942000Y-59020000D03*
%TD*%
D13*
%TO.C,SW17*%
X87415000Y-87070000D03*
D11*
X79795000Y-92150000D03*
D12*
X84875000Y-92150000D03*
D13*
X81065000Y-89610000D03*
D11*
X89955000Y-92150000D03*
D14*
X77790000Y-89610000D03*
X90717000Y-87070000D03*
%TD*%
D13*
%TO.C,SW14*%
X80625000Y-69235000D03*
X74275000Y-71775000D03*
D12*
X78085000Y-74315000D03*
D11*
X83165000Y-74315000D03*
X73005000Y-74315000D03*
D14*
X71000000Y-71775000D03*
X83927000Y-69235000D03*
%TD*%
D13*
%TO.C,SW9*%
X74265000Y-54760000D03*
D12*
X78075000Y-57300000D03*
D13*
X80615000Y-52220000D03*
D11*
X83155000Y-57300000D03*
X72995000Y-57300000D03*
D14*
X70990000Y-54760000D03*
X83917000Y-52220000D03*
%TD*%
D13*
%TO.C,SW8*%
X57265000Y-54760000D03*
D11*
X55995000Y-57300000D03*
D12*
X61075000Y-57300000D03*
D13*
X63615000Y-52220000D03*
D11*
X66155000Y-57300000D03*
D14*
X53990000Y-54760000D03*
X66917000Y-52220000D03*
%TD*%
D11*
%TO.C,SW10*%
X100130000Y-57300000D03*
D12*
X95050000Y-57300000D03*
D11*
X89970000Y-57300000D03*
D13*
X91240000Y-54760000D03*
X97590000Y-52220000D03*
D14*
X87965000Y-54760000D03*
X100892000Y-52220000D03*
%TD*%
D12*
%TO.C,SW11*%
X27085000Y-81080000D03*
D13*
X23275000Y-78540000D03*
D11*
X32165000Y-81080000D03*
D13*
X29625000Y-76000000D03*
D11*
X22005000Y-81080000D03*
D14*
X20000000Y-78540000D03*
X32927000Y-76000000D03*
%TD*%
D11*
%TO.C,SW1*%
X22020000Y-47075000D03*
X32180000Y-47075000D03*
D13*
X23290000Y-44535000D03*
X29640000Y-41995000D03*
D12*
X27100000Y-47075000D03*
D14*
X20015000Y-44535000D03*
X32942000Y-41995000D03*
%TD*%
D13*
%TO.C,SW12*%
X40240000Y-74285000D03*
D11*
X49130000Y-76825000D03*
D13*
X46590000Y-71745000D03*
D11*
X38970000Y-76825000D03*
D12*
X44050000Y-76825000D03*
D14*
X36965000Y-74285000D03*
X49892000Y-71745000D03*
%TD*%
D11*
%TO.C,SW5*%
X100155000Y-40300000D03*
X89995000Y-40300000D03*
D13*
X97615000Y-35220000D03*
X91265000Y-37760000D03*
D12*
X95075000Y-40300000D03*
D14*
X87990000Y-37760000D03*
X100917000Y-35220000D03*
%TD*%
D11*
%TO.C,SW2*%
X38995000Y-42850000D03*
D12*
X44075000Y-42850000D03*
D13*
X46615000Y-37770000D03*
X40265000Y-40310000D03*
D11*
X49155000Y-42850000D03*
D14*
X36990000Y-40310000D03*
X49917000Y-37770000D03*
%TD*%
D11*
%TO.C,SW13*%
X66155000Y-74275000D03*
X55995000Y-74275000D03*
D13*
X57265000Y-71735000D03*
X63615000Y-69195000D03*
D12*
X61075000Y-74275000D03*
D14*
X53990000Y-71735000D03*
X66917000Y-69195000D03*
%TD*%
D11*
%TO.C,SW16*%
X62795000Y-92150000D03*
D13*
X70415000Y-87070000D03*
D11*
X72955000Y-92150000D03*
D13*
X64065000Y-89610000D03*
D12*
X67875000Y-92150000D03*
D14*
X60790000Y-89610000D03*
X73717000Y-87070000D03*
%TD*%
D12*
%TO.C,SW4*%
X78075000Y-40300000D03*
D11*
X83155000Y-40300000D03*
X72995000Y-40300000D03*
D13*
X74265000Y-37760000D03*
X80615000Y-35220000D03*
D14*
X70990000Y-37760000D03*
X83917000Y-35220000D03*
%TD*%
D11*
%TO.C,SW18*%
X96795000Y-92150000D03*
D13*
X104415000Y-87070000D03*
X98065000Y-89610000D03*
D11*
X106955000Y-92150000D03*
D12*
X101875000Y-92150000D03*
D14*
X94790000Y-89610000D03*
X107717000Y-87070000D03*
%TD*%
D15*
%TO.C,J1*%
X36885000Y-25225000D03*
X42665000Y-25225000D03*
D16*
X36575000Y-26425000D03*
X37375000Y-26425000D03*
D17*
X38525000Y-26425000D03*
X39525000Y-26425000D03*
X40025000Y-26425000D03*
X41025000Y-26425000D03*
D16*
X42175000Y-26425000D03*
X42975000Y-26425000D03*
X42975000Y-26425000D03*
X42175000Y-26425000D03*
D17*
X41525000Y-26425000D03*
X40525000Y-26425000D03*
X39025000Y-26425000D03*
X38025000Y-26425000D03*
D16*
X37375000Y-26425000D03*
X36575000Y-26425000D03*
D18*
X44095000Y-21545000D03*
D19*
X35455000Y-25725000D03*
X44095000Y-25725000D03*
D18*
X35455000Y-21545000D03*
%TD*%
D20*
%TO.C,U1*%
X38040000Y-85552500D03*
X38840000Y-85552500D03*
X39640000Y-85552500D03*
X40440000Y-85552500D03*
X41240000Y-85552500D03*
X42040000Y-85552500D03*
X42840000Y-85552500D03*
X43640000Y-85552500D03*
X44440000Y-85552500D03*
X45240000Y-85552500D03*
X46040000Y-85552500D03*
D21*
X47702500Y-87215000D03*
X47702500Y-88015000D03*
X47702500Y-88815000D03*
X47702500Y-89615000D03*
X47702500Y-90415000D03*
X47702500Y-91215000D03*
X47702500Y-92015000D03*
X47702500Y-92815000D03*
X47702500Y-93615000D03*
X47702500Y-94415000D03*
X47702500Y-95215000D03*
D20*
X46040000Y-96877500D03*
X45240000Y-96877500D03*
X44440000Y-96877500D03*
X43640000Y-96877500D03*
X42840000Y-96877500D03*
X42040000Y-96877500D03*
X41240000Y-96877500D03*
X40440000Y-96877500D03*
X39640000Y-96877500D03*
X38840000Y-96877500D03*
X38040000Y-96877500D03*
D21*
X36377500Y-95215000D03*
X36377500Y-94415000D03*
X36377500Y-93615000D03*
X36377500Y-92815000D03*
X36377500Y-92015000D03*
X36377500Y-91215000D03*
X36377500Y-90415000D03*
X36377500Y-89615000D03*
X36377500Y-88815000D03*
X36377500Y-88015000D03*
X36377500Y-87215000D03*
%TD*%
D22*
%TO.C,F1*%
X20425000Y-33650000D03*
X20425000Y-36450000D03*
%TD*%
D23*
%TO.C,R5*%
X32882500Y-98585000D03*
X31057500Y-98585000D03*
%TD*%
D24*
%TO.C,R1*%
X43487500Y-34050000D03*
X45312500Y-34050000D03*
%TD*%
D25*
%TO.C,C5*%
X26280000Y-90785000D03*
X28180000Y-90785000D03*
%TD*%
D26*
%TO.C,J2*%
X109150000Y-28275000D03*
X109150000Y-21275000D03*
%TD*%
D27*
%TO.C,C7*%
X56690000Y-88895000D03*
X54790000Y-88895000D03*
%TD*%
D24*
%TO.C,R2*%
X43487500Y-31300000D03*
X45312500Y-31300000D03*
%TD*%
D28*
%TO.C,RESET1*%
X49730000Y-30055000D03*
X49730000Y-25895000D03*
X47570000Y-30055000D03*
X47570000Y-25895000D03*
%TD*%
D29*
%TO.C,Y1*%
X54710000Y-95015000D03*
X54710000Y-92115000D03*
X56910000Y-92115000D03*
X56910000Y-95015000D03*
%TD*%
D25*
%TO.C,C4*%
X47750000Y-99765000D03*
X49650000Y-99765000D03*
%TD*%
D30*
%TO.C,C2*%
X33640000Y-83565000D03*
X33640000Y-85465000D03*
%TD*%
D23*
%TO.C,R6*%
X52162500Y-33225000D03*
X50337500Y-33225000D03*
%TD*%
D27*
%TO.C,C6*%
X56700000Y-98575000D03*
X54800000Y-98575000D03*
%TD*%
D31*
%TO.C,R4*%
X36625000Y-49887500D03*
X36625000Y-49887500D03*
X36625000Y-51712500D03*
%TD*%
%TO.C,R3*%
X34025000Y-49837500D03*
X34025000Y-51662500D03*
%TD*%
D27*
%TO.C,C3*%
X44040000Y-81145000D03*
X42140000Y-81145000D03*
%TD*%
D25*
%TO.C,C1*%
X53950000Y-81035000D03*
X55850000Y-81035000D03*
%TD*%
M02*
