M48
METRIC,TZ
T1C0.400
T2C0.600
T3C1.000
%
G90
G05
T1
X30000Y-72300
X30050Y-35150
X40300Y-90100
X45900Y-40700
X46200Y-56000
X46300Y-74500
X56800Y-90000
X62500Y-55600
X62500Y-74000
X62800Y-41700
X73400Y-89500
X77825Y-74075
X79100Y-41100
X79100Y-56100
X80900Y-84900
X82276Y-80475
X82700Y-86349
X84900Y-86200
X85000Y-84000
X85000Y-87200
X85100Y-85100
X85200Y-82800
X88100Y-76900
X88300Y-92200
X89200Y-92826
X90091Y-76350
X90200Y-93276
X90850Y-75550
X91092Y-93726
X91666Y-76417
X91985Y-94176
X92099Y-75451
X92450Y-73050
X92871Y-94637
X94039Y-76200
X94305Y-77345
X94450Y-35650
X94900Y-47600
X95350Y-68450
X95450Y-77350
X95500Y-72100
X95976Y-47737
X96425Y-93625
X96450Y-51900
X96650Y-77350
X97500Y-78100
X98750Y-79850
X100830Y-81430
X101013Y-79954
X101926Y-27626
X102900Y-27000
X103875Y-86539
X104140Y-91440
X105026Y-85740
X106451Y-83113
X106700Y-27725
X107400Y-81250
X107650Y-27000
X109025Y-63325
X110575Y-47575
X110900Y-78800
X110962Y-77687
X111925Y-32400
T2
G00X100780Y-20060
M15
G01X100780Y-20860
M16
G05
G00X100780Y-24090
M15
G01X100780Y-25190
M16
G05
G00X109420Y-20060
M15
G01X109420Y-20860
M16
G05
G00X109420Y-24090
M15
G01X109420Y-25190
M16
G05
T3
G00X20800Y-22400
M15
G01X20800Y-21900
M16
G05
G00X20800Y-25400
M15
G01X20800Y-24900
M16
G05
G00X20800Y-29400
M15
G01X20800Y-28900
M16
G05
G00X25000Y-30900
M15
G01X25000Y-30400
M16
G05
T0
M30
