M48
METRIC,TZ
T1C0.650
T2C1.200
T3C1.900
T4C3.000
T5C4.100
%
G90
G05
T1
X102210Y-24140
X107990Y-24140
T2
X22900Y-20350
X22900Y-27350
T3
X28270Y-86200
X34020Y-52400
X34040Y-35870
X34050Y-68950
X38430Y-86200
X44180Y-52400
X44200Y-35870
X44210Y-68950
X44760Y-86220
X50520Y-52400
X50520Y-68900
X50530Y-35870
X54920Y-86220
X60680Y-52400
X60680Y-68900
X60690Y-35870
X61280Y-86210
X67000Y-52380
X67020Y-35870
X67020Y-68900
X71440Y-86210
X77160Y-52380
X77180Y-35870
X77180Y-68900
X83490Y-54860
X83490Y-71350
X83520Y-38350
X93650Y-54860
X93650Y-71350
X93680Y-38350
X100020Y-73850
X100030Y-57400
X100050Y-40870
X110180Y-73850
X110190Y-57400
X110210Y-40870
T4
X29540Y-83660
X35290Y-49860
X35310Y-33330
X35320Y-66410
X35890Y-81120
X41640Y-47320
X41660Y-30790
X41670Y-63870
X46030Y-83680
X51790Y-49860
X51790Y-66360
X51800Y-33330
X52380Y-81140
X58140Y-47320
X58140Y-63820
X58150Y-30790
X62550Y-83670
X68270Y-49840
X68290Y-33330
X68290Y-66360
X68900Y-81130
X74620Y-47300
X74640Y-30790
X74640Y-63820
X84760Y-52320
X84760Y-68810
X84790Y-35810
X91110Y-49780
X91110Y-66270
X91140Y-33270
X101290Y-71310
X101300Y-54860
X101320Y-38330
X107640Y-68770
X107650Y-52320
X107670Y-35790
T5
X33350Y-86200
X39100Y-52400
X39120Y-35870
X39130Y-68950
X49840Y-86220
X55600Y-52400
X55600Y-68900
X55610Y-35870
X66360Y-86210
X72080Y-52380
X72100Y-35870
X72100Y-68900
X88570Y-54860
X88570Y-71350
X88600Y-38350
X105100Y-73850
X105110Y-57400
X105130Y-40870
T0
M30
