M48
; DRILL file {KiCad (6.0.6)} date 2022年09月02日 08時16分23秒
; FORMAT={-:-/ absolute / metric / decimal}
; #@! TF.CreationDate,2022-09-02T08:16:23+09:00
; #@! TF.GenerationSoftware,Kicad,Pcbnew,(6.0.6)
; #@! TF.FileFunction,NonPlated,1,2,NPTH
FMAT,2
METRIC
; #@! TA.AperFunction,NonPlated,NPTH,ComponentDrill
T1C1.200
; #@! TA.AperFunction,NonPlated,NPTH,ComponentDrill
T2C1.700
; #@! TA.AperFunction,NonPlated,NPTH,ComponentDrill
T3C1.900
; #@! TA.AperFunction,NonPlated,NPTH,ComponentDrill
T4C3.000
; #@! TA.AperFunction,NonPlated,NPTH,ComponentDrill
T5C4.100
; #@! TA.AperFunction,NonPlated,NPTH,ComponentDrill
T6C4.300
%
G90
G05
T1
X103.78Y-69.265
X103.78Y-71.015
X110.78Y-69.265
X110.78Y-71.015
T2
X18.92Y-29.98
X18.92Y-62.92
X18.93Y-46.36
X27.92Y-29.98
X27.92Y-62.92
X27.93Y-46.36
X35.4Y-29.96
X35.43Y-46.37
X35.47Y-62.89
X44.4Y-29.96
X44.43Y-46.37
X44.47Y-62.89
X51.9Y-62.86
X51.91Y-29.97
X51.93Y-46.36
X60.9Y-62.86
X60.91Y-29.97
X60.93Y-46.36
X62.67Y-81.88
X68.39Y-29.98
X68.45Y-62.91
X68.46Y-46.37
X71.67Y-81.88
X77.39Y-29.98
X77.45Y-62.91
X77.46Y-46.37
X79.781Y-81.926
X84.89Y-29.95
X84.96Y-46.38
X84.97Y-62.88
X88.759Y-82.554
X93.89Y-29.95
X93.96Y-46.38
X93.97Y-62.88
X96.824Y-84.011
X105.556Y-86.189
T3
X18.34Y-29.98
X18.34Y-62.92
X18.35Y-46.36
X28.5Y-29.98
X28.5Y-62.92
X28.51Y-46.36
X34.82Y-29.96
X34.85Y-46.37
X34.89Y-62.89
X44.98Y-29.96
X45.01Y-46.37
X45.05Y-62.89
X51.32Y-62.86
X51.33Y-29.97
X51.35Y-46.36
X61.48Y-62.86
X61.49Y-29.97
X61.51Y-46.36
X62.09Y-81.88
X67.81Y-29.98
X67.87Y-62.91
X67.88Y-46.37
X72.25Y-81.88
X77.97Y-29.98
X78.03Y-62.91
X78.04Y-46.37
X79.202Y-81.886
X84.31Y-29.95
X84.38Y-46.38
X84.39Y-62.88
X89.338Y-82.594
X94.47Y-29.95
X94.54Y-46.38
X94.55Y-62.88
X96.261Y-83.871
X106.119Y-86.329
T4
X19.61Y-27.44
X19.61Y-60.38
X19.62Y-43.82
X20.88Y-24.9
X20.88Y-57.84
X20.89Y-41.28
X25.96Y-24.9
X25.96Y-57.84
X25.97Y-41.28
X27.23Y-27.44
X27.23Y-60.38
X27.24Y-43.82
X36.09Y-27.42
X36.12Y-43.83
X36.16Y-60.35
X37.36Y-24.88
X37.39Y-41.29
X37.43Y-57.81
X42.44Y-24.88
X42.47Y-41.29
X42.51Y-57.81
X43.71Y-27.42
X43.74Y-43.83
X43.78Y-60.35
X52.59Y-60.32
X52.6Y-27.43
X52.62Y-43.82
X53.86Y-57.78
X53.87Y-24.89
X53.89Y-41.28
X58.94Y-57.78
X58.95Y-24.89
X58.97Y-41.28
X60.21Y-60.32
X60.22Y-27.43
X60.24Y-43.82
X63.36Y-79.34
X64.63Y-76.8
X69.08Y-27.44
X69.14Y-60.37
X69.15Y-43.83
X69.71Y-76.8
X70.35Y-24.9
X70.41Y-57.83
X70.42Y-41.29
X70.98Y-79.34
X75.43Y-24.9
X75.49Y-57.83
X75.5Y-41.29
X76.7Y-27.44
X76.76Y-60.37
X76.77Y-43.83
X80.646Y-79.44
X82.091Y-76.995
X85.58Y-27.41
X85.65Y-43.84
X85.66Y-60.34
X86.85Y-24.87
X86.92Y-41.3
X86.93Y-57.8
X87.158Y-77.35
X88.248Y-79.972
X91.93Y-24.87
X92.0Y-41.3
X92.01Y-57.8
X93.2Y-27.41
X93.27Y-43.84
X93.28Y-60.34
X98.108Y-81.714
X99.954Y-79.556
X104.884Y-80.785
X105.501Y-83.557
T5
X23.42Y-29.98
X23.42Y-62.92
X23.43Y-46.36
X39.9Y-29.96
X39.93Y-46.37
X39.97Y-62.89
X56.4Y-62.86
X56.41Y-29.97
X56.43Y-46.36
X67.17Y-81.88
X72.89Y-29.98
X72.95Y-62.91
X72.96Y-46.37
X84.27Y-82.24
X89.39Y-29.95
X89.46Y-46.38
X89.47Y-62.88
X101.19Y-85.1
T6
X23.57Y-19.92
X48.46Y-74.8
X89.55Y-19.93
X94.74Y-73.21
T0
M30
