M48
; DRILL file {KiCad (6.0.6)} date 2022年09月02日 08時16分23秒
; FORMAT={-:-/ absolute / metric / decimal}
; #@! TF.CreationDate,2022-09-02T08:16:23+09:00
; #@! TF.GenerationSoftware,Kicad,Pcbnew,(6.0.6)
; #@! TF.FileFunction,Plated,1,2,PTH
FMAT,2
METRIC
; #@! TA.AperFunction,Plated,PTH,ViaDrill
T1C0.300
; #@! TA.AperFunction,Plated,PTH,ViaDrill
T2C0.400
; #@! TA.AperFunction,Plated,PTH,ComponentDrill
T3C0.800
; #@! TA.AperFunction,Plated,PTH,ComponentDrill
T4C1.000
%
G90
G05
T1
X17.43Y-36.09
X19.737Y-53.91
X28.01Y-72.85
X29.867Y-49.796
X30.17Y-52.72
X31.67Y-32.73
X42.03Y-75.96
X42.47Y-20.99
X49.17Y-84.04
X76.11Y-84.25
X78.92Y-35.48
X80.51Y-33.02
X81.44Y-66.2
X92.23Y-87.06
X93.26Y-53.86
T2
X20.4Y-50.17
X21.655Y-34.861
X23.944Y-67.13
X25.417Y-49.073
X25.441Y-31.872
X30.747Y-78.407
X31.035Y-42.15
X31.553Y-61.946
X32.267Y-88.883
X32.97Y-54.104
X33.324Y-51.44
X36.276Y-48.887
X36.92Y-66.71
X37.128Y-34.757
X40.413Y-33.538
X40.441Y-50.459
X40.479Y-66.31
X47.68Y-34.587
X49.4Y-53.16
X54.151Y-51.273
X55.196Y-34.846
X55.899Y-66.949
X56.357Y-78.854
X58.215Y-49.087
X59.431Y-66.65
X59.602Y-33.668
X63.895Y-25.392
X63.895Y-42.15
X68.989Y-84.607
X71.145Y-34.878
X72.56Y-74.948
X74.705Y-65.017
X75.18Y-86.49
X75.815Y-65.787
X75.999Y-50.133
X77.04Y-33.8
X83.418Y-34.6
X86.418Y-66.962
X86.424Y-49.682
X87.928Y-85.877
X90.269Y-74.498
X91.356Y-64.961
X92.439Y-33.608
X92.533Y-66.868
X92.86Y-49.22
X102.857Y-88.057
X103.379Y-89.741
T3
X19.267Y-75.519
X19.267Y-90.754
X20.566Y-76.916
X20.566Y-92.151
X21.807Y-75.519
X21.807Y-90.754
X23.107Y-76.916
X23.107Y-92.151
X24.348Y-75.519
X24.348Y-90.754
X25.646Y-76.916
X25.646Y-92.151
X26.887Y-75.519
X26.887Y-90.754
X28.186Y-76.916
X28.186Y-92.151
X29.427Y-75.519
X29.427Y-90.754
X30.726Y-76.916
X30.726Y-92.151
X31.967Y-75.519
X31.967Y-90.754
X33.267Y-76.916
X33.267Y-92.151
X34.508Y-75.519
X34.508Y-90.754
X35.806Y-76.916
X35.806Y-92.151
T4
G00X100.73Y-68.915
M15
G01X100.23Y-68.915
M16
G05
G00X100.73Y-71.365
M15
G01X100.23Y-71.365
M16
G05
G00X102.23Y-67.165
M15
G01X101.73Y-67.165
M16
G05
G00X102.23Y-73.115
M15
G01X101.73Y-73.115
M16
G05
G00X106.23Y-67.165
M15
G01X105.73Y-67.165
M16
G05
G00X106.23Y-73.115
M15
G01X105.73Y-73.115
M16
G05
G00X109.23Y-67.165
M15
G01X108.73Y-67.165
M16
G05
G00X109.23Y-73.115
M15
G01X108.73Y-73.115
M16
G05
T0
M30
