M48
; DRILL file {KiCad (6.0.6)} date 2022年09月17日 23時41分45秒
; FORMAT={-:-/ absolute / metric / decimal}
; #@! TF.CreationDate,2022-09-17T23:41:45+09:00
; #@! TF.GenerationSoftware,Kicad,Pcbnew,(6.0.6)
; #@! TF.FileFunction,MixedPlating,1,2
FMAT,2
METRIC
; #@! TA.AperFunction,Plated,PTH,ViaDrill
T1C0.300
; #@! TA.AperFunction,Plated,PTH,ViaDrill
T2C0.400
; #@! TA.AperFunction,Plated,PTH,ComponentDrill
T3C0.800
; #@! TA.AperFunction,Plated,PTH,ComponentDrill
T4C1.000
; #@! TA.AperFunction,NonPlated,NPTH,ComponentDrill
T5C1.200
; #@! TA.AperFunction,NonPlated,NPTH,ComponentDrill
T6C1.700
; #@! TA.AperFunction,NonPlated,NPTH,ComponentDrill
T7C1.900
; #@! TA.AperFunction,NonPlated,NPTH,ComponentDrill
T8C3.000
; #@! TA.AperFunction,NonPlated,NPTH,ComponentDrill
T9C4.000
; #@! TA.AperFunction,NonPlated,NPTH,ComponentDrill
T10C4.100
; #@! TA.AperFunction,NonPlated,NPTH,ComponentDrill
T11C4.500
%
G90
G05
T1
X24.0Y-39.0
X24.0Y-73.0
X30.0Y-80.0
X36.74Y-72.82
X37.0Y-60.0
X40.24Y-79.25
X46.84Y-82.5
X53.0Y-58.0
X57.02Y-79.24
X57.15Y-38.1
X61.0Y-58.0
X63.17Y-82.67
X76.0Y-72.0
X77.82Y-35.71
X83.97Y-97.26
X84.0Y-40.0
X91.72Y-80.94
X103.24Y-100.3
X103.511Y-41.001
T2
X22.289Y-50.76
X28.335Y-71.632
X28.753Y-39.008
X30.564Y-37.34
X30.574Y-55.726
X31.025Y-75.015
X31.855Y-73.827
X34.277Y-84.211
X36.36Y-78.46
X37.98Y-94.04
X38.129Y-29.721
X38.888Y-54.87
X39.072Y-74.267
X39.695Y-27.028
X41.18Y-55.45
X44.975Y-36.93
X48.718Y-73.14
X51.237Y-55.23
X53.122Y-54.997
X55.073Y-53.588
X55.635Y-47.148
X57.74Y-73.147
X58.886Y-90.329
X62.362Y-92.328
X62.955Y-38.838
X64.235Y-56.06
X65.512Y-93.818
X66.535Y-71.702
X67.22Y-36.188
X67.799Y-37.656
X68.195Y-54.86
X68.47Y-75.11
X72.167Y-29.597
X72.167Y-37.831
X72.195Y-91.616
X72.23Y-80.75
X72.231Y-64.335
X72.41Y-50.58
X74.17Y-39.288
X74.18Y-37.821
X75.91Y-62.03
X81.691Y-37.73
X81.7Y-55.731
X82.07Y-26.954
X82.454Y-43.413
X82.945Y-73.859
X85.895Y-75.08
X85.895Y-84.303
X88.909Y-64.75
X88.995Y-29.721
X95.799Y-54.19
X97.852Y-81.348
X98.861Y-97.993
X99.455Y-73.837
X99.618Y-38.853
X99.759Y-54.19
X99.848Y-35.996
X101.78Y-75.03
X103.137Y-98.638
X104.403Y-90.423
X118.345Y-90.646
T3
X25.387Y-81.379
X25.387Y-96.614
X26.686Y-82.776
X26.686Y-98.011
X27.927Y-81.379
X27.927Y-96.614
X29.226Y-82.776
X29.226Y-98.011
X30.467Y-81.379
X30.467Y-96.614
X31.766Y-82.776
X31.766Y-98.011
X33.008Y-81.379
X33.008Y-96.614
X34.306Y-82.776
X34.306Y-98.011
X35.547Y-81.379
X35.547Y-96.614
X36.846Y-82.776
X36.846Y-98.011
X38.087Y-81.379
X38.087Y-96.614
X39.386Y-82.776
X39.386Y-98.011
X40.627Y-81.379
X40.627Y-96.614
X41.926Y-82.776
X41.926Y-98.011
T5
X111.46Y-72.875
X111.46Y-74.625
X118.46Y-72.875
X118.46Y-74.625
T6
X70.29Y-89.08
X80.45Y-89.08
X87.601Y-89.756
X97.705Y-90.818
X104.94Y-93.01
X114.798Y-95.468
T7
X24.96Y-33.93
X24.96Y-51.46
X24.97Y-68.96
X35.12Y-33.93
X35.12Y-51.46
X35.13Y-68.96
X43.09Y-33.95
X43.1Y-51.45
X43.1Y-68.94
X53.25Y-33.95
X53.26Y-51.45
X53.26Y-68.94
X59.63Y-33.95
X59.63Y-51.46
X59.66Y-68.98
X69.79Y-33.95
X69.79Y-51.46
X69.82Y-68.98
X69.87Y-89.08
X76.08Y-68.96
X76.09Y-51.46
X76.1Y-33.93
X80.87Y-89.08
X86.24Y-68.96
X86.25Y-51.46
X86.26Y-33.93
X87.183Y-89.712
X92.59Y-68.96
X92.6Y-51.47
X92.61Y-33.96
X98.123Y-90.862
X102.75Y-68.96
X102.76Y-51.47
X102.77Y-33.96
X104.532Y-92.908
X115.206Y-95.57
T8
X26.23Y-31.39
X26.23Y-48.92
X26.24Y-66.42
X27.5Y-28.85
X27.5Y-46.38
X27.51Y-63.88
X32.58Y-28.85
X32.58Y-46.38
X32.59Y-63.88
X33.85Y-31.39
X33.85Y-48.92
X33.86Y-66.42
X44.36Y-31.41
X44.37Y-48.91
X44.37Y-66.4
X45.63Y-28.87
X45.64Y-46.37
X45.64Y-63.86
X50.71Y-28.87
X50.72Y-46.37
X50.72Y-63.86
X51.98Y-31.41
X51.99Y-48.91
X51.99Y-66.4
X60.9Y-31.41
X60.9Y-48.92
X60.93Y-66.44
X62.17Y-28.87
X62.17Y-46.38
X62.2Y-63.9
X67.25Y-28.87
X67.25Y-46.38
X67.28Y-63.9
X68.52Y-31.41
X68.52Y-48.92
X68.55Y-66.44
X70.37Y-92.78
X71.56Y-86.54
X72.83Y-84.0
X75.37Y-94.98
X77.35Y-66.42
X77.36Y-48.92
X77.37Y-31.39
X77.91Y-84.0
X78.62Y-63.88
X78.63Y-46.38
X78.64Y-28.85
X79.18Y-86.54
X80.37Y-92.78
X83.7Y-63.88
X83.71Y-46.38
X83.72Y-28.85
X84.97Y-66.42
X84.98Y-48.92
X84.99Y-31.39
X87.294Y-93.444
X89.129Y-87.362
X90.658Y-84.969
X92.036Y-96.154
X93.86Y-66.42
X93.87Y-48.93
X93.88Y-31.42
X95.13Y-63.88
X95.14Y-46.39
X95.15Y-28.88
X95.71Y-85.5
X96.708Y-88.159
X97.239Y-94.489
X100.21Y-63.88
X100.22Y-46.39
X100.23Y-28.88
X101.48Y-66.42
X101.49Y-48.93
X101.5Y-31.42
X104.123Y-96.619
X106.787Y-90.853
X108.442Y-99.964
X108.634Y-88.695
X113.563Y-89.924
X113.825Y-99.039
X114.18Y-92.696
T9
X75.37Y-89.08
X92.653Y-90.287
X109.869Y-94.239
T10
X30.04Y-33.93
X30.04Y-51.46
X30.05Y-68.96
X48.17Y-33.95
X48.18Y-51.45
X48.18Y-68.94
X64.71Y-33.95
X64.71Y-51.46
X64.74Y-68.98
X81.16Y-68.96
X81.17Y-51.46
X81.18Y-33.93
X97.67Y-68.96
X97.68Y-51.47
X97.69Y-33.96
T11
X30.04Y-23.95
X52.02Y-80.95
X53.04Y-95.6
X97.68Y-23.95
X112.8Y-84.69
T4
G00X108.41Y-72.525
M15
G01X107.91Y-72.525
M16
G05
G00X108.41Y-74.975
M15
G01X107.91Y-74.975
M16
G05
G00X109.91Y-70.775
M15
G01X109.41Y-70.775
M16
G05
G00X109.91Y-76.725
M15
G01X109.41Y-76.725
M16
G05
G00X113.91Y-70.775
M15
G01X113.41Y-70.775
M16
G05
G00X113.91Y-76.725
M15
G01X113.41Y-76.725
M16
G05
G00X116.91Y-70.775
M15
G01X116.41Y-70.775
M16
G05
G00X116.91Y-76.725
M15
G01X116.41Y-76.725
M16
G05
T0
M30
