0
SECTION
2
HEADER
9
$INSUNITS
70
4
0
ENDSEC
0
SECTION
2
TABLES
0
TABLE
2
LTYPE
0
LTYPE
72
65
70
64
2
CONTINUOUS
3
______
73
0
40
0
0
ENDTAB
0
TABLE
2
LAYER
0
ENDTAB
0
ENDSEC
0
SECTION
2
ENTITIES
0
LINE
8
0
10
50.75
20
-11.375
11
64.75
21
-11.375
0
LINE
8
0
10
50.75
20
-25.375
11
64.75
21
-25.375
0
LINE
8
0
10
50.75
20
-11.375
11
50.75
21
-25.375
0
LINE
8
0
10
64.75
20
-11.375
11
64.75
21
-25.375
0
LINE
8
0
10
34.25
20
-14.875
11
48.25
21
-14.875
0
LINE
8
0
10
34.25
20
-28.875
11
48.25
21
-28.875
0
LINE
8
0
10
34.25
20
-14.875
11
34.25
21
-28.875
0
LINE
8
0
10
48.25
20
-14.875
11
48.25
21
-28.875
0
LINE
8
0
10
67.25
20
-15.75
11
81.25
21
-15.75
0
LINE
8
0
10
67.25
20
-29.75
11
81.25
21
-29.75
0
LINE
8
0
10
67.25
20
-15.75
11
67.25
21
-29.75
0
LINE
8
0
10
81.25
20
-15.75
11
81.25
21
-29.75
0
LINE
8
0
10
17.75
20
-19.25
11
31.75
21
-19.25
0
LINE
8
0
10
17.75
20
-33.25
11
31.75
21
-33.25
0
LINE
8
0
10
17.75
20
-19.25
11
17.75
21
-33.25
0
LINE
8
0
10
31.75
20
-19.25
11
31.75
21
-33.25
0
LINE
8
0
10
83.75
20
-19.25
11
97.75
21
-19.25
0
LINE
8
0
10
83.75
20
-33.25
11
97.75
21
-33.25
0
LINE
8
0
10
83.75
20
-19.25
11
83.75
21
-33.25
0
LINE
8
0
10
97.75
20
-19.25
11
97.75
21
-33.25
0
LINE
8
0
10
50.75
20
-28.875
11
64.75
21
-28.875
0
LINE
8
0
10
50.75
20
-42.875
11
64.75
21
-42.875
0
LINE
8
0
10
50.75
20
-28.875
11
50.75
21
-42.875
0
LINE
8
0
10
64.75
20
-28.875
11
64.75
21
-42.875
0
LINE
8
0
10
34.25
20
-32.375
11
48.25
21
-32.375
0
LINE
8
0
10
34.25
20
-46.375
11
48.25
21
-46.375
0
LINE
8
0
10
34.25
20
-32.375
11
34.25
21
-46.375
0
LINE
8
0
10
48.25
20
-32.375
11
48.25
21
-46.375
0
LINE
8
0
10
67.25
20
-33.25
11
81.25
21
-33.25
0
LINE
8
0
10
67.25
20
-47.25
11
81.25
21
-47.25
0
LINE
8
0
10
67.25
20
-33.25
11
67.25
21
-47.25
0
LINE
8
0
10
81.25
20
-33.25
11
81.25
21
-47.25
0
LINE
8
0
10
17.75
20
-36.75
11
31.75
21
-36.75
0
LINE
8
0
10
17.75
20
-50.75
11
31.75
21
-50.75
0
LINE
8
0
10
17.75
20
-36.75
11
17.75
21
-50.75
0
LINE
8
0
10
31.75
20
-36.75
11
31.75
21
-50.75
0
LINE
8
0
10
83.75
20
-36.75
11
97.75
21
-36.75
0
LINE
8
0
10
83.75
20
-50.75
11
97.75
21
-50.75
0
LINE
8
0
10
83.75
20
-36.75
11
83.75
21
-50.75
0
LINE
8
0
10
97.75
20
-36.75
11
97.75
21
-50.75
0
LINE
8
0
10
50.75
20
-46.375
11
64.75
21
-46.375
0
LINE
8
0
10
50.75
20
-60.375
11
64.75
21
-60.375
0
LINE
8
0
10
50.75
20
-46.375
11
50.75
21
-60.375
0
LINE
8
0
10
64.75
20
-46.375
11
64.75
21
-60.375
0
LINE
8
0
10
34.25
20
-49.875
11
48.25
21
-49.875
0
LINE
8
0
10
34.25
20
-63.875
11
48.25
21
-63.875
0
LINE
8
0
10
34.25
20
-49.875
11
34.25
21
-63.875
0
LINE
8
0
10
48.25
20
-49.875
11
48.25
21
-63.875
0
LINE
8
0
10
67.25
20
-50.75
11
81.25
21
-50.75
0
LINE
8
0
10
67.25
20
-64.75
11
81.25
21
-64.75
0
LINE
8
0
10
67.25
20
-50.75
11
67.25
21
-64.75
0
LINE
8
0
10
81.25
20
-50.75
11
81.25
21
-64.75
0
LINE
8
0
10
17.75
20
-54.25
11
31.75
21
-54.25
0
LINE
8
0
10
17.75
20
-68.25
11
31.75
21
-68.25
0
LINE
8
0
10
17.75
20
-54.25
11
17.75
21
-68.25
0
LINE
8
0
10
31.75
20
-54.25
11
31.75
21
-68.25
0
LINE
8
0
10
83.75
20
-54.25
11
97.75
21
-54.25
0
LINE
8
0
10
83.75
20
-68.25
11
97.75
21
-68.25
0
LINE
8
0
10
83.75
20
-54.25
11
83.75
21
-68.25
0
LINE
8
0
10
97.75
20
-54.25
11
97.75
21
-68.25
0
LINE
8
0
10
61.475
20
-74.375
11
75.475
21
-74.375
0
LINE
8
0
10
61.475
20
-88.375
11
75.475
21
-88.375
0
LINE
8
0
10
61.475
20
-74.375
11
61.475
21
-88.375
0
LINE
8
0
10
75.475
20
-74.375
11
75.475
21
-88.375
0
LINE
8
0
10
79.4908593
20
-74.8873444
11
93.4141658
21
-76.3507429
0
LINE
8
0
10
78.0274608
20
-88.8106509
11
91.9507673
21
-90.2740494
0
LINE
8
0
10
79.4908593
20
-74.8873444
11
78.0274608
21
-88.8106509
0
LINE
8
0
10
93.4141658
20
-76.3507429
11
91.9507673
21
-90.2740494
0
LINE
8
0
10
97.8402794
20
-78.0730935
11
111.4244196
21
-81.4600001
0
LINE
8
0
10
94.4533728
20
-91.6572337
11
108.037513
21
-95.0441403
0
LINE
8
0
10
97.8402794
20
-78.0730935
11
94.4533728
21
-91.6572337
0
LINE
8
0
10
111.4244196
20
-81.4600001
11
108.037513
21
-95.0441403
0
LINE
8
0
10
16.5
20
-95.3086169
11
111.1888962
21
-95.3086169
0
LINE
8
0
10
16.5
20
-9.625
11
111.1888962
21
-9.625
0
LINE
8
0
10
16.5
20
-95.3086169
11
16.5
21
-9.625
0
LINE
8
0
10
111.1888962
20
-95.3086169
11
111.1888962
21
-9.625
0
ENDSEC
0
EOF