M48
METRIC,TZ
T1C0.650
T2C1.200
T3C1.900
T4C3.000
T5C4.100
%
G90
G05
T1
X56670Y-23520
X62450Y-23520
T2
X107016Y-47577
X111031Y-41843
T3
X21470Y-43640
X21480Y-78650
X21490Y-61160
X31630Y-43640
X31640Y-78650
X31650Y-61160
X37980Y-39260
X37980Y-56770
X37990Y-74280
X48140Y-39260
X48140Y-56770
X48150Y-74280
X54480Y-35750
X54490Y-70780
X54495Y-53250
X64640Y-35750
X64650Y-70780
X64655Y-53250
X65180Y-98780
X70960Y-75130
X70970Y-57650
X70980Y-40170
X75340Y-98780
X81120Y-75130
X81130Y-57650
X81140Y-40170
X82827Y-99768
X87470Y-61150
X87490Y-78660
X87495Y-43640
X92833Y-101532
X97630Y-61150
X97650Y-78660
X97655Y-43640
X99966Y-104553
X109514Y-108027
T4
X22740Y-41100
X22750Y-76110
X22760Y-58620
X29090Y-38560
X29100Y-73570
X29110Y-56080
X39250Y-36720
X39250Y-54230
X39260Y-71740
X45600Y-34180
X45600Y-51690
X45610Y-69200
X55760Y-68240
X55765Y-50710
X57020Y-40830
X62110Y-65700
X62115Y-48170
X63370Y-38290
X67720Y-103860
X72230Y-72590
X72240Y-55110
X73520Y-45250
X74070Y-101320
X78580Y-70050
X78590Y-52570
X79870Y-42710
X84446Y-105212
X88740Y-58610
X88760Y-76120
X90035Y-48720
X91141Y-103813
X95090Y-56070
X95110Y-73580
X96385Y-46180
X100616Y-110195
X107451Y-109980
T5
X26550Y-43640
X26560Y-78650
X26570Y-61160
X43060Y-39260
X43060Y-56770
X43070Y-74280
X59560Y-35750
X59570Y-70780
X59575Y-53250
X70260Y-98780
X76040Y-75130
X76050Y-57650
X76060Y-40170
X87830Y-100650
X92550Y-61150
X92570Y-78660
X92575Y-43640
X104740Y-106290
T0
M30
