M48
METRIC,TZ
T1C0.400
T2C0.600
T3C1.000
%
G90
G05
T1
X33328Y-65226
X34450Y-65020
X50140Y-62261
X51139Y-62029
X53000Y-75696
X54005Y-75520
X55600Y-28940
X56300Y-29755
X57333Y-45402
X57594Y-30704
X58116Y-46184
X58343Y-32003
X63200Y-30675
X63200Y-100950
X63750Y-28720
X64050Y-106075
X64375Y-56450
X64575Y-63225
X65158Y-91366
X65996Y-92321
X66740Y-38310
X67350Y-52260
X68000Y-85100
X68340Y-52590
X68490Y-91120
X68630Y-70260
X68640Y-88730
X68876Y-92300
X69560Y-81170
X69600Y-93070
X70090Y-82981
X73350Y-80500
X73420Y-94980
X74914Y-95190
X75745Y-95747
X77350Y-80590
X78220Y-96600
X78250Y-79061
X78260Y-97840
X79362Y-78823
X81679Y-94581
X81811Y-79061
X82025Y-81300
X83100Y-55420
X83301Y-64200
X84300Y-90275
X85620Y-95411
X87370Y-82590
X89000Y-65000
X89530Y-85560
X90020Y-87420
X92380Y-98620
X92450Y-83210
X95240Y-94160
X99600Y-76260
T2
G00X55240Y-20240
M15
G01X55240Y-19440
M16
G05
G00X55240Y-24570
M15
G01X55240Y-23470
M16
G05
G00X63880Y-20240
M15
G01X63880Y-19440
M16
G05
G00X63880Y-24570
M15
G01X63880Y-23470
M16
G05
T3
G00X103547Y-48871
M15
G01X103260Y-49281
M16
G05
G00X107847Y-50052
M15
G01X107561Y-50461
M16
G05
G00X110142Y-46775
M15
G01X109855Y-47185
M16
G05
G00X111862Y-44318
M15
G01X111576Y-44727
M16
G05
T0
M30
