M48
METRIC,TZ
T1C0.400
T2C0.800
T3C1.000
%
G90
G05
T1
X20670Y-53540
X20970Y-79670
X21252Y-30710
X21690Y-62840
X22011Y-45000
X22590Y-77720
X23570Y-60290
X24090Y-63300
X24510Y-45160
X26680Y-39433
X27044Y-73714
X27060Y-56510
X27252Y-63867
X27768Y-86081
X29196Y-45537
X29510Y-78980
X29730Y-74390
X30208Y-85992
X32201Y-63745
X32980Y-90040
X34458Y-44416
X35863Y-28959
X36216Y-77600
X36630Y-88780
X36660Y-48300
X37197Y-23050
X37520Y-43180
X37667Y-62242
X38140Y-48029
X38390Y-77840
X38800Y-74540
X39200Y-41016
X39686Y-59122
X40525Y-78519
X41930Y-33120
X41980Y-67530
X42052Y-100543
X42144Y-58732
X43400Y-34770
X43550Y-52310
X43995Y-23895
X45480Y-88940
X45510Y-83430
X46260Y-69540
X47970Y-31760
X48323Y-41417
X49434Y-59682
X49980Y-73580
X50520Y-21520
X51690Y-38420
X52070Y-59380
X52647Y-21920
X52720Y-43340
X53316Y-22880
X53430Y-56390
X55200Y-53770
X56320Y-35800
X56401Y-53115
X56811Y-38219
X58010Y-64200
X58227Y-37380
X58660Y-29790
X59950Y-48980
X61410Y-36080
X62610Y-66120
X63345Y-30925
X64080Y-32254
X64860Y-37579
X65426Y-55955
X65750Y-82730
X66680Y-69660
X67280Y-37820
X67353Y-84223
X67740Y-53960
X69836Y-26967
X71130Y-56818
X71280Y-58560
X71420Y-41870
X72070Y-82774
X73660Y-40510
X74405Y-94565
X74720Y-42460
X75660Y-69210
X75750Y-35200
X75960Y-77170
X76061Y-58165
X76170Y-84135
X77062Y-23320
X77740Y-53250
X79640Y-21210
X79691Y-40687
X79870Y-70730
X80743Y-24857
X81166Y-86718
X81404Y-41907
X81434Y-59746
X81696Y-98558
X83715Y-39032
X83780Y-82740
X84100Y-57200
X85590Y-41380
X85981Y-61397
X86390Y-93420
X86650Y-46760
X87220Y-95820
X87581Y-84493
X87700Y-33180
X88101Y-46595
X89070Y-62500
X89500Y-45170
X90020Y-41880
X90090Y-63070
X90214Y-82806
X91256Y-63039
X91580Y-55250
X91610Y-36150
X92750Y-39190
X92820Y-56860
X93479Y-85231
X94380Y-47920
X95177Y-28868
X96903Y-92944
X97575Y-45405
X98786Y-72305
X99399Y-82806
X99759Y-89465
X99831Y-81277
X99890Y-44010
X100110Y-61670
X100262Y-87692
X104080Y-99050
X105610Y-87330
X113930Y-95090
T2
X22688Y-82785
X22688Y-98020
X23987Y-84183
X23987Y-99418
X25228Y-82785
X25228Y-98020
X26527Y-84183
X26527Y-99418
X27768Y-82785
X27768Y-98020
X29067Y-84183
X29067Y-99418
X30308Y-82785
X30308Y-98020
X31607Y-84183
X31607Y-99418
X32848Y-82785
X32848Y-98020
X34147Y-84183
X34147Y-99418
X35388Y-82785
X35388Y-98020
X36687Y-84183
X36687Y-99418
X37928Y-82785
X37928Y-98020
X39227Y-84183
X39227Y-99418
T3
G00X105704Y-78946
M15
G01X105583Y-79431
M16
G05
G00X106671Y-75065
M15
G01X106550Y-75550
M16
G05
G00X107039Y-80825
M15
G01X106918Y-81310
M16
G05
G00X107397Y-72154
M15
G01X107276Y-72639
M16
G05
G00X109416Y-81417
M15
G01X109295Y-81903
M16
G05
G00X111477Y-80385
M15
G01X111356Y-80871
M16
G05
G00X112444Y-76504
M15
G01X112324Y-76989
M16
G05
G00X113170Y-73593
M15
G01X113049Y-74078
M16
G05
T0
M30
