%TF.GenerationSoftware,KiCad,Pcbnew,(6.0.6)*%
%TF.CreationDate,2022-11-03T11:36:57+09:00*%
%TF.ProjectId,split-mini,73706c69-742d-46d6-996e-692e6b696361,rev?*%
%TF.SameCoordinates,Original*%
%TF.FileFunction,Soldermask,Top*%
%TF.FilePolarity,Negative*%
%FSLAX46Y46*%
G04 Gerber Fmt 4.6, Leading zero omitted, Abs format (unit mm)*
G04 Created by KiCad (PCBNEW (6.0.6)) date 2022-11-03 11:36:57*
%MOMM*%
%LPD*%
G01*
G04 APERTURE LIST*
G04 Aperture macros list*
%AMHorizOval*
0 Thick line with rounded ends*
0 $1 width*
0 $2 $3 position (X,Y) of the first rounded end (center of the circle)*
0 $4 $5 position (X,Y) of the second rounded end (center of the circle)*
0 Add line between two ends*
20,1,$1,$2,$3,$4,$5,0*
0 Add two circle primitives to create the rounded ends*
1,1,$1,$2,$3*
1,1,$1,$4,$5*%
%AMRotRect*
0 Rectangle, with rotation*
0 The origin of the aperture is its center*
0 $1 length*
0 $2 width*
0 $3 Rotation angle, in degrees counterclockwise*
0 Add horizontal line*
21,1,$1,$2,0,0,$3*%
G04 Aperture macros list end*
%TA.AperFunction,Profile*%
%ADD10C,0.100000*%
%TD*%
%ADD11R,1.300000X0.950000*%
%ADD12C,3.000000*%
%ADD13C,1.700000*%
%ADD14C,1.900000*%
%ADD15C,4.000000*%
%ADD16R,2.000000X2.000000*%
%ADD17R,1.800000X2.000000*%
%ADD18R,1.778000X1.905000*%
%ADD19RotRect,1.300000X0.950000X354.000000*%
%ADD20R,1.900000X2.000000*%
%ADD21C,4.500000*%
%ADD22RotRect,1.300000X0.950000X346.000000*%
%ADD23RotRect,2.000000X2.000000X166.000000*%
%ADD24RotRect,1.950000X2.000000X166.000000*%
%ADD25RotRect,1.800000X2.000000X166.000000*%
%ADD26C,1.200000*%
%ADD27HorizOval,1.700000X-0.096769X-0.388118X0.096769X0.388118X0*%
%ADD28RotRect,2.000000X2.000000X174.000000*%
%ADD29RotRect,1.800000X2.000000X174.000000*%
%ADD30C,1.600000*%
G04 APERTURE END LIST*
D10*
X116123324Y-72166634D02*
G75*
G03*
X113860370Y-69515158I-2988724J-259366D01*
G01*
X103530843Y-66939718D02*
X113860370Y-69515158D01*
X110364219Y-106260861D02*
G75*
G03*
X114000870Y-104075745I725781J2910861D01*
G01*
X21530843Y-102768057D02*
X45530843Y-102768057D01*
X78079754Y-99947838D02*
X89423885Y-101140154D01*
X66703035Y-99893057D02*
X77034469Y-99893057D01*
X45530843Y-102768057D02*
X54083652Y-102768057D01*
X56918659Y-102357777D02*
X63868027Y-100303337D01*
X19530843Y-21893057D02*
X19530843Y-100768057D01*
X117508504Y-90007398D02*
G75*
G03*
X117586379Y-89022217I-2911304J725798D01*
G01*
X103530843Y-21893057D02*
G75*
G03*
X100530843Y-18893057I-3000043J-43D01*
G01*
X78079754Y-99947841D02*
G75*
G03*
X77034469Y-99893057I-1045254J-9944059D01*
G01*
X54083652Y-102768065D02*
G75*
G03*
X56918659Y-102357777I-52J10000165D01*
G01*
X66703035Y-99893053D02*
G75*
G03*
X63868027Y-100303337I65J-10000347D01*
G01*
X22530843Y-18893063D02*
G75*
G03*
X19530843Y-21893057I-3J-2999997D01*
G01*
X114000870Y-104075745D02*
X117508503Y-90007398D01*
X90797818Y-101382418D02*
G75*
G03*
X89423885Y-101140154I-2419118J-9702282D01*
G01*
X19530843Y-100768057D02*
G75*
G03*
X21530843Y-102768057I1999997J-3D01*
G01*
X90797819Y-101382416D02*
X110364217Y-106260867D01*
X100530843Y-18893057D02*
X22530843Y-18893057D01*
X103530843Y-66939718D02*
X103530843Y-21893057D01*
X116123367Y-72166630D02*
X117586379Y-89022217D01*
D11*
%TO.C,D7*%
X43175000Y-40860000D03*
X46725000Y-40860000D03*
%TD*%
D12*
%TO.C,SW6*%
X32290000Y-50750000D03*
X24670000Y-50750000D03*
D13*
X33560000Y-53290000D03*
D12*
X33480000Y-56990000D03*
D14*
X22980000Y-53290000D03*
D15*
X28480000Y-53290000D03*
D12*
X31020000Y-48210000D03*
X23480000Y-56990000D03*
X25940000Y-48210000D03*
D13*
X23400000Y-53290000D03*
D12*
X28480000Y-59190000D03*
D14*
X33980000Y-53290000D03*
D16*
X22880000Y-48210000D03*
X36580000Y-56990000D03*
X35380000Y-50750000D03*
D17*
X25680000Y-59190000D03*
%TD*%
D12*
%TO.C,SW11*%
X33490000Y-74490000D03*
X25950000Y-65710000D03*
D13*
X23410000Y-70790000D03*
D12*
X32300000Y-68250000D03*
X23490000Y-74490000D03*
D13*
X33570000Y-70790000D03*
D14*
X33990000Y-70790000D03*
D12*
X28490000Y-76690000D03*
X24680000Y-68250000D03*
X31030000Y-65710000D03*
D14*
X22990000Y-70790000D03*
D15*
X28490000Y-70790000D03*
D16*
X22890000Y-65710000D03*
X36590000Y-74490000D03*
D17*
X25690000Y-76690000D03*
D16*
X35390000Y-68250000D03*
%TD*%
D11*
%TO.C,D6*%
X30475000Y-45500000D03*
X34025000Y-45500000D03*
%TD*%
D12*
%TO.C,SW9*%
X75500000Y-44720000D03*
D13*
X72960000Y-49800000D03*
D15*
X78040000Y-49800000D03*
D14*
X83540000Y-49800000D03*
D13*
X83120000Y-49800000D03*
D12*
X81850000Y-47260000D03*
X83040000Y-53500000D03*
X73040000Y-53500000D03*
X80580000Y-44720000D03*
X74230000Y-47260000D03*
X78040000Y-55700000D03*
D14*
X72540000Y-49800000D03*
D16*
X86140000Y-53500000D03*
X72440000Y-44720000D03*
X84940000Y-47260000D03*
D17*
X75240000Y-55700000D03*
%TD*%
D12*
%TO.C,SW3*%
X64120000Y-22880000D03*
X66580000Y-31660000D03*
X65390000Y-25420000D03*
D13*
X66660000Y-27960000D03*
D15*
X61580000Y-27960000D03*
D12*
X59040000Y-22880000D03*
X57770000Y-25420000D03*
X61580000Y-33860000D03*
D13*
X56500000Y-27960000D03*
D14*
X67080000Y-27960000D03*
D12*
X56580000Y-31660000D03*
D14*
X56080000Y-27960000D03*
D16*
X55980000Y-22880000D03*
D18*
X69596000Y-31660000D03*
D17*
X58780000Y-33860000D03*
D16*
X68480000Y-25420000D03*
%TD*%
D11*
%TO.C,D9*%
X76285000Y-41790000D03*
X79835000Y-41790000D03*
%TD*%
%TO.C,D16*%
X70295000Y-82880000D03*
X73845000Y-82880000D03*
%TD*%
%TO.C,D11*%
X26755000Y-62780000D03*
X30305000Y-62780000D03*
%TD*%
%TO.C,D14*%
X76345000Y-59250000D03*
X79895000Y-59250000D03*
%TD*%
D19*
%TO.C,D17*%
X88894724Y-84124462D03*
X92425276Y-84495538D03*
%TD*%
D12*
%TO.C,SW5*%
X97080000Y-30700000D03*
D13*
X99620000Y-35780000D03*
D12*
X89540000Y-39480000D03*
D15*
X94540000Y-35780000D03*
D12*
X98350000Y-33240000D03*
D14*
X89040000Y-35780000D03*
D12*
X90730000Y-33240000D03*
D14*
X100040000Y-35780000D03*
D12*
X94540000Y-41680000D03*
X99540000Y-39480000D03*
X92000000Y-30700000D03*
D13*
X89460000Y-35780000D03*
D16*
X88940000Y-30700000D03*
D20*
X102350000Y-39480000D03*
D17*
X91740000Y-41680000D03*
D16*
X101440000Y-33240000D03*
%TD*%
D12*
%TO.C,SW15*%
X91980000Y-65700000D03*
D13*
X89440000Y-70780000D03*
D12*
X98330000Y-68240000D03*
D14*
X89020000Y-70780000D03*
D15*
X94520000Y-70780000D03*
D14*
X100020000Y-70780000D03*
D12*
X94520000Y-76680000D03*
D13*
X99600000Y-70780000D03*
D12*
X90710000Y-68240000D03*
X97060000Y-65700000D03*
X99520000Y-74480000D03*
X89520000Y-74480000D03*
D16*
X88920000Y-65700000D03*
D20*
X102350000Y-74480000D03*
D17*
X91720000Y-76680000D03*
D16*
X101420000Y-68240000D03*
%TD*%
D11*
%TO.C,D13*%
X59765000Y-54820000D03*
X63315000Y-54820000D03*
%TD*%
D13*
%TO.C,SW7*%
X39960000Y-48900000D03*
D12*
X48850000Y-46360000D03*
X47580000Y-43820000D03*
D14*
X50540000Y-48900000D03*
D12*
X41230000Y-46360000D03*
X40040000Y-52600000D03*
D13*
X50120000Y-48900000D03*
D15*
X45040000Y-48900000D03*
D12*
X50040000Y-52600000D03*
X42500000Y-43820000D03*
D14*
X39540000Y-48900000D03*
D12*
X45040000Y-54800000D03*
D16*
X39440000Y-43820000D03*
X53140000Y-52600000D03*
X51940000Y-46360000D03*
D17*
X42240000Y-54800000D03*
%TD*%
D11*
%TO.C,D1*%
X32055000Y-27880000D03*
X35605000Y-27880000D03*
%TD*%
D21*
%TO.C,HOLE5*%
X109130000Y-86360000D03*
%TD*%
D12*
%TO.C,SW16*%
X67191200Y-94620900D03*
D13*
X77271200Y-90920900D03*
X67111200Y-90920900D03*
D12*
X77191200Y-94620900D03*
D14*
X66691200Y-90920900D03*
D12*
X74731200Y-85840900D03*
X72191200Y-96820900D03*
D15*
X72191200Y-90920900D03*
D12*
X68381200Y-88380900D03*
X76001200Y-88380900D03*
X69651200Y-85840900D03*
D14*
X77691200Y-90920900D03*
D16*
X66591200Y-85840900D03*
X80291200Y-94620900D03*
X79091200Y-88380900D03*
D17*
X69391200Y-96820900D03*
%TD*%
D22*
%TO.C,D18*%
X100767725Y-86450589D03*
X104212275Y-87309411D03*
%TD*%
D21*
%TO.C,HOLE4*%
X51500000Y-96760000D03*
%TD*%
D11*
%TO.C,D4*%
X75785000Y-24120000D03*
X79335000Y-24120000D03*
%TD*%
%TO.C,D10*%
X92715000Y-45350000D03*
X96265000Y-45350000D03*
%TD*%
D14*
%TO.C,SW18*%
X112026926Y-97410470D03*
D12*
X103607955Y-92693626D03*
D13*
X111619402Y-97308863D03*
D12*
X105454712Y-90536316D03*
D13*
X101761198Y-94850937D03*
D12*
X110646668Y-100879604D03*
X111001608Y-94537071D03*
D14*
X101353674Y-94749330D03*
D12*
X100943710Y-98460385D03*
X110383814Y-91765279D03*
D15*
X106690300Y-96079900D03*
D12*
X105262961Y-101804645D03*
D23*
X102485607Y-89796035D03*
D24*
X113321200Y-101540900D03*
D23*
X113999822Y-95284610D03*
D25*
X102546133Y-101127263D03*
%TD*%
D26*
%TO.C,J1*%
X111507617Y-71581344D03*
X109814164Y-78373414D03*
X109809600Y-71157980D03*
X108116146Y-77950050D03*
D27*
X109355425Y-81660062D03*
X106978201Y-81067354D03*
X113109779Y-73835912D03*
X107336519Y-72396477D03*
X112384013Y-76746799D03*
X106610754Y-75307364D03*
X111416326Y-80627982D03*
X105643066Y-79188547D03*
%TD*%
D11*
%TO.C,D3*%
X48005000Y-23360000D03*
X51555000Y-23360000D03*
%TD*%
D14*
%TO.C,SW8*%
X66990000Y-45390000D03*
D12*
X66490000Y-49090000D03*
X58950000Y-40310000D03*
X57680000Y-42850000D03*
D14*
X55990000Y-45390000D03*
D12*
X61490000Y-51290000D03*
X56490000Y-49090000D03*
D13*
X56410000Y-45390000D03*
X66570000Y-45390000D03*
D12*
X65300000Y-42850000D03*
D15*
X61490000Y-45390000D03*
D12*
X64030000Y-40310000D03*
D16*
X69590000Y-49090000D03*
X55890000Y-40310000D03*
X68390000Y-42850000D03*
D17*
X58690000Y-51290000D03*
%TD*%
D21*
%TO.C,HOLE2*%
X94500000Y-25740000D03*
%TD*%
D14*
%TO.C,SW17*%
X94943970Y-92702507D03*
D12*
X92531190Y-87340931D03*
X88857382Y-97995279D03*
D13*
X94526271Y-92658605D03*
D12*
X84114735Y-95284689D03*
D13*
X84421929Y-91596595D03*
D15*
X89474100Y-92127600D03*
D12*
X87479019Y-86809926D03*
X93528731Y-89999768D03*
X94059954Y-96329973D03*
D14*
X84004230Y-91552693D03*
D12*
X85950474Y-89203261D03*
D28*
X84435782Y-86490069D03*
X97142972Y-96654012D03*
D29*
X86072721Y-97702599D03*
D28*
X96601803Y-90322761D03*
%TD*%
D30*
%TO.C,U1*%
X23987000Y-99417500D03*
X22688000Y-82785000D03*
X25228000Y-82785000D03*
X26527000Y-99417500D03*
X29067000Y-99417500D03*
X27768000Y-82785000D03*
X31607000Y-99417500D03*
X30308000Y-82785000D03*
X34147000Y-99417500D03*
X32848000Y-82785000D03*
X36687000Y-99417500D03*
X35388000Y-82785000D03*
X39227000Y-99417500D03*
X37928000Y-82785000D03*
X37928000Y-98020000D03*
X39227000Y-84182500D03*
X36687000Y-84182500D03*
X35388000Y-98020000D03*
X34147000Y-84182500D03*
X32848000Y-98020000D03*
X30308000Y-98020000D03*
X31607000Y-84182500D03*
X27768000Y-98020000D03*
X29067000Y-84182500D03*
X25228000Y-98020000D03*
X26527000Y-84182500D03*
X23987000Y-84182500D03*
X22688000Y-98020000D03*
%TD*%
D12*
%TO.C,SW10*%
X91990000Y-48210000D03*
X94530000Y-59190000D03*
X90720000Y-50750000D03*
X89530000Y-56990000D03*
D14*
X89030000Y-53290000D03*
X100030000Y-53290000D03*
D12*
X99530000Y-56990000D03*
D15*
X94530000Y-53290000D03*
D13*
X99610000Y-53290000D03*
D12*
X97070000Y-48210000D03*
D13*
X89450000Y-53290000D03*
D12*
X98340000Y-50750000D03*
D20*
X102350000Y-56990000D03*
D16*
X88930000Y-48210000D03*
D17*
X91730000Y-59190000D03*
D16*
X101430000Y-50750000D03*
%TD*%
D11*
%TO.C,D15*%
X92835000Y-62840000D03*
X96385000Y-62840000D03*
%TD*%
D12*
%TO.C,SW2*%
X45010000Y-37340000D03*
D13*
X39930000Y-31440000D03*
D12*
X47550000Y-26360000D03*
D13*
X50090000Y-31440000D03*
D14*
X50510000Y-31440000D03*
D12*
X40010000Y-35140000D03*
X42470000Y-26360000D03*
D14*
X39510000Y-31440000D03*
D12*
X41200000Y-28900000D03*
D15*
X45010000Y-31440000D03*
D12*
X48820000Y-28900000D03*
X50010000Y-35140000D03*
D16*
X53110000Y-35140000D03*
X39410000Y-26360000D03*
X51910000Y-28900000D03*
D17*
X42210000Y-37340000D03*
%TD*%
D15*
%TO.C,SW13*%
X61520000Y-62910000D03*
D12*
X61520000Y-68810000D03*
D13*
X56440000Y-62910000D03*
D12*
X57710000Y-60370000D03*
X65330000Y-60370000D03*
D13*
X66600000Y-62910000D03*
D12*
X66520000Y-66610000D03*
X56520000Y-66610000D03*
D14*
X56020000Y-62910000D03*
D12*
X64060000Y-57830000D03*
X58980000Y-57830000D03*
D14*
X67020000Y-62910000D03*
D16*
X69620000Y-66610000D03*
X55920000Y-57830000D03*
D17*
X58720000Y-68810000D03*
D16*
X68420000Y-60370000D03*
%TD*%
D21*
%TO.C,HOLE1*%
X28520000Y-25760000D03*
%TD*%
D12*
%TO.C,SW12*%
X48850000Y-63850000D03*
D14*
X50540000Y-66390000D03*
D12*
X45040000Y-72290000D03*
D15*
X45040000Y-66390000D03*
D12*
X50040000Y-70090000D03*
D13*
X50120000Y-66390000D03*
D14*
X39540000Y-66390000D03*
D12*
X47580000Y-61310000D03*
X41230000Y-63850000D03*
X40040000Y-70090000D03*
D13*
X39960000Y-66390000D03*
D12*
X42500000Y-61310000D03*
D16*
X53140000Y-70090000D03*
X39440000Y-61310000D03*
X51940000Y-63850000D03*
D17*
X42240000Y-72290000D03*
%TD*%
D14*
%TO.C,SW14*%
X72530000Y-67300000D03*
D13*
X83110000Y-67300000D03*
D12*
X81840000Y-64760000D03*
X83030000Y-71000000D03*
X80570000Y-62220000D03*
X73030000Y-71000000D03*
X75490000Y-62220000D03*
X78030000Y-73200000D03*
D14*
X83530000Y-67300000D03*
D12*
X74220000Y-64760000D03*
D13*
X72950000Y-67300000D03*
D15*
X78030000Y-67300000D03*
D16*
X72430000Y-62220000D03*
X86130000Y-71000000D03*
X84930000Y-64760000D03*
D17*
X75230000Y-73200000D03*
%TD*%
D14*
%TO.C,SW1*%
X22980000Y-35790000D03*
D12*
X32290000Y-33250000D03*
X33480000Y-39490000D03*
X28480000Y-41690000D03*
D13*
X33560000Y-35790000D03*
X23400000Y-35790000D03*
D14*
X33980000Y-35790000D03*
D12*
X23480000Y-39490000D03*
X25940000Y-30710000D03*
X31020000Y-30710000D03*
X24670000Y-33250000D03*
D15*
X28480000Y-35790000D03*
D16*
X22880000Y-30710000D03*
X36580000Y-39490000D03*
D17*
X25680000Y-41690000D03*
D16*
X35380000Y-33250000D03*
%TD*%
D11*
%TO.C,D5*%
X86965000Y-27670000D03*
X90515000Y-27670000D03*
%TD*%
%TO.C,D8*%
X59765000Y-37380000D03*
X63315000Y-37380000D03*
%TD*%
D12*
%TO.C,SW4*%
X73230000Y-29380000D03*
D13*
X71960000Y-31920000D03*
D12*
X77040000Y-37820000D03*
X80850000Y-29380000D03*
X74500000Y-26840000D03*
X82040000Y-35620000D03*
X72040000Y-35620000D03*
D14*
X71540000Y-31920000D03*
D12*
X79580000Y-26840000D03*
D15*
X77040000Y-31920000D03*
D13*
X82120000Y-31920000D03*
D14*
X82540000Y-31920000D03*
D16*
X85140000Y-35620000D03*
X71440000Y-26840000D03*
D17*
X74240000Y-37820000D03*
D16*
X83940000Y-29380000D03*
%TD*%
D11*
%TO.C,D2*%
X38985000Y-23450000D03*
X42535000Y-23450000D03*
%TD*%
%TO.C,D12*%
X43395000Y-58370000D03*
X46945000Y-58370000D03*
%TD*%
M02*
