%TF.GenerationSoftware,KiCad,Pcbnew,(6.0.6)*%
%TF.CreationDate,2022-11-03T11:36:57+09:00*%
%TF.ProjectId,split-mini,73706c69-742d-46d6-996e-692e6b696361,rev?*%
%TF.SameCoordinates,Original*%
%TF.FileFunction,Legend,Top*%
%TF.FilePolarity,Positive*%
%FSLAX46Y46*%
G04 Gerber Fmt 4.6, Leading zero omitted, Abs format (unit mm)*
G04 Created by KiCad (PCBNEW (6.0.6)) date 2022-11-03 11:36:57*
%MOMM*%
%LPD*%
G01*
G04 APERTURE LIST*
G04 Aperture macros list*
%AMHorizOval*
0 Thick line with rounded ends*
0 $1 width*
0 $2 $3 position (X,Y) of the first rounded end (center of the circle)*
0 $4 $5 position (X,Y) of the second rounded end (center of the circle)*
0 Add line between two ends*
20,1,$1,$2,$3,$4,$5,0*
0 Add two circle primitives to create the rounded ends*
1,1,$1,$2,$3*
1,1,$1,$4,$5*%
%AMRotRect*
0 Rectangle, with rotation*
0 The origin of the aperture is its center*
0 $1 length*
0 $2 width*
0 $3 Rotation angle, in degrees counterclockwise*
0 Add horizontal line*
21,1,$1,$2,0,0,$3*%
G04 Aperture macros list end*
%TA.AperFunction,Profile*%
%ADD10C,0.100000*%
%TD*%
%ADD11C,0.300000*%
%ADD12C,0.100000*%
%ADD13C,0.150000*%
%ADD14C,0.120000*%
%ADD15C,1.200000*%
%ADD16HorizOval,1.700000X-0.096769X-0.388118X0.096769X0.388118X0*%
%ADD17C,1.600000*%
%ADD18C,0.350000*%
%ADD19HorizOval,1.000000X-0.060480X-0.242574X0.060480X0.242574X0*%
%ADD20R,1.300000X0.950000*%
%ADD21C,3.000000*%
%ADD22C,1.700000*%
%ADD23C,1.900000*%
%ADD24C,4.000000*%
%ADD25R,2.000000X2.000000*%
%ADD26R,1.800000X2.000000*%
%ADD27R,1.778000X1.905000*%
%ADD28RotRect,1.300000X0.950000X354.000000*%
%ADD29R,1.900000X2.000000*%
%ADD30C,4.500000*%
%ADD31RotRect,1.300000X0.950000X346.000000*%
%ADD32RotRect,2.000000X2.000000X166.000000*%
%ADD33RotRect,1.950000X2.000000X166.000000*%
%ADD34RotRect,1.800000X2.000000X166.000000*%
%ADD35RotRect,2.000000X2.000000X174.000000*%
%ADD36RotRect,1.800000X2.000000X174.000000*%
G04 APERTURE END LIST*
D10*
X116123324Y-72166634D02*
G75*
G03*
X113860370Y-69515158I-2988724J-259366D01*
G01*
X103530843Y-66939718D02*
X113860370Y-69515158D01*
X110364219Y-106260861D02*
G75*
G03*
X114000870Y-104075745I725781J2910861D01*
G01*
X21530843Y-102768057D02*
X45530843Y-102768057D01*
X78079754Y-99947838D02*
X89423885Y-101140154D01*
X66703035Y-99893057D02*
X77034469Y-99893057D01*
X45530843Y-102768057D02*
X54083652Y-102768057D01*
X56918659Y-102357777D02*
X63868027Y-100303337D01*
X19530843Y-21893057D02*
X19530843Y-100768057D01*
X117508504Y-90007398D02*
G75*
G03*
X117586379Y-89022217I-2911304J725798D01*
G01*
X103530843Y-21893057D02*
G75*
G03*
X100530843Y-18893057I-3000043J-43D01*
G01*
X78079754Y-99947841D02*
G75*
G03*
X77034469Y-99893057I-1045254J-9944059D01*
G01*
X54083652Y-102768065D02*
G75*
G03*
X56918659Y-102357777I-52J10000165D01*
G01*
X66703035Y-99893053D02*
G75*
G03*
X63868027Y-100303337I65J-10000347D01*
G01*
X22530843Y-18893063D02*
G75*
G03*
X19530843Y-21893057I-3J-2999997D01*
G01*
X114000870Y-104075745D02*
X117508503Y-90007398D01*
X90797818Y-101382418D02*
G75*
G03*
X89423885Y-101140154I-2419118J-9702282D01*
G01*
X19530843Y-100768057D02*
G75*
G03*
X21530843Y-102768057I1999997J-3D01*
G01*
X90797819Y-101382416D02*
X110364217Y-106260867D01*
X100530843Y-18893057D02*
X22530843Y-18893057D01*
X103530843Y-66939718D02*
X103530843Y-21893057D01*
X116123367Y-72166630D02*
X117586379Y-89022217D01*
D11*
X54367142Y-75729714D02*
X54481428Y-75786857D01*
X54710000Y-75786857D01*
X54824285Y-75729714D01*
X54881428Y-75615428D01*
X54881428Y-75558285D01*
X54824285Y-75444000D01*
X54710000Y-75386857D01*
X54538571Y-75386857D01*
X54424285Y-75329714D01*
X54367142Y-75215428D01*
X54367142Y-75158285D01*
X54424285Y-75044000D01*
X54538571Y-74986857D01*
X54710000Y-74986857D01*
X54824285Y-75044000D01*
X55395714Y-74986857D02*
X55395714Y-76186857D01*
X55395714Y-75044000D02*
X55510000Y-74986857D01*
X55738571Y-74986857D01*
X55852857Y-75044000D01*
X55910000Y-75101142D01*
X55967142Y-75215428D01*
X55967142Y-75558285D01*
X55910000Y-75672571D01*
X55852857Y-75729714D01*
X55738571Y-75786857D01*
X55510000Y-75786857D01*
X55395714Y-75729714D01*
X56652857Y-75786857D02*
X56538571Y-75729714D01*
X56481428Y-75615428D01*
X56481428Y-74586857D01*
X57110000Y-75786857D02*
X57110000Y-74986857D01*
X57110000Y-74586857D02*
X57052857Y-74644000D01*
X57110000Y-74701142D01*
X57167142Y-74644000D01*
X57110000Y-74586857D01*
X57110000Y-74701142D01*
X57510000Y-74986857D02*
X57967142Y-74986857D01*
X57681428Y-74586857D02*
X57681428Y-75615428D01*
X57738571Y-75729714D01*
X57852857Y-75786857D01*
X57967142Y-75786857D01*
X59281428Y-75786857D02*
X59281428Y-74986857D01*
X59281428Y-75101142D02*
X59338571Y-75044000D01*
X59452857Y-74986857D01*
X59624285Y-74986857D01*
X59738571Y-75044000D01*
X59795714Y-75158285D01*
X59795714Y-75786857D01*
X59795714Y-75158285D02*
X59852857Y-75044000D01*
X59967142Y-74986857D01*
X60138571Y-74986857D01*
X60252857Y-75044000D01*
X60310000Y-75158285D01*
X60310000Y-75786857D01*
X60881428Y-75786857D02*
X60881428Y-74986857D01*
X60881428Y-74586857D02*
X60824285Y-74644000D01*
X60881428Y-74701142D01*
X60938571Y-74644000D01*
X60881428Y-74586857D01*
X60881428Y-74701142D01*
X61452857Y-74986857D02*
X61452857Y-75786857D01*
X61452857Y-75101142D02*
X61510000Y-75044000D01*
X61624285Y-74986857D01*
X61795714Y-74986857D01*
X61910000Y-75044000D01*
X61967142Y-75158285D01*
X61967142Y-75786857D01*
X62538571Y-75786857D02*
X62538571Y-74986857D01*
X62538571Y-74586857D02*
X62481428Y-74644000D01*
X62538571Y-74701142D01*
X62595714Y-74644000D01*
X62538571Y-74586857D01*
X62538571Y-74701142D01*
X64024285Y-75786857D02*
X64024285Y-74986857D01*
X64024285Y-75215428D02*
X64081428Y-75101142D01*
X64138571Y-75044000D01*
X64252857Y-74986857D01*
X64367142Y-74986857D01*
X65224285Y-75729714D02*
X65110000Y-75786857D01*
X64881428Y-75786857D01*
X64767142Y-75729714D01*
X64710000Y-75615428D01*
X64710000Y-75158285D01*
X64767142Y-75044000D01*
X64881428Y-74986857D01*
X65110000Y-74986857D01*
X65224285Y-75044000D01*
X65281428Y-75158285D01*
X65281428Y-75272571D01*
X64710000Y-75386857D01*
X65681428Y-74986857D02*
X65967142Y-75786857D01*
X66252857Y-74986857D01*
X66938571Y-74586857D02*
X67052857Y-74586857D01*
X67167142Y-74644000D01*
X67224285Y-74701142D01*
X67281428Y-74815428D01*
X67338571Y-75044000D01*
X67338571Y-75329714D01*
X67281428Y-75558285D01*
X67224285Y-75672571D01*
X67167142Y-75729714D01*
X67052857Y-75786857D01*
X66938571Y-75786857D01*
X66824285Y-75729714D01*
X66767142Y-75672571D01*
X66710000Y-75558285D01*
X66652857Y-75329714D01*
X66652857Y-75044000D01*
X66710000Y-74815428D01*
X66767142Y-74701142D01*
X66824285Y-74644000D01*
X66938571Y-74586857D01*
X67852857Y-75672571D02*
X67910000Y-75729714D01*
X67852857Y-75786857D01*
X67795714Y-75729714D01*
X67852857Y-75672571D01*
X67852857Y-75786857D01*
X68938571Y-74986857D02*
X68938571Y-75786857D01*
X68652857Y-74529714D02*
X68367142Y-75386857D01*
X69110000Y-75386857D01*
X51595714Y-77718857D02*
X51595714Y-76518857D01*
X51595714Y-77661714D02*
X51481428Y-77718857D01*
X51252857Y-77718857D01*
X51138571Y-77661714D01*
X51081428Y-77604571D01*
X51024285Y-77490285D01*
X51024285Y-77147428D01*
X51081428Y-77033142D01*
X51138571Y-76976000D01*
X51252857Y-76918857D01*
X51481428Y-76918857D01*
X51595714Y-76976000D01*
X52624285Y-77661714D02*
X52510000Y-77718857D01*
X52281428Y-77718857D01*
X52167142Y-77661714D01*
X52110000Y-77547428D01*
X52110000Y-77090285D01*
X52167142Y-76976000D01*
X52281428Y-76918857D01*
X52510000Y-76918857D01*
X52624285Y-76976000D01*
X52681428Y-77090285D01*
X52681428Y-77204571D01*
X52110000Y-77318857D01*
X53138571Y-77661714D02*
X53252857Y-77718857D01*
X53481428Y-77718857D01*
X53595714Y-77661714D01*
X53652857Y-77547428D01*
X53652857Y-77490285D01*
X53595714Y-77376000D01*
X53481428Y-77318857D01*
X53310000Y-77318857D01*
X53195714Y-77261714D01*
X53138571Y-77147428D01*
X53138571Y-77090285D01*
X53195714Y-76976000D01*
X53310000Y-76918857D01*
X53481428Y-76918857D01*
X53595714Y-76976000D01*
X54167142Y-77718857D02*
X54167142Y-76918857D01*
X54167142Y-76518857D02*
X54110000Y-76576000D01*
X54167142Y-76633142D01*
X54224285Y-76576000D01*
X54167142Y-76518857D01*
X54167142Y-76633142D01*
X55252857Y-76918857D02*
X55252857Y-77890285D01*
X55195714Y-78004571D01*
X55138571Y-78061714D01*
X55024285Y-78118857D01*
X54852857Y-78118857D01*
X54738571Y-78061714D01*
X55252857Y-77661714D02*
X55138571Y-77718857D01*
X54910000Y-77718857D01*
X54795714Y-77661714D01*
X54738571Y-77604571D01*
X54681428Y-77490285D01*
X54681428Y-77147428D01*
X54738571Y-77033142D01*
X54795714Y-76976000D01*
X54910000Y-76918857D01*
X55138571Y-76918857D01*
X55252857Y-76976000D01*
X55824285Y-76918857D02*
X55824285Y-77718857D01*
X55824285Y-77033142D02*
X55881428Y-76976000D01*
X55995714Y-76918857D01*
X56167142Y-76918857D01*
X56281428Y-76976000D01*
X56338571Y-77090285D01*
X56338571Y-77718857D01*
X57367142Y-77661714D02*
X57252857Y-77718857D01*
X57024285Y-77718857D01*
X56910000Y-77661714D01*
X56852857Y-77547428D01*
X56852857Y-77090285D01*
X56910000Y-76976000D01*
X57024285Y-76918857D01*
X57252857Y-76918857D01*
X57367142Y-76976000D01*
X57424285Y-77090285D01*
X57424285Y-77204571D01*
X56852857Y-77318857D01*
X58452857Y-77718857D02*
X58452857Y-76518857D01*
X58452857Y-77661714D02*
X58338571Y-77718857D01*
X58110000Y-77718857D01*
X57995714Y-77661714D01*
X57938571Y-77604571D01*
X57881428Y-77490285D01*
X57881428Y-77147428D01*
X57938571Y-77033142D01*
X57995714Y-76976000D01*
X58110000Y-76918857D01*
X58338571Y-76918857D01*
X58452857Y-76976000D01*
X59938571Y-77718857D02*
X59938571Y-76518857D01*
X59938571Y-76976000D02*
X60052857Y-76918857D01*
X60281428Y-76918857D01*
X60395714Y-76976000D01*
X60452857Y-77033142D01*
X60510000Y-77147428D01*
X60510000Y-77490285D01*
X60452857Y-77604571D01*
X60395714Y-77661714D01*
X60281428Y-77718857D01*
X60052857Y-77718857D01*
X59938571Y-77661714D01*
X60910000Y-76918857D02*
X61195714Y-77718857D01*
X61481428Y-76918857D02*
X61195714Y-77718857D01*
X61081428Y-78004571D01*
X61024285Y-78061714D01*
X60910000Y-78118857D01*
X62681428Y-76918857D02*
X63138571Y-76918857D01*
X62852857Y-76518857D02*
X62852857Y-77547428D01*
X62910000Y-77661714D01*
X63024285Y-77718857D01*
X63138571Y-77718857D01*
X64052857Y-77718857D02*
X64052857Y-77090285D01*
X63995714Y-76976000D01*
X63881428Y-76918857D01*
X63652857Y-76918857D01*
X63538571Y-76976000D01*
X64052857Y-77661714D02*
X63938571Y-77718857D01*
X63652857Y-77718857D01*
X63538571Y-77661714D01*
X63481428Y-77547428D01*
X63481428Y-77433142D01*
X63538571Y-77318857D01*
X63652857Y-77261714D01*
X63938571Y-77261714D01*
X64052857Y-77204571D01*
X64624285Y-77718857D02*
X64624285Y-76918857D01*
X64624285Y-77033142D02*
X64681428Y-76976000D01*
X64795714Y-76918857D01*
X64967142Y-76918857D01*
X65081428Y-76976000D01*
X65138571Y-77090285D01*
X65138571Y-77718857D01*
X65138571Y-77090285D02*
X65195714Y-76976000D01*
X65310000Y-76918857D01*
X65481428Y-76918857D01*
X65595714Y-76976000D01*
X65652857Y-77090285D01*
X65652857Y-77718857D01*
X66738571Y-77718857D02*
X66738571Y-77090285D01*
X66681428Y-76976000D01*
X66567142Y-76918857D01*
X66338571Y-76918857D01*
X66224285Y-76976000D01*
X66738571Y-77661714D02*
X66624285Y-77718857D01*
X66338571Y-77718857D01*
X66224285Y-77661714D01*
X66167142Y-77547428D01*
X66167142Y-77433142D01*
X66224285Y-77318857D01*
X66338571Y-77261714D01*
X66624285Y-77261714D01*
X66738571Y-77204571D01*
X67824285Y-76918857D02*
X67824285Y-77890285D01*
X67767142Y-78004571D01*
X67710000Y-78061714D01*
X67595714Y-78118857D01*
X67424285Y-78118857D01*
X67310000Y-78061714D01*
X67824285Y-77661714D02*
X67710000Y-77718857D01*
X67481428Y-77718857D01*
X67367142Y-77661714D01*
X67310000Y-77604571D01*
X67252857Y-77490285D01*
X67252857Y-77147428D01*
X67310000Y-77033142D01*
X67367142Y-76976000D01*
X67481428Y-76918857D01*
X67710000Y-76918857D01*
X67824285Y-76976000D01*
X68567142Y-77718857D02*
X68452857Y-77661714D01*
X68395714Y-77604571D01*
X68338571Y-77490285D01*
X68338571Y-77147428D01*
X68395714Y-77033142D01*
X68452857Y-76976000D01*
X68567142Y-76918857D01*
X68738571Y-76918857D01*
X68852857Y-76976000D01*
X68910000Y-77033142D01*
X68967142Y-77147428D01*
X68967142Y-77490285D01*
X68910000Y-77604571D01*
X68852857Y-77661714D01*
X68738571Y-77718857D01*
X68567142Y-77718857D01*
X69367142Y-76518857D02*
X70110000Y-76518857D01*
X69710000Y-76976000D01*
X69881428Y-76976000D01*
X69995714Y-77033142D01*
X70052857Y-77090285D01*
X70110000Y-77204571D01*
X70110000Y-77490285D01*
X70052857Y-77604571D01*
X69995714Y-77661714D01*
X69881428Y-77718857D01*
X69538571Y-77718857D01*
X69424285Y-77661714D01*
X69367142Y-77604571D01*
X70567142Y-76633142D02*
X70624285Y-76576000D01*
X70738571Y-76518857D01*
X71024285Y-76518857D01*
X71138571Y-76576000D01*
X71195714Y-76633142D01*
X71252857Y-76747428D01*
X71252857Y-76861714D01*
X71195714Y-77033142D01*
X70510000Y-77718857D01*
X71252857Y-77718857D01*
X72281428Y-76918857D02*
X72281428Y-77718857D01*
X71995714Y-76461714D02*
X71710000Y-77318857D01*
X72452857Y-77318857D01*
D12*
%TO.C,U1*%
X23679904Y-87706666D02*
X24479904Y-87440000D01*
X23679904Y-87173333D01*
X24403714Y-86449523D02*
X24441809Y-86487619D01*
X24479904Y-86601904D01*
X24479904Y-86678095D01*
X24441809Y-86792380D01*
X24365619Y-86868571D01*
X24289428Y-86906666D01*
X24137047Y-86944761D01*
X24022761Y-86944761D01*
X23870380Y-86906666D01*
X23794190Y-86868571D01*
X23718000Y-86792380D01*
X23679904Y-86678095D01*
X23679904Y-86601904D01*
X23718000Y-86487619D01*
X23756095Y-86449523D01*
X24403714Y-85649523D02*
X24441809Y-85687619D01*
X24479904Y-85801904D01*
X24479904Y-85878095D01*
X24441809Y-85992380D01*
X24365619Y-86068571D01*
X24289428Y-86106666D01*
X24137047Y-86144761D01*
X24022761Y-86144761D01*
X23870380Y-86106666D01*
X23794190Y-86068571D01*
X23718000Y-85992380D01*
X23679904Y-85878095D01*
X23679904Y-85801904D01*
X23718000Y-85687619D01*
X23756095Y-85649523D01*
X26829904Y-98179047D02*
X26296571Y-98179047D01*
X26448952Y-98179047D02*
X26372761Y-98140952D01*
X26334666Y-98102857D01*
X26296571Y-98026666D01*
X26296571Y-97950476D01*
X26829904Y-97569523D02*
X26791809Y-97645714D01*
X26753714Y-97683809D01*
X26677523Y-97721904D01*
X26448952Y-97721904D01*
X26372761Y-97683809D01*
X26334666Y-97645714D01*
X26296571Y-97569523D01*
X26296571Y-97455238D01*
X26334666Y-97379047D01*
X26372761Y-97340952D01*
X26448952Y-97302857D01*
X26677523Y-97302857D01*
X26753714Y-97340952D01*
X26791809Y-97379047D01*
X26829904Y-97455238D01*
X26829904Y-97569523D01*
X26296571Y-97036190D02*
X26829904Y-96883809D01*
X26448952Y-96731428D01*
X26829904Y-96579047D01*
X26296571Y-96426666D01*
X26829904Y-95702857D02*
X26829904Y-96160000D01*
X26829904Y-95931428D02*
X26029904Y-95931428D01*
X26144190Y-96007619D01*
X26220380Y-96083809D01*
X26258476Y-96160000D01*
X32141809Y-87251904D02*
X32179904Y-87328095D01*
X32179904Y-87480476D01*
X32141809Y-87556666D01*
X32103714Y-87594761D01*
X32027523Y-87632857D01*
X31798952Y-87632857D01*
X31722761Y-87594761D01*
X31684666Y-87556666D01*
X31646571Y-87480476D01*
X31646571Y-87328095D01*
X31684666Y-87251904D01*
X32179904Y-86794761D02*
X32141809Y-86870952D01*
X32103714Y-86909047D01*
X32027523Y-86947142D01*
X31798952Y-86947142D01*
X31722761Y-86909047D01*
X31684666Y-86870952D01*
X31646571Y-86794761D01*
X31646571Y-86680476D01*
X31684666Y-86604285D01*
X31722761Y-86566190D01*
X31798952Y-86528095D01*
X32027523Y-86528095D01*
X32103714Y-86566190D01*
X32141809Y-86604285D01*
X32179904Y-86680476D01*
X32179904Y-86794761D01*
X32179904Y-86070952D02*
X32141809Y-86147142D01*
X32065619Y-86185238D01*
X31379904Y-86185238D01*
X31456095Y-85804285D02*
X31418000Y-85766190D01*
X31379904Y-85690000D01*
X31379904Y-85499523D01*
X31418000Y-85423333D01*
X31456095Y-85385238D01*
X31532285Y-85347142D01*
X31608476Y-85347142D01*
X31722761Y-85385238D01*
X32179904Y-85842380D01*
X32179904Y-85347142D01*
X26138000Y-87249523D02*
X26099904Y-87325714D01*
X26099904Y-87440000D01*
X26138000Y-87554285D01*
X26214190Y-87630476D01*
X26290380Y-87668571D01*
X26442761Y-87706666D01*
X26557047Y-87706666D01*
X26709428Y-87668571D01*
X26785619Y-87630476D01*
X26861809Y-87554285D01*
X26899904Y-87440000D01*
X26899904Y-87363809D01*
X26861809Y-87249523D01*
X26823714Y-87211428D01*
X26557047Y-87211428D01*
X26557047Y-87363809D01*
X26899904Y-86868571D02*
X26099904Y-86868571D01*
X26899904Y-86411428D01*
X26099904Y-86411428D01*
X26899904Y-86030476D02*
X26099904Y-86030476D01*
X26099904Y-85840000D01*
X26138000Y-85725714D01*
X26214190Y-85649523D01*
X26290380Y-85611428D01*
X26442761Y-85573333D01*
X26557047Y-85573333D01*
X26709428Y-85611428D01*
X26785619Y-85649523D01*
X26861809Y-85725714D01*
X26899904Y-85840000D01*
X26899904Y-86030476D01*
X37001809Y-87281904D02*
X37039904Y-87358095D01*
X37039904Y-87510476D01*
X37001809Y-87586666D01*
X36963714Y-87624761D01*
X36887523Y-87662857D01*
X36658952Y-87662857D01*
X36582761Y-87624761D01*
X36544666Y-87586666D01*
X36506571Y-87510476D01*
X36506571Y-87358095D01*
X36544666Y-87281904D01*
X37039904Y-86824761D02*
X37001809Y-86900952D01*
X36963714Y-86939047D01*
X36887523Y-86977142D01*
X36658952Y-86977142D01*
X36582761Y-86939047D01*
X36544666Y-86900952D01*
X36506571Y-86824761D01*
X36506571Y-86710476D01*
X36544666Y-86634285D01*
X36582761Y-86596190D01*
X36658952Y-86558095D01*
X36887523Y-86558095D01*
X36963714Y-86596190D01*
X37001809Y-86634285D01*
X37039904Y-86710476D01*
X37039904Y-86824761D01*
X37039904Y-86100952D02*
X37001809Y-86177142D01*
X36925619Y-86215238D01*
X36239904Y-86215238D01*
X36506571Y-85453333D02*
X37039904Y-85453333D01*
X36201809Y-85643809D02*
X36773238Y-85834285D01*
X36773238Y-85339047D01*
X24229904Y-98189047D02*
X23696571Y-98189047D01*
X23848952Y-98189047D02*
X23772761Y-98150952D01*
X23734666Y-98112857D01*
X23696571Y-98036666D01*
X23696571Y-97960476D01*
X24229904Y-97579523D02*
X24191809Y-97655714D01*
X24153714Y-97693809D01*
X24077523Y-97731904D01*
X23848952Y-97731904D01*
X23772761Y-97693809D01*
X23734666Y-97655714D01*
X23696571Y-97579523D01*
X23696571Y-97465238D01*
X23734666Y-97389047D01*
X23772761Y-97350952D01*
X23848952Y-97312857D01*
X24077523Y-97312857D01*
X24153714Y-97350952D01*
X24191809Y-97389047D01*
X24229904Y-97465238D01*
X24229904Y-97579523D01*
X23696571Y-97046190D02*
X24229904Y-96893809D01*
X23848952Y-96741428D01*
X24229904Y-96589047D01*
X23696571Y-96436666D01*
X23429904Y-95979523D02*
X23429904Y-95903333D01*
X23468000Y-95827142D01*
X23506095Y-95789047D01*
X23582285Y-95750952D01*
X23734666Y-95712857D01*
X23925142Y-95712857D01*
X24077523Y-95750952D01*
X24153714Y-95789047D01*
X24191809Y-95827142D01*
X24229904Y-95903333D01*
X24229904Y-95979523D01*
X24191809Y-96055714D01*
X24153714Y-96093809D01*
X24077523Y-96131904D01*
X23925142Y-96170000D01*
X23734666Y-96170000D01*
X23582285Y-96131904D01*
X23506095Y-96093809D01*
X23468000Y-96055714D01*
X23429904Y-95979523D01*
X36931809Y-97731904D02*
X36969904Y-97808095D01*
X36969904Y-97960476D01*
X36931809Y-98036666D01*
X36893714Y-98074761D01*
X36817523Y-98112857D01*
X36588952Y-98112857D01*
X36512761Y-98074761D01*
X36474666Y-98036666D01*
X36436571Y-97960476D01*
X36436571Y-97808095D01*
X36474666Y-97731904D01*
X36969904Y-97274761D02*
X36931809Y-97350952D01*
X36893714Y-97389047D01*
X36817523Y-97427142D01*
X36588952Y-97427142D01*
X36512761Y-97389047D01*
X36474666Y-97350952D01*
X36436571Y-97274761D01*
X36436571Y-97160476D01*
X36474666Y-97084285D01*
X36512761Y-97046190D01*
X36588952Y-97008095D01*
X36817523Y-97008095D01*
X36893714Y-97046190D01*
X36931809Y-97084285D01*
X36969904Y-97160476D01*
X36969904Y-97274761D01*
X36969904Y-96550952D02*
X36931809Y-96627142D01*
X36855619Y-96665238D01*
X36169904Y-96665238D01*
X36969904Y-95827142D02*
X36969904Y-96284285D01*
X36969904Y-96055714D02*
X36169904Y-96055714D01*
X36284190Y-96131904D01*
X36360380Y-96208095D01*
X36398476Y-96284285D01*
X34601809Y-87351904D02*
X34639904Y-87428095D01*
X34639904Y-87580476D01*
X34601809Y-87656666D01*
X34563714Y-87694761D01*
X34487523Y-87732857D01*
X34258952Y-87732857D01*
X34182761Y-87694761D01*
X34144666Y-87656666D01*
X34106571Y-87580476D01*
X34106571Y-87428095D01*
X34144666Y-87351904D01*
X34639904Y-86894761D02*
X34601809Y-86970952D01*
X34563714Y-87009047D01*
X34487523Y-87047142D01*
X34258952Y-87047142D01*
X34182761Y-87009047D01*
X34144666Y-86970952D01*
X34106571Y-86894761D01*
X34106571Y-86780476D01*
X34144666Y-86704285D01*
X34182761Y-86666190D01*
X34258952Y-86628095D01*
X34487523Y-86628095D01*
X34563714Y-86666190D01*
X34601809Y-86704285D01*
X34639904Y-86780476D01*
X34639904Y-86894761D01*
X34639904Y-86170952D02*
X34601809Y-86247142D01*
X34525619Y-86285238D01*
X33839904Y-86285238D01*
X33839904Y-85942380D02*
X33839904Y-85447142D01*
X34144666Y-85713809D01*
X34144666Y-85599523D01*
X34182761Y-85523333D01*
X34220857Y-85485238D01*
X34297047Y-85447142D01*
X34487523Y-85447142D01*
X34563714Y-85485238D01*
X34601809Y-85523333D01*
X34639904Y-85599523D01*
X34639904Y-85828095D01*
X34601809Y-85904285D01*
X34563714Y-85942380D01*
X31919904Y-98189047D02*
X31386571Y-98189047D01*
X31538952Y-98189047D02*
X31462761Y-98150952D01*
X31424666Y-98112857D01*
X31386571Y-98036666D01*
X31386571Y-97960476D01*
X31919904Y-97579523D02*
X31881809Y-97655714D01*
X31843714Y-97693809D01*
X31767523Y-97731904D01*
X31538952Y-97731904D01*
X31462761Y-97693809D01*
X31424666Y-97655714D01*
X31386571Y-97579523D01*
X31386571Y-97465238D01*
X31424666Y-97389047D01*
X31462761Y-97350952D01*
X31538952Y-97312857D01*
X31767523Y-97312857D01*
X31843714Y-97350952D01*
X31881809Y-97389047D01*
X31919904Y-97465238D01*
X31919904Y-97579523D01*
X31386571Y-97046190D02*
X31919904Y-96893809D01*
X31538952Y-96741428D01*
X31919904Y-96589047D01*
X31386571Y-96436666D01*
X31119904Y-96208095D02*
X31119904Y-95712857D01*
X31424666Y-95979523D01*
X31424666Y-95865238D01*
X31462761Y-95789047D01*
X31500857Y-95750952D01*
X31577047Y-95712857D01*
X31767523Y-95712857D01*
X31843714Y-95750952D01*
X31881809Y-95789047D01*
X31919904Y-95865238D01*
X31919904Y-96093809D01*
X31881809Y-96170000D01*
X31843714Y-96208095D01*
X34391809Y-97751904D02*
X34429904Y-97828095D01*
X34429904Y-97980476D01*
X34391809Y-98056666D01*
X34353714Y-98094761D01*
X34277523Y-98132857D01*
X34048952Y-98132857D01*
X33972761Y-98094761D01*
X33934666Y-98056666D01*
X33896571Y-97980476D01*
X33896571Y-97828095D01*
X33934666Y-97751904D01*
X34429904Y-97294761D02*
X34391809Y-97370952D01*
X34353714Y-97409047D01*
X34277523Y-97447142D01*
X34048952Y-97447142D01*
X33972761Y-97409047D01*
X33934666Y-97370952D01*
X33896571Y-97294761D01*
X33896571Y-97180476D01*
X33934666Y-97104285D01*
X33972761Y-97066190D01*
X34048952Y-97028095D01*
X34277523Y-97028095D01*
X34353714Y-97066190D01*
X34391809Y-97104285D01*
X34429904Y-97180476D01*
X34429904Y-97294761D01*
X34429904Y-96570952D02*
X34391809Y-96647142D01*
X34315619Y-96685238D01*
X33629904Y-96685238D01*
X33629904Y-96113809D02*
X33629904Y-96037619D01*
X33668000Y-95961428D01*
X33706095Y-95923333D01*
X33782285Y-95885238D01*
X33934666Y-95847142D01*
X34125142Y-95847142D01*
X34277523Y-95885238D01*
X34353714Y-95923333D01*
X34391809Y-95961428D01*
X34429904Y-96037619D01*
X34429904Y-96113809D01*
X34391809Y-96190000D01*
X34353714Y-96228095D01*
X34277523Y-96266190D01*
X34125142Y-96304285D01*
X33934666Y-96304285D01*
X33782285Y-96266190D01*
X33706095Y-96228095D01*
X33668000Y-96190000D01*
X33629904Y-96113809D01*
X29349904Y-98169047D02*
X28816571Y-98169047D01*
X28968952Y-98169047D02*
X28892761Y-98130952D01*
X28854666Y-98092857D01*
X28816571Y-98016666D01*
X28816571Y-97940476D01*
X29349904Y-97559523D02*
X29311809Y-97635714D01*
X29273714Y-97673809D01*
X29197523Y-97711904D01*
X28968952Y-97711904D01*
X28892761Y-97673809D01*
X28854666Y-97635714D01*
X28816571Y-97559523D01*
X28816571Y-97445238D01*
X28854666Y-97369047D01*
X28892761Y-97330952D01*
X28968952Y-97292857D01*
X29197523Y-97292857D01*
X29273714Y-97330952D01*
X29311809Y-97369047D01*
X29349904Y-97445238D01*
X29349904Y-97559523D01*
X28816571Y-97026190D02*
X29349904Y-96873809D01*
X28968952Y-96721428D01*
X29349904Y-96569047D01*
X28816571Y-96416666D01*
X28626095Y-96150000D02*
X28588000Y-96111904D01*
X28549904Y-96035714D01*
X28549904Y-95845238D01*
X28588000Y-95769047D01*
X28626095Y-95730952D01*
X28702285Y-95692857D01*
X28778476Y-95692857D01*
X28892761Y-95730952D01*
X29349904Y-96188095D01*
X29349904Y-95692857D01*
X39619904Y-87440952D02*
X38819904Y-87440952D01*
X39581809Y-87440952D02*
X39619904Y-87517142D01*
X39619904Y-87669523D01*
X39581809Y-87745714D01*
X39543714Y-87783809D01*
X39467523Y-87821904D01*
X39238952Y-87821904D01*
X39162761Y-87783809D01*
X39124666Y-87745714D01*
X39086571Y-87669523D01*
X39086571Y-87517142D01*
X39124666Y-87440952D01*
X39619904Y-86717142D02*
X39200857Y-86717142D01*
X39124666Y-86755238D01*
X39086571Y-86831428D01*
X39086571Y-86983809D01*
X39124666Y-87060000D01*
X39581809Y-86717142D02*
X39619904Y-86793333D01*
X39619904Y-86983809D01*
X39581809Y-87060000D01*
X39505619Y-87098095D01*
X39429428Y-87098095D01*
X39353238Y-87060000D01*
X39315142Y-86983809D01*
X39315142Y-86793333D01*
X39277047Y-86717142D01*
X39086571Y-86450476D02*
X39086571Y-86145714D01*
X38819904Y-86336190D02*
X39505619Y-86336190D01*
X39581809Y-86298095D01*
X39619904Y-86221904D01*
X39619904Y-86145714D01*
X39619904Y-85536190D02*
X39200857Y-85536190D01*
X39124666Y-85574285D01*
X39086571Y-85650476D01*
X39086571Y-85802857D01*
X39124666Y-85879047D01*
X39581809Y-85536190D02*
X39619904Y-85612380D01*
X39619904Y-85802857D01*
X39581809Y-85879047D01*
X39505619Y-85917142D01*
X39429428Y-85917142D01*
X39353238Y-85879047D01*
X39315142Y-85802857D01*
X39315142Y-85612380D01*
X39277047Y-85536190D01*
D13*
%TO.C,D7*%
X44550000Y-40860000D02*
X45450000Y-40360000D01*
X44450000Y-40360000D02*
X44450000Y-41360000D01*
X45450000Y-41360000D02*
X44550000Y-40860000D01*
X42250000Y-41610000D02*
X47650000Y-41610000D01*
X47650000Y-40110000D02*
X47650000Y-41610000D01*
X42250000Y-40110000D02*
X42250000Y-41610000D01*
X47650000Y-40110000D02*
X42250000Y-40110000D01*
X45450000Y-40360000D02*
X45450000Y-41360000D01*
%TO.C,SW6*%
X31055000Y-54665000D02*
X35755000Y-54665000D01*
X30760000Y-60790000D02*
X30760000Y-61490000D01*
X36080000Y-55840000D02*
X35780000Y-55840000D01*
X34580000Y-48440000D02*
X34580000Y-52385000D01*
X36080000Y-54665000D02*
X36080000Y-55840000D01*
X26180000Y-56890000D02*
X26180000Y-61490000D01*
X23680000Y-46486000D02*
X32305000Y-46486000D01*
X35780000Y-55840000D02*
X35780000Y-59290000D01*
X35755000Y-54665000D02*
X36080000Y-54665000D01*
X26205000Y-61515000D02*
X30755000Y-61515000D01*
X23680000Y-50440000D02*
X28730000Y-50486000D01*
X34580000Y-52394000D02*
X30970000Y-52394000D01*
X23680000Y-50394000D02*
X23680000Y-46486000D01*
X31980000Y-59315000D02*
X35755000Y-59315000D01*
X26205000Y-56865000D02*
X28755000Y-56865000D01*
X30965000Y-52370000D02*
G75*
G03*
X28705000Y-50490000I-2070000J-190000D01*
G01*
X34569000Y-48370000D02*
G75*
G03*
X32305000Y-46486000I-2074000J-190000D01*
G01*
X31980000Y-59320000D02*
G75*
G03*
X30760000Y-60740000I100000J-1320000D01*
G01*
X28680000Y-56860000D02*
G75*
G03*
X31050000Y-54690000I100000J2270000D01*
G01*
%TO.C,SW11*%
X36090000Y-72165000D02*
X36090000Y-73340000D01*
X23690000Y-63986000D02*
X32315000Y-63986000D01*
X35790000Y-73340000D02*
X35790000Y-76790000D01*
X35765000Y-72165000D02*
X36090000Y-72165000D01*
X36090000Y-73340000D02*
X35790000Y-73340000D01*
X31990000Y-76815000D02*
X35765000Y-76815000D01*
X26190000Y-74390000D02*
X26190000Y-78990000D01*
X26215000Y-79015000D02*
X30765000Y-79015000D01*
X26215000Y-74365000D02*
X28765000Y-74365000D01*
X23690000Y-67940000D02*
X28740000Y-67986000D01*
X23690000Y-67894000D02*
X23690000Y-63986000D01*
X34590000Y-65940000D02*
X34590000Y-69885000D01*
X30770000Y-78290000D02*
X30770000Y-78990000D01*
X34590000Y-69894000D02*
X30980000Y-69894000D01*
X31065000Y-72165000D02*
X35765000Y-72165000D01*
X30975000Y-69870000D02*
G75*
G03*
X28715000Y-67990000I-2070000J-190000D01*
G01*
X28690000Y-74360000D02*
G75*
G03*
X31060000Y-72190000I100000J2270000D01*
G01*
X34579000Y-65870000D02*
G75*
G03*
X32315000Y-63986000I-2074000J-190000D01*
G01*
X31990000Y-76820000D02*
G75*
G03*
X30770000Y-78240000I100000J-1320000D01*
G01*
%TO.C,D6*%
X34950000Y-44750000D02*
X34950000Y-46250000D01*
X32750000Y-46000000D02*
X31850000Y-45500000D01*
X31750000Y-45000000D02*
X31750000Y-46000000D01*
X34950000Y-44750000D02*
X29550000Y-44750000D01*
X32750000Y-45000000D02*
X32750000Y-46000000D01*
X31850000Y-45500000D02*
X32750000Y-45000000D01*
X29550000Y-44750000D02*
X29550000Y-46250000D01*
X29550000Y-46250000D02*
X34950000Y-46250000D01*
%TO.C,SW9*%
X73240000Y-46950000D02*
X78290000Y-46996000D01*
X84140000Y-44950000D02*
X84140000Y-48895000D01*
X84140000Y-48904000D02*
X80530000Y-48904000D01*
X75740000Y-53400000D02*
X75740000Y-58000000D01*
X73240000Y-42996000D02*
X81865000Y-42996000D01*
X85315000Y-51175000D02*
X85640000Y-51175000D01*
X85640000Y-51175000D02*
X85640000Y-52350000D01*
X73240000Y-46904000D02*
X73240000Y-42996000D01*
X85340000Y-52350000D02*
X85340000Y-55800000D01*
X80320000Y-57300000D02*
X80320000Y-58000000D01*
X75765000Y-58025000D02*
X80315000Y-58025000D01*
X81540000Y-55825000D02*
X85315000Y-55825000D01*
X75765000Y-53375000D02*
X78315000Y-53375000D01*
X80615000Y-51175000D02*
X85315000Y-51175000D01*
X85640000Y-52350000D02*
X85340000Y-52350000D01*
X78240000Y-53370000D02*
G75*
G03*
X80610000Y-51200000I100000J2270000D01*
G01*
X84129000Y-44880000D02*
G75*
G03*
X81865000Y-42996000I-2074000J-190000D01*
G01*
X80525000Y-48880000D02*
G75*
G03*
X78265000Y-47000000I-2070000J-190000D01*
G01*
X81540000Y-55830000D02*
G75*
G03*
X80320000Y-57250000I100000J-1320000D01*
G01*
%TO.C,SW3*%
X65080000Y-33985000D02*
X68855000Y-33985000D01*
X56780000Y-21156000D02*
X65405000Y-21156000D01*
X56780000Y-25064000D02*
X56780000Y-21156000D01*
X69180000Y-30510000D02*
X68880000Y-30510000D01*
X68855000Y-29335000D02*
X69180000Y-29335000D01*
X67680000Y-27064000D02*
X64070000Y-27064000D01*
X56780000Y-25110000D02*
X61830000Y-25156000D01*
X63860000Y-35460000D02*
X63860000Y-36160000D01*
X59305000Y-31535000D02*
X61855000Y-31535000D01*
X59305000Y-36185000D02*
X63855000Y-36185000D01*
X68880000Y-30510000D02*
X68880000Y-33960000D01*
X64155000Y-29335000D02*
X68855000Y-29335000D01*
X69180000Y-29335000D02*
X69180000Y-30510000D01*
X59280000Y-31560000D02*
X59280000Y-36160000D01*
X67680000Y-23110000D02*
X67680000Y-27055000D01*
X67669000Y-23040000D02*
G75*
G03*
X65405000Y-21156000I-2074000J-190000D01*
G01*
X61780000Y-31530000D02*
G75*
G03*
X64150000Y-29360000I100000J2270000D01*
G01*
X64065000Y-27040000D02*
G75*
G03*
X61805000Y-25160000I-2070000J-190000D01*
G01*
X65080000Y-33990000D02*
G75*
G03*
X63860000Y-35410000I100000J-1320000D01*
G01*
%TO.C,D9*%
X77660000Y-41790000D02*
X78560000Y-41290000D01*
X80760000Y-41040000D02*
X75360000Y-41040000D01*
X78560000Y-41290000D02*
X78560000Y-42290000D01*
X80760000Y-41040000D02*
X80760000Y-42540000D01*
X77560000Y-41290000D02*
X77560000Y-42290000D01*
X75360000Y-42540000D02*
X80760000Y-42540000D01*
X75360000Y-41040000D02*
X75360000Y-42540000D01*
X78560000Y-42290000D02*
X77660000Y-41790000D01*
%TO.C,D16*%
X72570000Y-83380000D02*
X71670000Y-82880000D01*
X74770000Y-82130000D02*
X69370000Y-82130000D01*
X71670000Y-82880000D02*
X72570000Y-82380000D01*
X69370000Y-82130000D02*
X69370000Y-83630000D01*
X74770000Y-82130000D02*
X74770000Y-83630000D01*
X71570000Y-82380000D02*
X71570000Y-83380000D01*
X72570000Y-82380000D02*
X72570000Y-83380000D01*
X69370000Y-83630000D02*
X74770000Y-83630000D01*
%TO.C,D11*%
X31230000Y-62030000D02*
X31230000Y-63530000D01*
X25830000Y-62030000D02*
X25830000Y-63530000D01*
X29030000Y-63280000D02*
X28130000Y-62780000D01*
X25830000Y-63530000D02*
X31230000Y-63530000D01*
X28030000Y-62280000D02*
X28030000Y-63280000D01*
X31230000Y-62030000D02*
X25830000Y-62030000D01*
X28130000Y-62780000D02*
X29030000Y-62280000D01*
X29030000Y-62280000D02*
X29030000Y-63280000D01*
%TO.C,D14*%
X78620000Y-58750000D02*
X78620000Y-59750000D01*
X80820000Y-58500000D02*
X80820000Y-60000000D01*
X77620000Y-58750000D02*
X77620000Y-59750000D01*
X75420000Y-60000000D02*
X80820000Y-60000000D01*
X78620000Y-59750000D02*
X77720000Y-59250000D01*
X80820000Y-58500000D02*
X75420000Y-58500000D01*
X75420000Y-58500000D02*
X75420000Y-60000000D01*
X77720000Y-59250000D02*
X78620000Y-58750000D01*
%TO.C,D17*%
X93423605Y-83846335D02*
X93266813Y-85338118D01*
X90262191Y-84268189D02*
X91209525Y-83865003D01*
X93423605Y-83846335D02*
X88053187Y-83281882D01*
X88053187Y-83281882D02*
X87896395Y-84773665D01*
X91104997Y-84859525D02*
X90262191Y-84268189D01*
X91209525Y-83865003D02*
X91104997Y-84859525D01*
X90215003Y-83760475D02*
X90110475Y-84754997D01*
X87896395Y-84773665D02*
X93266813Y-85338118D01*
%TO.C,SW5*%
X92240000Y-39380000D02*
X92240000Y-43980000D01*
X102140000Y-38330000D02*
X101840000Y-38330000D01*
X98040000Y-41805000D02*
X101815000Y-41805000D01*
X89740000Y-32884000D02*
X89740000Y-28976000D01*
X101840000Y-38330000D02*
X101840000Y-41780000D01*
X97115000Y-37155000D02*
X101815000Y-37155000D01*
X92265000Y-44005000D02*
X96815000Y-44005000D01*
X100640000Y-34884000D02*
X97030000Y-34884000D01*
X102140000Y-37155000D02*
X102140000Y-38330000D01*
X92265000Y-39355000D02*
X94815000Y-39355000D01*
X100640000Y-30930000D02*
X100640000Y-34875000D01*
X101815000Y-37155000D02*
X102140000Y-37155000D01*
X89740000Y-28976000D02*
X98365000Y-28976000D01*
X96820000Y-43280000D02*
X96820000Y-43980000D01*
X89740000Y-32930000D02*
X94790000Y-32976000D01*
X94740000Y-39350000D02*
G75*
G03*
X97110000Y-37180000I100000J2270000D01*
G01*
X100629000Y-30860000D02*
G75*
G03*
X98365000Y-28976000I-2074000J-190000D01*
G01*
X98040000Y-41810000D02*
G75*
G03*
X96820000Y-43230000I100000J-1320000D01*
G01*
X97025000Y-34860000D02*
G75*
G03*
X94765000Y-32980000I-2070000J-190000D01*
G01*
%TO.C,SW15*%
X100620000Y-69884000D02*
X97010000Y-69884000D01*
X92245000Y-74355000D02*
X94795000Y-74355000D01*
X101795000Y-72155000D02*
X102120000Y-72155000D01*
X102120000Y-72155000D02*
X102120000Y-73330000D01*
X92220000Y-74380000D02*
X92220000Y-78980000D01*
X89720000Y-67930000D02*
X94770000Y-67976000D01*
X102120000Y-73330000D02*
X101820000Y-73330000D01*
X100620000Y-65930000D02*
X100620000Y-69875000D01*
X98020000Y-76805000D02*
X101795000Y-76805000D01*
X101820000Y-73330000D02*
X101820000Y-76780000D01*
X97095000Y-72155000D02*
X101795000Y-72155000D01*
X92245000Y-79005000D02*
X96795000Y-79005000D01*
X89720000Y-67884000D02*
X89720000Y-63976000D01*
X89720000Y-63976000D02*
X98345000Y-63976000D01*
X96800000Y-78280000D02*
X96800000Y-78980000D01*
X94720000Y-74350000D02*
G75*
G03*
X97090000Y-72180000I100000J2270000D01*
G01*
X98020000Y-76810000D02*
G75*
G03*
X96800000Y-78230000I100000J-1320000D01*
G01*
X97005000Y-69860000D02*
G75*
G03*
X94745000Y-67980000I-2070000J-190000D01*
G01*
X100609000Y-65860000D02*
G75*
G03*
X98345000Y-63976000I-2074000J-190000D01*
G01*
%TO.C,D13*%
X62040000Y-55320000D02*
X61140000Y-54820000D01*
X62040000Y-54320000D02*
X62040000Y-55320000D01*
X61040000Y-54320000D02*
X61040000Y-55320000D01*
X64240000Y-54070000D02*
X58840000Y-54070000D01*
X58840000Y-54070000D02*
X58840000Y-55570000D01*
X64240000Y-54070000D02*
X64240000Y-55570000D01*
X58840000Y-55570000D02*
X64240000Y-55570000D01*
X61140000Y-54820000D02*
X62040000Y-54320000D01*
%TO.C,SW7*%
X52340000Y-51450000D02*
X52340000Y-54900000D01*
X52640000Y-51450000D02*
X52340000Y-51450000D01*
X47320000Y-56400000D02*
X47320000Y-57100000D01*
X47615000Y-50275000D02*
X52315000Y-50275000D01*
X40240000Y-46050000D02*
X45290000Y-46096000D01*
X51140000Y-48004000D02*
X47530000Y-48004000D01*
X51140000Y-44050000D02*
X51140000Y-47995000D01*
X42740000Y-52500000D02*
X42740000Y-57100000D01*
X42765000Y-57125000D02*
X47315000Y-57125000D01*
X42765000Y-52475000D02*
X45315000Y-52475000D01*
X40240000Y-42096000D02*
X48865000Y-42096000D01*
X52640000Y-50275000D02*
X52640000Y-51450000D01*
X40240000Y-46004000D02*
X40240000Y-42096000D01*
X52315000Y-50275000D02*
X52640000Y-50275000D01*
X48540000Y-54925000D02*
X52315000Y-54925000D01*
X51129000Y-43980000D02*
G75*
G03*
X48865000Y-42096000I-2074000J-190000D01*
G01*
X47525000Y-47980000D02*
G75*
G03*
X45265000Y-46100000I-2070000J-190000D01*
G01*
X45240000Y-52470000D02*
G75*
G03*
X47610000Y-50300000I100000J2270000D01*
G01*
X48540000Y-54930000D02*
G75*
G03*
X47320000Y-56350000I100000J-1320000D01*
G01*
%TO.C,D1*%
X34330000Y-28380000D02*
X33430000Y-27880000D01*
X36530000Y-27130000D02*
X36530000Y-28630000D01*
X33430000Y-27880000D02*
X34330000Y-27380000D01*
X34330000Y-27380000D02*
X34330000Y-28380000D01*
X31130000Y-27130000D02*
X31130000Y-28630000D01*
X33330000Y-27380000D02*
X33330000Y-28380000D01*
X36530000Y-27130000D02*
X31130000Y-27130000D01*
X31130000Y-28630000D02*
X36530000Y-28630000D01*
%TO.C,SW16*%
X69891200Y-94520900D02*
X69891200Y-99120900D01*
X79491200Y-93470900D02*
X79491200Y-96920900D01*
X79791200Y-93470900D02*
X79491200Y-93470900D01*
X67391200Y-88024900D02*
X67391200Y-84116900D01*
X74766200Y-92295900D02*
X79466200Y-92295900D01*
X67391200Y-84116900D02*
X76016200Y-84116900D01*
X74471200Y-98420900D02*
X74471200Y-99120900D01*
X79466200Y-92295900D02*
X79791200Y-92295900D01*
X69916200Y-94495900D02*
X72466200Y-94495900D01*
X79791200Y-92295900D02*
X79791200Y-93470900D01*
X69916200Y-99145900D02*
X74466200Y-99145900D01*
X78291200Y-86070900D02*
X78291200Y-90015900D01*
X78291200Y-90024900D02*
X74681200Y-90024900D01*
X67391200Y-88070900D02*
X72441200Y-88116900D01*
X75691200Y-96945900D02*
X79466200Y-96945900D01*
X75691200Y-96950900D02*
G75*
G03*
X74471200Y-98370900I100000J-1320000D01*
G01*
X78280200Y-86000900D02*
G75*
G03*
X76016200Y-84116900I-2074000J-190000D01*
G01*
X74676200Y-90000900D02*
G75*
G03*
X72416200Y-88120900I-2070000J-190000D01*
G01*
X72391200Y-94490900D02*
G75*
G03*
X74761200Y-92320900I100000J2270000D01*
G01*
%TO.C,D18*%
X103096109Y-86515813D02*
X102854187Y-87486109D01*
X102125813Y-86273891D02*
X101883891Y-87244187D01*
X100051643Y-85499089D02*
X99688760Y-86954533D01*
X102854187Y-87486109D02*
X102101882Y-86783231D01*
X102101882Y-86783231D02*
X103096109Y-86515813D01*
X105291240Y-86805467D02*
X104928357Y-88260911D01*
X105291240Y-86805467D02*
X100051643Y-85499089D01*
X99688760Y-86954533D02*
X104928357Y-88260911D01*
%TO.C,D4*%
X80260000Y-23370000D02*
X80260000Y-24870000D01*
X78060000Y-24620000D02*
X77160000Y-24120000D01*
X77060000Y-23620000D02*
X77060000Y-24620000D01*
X78060000Y-23620000D02*
X78060000Y-24620000D01*
X77160000Y-24120000D02*
X78060000Y-23620000D01*
X74860000Y-24870000D02*
X80260000Y-24870000D01*
X74860000Y-23370000D02*
X74860000Y-24870000D01*
X80260000Y-23370000D02*
X74860000Y-23370000D01*
%TO.C,D10*%
X94990000Y-44850000D02*
X94990000Y-45850000D01*
X93990000Y-44850000D02*
X93990000Y-45850000D01*
X97190000Y-44600000D02*
X97190000Y-46100000D01*
X97190000Y-44600000D02*
X91790000Y-44600000D01*
X94990000Y-45850000D02*
X94090000Y-45350000D01*
X94090000Y-45350000D02*
X94990000Y-44850000D01*
X91790000Y-46100000D02*
X97190000Y-46100000D01*
X91790000Y-44600000D02*
X91790000Y-46100000D01*
%TO.C,SW18*%
X103587701Y-99016544D02*
X102474860Y-103479905D01*
X107088160Y-103908700D02*
X106918815Y-104587907D01*
X113447647Y-100392761D02*
X113156558Y-100320184D01*
X113416559Y-99174038D02*
X113731905Y-99252663D01*
X113782425Y-92849689D02*
X112828043Y-96677506D01*
X102722358Y-92153332D02*
X107611223Y-93419671D01*
X113156558Y-100320184D02*
X112321927Y-103667704D01*
X112825866Y-96686239D02*
X109323098Y-95812901D01*
X102733486Y-92108698D02*
X103678917Y-88316783D01*
X108628756Y-102772658D02*
X112291622Y-103685914D01*
X102493070Y-103510210D02*
X106907915Y-104610955D01*
X103618006Y-98998335D02*
X106092261Y-99615236D01*
X113731905Y-99252663D02*
X113447647Y-100392761D01*
X103678917Y-88316783D02*
X112047718Y-90403359D01*
X108856169Y-98037006D02*
X113416559Y-99174038D01*
X109324054Y-95788404D02*
G75*
G03*
X107585998Y-93417504I-2054478J316422D01*
G01*
X113788687Y-92779107D02*
G75*
G03*
X112047718Y-90403359I-2058359J317389D01*
G01*
X106020698Y-99592240D02*
G75*
G03*
X108845269Y-98060053I646192J2178379D01*
G01*
X108627546Y-102777509D02*
G75*
G03*
X107100256Y-103860185I-222307J-1304983D01*
G01*
%TO.C,J1*%
X111878324Y-82495214D02*
X106056550Y-81043683D01*
X108959613Y-69400134D02*
X114781387Y-70851666D01*
X106056550Y-81043683D02*
X108959613Y-69400134D01*
X114781387Y-70851666D02*
X111878324Y-82495214D01*
%TO.C,D3*%
X49380000Y-23360000D02*
X50280000Y-22860000D01*
X47080000Y-24110000D02*
X52480000Y-24110000D01*
X52480000Y-22610000D02*
X47080000Y-22610000D01*
X47080000Y-22610000D02*
X47080000Y-24110000D01*
X50280000Y-23860000D02*
X49380000Y-23360000D01*
X50280000Y-22860000D02*
X50280000Y-23860000D01*
X49280000Y-22860000D02*
X49280000Y-23860000D01*
X52480000Y-22610000D02*
X52480000Y-24110000D01*
%TO.C,SW8*%
X67590000Y-40540000D02*
X67590000Y-44485000D01*
X59190000Y-48990000D02*
X59190000Y-53590000D01*
X63770000Y-52890000D02*
X63770000Y-53590000D01*
X56690000Y-42494000D02*
X56690000Y-38586000D01*
X59215000Y-53615000D02*
X63765000Y-53615000D01*
X69090000Y-46765000D02*
X69090000Y-47940000D01*
X56690000Y-38586000D02*
X65315000Y-38586000D01*
X64990000Y-51415000D02*
X68765000Y-51415000D01*
X68790000Y-47940000D02*
X68790000Y-51390000D01*
X69090000Y-47940000D02*
X68790000Y-47940000D01*
X56690000Y-42540000D02*
X61740000Y-42586000D01*
X67590000Y-44494000D02*
X63980000Y-44494000D01*
X68765000Y-46765000D02*
X69090000Y-46765000D01*
X64065000Y-46765000D02*
X68765000Y-46765000D01*
X59215000Y-48965000D02*
X61765000Y-48965000D01*
X63975000Y-44470000D02*
G75*
G03*
X61715000Y-42590000I-2070000J-190000D01*
G01*
X67579000Y-40470000D02*
G75*
G03*
X65315000Y-38586000I-2074000J-190000D01*
G01*
X61690000Y-48960000D02*
G75*
G03*
X64060000Y-46790000I100000J2270000D01*
G01*
X64990000Y-51420000D02*
G75*
G03*
X63770000Y-52840000I100000J-1320000D01*
G01*
%TO.C,SW17*%
X95634341Y-91874132D02*
X92044117Y-91496784D01*
X90957646Y-99824839D02*
X90884477Y-100521004D01*
X91891267Y-93764228D02*
X96565520Y-94255512D01*
X96765919Y-95458047D02*
X96467562Y-95426689D01*
X86837873Y-95445214D02*
X89373904Y-95711761D01*
X96565520Y-94255512D02*
X96888740Y-94289484D01*
X92325143Y-98485444D02*
X96079463Y-98880039D01*
X96047647Y-87941792D02*
X95635282Y-91865181D01*
X84998301Y-88791476D02*
X90015828Y-89365093D01*
X85003109Y-88745728D02*
X85411607Y-84859136D01*
X86351816Y-100069740D02*
X90876891Y-100545345D01*
X96467562Y-95426689D02*
X96106939Y-98857789D01*
X96888740Y-94289484D02*
X96765919Y-95458047D01*
X86810397Y-95467463D02*
X86329566Y-100042264D01*
X85411607Y-84859136D02*
X93989358Y-85760694D01*
X89299838Y-95698948D02*
G75*
G03*
X91883681Y-93788569I336732J2247111D01*
G01*
X96044024Y-87871026D02*
G75*
G03*
X93989358Y-85760694I-2082499J27833D01*
G01*
X92041652Y-91472393D02*
G75*
G03*
X89990547Y-89366458I-2078520J27415D01*
G01*
X92324620Y-98490416D02*
G75*
G03*
X90962873Y-99775113I-38525J-1323222D01*
G01*
D14*
%TO.C,U1*%
X22858000Y-85200000D02*
X40348000Y-85200000D01*
X40348000Y-85200000D02*
X40348000Y-83230000D01*
X40348000Y-83230000D02*
X22858000Y-83230000D01*
X22858000Y-83230000D02*
X22858000Y-85200000D01*
X22838000Y-100410000D02*
X40328000Y-100410000D01*
X40328000Y-100410000D02*
X40328000Y-98440000D01*
X40328000Y-98440000D02*
X22838000Y-98440000D01*
X22838000Y-98440000D02*
X22838000Y-100410000D01*
D13*
%TO.C,SW10*%
X97105000Y-54665000D02*
X101805000Y-54665000D01*
X98030000Y-59315000D02*
X101805000Y-59315000D01*
X92255000Y-56865000D02*
X94805000Y-56865000D01*
X89730000Y-50440000D02*
X94780000Y-50486000D01*
X89730000Y-46486000D02*
X98355000Y-46486000D01*
X92255000Y-61515000D02*
X96805000Y-61515000D01*
X101805000Y-54665000D02*
X102130000Y-54665000D01*
X102130000Y-55840000D02*
X101830000Y-55840000D01*
X100630000Y-48440000D02*
X100630000Y-52385000D01*
X89730000Y-50394000D02*
X89730000Y-46486000D01*
X100630000Y-52394000D02*
X97020000Y-52394000D01*
X102130000Y-54665000D02*
X102130000Y-55840000D01*
X101830000Y-55840000D02*
X101830000Y-59290000D01*
X92230000Y-56890000D02*
X92230000Y-61490000D01*
X96810000Y-60790000D02*
X96810000Y-61490000D01*
X94730000Y-56860000D02*
G75*
G03*
X97100000Y-54690000I100000J2270000D01*
G01*
X97015000Y-52370000D02*
G75*
G03*
X94755000Y-50490000I-2070000J-190000D01*
G01*
X98030000Y-59320000D02*
G75*
G03*
X96810000Y-60740000I100000J-1320000D01*
G01*
X100619000Y-48370000D02*
G75*
G03*
X98355000Y-46486000I-2074000J-190000D01*
G01*
%TO.C,D15*%
X95110000Y-62340000D02*
X95110000Y-63340000D01*
X91910000Y-63590000D02*
X97310000Y-63590000D01*
X94210000Y-62840000D02*
X95110000Y-62340000D01*
X94110000Y-62340000D02*
X94110000Y-63340000D01*
X97310000Y-62090000D02*
X91910000Y-62090000D01*
X95110000Y-63340000D02*
X94210000Y-62840000D01*
X91910000Y-62090000D02*
X91910000Y-63590000D01*
X97310000Y-62090000D02*
X97310000Y-63590000D01*
%TO.C,SW2*%
X42735000Y-35015000D02*
X45285000Y-35015000D01*
X52610000Y-32815000D02*
X52610000Y-33990000D01*
X40210000Y-28590000D02*
X45260000Y-28636000D01*
X47290000Y-38940000D02*
X47290000Y-39640000D01*
X51110000Y-26590000D02*
X51110000Y-30535000D01*
X52285000Y-32815000D02*
X52610000Y-32815000D01*
X52310000Y-33990000D02*
X52310000Y-37440000D01*
X40210000Y-24636000D02*
X48835000Y-24636000D01*
X40210000Y-28544000D02*
X40210000Y-24636000D01*
X42710000Y-35040000D02*
X42710000Y-39640000D01*
X47585000Y-32815000D02*
X52285000Y-32815000D01*
X42735000Y-39665000D02*
X47285000Y-39665000D01*
X51110000Y-30544000D02*
X47500000Y-30544000D01*
X48510000Y-37465000D02*
X52285000Y-37465000D01*
X52610000Y-33990000D02*
X52310000Y-33990000D01*
X45210000Y-35010000D02*
G75*
G03*
X47580000Y-32840000I100000J2270000D01*
G01*
X48510000Y-37470000D02*
G75*
G03*
X47290000Y-38890000I100000J-1320000D01*
G01*
X51099000Y-26520000D02*
G75*
G03*
X48835000Y-24636000I-2074000J-190000D01*
G01*
X47495000Y-30520000D02*
G75*
G03*
X45235000Y-28640000I-2070000J-190000D01*
G01*
%TO.C,SW13*%
X69120000Y-65460000D02*
X68820000Y-65460000D01*
X56720000Y-56106000D02*
X65345000Y-56106000D01*
X59245000Y-71135000D02*
X63795000Y-71135000D01*
X68795000Y-64285000D02*
X69120000Y-64285000D01*
X59220000Y-66510000D02*
X59220000Y-71110000D01*
X69120000Y-64285000D02*
X69120000Y-65460000D01*
X67620000Y-58060000D02*
X67620000Y-62005000D01*
X68820000Y-65460000D02*
X68820000Y-68910000D01*
X65020000Y-68935000D02*
X68795000Y-68935000D01*
X59245000Y-66485000D02*
X61795000Y-66485000D01*
X67620000Y-62014000D02*
X64010000Y-62014000D01*
X63800000Y-70410000D02*
X63800000Y-71110000D01*
X56720000Y-60014000D02*
X56720000Y-56106000D01*
X56720000Y-60060000D02*
X61770000Y-60106000D01*
X64095000Y-64285000D02*
X68795000Y-64285000D01*
X65020000Y-68940000D02*
G75*
G03*
X63800000Y-70360000I100000J-1320000D01*
G01*
X67609000Y-57990000D02*
G75*
G03*
X65345000Y-56106000I-2074000J-190000D01*
G01*
X64005000Y-61990000D02*
G75*
G03*
X61745000Y-60110000I-2070000J-190000D01*
G01*
X61720000Y-66480000D02*
G75*
G03*
X64090000Y-64310000I100000J2270000D01*
G01*
%TO.C,SW12*%
X51140000Y-61540000D02*
X51140000Y-65485000D01*
X40240000Y-63494000D02*
X40240000Y-59586000D01*
X40240000Y-63540000D02*
X45290000Y-63586000D01*
X47320000Y-73890000D02*
X47320000Y-74590000D01*
X42765000Y-74615000D02*
X47315000Y-74615000D01*
X48540000Y-72415000D02*
X52315000Y-72415000D01*
X51140000Y-65494000D02*
X47530000Y-65494000D01*
X52340000Y-68940000D02*
X52340000Y-72390000D01*
X52640000Y-68940000D02*
X52340000Y-68940000D01*
X52640000Y-67765000D02*
X52640000Y-68940000D01*
X40240000Y-59586000D02*
X48865000Y-59586000D01*
X47615000Y-67765000D02*
X52315000Y-67765000D01*
X42765000Y-69965000D02*
X45315000Y-69965000D01*
X52315000Y-67765000D02*
X52640000Y-67765000D01*
X42740000Y-69990000D02*
X42740000Y-74590000D01*
X51129000Y-61470000D02*
G75*
G03*
X48865000Y-59586000I-2074000J-190000D01*
G01*
X47525000Y-65470000D02*
G75*
G03*
X45265000Y-63590000I-2070000J-190000D01*
G01*
X45240000Y-69960000D02*
G75*
G03*
X47610000Y-67790000I100000J2270000D01*
G01*
X48540000Y-72420000D02*
G75*
G03*
X47320000Y-73840000I100000J-1320000D01*
G01*
%TO.C,SW14*%
X80605000Y-68675000D02*
X85305000Y-68675000D01*
X75755000Y-70875000D02*
X78305000Y-70875000D01*
X84130000Y-66404000D02*
X80520000Y-66404000D01*
X75755000Y-75525000D02*
X80305000Y-75525000D01*
X81530000Y-73325000D02*
X85305000Y-73325000D01*
X84130000Y-62450000D02*
X84130000Y-66395000D01*
X73230000Y-64450000D02*
X78280000Y-64496000D01*
X85630000Y-69850000D02*
X85330000Y-69850000D01*
X75730000Y-70900000D02*
X75730000Y-75500000D01*
X73230000Y-60496000D02*
X81855000Y-60496000D01*
X73230000Y-64404000D02*
X73230000Y-60496000D01*
X80310000Y-74800000D02*
X80310000Y-75500000D01*
X85330000Y-69850000D02*
X85330000Y-73300000D01*
X85630000Y-68675000D02*
X85630000Y-69850000D01*
X85305000Y-68675000D02*
X85630000Y-68675000D01*
X81530000Y-73330000D02*
G75*
G03*
X80310000Y-74750000I100000J-1320000D01*
G01*
X78230000Y-70870000D02*
G75*
G03*
X80600000Y-68700000I100000J2270000D01*
G01*
X84119000Y-62380000D02*
G75*
G03*
X81855000Y-60496000I-2074000J-190000D01*
G01*
X80515000Y-66380000D02*
G75*
G03*
X78255000Y-64500000I-2070000J-190000D01*
G01*
%TO.C,SW1*%
X34580000Y-30940000D02*
X34580000Y-34885000D01*
X31055000Y-37165000D02*
X35755000Y-37165000D01*
X26205000Y-39365000D02*
X28755000Y-39365000D01*
X31980000Y-41815000D02*
X35755000Y-41815000D01*
X23680000Y-32940000D02*
X28730000Y-32986000D01*
X30760000Y-43290000D02*
X30760000Y-43990000D01*
X34580000Y-34894000D02*
X30970000Y-34894000D01*
X36080000Y-37165000D02*
X36080000Y-38340000D01*
X26180000Y-39390000D02*
X26180000Y-43990000D01*
X23680000Y-32894000D02*
X23680000Y-28986000D01*
X26205000Y-44015000D02*
X30755000Y-44015000D01*
X35780000Y-38340000D02*
X35780000Y-41790000D01*
X36080000Y-38340000D02*
X35780000Y-38340000D01*
X23680000Y-28986000D02*
X32305000Y-28986000D01*
X35755000Y-37165000D02*
X36080000Y-37165000D01*
X28680000Y-39360000D02*
G75*
G03*
X31050000Y-37190000I100000J2270000D01*
G01*
X34569000Y-30870000D02*
G75*
G03*
X32305000Y-28986000I-2074000J-190000D01*
G01*
X31980000Y-41820000D02*
G75*
G03*
X30760000Y-43240000I100000J-1320000D01*
G01*
X30965000Y-34870000D02*
G75*
G03*
X28705000Y-32990000I-2070000J-190000D01*
G01*
%TO.C,D5*%
X88340000Y-27670000D02*
X89240000Y-27170000D01*
X86040000Y-26920000D02*
X86040000Y-28420000D01*
X91440000Y-26920000D02*
X91440000Y-28420000D01*
X91440000Y-26920000D02*
X86040000Y-26920000D01*
X89240000Y-28170000D02*
X88340000Y-27670000D01*
X89240000Y-27170000D02*
X89240000Y-28170000D01*
X88240000Y-27170000D02*
X88240000Y-28170000D01*
X86040000Y-28420000D02*
X91440000Y-28420000D01*
%TO.C,D8*%
X64240000Y-36630000D02*
X58840000Y-36630000D01*
X61040000Y-36880000D02*
X61040000Y-37880000D01*
X61140000Y-37380000D02*
X62040000Y-36880000D01*
X62040000Y-37880000D02*
X61140000Y-37380000D01*
X58840000Y-38130000D02*
X64240000Y-38130000D01*
X64240000Y-36630000D02*
X64240000Y-38130000D01*
X58840000Y-36630000D02*
X58840000Y-38130000D01*
X62040000Y-36880000D02*
X62040000Y-37880000D01*
%TO.C,SW4*%
X74765000Y-35495000D02*
X77315000Y-35495000D01*
X79320000Y-39420000D02*
X79320000Y-40120000D01*
X84640000Y-34470000D02*
X84340000Y-34470000D01*
X72240000Y-29070000D02*
X77290000Y-29116000D01*
X80540000Y-37945000D02*
X84315000Y-37945000D01*
X83140000Y-31024000D02*
X79530000Y-31024000D01*
X84340000Y-34470000D02*
X84340000Y-37920000D01*
X74740000Y-35520000D02*
X74740000Y-40120000D01*
X79615000Y-33295000D02*
X84315000Y-33295000D01*
X72240000Y-25116000D02*
X80865000Y-25116000D01*
X84315000Y-33295000D02*
X84640000Y-33295000D01*
X74765000Y-40145000D02*
X79315000Y-40145000D01*
X72240000Y-29024000D02*
X72240000Y-25116000D01*
X84640000Y-33295000D02*
X84640000Y-34470000D01*
X83140000Y-27070000D02*
X83140000Y-31015000D01*
X79525000Y-31000000D02*
G75*
G03*
X77265000Y-29120000I-2070000J-190000D01*
G01*
X83129000Y-27000000D02*
G75*
G03*
X80865000Y-25116000I-2074000J-190000D01*
G01*
X80540000Y-37950000D02*
G75*
G03*
X79320000Y-39370000I100000J-1320000D01*
G01*
X77240000Y-35490000D02*
G75*
G03*
X79610000Y-33320000I100000J2270000D01*
G01*
%TO.C,D2*%
X40360000Y-23450000D02*
X41260000Y-22950000D01*
X38060000Y-22700000D02*
X38060000Y-24200000D01*
X41260000Y-23950000D02*
X40360000Y-23450000D01*
X41260000Y-22950000D02*
X41260000Y-23950000D01*
X38060000Y-24200000D02*
X43460000Y-24200000D01*
X43460000Y-22700000D02*
X38060000Y-22700000D01*
X43460000Y-22700000D02*
X43460000Y-24200000D01*
X40260000Y-22950000D02*
X40260000Y-23950000D01*
%TO.C,D12*%
X42470000Y-57620000D02*
X42470000Y-59120000D01*
X45670000Y-58870000D02*
X44770000Y-58370000D01*
X44770000Y-58370000D02*
X45670000Y-57870000D01*
X42470000Y-59120000D02*
X47870000Y-59120000D01*
X45670000Y-57870000D02*
X45670000Y-58870000D01*
X47870000Y-57620000D02*
X42470000Y-57620000D01*
X44670000Y-57870000D02*
X44670000Y-58870000D01*
X47870000Y-57620000D02*
X47870000Y-59120000D01*
%TD*%
D15*
%TO.C,J1*%
X111507617Y-71581344D03*
X109814164Y-78373414D03*
X109809600Y-71157980D03*
X108116146Y-77950050D03*
D16*
X109355425Y-81660062D03*
X106978201Y-81067354D03*
X113109779Y-73835912D03*
X107336519Y-72396477D03*
X112384013Y-76746799D03*
X106610754Y-75307364D03*
X111416326Y-80627982D03*
X105643066Y-79188547D03*
%TD*%
D17*
%TO.C,U1*%
X23987000Y-99417500D03*
X26527000Y-99417500D03*
X29067000Y-99417500D03*
X31607000Y-99417500D03*
X34147000Y-99417500D03*
X36687000Y-99417500D03*
X39227000Y-99417500D03*
X39227000Y-84182500D03*
X36687000Y-84182500D03*
X34147000Y-84182500D03*
X31607000Y-84182500D03*
X29067000Y-84182500D03*
X26527000Y-84182500D03*
X23987000Y-84182500D03*
%TD*%
D18*
X37197400Y-23049800D03*
X77061700Y-23319700D03*
X26679539Y-39433123D03*
X35863300Y-28959100D03*
X43995000Y-23895000D03*
X43400000Y-34770000D03*
X52647200Y-21919800D03*
X63345000Y-30925000D03*
X80742650Y-24857350D03*
X75750000Y-35200000D03*
X92750000Y-39190000D03*
X95176600Y-28867700D03*
X34457800Y-44415600D03*
X27060000Y-56510000D03*
X43550000Y-52310000D03*
X48322650Y-41417350D03*
X64860200Y-37579400D03*
X59950000Y-48980000D03*
X77740000Y-53250000D03*
X81403500Y-41906600D03*
X97575000Y-45405000D03*
X92820000Y-56860000D03*
X79690500Y-40687200D03*
X39199700Y-41016300D03*
X42051700Y-100542800D03*
X37667200Y-62242400D03*
X29730000Y-74390000D03*
X64080000Y-32254400D03*
X38800000Y-74540000D03*
X58227200Y-37380000D03*
X29195700Y-45536700D03*
X27043630Y-73713788D03*
X32200500Y-63744800D03*
X49433900Y-59682500D03*
X46260000Y-69540000D03*
X65425800Y-55955400D03*
X62610000Y-66120000D03*
X79870000Y-70730000D03*
X81433500Y-59745600D03*
X98785700Y-72305000D03*
X74405000Y-94565000D03*
X76170200Y-84134600D03*
X93479000Y-85231000D03*
X87220000Y-95820000D03*
X96902900Y-92943700D03*
X104080000Y-99050000D03*
X113930000Y-95090000D03*
X105610000Y-87330000D03*
X27768000Y-86081400D03*
X36215500Y-77600000D03*
X76060800Y-58165500D03*
X27252400Y-63866800D03*
X39685900Y-59122500D03*
X42144300Y-58731700D03*
X91255800Y-63039400D03*
X90213600Y-82805600D03*
X87581000Y-84493000D03*
X100262300Y-87691500D03*
X30207500Y-85992300D03*
X72070000Y-82773800D03*
X99398600Y-82805600D03*
X99830900Y-81276800D03*
X74720000Y-42460000D03*
X56320000Y-35800000D03*
X89500000Y-45170000D03*
X20670000Y-53540000D03*
X32980000Y-90040000D03*
X67280000Y-37820000D03*
X83780000Y-82740000D03*
X49980000Y-73580000D03*
X99890000Y-44010000D03*
X51690000Y-38420000D03*
X91610000Y-36150000D03*
X75660000Y-69210000D03*
X90020000Y-41880000D03*
X81695624Y-98557579D03*
X71420000Y-41870000D03*
X73660000Y-40510000D03*
X47970000Y-31760000D03*
X20970000Y-79670000D03*
X29510000Y-78980000D03*
X21690000Y-62840000D03*
X84100000Y-57200000D03*
X94380000Y-47920000D03*
X58660000Y-29790000D03*
X38390000Y-77840000D03*
X41930000Y-33120000D03*
X75960000Y-77170000D03*
X24510000Y-45160000D03*
X85590000Y-41380000D03*
X52720000Y-43340000D03*
X86650000Y-46760000D03*
X23570000Y-60290000D03*
X36660000Y-48300000D03*
X71280000Y-58560000D03*
X65750000Y-82730000D03*
X85980802Y-61397385D03*
X37520000Y-43180000D03*
X91580000Y-55250000D03*
X24090000Y-63300000D03*
X58010000Y-64200000D03*
X45480000Y-88940000D03*
X66680000Y-69660000D03*
X55200000Y-53770000D03*
X52070000Y-59380000D03*
X67740000Y-53960000D03*
X50520000Y-21520000D03*
X45510000Y-83430000D03*
X36630000Y-88780000D03*
X89070000Y-62500000D03*
X86390000Y-93420000D03*
X83715171Y-39032033D03*
X41980000Y-67530000D03*
X53430000Y-56390000D03*
X22011149Y-45000488D03*
X79640000Y-21210000D03*
X22590000Y-77720000D03*
X100110000Y-61670000D03*
X61410000Y-36080000D03*
X21251900Y-30710000D03*
X38140000Y-48028500D03*
X53316000Y-22880000D03*
X56810800Y-38219200D03*
X67353000Y-84222900D03*
X56401100Y-53115400D03*
X81166300Y-86717500D03*
X69835700Y-26966800D03*
X71130000Y-56818100D03*
X40525300Y-78519500D03*
X99759100Y-89465000D03*
X88101400Y-46595400D03*
X87699800Y-33180200D03*
X90090000Y-63070000D03*
X32290000Y-50750000D03*
X24670000Y-50750000D03*
X33560000Y-53290000D03*
X33480000Y-56990000D03*
X22980000Y-53290000D03*
X28480000Y-53290000D03*
X31020000Y-48210000D03*
X23480000Y-56990000D03*
X25940000Y-48210000D03*
X23400000Y-53290000D03*
X28480000Y-59190000D03*
X33980000Y-53290000D03*
X33490000Y-74490000D03*
X25950000Y-65710000D03*
X23410000Y-70790000D03*
X32300000Y-68250000D03*
X23490000Y-74490000D03*
X33570000Y-70790000D03*
X33990000Y-70790000D03*
X28490000Y-76690000D03*
X24680000Y-68250000D03*
X31030000Y-65710000D03*
X22990000Y-70790000D03*
X28490000Y-70790000D03*
X75500000Y-44720000D03*
X72960000Y-49800000D03*
X78040000Y-49800000D03*
X83540000Y-49800000D03*
X83120000Y-49800000D03*
X81850000Y-47260000D03*
X83040000Y-53500000D03*
X73040000Y-53500000D03*
X80580000Y-44720000D03*
X74230000Y-47260000D03*
X78040000Y-55700000D03*
X72540000Y-49800000D03*
X64120000Y-22880000D03*
X66580000Y-31660000D03*
X65390000Y-25420000D03*
X66660000Y-27960000D03*
X61580000Y-27960000D03*
X59040000Y-22880000D03*
X57770000Y-25420000D03*
X61580000Y-33860000D03*
X56500000Y-27960000D03*
X67080000Y-27960000D03*
X56580000Y-31660000D03*
X56080000Y-27960000D03*
X97080000Y-30700000D03*
X99620000Y-35780000D03*
X89540000Y-39480000D03*
X94540000Y-35780000D03*
X98350000Y-33240000D03*
X89040000Y-35780000D03*
X90730000Y-33240000D03*
X100040000Y-35780000D03*
X94540000Y-41680000D03*
X99540000Y-39480000D03*
X92000000Y-30700000D03*
X89460000Y-35780000D03*
X91980000Y-65700000D03*
X89440000Y-70780000D03*
X98330000Y-68240000D03*
X89020000Y-70780000D03*
X94520000Y-70780000D03*
X100020000Y-70780000D03*
X94520000Y-76680000D03*
X99600000Y-70780000D03*
X90710000Y-68240000D03*
X97060000Y-65700000D03*
X99520000Y-74480000D03*
X89520000Y-74480000D03*
X39960000Y-48900000D03*
X48850000Y-46360000D03*
X47580000Y-43820000D03*
X50540000Y-48900000D03*
X41230000Y-46360000D03*
X40040000Y-52600000D03*
X50120000Y-48900000D03*
X45040000Y-48900000D03*
X50040000Y-52600000D03*
X42500000Y-43820000D03*
X39540000Y-48900000D03*
X45040000Y-54800000D03*
X109130000Y-86360000D03*
X67191200Y-94620900D03*
X77271200Y-90920900D03*
X67111200Y-90920900D03*
X77191200Y-94620900D03*
X66691200Y-90920900D03*
X74731200Y-85840900D03*
X72191200Y-96820900D03*
X72191200Y-90920900D03*
X68381200Y-88380900D03*
X76001200Y-88380900D03*
X69651200Y-85840900D03*
X77691200Y-90920900D03*
X51500000Y-96760000D03*
X112026926Y-97410470D03*
X103607955Y-92693626D03*
X111619402Y-97308863D03*
X105454712Y-90536316D03*
X101761198Y-94850937D03*
X110646668Y-100879604D03*
X111001608Y-94537071D03*
X101353674Y-94749330D03*
X100943710Y-98460385D03*
X110383814Y-91765279D03*
X106690300Y-96079900D03*
X105262961Y-101804645D03*
X111507617Y-71581344D03*
X109814164Y-78373414D03*
X109809600Y-71157980D03*
X108116146Y-77950050D03*
D19*
X109355425Y-81660062D03*
X106978201Y-81067354D03*
X113109779Y-73835912D03*
X107336519Y-72396477D03*
X112384013Y-76746799D03*
X106610754Y-75307364D03*
X111416326Y-80627982D03*
X105643066Y-79188547D03*
D18*
X66990000Y-45390000D03*
X66490000Y-49090000D03*
X58950000Y-40310000D03*
X57680000Y-42850000D03*
X55990000Y-45390000D03*
X61490000Y-51290000D03*
X56490000Y-49090000D03*
X56410000Y-45390000D03*
X66570000Y-45390000D03*
X65300000Y-42850000D03*
X61490000Y-45390000D03*
X64030000Y-40310000D03*
X94500000Y-25740000D03*
X94943970Y-92702507D03*
X92531190Y-87340931D03*
X88857382Y-97995279D03*
X94526271Y-92658605D03*
X84114735Y-95284689D03*
X84421929Y-91596595D03*
X89474100Y-92127600D03*
X87479019Y-86809926D03*
X93528731Y-89999768D03*
X94059954Y-96329973D03*
X84004230Y-91552693D03*
X85950474Y-89203261D03*
X23987000Y-99417500D03*
X22688000Y-82785000D03*
X25228000Y-82785000D03*
X26527000Y-99417500D03*
X29067000Y-99417500D03*
X27768000Y-82785000D03*
X31607000Y-99417500D03*
X30308000Y-82785000D03*
X34147000Y-99417500D03*
X32848000Y-82785000D03*
X36687000Y-99417500D03*
X35388000Y-82785000D03*
X39227000Y-99417500D03*
X37928000Y-82785000D03*
X37928000Y-98020000D03*
X39227000Y-84182500D03*
X36687000Y-84182500D03*
X35388000Y-98020000D03*
X34147000Y-84182500D03*
X32848000Y-98020000D03*
X30308000Y-98020000D03*
X31607000Y-84182500D03*
X27768000Y-98020000D03*
X29067000Y-84182500D03*
X25228000Y-98020000D03*
X26527000Y-84182500D03*
X23987000Y-84182500D03*
X22688000Y-98020000D03*
X91990000Y-48210000D03*
X94530000Y-59190000D03*
X90720000Y-50750000D03*
X89530000Y-56990000D03*
X89030000Y-53290000D03*
X100030000Y-53290000D03*
X99530000Y-56990000D03*
X94530000Y-53290000D03*
X99610000Y-53290000D03*
X97070000Y-48210000D03*
X89450000Y-53290000D03*
X98340000Y-50750000D03*
X45010000Y-37340000D03*
X39930000Y-31440000D03*
X47550000Y-26360000D03*
X50090000Y-31440000D03*
X50510000Y-31440000D03*
X40010000Y-35140000D03*
X42470000Y-26360000D03*
X39510000Y-31440000D03*
X41200000Y-28900000D03*
X45010000Y-31440000D03*
X48820000Y-28900000D03*
X50010000Y-35140000D03*
X61520000Y-62910000D03*
X61520000Y-68810000D03*
X56440000Y-62910000D03*
X57710000Y-60370000D03*
X65330000Y-60370000D03*
X66600000Y-62910000D03*
X66520000Y-66610000D03*
X56520000Y-66610000D03*
X56020000Y-62910000D03*
X64060000Y-57830000D03*
X58980000Y-57830000D03*
X67020000Y-62910000D03*
X28520000Y-25760000D03*
X48850000Y-63850000D03*
X50540000Y-66390000D03*
X45040000Y-72290000D03*
X45040000Y-66390000D03*
X50040000Y-70090000D03*
X50120000Y-66390000D03*
X39540000Y-66390000D03*
X47580000Y-61310000D03*
X41230000Y-63850000D03*
X40040000Y-70090000D03*
X39960000Y-66390000D03*
X42500000Y-61310000D03*
X72530000Y-67300000D03*
X83110000Y-67300000D03*
X81840000Y-64760000D03*
X83030000Y-71000000D03*
X80570000Y-62220000D03*
X73030000Y-71000000D03*
X75490000Y-62220000D03*
X78030000Y-73200000D03*
X83530000Y-67300000D03*
X74220000Y-64760000D03*
X72950000Y-67300000D03*
X78030000Y-67300000D03*
X22980000Y-35790000D03*
X32290000Y-33250000D03*
X33480000Y-39490000D03*
X28480000Y-41690000D03*
X33560000Y-35790000D03*
X23400000Y-35790000D03*
X33980000Y-35790000D03*
X23480000Y-39490000D03*
X25940000Y-30710000D03*
X31020000Y-30710000D03*
X24670000Y-33250000D03*
X28480000Y-35790000D03*
X73230000Y-29380000D03*
X71960000Y-31920000D03*
X77040000Y-37820000D03*
X80850000Y-29380000D03*
X74500000Y-26840000D03*
X82040000Y-35620000D03*
X72040000Y-35620000D03*
X71540000Y-31920000D03*
X79580000Y-26840000D03*
X77040000Y-31920000D03*
X82120000Y-31920000D03*
X82540000Y-31920000D03*
%LPC*%
D20*
%TO.C,D7*%
X43175000Y-40860000D03*
X46725000Y-40860000D03*
%TD*%
D21*
%TO.C,SW6*%
X32290000Y-50750000D03*
X24670000Y-50750000D03*
D22*
X33560000Y-53290000D03*
D21*
X33480000Y-56990000D03*
D23*
X22980000Y-53290000D03*
D24*
X28480000Y-53290000D03*
D21*
X31020000Y-48210000D03*
X23480000Y-56990000D03*
X25940000Y-48210000D03*
D22*
X23400000Y-53290000D03*
D21*
X28480000Y-59190000D03*
D23*
X33980000Y-53290000D03*
D25*
X22880000Y-48210000D03*
X36580000Y-56990000D03*
X35380000Y-50750000D03*
D26*
X25680000Y-59190000D03*
%TD*%
D21*
%TO.C,SW11*%
X33490000Y-74490000D03*
X25950000Y-65710000D03*
D22*
X23410000Y-70790000D03*
D21*
X32300000Y-68250000D03*
X23490000Y-74490000D03*
D22*
X33570000Y-70790000D03*
D23*
X33990000Y-70790000D03*
D21*
X28490000Y-76690000D03*
X24680000Y-68250000D03*
X31030000Y-65710000D03*
D23*
X22990000Y-70790000D03*
D24*
X28490000Y-70790000D03*
D25*
X22890000Y-65710000D03*
X36590000Y-74490000D03*
D26*
X25690000Y-76690000D03*
D25*
X35390000Y-68250000D03*
%TD*%
D20*
%TO.C,D6*%
X30475000Y-45500000D03*
X34025000Y-45500000D03*
%TD*%
D21*
%TO.C,SW9*%
X75500000Y-44720000D03*
D22*
X72960000Y-49800000D03*
D24*
X78040000Y-49800000D03*
D23*
X83540000Y-49800000D03*
D22*
X83120000Y-49800000D03*
D21*
X81850000Y-47260000D03*
X83040000Y-53500000D03*
X73040000Y-53500000D03*
X80580000Y-44720000D03*
X74230000Y-47260000D03*
X78040000Y-55700000D03*
D23*
X72540000Y-49800000D03*
D25*
X86140000Y-53500000D03*
X72440000Y-44720000D03*
X84940000Y-47260000D03*
D26*
X75240000Y-55700000D03*
%TD*%
D21*
%TO.C,SW3*%
X64120000Y-22880000D03*
X66580000Y-31660000D03*
X65390000Y-25420000D03*
D22*
X66660000Y-27960000D03*
D24*
X61580000Y-27960000D03*
D21*
X59040000Y-22880000D03*
X57770000Y-25420000D03*
X61580000Y-33860000D03*
D22*
X56500000Y-27960000D03*
D23*
X67080000Y-27960000D03*
D21*
X56580000Y-31660000D03*
D23*
X56080000Y-27960000D03*
D25*
X55980000Y-22880000D03*
D27*
X69596000Y-31660000D03*
D26*
X58780000Y-33860000D03*
D25*
X68480000Y-25420000D03*
%TD*%
D20*
%TO.C,D9*%
X76285000Y-41790000D03*
X79835000Y-41790000D03*
%TD*%
%TO.C,D16*%
X70295000Y-82880000D03*
X73845000Y-82880000D03*
%TD*%
%TO.C,D11*%
X26755000Y-62780000D03*
X30305000Y-62780000D03*
%TD*%
%TO.C,D14*%
X76345000Y-59250000D03*
X79895000Y-59250000D03*
%TD*%
D28*
%TO.C,D17*%
X88894724Y-84124462D03*
X92425276Y-84495538D03*
%TD*%
D21*
%TO.C,SW5*%
X97080000Y-30700000D03*
D22*
X99620000Y-35780000D03*
D21*
X89540000Y-39480000D03*
D24*
X94540000Y-35780000D03*
D21*
X98350000Y-33240000D03*
D23*
X89040000Y-35780000D03*
D21*
X90730000Y-33240000D03*
D23*
X100040000Y-35780000D03*
D21*
X94540000Y-41680000D03*
X99540000Y-39480000D03*
X92000000Y-30700000D03*
D22*
X89460000Y-35780000D03*
D25*
X88940000Y-30700000D03*
D29*
X102350000Y-39480000D03*
D26*
X91740000Y-41680000D03*
D25*
X101440000Y-33240000D03*
%TD*%
D21*
%TO.C,SW15*%
X91980000Y-65700000D03*
D22*
X89440000Y-70780000D03*
D21*
X98330000Y-68240000D03*
D23*
X89020000Y-70780000D03*
D24*
X94520000Y-70780000D03*
D23*
X100020000Y-70780000D03*
D21*
X94520000Y-76680000D03*
D22*
X99600000Y-70780000D03*
D21*
X90710000Y-68240000D03*
X97060000Y-65700000D03*
X99520000Y-74480000D03*
X89520000Y-74480000D03*
D25*
X88920000Y-65700000D03*
D29*
X102350000Y-74480000D03*
D26*
X91720000Y-76680000D03*
D25*
X101420000Y-68240000D03*
%TD*%
D20*
%TO.C,D13*%
X59765000Y-54820000D03*
X63315000Y-54820000D03*
%TD*%
D22*
%TO.C,SW7*%
X39960000Y-48900000D03*
D21*
X48850000Y-46360000D03*
X47580000Y-43820000D03*
D23*
X50540000Y-48900000D03*
D21*
X41230000Y-46360000D03*
X40040000Y-52600000D03*
D22*
X50120000Y-48900000D03*
D24*
X45040000Y-48900000D03*
D21*
X50040000Y-52600000D03*
X42500000Y-43820000D03*
D23*
X39540000Y-48900000D03*
D21*
X45040000Y-54800000D03*
D25*
X39440000Y-43820000D03*
X53140000Y-52600000D03*
X51940000Y-46360000D03*
D26*
X42240000Y-54800000D03*
%TD*%
D20*
%TO.C,D1*%
X32055000Y-27880000D03*
X35605000Y-27880000D03*
%TD*%
D30*
%TO.C,HOLE5*%
X109130000Y-86360000D03*
%TD*%
D21*
%TO.C,SW16*%
X67191200Y-94620900D03*
D22*
X77271200Y-90920900D03*
X67111200Y-90920900D03*
D21*
X77191200Y-94620900D03*
D23*
X66691200Y-90920900D03*
D21*
X74731200Y-85840900D03*
X72191200Y-96820900D03*
D24*
X72191200Y-90920900D03*
D21*
X68381200Y-88380900D03*
X76001200Y-88380900D03*
X69651200Y-85840900D03*
D23*
X77691200Y-90920900D03*
D25*
X66591200Y-85840900D03*
X80291200Y-94620900D03*
X79091200Y-88380900D03*
D26*
X69391200Y-96820900D03*
%TD*%
D31*
%TO.C,D18*%
X100767725Y-86450589D03*
X104212275Y-87309411D03*
%TD*%
D30*
%TO.C,HOLE4*%
X51500000Y-96760000D03*
%TD*%
D20*
%TO.C,D4*%
X75785000Y-24120000D03*
X79335000Y-24120000D03*
%TD*%
%TO.C,D10*%
X92715000Y-45350000D03*
X96265000Y-45350000D03*
%TD*%
D23*
%TO.C,SW18*%
X112026926Y-97410470D03*
D21*
X103607955Y-92693626D03*
D22*
X111619402Y-97308863D03*
D21*
X105454712Y-90536316D03*
D22*
X101761198Y-94850937D03*
D21*
X110646668Y-100879604D03*
X111001608Y-94537071D03*
D23*
X101353674Y-94749330D03*
D21*
X100943710Y-98460385D03*
X110383814Y-91765279D03*
D24*
X106690300Y-96079900D03*
D21*
X105262961Y-101804645D03*
D32*
X102485607Y-89796035D03*
D33*
X113321200Y-101540900D03*
D32*
X113999822Y-95284610D03*
D34*
X102546133Y-101127263D03*
%TD*%
D15*
%TO.C,J1*%
X111507617Y-71581344D03*
X109814164Y-78373414D03*
X109809600Y-71157980D03*
X108116146Y-77950050D03*
D16*
X109355425Y-81660062D03*
X106978201Y-81067354D03*
X113109779Y-73835912D03*
X107336519Y-72396477D03*
X112384013Y-76746799D03*
X106610754Y-75307364D03*
X111416326Y-80627982D03*
X105643066Y-79188547D03*
%TD*%
D20*
%TO.C,D3*%
X48005000Y-23360000D03*
X51555000Y-23360000D03*
%TD*%
D23*
%TO.C,SW8*%
X66990000Y-45390000D03*
D21*
X66490000Y-49090000D03*
X58950000Y-40310000D03*
X57680000Y-42850000D03*
D23*
X55990000Y-45390000D03*
D21*
X61490000Y-51290000D03*
X56490000Y-49090000D03*
D22*
X56410000Y-45390000D03*
X66570000Y-45390000D03*
D21*
X65300000Y-42850000D03*
D24*
X61490000Y-45390000D03*
D21*
X64030000Y-40310000D03*
D25*
X69590000Y-49090000D03*
X55890000Y-40310000D03*
X68390000Y-42850000D03*
D26*
X58690000Y-51290000D03*
%TD*%
D30*
%TO.C,HOLE2*%
X94500000Y-25740000D03*
%TD*%
D23*
%TO.C,SW17*%
X94943970Y-92702507D03*
D21*
X92531190Y-87340931D03*
X88857382Y-97995279D03*
D22*
X94526271Y-92658605D03*
D21*
X84114735Y-95284689D03*
D22*
X84421929Y-91596595D03*
D24*
X89474100Y-92127600D03*
D21*
X87479019Y-86809926D03*
X93528731Y-89999768D03*
X94059954Y-96329973D03*
D23*
X84004230Y-91552693D03*
D21*
X85950474Y-89203261D03*
D35*
X84435782Y-86490069D03*
X97142972Y-96654012D03*
D36*
X86072721Y-97702599D03*
D35*
X96601803Y-90322761D03*
%TD*%
D17*
%TO.C,U1*%
X23987000Y-99417500D03*
X22688000Y-82785000D03*
X25228000Y-82785000D03*
X26527000Y-99417500D03*
X29067000Y-99417500D03*
X27768000Y-82785000D03*
X31607000Y-99417500D03*
X30308000Y-82785000D03*
X34147000Y-99417500D03*
X32848000Y-82785000D03*
X36687000Y-99417500D03*
X35388000Y-82785000D03*
X39227000Y-99417500D03*
X37928000Y-82785000D03*
X37928000Y-98020000D03*
X39227000Y-84182500D03*
X36687000Y-84182500D03*
X35388000Y-98020000D03*
X34147000Y-84182500D03*
X32848000Y-98020000D03*
X30308000Y-98020000D03*
X31607000Y-84182500D03*
X27768000Y-98020000D03*
X29067000Y-84182500D03*
X25228000Y-98020000D03*
X26527000Y-84182500D03*
X23987000Y-84182500D03*
X22688000Y-98020000D03*
%TD*%
D21*
%TO.C,SW10*%
X91990000Y-48210000D03*
X94530000Y-59190000D03*
X90720000Y-50750000D03*
X89530000Y-56990000D03*
D23*
X89030000Y-53290000D03*
X100030000Y-53290000D03*
D21*
X99530000Y-56990000D03*
D24*
X94530000Y-53290000D03*
D22*
X99610000Y-53290000D03*
D21*
X97070000Y-48210000D03*
D22*
X89450000Y-53290000D03*
D21*
X98340000Y-50750000D03*
D29*
X102350000Y-56990000D03*
D25*
X88930000Y-48210000D03*
D26*
X91730000Y-59190000D03*
D25*
X101430000Y-50750000D03*
%TD*%
D20*
%TO.C,D15*%
X92835000Y-62840000D03*
X96385000Y-62840000D03*
%TD*%
D21*
%TO.C,SW2*%
X45010000Y-37340000D03*
D22*
X39930000Y-31440000D03*
D21*
X47550000Y-26360000D03*
D22*
X50090000Y-31440000D03*
D23*
X50510000Y-31440000D03*
D21*
X40010000Y-35140000D03*
X42470000Y-26360000D03*
D23*
X39510000Y-31440000D03*
D21*
X41200000Y-28900000D03*
D24*
X45010000Y-31440000D03*
D21*
X48820000Y-28900000D03*
X50010000Y-35140000D03*
D25*
X53110000Y-35140000D03*
X39410000Y-26360000D03*
X51910000Y-28900000D03*
D26*
X42210000Y-37340000D03*
%TD*%
D24*
%TO.C,SW13*%
X61520000Y-62910000D03*
D21*
X61520000Y-68810000D03*
D22*
X56440000Y-62910000D03*
D21*
X57710000Y-60370000D03*
X65330000Y-60370000D03*
D22*
X66600000Y-62910000D03*
D21*
X66520000Y-66610000D03*
X56520000Y-66610000D03*
D23*
X56020000Y-62910000D03*
D21*
X64060000Y-57830000D03*
X58980000Y-57830000D03*
D23*
X67020000Y-62910000D03*
D25*
X69620000Y-66610000D03*
X55920000Y-57830000D03*
D26*
X58720000Y-68810000D03*
D25*
X68420000Y-60370000D03*
%TD*%
D30*
%TO.C,HOLE1*%
X28520000Y-25760000D03*
%TD*%
D21*
%TO.C,SW12*%
X48850000Y-63850000D03*
D23*
X50540000Y-66390000D03*
D21*
X45040000Y-72290000D03*
D24*
X45040000Y-66390000D03*
D21*
X50040000Y-70090000D03*
D22*
X50120000Y-66390000D03*
D23*
X39540000Y-66390000D03*
D21*
X47580000Y-61310000D03*
X41230000Y-63850000D03*
X40040000Y-70090000D03*
D22*
X39960000Y-66390000D03*
D21*
X42500000Y-61310000D03*
D25*
X53140000Y-70090000D03*
X39440000Y-61310000D03*
X51940000Y-63850000D03*
D26*
X42240000Y-72290000D03*
%TD*%
D23*
%TO.C,SW14*%
X72530000Y-67300000D03*
D22*
X83110000Y-67300000D03*
D21*
X81840000Y-64760000D03*
X83030000Y-71000000D03*
X80570000Y-62220000D03*
X73030000Y-71000000D03*
X75490000Y-62220000D03*
X78030000Y-73200000D03*
D23*
X83530000Y-67300000D03*
D21*
X74220000Y-64760000D03*
D22*
X72950000Y-67300000D03*
D24*
X78030000Y-67300000D03*
D25*
X72430000Y-62220000D03*
X86130000Y-71000000D03*
X84930000Y-64760000D03*
D26*
X75230000Y-73200000D03*
%TD*%
D23*
%TO.C,SW1*%
X22980000Y-35790000D03*
D21*
X32290000Y-33250000D03*
X33480000Y-39490000D03*
X28480000Y-41690000D03*
D22*
X33560000Y-35790000D03*
X23400000Y-35790000D03*
D23*
X33980000Y-35790000D03*
D21*
X23480000Y-39490000D03*
X25940000Y-30710000D03*
X31020000Y-30710000D03*
X24670000Y-33250000D03*
D24*
X28480000Y-35790000D03*
D25*
X22880000Y-30710000D03*
X36580000Y-39490000D03*
D26*
X25680000Y-41690000D03*
D25*
X35380000Y-33250000D03*
%TD*%
D20*
%TO.C,D5*%
X86965000Y-27670000D03*
X90515000Y-27670000D03*
%TD*%
%TO.C,D8*%
X59765000Y-37380000D03*
X63315000Y-37380000D03*
%TD*%
D21*
%TO.C,SW4*%
X73230000Y-29380000D03*
D22*
X71960000Y-31920000D03*
D21*
X77040000Y-37820000D03*
X80850000Y-29380000D03*
X74500000Y-26840000D03*
X82040000Y-35620000D03*
X72040000Y-35620000D03*
D23*
X71540000Y-31920000D03*
D21*
X79580000Y-26840000D03*
D24*
X77040000Y-31920000D03*
D22*
X82120000Y-31920000D03*
D23*
X82540000Y-31920000D03*
D25*
X85140000Y-35620000D03*
X71440000Y-26840000D03*
D26*
X74240000Y-37820000D03*
D25*
X83940000Y-29380000D03*
%TD*%
D20*
%TO.C,D2*%
X38985000Y-23450000D03*
X42535000Y-23450000D03*
%TD*%
%TO.C,D12*%
X43395000Y-58370000D03*
X46945000Y-58370000D03*
%TD*%
M02*
