M48
METRIC,TZ
T1C1.200
T2C1.700
T3C1.900
T4C3.000
T5C4.000
T6C4.500
%
G90
G05
T1
X108116Y-77950
X109810Y-71158
X109814Y-78373
X111508Y-71581
T2
X23400Y-35790
X23400Y-53290
X23410Y-70790
X33560Y-35790
X33560Y-53290
X33570Y-70790
X39930Y-31440
X39960Y-48900
X39960Y-66390
X50090Y-31440
X50120Y-48900
X50120Y-66390
X56410Y-45390
X56440Y-62910
X56500Y-27960
X66570Y-45390
X66600Y-62910
X66660Y-27960
X67111Y-90921
X71960Y-31920
X72950Y-67300
X72960Y-49800
X77271Y-90921
X82120Y-31920
X83110Y-67300
X83120Y-49800
X84422Y-91597
X89440Y-70780
X89450Y-53290
X89460Y-35780
X94526Y-92659
X99600Y-70780
X99610Y-53290
X99620Y-35780
X101761Y-94851
X111619Y-97309
T3
X22980Y-35790
X22980Y-53290
X22990Y-70790
X33980Y-35790
X33980Y-53290
X33990Y-70790
X39510Y-31440
X39540Y-48900
X39540Y-66390
X50510Y-31440
X50540Y-48900
X50540Y-66390
X55990Y-45390
X56020Y-62910
X56080Y-27960
X66691Y-90921
X66990Y-45390
X67020Y-62910
X67080Y-27960
X71540Y-31920
X72530Y-67300
X72540Y-49800
X77691Y-90921
X82540Y-31920
X83530Y-67300
X83540Y-49800
X84004Y-91553
X89020Y-70780
X89030Y-53290
X89040Y-35780
X94944Y-92703
X100020Y-70780
X100030Y-53290
X100040Y-35780
X101354Y-94749
X112027Y-97410
T4
X23480Y-39490
X23480Y-56990
X23490Y-74490
X24670Y-33250
X24670Y-50750
X24680Y-68250
X25940Y-30710
X25940Y-48210
X25950Y-65710
X28480Y-41690
X28480Y-59190
X28490Y-76690
X31020Y-30710
X31020Y-48210
X31030Y-65710
X32290Y-33250
X32290Y-50750
X32300Y-68250
X33480Y-39490
X33480Y-56990
X33490Y-74490
X40010Y-35140
X40040Y-52600
X40040Y-70090
X41200Y-28900
X41230Y-46360
X41230Y-63850
X42470Y-26360
X42500Y-43820
X42500Y-61310
X45010Y-37340
X45040Y-54800
X45040Y-72290
X47550Y-26360
X47580Y-43820
X47580Y-61310
X48820Y-28900
X48850Y-46360
X48850Y-63850
X50010Y-35140
X50040Y-52600
X50040Y-70090
X56490Y-49090
X56520Y-66610
X56580Y-31660
X57680Y-42850
X57710Y-60370
X57770Y-25420
X58950Y-40310
X58980Y-57830
X59040Y-22880
X61490Y-51290
X61520Y-68810
X61580Y-33860
X64030Y-40310
X64060Y-57830
X64120Y-22880
X65300Y-42850
X65330Y-60370
X65390Y-25420
X66490Y-49090
X66520Y-66610
X66580Y-31660
X67191Y-94621
X68381Y-88381
X69651Y-85841
X72040Y-35620
X72191Y-96821
X73030Y-71000
X73040Y-53500
X73230Y-29380
X74220Y-64760
X74230Y-47260
X74500Y-26840
X74731Y-85841
X75490Y-62220
X75500Y-44720
X76001Y-88381
X77040Y-37820
X77191Y-94621
X78030Y-73200
X78040Y-55700
X79580Y-26840
X80570Y-62220
X80580Y-44720
X80850Y-29380
X81840Y-64760
X81850Y-47260
X82040Y-35620
X83030Y-71000
X83040Y-53500
X84115Y-95285
X85950Y-89203
X87479Y-86810
X88857Y-97995
X89520Y-74480
X89530Y-56990
X89540Y-39480
X90710Y-68240
X90720Y-50750
X90730Y-33240
X91980Y-65700
X91990Y-48210
X92000Y-30700
X92531Y-87341
X93529Y-90000
X94060Y-96330
X94520Y-76680
X94530Y-59190
X94540Y-41680
X97060Y-65700
X97070Y-48210
X97080Y-30700
X98330Y-68240
X98340Y-50750
X98350Y-33240
X99520Y-74480
X99530Y-56990
X99540Y-39480
X100944Y-98460
X103608Y-92694
X105263Y-101805
X105455Y-90536
X110384Y-91765
X110647Y-100880
X111002Y-94537
T5
X28480Y-35790
X28480Y-53290
X28490Y-70790
X45010Y-31440
X45040Y-48900
X45040Y-66390
X61490Y-45390
X61520Y-62910
X61580Y-27960
X72191Y-90921
X77040Y-31920
X78030Y-67300
X78040Y-49800
X89474Y-92128
X94520Y-70780
X94530Y-53290
X94540Y-35780
X106690Y-96080
T6
X28520Y-25760
X51500Y-96760
X94500Y-25740
X109130Y-86360
T0
M30
