M48
METRIC,TZ
T1C0.650
T2C1.200
T3C1.900
T4C3.000
T5C4.100
%
G90
G05
T1
X70970Y-20350
X76750Y-20350
T2
X22355Y-38662
X26370Y-44396
T3
X23916Y-104807
X33464Y-101333
X35770Y-75440
X35780Y-40440
X35790Y-57940
X40597Y-98322
X45930Y-75440
X45940Y-40440
X45950Y-57940
X50603Y-96558
X52270Y-54460
X52280Y-71950
X52310Y-36930
X58060Y-95560
X62430Y-54460
X62440Y-71950
X62470Y-36930
X68220Y-95560
X68760Y-50080
X68770Y-32570
X68770Y-67580
X78920Y-50080
X78930Y-32570
X78930Y-67580
X85270Y-36070
X85280Y-53560
X85280Y-71070
X95430Y-36070
X95440Y-53560
X95440Y-71070
X101760Y-75430
X101770Y-40440
X101770Y-57940
X111920Y-75430
X111930Y-40440
X111930Y-57940
T4
X28041Y-108712
X33139Y-104154
X37040Y-72900
X37050Y-37900
X37060Y-55400
X43390Y-70360
X43400Y-35360
X43410Y-52860
X43981Y-102884
X49793Y-99280
X53540Y-51920
X53550Y-69410
X53580Y-34390
X59890Y-49380
X59900Y-66870
X59930Y-31850
X60600Y-100640
X66950Y-98100
X70030Y-47540
X70040Y-65040
X71310Y-37650
X76380Y-45000
X76390Y-62500
X77660Y-35110
X86550Y-51020
X86550Y-68530
X87810Y-41150
X92900Y-48480
X92900Y-65990
X94160Y-38610
X103030Y-72890
X103040Y-55400
X104310Y-45520
X109380Y-70350
X109390Y-52860
X110660Y-42980
T5
X28690Y-103070
X40850Y-75440
X40860Y-40440
X40870Y-57940
X45600Y-97440
X57350Y-54460
X57360Y-71950
X57390Y-36930
X63140Y-95560
X73840Y-50080
X73850Y-32570
X73850Y-67580
X90350Y-36070
X90360Y-53560
X90360Y-71070
X106840Y-75430
X106850Y-40440
X106850Y-57940
T0
M30
