%TF.GenerationSoftware,KiCad,Pcbnew,(6.0.6)*%
%TF.CreationDate,2022-11-13T11:43:20+09:00*%
%TF.ProjectId,split-mini__right,73706c69-742d-46d6-996e-695f5f726967,rev?*%
%TF.SameCoordinates,Original*%
%TF.FileFunction,Profile,NP*%
%FSLAX46Y46*%
G04 Gerber Fmt 4.6, Leading zero omitted, Abs format (unit mm)*
G04 Created by KiCad (PCBNEW (6.0.6)) date 2022-11-13 11:43:20*
%MOMM*%
%LPD*%
G01*
G04 APERTURE LIST*
%TA.AperFunction,Profile*%
%ADD10C,0.100000*%
%TD*%
G04 APERTURE END LIST*
D10*
X31862559Y-92361502D02*
X17138087Y-97720772D01*
X99362559Y-27072346D02*
X82862559Y-27072346D01*
X99362559Y-31447346D02*
X99362559Y-27072346D01*
X31862559Y-35447346D02*
X24406065Y-35447346D01*
X31862559Y-58300450D02*
X18672001Y-39462381D01*
X97862559Y-80072346D02*
X97862559Y-84447346D01*
X23294449Y-114635239D02*
X45197576Y-106663153D01*
X81362559Y-80072346D02*
X97862559Y-80072346D01*
X17138087Y-97720772D02*
X23294449Y-114635239D01*
X48362559Y-27947346D02*
X64862559Y-27947346D01*
X115862559Y-31447346D02*
X99362559Y-31447346D01*
X72137559Y-104572346D02*
X72137559Y-76572346D01*
X57055130Y-104572346D02*
X72137559Y-104572346D01*
X97862559Y-84447346D02*
X115862559Y-84447346D01*
X82862559Y-27072346D02*
X82862559Y-23572346D01*
X31862559Y-58300450D02*
X31862559Y-92361502D01*
X64862559Y-23572346D02*
X68362559Y-23572346D01*
X45197576Y-106663153D02*
X57055130Y-104572346D01*
X68362559Y-15272346D02*
X68362559Y-23572346D01*
X115862559Y-84447346D02*
X115862559Y-31447346D01*
X48362559Y-31447346D02*
X48362559Y-27947346D01*
X18672001Y-39462381D02*
X24406065Y-35447346D01*
X79362559Y-15272346D02*
X79362559Y-23572346D01*
X79362559Y-23572346D02*
X82862559Y-23572346D01*
X68362559Y-15272346D02*
X79362559Y-15272346D01*
X31862559Y-31447346D02*
X31862559Y-35447346D01*
X64862559Y-27947346D02*
X64862559Y-23572346D01*
X48362559Y-31447346D02*
X31862559Y-31447346D01*
X81362559Y-76572346D02*
X81362559Y-80072346D01*
X72137559Y-76572346D02*
X81362559Y-76572346D01*
M02*
