M48
METRIC,TZ
T1C0.400
T2C0.600
T3C1.000
%
G90
G05
T1
X23500Y-99000
X35367Y-95330
X37250Y-78250
X37840Y-87980
X37960Y-86204
X38360Y-89360
X38580Y-85420
X38880Y-87130
X39000Y-63500
X39700Y-84700
X40500Y-80250
X40683Y-51423
X41200Y-52560
X43250Y-93760
X43879Y-78621
X44500Y-85750
X45840Y-72930
X46328Y-94253
X47330Y-55540
X47420Y-94090
X48403Y-55492
X48752Y-78362
X48820Y-93760
X50260Y-78060
X50786Y-75789
X51320Y-46050
X51392Y-77952
X51470Y-47500
X52590Y-64500
X52652Y-77832
X54010Y-77840
X54331Y-88010
X54780Y-83851
X55360Y-77700
X56170Y-91890
X56206Y-90490
X56290Y-81600
X57788Y-88552
X58072Y-86788
X60550Y-64670
X60710Y-81380
X61250Y-59000
X65445Y-43240
X67610Y-43530
X67863Y-61103
X70500Y-52500
X71350Y-24400
X72878Y-28488
X72886Y-25170
X74847Y-27205
X75770Y-25720
X76020Y-24400
X78900Y-24850
X82705Y-39045
X83210Y-48070
X97410Y-69940
X98916Y-69843
X101005Y-68495
X101058Y-67332
T2
G00X69540Y-17070
M15
G01X69540Y-16270
M16
G05
G00X69540Y-21400
M15
G01X69540Y-20300
M16
G05
G00X78180Y-17070
M15
G01X78180Y-16270
M16
G05
G00X78180Y-21400
M15
G01X78180Y-20300
M16
G05
T3
G00X24964Y-38728
M15
G01X25251Y-39137
M16
G05
G00X26399Y-48099
M15
G01X26686Y-48509
M16
G05
G00X26685Y-41185
M15
G01X26971Y-41595
M16
G05
G00X28979Y-44462
M15
G01X29266Y-44871
M16
G05
T0
M30
