%TF.GenerationSoftware,KiCad,Pcbnew,(6.0.6)*%
%TF.CreationDate,2022-09-02T08:16:23+09:00*%
%TF.ProjectId,split-mini,73706c69-742d-46d6-996e-692e6b696361,rev?*%
%TF.SameCoordinates,Original*%
%TF.FileFunction,Profile,NP*%
%FSLAX46Y46*%
G04 Gerber Fmt 4.6, Leading zero omitted, Abs format (unit mm)*
G04 Created by KiCad (PCBNEW (6.0.6)) date 2022-09-02 08:16:23*
%MOMM*%
%LPD*%
G01*
G04 APERTURE LIST*
%TA.AperFunction,Profile*%
%ADD10C,0.349999*%
%TD*%
G04 APERTURE END LIST*
D10*
X14780401Y-18578385D02*
X14732187Y-18700673D01*
X107991810Y-94873409D02*
X108087317Y-94740105D01*
X112896823Y-65424635D02*
X112885225Y-65421340D01*
X98210503Y-18990315D02*
X98130320Y-18833759D01*
X97948452Y-18534392D02*
X97847223Y-18392038D01*
X96820421Y-17459222D02*
X96668372Y-17371794D01*
X15268316Y-17815929D02*
X15183682Y-17913642D01*
X112836720Y-65413958D02*
X112824143Y-65413638D01*
X16213406Y-17145251D02*
X16094126Y-17199185D01*
X15485415Y-94919840D02*
X15589743Y-95009711D01*
X15809899Y-95172677D02*
X15925270Y-95245584D01*
X15589743Y-95009711D02*
X15697981Y-95094021D01*
X15450994Y-17633234D02*
X15357477Y-17722403D01*
X107375451Y-95396875D02*
X107514993Y-95313006D01*
X112960793Y-65455393D02*
X112950877Y-65449035D01*
X112930104Y-65437751D02*
X112919278Y-65432856D01*
X95669432Y-17007325D02*
X95490630Y-16975392D01*
X108210073Y-94524731D02*
X108245187Y-94449090D01*
X112849133Y-65414903D02*
X112836720Y-65413958D01*
X97110090Y-17654897D02*
X96967737Y-17553666D01*
X106756106Y-95612478D02*
X106837995Y-95596706D01*
X94937684Y-16933550D02*
X17261574Y-16933550D01*
X96511816Y-17291610D02*
X96350983Y-17218897D01*
X107647071Y-95218200D02*
X107771015Y-95112981D01*
X113068543Y-74296435D02*
X113068543Y-74296435D01*
X107771015Y-95112981D02*
X107886153Y-94997876D01*
X16545903Y-95520564D02*
X16677186Y-95556986D01*
X15037015Y-94399857D02*
X15115680Y-94511769D01*
X112844742Y-76119097D02*
X112844742Y-76119097D01*
X98042894Y-18681709D02*
X97948452Y-18534392D01*
X112885225Y-65421340D02*
X112873401Y-65418610D01*
X15357477Y-17722403D02*
X15268316Y-17815929D01*
X113012737Y-65502594D02*
X113005055Y-65493726D01*
X98405308Y-19484738D02*
X98348225Y-19316033D01*
X106589336Y-95633784D02*
X106673192Y-95624859D01*
X14964100Y-94284491D02*
X15037015Y-94399857D01*
X113012384Y-75214608D02*
X113036924Y-74985949D01*
X95308920Y-16952300D02*
X95124528Y-16938277D01*
X17356812Y-95641024D02*
X17356812Y-95641024D01*
X14897028Y-94165902D02*
X14964100Y-94284491D01*
X15200000Y-94620000D02*
X15289879Y-94724321D01*
X112861365Y-65416459D02*
X112849133Y-65414903D01*
X113068543Y-74296435D02*
X113068543Y-65658038D01*
X14835895Y-94044317D02*
X14897028Y-94165902D01*
X14568551Y-92852954D02*
X14571977Y-92991216D01*
X108331943Y-94211539D02*
X108354386Y-94129031D01*
X113053714Y-65574017D02*
X113049338Y-65562920D01*
X15650424Y-17468643D02*
X15548700Y-17548591D01*
X14568795Y-19626572D02*
X14568795Y-19626572D01*
X113005055Y-65493726D02*
X112996963Y-65485238D01*
X16718874Y-16988305D02*
X16588593Y-17018384D01*
X97247252Y-17762686D02*
X97110090Y-17654897D01*
X14731824Y-93793074D02*
X14780796Y-93919965D01*
X16851481Y-16964613D02*
X16718874Y-16988305D01*
X15865252Y-17323509D02*
X15755998Y-17393559D01*
X113036924Y-74985949D02*
X113054477Y-74756594D01*
X15115680Y-94511769D02*
X15200000Y-94620000D01*
X17356812Y-95641024D02*
X106419137Y-95641001D01*
X16043864Y-95312647D02*
X16165452Y-95373771D01*
X112897036Y-75894817D02*
X112942420Y-75669202D01*
X16810321Y-95586997D02*
X16945080Y-95610500D01*
X14732187Y-18700673D02*
X14689853Y-18825796D01*
X106504623Y-95639186D02*
X106589336Y-95633784D01*
X106673192Y-95624859D02*
X106756106Y-95612478D01*
X107886153Y-94997876D02*
X107991810Y-94873409D01*
X94937684Y-16933550D02*
X94937684Y-16933550D01*
X14571977Y-92991216D02*
X14582194Y-93128539D01*
X113067281Y-65633054D02*
X113065727Y-65620825D01*
X98568543Y-65413607D02*
X98568543Y-65413607D01*
X108245187Y-94449090D02*
X108277260Y-94371634D01*
X113057556Y-65585372D02*
X113053714Y-65574017D01*
X113065727Y-65620825D02*
X113063578Y-65608791D01*
X17261574Y-16933550D02*
X17123000Y-16937066D01*
X15697981Y-95094021D02*
X15809899Y-95172677D01*
X113019992Y-65511826D02*
X113012737Y-65502594D01*
X112226159Y-78600116D02*
X112844742Y-76119097D01*
X97378996Y-17876807D02*
X97247252Y-17762686D01*
X14834325Y-18459099D02*
X14780401Y-18578385D01*
X113068543Y-65658038D02*
X113068543Y-65658038D01*
X98130320Y-18833759D02*
X98042894Y-18681709D01*
X16289808Y-95428861D02*
X16416701Y-95477824D01*
X14780796Y-93919965D02*
X14835895Y-94044317D01*
X15385224Y-94824504D02*
X15385224Y-94824504D01*
X106419137Y-95641001D02*
X106419137Y-95641001D01*
X107076671Y-95529702D02*
X107229120Y-95469282D01*
X97625315Y-18123130D02*
X97505093Y-17997031D01*
X113033162Y-65531324D02*
X113026806Y-65521408D01*
X15103743Y-18015374D02*
X15028669Y-18120954D01*
X96668372Y-17371794D02*
X96511816Y-17291610D01*
X112942420Y-75669202D02*
X112980876Y-75442413D01*
X97505093Y-17997031D02*
X97378996Y-17876807D01*
X98563819Y-20377603D02*
X98549797Y-20193212D01*
X113039047Y-65541558D02*
X113033162Y-65531324D01*
X14689074Y-93663873D02*
X14731824Y-93793074D01*
X15978018Y-17258661D02*
X15865252Y-17323509D01*
X14568551Y-92852954D02*
X14568551Y-92852954D01*
X95845096Y-17047870D02*
X95669432Y-17007325D01*
X112844742Y-76119097D02*
X112897036Y-75894817D01*
X14568795Y-19626572D02*
X14568551Y-92852954D01*
X17123000Y-16937066D02*
X16986246Y-16947477D01*
X108306207Y-94292428D02*
X108331943Y-94211539D01*
X112988475Y-65477145D02*
X112979608Y-65469463D01*
X14652642Y-93532590D02*
X14689074Y-93663873D01*
X14689853Y-18825796D02*
X14653568Y-18953583D01*
X113060849Y-65596968D02*
X113057556Y-65585372D01*
X108087317Y-94740105D02*
X108172000Y-94598491D01*
X112873401Y-65418610D02*
X112861365Y-65416459D01*
X16094126Y-17199185D02*
X15978018Y-17258661D01*
X113068225Y-65645463D02*
X113067281Y-65633054D01*
X96017394Y-17096799D02*
X95845096Y-17047870D01*
X96967737Y-17553666D02*
X96820421Y-17459222D01*
X15028669Y-18120954D02*
X14958628Y-18230215D01*
X17081233Y-95627403D02*
X17218554Y-95637609D01*
X14582697Y-19351243D02*
X14572298Y-19487998D01*
X95490630Y-16975392D02*
X95308920Y-16952300D01*
X14599821Y-19216476D02*
X14582697Y-19351243D01*
X112940642Y-65443149D02*
X112930104Y-65437751D01*
X112824143Y-65413638D02*
X112824143Y-65413638D01*
X106419137Y-95641001D02*
X106504623Y-95639186D01*
X98348225Y-19316033D02*
X98283214Y-19151149D01*
X112979608Y-65469463D02*
X112970375Y-65462207D01*
X16416701Y-95477824D02*
X16545903Y-95520564D01*
X107229120Y-95469282D02*
X107375451Y-95396875D01*
X98494777Y-19832701D02*
X98454235Y-19657037D01*
X112980876Y-75442413D02*
X113012384Y-75214608D01*
X113068543Y-65658038D02*
X113068225Y-65645463D01*
X108277260Y-94371634D02*
X108306207Y-94292428D01*
X14623501Y-19083866D02*
X14599821Y-19216476D01*
X107514993Y-95313006D02*
X107647071Y-95218200D01*
X14622621Y-93399455D02*
X14652642Y-93532590D01*
X112996963Y-65485238D02*
X112988475Y-65477145D01*
X113026806Y-65521408D02*
X113019992Y-65511826D01*
X15548700Y-17548591D02*
X15450994Y-17633234D01*
X112950877Y-65449035D02*
X112940642Y-65443149D01*
X113065023Y-74526703D02*
X113068543Y-74296435D01*
X15183682Y-17913642D02*
X15103743Y-18015374D01*
X14893791Y-18342986D02*
X14834325Y-18459099D01*
X16335690Y-17097026D02*
X16213406Y-17145251D01*
X15289879Y-94724321D02*
X15385224Y-94824504D01*
X112970375Y-65462207D02*
X112960793Y-65455393D01*
X106837995Y-95596706D02*
X106918775Y-95577609D01*
X97739435Y-18254875D02*
X97625315Y-18123130D01*
X113063578Y-65608791D02*
X113060849Y-65596968D01*
X98454235Y-19657037D02*
X98405308Y-19484738D01*
X98549797Y-20193212D02*
X98526708Y-20011502D01*
X15755998Y-17393559D02*
X15650424Y-17468643D01*
X16165452Y-95373771D02*
X16289808Y-95428861D01*
X98568543Y-20564447D02*
X98568543Y-20564447D01*
X17218554Y-95637609D02*
X17356812Y-95641024D01*
X16986246Y-16947477D02*
X16851481Y-16964613D01*
X98526708Y-20011502D02*
X98494777Y-19832701D01*
X112824143Y-65413638D02*
X98568543Y-65413607D01*
X98283214Y-19151149D02*
X98210503Y-18990315D01*
X113054477Y-74756594D02*
X113065023Y-74526703D01*
X108354386Y-94129031D02*
X108354386Y-94129031D01*
X98568543Y-20564447D02*
X98563819Y-20377603D01*
X113049338Y-65562920D02*
X113044444Y-65552095D01*
X108354386Y-94129031D02*
X112226159Y-78600116D01*
X14582194Y-93128539D02*
X14599107Y-93264695D01*
X14572298Y-19487998D02*
X14568795Y-19626572D01*
X16945080Y-95610500D02*
X17081233Y-95627403D01*
X16588593Y-17018384D02*
X16460809Y-17054681D01*
X14653568Y-18953583D02*
X14623501Y-19083866D01*
X108172000Y-94598491D02*
X108210073Y-94524731D01*
X96350983Y-17218897D02*
X96186099Y-17153884D01*
X96186099Y-17153884D02*
X96017394Y-17096799D01*
X95124528Y-16938277D02*
X94937684Y-16933550D01*
X16677186Y-95556986D02*
X16810321Y-95586997D01*
X15925270Y-95245584D02*
X16043864Y-95312647D01*
X106918775Y-95577609D02*
X107076671Y-95529702D01*
X97847223Y-18392038D02*
X97739435Y-18254875D01*
X98568543Y-65413607D02*
X98568543Y-20564447D01*
X14958628Y-18230215D02*
X14893791Y-18342986D01*
X113044444Y-65552095D02*
X113039047Y-65541558D01*
X14599107Y-93264695D02*
X14622621Y-93399455D01*
X112908179Y-65428479D02*
X112896823Y-65424635D01*
X15385224Y-94824504D02*
X15485415Y-94919840D01*
X16460809Y-17054681D02*
X16335690Y-17097026D01*
X112919278Y-65432856D02*
X112908179Y-65428479D01*
X112226159Y-78600116D02*
X112226159Y-78600116D01*
M02*
