%TF.GenerationSoftware,KiCad,Pcbnew,(6.0.9)*%
%TF.CreationDate,2023-01-09T15:03:37+09:00*%
%TF.ProjectId,split-mini__switch_plate,73706c69-742d-46d6-996e-695f5f737769,rev?*%
%TF.SameCoordinates,Original*%
%TF.FileFunction,Legend,Bot*%
%TF.FilePolarity,Positive*%
%FSLAX46Y46*%
G04 Gerber Fmt 4.6, Leading zero omitted, Abs format (unit mm)*
G04 Created by KiCad (PCBNEW (6.0.9)) date 2023-01-09 15:03:37*
%MOMM*%
%LPD*%
G01*
G04 APERTURE LIST*
%TA.AperFunction,Profile*%
%ADD10C,0.100000*%
%TD*%
%ADD11C,0.200000*%
%TA.AperFunction,Profile*%
%ADD12C,0.120000*%
%TD*%
%ADD13C,0.350000*%
%ADD14C,2.000000*%
G04 APERTURE END LIST*
D10*
X22100000Y-104650000D02*
X22100000Y-105650000D01*
X103900000Y-26800000D02*
X103900000Y-27800000D01*
X96400000Y-30300000D02*
X69500000Y-30300000D01*
X18100000Y-30300000D02*
G75*
G03*
X17100000Y-31300000I0J-1000000D01*
G01*
X18100000Y-102150000D02*
X19600000Y-102150000D01*
X101900000Y-105650000D02*
G75*
G03*
X104400000Y-108150000I2500000J0D01*
G01*
X109400000Y-102150000D02*
G75*
G03*
X106900000Y-104650000I0J-2500000D01*
G01*
X24600000Y-108150000D02*
G75*
G03*
X27100000Y-105650000I0J2500000D01*
G01*
X22100000Y-105650000D02*
G75*
G03*
X24600000Y-108150000I2500000J0D01*
G01*
X17100000Y-101150000D02*
G75*
G03*
X18100000Y-102150000I1000000J0D01*
G01*
X103900000Y-27800000D02*
G75*
G03*
X106400000Y-30300000I2500000J0D01*
G01*
X17100000Y-31300000D02*
X17100000Y-101150000D01*
X110900000Y-30300000D02*
X106400000Y-30300000D01*
X106900000Y-105650000D02*
X106900000Y-104650000D01*
X22100000Y-27800000D02*
X22100000Y-26800000D01*
X24600000Y-24300000D02*
G75*
G03*
X22100000Y-26800000I0J-2500000D01*
G01*
X109400000Y-102150000D02*
X110900000Y-102150000D01*
X96400000Y-30300000D02*
G75*
G03*
X98900000Y-27800000I0J2500000D01*
G01*
X27100000Y-26800000D02*
G75*
G03*
X24600000Y-24300000I-2500000J0D01*
G01*
X19600000Y-30300000D02*
G75*
G03*
X22100000Y-27800000I0J2500000D01*
G01*
X69500000Y-30300000D02*
X29600000Y-30300000D01*
X101900000Y-104650000D02*
X101900000Y-105650000D01*
X27100000Y-26800000D02*
X27100000Y-27800000D01*
X111900000Y-101150000D02*
X111900000Y-31300000D01*
X101900000Y-104650000D02*
G75*
G03*
X99400000Y-102150000I-2500000J0D01*
G01*
X104400000Y-108150000D02*
G75*
G03*
X106900000Y-105650000I0J2500000D01*
G01*
X111900000Y-31300000D02*
G75*
G03*
X110900000Y-30300000I-999900J100D01*
G01*
X27100000Y-105650000D02*
X27100000Y-104650000D01*
X22100000Y-104650000D02*
G75*
G03*
X19600000Y-102150000I-2500000J0D01*
G01*
X27100000Y-27800000D02*
G75*
G03*
X29600000Y-30300000I2500000J0D01*
G01*
X110900000Y-102150000D02*
G75*
G03*
X111900000Y-101150000I0J1000000D01*
G01*
X101400000Y-24300000D02*
G75*
G03*
X98900000Y-26800000I0J-2500000D01*
G01*
X29600000Y-102150000D02*
G75*
G03*
X27100000Y-104650000I0J-2500000D01*
G01*
X69500000Y-102150000D02*
X99400000Y-102150000D01*
X19600000Y-30300000D02*
X18100000Y-30300000D01*
X103900000Y-26800000D02*
G75*
G03*
X101400000Y-24300000I-2500000J0D01*
G01*
X98900000Y-27800000D02*
X98900000Y-26800000D01*
X29600000Y-102150000D02*
X69500000Y-102150000D01*
D11*
X34795238Y-96239761D02*
X34700000Y-96287380D01*
X34509523Y-96287380D01*
X34414285Y-96239761D01*
X34366666Y-96144523D01*
X34366666Y-96096904D01*
X34414285Y-96001666D01*
X34509523Y-95954047D01*
X34652380Y-95954047D01*
X34747619Y-95906428D01*
X34795238Y-95811190D01*
X34795238Y-95763571D01*
X34747619Y-95668333D01*
X34652380Y-95620714D01*
X34509523Y-95620714D01*
X34414285Y-95668333D01*
X33938095Y-95620714D02*
X33938095Y-96620714D01*
X33938095Y-95668333D02*
X33842857Y-95620714D01*
X33652380Y-95620714D01*
X33557142Y-95668333D01*
X33509523Y-95715952D01*
X33461904Y-95811190D01*
X33461904Y-96096904D01*
X33509523Y-96192142D01*
X33557142Y-96239761D01*
X33652380Y-96287380D01*
X33842857Y-96287380D01*
X33938095Y-96239761D01*
X32890476Y-96287380D02*
X32985714Y-96239761D01*
X33033333Y-96144523D01*
X33033333Y-95287380D01*
X32509523Y-96287380D02*
X32509523Y-95620714D01*
X32509523Y-95287380D02*
X32557142Y-95335000D01*
X32509523Y-95382619D01*
X32461904Y-95335000D01*
X32509523Y-95287380D01*
X32509523Y-95382619D01*
X32176190Y-95620714D02*
X31795238Y-95620714D01*
X32033333Y-95287380D02*
X32033333Y-96144523D01*
X31985714Y-96239761D01*
X31890476Y-96287380D01*
X31795238Y-96287380D01*
X30700000Y-96287380D02*
X30700000Y-95620714D01*
X30700000Y-95715952D02*
X30652380Y-95668333D01*
X30557142Y-95620714D01*
X30414285Y-95620714D01*
X30319047Y-95668333D01*
X30271428Y-95763571D01*
X30271428Y-96287380D01*
X30271428Y-95763571D02*
X30223809Y-95668333D01*
X30128571Y-95620714D01*
X29985714Y-95620714D01*
X29890476Y-95668333D01*
X29842857Y-95763571D01*
X29842857Y-96287380D01*
X29366666Y-96287380D02*
X29366666Y-95620714D01*
X29366666Y-95287380D02*
X29414285Y-95335000D01*
X29366666Y-95382619D01*
X29319047Y-95335000D01*
X29366666Y-95287380D01*
X29366666Y-95382619D01*
X28890476Y-95620714D02*
X28890476Y-96287380D01*
X28890476Y-95715952D02*
X28842857Y-95668333D01*
X28747619Y-95620714D01*
X28604761Y-95620714D01*
X28509523Y-95668333D01*
X28461904Y-95763571D01*
X28461904Y-96287380D01*
X27985714Y-96287380D02*
X27985714Y-95620714D01*
X27985714Y-95287380D02*
X28033333Y-95335000D01*
X27985714Y-95382619D01*
X27938095Y-95335000D01*
X27985714Y-95287380D01*
X27985714Y-95382619D01*
X26747619Y-96287380D02*
X26747619Y-95620714D01*
X26747619Y-95811190D02*
X26700000Y-95715952D01*
X26652380Y-95668333D01*
X26557142Y-95620714D01*
X26461904Y-95620714D01*
X25747619Y-96239761D02*
X25842857Y-96287380D01*
X26033333Y-96287380D01*
X26128571Y-96239761D01*
X26176190Y-96144523D01*
X26176190Y-95763571D01*
X26128571Y-95668333D01*
X26033333Y-95620714D01*
X25842857Y-95620714D01*
X25747619Y-95668333D01*
X25700000Y-95763571D01*
X25700000Y-95858809D01*
X26176190Y-95954047D01*
X25366666Y-95620714D02*
X25128571Y-96287380D01*
X24890476Y-95620714D01*
X24319047Y-95287380D02*
X24223809Y-95287380D01*
X24128571Y-95335000D01*
X24080952Y-95382619D01*
X24033333Y-95477857D01*
X23985714Y-95668333D01*
X23985714Y-95906428D01*
X24033333Y-96096904D01*
X24080952Y-96192142D01*
X24128571Y-96239761D01*
X24223809Y-96287380D01*
X24319047Y-96287380D01*
X24414285Y-96239761D01*
X24461904Y-96192142D01*
X24509523Y-96096904D01*
X24557142Y-95906428D01*
X24557142Y-95668333D01*
X24509523Y-95477857D01*
X24461904Y-95382619D01*
X24414285Y-95335000D01*
X24319047Y-95287380D01*
X23557142Y-96192142D02*
X23509523Y-96239761D01*
X23557142Y-96287380D01*
X23604761Y-96239761D01*
X23557142Y-96192142D01*
X23557142Y-96287380D01*
X22557142Y-96287380D02*
X23128571Y-96287380D01*
X22842857Y-96287380D02*
X22842857Y-95287380D01*
X22938095Y-95430238D01*
X23033333Y-95525476D01*
X23128571Y-95573095D01*
X22223809Y-95287380D02*
X21604761Y-95287380D01*
X21938095Y-95668333D01*
X21795238Y-95668333D01*
X21700000Y-95715952D01*
X21652380Y-95763571D01*
X21604761Y-95858809D01*
X21604761Y-96096904D01*
X21652380Y-96192142D01*
X21700000Y-96239761D01*
X21795238Y-96287380D01*
X22080952Y-96287380D01*
X22176190Y-96239761D01*
X22223809Y-96192142D01*
X36628571Y-97897380D02*
X36628571Y-96897380D01*
X36628571Y-97849761D02*
X36723809Y-97897380D01*
X36914285Y-97897380D01*
X37009523Y-97849761D01*
X37057142Y-97802142D01*
X37104761Y-97706904D01*
X37104761Y-97421190D01*
X37057142Y-97325952D01*
X37009523Y-97278333D01*
X36914285Y-97230714D01*
X36723809Y-97230714D01*
X36628571Y-97278333D01*
X35771428Y-97849761D02*
X35866666Y-97897380D01*
X36057142Y-97897380D01*
X36152380Y-97849761D01*
X36200000Y-97754523D01*
X36200000Y-97373571D01*
X36152380Y-97278333D01*
X36057142Y-97230714D01*
X35866666Y-97230714D01*
X35771428Y-97278333D01*
X35723809Y-97373571D01*
X35723809Y-97468809D01*
X36200000Y-97564047D01*
X35342857Y-97849761D02*
X35247619Y-97897380D01*
X35057142Y-97897380D01*
X34961904Y-97849761D01*
X34914285Y-97754523D01*
X34914285Y-97706904D01*
X34961904Y-97611666D01*
X35057142Y-97564047D01*
X35200000Y-97564047D01*
X35295238Y-97516428D01*
X35342857Y-97421190D01*
X35342857Y-97373571D01*
X35295238Y-97278333D01*
X35200000Y-97230714D01*
X35057142Y-97230714D01*
X34961904Y-97278333D01*
X34485714Y-97897380D02*
X34485714Y-97230714D01*
X34485714Y-96897380D02*
X34533333Y-96945000D01*
X34485714Y-96992619D01*
X34438095Y-96945000D01*
X34485714Y-96897380D01*
X34485714Y-96992619D01*
X33580952Y-97230714D02*
X33580952Y-98040238D01*
X33628571Y-98135476D01*
X33676190Y-98183095D01*
X33771428Y-98230714D01*
X33914285Y-98230714D01*
X34009523Y-98183095D01*
X33580952Y-97849761D02*
X33676190Y-97897380D01*
X33866666Y-97897380D01*
X33961904Y-97849761D01*
X34009523Y-97802142D01*
X34057142Y-97706904D01*
X34057142Y-97421190D01*
X34009523Y-97325952D01*
X33961904Y-97278333D01*
X33866666Y-97230714D01*
X33676190Y-97230714D01*
X33580952Y-97278333D01*
X33104761Y-97230714D02*
X33104761Y-97897380D01*
X33104761Y-97325952D02*
X33057142Y-97278333D01*
X32961904Y-97230714D01*
X32819047Y-97230714D01*
X32723809Y-97278333D01*
X32676190Y-97373571D01*
X32676190Y-97897380D01*
X31819047Y-97849761D02*
X31914285Y-97897380D01*
X32104761Y-97897380D01*
X32200000Y-97849761D01*
X32247619Y-97754523D01*
X32247619Y-97373571D01*
X32200000Y-97278333D01*
X32104761Y-97230714D01*
X31914285Y-97230714D01*
X31819047Y-97278333D01*
X31771428Y-97373571D01*
X31771428Y-97468809D01*
X32247619Y-97564047D01*
X30914285Y-97897380D02*
X30914285Y-96897380D01*
X30914285Y-97849761D02*
X31009523Y-97897380D01*
X31200000Y-97897380D01*
X31295238Y-97849761D01*
X31342857Y-97802142D01*
X31390476Y-97706904D01*
X31390476Y-97421190D01*
X31342857Y-97325952D01*
X31295238Y-97278333D01*
X31200000Y-97230714D01*
X31009523Y-97230714D01*
X30914285Y-97278333D01*
X29676190Y-97897380D02*
X29676190Y-96897380D01*
X29676190Y-97278333D02*
X29580952Y-97230714D01*
X29390476Y-97230714D01*
X29295238Y-97278333D01*
X29247619Y-97325952D01*
X29200000Y-97421190D01*
X29200000Y-97706904D01*
X29247619Y-97802142D01*
X29295238Y-97849761D01*
X29390476Y-97897380D01*
X29580952Y-97897380D01*
X29676190Y-97849761D01*
X28866666Y-97230714D02*
X28628571Y-97897380D01*
X28390476Y-97230714D02*
X28628571Y-97897380D01*
X28723809Y-98135476D01*
X28771428Y-98183095D01*
X28866666Y-98230714D01*
X27390476Y-97230714D02*
X27009523Y-97230714D01*
X27247619Y-96897380D02*
X27247619Y-97754523D01*
X27200000Y-97849761D01*
X27104761Y-97897380D01*
X27009523Y-97897380D01*
X26247619Y-97897380D02*
X26247619Y-97373571D01*
X26295238Y-97278333D01*
X26390476Y-97230714D01*
X26580952Y-97230714D01*
X26676190Y-97278333D01*
X26247619Y-97849761D02*
X26342857Y-97897380D01*
X26580952Y-97897380D01*
X26676190Y-97849761D01*
X26723809Y-97754523D01*
X26723809Y-97659285D01*
X26676190Y-97564047D01*
X26580952Y-97516428D01*
X26342857Y-97516428D01*
X26247619Y-97468809D01*
X25771428Y-97897380D02*
X25771428Y-97230714D01*
X25771428Y-97325952D02*
X25723809Y-97278333D01*
X25628571Y-97230714D01*
X25485714Y-97230714D01*
X25390476Y-97278333D01*
X25342857Y-97373571D01*
X25342857Y-97897380D01*
X25342857Y-97373571D02*
X25295238Y-97278333D01*
X25200000Y-97230714D01*
X25057142Y-97230714D01*
X24961904Y-97278333D01*
X24914285Y-97373571D01*
X24914285Y-97897380D01*
X24009523Y-97897380D02*
X24009523Y-97373571D01*
X24057142Y-97278333D01*
X24152380Y-97230714D01*
X24342857Y-97230714D01*
X24438095Y-97278333D01*
X24009523Y-97849761D02*
X24104761Y-97897380D01*
X24342857Y-97897380D01*
X24438095Y-97849761D01*
X24485714Y-97754523D01*
X24485714Y-97659285D01*
X24438095Y-97564047D01*
X24342857Y-97516428D01*
X24104761Y-97516428D01*
X24009523Y-97468809D01*
X23104761Y-97230714D02*
X23104761Y-98040238D01*
X23152380Y-98135476D01*
X23200000Y-98183095D01*
X23295238Y-98230714D01*
X23438095Y-98230714D01*
X23533333Y-98183095D01*
X23104761Y-97849761D02*
X23200000Y-97897380D01*
X23390476Y-97897380D01*
X23485714Y-97849761D01*
X23533333Y-97802142D01*
X23580952Y-97706904D01*
X23580952Y-97421190D01*
X23533333Y-97325952D01*
X23485714Y-97278333D01*
X23390476Y-97230714D01*
X23200000Y-97230714D01*
X23104761Y-97278333D01*
X22485714Y-97897380D02*
X22580952Y-97849761D01*
X22628571Y-97802142D01*
X22676190Y-97706904D01*
X22676190Y-97421190D01*
X22628571Y-97325952D01*
X22580952Y-97278333D01*
X22485714Y-97230714D01*
X22342857Y-97230714D01*
X22247619Y-97278333D01*
X22200000Y-97325952D01*
X22152380Y-97421190D01*
X22152380Y-97706904D01*
X22200000Y-97802142D01*
X22247619Y-97849761D01*
X22342857Y-97897380D01*
X22485714Y-97897380D01*
X21819047Y-96897380D02*
X21200000Y-96897380D01*
X21533333Y-97278333D01*
X21390476Y-97278333D01*
X21295238Y-97325952D01*
X21247619Y-97373571D01*
X21200000Y-97468809D01*
X21200000Y-97706904D01*
X21247619Y-97802142D01*
X21295238Y-97849761D01*
X21390476Y-97897380D01*
X21676190Y-97897380D01*
X21771428Y-97849761D01*
X21819047Y-97802142D01*
X20819047Y-96992619D02*
X20771428Y-96945000D01*
X20676190Y-96897380D01*
X20438095Y-96897380D01*
X20342857Y-96945000D01*
X20295238Y-96992619D01*
X20247619Y-97087857D01*
X20247619Y-97183095D01*
X20295238Y-97325952D01*
X20866666Y-97897380D01*
X20247619Y-97897380D01*
X19390476Y-97230714D02*
X19390476Y-97897380D01*
X19628571Y-96849761D02*
X19866666Y-97564047D01*
X19247619Y-97564047D01*
D12*
%TO.C,SW15*%
X102075000Y-67300000D02*
X88075000Y-67300000D01*
X88075000Y-67300000D02*
X88075000Y-81300000D01*
X102075000Y-81300000D02*
X102075000Y-67300000D01*
X88075000Y-81300000D02*
X102075000Y-81300000D01*
%TO.C,SW7*%
X51075000Y-66850000D02*
X51075000Y-52850000D01*
X51075000Y-52850000D02*
X37075000Y-52850000D01*
X37075000Y-66850000D02*
X51075000Y-66850000D01*
X37075000Y-52850000D02*
X37075000Y-66850000D01*
%TO.C,SW3*%
X54075000Y-47300000D02*
X68075000Y-47300000D01*
X68075000Y-47300000D02*
X68075000Y-33300000D01*
X54075000Y-33300000D02*
X54075000Y-47300000D01*
X68075000Y-33300000D02*
X54075000Y-33300000D01*
%TO.C,SW6*%
X34100000Y-71100000D02*
X34100000Y-57100000D01*
X20100000Y-57100000D02*
X20100000Y-71100000D01*
X34100000Y-57100000D02*
X20100000Y-57100000D01*
X20100000Y-71100000D02*
X34100000Y-71100000D01*
%TO.C,SW17*%
X77875000Y-99150000D02*
X91875000Y-99150000D01*
X91875000Y-85150000D02*
X77875000Y-85150000D01*
X77875000Y-85150000D02*
X77875000Y-99150000D01*
X91875000Y-99150000D02*
X91875000Y-85150000D01*
%TO.C,SW14*%
X71085000Y-67315000D02*
X71085000Y-81315000D01*
X71085000Y-81315000D02*
X85085000Y-81315000D01*
X85085000Y-81315000D02*
X85085000Y-67315000D01*
X85085000Y-67315000D02*
X71085000Y-67315000D01*
%TO.C,SW9*%
X85075000Y-50300000D02*
X71075000Y-50300000D01*
X71075000Y-50300000D02*
X71075000Y-64300000D01*
X71075000Y-64300000D02*
X85075000Y-64300000D01*
X85075000Y-64300000D02*
X85075000Y-50300000D01*
%TO.C,SW8*%
X54075000Y-64300000D02*
X68075000Y-64300000D01*
X68075000Y-64300000D02*
X68075000Y-50300000D01*
X68075000Y-50300000D02*
X54075000Y-50300000D01*
X54075000Y-50300000D02*
X54075000Y-64300000D01*
%TO.C,SW10*%
X102050000Y-50300000D02*
X88050000Y-50300000D01*
X88050000Y-50300000D02*
X88050000Y-64300000D01*
X88050000Y-64300000D02*
X102050000Y-64300000D01*
X102050000Y-64300000D02*
X102050000Y-50300000D01*
%TO.C,SW11*%
X20085000Y-74080000D02*
X20085000Y-88080000D01*
X34085000Y-74080000D02*
X20085000Y-74080000D01*
X20085000Y-88080000D02*
X34085000Y-88080000D01*
X34085000Y-88080000D02*
X34085000Y-74080000D01*
%TO.C,SW1*%
X20100000Y-40075000D02*
X20100000Y-54075000D01*
X34100000Y-40075000D02*
X20100000Y-40075000D01*
X20100000Y-54075000D02*
X34100000Y-54075000D01*
X34100000Y-54075000D02*
X34100000Y-40075000D01*
%TO.C,SW12*%
X51050000Y-83825000D02*
X51050000Y-69825000D01*
X37050000Y-69825000D02*
X37050000Y-83825000D01*
X51050000Y-69825000D02*
X37050000Y-69825000D01*
X37050000Y-83825000D02*
X51050000Y-83825000D01*
%TO.C,SW5*%
X102075000Y-47300000D02*
X102075000Y-33300000D01*
X88075000Y-47300000D02*
X102075000Y-47300000D01*
X88075000Y-33300000D02*
X88075000Y-47300000D01*
X102075000Y-33300000D02*
X88075000Y-33300000D01*
%TO.C,SW2*%
X37075000Y-49850000D02*
X51075000Y-49850000D01*
X37075000Y-35850000D02*
X37075000Y-49850000D01*
X51075000Y-35850000D02*
X37075000Y-35850000D01*
X51075000Y-49850000D02*
X51075000Y-35850000D01*
%TO.C,SW13*%
X54075000Y-67275000D02*
X54075000Y-81275000D01*
X54075000Y-81275000D02*
X68075000Y-81275000D01*
X68075000Y-67275000D02*
X54075000Y-67275000D01*
X68075000Y-81275000D02*
X68075000Y-67275000D01*
%TO.C,SW16*%
X60875000Y-99150000D02*
X74875000Y-99150000D01*
X60875000Y-85150000D02*
X60875000Y-99150000D01*
X74875000Y-85150000D02*
X60875000Y-85150000D01*
X74875000Y-99150000D02*
X74875000Y-85150000D01*
%TO.C,SW4*%
X85075000Y-47300000D02*
X85075000Y-33300000D01*
X85075000Y-33300000D02*
X71075000Y-33300000D01*
X71075000Y-33300000D02*
X71075000Y-47300000D01*
X71075000Y-47300000D02*
X85075000Y-47300000D01*
%TO.C,SW18*%
X94875000Y-85150000D02*
X94875000Y-99150000D01*
X108875000Y-99150000D02*
X108875000Y-85150000D01*
X94875000Y-99150000D02*
X108875000Y-99150000D01*
X108875000Y-85150000D02*
X94875000Y-85150000D01*
%TD*%
D13*
X101390000Y-26790000D03*
X104400000Y-105650000D03*
X24610000Y-105640000D03*
X24600000Y-26800000D03*
%LPC*%
D14*
%TO.C,Ref\u002A\u002A*%
X101390000Y-26790000D03*
%TD*%
%TO.C,Ref\u002A\u002A*%
X104400000Y-105650000D03*
%TD*%
%TO.C,Ref\u002A\u002A*%
X24610000Y-105640000D03*
%TD*%
%TO.C,Ref\u002A\u002A*%
X24600000Y-26800000D03*
%TD*%
M02*
