M48
; DRILL file {KiCad (6.0.9)} date 2023年01月09日 12時39分33秒
; FORMAT={-:-/ absolute / metric / decimal}
; #@! TF.CreationDate,2023-01-09T12:39:33+09:00
; #@! TF.GenerationSoftware,Kicad,Pcbnew,(6.0.9)
; #@! TF.FileFunction,NonPlated,1,2,NPTH
FMAT,2
METRIC
; #@! TA.AperFunction,NonPlated,NPTH,ComponentDrill
T1C0.650
; #@! TA.AperFunction,NonPlated,NPTH,ComponentDrill
T2C1.200
; #@! TA.AperFunction,NonPlated,NPTH,ComponentDrill
T3C1.900
; #@! TA.AperFunction,NonPlated,NPTH,ComponentDrill
T4C3.000
; #@! TA.AperFunction,NonPlated,NPTH,ComponentDrill
T5C4.100
%
G90
G05
T1
X92.86Y-24.79
X98.64Y-24.79
T2
X26.45Y-20.775
X26.45Y-27.775
T3
X28.57Y-91.7
X35.32Y-56.85
X35.37Y-39.825
X35.37Y-73.85
X38.73Y-91.7
X45.48Y-56.85
X45.53Y-39.825
X45.53Y-73.85
X45.57Y-91.7
X52.345Y-73.85
X52.355Y-56.855
X52.395Y-39.85
X55.73Y-91.7
X62.505Y-73.85
X62.515Y-56.855
X62.555Y-39.85
X62.57Y-91.725
X69.37Y-39.825
X69.37Y-56.85
X69.37Y-73.85
X72.73Y-91.725
X79.53Y-39.825
X79.53Y-56.85
X79.53Y-73.85
X86.355Y-76.39
X86.37Y-42.4
X86.37Y-59.375
X96.515Y-76.39
X96.53Y-42.4
X96.53Y-59.375
X103.37Y-63.65
X103.37Y-80.65
X103.395Y-46.65
X113.53Y-63.65
X113.53Y-80.65
X113.555Y-46.65
T4
X29.84Y-89.16
X36.19Y-86.62
X36.59Y-54.31
X36.64Y-37.285
X36.64Y-71.31
X42.94Y-51.77
X42.99Y-34.745
X42.99Y-68.77
X46.84Y-89.16
X53.19Y-86.62
X53.615Y-71.31
X53.625Y-54.315
X53.665Y-37.31
X59.965Y-68.77
X59.975Y-51.775
X60.015Y-34.77
X63.84Y-89.185
X70.19Y-86.645
X70.64Y-37.285
X70.64Y-54.31
X70.64Y-71.31
X76.99Y-34.745
X76.99Y-51.77
X76.99Y-68.77
X87.625Y-73.85
X87.64Y-39.86
X87.64Y-56.835
X93.975Y-71.31
X93.99Y-37.32
X93.99Y-54.295
X104.64Y-61.11
X104.64Y-78.11
X104.665Y-44.11
X110.99Y-58.57
X110.99Y-75.57
X111.015Y-41.57
T5
X33.65Y-91.7
X40.4Y-56.85
X40.45Y-39.825
X40.45Y-73.85
X50.65Y-91.7
X57.425Y-73.85
X57.435Y-56.855
X57.475Y-39.85
X67.65Y-91.725
X74.45Y-39.825
X74.45Y-56.85
X74.45Y-73.85
X91.435Y-76.39
X91.45Y-42.4
X91.45Y-59.375
X108.45Y-63.65
X108.45Y-80.65
X108.475Y-46.65
T0
M30
