M48
; DRILL file {KiCad (6.0.9)} date Tue Jan  3 16:32:55 2023
; FORMAT={-:-/ absolute / metric / decimal}
; #@! TF.CreationDate,2023-01-03T16:32:55+09:00
; #@! TF.GenerationSoftware,Kicad,Pcbnew,(6.0.9)
; #@! TF.FileFunction,MixedPlating,1,2
FMAT,2
METRIC
; #@! TA.AperFunction,Plated,PTH,ViaDrill
T1C0.400
; #@! TA.AperFunction,Plated,PTH,ComponentDrill
T2C0.762
; #@! TA.AperFunction,Plated,PTH,ComponentDrill
T3C0.813
; #@! TA.AperFunction,Plated,PTH,ComponentDrill
T4C1.000
; #@! TA.AperFunction,Plated,PTH,ComponentDrill
T5C1.300
; #@! TA.AperFunction,NonPlated,NPTH,ComponentDrill
T6C1.200
; #@! TA.AperFunction,NonPlated,NPTH,ComponentDrill
T7C1.702
; #@! TA.AperFunction,NonPlated,NPTH,ComponentDrill
T8C3.000
; #@! TA.AperFunction,NonPlated,NPTH,ComponentDrill
T9C3.988
; #@! TA.AperFunction,NonPlated,NPTH,ComponentDrill
T10C5.000
%
G90
G05
T1
X22.675Y-74.989
X22.675Y-78.586
X22.7Y-60.033
X23.273Y-95.138
X25.225Y-95.75
X25.436Y-60.062
X28.898Y-16.183
X30.85Y-96.1
X31.85Y-63.9
X32.0Y-76.275
X32.8Y-80.975
X33.275Y-47.725
X35.0Y-25.9
X36.229Y-30.279
X36.955Y-30.976
X37.025Y-51.325
X38.356Y-37.722
X38.975Y-78.05
X39.075Y-41.575
X39.2Y-89.847
X39.205Y-69.846
X39.234Y-52.026
X39.275Y-76.16
X39.287Y-31.278
X39.575Y-25.025
X40.4Y-59.125
X41.827Y-31.325
X42.0Y-87.825
X42.5Y-90.05
X43.15Y-25.1
X43.452Y-92.125
X44.367Y-31.283
X45.7Y-100.7
X46.35Y-42.975
X46.525Y-55.25
X47.225Y-72.3
X48.177Y-21.502
X48.925Y-76.05
X49.075Y-25.275
X49.825Y-56.675
X53.193Y-59.464
X53.525Y-26.1
X54.674Y-67.665
X55.75Y-73.248
X56.06Y-23.096
X56.375Y-40.2
X56.802Y-51.075
X56.832Y-85.975
X58.175Y-53.325
X58.475Y-69.8
X60.75Y-106.447
X61.251Y-39.027
X63.55Y-87.7
X64.25Y-55.6
X65.15Y-53.425
X65.325Y-50.675
X66.1Y-70.275
X69.135Y-74.999
X69.135Y-93.475
X69.809Y-108.8
X70.014Y-44.049
X70.15Y-70.1
X70.325Y-72.75
X70.954Y-67.829
X70.975Y-51.45
X72.225Y-87.256
X72.3Y-70.638
X73.383Y-51.025
X73.398Y-54.873
X76.125Y-53.05
X76.434Y-100.719
X77.075Y-92.45
X78.675Y-88.3
X79.122Y-103.885
X80.375Y-70.8
X81.2Y-73.675
X81.675Y-50.7
X84.0Y-53.675
X85.575Y-94.45
X85.585Y-67.66
X85.721Y-90.433
X86.625Y-53.3
X88.579Y-51.374
X88.9Y-74.975
X89.275Y-40.325
X89.834Y-87.725
X89.871Y-56.3
X89.998Y-70.162
X95.3Y-90.225
X97.975Y-72.425
X99.478Y-98.624
X100.35Y-105.197
X100.85Y-55.675
X101.275Y-94.675
X101.454Y-110.1
X103.775Y-106.925
X112.725Y-97.925
T2
X74.07Y-38.3
X76.61Y-38.25
X79.15Y-38.3
X81.69Y-38.3
X84.23Y-38.3
T3
X24.047Y-17.644
X24.047Y-32.864
X25.317Y-18.95
X25.317Y-34.19
X26.587Y-17.644
X26.587Y-32.864
X27.857Y-18.95
X27.857Y-34.19
X29.127Y-17.644
X29.127Y-32.864
X30.397Y-18.95
X30.397Y-34.19
X31.667Y-17.644
X31.667Y-32.864
X32.937Y-18.95
X32.937Y-34.19
X34.207Y-17.644
X34.207Y-32.864
X35.477Y-18.95
X35.477Y-34.19
X36.747Y-17.644
X36.747Y-32.864
X38.017Y-18.95
X38.017Y-34.19
X39.287Y-17.644
X39.287Y-32.864
X40.557Y-18.95
X40.557Y-34.19
X41.827Y-17.644
X41.827Y-32.864
X43.097Y-18.95
X43.097Y-34.19
X44.367Y-17.644
X44.367Y-32.864
X45.637Y-18.95
X45.637Y-34.19
X46.907Y-17.644
X46.907Y-32.864
X48.177Y-18.95
X48.177Y-34.19
X49.447Y-17.644
X49.447Y-32.864
X50.717Y-18.95
X50.717Y-34.19
X51.987Y-17.644
X51.987Y-32.864
X53.257Y-18.95
X53.257Y-34.19
T5
X22.05Y-37.7
X22.05Y-44.2
T6
X60.275Y-24.075
X60.275Y-31.075
X62.025Y-24.075
X62.025Y-31.075
T7
X23.82Y-56.35
X23.82Y-91.275
X23.87Y-73.85
X33.98Y-56.35
X33.98Y-91.275
X34.03Y-73.85
X40.395Y-68.6
X40.395Y-86.075
X40.415Y-51.075
X50.555Y-68.6
X50.555Y-86.075
X50.575Y-51.075
X56.885Y-48.53
X56.895Y-65.975
X56.97Y-83.45
X61.82Y-102.7
X67.045Y-48.53
X67.055Y-65.975
X67.13Y-83.45
X71.98Y-102.7
X73.37Y-83.475
X73.42Y-65.95
X73.445Y-48.52
X80.345Y-102.725
X83.53Y-83.475
X83.58Y-65.95
X83.605Y-48.52
X89.82Y-50.225
X89.87Y-67.725
X89.87Y-85.25
X90.505Y-102.725
X99.98Y-50.225
X100.03Y-67.725
X100.03Y-85.25
X102.272Y-103.643
X112.278Y-105.407
T8
X25.09Y-53.81
X25.09Y-88.735
X25.14Y-71.31
X26.36Y-51.27
X26.36Y-86.195
X26.41Y-68.77
X31.44Y-51.27
X31.44Y-86.195
X31.49Y-68.77
X32.71Y-53.9
X32.71Y-88.825
X32.76Y-71.4
X41.665Y-66.06
X41.665Y-83.535
X41.685Y-48.535
X42.935Y-63.52
X42.935Y-80.995
X42.955Y-45.995
X48.015Y-63.52
X48.015Y-80.995
X48.035Y-45.995
X49.285Y-66.15
X49.285Y-83.625
X49.305Y-48.625
X58.155Y-45.99
X58.165Y-63.435
X58.24Y-80.91
X59.425Y-43.45
X59.435Y-60.895
X59.51Y-78.37
X63.09Y-100.16
X64.36Y-97.62
X64.505Y-43.45
X64.515Y-60.895
X64.59Y-78.37
X65.775Y-46.08
X65.785Y-63.525
X65.86Y-81.0
X69.44Y-97.62
X70.71Y-100.25
X74.64Y-80.935
X74.69Y-63.41
X74.715Y-45.98
X75.91Y-78.395
X75.96Y-60.87
X75.985Y-43.44
X80.99Y-78.395
X81.04Y-60.87
X81.065Y-43.44
X81.615Y-100.185
X82.26Y-81.025
X82.31Y-63.5
X82.335Y-46.07
X82.885Y-97.645
X87.965Y-97.645
X89.235Y-100.275
X91.09Y-47.685
X91.14Y-65.185
X91.14Y-82.71
X92.36Y-45.145
X92.41Y-62.645
X92.41Y-80.17
X97.44Y-45.145
X97.49Y-62.645
X97.49Y-80.17
X98.71Y-47.775
X98.76Y-65.275
X98.76Y-82.8
X103.964Y-101.362
X105.656Y-99.081
X110.659Y-99.963
X111.453Y-102.774
T9
X28.9Y-56.35
X28.9Y-91.275
X28.95Y-73.85
X45.475Y-68.6
X45.475Y-86.075
X45.495Y-51.075
X61.965Y-48.53
X61.975Y-65.975
X62.05Y-83.45
X66.9Y-102.7
X78.45Y-83.475
X78.5Y-65.95
X78.525Y-48.52
X85.425Y-102.725
X94.9Y-50.225
X94.95Y-67.725
X94.95Y-85.25
X107.275Y-104.525
T10
X28.925Y-106.375
X28.95Y-41.375
X94.95Y-39.775
X96.45Y-102.475
T4
G00X58.175Y-25.625
M15
G01X58.175Y-26.125
M16
G05
G00X58.175Y-28.625
M15
G01X58.175Y-29.125
M16
G05
G00X58.175Y-32.625
M15
G01X58.175Y-33.125
M16
G05
G00X59.925Y-34.125
M15
G01X59.925Y-34.625
M16
G05
G00X62.375Y-34.125
M15
G01X62.375Y-34.625
M16
G05
G00X64.125Y-25.625
M15
G01X64.125Y-26.125
M16
G05
G00X64.125Y-28.625
M15
G01X64.125Y-29.125
M16
G05
G00X64.125Y-32.625
M15
G01X64.125Y-33.125
M16
G05
T0
M30
