M48
; DRILL file {KiCad (6.0.6)} date 2022年10月07日 23時53分13秒
; FORMAT={-:-/ absolute / metric / decimal}
; #@! TF.CreationDate,2022-10-07T23:53:13+09:00
; #@! TF.GenerationSoftware,Kicad,Pcbnew,(6.0.6)
; #@! TF.FileFunction,Plated,1,2,PTH
FMAT,2
METRIC
; #@! TA.AperFunction,Plated,PTH,ViaDrill
T1C0.300
; #@! TA.AperFunction,Plated,PTH,ViaDrill
T2C0.400
; #@! TA.AperFunction,Plated,PTH,ComponentDrill
T3C0.800
; #@! TA.AperFunction,Plated,PTH,ComponentDrill
T4C1.000
%
G90
G05
T1
X22.1Y-52.0
X22.172Y-43.298
X22.3Y-63.7
X24.0Y-77.1
X24.302Y-63.902
X24.6Y-42.6
X24.8Y-23.0
X26.7Y-34.8
X30.5Y-30.4
X33.0Y-69.5
X36.1Y-44.2
X36.2Y-27.1
X36.8Y-58.9
X36.94Y-29.861
X37.2Y-41.0
X37.6Y-69.7
X37.8Y-62.5
X38.345Y-24.655
X38.8Y-57.5
X39.0Y-50.8
X39.0Y-87.7
X39.357Y-27.958
X39.5Y-31.1
X39.5Y-44.8
X41.3Y-48.4
X41.9Y-76.2
X42.6Y-58.9
X42.7Y-40.8
X43.8Y-27.2
X45.5Y-36.4
X46.7Y-92.2
X49.0Y-37.8
X55.1Y-29.8
X55.4Y-41.1
X56.2Y-27.8
X56.4Y-58.2
X56.486Y-43.783
X56.7Y-62.6
X57.1Y-86.2
X59.7Y-40.5
X60.3Y-76.1
X61.8Y-35.5
X65.4Y-72.1
X65.8Y-84.2
X71.2Y-40.5
X71.2Y-44.2
X72.5Y-58.6
X72.7Y-27.6
X72.7Y-61.5
X74.397Y-40.392
X74.9Y-44.1
X75.0Y-77.1
X76.0Y-81.4
X76.8Y-26.8
X78.1Y-34.9
X78.3Y-52.1
X78.4Y-70.1
X84.2Y-34.0
X84.4Y-53.0
X84.5Y-96.1
X86.0Y-39.8
X88.3Y-41.6
X88.3Y-58.8
X88.9Y-62.1
X89.4Y-44.2
X90.6Y-76.3
X92.798Y-58.772
X94.6Y-34.7
X95.1Y-81.5
X95.2Y-70.8
X95.4Y-54.1
X98.7Y-96.7
X100.783Y-34.483
X100.8Y-33.5
X100.8Y-99.5
X101.3Y-90.9
X103.2Y-42.0
X103.277Y-24.267
X104.2Y-76.2
X104.5Y-59.4
X104.9Y-42.0
X105.2Y-81.5
X105.5Y-74.5
T2
X22.814Y-28.85
X27.029Y-43.751
X28.13Y-37.56
X29.429Y-61.851
X30.598Y-43.45
X31.94Y-76.41
X32.5Y-55.7
X33.761Y-61.952
X35.031Y-94.145
X37.891Y-74.974
X39.327Y-60.15
X40.793Y-68.004
X40.97Y-29.21
X41.56Y-43.53
X44.666Y-43.054
X46.535Y-59.805
X49.33Y-54.58
X49.82Y-36.65
X51.663Y-25.449
X51.8Y-76.58
X51.808Y-61.13
X55.246Y-47.294
X56.61Y-39.605
X57.42Y-29.22
X57.46Y-46.68
X57.785Y-68.075
X59.314Y-81.514
X60.055Y-90.3
X60.201Y-61.633
X62.313Y-91.747
X62.359Y-93.628
X62.48Y-37.99
X62.963Y-59.362
X63.973Y-25.476
X64.255Y-43.05
X66.1Y-54.52
X67.8Y-80.73
X67.958Y-43.897
X67.98Y-84.32
X68.029Y-61.115
X68.34Y-35.53
X68.383Y-76.716
X70.272Y-94.98
X73.87Y-29.05
X73.931Y-45.555
X73.943Y-63.871
X77.577Y-60.09
X78.124Y-42.937
X78.75Y-38.2
X79.26Y-55.18
X83.44Y-77.37
X84.364Y-90.472
X84.427Y-43.936
X84.81Y-35.35
X86.76Y-62.26
X87.41Y-75.48
X89.89Y-94.22
X90.3Y-46.44
X90.77Y-62.12
X90.791Y-40.715
X94.732Y-42.657
X94.901Y-60.11
X98.163Y-43.966
X99.06Y-37.08
X99.575Y-72.055
X99.755Y-54.005
X100.975Y-86.825
X101.39Y-61.955
X101.69Y-26.94
X102.26Y-92.84
X102.3Y-87.91
X106.119Y-97.704
X111.556Y-97.13
X117.63Y-91.81
T3
X25.387Y-81.379
X25.387Y-96.614
X26.686Y-82.776
X26.686Y-98.011
X27.927Y-81.379
X27.927Y-96.614
X29.226Y-82.776
X29.226Y-98.011
X30.467Y-81.379
X30.467Y-96.614
X31.766Y-82.776
X31.766Y-98.011
X33.008Y-81.379
X33.008Y-96.614
X34.306Y-82.776
X34.306Y-98.011
X35.547Y-81.379
X35.547Y-96.614
X36.846Y-82.776
X36.846Y-98.011
X38.087Y-81.379
X38.087Y-96.614
X39.386Y-82.776
X39.386Y-98.011
X40.627Y-81.379
X40.627Y-96.614
X41.926Y-82.776
X41.926Y-98.011
T4
G00X108.41Y-72.525
M15
G01X107.91Y-72.525
M16
G05
G00X108.41Y-74.975
M15
G01X107.91Y-74.975
M16
G05
G00X109.91Y-70.775
M15
G01X109.41Y-70.775
M16
G05
G00X109.91Y-76.725
M15
G01X109.41Y-76.725
M16
G05
G00X113.91Y-70.775
M15
G01X113.41Y-70.775
M16
G05
G00X113.91Y-76.725
M15
G01X113.41Y-76.725
M16
G05
G00X116.91Y-70.775
M15
G01X116.41Y-70.775
M16
G05
G00X116.91Y-76.725
M15
G01X116.41Y-76.725
M16
G05
T0
M30
