%TF.GenerationSoftware,KiCad,Pcbnew,(6.0.9)*%
%TF.CreationDate,2023-01-09T12:53:46+09:00*%
%TF.ProjectId,split-mini__left,73706c69-742d-46d6-996e-695f5f6c6566,rev?*%
%TF.SameCoordinates,Original*%
%TF.FileFunction,Legend,Bot*%
%TF.FilePolarity,Positive*%
%FSLAX46Y46*%
G04 Gerber Fmt 4.6, Leading zero omitted, Abs format (unit mm)*
G04 Created by KiCad (PCBNEW (6.0.9)) date 2023-01-09 12:53:46*
%MOMM*%
%LPD*%
G01*
G04 APERTURE LIST*
G04 Aperture macros list*
%AMRoundRect*
0 Rectangle with rounded corners*
0 $1 Rounding radius*
0 $2 $3 $4 $5 $6 $7 $8 $9 X,Y pos of 4 corners*
0 Add a 4 corners polygon primitive as box body*
4,1,4,$2,$3,$4,$5,$6,$7,$8,$9,$2,$3,0*
0 Add four circle primitives for the rounded corners*
1,1,$1+$1,$2,$3*
1,1,$1+$1,$4,$5*
1,1,$1+$1,$6,$7*
1,1,$1+$1,$8,$9*
0 Add four rect primitives between the rounded corners*
20,1,$1+$1,$2,$3,$4,$5,0*
20,1,$1+$1,$4,$5,$6,$7,0*
20,1,$1+$1,$6,$7,$8,$9,0*
20,1,$1+$1,$8,$9,$2,$3,0*%
G04 Aperture macros list end*
%ADD10C,0.100000*%
%TA.AperFunction,Profile*%
%ADD11C,0.100000*%
%TD*%
%ADD12C,0.200000*%
%ADD13C,0.150000*%
%ADD14C,0.120000*%
%ADD15C,0.350000*%
%ADD16O,0.600000X1.400000*%
%ADD17O,0.600000X1.700000*%
%ADD18O,1.000000X1.500000*%
%ADD19C,1.900000*%
%ADD20C,4.100000*%
%ADD21C,3.000000*%
%ADD22R,2.550000X2.500000*%
%ADD23C,0.650000*%
%ADD24R,0.580000X1.400000*%
%ADD25R,0.280000X1.400000*%
%ADD26O,1.000000X1.800000*%
%ADD27O,1.000000X2.100000*%
%ADD28RoundRect,0.137500X-0.137500X0.600000X-0.137500X-0.600000X0.137500X-0.600000X0.137500X0.600000X0*%
%ADD29RoundRect,0.137500X-0.600000X0.137500X-0.600000X-0.137500X0.600000X-0.137500X0.600000X0.137500X0*%
%ADD30RoundRect,0.250000X-0.625000X0.375000X-0.625000X-0.375000X0.625000X-0.375000X0.625000X0.375000X0*%
%ADD31RoundRect,0.250000X0.262500X0.450000X-0.262500X0.450000X-0.262500X-0.450000X0.262500X-0.450000X0*%
%ADD32RoundRect,0.250000X-0.262500X-0.450000X0.262500X-0.450000X0.262500X0.450000X-0.262500X0.450000X0*%
%ADD33RoundRect,0.250000X-0.250000X-0.475000X0.250000X-0.475000X0.250000X0.475000X-0.250000X0.475000X0*%
%ADD34C,1.200000*%
%ADD35RoundRect,0.250000X0.250000X0.475000X-0.250000X0.475000X-0.250000X-0.475000X0.250000X-0.475000X0*%
%ADD36R,0.650000X1.050000*%
%ADD37R,1.800000X2.100000*%
%ADD38RoundRect,0.250000X-0.475000X0.250000X-0.475000X-0.250000X0.475000X-0.250000X0.475000X0.250000X0*%
%ADD39RoundRect,0.250000X-0.450000X0.262500X-0.450000X-0.262500X0.450000X-0.262500X0.450000X0.262500X0*%
G04 APERTURE END LIST*
D10*
X38346982Y-87150000D02*
G75*
G03*
X38346982Y-87150000I-246982J0D01*
G01*
D11*
X45300000Y-24800000D02*
X51300000Y-24800000D01*
X112386197Y-19800000D02*
X112386197Y-101650000D01*
X34300000Y-20168424D02*
X45300000Y-20168424D01*
X17586197Y-30800000D02*
X34300000Y-30800000D01*
X105886197Y-19800000D02*
X112386197Y-19800000D01*
X105886197Y-30800000D02*
X105886197Y-19800000D01*
X34300000Y-30800000D02*
X34300000Y-20168424D01*
X17586197Y-101650000D02*
X17586197Y-30800000D01*
X51300000Y-24800000D02*
X51300000Y-30800000D01*
X51300000Y-30800000D02*
X105886197Y-30800000D01*
X45300000Y-20168424D02*
X45300000Y-24800000D01*
X112386197Y-101650000D02*
X17586197Y-101650000D01*
D12*
X76820238Y-98749761D02*
X76725000Y-98797380D01*
X76534523Y-98797380D01*
X76439285Y-98749761D01*
X76391666Y-98654523D01*
X76391666Y-98606904D01*
X76439285Y-98511666D01*
X76534523Y-98464047D01*
X76677380Y-98464047D01*
X76772619Y-98416428D01*
X76820238Y-98321190D01*
X76820238Y-98273571D01*
X76772619Y-98178333D01*
X76677380Y-98130714D01*
X76534523Y-98130714D01*
X76439285Y-98178333D01*
X75963095Y-98130714D02*
X75963095Y-99130714D01*
X75963095Y-98178333D02*
X75867857Y-98130714D01*
X75677380Y-98130714D01*
X75582142Y-98178333D01*
X75534523Y-98225952D01*
X75486904Y-98321190D01*
X75486904Y-98606904D01*
X75534523Y-98702142D01*
X75582142Y-98749761D01*
X75677380Y-98797380D01*
X75867857Y-98797380D01*
X75963095Y-98749761D01*
X74915476Y-98797380D02*
X75010714Y-98749761D01*
X75058333Y-98654523D01*
X75058333Y-97797380D01*
X74534523Y-98797380D02*
X74534523Y-98130714D01*
X74534523Y-97797380D02*
X74582142Y-97845000D01*
X74534523Y-97892619D01*
X74486904Y-97845000D01*
X74534523Y-97797380D01*
X74534523Y-97892619D01*
X74201190Y-98130714D02*
X73820238Y-98130714D01*
X74058333Y-97797380D02*
X74058333Y-98654523D01*
X74010714Y-98749761D01*
X73915476Y-98797380D01*
X73820238Y-98797380D01*
X72725000Y-98797380D02*
X72725000Y-98130714D01*
X72725000Y-98225952D02*
X72677380Y-98178333D01*
X72582142Y-98130714D01*
X72439285Y-98130714D01*
X72344047Y-98178333D01*
X72296428Y-98273571D01*
X72296428Y-98797380D01*
X72296428Y-98273571D02*
X72248809Y-98178333D01*
X72153571Y-98130714D01*
X72010714Y-98130714D01*
X71915476Y-98178333D01*
X71867857Y-98273571D01*
X71867857Y-98797380D01*
X71391666Y-98797380D02*
X71391666Y-98130714D01*
X71391666Y-97797380D02*
X71439285Y-97845000D01*
X71391666Y-97892619D01*
X71344047Y-97845000D01*
X71391666Y-97797380D01*
X71391666Y-97892619D01*
X70915476Y-98130714D02*
X70915476Y-98797380D01*
X70915476Y-98225952D02*
X70867857Y-98178333D01*
X70772619Y-98130714D01*
X70629761Y-98130714D01*
X70534523Y-98178333D01*
X70486904Y-98273571D01*
X70486904Y-98797380D01*
X70010714Y-98797380D02*
X70010714Y-98130714D01*
X70010714Y-97797380D02*
X70058333Y-97845000D01*
X70010714Y-97892619D01*
X69963095Y-97845000D01*
X70010714Y-97797380D01*
X70010714Y-97892619D01*
X68772619Y-98797380D02*
X68772619Y-98130714D01*
X68772619Y-98321190D02*
X68725000Y-98225952D01*
X68677380Y-98178333D01*
X68582142Y-98130714D01*
X68486904Y-98130714D01*
X67772619Y-98749761D02*
X67867857Y-98797380D01*
X68058333Y-98797380D01*
X68153571Y-98749761D01*
X68201190Y-98654523D01*
X68201190Y-98273571D01*
X68153571Y-98178333D01*
X68058333Y-98130714D01*
X67867857Y-98130714D01*
X67772619Y-98178333D01*
X67725000Y-98273571D01*
X67725000Y-98368809D01*
X68201190Y-98464047D01*
X67391666Y-98130714D02*
X67153571Y-98797380D01*
X66915476Y-98130714D01*
X66344047Y-97797380D02*
X66248809Y-97797380D01*
X66153571Y-97845000D01*
X66105952Y-97892619D01*
X66058333Y-97987857D01*
X66010714Y-98178333D01*
X66010714Y-98416428D01*
X66058333Y-98606904D01*
X66105952Y-98702142D01*
X66153571Y-98749761D01*
X66248809Y-98797380D01*
X66344047Y-98797380D01*
X66439285Y-98749761D01*
X66486904Y-98702142D01*
X66534523Y-98606904D01*
X66582142Y-98416428D01*
X66582142Y-98178333D01*
X66534523Y-97987857D01*
X66486904Y-97892619D01*
X66439285Y-97845000D01*
X66344047Y-97797380D01*
X65582142Y-98702142D02*
X65534523Y-98749761D01*
X65582142Y-98797380D01*
X65629761Y-98749761D01*
X65582142Y-98702142D01*
X65582142Y-98797380D01*
X64582142Y-98797380D02*
X65153571Y-98797380D01*
X64867857Y-98797380D02*
X64867857Y-97797380D01*
X64963095Y-97940238D01*
X65058333Y-98035476D01*
X65153571Y-98083095D01*
X64248809Y-97797380D02*
X63629761Y-97797380D01*
X63963095Y-98178333D01*
X63820238Y-98178333D01*
X63725000Y-98225952D01*
X63677380Y-98273571D01*
X63629761Y-98368809D01*
X63629761Y-98606904D01*
X63677380Y-98702142D01*
X63725000Y-98749761D01*
X63820238Y-98797380D01*
X64105952Y-98797380D01*
X64201190Y-98749761D01*
X64248809Y-98702142D01*
X78653571Y-100407380D02*
X78653571Y-99407380D01*
X78653571Y-100359761D02*
X78748809Y-100407380D01*
X78939285Y-100407380D01*
X79034523Y-100359761D01*
X79082142Y-100312142D01*
X79129761Y-100216904D01*
X79129761Y-99931190D01*
X79082142Y-99835952D01*
X79034523Y-99788333D01*
X78939285Y-99740714D01*
X78748809Y-99740714D01*
X78653571Y-99788333D01*
X77796428Y-100359761D02*
X77891666Y-100407380D01*
X78082142Y-100407380D01*
X78177380Y-100359761D01*
X78225000Y-100264523D01*
X78225000Y-99883571D01*
X78177380Y-99788333D01*
X78082142Y-99740714D01*
X77891666Y-99740714D01*
X77796428Y-99788333D01*
X77748809Y-99883571D01*
X77748809Y-99978809D01*
X78225000Y-100074047D01*
X77367857Y-100359761D02*
X77272619Y-100407380D01*
X77082142Y-100407380D01*
X76986904Y-100359761D01*
X76939285Y-100264523D01*
X76939285Y-100216904D01*
X76986904Y-100121666D01*
X77082142Y-100074047D01*
X77225000Y-100074047D01*
X77320238Y-100026428D01*
X77367857Y-99931190D01*
X77367857Y-99883571D01*
X77320238Y-99788333D01*
X77225000Y-99740714D01*
X77082142Y-99740714D01*
X76986904Y-99788333D01*
X76510714Y-100407380D02*
X76510714Y-99740714D01*
X76510714Y-99407380D02*
X76558333Y-99455000D01*
X76510714Y-99502619D01*
X76463095Y-99455000D01*
X76510714Y-99407380D01*
X76510714Y-99502619D01*
X75605952Y-99740714D02*
X75605952Y-100550238D01*
X75653571Y-100645476D01*
X75701190Y-100693095D01*
X75796428Y-100740714D01*
X75939285Y-100740714D01*
X76034523Y-100693095D01*
X75605952Y-100359761D02*
X75701190Y-100407380D01*
X75891666Y-100407380D01*
X75986904Y-100359761D01*
X76034523Y-100312142D01*
X76082142Y-100216904D01*
X76082142Y-99931190D01*
X76034523Y-99835952D01*
X75986904Y-99788333D01*
X75891666Y-99740714D01*
X75701190Y-99740714D01*
X75605952Y-99788333D01*
X75129761Y-99740714D02*
X75129761Y-100407380D01*
X75129761Y-99835952D02*
X75082142Y-99788333D01*
X74986904Y-99740714D01*
X74844047Y-99740714D01*
X74748809Y-99788333D01*
X74701190Y-99883571D01*
X74701190Y-100407380D01*
X73844047Y-100359761D02*
X73939285Y-100407380D01*
X74129761Y-100407380D01*
X74225000Y-100359761D01*
X74272619Y-100264523D01*
X74272619Y-99883571D01*
X74225000Y-99788333D01*
X74129761Y-99740714D01*
X73939285Y-99740714D01*
X73844047Y-99788333D01*
X73796428Y-99883571D01*
X73796428Y-99978809D01*
X74272619Y-100074047D01*
X72939285Y-100407380D02*
X72939285Y-99407380D01*
X72939285Y-100359761D02*
X73034523Y-100407380D01*
X73225000Y-100407380D01*
X73320238Y-100359761D01*
X73367857Y-100312142D01*
X73415476Y-100216904D01*
X73415476Y-99931190D01*
X73367857Y-99835952D01*
X73320238Y-99788333D01*
X73225000Y-99740714D01*
X73034523Y-99740714D01*
X72939285Y-99788333D01*
X71701190Y-100407380D02*
X71701190Y-99407380D01*
X71701190Y-99788333D02*
X71605952Y-99740714D01*
X71415476Y-99740714D01*
X71320238Y-99788333D01*
X71272619Y-99835952D01*
X71225000Y-99931190D01*
X71225000Y-100216904D01*
X71272619Y-100312142D01*
X71320238Y-100359761D01*
X71415476Y-100407380D01*
X71605952Y-100407380D01*
X71701190Y-100359761D01*
X70891666Y-99740714D02*
X70653571Y-100407380D01*
X70415476Y-99740714D02*
X70653571Y-100407380D01*
X70748809Y-100645476D01*
X70796428Y-100693095D01*
X70891666Y-100740714D01*
X69415476Y-99740714D02*
X69034523Y-99740714D01*
X69272619Y-99407380D02*
X69272619Y-100264523D01*
X69225000Y-100359761D01*
X69129761Y-100407380D01*
X69034523Y-100407380D01*
X68272619Y-100407380D02*
X68272619Y-99883571D01*
X68320238Y-99788333D01*
X68415476Y-99740714D01*
X68605952Y-99740714D01*
X68701190Y-99788333D01*
X68272619Y-100359761D02*
X68367857Y-100407380D01*
X68605952Y-100407380D01*
X68701190Y-100359761D01*
X68748809Y-100264523D01*
X68748809Y-100169285D01*
X68701190Y-100074047D01*
X68605952Y-100026428D01*
X68367857Y-100026428D01*
X68272619Y-99978809D01*
X67796428Y-100407380D02*
X67796428Y-99740714D01*
X67796428Y-99835952D02*
X67748809Y-99788333D01*
X67653571Y-99740714D01*
X67510714Y-99740714D01*
X67415476Y-99788333D01*
X67367857Y-99883571D01*
X67367857Y-100407380D01*
X67367857Y-99883571D02*
X67320238Y-99788333D01*
X67225000Y-99740714D01*
X67082142Y-99740714D01*
X66986904Y-99788333D01*
X66939285Y-99883571D01*
X66939285Y-100407380D01*
X66034523Y-100407380D02*
X66034523Y-99883571D01*
X66082142Y-99788333D01*
X66177380Y-99740714D01*
X66367857Y-99740714D01*
X66463095Y-99788333D01*
X66034523Y-100359761D02*
X66129761Y-100407380D01*
X66367857Y-100407380D01*
X66463095Y-100359761D01*
X66510714Y-100264523D01*
X66510714Y-100169285D01*
X66463095Y-100074047D01*
X66367857Y-100026428D01*
X66129761Y-100026428D01*
X66034523Y-99978809D01*
X65129761Y-99740714D02*
X65129761Y-100550238D01*
X65177380Y-100645476D01*
X65225000Y-100693095D01*
X65320238Y-100740714D01*
X65463095Y-100740714D01*
X65558333Y-100693095D01*
X65129761Y-100359761D02*
X65225000Y-100407380D01*
X65415476Y-100407380D01*
X65510714Y-100359761D01*
X65558333Y-100312142D01*
X65605952Y-100216904D01*
X65605952Y-99931190D01*
X65558333Y-99835952D01*
X65510714Y-99788333D01*
X65415476Y-99740714D01*
X65225000Y-99740714D01*
X65129761Y-99788333D01*
X64510714Y-100407380D02*
X64605952Y-100359761D01*
X64653571Y-100312142D01*
X64701190Y-100216904D01*
X64701190Y-99931190D01*
X64653571Y-99835952D01*
X64605952Y-99788333D01*
X64510714Y-99740714D01*
X64367857Y-99740714D01*
X64272619Y-99788333D01*
X64225000Y-99835952D01*
X64177380Y-99931190D01*
X64177380Y-100216904D01*
X64225000Y-100312142D01*
X64272619Y-100359761D01*
X64367857Y-100407380D01*
X64510714Y-100407380D01*
X63844047Y-99407380D02*
X63225000Y-99407380D01*
X63558333Y-99788333D01*
X63415476Y-99788333D01*
X63320238Y-99835952D01*
X63272619Y-99883571D01*
X63225000Y-99978809D01*
X63225000Y-100216904D01*
X63272619Y-100312142D01*
X63320238Y-100359761D01*
X63415476Y-100407380D01*
X63701190Y-100407380D01*
X63796428Y-100359761D01*
X63844047Y-100312142D01*
X62844047Y-99502619D02*
X62796428Y-99455000D01*
X62701190Y-99407380D01*
X62463095Y-99407380D01*
X62367857Y-99455000D01*
X62320238Y-99502619D01*
X62272619Y-99597857D01*
X62272619Y-99693095D01*
X62320238Y-99835952D01*
X62891666Y-100407380D01*
X62272619Y-100407380D01*
X61415476Y-99740714D02*
X61415476Y-100407380D01*
X61653571Y-99359761D02*
X61891666Y-100074047D01*
X61272619Y-100074047D01*
D13*
%TO.C,J1*%
X40108333Y-27722380D02*
X40108333Y-28436666D01*
X40155952Y-28579523D01*
X40251190Y-28674761D01*
X40394047Y-28722380D01*
X40489285Y-28722380D01*
X39108333Y-28722380D02*
X39679761Y-28722380D01*
X39394047Y-28722380D02*
X39394047Y-27722380D01*
X39489285Y-27865238D01*
X39584523Y-27960476D01*
X39679761Y-28008095D01*
%TO.C,U1*%
X42721904Y-90747380D02*
X42721904Y-91556904D01*
X42674285Y-91652142D01*
X42626666Y-91699761D01*
X42531428Y-91747380D01*
X42340952Y-91747380D01*
X42245714Y-91699761D01*
X42198095Y-91652142D01*
X42150476Y-91556904D01*
X42150476Y-90747380D01*
X41150476Y-91747380D02*
X41721904Y-91747380D01*
X41436190Y-91747380D02*
X41436190Y-90747380D01*
X41531428Y-90890238D01*
X41626666Y-90985476D01*
X41721904Y-91033095D01*
%TO.C,F1*%
X22823333Y-34958571D02*
X23156666Y-34958571D01*
X23156666Y-35482380D02*
X23156666Y-34482380D01*
X22680476Y-34482380D01*
X21775714Y-35482380D02*
X22347142Y-35482380D01*
X22061428Y-35482380D02*
X22061428Y-34482380D01*
X22156666Y-34625238D01*
X22251904Y-34720476D01*
X22347142Y-34768095D01*
%TO.C,R5*%
X32136666Y-97387380D02*
X32470000Y-96911190D01*
X32708095Y-97387380D02*
X32708095Y-96387380D01*
X32327142Y-96387380D01*
X32231904Y-96435000D01*
X32184285Y-96482619D01*
X32136666Y-96577857D01*
X32136666Y-96720714D01*
X32184285Y-96815952D01*
X32231904Y-96863571D01*
X32327142Y-96911190D01*
X32708095Y-96911190D01*
X31231904Y-96387380D02*
X31708095Y-96387380D01*
X31755714Y-96863571D01*
X31708095Y-96815952D01*
X31612857Y-96768333D01*
X31374761Y-96768333D01*
X31279523Y-96815952D01*
X31231904Y-96863571D01*
X31184285Y-96958809D01*
X31184285Y-97196904D01*
X31231904Y-97292142D01*
X31279523Y-97339761D01*
X31374761Y-97387380D01*
X31612857Y-97387380D01*
X31708095Y-97339761D01*
X31755714Y-97292142D01*
%TO.C,R1*%
X41791666Y-34652380D02*
X42125000Y-34176190D01*
X42363095Y-34652380D02*
X42363095Y-33652380D01*
X41982142Y-33652380D01*
X41886904Y-33700000D01*
X41839285Y-33747619D01*
X41791666Y-33842857D01*
X41791666Y-33985714D01*
X41839285Y-34080952D01*
X41886904Y-34128571D01*
X41982142Y-34176190D01*
X42363095Y-34176190D01*
X40839285Y-34652380D02*
X41410714Y-34652380D01*
X41125000Y-34652380D02*
X41125000Y-33652380D01*
X41220238Y-33795238D01*
X41315476Y-33890476D01*
X41410714Y-33938095D01*
%TO.C,C5*%
X27496666Y-89462142D02*
X27544285Y-89509761D01*
X27687142Y-89557380D01*
X27782380Y-89557380D01*
X27925238Y-89509761D01*
X28020476Y-89414523D01*
X28068095Y-89319285D01*
X28115714Y-89128809D01*
X28115714Y-88985952D01*
X28068095Y-88795476D01*
X28020476Y-88700238D01*
X27925238Y-88605000D01*
X27782380Y-88557380D01*
X27687142Y-88557380D01*
X27544285Y-88605000D01*
X27496666Y-88652619D01*
X26591904Y-88557380D02*
X27068095Y-88557380D01*
X27115714Y-89033571D01*
X27068095Y-88985952D01*
X26972857Y-88938333D01*
X26734761Y-88938333D01*
X26639523Y-88985952D01*
X26591904Y-89033571D01*
X26544285Y-89128809D01*
X26544285Y-89366904D01*
X26591904Y-89462142D01*
X26639523Y-89509761D01*
X26734761Y-89557380D01*
X26972857Y-89557380D01*
X27068095Y-89509761D01*
X27115714Y-89462142D01*
%TO.C,J2*%
X111661904Y-25677380D02*
X111090476Y-25677380D01*
X111376190Y-26677380D02*
X111376190Y-25677380D01*
X110185714Y-26677380D02*
X110519047Y-26201190D01*
X110757142Y-26677380D02*
X110757142Y-25677380D01*
X110376190Y-25677380D01*
X110280952Y-25725000D01*
X110233333Y-25772619D01*
X110185714Y-25867857D01*
X110185714Y-26010714D01*
X110233333Y-26105952D01*
X110280952Y-26153571D01*
X110376190Y-26201190D01*
X110757142Y-26201190D01*
X109185714Y-26677380D02*
X109519047Y-26201190D01*
X109757142Y-26677380D02*
X109757142Y-25677380D01*
X109376190Y-25677380D01*
X109280952Y-25725000D01*
X109233333Y-25772619D01*
X109185714Y-25867857D01*
X109185714Y-26010714D01*
X109233333Y-26105952D01*
X109280952Y-26153571D01*
X109376190Y-26201190D01*
X109757142Y-26201190D01*
X108804761Y-26629761D02*
X108661904Y-26677380D01*
X108423809Y-26677380D01*
X108328571Y-26629761D01*
X108280952Y-26582142D01*
X108233333Y-26486904D01*
X108233333Y-26391666D01*
X108280952Y-26296428D01*
X108328571Y-26248809D01*
X108423809Y-26201190D01*
X108614285Y-26153571D01*
X108709523Y-26105952D01*
X108757142Y-26058333D01*
X108804761Y-25963095D01*
X108804761Y-25867857D01*
X108757142Y-25772619D01*
X108709523Y-25725000D01*
X108614285Y-25677380D01*
X108376190Y-25677380D01*
X108233333Y-25725000D01*
%TO.C,C7*%
X52996666Y-89482142D02*
X53044285Y-89529761D01*
X53187142Y-89577380D01*
X53282380Y-89577380D01*
X53425238Y-89529761D01*
X53520476Y-89434523D01*
X53568095Y-89339285D01*
X53615714Y-89148809D01*
X53615714Y-89005952D01*
X53568095Y-88815476D01*
X53520476Y-88720238D01*
X53425238Y-88625000D01*
X53282380Y-88577380D01*
X53187142Y-88577380D01*
X53044285Y-88625000D01*
X52996666Y-88672619D01*
X52663333Y-88577380D02*
X51996666Y-88577380D01*
X52425238Y-89577380D01*
%TO.C,R2*%
X41791666Y-31877380D02*
X42125000Y-31401190D01*
X42363095Y-31877380D02*
X42363095Y-30877380D01*
X41982142Y-30877380D01*
X41886904Y-30925000D01*
X41839285Y-30972619D01*
X41791666Y-31067857D01*
X41791666Y-31210714D01*
X41839285Y-31305952D01*
X41886904Y-31353571D01*
X41982142Y-31401190D01*
X42363095Y-31401190D01*
X41410714Y-30972619D02*
X41363095Y-30925000D01*
X41267857Y-30877380D01*
X41029761Y-30877380D01*
X40934523Y-30925000D01*
X40886904Y-30972619D01*
X40839285Y-31067857D01*
X40839285Y-31163095D01*
X40886904Y-31305952D01*
X41458333Y-31877380D01*
X40839285Y-31877380D01*
%TO.C,RESET1*%
X50328571Y-28377380D02*
X50661904Y-27901190D01*
X50900000Y-28377380D02*
X50900000Y-27377380D01*
X50519047Y-27377380D01*
X50423809Y-27425000D01*
X50376190Y-27472619D01*
X50328571Y-27567857D01*
X50328571Y-27710714D01*
X50376190Y-27805952D01*
X50423809Y-27853571D01*
X50519047Y-27901190D01*
X50900000Y-27901190D01*
X49900000Y-27853571D02*
X49566666Y-27853571D01*
X49423809Y-28377380D02*
X49900000Y-28377380D01*
X49900000Y-27377380D01*
X49423809Y-27377380D01*
X49042857Y-28329761D02*
X48900000Y-28377380D01*
X48661904Y-28377380D01*
X48566666Y-28329761D01*
X48519047Y-28282142D01*
X48471428Y-28186904D01*
X48471428Y-28091666D01*
X48519047Y-27996428D01*
X48566666Y-27948809D01*
X48661904Y-27901190D01*
X48852380Y-27853571D01*
X48947619Y-27805952D01*
X48995238Y-27758333D01*
X49042857Y-27663095D01*
X49042857Y-27567857D01*
X48995238Y-27472619D01*
X48947619Y-27425000D01*
X48852380Y-27377380D01*
X48614285Y-27377380D01*
X48471428Y-27425000D01*
X48042857Y-27853571D02*
X47709523Y-27853571D01*
X47566666Y-28377380D02*
X48042857Y-28377380D01*
X48042857Y-27377380D01*
X47566666Y-27377380D01*
X47280952Y-27377380D02*
X46709523Y-27377380D01*
X46995238Y-28377380D02*
X46995238Y-27377380D01*
X45852380Y-28377380D02*
X46423809Y-28377380D01*
X46138095Y-28377380D02*
X46138095Y-27377380D01*
X46233333Y-27520238D01*
X46328571Y-27615476D01*
X46423809Y-27663095D01*
%TO.C,Y1*%
X52976190Y-93481190D02*
X52976190Y-93957380D01*
X53309523Y-92957380D02*
X52976190Y-93481190D01*
X52642857Y-92957380D01*
X51785714Y-93957380D02*
X52357142Y-93957380D01*
X52071428Y-93957380D02*
X52071428Y-92957380D01*
X52166666Y-93100238D01*
X52261904Y-93195476D01*
X52357142Y-93243095D01*
%TO.C,C4*%
X48846666Y-98422142D02*
X48894285Y-98469761D01*
X49037142Y-98517380D01*
X49132380Y-98517380D01*
X49275238Y-98469761D01*
X49370476Y-98374523D01*
X49418095Y-98279285D01*
X49465714Y-98088809D01*
X49465714Y-97945952D01*
X49418095Y-97755476D01*
X49370476Y-97660238D01*
X49275238Y-97565000D01*
X49132380Y-97517380D01*
X49037142Y-97517380D01*
X48894285Y-97565000D01*
X48846666Y-97612619D01*
X47989523Y-97850714D02*
X47989523Y-98517380D01*
X48227619Y-97469761D02*
X48465714Y-98184047D01*
X47846666Y-98184047D01*
%TO.C,C2*%
X31666666Y-85032142D02*
X31714285Y-85079761D01*
X31857142Y-85127380D01*
X31952380Y-85127380D01*
X32095238Y-85079761D01*
X32190476Y-84984523D01*
X32238095Y-84889285D01*
X32285714Y-84698809D01*
X32285714Y-84555952D01*
X32238095Y-84365476D01*
X32190476Y-84270238D01*
X32095238Y-84175000D01*
X31952380Y-84127380D01*
X31857142Y-84127380D01*
X31714285Y-84175000D01*
X31666666Y-84222619D01*
X31285714Y-84222619D02*
X31238095Y-84175000D01*
X31142857Y-84127380D01*
X30904761Y-84127380D01*
X30809523Y-84175000D01*
X30761904Y-84222619D01*
X30714285Y-84317857D01*
X30714285Y-84413095D01*
X30761904Y-84555952D01*
X31333333Y-85127380D01*
X30714285Y-85127380D01*
%TO.C,R6*%
X54291666Y-33752380D02*
X54625000Y-33276190D01*
X54863095Y-33752380D02*
X54863095Y-32752380D01*
X54482142Y-32752380D01*
X54386904Y-32800000D01*
X54339285Y-32847619D01*
X54291666Y-32942857D01*
X54291666Y-33085714D01*
X54339285Y-33180952D01*
X54386904Y-33228571D01*
X54482142Y-33276190D01*
X54863095Y-33276190D01*
X53434523Y-32752380D02*
X53625000Y-32752380D01*
X53720238Y-32800000D01*
X53767857Y-32847619D01*
X53863095Y-32990476D01*
X53910714Y-33180952D01*
X53910714Y-33561904D01*
X53863095Y-33657142D01*
X53815476Y-33704761D01*
X53720238Y-33752380D01*
X53529761Y-33752380D01*
X53434523Y-33704761D01*
X53386904Y-33657142D01*
X53339285Y-33561904D01*
X53339285Y-33323809D01*
X53386904Y-33228571D01*
X53434523Y-33180952D01*
X53529761Y-33133333D01*
X53720238Y-33133333D01*
X53815476Y-33180952D01*
X53863095Y-33228571D01*
X53910714Y-33323809D01*
%TO.C,C6*%
X53046666Y-98962142D02*
X53094285Y-99009761D01*
X53237142Y-99057380D01*
X53332380Y-99057380D01*
X53475238Y-99009761D01*
X53570476Y-98914523D01*
X53618095Y-98819285D01*
X53665714Y-98628809D01*
X53665714Y-98485952D01*
X53618095Y-98295476D01*
X53570476Y-98200238D01*
X53475238Y-98105000D01*
X53332380Y-98057380D01*
X53237142Y-98057380D01*
X53094285Y-98105000D01*
X53046666Y-98152619D01*
X52189523Y-98057380D02*
X52380000Y-98057380D01*
X52475238Y-98105000D01*
X52522857Y-98152619D01*
X52618095Y-98295476D01*
X52665714Y-98485952D01*
X52665714Y-98866904D01*
X52618095Y-98962142D01*
X52570476Y-99009761D01*
X52475238Y-99057380D01*
X52284761Y-99057380D01*
X52189523Y-99009761D01*
X52141904Y-98962142D01*
X52094285Y-98866904D01*
X52094285Y-98628809D01*
X52141904Y-98533571D01*
X52189523Y-98485952D01*
X52284761Y-98438333D01*
X52475238Y-98438333D01*
X52570476Y-98485952D01*
X52618095Y-98533571D01*
X52665714Y-98628809D01*
%TO.C,R4*%
X36761666Y-48762380D02*
X37095000Y-48286190D01*
X37333095Y-48762380D02*
X37333095Y-47762380D01*
X36952142Y-47762380D01*
X36856904Y-47810000D01*
X36809285Y-47857619D01*
X36761666Y-47952857D01*
X36761666Y-48095714D01*
X36809285Y-48190952D01*
X36856904Y-48238571D01*
X36952142Y-48286190D01*
X37333095Y-48286190D01*
X35904523Y-48095714D02*
X35904523Y-48762380D01*
X36142619Y-47714761D02*
X36380714Y-48429047D01*
X35761666Y-48429047D01*
%TO.C,R3*%
X34261666Y-48642380D02*
X34595000Y-48166190D01*
X34833095Y-48642380D02*
X34833095Y-47642380D01*
X34452142Y-47642380D01*
X34356904Y-47690000D01*
X34309285Y-47737619D01*
X34261666Y-47832857D01*
X34261666Y-47975714D01*
X34309285Y-48070952D01*
X34356904Y-48118571D01*
X34452142Y-48166190D01*
X34833095Y-48166190D01*
X33928333Y-47642380D02*
X33309285Y-47642380D01*
X33642619Y-48023333D01*
X33499761Y-48023333D01*
X33404523Y-48070952D01*
X33356904Y-48118571D01*
X33309285Y-48213809D01*
X33309285Y-48451904D01*
X33356904Y-48547142D01*
X33404523Y-48594761D01*
X33499761Y-48642380D01*
X33785476Y-48642380D01*
X33880714Y-48594761D01*
X33928333Y-48547142D01*
%TO.C,C3*%
X40466666Y-81562142D02*
X40514285Y-81609761D01*
X40657142Y-81657380D01*
X40752380Y-81657380D01*
X40895238Y-81609761D01*
X40990476Y-81514523D01*
X41038095Y-81419285D01*
X41085714Y-81228809D01*
X41085714Y-81085952D01*
X41038095Y-80895476D01*
X40990476Y-80800238D01*
X40895238Y-80705000D01*
X40752380Y-80657380D01*
X40657142Y-80657380D01*
X40514285Y-80705000D01*
X40466666Y-80752619D01*
X40133333Y-80657380D02*
X39514285Y-80657380D01*
X39847619Y-81038333D01*
X39704761Y-81038333D01*
X39609523Y-81085952D01*
X39561904Y-81133571D01*
X39514285Y-81228809D01*
X39514285Y-81466904D01*
X39561904Y-81562142D01*
X39609523Y-81609761D01*
X39704761Y-81657380D01*
X39990476Y-81657380D01*
X40085714Y-81609761D01*
X40133333Y-81562142D01*
%TO.C,C1*%
X55126666Y-79622142D02*
X55174285Y-79669761D01*
X55317142Y-79717380D01*
X55412380Y-79717380D01*
X55555238Y-79669761D01*
X55650476Y-79574523D01*
X55698095Y-79479285D01*
X55745714Y-79288809D01*
X55745714Y-79145952D01*
X55698095Y-78955476D01*
X55650476Y-78860238D01*
X55555238Y-78765000D01*
X55412380Y-78717380D01*
X55317142Y-78717380D01*
X55174285Y-78765000D01*
X55126666Y-78812619D01*
X54174285Y-79717380D02*
X54745714Y-79717380D01*
X54460000Y-79717380D02*
X54460000Y-78717380D01*
X54555238Y-78860238D01*
X54650476Y-78955476D01*
X54745714Y-79003095D01*
D14*
%TO.C,J1*%
X44475000Y-24525000D02*
X44475000Y-22525000D01*
X35075000Y-24525000D02*
X35075000Y-22525000D01*
%TO.C,U1*%
X37505000Y-86105000D02*
X37505000Y-84815000D01*
X36930000Y-86680000D02*
X36930000Y-86105000D01*
X47150000Y-86105000D02*
X46575000Y-86105000D01*
X47150000Y-96325000D02*
X46575000Y-96325000D01*
X47150000Y-95750000D02*
X47150000Y-96325000D01*
X36930000Y-96325000D02*
X37505000Y-96325000D01*
X36930000Y-86105000D02*
X37505000Y-86105000D01*
X36930000Y-95750000D02*
X36930000Y-96325000D01*
X47150000Y-86680000D02*
X47150000Y-86105000D01*
%TO.C,F1*%
X21335000Y-34447936D02*
X21335000Y-35652064D01*
X19515000Y-34447936D02*
X19515000Y-35652064D01*
%TO.C,R5*%
X32197064Y-99320000D02*
X31742936Y-99320000D01*
X32197064Y-97850000D02*
X31742936Y-97850000D01*
%TO.C,R1*%
X44172936Y-33315000D02*
X44627064Y-33315000D01*
X44172936Y-34785000D02*
X44627064Y-34785000D01*
%TO.C,C5*%
X26968748Y-91520000D02*
X27491252Y-91520000D01*
X26968748Y-90050000D02*
X27491252Y-90050000D01*
D13*
%TO.C,J2*%
X106250000Y-31675000D02*
X112050000Y-31675000D01*
X106250000Y-19925000D02*
X106250000Y-31675000D01*
X112050000Y-31675000D02*
X112050000Y-19925000D01*
X112050000Y-19925000D02*
X106250000Y-19925000D01*
D14*
%TO.C,C7*%
X56001252Y-89630000D02*
X55478748Y-89630000D01*
X56001252Y-88160000D02*
X55478748Y-88160000D01*
%TO.C,R2*%
X44172936Y-30565000D02*
X44627064Y-30565000D01*
X44172936Y-32035000D02*
X44627064Y-32035000D01*
D13*
%TO.C,RESET1*%
X49200000Y-25675000D02*
X48100000Y-25675000D01*
X48100000Y-30275000D02*
X49200000Y-30275000D01*
X50250000Y-30275000D02*
X50250000Y-25675000D01*
X47050000Y-25675000D02*
X47050000Y-30275000D01*
D14*
%TO.C,Y1*%
X58010000Y-96265000D02*
X53610000Y-96265000D01*
X53610000Y-96265000D02*
X53610000Y-90865000D01*
%TO.C,C4*%
X48438748Y-99030000D02*
X48961252Y-99030000D01*
X48438748Y-100500000D02*
X48961252Y-100500000D01*
%TO.C,C2*%
X32905000Y-84253748D02*
X32905000Y-84776252D01*
X34375000Y-84253748D02*
X34375000Y-84776252D01*
%TO.C,R6*%
X51477064Y-33960000D02*
X51022936Y-33960000D01*
X51477064Y-32490000D02*
X51022936Y-32490000D01*
%TO.C,C6*%
X56011252Y-97840000D02*
X55488748Y-97840000D01*
X56011252Y-99310000D02*
X55488748Y-99310000D01*
%TO.C,R4*%
X37360000Y-50572936D02*
X37360000Y-51027064D01*
X35890000Y-50572936D02*
X35890000Y-51027064D01*
%TO.C,R3*%
X34760000Y-50522936D02*
X34760000Y-50977064D01*
X33290000Y-50522936D02*
X33290000Y-50977064D01*
%TO.C,C3*%
X43351252Y-80410000D02*
X42828748Y-80410000D01*
X43351252Y-81880000D02*
X42828748Y-81880000D01*
%TO.C,C1*%
X54638748Y-81770000D02*
X55161252Y-81770000D01*
X54638748Y-80300000D02*
X55161252Y-80300000D01*
%TD*%
D15*
X52625000Y-82025000D03*
X42750000Y-83025000D03*
X51975000Y-88400000D03*
X53087299Y-89512299D03*
X40650000Y-80850000D03*
X110000000Y-24150000D03*
X38325000Y-78750000D03*
X28725000Y-86175000D03*
X28785000Y-95215000D03*
X53250000Y-34800000D03*
X45775000Y-100450000D03*
X51791502Y-37300000D03*
X19450000Y-38475000D03*
X22425000Y-90000000D03*
X37500000Y-28875000D03*
X41875000Y-32400000D03*
X38250000Y-31125000D03*
X38825000Y-37075000D03*
X36099799Y-43924799D03*
X34975000Y-44025000D03*
X37950000Y-36550000D03*
X50125000Y-91950000D03*
X39450000Y-82425000D03*
X35908820Y-55248063D03*
X40400000Y-81925000D03*
X36950000Y-55300000D03*
X49550000Y-87300000D03*
X48400000Y-33200000D03*
X20700000Y-40900000D03*
X23507920Y-89881544D03*
X32145549Y-92397131D03*
X50750000Y-47100000D03*
X33087299Y-92062299D03*
X68412500Y-46787500D03*
X34325000Y-91975000D03*
X84925000Y-47075000D03*
X35500000Y-98250000D03*
X102450000Y-47525000D03*
X21075000Y-57975000D03*
X23934953Y-88800500D03*
X50725000Y-65000000D03*
X46874549Y-80899500D03*
X47751913Y-81378288D03*
X68675000Y-60450000D03*
X47950000Y-82525000D03*
X85775000Y-61175000D03*
X85775000Y-61175000D03*
X102525000Y-61350000D03*
X48950000Y-82625000D03*
X24156888Y-87825949D03*
X21625000Y-74075000D03*
X50050000Y-74475000D03*
X45675000Y-80899500D03*
X67875000Y-79050000D03*
X50165409Y-92948686D03*
X85450000Y-79800000D03*
X51600000Y-93850000D03*
X51375000Y-95050000D03*
X102325000Y-79875000D03*
X41812500Y-98387500D03*
X75200000Y-97100000D03*
X91800000Y-97250000D03*
X40440000Y-98390000D03*
X108600000Y-97775000D03*
X39150000Y-98500000D03*
X100155000Y-74300000D03*
X95075000Y-74300000D03*
X91265000Y-71760000D03*
X89995000Y-74300000D03*
X97615000Y-69220000D03*
X38995000Y-59850000D03*
X49155000Y-59850000D03*
X46615000Y-54770000D03*
X44075000Y-59850000D03*
X40265000Y-57310000D03*
X55995000Y-40300000D03*
X57265000Y-37760000D03*
X61075000Y-40300000D03*
X63615000Y-35220000D03*
X66155000Y-40300000D03*
X29640000Y-59020000D03*
X22020000Y-64100000D03*
X27100000Y-64100000D03*
X32180000Y-64100000D03*
X23290000Y-61560000D03*
X87415000Y-87070000D03*
X79795000Y-92150000D03*
X84875000Y-92150000D03*
X81065000Y-89610000D03*
X89955000Y-92150000D03*
X80625000Y-69235000D03*
X74275000Y-71775000D03*
X78085000Y-74315000D03*
X83165000Y-74315000D03*
X73005000Y-74315000D03*
X74265000Y-54760000D03*
X78075000Y-57300000D03*
X80615000Y-52220000D03*
X83155000Y-57300000D03*
X72995000Y-57300000D03*
X57265000Y-54760000D03*
X55995000Y-57300000D03*
X61075000Y-57300000D03*
X63615000Y-52220000D03*
X66155000Y-57300000D03*
X100130000Y-57300000D03*
X95050000Y-57300000D03*
X89970000Y-57300000D03*
X91240000Y-54760000D03*
X97590000Y-52220000D03*
X27085000Y-81080000D03*
X23275000Y-78540000D03*
X32165000Y-81080000D03*
X29625000Y-76000000D03*
X22005000Y-81080000D03*
X22020000Y-47075000D03*
X32180000Y-47075000D03*
X23290000Y-44535000D03*
X29640000Y-41995000D03*
X27100000Y-47075000D03*
X40240000Y-74285000D03*
X49130000Y-76825000D03*
X46590000Y-71745000D03*
X38970000Y-76825000D03*
X44050000Y-76825000D03*
X100155000Y-40300000D03*
X89995000Y-40300000D03*
X97615000Y-35220000D03*
X91265000Y-37760000D03*
X95075000Y-40300000D03*
X38995000Y-42850000D03*
X44075000Y-42850000D03*
X46615000Y-37770000D03*
X40265000Y-40310000D03*
X49155000Y-42850000D03*
X66155000Y-74275000D03*
X55995000Y-74275000D03*
X57265000Y-71735000D03*
X63615000Y-69195000D03*
X61075000Y-74275000D03*
X62795000Y-92150000D03*
X70415000Y-87070000D03*
X72955000Y-92150000D03*
X64065000Y-89610000D03*
X67875000Y-92150000D03*
X78075000Y-40300000D03*
X83155000Y-40300000D03*
X72995000Y-40300000D03*
X74265000Y-37760000D03*
X80615000Y-35220000D03*
X96795000Y-92150000D03*
X104415000Y-87070000D03*
X98065000Y-89610000D03*
X106955000Y-92150000D03*
X101875000Y-92150000D03*
X36885000Y-25225000D03*
X42665000Y-25225000D03*
D16*
X44095000Y-21545000D03*
D17*
X35455000Y-25725000D03*
X44095000Y-25725000D03*
D16*
X35455000Y-21545000D03*
D15*
X109150000Y-28275000D03*
X109150000Y-21275000D03*
D18*
X111250000Y-31575000D03*
X107050000Y-23075000D03*
X107050000Y-26075000D03*
X107050000Y-30075000D03*
%LPC*%
D19*
%TO.C,SW15*%
X100155000Y-74300000D03*
D20*
X95075000Y-74300000D03*
D21*
X91265000Y-71760000D03*
D19*
X89995000Y-74300000D03*
D21*
X97615000Y-69220000D03*
D22*
X87990000Y-71760000D03*
X100917000Y-69220000D03*
%TD*%
D19*
%TO.C,SW7*%
X38995000Y-59850000D03*
X49155000Y-59850000D03*
D21*
X46615000Y-54770000D03*
D20*
X44075000Y-59850000D03*
D21*
X40265000Y-57310000D03*
D22*
X36990000Y-57310000D03*
X49917000Y-54770000D03*
%TD*%
D19*
%TO.C,SW3*%
X55995000Y-40300000D03*
D21*
X57265000Y-37760000D03*
D20*
X61075000Y-40300000D03*
D21*
X63615000Y-35220000D03*
D19*
X66155000Y-40300000D03*
D22*
X53990000Y-37760000D03*
X66917000Y-35220000D03*
%TD*%
D21*
%TO.C,SW6*%
X29640000Y-59020000D03*
D19*
X22020000Y-64100000D03*
D20*
X27100000Y-64100000D03*
D19*
X32180000Y-64100000D03*
D21*
X23290000Y-61560000D03*
D22*
X20015000Y-61560000D03*
X32942000Y-59020000D03*
%TD*%
D21*
%TO.C,SW17*%
X87415000Y-87070000D03*
D19*
X79795000Y-92150000D03*
D20*
X84875000Y-92150000D03*
D21*
X81065000Y-89610000D03*
D19*
X89955000Y-92150000D03*
D22*
X77790000Y-89610000D03*
X90717000Y-87070000D03*
%TD*%
D21*
%TO.C,SW14*%
X80625000Y-69235000D03*
X74275000Y-71775000D03*
D20*
X78085000Y-74315000D03*
D19*
X83165000Y-74315000D03*
X73005000Y-74315000D03*
D22*
X71000000Y-71775000D03*
X83927000Y-69235000D03*
%TD*%
D21*
%TO.C,SW9*%
X74265000Y-54760000D03*
D20*
X78075000Y-57300000D03*
D21*
X80615000Y-52220000D03*
D19*
X83155000Y-57300000D03*
X72995000Y-57300000D03*
D22*
X70990000Y-54760000D03*
X83917000Y-52220000D03*
%TD*%
D21*
%TO.C,SW8*%
X57265000Y-54760000D03*
D19*
X55995000Y-57300000D03*
D20*
X61075000Y-57300000D03*
D21*
X63615000Y-52220000D03*
D19*
X66155000Y-57300000D03*
D22*
X53990000Y-54760000D03*
X66917000Y-52220000D03*
%TD*%
D19*
%TO.C,SW10*%
X100130000Y-57300000D03*
D20*
X95050000Y-57300000D03*
D19*
X89970000Y-57300000D03*
D21*
X91240000Y-54760000D03*
X97590000Y-52220000D03*
D22*
X87965000Y-54760000D03*
X100892000Y-52220000D03*
%TD*%
D20*
%TO.C,SW11*%
X27085000Y-81080000D03*
D21*
X23275000Y-78540000D03*
D19*
X32165000Y-81080000D03*
D21*
X29625000Y-76000000D03*
D19*
X22005000Y-81080000D03*
D22*
X20000000Y-78540000D03*
X32927000Y-76000000D03*
%TD*%
D19*
%TO.C,SW1*%
X22020000Y-47075000D03*
X32180000Y-47075000D03*
D21*
X23290000Y-44535000D03*
X29640000Y-41995000D03*
D20*
X27100000Y-47075000D03*
D22*
X20015000Y-44535000D03*
X32942000Y-41995000D03*
%TD*%
D21*
%TO.C,SW12*%
X40240000Y-74285000D03*
D19*
X49130000Y-76825000D03*
D21*
X46590000Y-71745000D03*
D19*
X38970000Y-76825000D03*
D20*
X44050000Y-76825000D03*
D22*
X36965000Y-74285000D03*
X49892000Y-71745000D03*
%TD*%
D19*
%TO.C,SW5*%
X100155000Y-40300000D03*
X89995000Y-40300000D03*
D21*
X97615000Y-35220000D03*
X91265000Y-37760000D03*
D20*
X95075000Y-40300000D03*
D22*
X87990000Y-37760000D03*
X100917000Y-35220000D03*
%TD*%
D19*
%TO.C,SW2*%
X38995000Y-42850000D03*
D20*
X44075000Y-42850000D03*
D21*
X46615000Y-37770000D03*
X40265000Y-40310000D03*
D19*
X49155000Y-42850000D03*
D22*
X36990000Y-40310000D03*
X49917000Y-37770000D03*
%TD*%
D19*
%TO.C,SW13*%
X66155000Y-74275000D03*
X55995000Y-74275000D03*
D21*
X57265000Y-71735000D03*
X63615000Y-69195000D03*
D20*
X61075000Y-74275000D03*
D22*
X53990000Y-71735000D03*
X66917000Y-69195000D03*
%TD*%
D19*
%TO.C,SW16*%
X62795000Y-92150000D03*
D21*
X70415000Y-87070000D03*
D19*
X72955000Y-92150000D03*
D21*
X64065000Y-89610000D03*
D20*
X67875000Y-92150000D03*
D22*
X60790000Y-89610000D03*
X73717000Y-87070000D03*
%TD*%
D20*
%TO.C,SW4*%
X78075000Y-40300000D03*
D19*
X83155000Y-40300000D03*
X72995000Y-40300000D03*
D21*
X74265000Y-37760000D03*
X80615000Y-35220000D03*
D22*
X70990000Y-37760000D03*
X83917000Y-35220000D03*
%TD*%
D19*
%TO.C,SW18*%
X96795000Y-92150000D03*
D21*
X104415000Y-87070000D03*
X98065000Y-89610000D03*
D19*
X106955000Y-92150000D03*
D20*
X101875000Y-92150000D03*
D22*
X94790000Y-89610000D03*
X107717000Y-87070000D03*
%TD*%
D23*
%TO.C,J1*%
X36885000Y-25225000D03*
X42665000Y-25225000D03*
D24*
X36575000Y-26425000D03*
X37375000Y-26425000D03*
D25*
X38525000Y-26425000D03*
X39525000Y-26425000D03*
X40025000Y-26425000D03*
X41025000Y-26425000D03*
D24*
X42175000Y-26425000D03*
X42975000Y-26425000D03*
X42975000Y-26425000D03*
X42175000Y-26425000D03*
D25*
X41525000Y-26425000D03*
X40525000Y-26425000D03*
X39025000Y-26425000D03*
X38025000Y-26425000D03*
D24*
X37375000Y-26425000D03*
X36575000Y-26425000D03*
D26*
X44095000Y-21545000D03*
D27*
X35455000Y-25725000D03*
X44095000Y-25725000D03*
D26*
X35455000Y-21545000D03*
%TD*%
D28*
%TO.C,U1*%
X38040000Y-85552500D03*
X38840000Y-85552500D03*
X39640000Y-85552500D03*
X40440000Y-85552500D03*
X41240000Y-85552500D03*
X42040000Y-85552500D03*
X42840000Y-85552500D03*
X43640000Y-85552500D03*
X44440000Y-85552500D03*
X45240000Y-85552500D03*
X46040000Y-85552500D03*
D29*
X47702500Y-87215000D03*
X47702500Y-88015000D03*
X47702500Y-88815000D03*
X47702500Y-89615000D03*
X47702500Y-90415000D03*
X47702500Y-91215000D03*
X47702500Y-92015000D03*
X47702500Y-92815000D03*
X47702500Y-93615000D03*
X47702500Y-94415000D03*
X47702500Y-95215000D03*
D28*
X46040000Y-96877500D03*
X45240000Y-96877500D03*
X44440000Y-96877500D03*
X43640000Y-96877500D03*
X42840000Y-96877500D03*
X42040000Y-96877500D03*
X41240000Y-96877500D03*
X40440000Y-96877500D03*
X39640000Y-96877500D03*
X38840000Y-96877500D03*
X38040000Y-96877500D03*
D29*
X36377500Y-95215000D03*
X36377500Y-94415000D03*
X36377500Y-93615000D03*
X36377500Y-92815000D03*
X36377500Y-92015000D03*
X36377500Y-91215000D03*
X36377500Y-90415000D03*
X36377500Y-89615000D03*
X36377500Y-88815000D03*
X36377500Y-88015000D03*
X36377500Y-87215000D03*
%TD*%
D30*
%TO.C,F1*%
X20425000Y-33650000D03*
X20425000Y-36450000D03*
%TD*%
D31*
%TO.C,R5*%
X32882500Y-98585000D03*
X31057500Y-98585000D03*
%TD*%
D32*
%TO.C,R1*%
X43487500Y-34050000D03*
X45312500Y-34050000D03*
%TD*%
D33*
%TO.C,C5*%
X26280000Y-90785000D03*
X28180000Y-90785000D03*
%TD*%
D34*
%TO.C,J2*%
X109150000Y-28275000D03*
X109150000Y-21275000D03*
%TD*%
D35*
%TO.C,C7*%
X56690000Y-88895000D03*
X54790000Y-88895000D03*
%TD*%
D32*
%TO.C,R2*%
X43487500Y-31300000D03*
X45312500Y-31300000D03*
%TD*%
D36*
%TO.C,RESET1*%
X49730000Y-30055000D03*
X49730000Y-25895000D03*
X47570000Y-30055000D03*
X47570000Y-25895000D03*
%TD*%
D37*
%TO.C,Y1*%
X54710000Y-95015000D03*
X54710000Y-92115000D03*
X56910000Y-92115000D03*
X56910000Y-95015000D03*
%TD*%
D33*
%TO.C,C4*%
X47750000Y-99765000D03*
X49650000Y-99765000D03*
%TD*%
D38*
%TO.C,C2*%
X33640000Y-83565000D03*
X33640000Y-85465000D03*
%TD*%
D31*
%TO.C,R6*%
X52162500Y-33225000D03*
X50337500Y-33225000D03*
%TD*%
D35*
%TO.C,C6*%
X56700000Y-98575000D03*
X54800000Y-98575000D03*
%TD*%
D39*
%TO.C,R4*%
X36625000Y-49887500D03*
X36625000Y-49887500D03*
X36625000Y-51712500D03*
%TD*%
%TO.C,R3*%
X34025000Y-49837500D03*
X34025000Y-51662500D03*
%TD*%
D35*
%TO.C,C3*%
X44040000Y-81145000D03*
X42140000Y-81145000D03*
%TD*%
D33*
%TO.C,C1*%
X53950000Y-81035000D03*
X55850000Y-81035000D03*
%TD*%
M02*
