<?xml version="1.0"?>
<!DOCTYPE svg PUBLIC "-//W3C//DTD SVG 1.1//EN" "http://www.w3.org/Graphics/SVG/1.1/DTD/svg11.dtd">
<svg width="101.37044954734208mm" height="80.02299031286954mm" viewBox="0 0 101.37044954734208 80.02299031286954" xmlns="http://www.w3.org/2000/svg" version="1.1">
<g id="Sketch001" transform="translate(108.028069,2.203766) scale(1,-1)">
<path id="Sketch001_w0000"  d="M -105.03424072265625 -3.7562103271484375 L -105.03424072265625 -17.756210327148438 L -91.03424072265625 -17.756210327148438 L -91.03424072265625 -3.7562103271484375 L -105.03424072265625 -3.7562103271484375 " stroke="#191919" stroke-width="0.35 px" style="stroke-width:0.35;stroke-miterlimit:4;stroke-dasharray:none;fill:none;fill-opacity:1;fill-rule: evenodd"/>
<path id="Sketch001_w0001"  d="M -39.03424072265625 -3.7562103271484375 L -39.03424072265625 -17.756210327148438 L -25.03424072265625 -17.756210327148438 L -25.03424072265625 -3.7562103271484375 L -39.03424072265625 -3.7562103271484375 " stroke="#191919" stroke-width="0.35 px" style="stroke-width:0.35;stroke-miterlimit:4;stroke-dasharray:none;fill:none;fill-opacity:1;fill-rule: evenodd"/>
<path id="Sketch001_w0002"  d="M -78.63424072265624 -55.73121032714843 L -64.63424072265624 -55.73121032714843 L -64.63424072265624 -69.73121032714843 L -78.63424072265624 -69.73121032714843 L -78.63424072265624 -55.73121032714843 " stroke="#191919" stroke-width="0.35 px" style="stroke-width:0.35;stroke-miterlimit:4;stroke-dasharray:none;fill:none;fill-opacity:1;fill-rule: evenodd"/>
<path id="Sketch001_w0003"  d="M -15.187967722656253 -74.46366922714844 L -28.772107922656247 -71.07676262714844 L -25.385201322656243 -57.49262242714843 L -11.80106112265625 -60.879529027148436 L -15.187967722656253 -74.46366922714844 " stroke="#191919" stroke-width="0.35 px" style="stroke-width:0.35;stroke-miterlimit:4;stroke-dasharray:none;fill:none;fill-opacity:1;fill-rule: evenodd"/>
<path id="Sketch001_w0004"  d="M -39.03424072265625 -20.256210327148438 L -25.03424072265625 -20.256210327148438 L -25.03424072265625 -34.25621032714844 L -39.03424072265625 -34.25621032714844 L -39.03424072265625 -20.256210327148438 " stroke="#191919" stroke-width="0.35 px" style="stroke-width:0.35;stroke-miterlimit:4;stroke-dasharray:none;fill:none;fill-opacity:1;fill-rule: evenodd"/>
<path id="Sketch001_w0005"  d="M -41.53424072265625 -34.25621032714844 L -55.53424072265625 -34.25621032714844 L -55.53424072265625 -20.256210327148438 L -41.53424072265625 -20.256210327148438 L -41.53424072265625 -34.25621032714844 " stroke="#191919" stroke-width="0.35 px" style="stroke-width:0.35;stroke-miterlimit:4;stroke-dasharray:none;fill:none;fill-opacity:1;fill-rule: evenodd"/>
<path id="Sketch001_w0006"  d="M -25.03424072265625 -50.75621032714844 L -39.03424072265625 -50.75621032714844 L -39.03424072265625 -36.75621032714844 L -25.03424072265625 -36.75621032714844 L -25.03424072265625 -50.75621032714844 " stroke="#191919" stroke-width="0.35 px" style="stroke-width:0.35;stroke-miterlimit:4;stroke-dasharray:none;fill:none;fill-opacity:1;fill-rule: evenodd"/>
<path id="Sketch001_w0007"  d="M -72.03424072265625 -20.256210327148438 L -72.03424072265625 -34.25621032714844 L -58.03424072265625 -34.25621032714844 L -58.03424072265625 -20.256210327148438 L -72.03424072265625 -20.256210327148438 " stroke="#191919" stroke-width="0.35 px" style="stroke-width:0.35;stroke-miterlimit:4;stroke-dasharray:none;fill:none;fill-opacity:1;fill-rule: evenodd"/>
<path id="Sketch001_w0008"  d="M -105.03424072265625 -20.256210327148438 L -105.03424072265625 -34.25621032714844 L -91.03424072265625 -34.25621032714844 L -91.03424072265625 -20.256210327148438 L -105.03424072265625 -20.256210327148438 " stroke="#191919" stroke-width="0.35 px" style="stroke-width:0.35;stroke-miterlimit:4;stroke-dasharray:none;fill:none;fill-opacity:1;fill-rule: evenodd"/>
<path id="Sketch001_w0009"  d="M -61.30924072265625 -55.73121032714843 L -47.309240722656256 -55.73121032714843 L -47.309240722656256 -69.73121032714843 L -61.30924072265625 -69.73121032714843 L -61.30924072265625 -55.73121032714843 " stroke="#191919" stroke-width="0.35 px" style="stroke-width:0.35;stroke-miterlimit:4;stroke-dasharray:none;fill:none;fill-opacity:1;fill-rule: evenodd"/>
<path id="Sketch001_w0010"  d="M -55.53424072265625 -36.75621032714844 L -41.53424072265625 -36.75621032714844 L -41.53424072265625 -50.75621032714844 L -55.53424072265625 -50.75621032714844 L -55.53424072265625 -36.75621032714844 " stroke="#191919" stroke-width="0.35 px" style="stroke-width:0.35;stroke-miterlimit:4;stroke-dasharray:none;fill:none;fill-opacity:1;fill-rule: evenodd"/>
<path id="Sketch001_w0011"  d="M -88.53424072265625 -3.7562103271484375 L -88.53424072265625 -17.756210327148438 L -74.53424072265625 -17.756210327148438 L -74.53424072265625 -3.7562103271484375 L -88.53424072265625 -3.7562103271484375 " stroke="#191919" stroke-width="0.35 px" style="stroke-width:0.35;stroke-miterlimit:4;stroke-dasharray:none;fill:none;fill-opacity:1;fill-rule: evenodd"/>
<path id="Sketch001_w0012"  d="M -91.03424072265625 -50.75621032714844 L -105.03424072265625 -50.75621032714844 L -105.03424072265625 -36.75621032714844 L -91.03424072265625 -36.75621032714844 L -91.03424072265625 -50.75621032714844 " stroke="#191919" stroke-width="0.35 px" style="stroke-width:0.35;stroke-miterlimit:4;stroke-dasharray:none;fill:none;fill-opacity:1;fill-rule: evenodd"/>
<path id="Sketch001_w0013"  d="M -72.03424072265625 -36.75621032714844 L -72.03424072265625 -50.75621032714844 L -58.03424072265625 -50.75621032714844 L -58.03424072265625 -36.75621032714844 L -72.03424072265625 -36.75621032714844 " stroke="#191919" stroke-width="0.35 px" style="stroke-width:0.35;stroke-miterlimit:4;stroke-dasharray:none;fill:none;fill-opacity:1;fill-rule: evenodd"/>
<path id="Sketch001_w0014"  d="M -88.53424072265625 -50.75621032714844 L -74.53424072265625 -50.75621032714844 L -74.53424072265625 -36.75621032714844 L -88.53424072265625 -36.75621032714844 L -88.53424072265625 -50.75621032714844 " stroke="#191919" stroke-width="0.35 px" style="stroke-width:0.35;stroke-miterlimit:4;stroke-dasharray:none;fill:none;fill-opacity:1;fill-rule: evenodd"/>
<path id="Sketch001_w0015"  d="M -43.699178022656255 -55.64253602714844 L -29.733281322656254 -56.61912672714844 L -30.709872022656256 -70.58502342714844 L -44.675768722656244 -69.60843272714844 L -43.699178022656255 -55.64253602714844 " stroke="#191919" stroke-width="0.35 px" style="stroke-width:0.35;stroke-miterlimit:4;stroke-dasharray:none;fill:none;fill-opacity:1;fill-rule: evenodd"/>
<path id="Sketch001_w0016"  d="M -74.53424072265625 -20.256210327148438 L -74.53424072265625 -34.25621032714844 L -88.53424072265625 -34.25621032714844 L -88.53424072265625 -20.256210327148438 L -74.53424072265625 -20.256210327148438 " stroke="#191919" stroke-width="0.35 px" style="stroke-width:0.35;stroke-miterlimit:4;stroke-dasharray:none;fill:none;fill-opacity:1;fill-rule: evenodd"/>
<path id="Sketch001_w0017"  d="M -41.53424072265625 -17.756210327148438 L -55.53424072265625 -17.756210327148438 L -55.53424072265625 -3.7562103271484375 L -41.53424072265625 -3.7562103271484375 L -41.53424072265625 -17.756210327148438 " stroke="#191919" stroke-width="0.35 px" style="stroke-width:0.35;stroke-miterlimit:4;stroke-dasharray:none;fill:none;fill-opacity:1;fill-rule: evenodd"/>
<path id="Sketch001_w0018"  d="M -72.03424072265625 -3.7562103271484375 L -58.03424072265625 -3.7562103271484375 L -58.03424072265625 -17.756210327148438 L -72.03424072265625 -17.756210327148438 L -72.03424072265625 -3.7562103271484375 " stroke="#191919" stroke-width="0.35 px" style="stroke-width:0.35;stroke-miterlimit:4;stroke-dasharray:none;fill:none;fill-opacity:1;fill-rule: evenodd"/>
<path id="Sketch001_w0019"  d="M -25.75818886833577 -55.33840354678592 L -9.344900195050851 -59.43069084376723 L -13.982727805592944 -76.8253965539803 L -107.03424072265625 -76.8253965539803 L -107.03424072265625 1.209937885411934 L -23.03424072265625 1.209937885411934 L -23.03424072265625 -56.729243923551955 M -9.344900195050851 -59.43069084376723 L -7.651447048791475 -52.6386213603872 L -8.347903947926044 -52.46497514991196 L -20.961748377832553 -49.31999046026456 L -23.9486058597377 -48.57528323774017 M -20.961748377832553 -49.31999046026456 L -22.53424072265625 -55.62691267521782 L -9.920396292749741 -58.77189736486521 L -8.347903947926044 -52.46497514991196 " stroke="#191919" stroke-width="0.35 px" style="stroke-width:0.35;stroke-miterlimit:4;stroke-dasharray:none;fill:none;fill-opacity:1;fill-rule: evenodd"/>
<title>b'Sketch001'</title>
</g>
</svg>