<?xml version="1.0"?>
<!DOCTYPE svg PUBLIC "-//W3C//DTD SVG 1.1//EN" "http://www.w3.org/Graphics/SVG/1.1/DTD/svg11.dtd">
<svg width="100.47000000000001mm" height="80.6774589mm" viewBox="0 0 100.47000000000001 80.6774589" xmlns="http://www.w3.org/2000/svg" version="1.1">
<g id="Sketch003" transform="translate(108.019241,3.228790) scale(1,-1)">
<path id="Sketch003_w0000"  d="M -105.03424072265625 -3.7562103271484375 L -105.03424072265625 -17.756210327148438 L -91.03424072265625 -17.756210327148438 L -91.03424072265625 -3.7562103271484375 L -105.03424072265625 -3.7562103271484375 " stroke="#191919" stroke-width="0.35 px" style="stroke-width:0.35;stroke-miterlimit:4;stroke-dasharray:none;fill:none;fill-opacity:1;fill-rule: evenodd"/>
<path id="Sketch003_w0001"  d="M -39.03424072265625 -3.7562103271484375 L -39.03424072265625 -17.756210327148438 L -25.03424072265625 -17.756210327148438 L -25.03424072265625 -3.7562103271484375 L -39.03424072265625 -3.7562103271484375 " stroke="#191919" stroke-width="0.35 px" style="stroke-width:0.35;stroke-miterlimit:4;stroke-dasharray:none;fill:none;fill-opacity:1;fill-rule: evenodd"/>
<path id="Sketch003_w0002"  d="M -15.187967722656253 -74.46366922714844 L -28.772107922656247 -71.07676262714844 L -25.385201322656243 -57.49262242714843 L -11.80106112265625 -60.879529027148436 L -15.187967722656253 -74.46366922714844 " stroke="#191919" stroke-width="0.35 px" style="stroke-width:0.35;stroke-miterlimit:4;stroke-dasharray:none;fill:none;fill-opacity:1;fill-rule: evenodd"/>
<path id="Sketch003_w0003"  d="M -39.03424072265625 -20.256210327148438 L -25.03424072265625 -20.256210327148438 L -25.03424072265625 -34.25621032714844 L -39.03424072265625 -34.25621032714844 L -39.03424072265625 -20.256210327148438 " stroke="#191919" stroke-width="0.35 px" style="stroke-width:0.35;stroke-miterlimit:4;stroke-dasharray:none;fill:none;fill-opacity:1;fill-rule: evenodd"/>
<path id="Sketch003_w0004"  d="M -41.53424072265625 -34.25621032714844 L -55.53424072265625 -34.25621032714844 L -55.53424072265625 -20.256210327148438 L -41.53424072265625 -20.256210327148438 L -41.53424072265625 -34.25621032714844 " stroke="#191919" stroke-width="0.35 px" style="stroke-width:0.35;stroke-miterlimit:4;stroke-dasharray:none;fill:none;fill-opacity:1;fill-rule: evenodd"/>
<path id="Sketch003_w0005"  d="M -25.03424072265625 -50.75621032714844 L -39.03424072265625 -50.75621032714844 L -39.03424072265625 -36.75621032714844 L -25.03424072265625 -36.75621032714844 L -25.03424072265625 -50.75621032714844 " stroke="#191919" stroke-width="0.35 px" style="stroke-width:0.35;stroke-miterlimit:4;stroke-dasharray:none;fill:none;fill-opacity:1;fill-rule: evenodd"/>
<path id="Sketch003_w0006"  d="M -72.03424072265625 -20.256210327148438 L -72.03424072265625 -34.25621032714844 L -58.03424072265625 -34.25621032714844 L -58.03424072265625 -20.256210327148438 L -72.03424072265625 -20.256210327148438 " stroke="#191919" stroke-width="0.35 px" style="stroke-width:0.35;stroke-miterlimit:4;stroke-dasharray:none;fill:none;fill-opacity:1;fill-rule: evenodd"/>
<path id="Sketch003_w0007"  d="M -105.03424072265625 -20.256210327148438 L -105.03424072265625 -34.25621032714844 L -91.03424072265625 -34.25621032714844 L -91.03424072265625 -20.256210327148438 L -105.03424072265625 -20.256210327148438 " stroke="#191919" stroke-width="0.35 px" style="stroke-width:0.35;stroke-miterlimit:4;stroke-dasharray:none;fill:none;fill-opacity:1;fill-rule: evenodd"/>
<path id="Sketch003_w0008"  d="M -61.30924072265625 -55.73121032714843 L -47.309240722656256 -55.73121032714843 L -47.309240722656256 -69.73121032714843 L -61.30924072265625 -69.73121032714843 L -61.30924072265625 -55.73121032714843 " stroke="#191919" stroke-width="0.35 px" style="stroke-width:0.35;stroke-miterlimit:4;stroke-dasharray:none;fill:none;fill-opacity:1;fill-rule: evenodd"/>
<path id="Sketch003_w0009"  d="M -55.53424072265625 -36.75621032714844 L -41.53424072265625 -36.75621032714844 L -41.53424072265625 -50.75621032714844 L -55.53424072265625 -50.75621032714844 L -55.53424072265625 -36.75621032714844 " stroke="#191919" stroke-width="0.35 px" style="stroke-width:0.35;stroke-miterlimit:4;stroke-dasharray:none;fill:none;fill-opacity:1;fill-rule: evenodd"/>
<path id="Sketch003_w0010"  d="M -88.53424072265625 -3.7562103271484375 L -88.53424072265625 -17.756210327148438 L -74.53424072265625 -17.756210327148438 L -74.53424072265625 -3.7562103271484375 L -88.53424072265625 -3.7562103271484375 " stroke="#191919" stroke-width="0.35 px" style="stroke-width:0.35;stroke-miterlimit:4;stroke-dasharray:none;fill:none;fill-opacity:1;fill-rule: evenodd"/>
<path id="Sketch003_w0011"  d="M -91.03424072265625 -50.75621032714844 L -105.03424072265625 -50.75621032714844 L -105.03424072265625 -36.75621032714844 L -91.03424072265625 -36.75621032714844 L -91.03424072265625 -50.75621032714844 " stroke="#191919" stroke-width="0.35 px" style="stroke-width:0.35;stroke-miterlimit:4;stroke-dasharray:none;fill:none;fill-opacity:1;fill-rule: evenodd"/>
<path id="Sketch003_w0012"  d="M -72.03424072265625 -50.75621032714844 L -58.03424072265625 -50.75621032714844 L -58.03424072265625 -36.75621032714844 L -72.03424072265625 -36.75621032714844 L -72.03424072265625 -50.75872034081934 " stroke="#191919" stroke-width="0.35 px" style="stroke-width:0.35;stroke-miterlimit:4;stroke-dasharray:none;fill:none;fill-opacity:1;fill-rule: evenodd"/>
<path id="Sketch003_w0013"  d="M -74.51375878914735 -50.83175033034492 L -88.53424072265625 -50.75621032714844 L -88.53424072265625 -36.75621032714844 L -74.53424072265625 -36.75621032714844 L -74.53424072265625 -50.75621032714844 " stroke="#191919" stroke-width="0.35 px" style="stroke-width:0.35;stroke-miterlimit:4;stroke-dasharray:none;fill:none;fill-opacity:1;fill-rule: evenodd"/>
<path id="Sketch003_w0014"  d="M -43.699178022656255 -55.64253602714844 L -29.733281322656254 -56.61912672714844 L -30.709872022656256 -70.58502342714844 L -44.675768722656244 -69.60843272714844 L -43.699178022656255 -55.64253602714844 " stroke="#191919" stroke-width="0.35 px" style="stroke-width:0.35;stroke-miterlimit:4;stroke-dasharray:none;fill:none;fill-opacity:1;fill-rule: evenodd"/>
<path id="Sketch003_w0015"  d="M -74.53424072265625 -20.256210327148438 L -74.53424072265625 -34.25621032714844 L -88.53424072265625 -34.25621032714844 L -88.53424072265625 -20.256210327148438 L -74.53424072265625 -20.256210327148438 " stroke="#191919" stroke-width="0.35 px" style="stroke-width:0.35;stroke-miterlimit:4;stroke-dasharray:none;fill:none;fill-opacity:1;fill-rule: evenodd"/>
<path id="Sketch003_w0016"  d="M -41.53424072265625 -17.756210327148438 L -55.53424072265625 -17.756210327148438 L -55.53424072265625 -3.7562103271484375 L -41.53424072265625 -3.7562103271484375 L -41.53424072265625 -17.756210327148438 " stroke="#191919" stroke-width="0.35 px" style="stroke-width:0.35;stroke-miterlimit:4;stroke-dasharray:none;fill:none;fill-opacity:1;fill-rule: evenodd"/>
<path id="Sketch003_w0017"  d="M -72.03424072265625 -3.7562103271484375 L -58.03424072265625 -3.7562103271484375 L -58.03424072265625 -17.756210327148438 L -72.03424072265625 -17.756210327148438 L -72.03424072265625 -3.7562103271484375 " stroke="#191919" stroke-width="0.35 px" style="stroke-width:0.35;stroke-miterlimit:4;stroke-dasharray:none;fill:none;fill-opacity:1;fill-rule: evenodd"/>
<path id="Sketch003_w0018"  d="M -23.03424072265625 -46.23626986345986 L -8.77867272265625 -46.23626986345986 A 0.244432 0.244432 0 0 0 -8.53424 -46.4807L -8.534240722656248 -55.11907972552058 A 7.53417 7.53417 0 0 0 -8.75804 -56.9418L -9.376625734652272 -59.42278081793667 L -13.248422253805078 -74.9517082297654 A 1.99447 1.99447 0 0 0 -15.1836 -76.4637L -104.24619572232633 -76.46366922714844 A 2.78805 2.78805 0 0 0 -107.034 -73.6756L -107.03424072265626 -0.4492323290927767 A 2.69302 2.69302 0 0 0 -104.341 2.24379L -26.66513769910702 2.2437896728515625 A 3.6309 3.6309 0 0 0 -23.0342 -1.38711L -23.034240722656246 -56.72704423876263 M -25.758194436746635 -55.33840193823078 L -9.376625734652272 -59.42278081793667 " stroke="#191919" stroke-width="0.35 px" style="stroke-width:0.35;stroke-miterlimit:4;stroke-dasharray:none;fill:none;fill-opacity:1;fill-rule: evenodd"/>
<path id="Sketch003_w0019"  d="M -9.03424072265625 -46.73626986345985 L -22.03424072265625 -46.73626986345985 L -22.03424072265625 -55.23626986345985 L -9.03424072265625 -55.23626986345985 L -9.03424072265625 -46.73626986345985 " stroke="#191919" stroke-width="0.35 px" style="stroke-width:0.35;stroke-miterlimit:4;stroke-dasharray:none;fill:none;fill-opacity:1;fill-rule: evenodd"/>
<circle cx="-98.03424072265625" cy="-0.7562103271484372" r="2.2" stroke="#191919" stroke-width="0.35 px" style="stroke-width:0.35;stroke-miterlimit:4;stroke-dasharray:none;fill:none"/>
<circle cx="-32.03424072265625" cy="-0.7562103271484371" r="2.2" stroke="#191919" stroke-width="0.35 px" style="stroke-width:0.35;stroke-miterlimit:4;stroke-dasharray:none;fill:none"/>
<circle cx="-73.13139793350891" cy="-55.6368599508217" r="2.2" stroke="#191919" stroke-width="0.35 px" style="stroke-width:0.35;stroke-miterlimit:4;stroke-dasharray:none;fill:none"/>
<path id="Sketch003_w0023"  d="M -105.03424072265625 -53.96366922714844 L -81.03424072265625 -53.96366922714844 L -81.03424072265625 -74.96366922714844 L -105.03424072265625 -74.96366922714844 L -105.03424072265625 -53.96366922714844 " stroke="#191919" stroke-width="0.35 px" style="stroke-width:0.35;stroke-miterlimit:4;stroke-dasharray:none;fill:none;fill-opacity:1;fill-rule: evenodd"/>
<circle cx="-26.845053" cy="-54.032104" r="2.2" stroke="#191919" stroke-width="0.35 px" style="stroke-width:0.35;stroke-miterlimit:4;stroke-dasharray:none;fill:none"/>
<path id="Sketch003_w0025"  d="M -107.03424072265625 -52.75621032714844 L -78.03424072265626 -52.75621032714844 L -78.03424072265626 -76.46366922714844 " stroke="#191919" stroke-width="0.35 px" style="stroke-width:0.35;stroke-miterlimit:4;stroke-dasharray:none;fill:none;fill-opacity:1;fill-rule: evenodd"/>
<circle cx="-25.03424072265625" cy="-50.75621032714844" r="1.0" stroke="#191919" stroke-width="0.35 px" style="stroke-width:0.35;stroke-miterlimit:4;stroke-dasharray:none;fill:none"/>
<circle cx="-29.733281322656254" cy="-56.61912672714844" r="1.0" stroke="#191919" stroke-width="0.35 px" style="stroke-width:0.35;stroke-miterlimit:4;stroke-dasharray:none;fill:none"/>
<circle cx="-25.385201322656243" cy="-57.49262242714843" r="1.0" stroke="#191919" stroke-width="0.35 px" style="stroke-width:0.35;stroke-miterlimit:4;stroke-dasharray:none;fill:none"/>
<title>b'Sketch003'</title>
</g>
</svg>