<?xml version="1.0"?>
<!DOCTYPE svg PUBLIC "-//W3C//DTD SVG 1.1//EN" "http://www.w3.org/Graphics/SVG/1.1/DTD/svg11.dtd">
<svg width="218.34985107421875mm" height="82.98882852890625mm" viewBox="0 0 218.34985107421875 82.98882852890625" xmlns="http://www.w3.org/2000/svg" version="1.1">
<g id="Sketch004" transform="translate(109.174926,4.384474) scale(1,-1)">
<path id="Sketch004_w0000"  d="M 105.03424072265625 -3.7562103271484375 L 105.03424072265625 -17.756210327148438 L 91.03424072265625 -17.756210327148438 L 91.03424072265625 -3.7562103271484375 L 105.03424072265625 -3.7562103271484375 " stroke="#000000" stroke-width="0.35 px" style="stroke-width:0.35;stroke-miterlimit:4;stroke-dasharray:none;fill:none;fill-opacity:1;fill-rule: evenodd"/>
<path id="Sketch004_w0001"  d="M 39.03424072265625 -3.7562103271484375 L 39.03424072265625 -17.756210327148438 L 25.03424072265625 -17.756210327148438 L 25.03424072265625 -3.7562103271484375 L 39.03424072265625 -3.7562103271484375 " stroke="#000000" stroke-width="0.35 px" style="stroke-width:0.35;stroke-miterlimit:4;stroke-dasharray:none;fill:none;fill-opacity:1;fill-rule: evenodd"/>
<path id="Sketch004_w0002"  d="M 15.187967722656253 -74.46366922714844 L 28.772107922656247 -71.07676262714844 L 25.385201322656243 -57.49262242714843 L 11.80106112265625 -60.879529027148436 L 15.187967722656253 -74.46366922714844 " stroke="#000000" stroke-width="0.35 px" style="stroke-width:0.35;stroke-miterlimit:4;stroke-dasharray:none;fill:none;fill-opacity:1;fill-rule: evenodd"/>
<path id="Sketch004_w0003"  d="M 39.03424072265625 -20.256210327148438 L 25.03424072265625 -20.256210327148438 L 25.03424072265625 -34.25621032714844 L 39.03424072265625 -34.25621032714844 L 39.03424072265625 -20.256210327148438 " stroke="#000000" stroke-width="0.35 px" style="stroke-width:0.35;stroke-miterlimit:4;stroke-dasharray:none;fill:none;fill-opacity:1;fill-rule: evenodd"/>
<path id="Sketch004_w0004"  d="M 41.53424072265625 -34.25621032714844 L 55.53424072265625 -34.25621032714844 L 55.53424072265625 -20.256210327148438 L 41.53424072265625 -20.256210327148438 L 41.53424072265625 -34.25621032714844 " stroke="#000000" stroke-width="0.35 px" style="stroke-width:0.35;stroke-miterlimit:4;stroke-dasharray:none;fill:none;fill-opacity:1;fill-rule: evenodd"/>
<path id="Sketch004_w0005"  d="M 25.03424072265625 -50.75621032714844 L 39.03424072265625 -50.75621032714844 L 39.03424072265625 -36.75621032714844 L 25.03424072265625 -36.75621032714844 L 25.03424072265625 -50.75621032714844 " stroke="#000000" stroke-width="0.35 px" style="stroke-width:0.35;stroke-miterlimit:4;stroke-dasharray:none;fill:none;fill-opacity:1;fill-rule: evenodd"/>
<path id="Sketch004_w0006"  d="M 72.03424072265625 -20.256210327148438 L 72.03424072265625 -34.25621032714844 L 58.03424072265625 -34.25621032714844 L 58.03424072265625 -20.256210327148438 L 72.03424072265625 -20.256210327148438 " stroke="#000000" stroke-width="0.35 px" style="stroke-width:0.35;stroke-miterlimit:4;stroke-dasharray:none;fill:none;fill-opacity:1;fill-rule: evenodd"/>
<path id="Sketch004_w0007"  d="M 105.03424072265625 -20.256210327148438 L 105.03424072265625 -34.25621032714844 L 91.03424072265625 -34.25621032714844 L 91.03424072265625 -20.256210327148438 L 105.03424072265625 -20.256210327148438 " stroke="#000000" stroke-width="0.35 px" style="stroke-width:0.35;stroke-miterlimit:4;stroke-dasharray:none;fill:none;fill-opacity:1;fill-rule: evenodd"/>
<path id="Sketch004_w0008"  d="M 61.30924072265625 -55.73121032714843 L 47.309240722656256 -55.73121032714843 L 47.309240722656256 -69.73121032714843 L 61.30924072265625 -69.73121032714843 L 61.30924072265625 -55.73121032714843 " stroke="#000000" stroke-width="0.35 px" style="stroke-width:0.35;stroke-miterlimit:4;stroke-dasharray:none;fill:none;fill-opacity:1;fill-rule: evenodd"/>
<path id="Sketch004_w0009"  d="M 55.53424072265625 -36.75621032714844 L 41.53424072265625 -36.75621032714844 L 41.53424072265625 -50.75621032714844 L 55.53424072265625 -50.75621032714844 L 55.53424072265625 -36.75621032714844 " stroke="#000000" stroke-width="0.35 px" style="stroke-width:0.35;stroke-miterlimit:4;stroke-dasharray:none;fill:none;fill-opacity:1;fill-rule: evenodd"/>
<path id="Sketch004_w0010"  d="M 88.53424072265625 -3.7562103271484375 L 88.53424072265625 -17.756210327148438 L 74.53424072265625 -17.756210327148438 L 74.53424072265625 -3.7562103271484375 L 88.53424072265625 -3.7562103271484375 " stroke="#000000" stroke-width="0.35 px" style="stroke-width:0.35;stroke-miterlimit:4;stroke-dasharray:none;fill:none;fill-opacity:1;fill-rule: evenodd"/>
<path id="Sketch004_w0011"  d="M 91.03424072265625 -50.75621032714844 L 105.03424072265625 -50.75621032714844 L 105.03424072265625 -36.75621032714844 L 91.03424072265625 -36.75621032714844 L 91.03424072265625 -50.75621032714844 " stroke="#000000" stroke-width="0.35 px" style="stroke-width:0.35;stroke-miterlimit:4;stroke-dasharray:none;fill:none;fill-opacity:1;fill-rule: evenodd"/>
<path id="Sketch004_w0012"  d="M 72.03424072265625 -50.75621032714844 L 58.03424072265625 -50.75621032714844 L 58.03424072265625 -36.75621032714844 L 72.03424072265625 -36.75621032714844 L 72.03424072265625 -50.75872034081934 " stroke="#000000" stroke-width="0.35 px" style="stroke-width:0.35;stroke-miterlimit:4;stroke-dasharray:none;fill:none;fill-opacity:1;fill-rule: evenodd"/>
<path id="Sketch004_w0013"  d="M 74.51375878914735 -50.83175033034492 L 88.53424072265625 -50.75621032714844 L 88.53424072265625 -36.75621032714844 L 74.53424072265625 -36.75621032714844 L 74.53424072265625 -50.75621032714844 " stroke="#000000" stroke-width="0.35 px" style="stroke-width:0.35;stroke-miterlimit:4;stroke-dasharray:none;fill:none;fill-opacity:1;fill-rule: evenodd"/>
<path id="Sketch004_w0014"  d="M 43.699178022656255 -55.64253602714844 L 29.733281322656254 -56.61912672714844 L 30.709872022656256 -70.58502342714844 L 44.675768722656244 -69.60843272714844 L 43.699178022656255 -55.64253602714844 " stroke="#000000" stroke-width="0.35 px" style="stroke-width:0.35;stroke-miterlimit:4;stroke-dasharray:none;fill:none;fill-opacity:1;fill-rule: evenodd"/>
<path id="Sketch004_w0015"  d="M 74.53424072265625 -20.256210327148438 L 74.53424072265625 -34.25621032714844 L 88.53424072265625 -34.25621032714844 L 88.53424072265625 -20.256210327148438 L 74.53424072265625 -20.256210327148438 " stroke="#000000" stroke-width="0.35 px" style="stroke-width:0.35;stroke-miterlimit:4;stroke-dasharray:none;fill:none;fill-opacity:1;fill-rule: evenodd"/>
<path id="Sketch004_w0016"  d="M 41.53424072265625 -17.756210327148438 L 55.53424072265625 -17.756210327148438 L 55.53424072265625 -3.7562103271484375 L 41.53424072265625 -3.7562103271484375 L 41.53424072265625 -17.756210327148438 " stroke="#000000" stroke-width="0.35 px" style="stroke-width:0.35;stroke-miterlimit:4;stroke-dasharray:none;fill:none;fill-opacity:1;fill-rule: evenodd"/>
<path id="Sketch004_w0017"  d="M 72.03424072265625 -3.7562103271484375 L 58.03424072265625 -3.7562103271484375 L 58.03424072265625 -17.756210327148438 L 72.03424072265625 -17.756210327148438 L 72.03424072265625 -3.7562103271484375 " stroke="#000000" stroke-width="0.35 px" style="stroke-width:0.35;stroke-miterlimit:4;stroke-dasharray:none;fill:none;fill-opacity:1;fill-rule: evenodd"/>
<path id="Sketch004_w0018"  d="M 25.758194436746635 -55.33840193823078 L 9.376625734652272 -59.42278081793667 L 13.248422253805108 -74.95170822976553 A 1.99447 1.99447 0 0 1 15.1836 -76.4637L 104.24619572265625 -76.46366922714844 A 2.78804 2.78804 0 0 1 107.034 -73.6756L 107.03424072265625 -0.4492323271484334 A 2.69302 2.69302 0 0 1 104.341 2.24379L 26.663295722656255 2.243789672851563 A 3.62906 3.62906 0 0 1 23.0342 -1.38527L 23.03424072265625 -56.729081356419286 M 9.376625734652272 -59.42278081793667 L 7.848496226225468 -53.2937882185462 A 1.18338 1.18338 0 0 0 8.71044 -51.8593L 23.034240722656246 -48.287957741957214 " stroke="#000000" stroke-width="0.35 px" style="stroke-width:0.35;stroke-miterlimit:4;stroke-dasharray:none;fill:none;fill-opacity:1;fill-rule: evenodd"/>
<path id="Sketch004_w0019"  d="M 8.44888153339949 -52.43979860979557 L 21.062725963306 -49.29481392014818 L 22.635218308129698 -55.60173613510143 L 10.021373878223187 -58.74672082474883 L 8.44888153339949 -52.43979860979557 " stroke="#000000" stroke-width="0.35 px" style="stroke-width:0.35;stroke-miterlimit:4;stroke-dasharray:none;fill:none;fill-opacity:1;fill-rule: evenodd"/>
<circle cx="98.03424072265625" cy="-0.7562103271484367" r="2.2" stroke="#000000" stroke-width="0.35 px" style="stroke-width:0.35;stroke-miterlimit:4;stroke-dasharray:none;fill:none"/>
<circle cx="32.03424072265625" cy="-0.7562103271484367" r="2.2" stroke="#000000" stroke-width="0.35 px" style="stroke-width:0.35;stroke-miterlimit:4;stroke-dasharray:none;fill:none"/>
<circle cx="73.13139793350891" cy="-55.6368599508217" r="2.2" stroke="#000000" stroke-width="0.35 px" style="stroke-width:0.35;stroke-miterlimit:4;stroke-dasharray:none;fill:none"/>
<path id="Sketch004_w0023"  d="M 105.03424072265625 -53.96366922714844 L 81.03424072265625 -53.96366922714844 L 81.03424072265625 -74.96366922714844 L 105.03424072265625 -74.96366922714844 L 105.03424072265625 -53.96366922714844 " stroke="#000000" stroke-width="0.35 px" style="stroke-width:0.35;stroke-miterlimit:4;stroke-dasharray:none;fill:none;fill-opacity:1;fill-rule: evenodd"/>
<circle cx="26.845053" cy="-54.032104" r="2.2" stroke="#000000" stroke-width="0.35 px" style="stroke-width:0.35;stroke-miterlimit:4;stroke-dasharray:none;fill:none"/>
<path id="Sketch004_w0025"  d="M 107.03424072265625 -52.75621032714844 L 78.03424072265625 -52.75621032714844 L 78.03424072265625 -76.46366922714844 " stroke="#000000" stroke-width="0.35 px" style="stroke-width:0.35;stroke-miterlimit:4;stroke-dasharray:none;fill:none;fill-opacity:1;fill-rule: evenodd"/>
<circle cx="25.03424072265625" cy="-50.75621032714844" r="1.0" stroke="#000000" stroke-width="0.35 px" style="stroke-width:0.35;stroke-miterlimit:4;stroke-dasharray:none;fill:none"/>
<circle cx="29.733281322656254" cy="-56.61912672714844" r="1.0" stroke="#000000" stroke-width="0.35 px" style="stroke-width:0.35;stroke-miterlimit:4;stroke-dasharray:none;fill:none"/>
<circle cx="25.385201322656243" cy="-57.49262242714843" r="1.0" stroke="#000000" stroke-width="0.35 px" style="stroke-width:0.35;stroke-miterlimit:4;stroke-dasharray:none;fill:none"/>
<path id="Sketch004_w0029"  d="M -105.03424072265625 -3.7562103271484375 L -105.03424072265625 -17.756210327148438 L -91.03424072265625 -17.756210327148438 L -91.03424072265625 -3.7562103271484375 L -105.03424072265625 -3.7562103271484375 " stroke="#000000" stroke-width="0.35 px" style="stroke-width:0.35;stroke-miterlimit:4;stroke-dasharray:none;fill:none;fill-opacity:1;fill-rule: evenodd"/>
<path id="Sketch004_w0030"  d="M -39.03424072265625 -3.7562103271484375 L -39.03424072265625 -17.756210327148438 L -25.03424072265625 -17.756210327148438 L -25.03424072265625 -3.7562103271484375 L -39.03424072265625 -3.7562103271484375 " stroke="#000000" stroke-width="0.35 px" style="stroke-width:0.35;stroke-miterlimit:4;stroke-dasharray:none;fill:none;fill-opacity:1;fill-rule: evenodd"/>
<path id="Sketch004_w0031"  d="M -15.187967722656253 -74.46366922714844 L -28.772107922656247 -71.07676262714844 L -25.385201322656243 -57.49262242714843 L -11.80106112265625 -60.879529027148436 L -15.187967722656253 -74.46366922714844 " stroke="#000000" stroke-width="0.35 px" style="stroke-width:0.35;stroke-miterlimit:4;stroke-dasharray:none;fill:none;fill-opacity:1;fill-rule: evenodd"/>
<path id="Sketch004_w0032"  d="M -39.03424072265625 -20.256210327148438 L -25.03424072265625 -20.256210327148438 L -25.03424072265625 -34.25621032714844 L -39.03424072265625 -34.25621032714844 L -39.03424072265625 -20.256210327148438 " stroke="#000000" stroke-width="0.35 px" style="stroke-width:0.35;stroke-miterlimit:4;stroke-dasharray:none;fill:none;fill-opacity:1;fill-rule: evenodd"/>
<path id="Sketch004_w0033"  d="M -41.53424072265625 -34.25621032714844 L -55.53424072265625 -34.25621032714844 L -55.53424072265625 -20.256210327148438 L -41.53424072265625 -20.256210327148438 L -41.53424072265625 -34.25621032714844 " stroke="#000000" stroke-width="0.35 px" style="stroke-width:0.35;stroke-miterlimit:4;stroke-dasharray:none;fill:none;fill-opacity:1;fill-rule: evenodd"/>
<path id="Sketch004_w0034"  d="M -25.03424072265625 -50.75621032714844 L -39.03424072265625 -50.75621032714844 L -39.03424072265625 -36.75621032714844 L -25.03424072265625 -36.75621032714844 L -25.03424072265625 -50.75621032714844 " stroke="#000000" stroke-width="0.35 px" style="stroke-width:0.35;stroke-miterlimit:4;stroke-dasharray:none;fill:none;fill-opacity:1;fill-rule: evenodd"/>
<path id="Sketch004_w0035"  d="M -72.03424072265625 -20.256210327148438 L -72.03424072265625 -34.25621032714844 L -58.03424072265625 -34.25621032714844 L -58.03424072265625 -20.256210327148438 L -72.03424072265625 -20.256210327148438 " stroke="#000000" stroke-width="0.35 px" style="stroke-width:0.35;stroke-miterlimit:4;stroke-dasharray:none;fill:none;fill-opacity:1;fill-rule: evenodd"/>
<path id="Sketch004_w0036"  d="M -105.03424072265625 -20.256210327148438 L -105.03424072265625 -34.25621032714844 L -91.03424072265625 -34.25621032714844 L -91.03424072265625 -20.256210327148438 L -105.03424072265625 -20.256210327148438 " stroke="#000000" stroke-width="0.35 px" style="stroke-width:0.35;stroke-miterlimit:4;stroke-dasharray:none;fill:none;fill-opacity:1;fill-rule: evenodd"/>
<path id="Sketch004_w0037"  d="M -61.30924072265625 -55.73121032714843 L -47.309240722656256 -55.73121032714843 L -47.309240722656256 -69.73121032714843 L -61.30924072265625 -69.73121032714843 L -61.30924072265625 -55.73121032714843 " stroke="#000000" stroke-width="0.35 px" style="stroke-width:0.35;stroke-miterlimit:4;stroke-dasharray:none;fill:none;fill-opacity:1;fill-rule: evenodd"/>
<path id="Sketch004_w0038"  d="M -55.53424072265625 -36.75621032714844 L -41.53424072265625 -36.75621032714844 L -41.53424072265625 -50.75621032714844 L -55.53424072265625 -50.75621032714844 L -55.53424072265625 -36.75621032714844 " stroke="#000000" stroke-width="0.35 px" style="stroke-width:0.35;stroke-miterlimit:4;stroke-dasharray:none;fill:none;fill-opacity:1;fill-rule: evenodd"/>
<path id="Sketch004_w0039"  d="M -88.53424072265625 -3.7562103271484375 L -88.53424072265625 -17.756210327148438 L -74.53424072265625 -17.756210327148438 L -74.53424072265625 -3.7562103271484375 L -88.53424072265625 -3.7562103271484375 " stroke="#000000" stroke-width="0.35 px" style="stroke-width:0.35;stroke-miterlimit:4;stroke-dasharray:none;fill:none;fill-opacity:1;fill-rule: evenodd"/>
<path id="Sketch004_w0040"  d="M -91.03424072265625 -50.75621032714844 L -105.03424072265625 -50.75621032714844 L -105.03424072265625 -36.75621032714844 L -91.03424072265625 -36.75621032714844 L -91.03424072265625 -50.75621032714844 " stroke="#000000" stroke-width="0.35 px" style="stroke-width:0.35;stroke-miterlimit:4;stroke-dasharray:none;fill:none;fill-opacity:1;fill-rule: evenodd"/>
<path id="Sketch004_w0041"  d="M -72.03424072265625 -50.75621032714844 L -58.03424072265625 -50.75621032714844 L -58.03424072265625 -36.75621032714844 L -72.03424072265625 -36.75621032714844 L -72.03424072265625 -50.75872034081934 " stroke="#000000" stroke-width="0.35 px" style="stroke-width:0.35;stroke-miterlimit:4;stroke-dasharray:none;fill:none;fill-opacity:1;fill-rule: evenodd"/>
<path id="Sketch004_w0042"  d="M -74.51375878914735 -50.83175033034492 L -88.53424072265625 -50.75621032714844 L -88.53424072265625 -36.75621032714844 L -74.53424072265625 -36.75621032714844 L -74.53424072265625 -50.75621032714844 " stroke="#000000" stroke-width="0.35 px" style="stroke-width:0.35;stroke-miterlimit:4;stroke-dasharray:none;fill:none;fill-opacity:1;fill-rule: evenodd"/>
<path id="Sketch004_w0043"  d="M -43.699178022656255 -55.64253602714844 L -29.733281322656254 -56.61912672714844 L -30.709872022656256 -70.58502342714844 L -44.675768722656244 -69.60843272714844 L -43.699178022656255 -55.64253602714844 " stroke="#000000" stroke-width="0.35 px" style="stroke-width:0.35;stroke-miterlimit:4;stroke-dasharray:none;fill:none;fill-opacity:1;fill-rule: evenodd"/>
<path id="Sketch004_w0044"  d="M -74.53424072265625 -20.256210327148438 L -74.53424072265625 -34.25621032714844 L -88.53424072265625 -34.25621032714844 L -88.53424072265625 -20.256210327148438 L -74.53424072265625 -20.256210327148438 " stroke="#000000" stroke-width="0.35 px" style="stroke-width:0.35;stroke-miterlimit:4;stroke-dasharray:none;fill:none;fill-opacity:1;fill-rule: evenodd"/>
<path id="Sketch004_w0045"  d="M -41.53424072265625 -17.756210327148438 L -55.53424072265625 -17.756210327148438 L -55.53424072265625 -3.7562103271484375 L -41.53424072265625 -3.7562103271484375 L -41.53424072265625 -17.756210327148438 " stroke="#000000" stroke-width="0.35 px" style="stroke-width:0.35;stroke-miterlimit:4;stroke-dasharray:none;fill:none;fill-opacity:1;fill-rule: evenodd"/>
<path id="Sketch004_w0046"  d="M -72.03424072265625 -3.7562103271484375 L -58.03424072265625 -3.7562103271484375 L -58.03424072265625 -17.756210327148438 L -72.03424072265625 -17.756210327148438 L -72.03424072265625 -3.7562103271484375 " stroke="#000000" stroke-width="0.35 px" style="stroke-width:0.35;stroke-miterlimit:4;stroke-dasharray:none;fill:none;fill-opacity:1;fill-rule: evenodd"/>
<path id="Sketch004_w0047"  d="M -25.758194436746635 -55.33840193823078 L -9.376625734652272 -59.42278081793667 L -13.24842225380511 -74.95170822976553 A 1.99447 1.99447 0 0 0 -15.1836 -76.4637L -104.24619572265625 -76.46366922714844 A 2.78804 2.78804 0 0 0 -107.034 -73.6756L -107.03424072265625 -0.4492323271484334 A 2.69302 2.69302 0 0 0 -104.341 2.24379L -26.663295722656255 2.243789672851563 A 3.62906 3.62906 0 0 0 -23.0342 -1.38527L -23.03424072265625 -56.729081356419286 M -9.376625734652272 -59.42278081793667 L -7.8484962262254685 -53.2937882185462 A 1.18338 1.18338 0 0 1 -8.71044 -51.8593L -23.034240722656246 -48.287957741957214 " stroke="#000000" stroke-width="0.35 px" style="stroke-width:0.35;stroke-miterlimit:4;stroke-dasharray:none;fill:none;fill-opacity:1;fill-rule: evenodd"/>
<path id="Sketch004_w0048"  d="M -8.44888153339949 -52.43979860979557 L -21.062725963306 -49.29481392014818 L -22.635218308129698 -55.60173613510143 L -10.021373878223187 -58.74672082474883 L -8.44888153339949 -52.43979860979557 " stroke="#000000" stroke-width="0.35 px" style="stroke-width:0.35;stroke-miterlimit:4;stroke-dasharray:none;fill:none;fill-opacity:1;fill-rule: evenodd"/>
<circle cx="-98.03424072265625" cy="-0.7562103271484367" r="2.2" stroke="#000000" stroke-width="0.35 px" style="stroke-width:0.35;stroke-miterlimit:4;stroke-dasharray:none;fill:none"/>
<circle cx="-32.03424072265625" cy="-0.7562103271484367" r="2.2" stroke="#000000" stroke-width="0.35 px" style="stroke-width:0.35;stroke-miterlimit:4;stroke-dasharray:none;fill:none"/>
<circle cx="-73.13139793350891" cy="-55.6368599508217" r="2.2" stroke="#000000" stroke-width="0.35 px" style="stroke-width:0.35;stroke-miterlimit:4;stroke-dasharray:none;fill:none"/>
<path id="Sketch004_w0052"  d="M -105.03424072265625 -53.96366922714844 L -81.03424072265625 -53.96366922714844 L -81.03424072265625 -74.96366922714844 L -105.03424072265625 -74.96366922714844 L -105.03424072265625 -53.96366922714844 " stroke="#000000" stroke-width="0.35 px" style="stroke-width:0.35;stroke-miterlimit:4;stroke-dasharray:none;fill:none;fill-opacity:1;fill-rule: evenodd"/>
<circle cx="-26.845053" cy="-54.032104" r="2.2" stroke="#000000" stroke-width="0.35 px" style="stroke-width:0.35;stroke-miterlimit:4;stroke-dasharray:none;fill:none"/>
<path id="Sketch004_w0054"  d="M -107.03424072265625 -52.75621032714844 L -78.03424072265625 -52.75621032714844 L -78.03424072265625 -76.46366922714844 " stroke="#000000" stroke-width="0.35 px" style="stroke-width:0.35;stroke-miterlimit:4;stroke-dasharray:none;fill:none;fill-opacity:1;fill-rule: evenodd"/>
<circle cx="-25.03424072265625" cy="-50.75621032714844" r="1.0" stroke="#000000" stroke-width="0.35 px" style="stroke-width:0.35;stroke-miterlimit:4;stroke-dasharray:none;fill:none"/>
<circle cx="-29.733281322656254" cy="-56.61912672714844" r="1.0" stroke="#000000" stroke-width="0.35 px" style="stroke-width:0.35;stroke-miterlimit:4;stroke-dasharray:none;fill:none"/>
<circle cx="-25.385201322656243" cy="-57.49262242714843" r="1.0" stroke="#000000" stroke-width="0.35 px" style="stroke-width:0.35;stroke-miterlimit:4;stroke-dasharray:none;fill:none"/>
<title>b'Sketch004'</title>
</g>
</svg>