%TF.GenerationSoftware,KiCad,Pcbnew,(6.0.6)*%
%TF.CreationDate,2022-11-27T23:56:07+09:00*%
%TF.ProjectId,split-mini,73706c69-742d-46d6-996e-692e6b696361,rev?*%
%TF.SameCoordinates,Original*%
%TF.FileFunction,Soldermask,Top*%
%TF.FilePolarity,Negative*%
%FSLAX46Y46*%
G04 Gerber Fmt 4.6, Leading zero omitted, Abs format (unit mm)*
G04 Created by KiCad (PCBNEW (6.0.6)) date 2022-11-27 23:56:07*
%MOMM*%
%LPD*%
G01*
G04 APERTURE LIST*
G04 Aperture macros list*
%AMRoundRect*
0 Rectangle with rounded corners*
0 $1 Rounding radius*
0 $2 $3 $4 $5 $6 $7 $8 $9 X,Y pos of 4 corners*
0 Add a 4 corners polygon primitive as box body*
4,1,4,$2,$3,$4,$5,$6,$7,$8,$9,$2,$3,0*
0 Add four circle primitives for the rounded corners*
1,1,$1+$1,$2,$3*
1,1,$1+$1,$4,$5*
1,1,$1+$1,$6,$7*
1,1,$1+$1,$8,$9*
0 Add four rect primitives between the rounded corners*
20,1,$1+$1,$2,$3,$4,$5,0*
20,1,$1+$1,$4,$5,$6,$7,0*
20,1,$1+$1,$6,$7,$8,$9,0*
20,1,$1+$1,$8,$9,$2,$3,0*%
%AMHorizOval*
0 Thick line with rounded ends*
0 $1 width*
0 $2 $3 position (X,Y) of the first rounded end (center of the circle)*
0 $4 $5 position (X,Y) of the second rounded end (center of the circle)*
0 Add line between two ends*
20,1,$1,$2,$3,$4,$5,0*
0 Add two circle primitives to create the rounded ends*
1,1,$1,$2,$3*
1,1,$1,$4,$5*%
G04 Aperture macros list end*
%TA.AperFunction,Profile*%
%ADD10C,0.100000*%
%TD*%
%ADD11R,0.950000X1.300000*%
%ADD12C,1.701800*%
%ADD13C,3.987800*%
%ADD14C,3.000000*%
%ADD15RoundRect,0.200000X-1.075000X-1.050000X1.075000X-1.050000X1.075000X1.050000X-1.075000X1.050000X0*%
%ADD16C,5.000000*%
%ADD17C,1.200000*%
%ADD18HorizOval,1.700000X-0.083165X-0.391259X0.083165X0.391259X0*%
%ADD19C,1.600000*%
G04 APERTURE END LIST*
D10*
X113700000Y-47980000D02*
X48706692Y-33440758D01*
X114481692Y-117888869D02*
X114481692Y-48955880D01*
X25706692Y-23513892D02*
G75*
G03*
X24706692Y-24513869I8J-1000008D01*
G01*
X113481692Y-118888892D02*
G75*
G03*
X114481692Y-117888869I8J999992D01*
G01*
X114481737Y-48955880D02*
G75*
G03*
X113700000Y-47980000I-1000137J-120D01*
G01*
X63592178Y-118888869D02*
X113481692Y-118888869D01*
X25488384Y-110389626D02*
X63373870Y-118864748D01*
X63373868Y-118864755D02*
G75*
G03*
X63592178Y-118888869I218232J975455D01*
G01*
X24706692Y-24513869D02*
X24706692Y-109413746D01*
X24706653Y-109413746D02*
G75*
G03*
X25488384Y-110389626I1000047J46D01*
G01*
X47706692Y-23513869D02*
X25706692Y-23513869D01*
X48706731Y-24513869D02*
G75*
G03*
X47706692Y-23513869I-1000031J-31D01*
G01*
X48706692Y-24513869D02*
X48706692Y-33440758D01*
D11*
%TO.C,D7*%
X43310000Y-84915000D03*
X43310000Y-81365000D03*
%TD*%
D12*
%TO.C,SW6*%
X28570000Y-81050000D03*
D13*
X33650000Y-81050000D03*
D14*
X37460000Y-78600000D03*
X36190000Y-75970000D03*
X29840000Y-78510000D03*
D12*
X38730000Y-81050000D03*
D14*
X31110000Y-75970000D03*
D15*
X40735000Y-78510000D03*
X27808000Y-75970000D03*
%TD*%
D14*
%TO.C,SW11*%
X29910000Y-94960000D03*
X37530000Y-95050000D03*
D12*
X38800000Y-97500000D03*
D14*
X31180000Y-92420000D03*
X36260000Y-92420000D03*
D13*
X33720000Y-97500000D03*
D12*
X28640000Y-97500000D03*
D15*
X40805000Y-94960000D03*
X27878000Y-92420000D03*
%TD*%
D11*
%TO.C,D6*%
X26960000Y-87355000D03*
X26960000Y-83805000D03*
%TD*%
D12*
%TO.C,SW9*%
X88290000Y-76090000D03*
D14*
X87020000Y-73640000D03*
D13*
X83210000Y-76090000D03*
D14*
X85750000Y-71010000D03*
D12*
X78130000Y-76090000D03*
D14*
X80670000Y-71010000D03*
X79400000Y-73550000D03*
D15*
X90295000Y-73550000D03*
X77368000Y-71010000D03*
%TD*%
D13*
%TO.C,SW3*%
X66650000Y-59590000D03*
D12*
X61570000Y-59590000D03*
X71730000Y-59590000D03*
D14*
X64110000Y-54510000D03*
X69190000Y-54510000D03*
X70460000Y-57140000D03*
X62840000Y-57050000D03*
D15*
X73735000Y-57050000D03*
X60808000Y-54510000D03*
%TD*%
D11*
%TO.C,D9*%
X76210000Y-82235000D03*
X76210000Y-78685000D03*
%TD*%
%TO.C,D16*%
X65500000Y-116305000D03*
X65500000Y-112755000D03*
%TD*%
%TO.C,D11*%
X26730000Y-103605000D03*
X26730000Y-100055000D03*
%TD*%
%TO.C,D14*%
X76270000Y-99005000D03*
X76270000Y-95455000D03*
%TD*%
%TO.C,D17*%
X82080000Y-116315000D03*
X82080000Y-112765000D03*
%TD*%
D12*
%TO.C,SW5*%
X104780000Y-59520000D03*
D14*
X95890000Y-56980000D03*
D12*
X94620000Y-59520000D03*
D13*
X99700000Y-59520000D03*
D14*
X103510000Y-57070000D03*
X97160000Y-54440000D03*
X102240000Y-54440000D03*
D15*
X106785000Y-56980000D03*
X93858000Y-54440000D03*
%TD*%
D16*
%TO.C,HOLE3*%
X99710000Y-49060000D03*
%TD*%
D14*
%TO.C,SW15*%
X97190000Y-87490000D03*
X102270000Y-87490000D03*
D12*
X104810000Y-92570000D03*
D14*
X103540000Y-90120000D03*
D13*
X99730000Y-92570000D03*
D12*
X94650000Y-92570000D03*
D14*
X95920000Y-90030000D03*
D15*
X106815000Y-90030000D03*
X93888000Y-87490000D03*
%TD*%
D11*
%TO.C,D13*%
X59720000Y-98945000D03*
X59720000Y-95395000D03*
%TD*%
D14*
%TO.C,SW7*%
X47650000Y-73470000D03*
D12*
X55270000Y-78550000D03*
D13*
X50190000Y-78550000D03*
D14*
X46380000Y-76010000D03*
X52730000Y-73470000D03*
D12*
X45110000Y-78550000D03*
D14*
X54000000Y-76100000D03*
D15*
X57275000Y-76010000D03*
X44348000Y-73470000D03*
%TD*%
D11*
%TO.C,D1*%
X26770000Y-70785000D03*
X26770000Y-67235000D03*
%TD*%
D16*
%TO.C,HOLE5*%
X60480000Y-112870000D03*
%TD*%
D12*
%TO.C,SW16*%
X67390000Y-109870000D03*
D13*
X72470000Y-109870000D03*
D14*
X68660000Y-107330000D03*
X69930000Y-104790000D03*
D12*
X77550000Y-109870000D03*
D14*
X75010000Y-104790000D03*
X76280000Y-107420000D03*
D15*
X79555000Y-107330000D03*
X66628000Y-104790000D03*
%TD*%
D11*
%TO.C,D18*%
X98580000Y-116335000D03*
X98580000Y-112785000D03*
%TD*%
D16*
%TO.C,HOLE4*%
X33690000Y-108030000D03*
%TD*%
D11*
%TO.C,D4*%
X76180000Y-65845000D03*
X76180000Y-62295000D03*
%TD*%
%TO.C,D10*%
X92770000Y-82415000D03*
X92770000Y-78865000D03*
%TD*%
D14*
%TO.C,SW18*%
X102950000Y-104860000D03*
D13*
X105490000Y-109940000D03*
D12*
X110570000Y-109940000D03*
D14*
X109300000Y-107490000D03*
X108030000Y-104860000D03*
X101680000Y-107400000D03*
D12*
X100410000Y-109940000D03*
D15*
X112575000Y-107400000D03*
X99648000Y-104860000D03*
%TD*%
D17*
%TO.C,J1*%
X55951032Y-36700521D03*
X54495651Y-43547555D03*
X54239274Y-36336676D03*
X52783892Y-43183709D03*
D18*
X54151894Y-46848211D03*
X51755432Y-46338827D03*
X57630901Y-38897802D03*
X51810923Y-37660727D03*
X57007166Y-41832244D03*
X51187188Y-40595170D03*
X56175520Y-45744835D03*
X50355541Y-44507760D03*
%TD*%
D11*
%TO.C,D3*%
X59690000Y-65935000D03*
X59690000Y-62385000D03*
%TD*%
D14*
%TO.C,SW8*%
X69220000Y-70990000D03*
D12*
X71760000Y-76070000D03*
D14*
X64140000Y-70990000D03*
X62870000Y-73530000D03*
X70490000Y-73620000D03*
D12*
X61600000Y-76070000D03*
D13*
X66680000Y-76070000D03*
D15*
X73765000Y-73530000D03*
X60838000Y-70990000D03*
%TD*%
D16*
%TO.C,HOLE2*%
X110200000Y-93560000D03*
%TD*%
D14*
%TO.C,SW17*%
X86500000Y-104820000D03*
X92850000Y-107450000D03*
D13*
X89040000Y-109900000D03*
D14*
X85230000Y-107360000D03*
D12*
X83960000Y-109900000D03*
X94120000Y-109900000D03*
D14*
X91580000Y-104820000D03*
D15*
X96125000Y-107360000D03*
X83198000Y-104820000D03*
%TD*%
D19*
%TO.C,U1*%
X27792500Y-29454000D03*
X44425000Y-28155000D03*
X44425000Y-30695000D03*
X27792500Y-31994000D03*
X44425000Y-33235000D03*
X27792500Y-34534000D03*
X27792500Y-37074000D03*
X44425000Y-35775000D03*
X44425000Y-38315000D03*
X27792500Y-39614000D03*
X44425000Y-40855000D03*
X27792500Y-42154000D03*
X44425000Y-43395000D03*
X27792500Y-44694000D03*
X43027500Y-44694000D03*
X29190000Y-43395000D03*
X43027500Y-42154000D03*
X29190000Y-40855000D03*
X29190000Y-38315000D03*
X43027500Y-39614000D03*
X43027500Y-37074000D03*
X29190000Y-35775000D03*
X43027500Y-34534000D03*
X29190000Y-33235000D03*
X29190000Y-30695000D03*
X43027500Y-31994000D03*
X43027500Y-29454000D03*
X29190000Y-28155000D03*
%TD*%
D14*
%TO.C,SW10*%
X95900000Y-73540000D03*
D12*
X104790000Y-76080000D03*
D14*
X102250000Y-71000000D03*
D12*
X94630000Y-76080000D03*
D13*
X99710000Y-76080000D03*
D14*
X103520000Y-73630000D03*
X97170000Y-71000000D03*
D15*
X106795000Y-73540000D03*
X93868000Y-71000000D03*
%TD*%
D11*
%TO.C,D15*%
X92770000Y-98795000D03*
X92770000Y-95245000D03*
%TD*%
D14*
%TO.C,SW2*%
X46370000Y-59500000D03*
X52720000Y-56960000D03*
D12*
X55260000Y-62040000D03*
D13*
X50180000Y-62040000D03*
D12*
X45100000Y-62040000D03*
D14*
X47640000Y-56960000D03*
X53990000Y-59590000D03*
D15*
X57265000Y-59500000D03*
X44338000Y-56960000D03*
%TD*%
D13*
%TO.C,SW13*%
X66730000Y-92570000D03*
D14*
X70540000Y-90120000D03*
X62920000Y-90030000D03*
D12*
X71810000Y-92570000D03*
D14*
X64190000Y-87490000D03*
X69270000Y-87490000D03*
D12*
X61650000Y-92570000D03*
D15*
X73815000Y-90030000D03*
X60888000Y-87490000D03*
%TD*%
D16*
%TO.C,HOLE1*%
X33730000Y-54530000D03*
%TD*%
D14*
%TO.C,SW12*%
X52750000Y-89970000D03*
X54020000Y-92600000D03*
D12*
X45130000Y-95050000D03*
X55290000Y-95050000D03*
D13*
X50210000Y-95050000D03*
D14*
X47670000Y-89970000D03*
X46400000Y-92510000D03*
D15*
X57295000Y-92510000D03*
X44368000Y-89970000D03*
%TD*%
D14*
%TO.C,SW14*%
X85750000Y-87500000D03*
D12*
X88290000Y-92580000D03*
D14*
X80670000Y-87500000D03*
D12*
X78130000Y-92580000D03*
D14*
X79400000Y-90040000D03*
D13*
X83210000Y-92580000D03*
D14*
X87020000Y-90130000D03*
D15*
X90295000Y-90040000D03*
X77368000Y-87500000D03*
%TD*%
D14*
%TO.C,SW1*%
X36250000Y-59470000D03*
X37520000Y-62100000D03*
D13*
X33710000Y-64550000D03*
D12*
X28630000Y-64550000D03*
D14*
X31170000Y-59470000D03*
X29900000Y-62010000D03*
D12*
X38790000Y-64550000D03*
D15*
X40795000Y-62010000D03*
X27868000Y-59470000D03*
%TD*%
D11*
%TO.C,D5*%
X92730000Y-65925000D03*
X92730000Y-62375000D03*
%TD*%
%TO.C,D8*%
X59700000Y-82475000D03*
X59700000Y-78925000D03*
%TD*%
D14*
%TO.C,SW4*%
X87020000Y-57130000D03*
X80670000Y-54500000D03*
D12*
X78130000Y-59580000D03*
D14*
X79400000Y-57040000D03*
D13*
X83210000Y-59580000D03*
D14*
X85750000Y-54500000D03*
D12*
X88290000Y-59580000D03*
D15*
X90295000Y-57040000D03*
X77368000Y-54500000D03*
%TD*%
D11*
%TO.C,D2*%
X43240000Y-68415000D03*
X43240000Y-64865000D03*
%TD*%
%TO.C,D12*%
X43310000Y-101435000D03*
X43310000Y-97885000D03*
%TD*%
M02*
