%TF.GenerationSoftware,KiCad,Pcbnew,(6.0.6)*%
%TF.CreationDate,2022-09-17T23:42:14+09:00*%
%TF.ProjectId,split-mini_bottom,73706c69-742d-46d6-996e-695f626f7474,rev?*%
%TF.SameCoordinates,Original*%
%TF.FileFunction,Legend,Bot*%
%TF.FilePolarity,Positive*%
%FSLAX46Y46*%
G04 Gerber Fmt 4.6, Leading zero omitted, Abs format (unit mm)*
G04 Created by KiCad (PCBNEW (6.0.6)) date 2022-09-17 23:42:14*
%MOMM*%
%LPD*%
G01*
G04 APERTURE LIST*
%TA.AperFunction,Profile*%
%ADD10C,0.349999*%
%TD*%
%ADD11C,0.300000*%
%ADD12C,0.350000*%
%ADD13C,2.200000*%
G04 APERTURE END LIST*
D10*
X120734058Y-85321050D02*
X120746346Y-84517181D01*
X94563467Y-99773630D02*
X95006416Y-99879974D01*
X21067121Y-99747413D02*
X21097288Y-99856121D01*
X95006416Y-99879974D02*
X95006416Y-99879974D01*
X106613959Y-23464589D02*
X106588365Y-23321274D01*
X21022792Y-99525582D02*
X21042263Y-99637170D01*
X21450528Y-100558221D02*
X21520346Y-100647842D01*
X23314208Y-21027240D02*
X23182826Y-21050152D01*
X120663178Y-69673555D02*
X120617953Y-69555976D01*
X120429619Y-69232038D02*
X120350533Y-69135311D01*
X116257734Y-104147387D02*
X116337281Y-104072331D01*
X65730083Y-98890289D02*
X65730083Y-98890289D01*
X104737877Y-21174101D02*
X104602654Y-21128344D01*
X120306060Y-89309528D02*
X120440307Y-88517806D01*
X106647491Y-64950611D02*
X106647491Y-23907794D01*
X114417834Y-104707695D02*
X114531519Y-104721167D01*
X22319756Y-101272024D02*
X22422725Y-101317646D01*
X21325017Y-100370023D02*
X21385392Y-100465551D01*
X116831755Y-103339065D02*
X116873233Y-103232363D01*
X114869318Y-104727193D02*
X114980256Y-104718084D01*
X116678483Y-103640152D02*
X116734207Y-103543064D01*
X21793434Y-21793513D02*
X21700478Y-21891184D01*
X106069327Y-22166530D02*
X105982931Y-22056589D01*
X105588428Y-21662081D02*
X105478488Y-21575683D01*
X104870037Y-21226211D02*
X104737877Y-21174101D01*
X79268402Y-98118347D02*
X79619825Y-98120645D01*
X119962618Y-68817891D02*
X119849615Y-68758387D01*
X120725055Y-69920137D02*
X120699003Y-69795107D01*
X21042263Y-99637170D02*
X21067121Y-99747413D01*
X120699003Y-69795107D02*
X120663178Y-69673555D01*
X81724553Y-98230937D02*
X82074291Y-98265381D01*
X119606995Y-68666672D02*
X106647491Y-64950611D01*
X21218860Y-100171147D02*
X21269480Y-100271825D01*
X21049932Y-23182830D02*
X21027007Y-23314210D01*
X23078052Y-101482078D02*
X23191759Y-101490535D01*
X20997490Y-99184639D02*
X21000327Y-99299127D01*
X115907617Y-104406218D02*
X115999590Y-104347927D01*
X105694026Y-21753553D02*
X105588428Y-21662081D01*
X105891460Y-21950990D02*
X105795097Y-21849917D01*
X23306244Y-101493370D02*
X54168747Y-101493347D01*
X23715622Y-20997488D02*
X23715622Y-20997488D01*
X21992830Y-21612950D02*
X21891115Y-21700567D01*
X57823814Y-101011581D02*
X57823814Y-101011581D01*
X120746346Y-84517181D02*
X120746346Y-70178646D01*
X120563702Y-69442866D02*
X120500800Y-69334721D01*
X120744992Y-70113118D02*
X120740961Y-70048149D01*
X21114721Y-22925043D02*
X21079201Y-23053033D01*
X21000556Y-23580829D02*
X20997215Y-23715622D01*
X93224898Y-99501293D02*
X93672605Y-99584271D01*
X115411094Y-104628832D02*
X115514710Y-104593834D01*
X116618357Y-103733828D02*
X116678483Y-103640152D01*
X55553294Y-101425245D02*
X56012088Y-101372398D01*
X21932681Y-101040365D02*
X22025351Y-101105499D01*
X79971141Y-98127542D02*
X80322305Y-98139037D01*
X94118828Y-99675056D02*
X94563467Y-99773630D01*
X119965073Y-90880112D02*
X120147626Y-90097149D01*
X21520346Y-100647842D02*
X21594767Y-100734227D01*
X21843058Y-100970549D02*
X21932681Y-101040365D01*
X116413290Y-103993343D02*
X116485588Y-103910527D01*
X114980256Y-104718084D02*
X115090076Y-104703590D01*
X92325451Y-99358830D02*
X92775813Y-99426140D01*
X119790967Y-68731954D02*
X119730949Y-68707815D01*
X22207471Y-21454070D02*
X22098356Y-21530754D01*
X103737228Y-20997492D02*
X23715622Y-20997488D01*
X116088715Y-104285289D02*
X116174821Y-104218407D01*
X105982931Y-22056589D02*
X105891460Y-21950990D01*
X104034787Y-21012522D02*
X103886991Y-21001281D01*
X116337281Y-104072331D02*
X116413290Y-103993343D01*
X22634779Y-101393589D02*
X22743485Y-101423753D01*
X23182826Y-21050152D02*
X23053027Y-21079407D01*
X21156400Y-22799082D02*
X21114721Y-22925043D01*
X21700478Y-21891184D02*
X21612850Y-21992890D01*
X105364387Y-21494542D02*
X105246308Y-21418842D01*
X22435573Y-21317612D02*
X22319950Y-21382992D01*
X69367896Y-98227495D02*
X70105548Y-98166918D01*
X22925033Y-21114915D02*
X22799069Y-21156581D01*
X103737228Y-20997492D02*
X103737228Y-20997492D01*
X115812969Y-104460058D02*
X115907617Y-104406218D01*
X54631255Y-101485768D02*
X55092893Y-101463051D01*
X82074291Y-98265381D02*
X91421310Y-99247810D01*
X104464550Y-21089126D02*
X104323750Y-21056627D01*
X21010518Y-23446950D02*
X21000556Y-23580829D01*
X104180434Y-21031031D02*
X104034787Y-21012522D01*
X119606995Y-68666672D02*
X119606995Y-68666672D01*
X22098356Y-21530754D02*
X21992830Y-21612950D01*
X115514710Y-104593834D02*
X115616343Y-104553970D01*
X21453948Y-22207514D02*
X21382859Y-22319987D01*
X106418789Y-22774986D02*
X106360509Y-22646071D01*
X106470898Y-22907146D02*
X106418789Y-22774986D01*
X80322305Y-98139037D02*
X80673272Y-98155126D01*
X21673714Y-100817184D02*
X21673714Y-100817184D01*
X106643705Y-23758032D02*
X106632466Y-23610236D01*
X55092893Y-101463051D02*
X55553294Y-101425245D01*
X80673272Y-98155126D02*
X81023999Y-98175807D01*
X105246308Y-21418842D02*
X105124435Y-21348765D01*
X106647491Y-64950611D02*
X106647491Y-64950611D01*
X57823814Y-101011581D02*
X65730083Y-98890289D01*
X56468906Y-101304560D02*
X56923379Y-101221779D01*
X79268402Y-98118347D02*
X79268402Y-98118347D01*
X106296240Y-22520586D02*
X106226164Y-22398712D01*
X70105548Y-98166918D02*
X70845185Y-98130517D01*
X116940735Y-103010071D02*
X116940735Y-103010071D01*
X54168747Y-101493347D02*
X54168747Y-101493347D01*
X119730949Y-68707815D02*
X119669610Y-68686034D01*
X106647491Y-23907794D02*
X106643705Y-23758032D01*
X21204145Y-22675373D02*
X21156400Y-22799082D01*
X116554001Y-103823988D02*
X116618357Y-103733828D01*
X56012088Y-101372398D02*
X56468906Y-101304560D01*
X57375138Y-101124103D02*
X57823814Y-101011581D01*
X120746346Y-70178646D02*
X120744992Y-70113118D01*
X67900910Y-98420864D02*
X68632820Y-98312169D01*
X21000327Y-99299127D02*
X21008788Y-99412838D01*
X23053027Y-21079407D02*
X22925033Y-21114915D01*
X91421310Y-99247810D02*
X91873916Y-99299381D01*
X71586216Y-98118370D02*
X71586216Y-98118370D01*
X21382859Y-22319987D02*
X21317467Y-22435603D01*
X20997490Y-99184639D02*
X20997490Y-99184639D01*
X21673714Y-100817184D02*
X21756673Y-100896129D01*
X114189873Y-104662933D02*
X114189873Y-104662933D01*
X21612850Y-21992890D02*
X21530643Y-22098408D01*
X23191759Y-101490535D02*
X23306244Y-101493370D01*
X82074291Y-98265381D02*
X82074291Y-98265381D01*
X115090076Y-104703590D02*
X115198604Y-104683814D01*
X21891115Y-21700567D02*
X21793434Y-21793513D01*
X106632466Y-23610236D02*
X106613959Y-23464589D01*
X92775813Y-99426140D02*
X93224898Y-99501293D01*
X120697243Y-86123603D02*
X120734058Y-85321050D01*
X22965311Y-101468076D02*
X23078052Y-101482078D01*
X114757434Y-104730812D02*
X114869318Y-104727193D01*
X21756673Y-100896129D02*
X21843058Y-100970549D01*
X116940735Y-103010071D02*
X119965073Y-90880112D01*
X120734300Y-69983801D02*
X120725055Y-69920137D01*
X119669610Y-68686034D02*
X119606995Y-68666672D01*
X23580829Y-21000816D02*
X23446950Y-21010763D01*
X115999590Y-104347927D02*
X116088715Y-104285289D01*
X106226164Y-22398712D02*
X106150466Y-22280632D01*
X81374440Y-98201078D02*
X81724553Y-98230937D01*
X104998950Y-21284494D02*
X104870037Y-21226211D01*
X22120879Y-101165872D02*
X22219077Y-101221407D01*
X116485588Y-103910527D02*
X116554001Y-103823988D01*
X21079201Y-23053033D02*
X21049932Y-23182830D01*
X23446950Y-21010763D02*
X23314208Y-21027240D01*
X116909617Y-103122663D02*
X116940735Y-103010071D01*
X22554116Y-21258022D02*
X22435573Y-21317612D01*
X120147626Y-90097149D02*
X120306060Y-89309528D01*
X21530643Y-22098408D02*
X21453948Y-22207514D01*
X106588365Y-23321274D02*
X106555869Y-23180473D01*
X120635967Y-86924286D02*
X120697243Y-86123603D01*
X116873233Y-103232363D02*
X116909617Y-103122663D01*
X68632820Y-98312169D02*
X69367896Y-98227495D01*
X22743485Y-101423753D02*
X22853726Y-101448609D01*
X120440307Y-88517806D02*
X120550299Y-87722539D01*
X22527796Y-101358194D02*
X22634779Y-101393589D01*
X21132686Y-99963106D02*
X21173236Y-100068177D01*
X22025351Y-101105499D02*
X22120879Y-101165872D01*
X95006416Y-99879974D02*
X114189873Y-104662933D01*
X21385392Y-100465551D02*
X21450528Y-100558221D01*
X21008788Y-99412838D02*
X21022792Y-99525582D01*
X115198604Y-104683814D02*
X115305668Y-104658860D01*
X67172756Y-98553501D02*
X67900910Y-98420864D01*
X106150466Y-22280632D02*
X106069327Y-22166530D01*
X21097288Y-99856121D02*
X21132686Y-99963106D01*
X120500800Y-69334721D02*
X120429619Y-69232038D01*
X21027007Y-23314210D02*
X21010518Y-23446950D01*
X116174821Y-104218407D02*
X116257734Y-104147387D01*
X120263917Y-69045037D02*
X120170143Y-68961712D01*
X70845185Y-98130517D02*
X71586216Y-98118370D01*
X91421310Y-99247810D02*
X91421310Y-99247810D01*
X22675355Y-21204314D02*
X22554116Y-21258022D01*
X21257865Y-22554139D02*
X21204145Y-22675373D01*
X22422725Y-101317646D02*
X22527796Y-101358194D01*
X114644776Y-104728838D02*
X114757434Y-104730812D01*
X116734207Y-103543064D02*
X116785355Y-103442667D01*
X120350533Y-69135311D02*
X120263917Y-69045037D01*
X120550299Y-87722539D02*
X120635967Y-86924286D01*
X21594767Y-100734227D02*
X21673714Y-100817184D01*
X106360509Y-22646071D02*
X106296240Y-22520586D01*
X79619825Y-98120645D02*
X79971141Y-98127542D01*
X115715821Y-104509343D02*
X115812969Y-104460058D01*
X120746346Y-70178646D02*
X120746346Y-70178646D01*
X20997215Y-23715622D02*
X20997215Y-23715622D01*
X104323750Y-21056627D02*
X104180434Y-21031031D01*
X71586216Y-98118370D02*
X79268402Y-98118347D01*
X105795097Y-21849917D02*
X105694026Y-21753553D01*
X119849615Y-68758387D02*
X119790967Y-68731954D01*
X54168747Y-101493347D02*
X54631255Y-101485768D01*
X116785355Y-103442667D02*
X116831755Y-103339065D01*
X120170143Y-68961712D02*
X120069586Y-68885831D01*
X66448951Y-98710002D02*
X67172756Y-98553501D01*
X104602654Y-21128344D02*
X104464550Y-21089126D01*
X114189873Y-104662933D02*
X114303894Y-104688319D01*
X22799069Y-21156581D02*
X22675355Y-21204314D01*
X120746346Y-84517181D02*
X120746346Y-84517181D01*
X120617953Y-69555976D02*
X120563702Y-69442866D01*
X114303894Y-104688319D02*
X114417834Y-104707695D01*
X106555869Y-23180473D02*
X106516652Y-23042369D01*
X65730083Y-98890289D02*
X66448951Y-98710002D01*
X81023999Y-98175807D02*
X81374440Y-98201078D01*
X21173236Y-100068177D02*
X21218860Y-100171147D01*
X115616343Y-104553970D02*
X115715821Y-104509343D01*
X106516652Y-23042369D02*
X106470898Y-22907146D01*
X23715622Y-20997488D02*
X23580829Y-21000816D01*
X120740961Y-70048149D02*
X120734300Y-69983801D01*
X22219077Y-101221407D02*
X22319756Y-101272024D01*
X56923379Y-101221779D02*
X57375138Y-101124103D01*
X103886991Y-21001281D02*
X103737228Y-20997492D01*
X22853726Y-101448609D02*
X22965311Y-101468076D01*
X105478488Y-21575683D02*
X105364387Y-21494542D01*
X119965073Y-90880112D02*
X119965073Y-90880112D01*
X105124435Y-21348765D02*
X104998950Y-21284494D01*
X21793434Y-21793513D02*
X21793434Y-21793513D01*
X93672605Y-99584271D02*
X94118828Y-99675056D01*
X21317467Y-22435603D02*
X21257865Y-22554139D01*
X20997215Y-23715622D02*
X20997490Y-99184639D01*
X23306244Y-101493370D02*
X23306244Y-101493370D01*
X22319950Y-21382992D02*
X22207471Y-21454070D01*
X91873916Y-99299381D02*
X92325451Y-99358830D01*
X120069586Y-68885831D02*
X119962618Y-68817891D01*
X21269480Y-100271825D02*
X21325017Y-100370023D01*
X115305668Y-104658860D02*
X115411094Y-104628832D01*
X114531519Y-104721167D02*
X114644776Y-104728838D01*
D11*
X42962857Y-94919714D02*
X42848571Y-94976857D01*
X42620000Y-94976857D01*
X42505714Y-94919714D01*
X42448571Y-94805428D01*
X42448571Y-94748285D01*
X42505714Y-94634000D01*
X42620000Y-94576857D01*
X42791428Y-94576857D01*
X42905714Y-94519714D01*
X42962857Y-94405428D01*
X42962857Y-94348285D01*
X42905714Y-94234000D01*
X42791428Y-94176857D01*
X42620000Y-94176857D01*
X42505714Y-94234000D01*
X41934285Y-94176857D02*
X41934285Y-95376857D01*
X41934285Y-94234000D02*
X41820000Y-94176857D01*
X41591428Y-94176857D01*
X41477142Y-94234000D01*
X41420000Y-94291142D01*
X41362857Y-94405428D01*
X41362857Y-94748285D01*
X41420000Y-94862571D01*
X41477142Y-94919714D01*
X41591428Y-94976857D01*
X41820000Y-94976857D01*
X41934285Y-94919714D01*
X40677142Y-94976857D02*
X40791428Y-94919714D01*
X40848571Y-94805428D01*
X40848571Y-93776857D01*
X40220000Y-94976857D02*
X40220000Y-94176857D01*
X40220000Y-93776857D02*
X40277142Y-93834000D01*
X40220000Y-93891142D01*
X40162857Y-93834000D01*
X40220000Y-93776857D01*
X40220000Y-93891142D01*
X39820000Y-94176857D02*
X39362857Y-94176857D01*
X39648571Y-93776857D02*
X39648571Y-94805428D01*
X39591428Y-94919714D01*
X39477142Y-94976857D01*
X39362857Y-94976857D01*
X38048571Y-94976857D02*
X38048571Y-94176857D01*
X38048571Y-94291142D02*
X37991428Y-94234000D01*
X37877142Y-94176857D01*
X37705714Y-94176857D01*
X37591428Y-94234000D01*
X37534285Y-94348285D01*
X37534285Y-94976857D01*
X37534285Y-94348285D02*
X37477142Y-94234000D01*
X37362857Y-94176857D01*
X37191428Y-94176857D01*
X37077142Y-94234000D01*
X37020000Y-94348285D01*
X37020000Y-94976857D01*
X36448571Y-94976857D02*
X36448571Y-94176857D01*
X36448571Y-93776857D02*
X36505714Y-93834000D01*
X36448571Y-93891142D01*
X36391428Y-93834000D01*
X36448571Y-93776857D01*
X36448571Y-93891142D01*
X35877142Y-94176857D02*
X35877142Y-94976857D01*
X35877142Y-94291142D02*
X35820000Y-94234000D01*
X35705714Y-94176857D01*
X35534285Y-94176857D01*
X35420000Y-94234000D01*
X35362857Y-94348285D01*
X35362857Y-94976857D01*
X34791428Y-94976857D02*
X34791428Y-94176857D01*
X34791428Y-93776857D02*
X34848571Y-93834000D01*
X34791428Y-93891142D01*
X34734285Y-93834000D01*
X34791428Y-93776857D01*
X34791428Y-93891142D01*
X33305714Y-94976857D02*
X33305714Y-94176857D01*
X33305714Y-94405428D02*
X33248571Y-94291142D01*
X33191428Y-94234000D01*
X33077142Y-94176857D01*
X32962857Y-94176857D01*
X32105714Y-94919714D02*
X32220000Y-94976857D01*
X32448571Y-94976857D01*
X32562857Y-94919714D01*
X32620000Y-94805428D01*
X32620000Y-94348285D01*
X32562857Y-94234000D01*
X32448571Y-94176857D01*
X32220000Y-94176857D01*
X32105714Y-94234000D01*
X32048571Y-94348285D01*
X32048571Y-94462571D01*
X32620000Y-94576857D01*
X31648571Y-94176857D02*
X31362857Y-94976857D01*
X31077142Y-94176857D01*
X30391428Y-93776857D02*
X30277142Y-93776857D01*
X30162857Y-93834000D01*
X30105714Y-93891142D01*
X30048571Y-94005428D01*
X29991428Y-94234000D01*
X29991428Y-94519714D01*
X30048571Y-94748285D01*
X30105714Y-94862571D01*
X30162857Y-94919714D01*
X30277142Y-94976857D01*
X30391428Y-94976857D01*
X30505714Y-94919714D01*
X30562857Y-94862571D01*
X30620000Y-94748285D01*
X30677142Y-94519714D01*
X30677142Y-94234000D01*
X30620000Y-94005428D01*
X30562857Y-93891142D01*
X30505714Y-93834000D01*
X30391428Y-93776857D01*
X29477142Y-94862571D02*
X29420000Y-94919714D01*
X29477142Y-94976857D01*
X29534285Y-94919714D01*
X29477142Y-94862571D01*
X29477142Y-94976857D01*
X28962857Y-93891142D02*
X28905714Y-93834000D01*
X28791428Y-93776857D01*
X28505714Y-93776857D01*
X28391428Y-93834000D01*
X28334285Y-93891142D01*
X28277142Y-94005428D01*
X28277142Y-94119714D01*
X28334285Y-94291142D01*
X29020000Y-94976857D01*
X28277142Y-94976857D01*
X45734285Y-96908857D02*
X45734285Y-95708857D01*
X45734285Y-96851714D02*
X45848571Y-96908857D01*
X46077142Y-96908857D01*
X46191428Y-96851714D01*
X46248571Y-96794571D01*
X46305714Y-96680285D01*
X46305714Y-96337428D01*
X46248571Y-96223142D01*
X46191428Y-96166000D01*
X46077142Y-96108857D01*
X45848571Y-96108857D01*
X45734285Y-96166000D01*
X44705714Y-96851714D02*
X44820000Y-96908857D01*
X45048571Y-96908857D01*
X45162857Y-96851714D01*
X45220000Y-96737428D01*
X45220000Y-96280285D01*
X45162857Y-96166000D01*
X45048571Y-96108857D01*
X44820000Y-96108857D01*
X44705714Y-96166000D01*
X44648571Y-96280285D01*
X44648571Y-96394571D01*
X45220000Y-96508857D01*
X44191428Y-96851714D02*
X44077142Y-96908857D01*
X43848571Y-96908857D01*
X43734285Y-96851714D01*
X43677142Y-96737428D01*
X43677142Y-96680285D01*
X43734285Y-96566000D01*
X43848571Y-96508857D01*
X44020000Y-96508857D01*
X44134285Y-96451714D01*
X44191428Y-96337428D01*
X44191428Y-96280285D01*
X44134285Y-96166000D01*
X44020000Y-96108857D01*
X43848571Y-96108857D01*
X43734285Y-96166000D01*
X43162857Y-96908857D02*
X43162857Y-96108857D01*
X43162857Y-95708857D02*
X43220000Y-95766000D01*
X43162857Y-95823142D01*
X43105714Y-95766000D01*
X43162857Y-95708857D01*
X43162857Y-95823142D01*
X42077142Y-96108857D02*
X42077142Y-97080285D01*
X42134285Y-97194571D01*
X42191428Y-97251714D01*
X42305714Y-97308857D01*
X42477142Y-97308857D01*
X42591428Y-97251714D01*
X42077142Y-96851714D02*
X42191428Y-96908857D01*
X42420000Y-96908857D01*
X42534285Y-96851714D01*
X42591428Y-96794571D01*
X42648571Y-96680285D01*
X42648571Y-96337428D01*
X42591428Y-96223142D01*
X42534285Y-96166000D01*
X42420000Y-96108857D01*
X42191428Y-96108857D01*
X42077142Y-96166000D01*
X41505714Y-96108857D02*
X41505714Y-96908857D01*
X41505714Y-96223142D02*
X41448571Y-96166000D01*
X41334285Y-96108857D01*
X41162857Y-96108857D01*
X41048571Y-96166000D01*
X40991428Y-96280285D01*
X40991428Y-96908857D01*
X39962857Y-96851714D02*
X40077142Y-96908857D01*
X40305714Y-96908857D01*
X40420000Y-96851714D01*
X40477142Y-96737428D01*
X40477142Y-96280285D01*
X40420000Y-96166000D01*
X40305714Y-96108857D01*
X40077142Y-96108857D01*
X39962857Y-96166000D01*
X39905714Y-96280285D01*
X39905714Y-96394571D01*
X40477142Y-96508857D01*
X38877142Y-96908857D02*
X38877142Y-95708857D01*
X38877142Y-96851714D02*
X38991428Y-96908857D01*
X39220000Y-96908857D01*
X39334285Y-96851714D01*
X39391428Y-96794571D01*
X39448571Y-96680285D01*
X39448571Y-96337428D01*
X39391428Y-96223142D01*
X39334285Y-96166000D01*
X39220000Y-96108857D01*
X38991428Y-96108857D01*
X38877142Y-96166000D01*
X37391428Y-96908857D02*
X37391428Y-95708857D01*
X37391428Y-96166000D02*
X37277142Y-96108857D01*
X37048571Y-96108857D01*
X36934285Y-96166000D01*
X36877142Y-96223142D01*
X36820000Y-96337428D01*
X36820000Y-96680285D01*
X36877142Y-96794571D01*
X36934285Y-96851714D01*
X37048571Y-96908857D01*
X37277142Y-96908857D01*
X37391428Y-96851714D01*
X36420000Y-96108857D02*
X36134285Y-96908857D01*
X35848571Y-96108857D02*
X36134285Y-96908857D01*
X36248571Y-97194571D01*
X36305714Y-97251714D01*
X36420000Y-97308857D01*
X34648571Y-96108857D02*
X34191428Y-96108857D01*
X34477142Y-95708857D02*
X34477142Y-96737428D01*
X34420000Y-96851714D01*
X34305714Y-96908857D01*
X34191428Y-96908857D01*
X33277142Y-96908857D02*
X33277142Y-96280285D01*
X33334285Y-96166000D01*
X33448571Y-96108857D01*
X33677142Y-96108857D01*
X33791428Y-96166000D01*
X33277142Y-96851714D02*
X33391428Y-96908857D01*
X33677142Y-96908857D01*
X33791428Y-96851714D01*
X33848571Y-96737428D01*
X33848571Y-96623142D01*
X33791428Y-96508857D01*
X33677142Y-96451714D01*
X33391428Y-96451714D01*
X33277142Y-96394571D01*
X32705714Y-96908857D02*
X32705714Y-96108857D01*
X32705714Y-96223142D02*
X32648571Y-96166000D01*
X32534285Y-96108857D01*
X32362857Y-96108857D01*
X32248571Y-96166000D01*
X32191428Y-96280285D01*
X32191428Y-96908857D01*
X32191428Y-96280285D02*
X32134285Y-96166000D01*
X32020000Y-96108857D01*
X31848571Y-96108857D01*
X31734285Y-96166000D01*
X31677142Y-96280285D01*
X31677142Y-96908857D01*
X30591428Y-96908857D02*
X30591428Y-96280285D01*
X30648571Y-96166000D01*
X30762857Y-96108857D01*
X30991428Y-96108857D01*
X31105714Y-96166000D01*
X30591428Y-96851714D02*
X30705714Y-96908857D01*
X30991428Y-96908857D01*
X31105714Y-96851714D01*
X31162857Y-96737428D01*
X31162857Y-96623142D01*
X31105714Y-96508857D01*
X30991428Y-96451714D01*
X30705714Y-96451714D01*
X30591428Y-96394571D01*
X29505714Y-96108857D02*
X29505714Y-97080285D01*
X29562857Y-97194571D01*
X29620000Y-97251714D01*
X29734285Y-97308857D01*
X29905714Y-97308857D01*
X30020000Y-97251714D01*
X29505714Y-96851714D02*
X29620000Y-96908857D01*
X29848571Y-96908857D01*
X29962857Y-96851714D01*
X30020000Y-96794571D01*
X30077142Y-96680285D01*
X30077142Y-96337428D01*
X30020000Y-96223142D01*
X29962857Y-96166000D01*
X29848571Y-96108857D01*
X29620000Y-96108857D01*
X29505714Y-96166000D01*
X28762857Y-96908857D02*
X28877142Y-96851714D01*
X28934285Y-96794571D01*
X28991428Y-96680285D01*
X28991428Y-96337428D01*
X28934285Y-96223142D01*
X28877142Y-96166000D01*
X28762857Y-96108857D01*
X28591428Y-96108857D01*
X28477142Y-96166000D01*
X28420000Y-96223142D01*
X28362857Y-96337428D01*
X28362857Y-96680285D01*
X28420000Y-96794571D01*
X28477142Y-96851714D01*
X28591428Y-96908857D01*
X28762857Y-96908857D01*
X27962857Y-95708857D02*
X27220000Y-95708857D01*
X27620000Y-96166000D01*
X27448571Y-96166000D01*
X27334285Y-96223142D01*
X27277142Y-96280285D01*
X27220000Y-96394571D01*
X27220000Y-96680285D01*
X27277142Y-96794571D01*
X27334285Y-96851714D01*
X27448571Y-96908857D01*
X27791428Y-96908857D01*
X27905714Y-96851714D01*
X27962857Y-96794571D01*
X26762857Y-95823142D02*
X26705714Y-95766000D01*
X26591428Y-95708857D01*
X26305714Y-95708857D01*
X26191428Y-95766000D01*
X26134285Y-95823142D01*
X26077142Y-95937428D01*
X26077142Y-96051714D01*
X26134285Y-96223142D01*
X26820000Y-96908857D01*
X26077142Y-96908857D01*
X25048571Y-96108857D02*
X25048571Y-96908857D01*
X25334285Y-95651714D02*
X25620000Y-96508857D01*
X24877142Y-96508857D01*
D12*
X52020000Y-80950000D03*
X112800000Y-84690000D03*
X53040000Y-95600000D03*
X97680000Y-23950000D03*
X30040000Y-23950000D03*
%LPC*%
D13*
%TO.C,HOLE3*%
X52020000Y-80950000D03*
%TD*%
%TO.C,HOLE5*%
X112800000Y-84690000D03*
%TD*%
%TO.C,HOLE4*%
X53040000Y-95600000D03*
%TD*%
%TO.C,HOLE2*%
X97680000Y-23950000D03*
%TD*%
%TO.C,HOLE1*%
X30040000Y-23950000D03*
%TD*%
M02*
