%TF.GenerationSoftware,KiCad,Pcbnew,(6.0.9)*%
%TF.CreationDate,2023-01-09T15:03:37+09:00*%
%TF.ProjectId,split-mini__switch_plate,73706c69-742d-46d6-996e-695f5f737769,rev?*%
%TF.SameCoordinates,Original*%
%TF.FileFunction,Copper,L2,Bot*%
%TF.FilePolarity,Positive*%
%FSLAX46Y46*%
G04 Gerber Fmt 4.6, Leading zero omitted, Abs format (unit mm)*
G04 Created by KiCad (PCBNEW (6.0.9)) date 2023-01-09 15:03:37*
%MOMM*%
%LPD*%
G01*
G04 APERTURE LIST*
%TA.AperFunction,Profile*%
%ADD10C,0.100000*%
%TD*%
%TA.AperFunction,Profile*%
%ADD11C,0.120000*%
%TD*%
%ADD12C,0.350000*%
G04 APERTURE END LIST*
D10*
X22100000Y-104650000D02*
X22100000Y-105650000D01*
X103900000Y-26800000D02*
X103900000Y-27800000D01*
X96400000Y-30300000D02*
X69500000Y-30300000D01*
X18100000Y-30300000D02*
G75*
G03*
X17100000Y-31300000I0J-1000000D01*
G01*
X18100000Y-102150000D02*
X19600000Y-102150000D01*
X101900000Y-105650000D02*
G75*
G03*
X104400000Y-108150000I2500000J0D01*
G01*
X109400000Y-102150000D02*
G75*
G03*
X106900000Y-104650000I0J-2500000D01*
G01*
X24600000Y-108150000D02*
G75*
G03*
X27100000Y-105650000I0J2500000D01*
G01*
X22100000Y-105650000D02*
G75*
G03*
X24600000Y-108150000I2500000J0D01*
G01*
X17100000Y-101150000D02*
G75*
G03*
X18100000Y-102150000I1000000J0D01*
G01*
X103900000Y-27800000D02*
G75*
G03*
X106400000Y-30300000I2500000J0D01*
G01*
X17100000Y-31300000D02*
X17100000Y-101150000D01*
X110900000Y-30300000D02*
X106400000Y-30300000D01*
X106900000Y-105650000D02*
X106900000Y-104650000D01*
X22100000Y-27800000D02*
X22100000Y-26800000D01*
X24600000Y-24300000D02*
G75*
G03*
X22100000Y-26800000I0J-2500000D01*
G01*
X109400000Y-102150000D02*
X110900000Y-102150000D01*
X96400000Y-30300000D02*
G75*
G03*
X98900000Y-27800000I0J2500000D01*
G01*
X27100000Y-26800000D02*
G75*
G03*
X24600000Y-24300000I-2500000J0D01*
G01*
X19600000Y-30300000D02*
G75*
G03*
X22100000Y-27800000I0J2500000D01*
G01*
X69500000Y-30300000D02*
X29600000Y-30300000D01*
X101900000Y-104650000D02*
X101900000Y-105650000D01*
X27100000Y-26800000D02*
X27100000Y-27800000D01*
X111900000Y-101150000D02*
X111900000Y-31300000D01*
X101900000Y-104650000D02*
G75*
G03*
X99400000Y-102150000I-2500000J0D01*
G01*
X104400000Y-108150000D02*
G75*
G03*
X106900000Y-105650000I0J2500000D01*
G01*
X111900000Y-31300000D02*
G75*
G03*
X110900000Y-30300000I-999900J100D01*
G01*
X27100000Y-105650000D02*
X27100000Y-104650000D01*
X22100000Y-104650000D02*
G75*
G03*
X19600000Y-102150000I-2500000J0D01*
G01*
X27100000Y-27800000D02*
G75*
G03*
X29600000Y-30300000I2500000J0D01*
G01*
X110900000Y-102150000D02*
G75*
G03*
X111900000Y-101150000I0J1000000D01*
G01*
X101400000Y-24300000D02*
G75*
G03*
X98900000Y-26800000I0J-2500000D01*
G01*
X29600000Y-102150000D02*
G75*
G03*
X27100000Y-104650000I0J-2500000D01*
G01*
X69500000Y-102150000D02*
X99400000Y-102150000D01*
X19600000Y-30300000D02*
X18100000Y-30300000D01*
X103900000Y-26800000D02*
G75*
G03*
X101400000Y-24300000I-2500000J0D01*
G01*
X98900000Y-27800000D02*
X98900000Y-26800000D01*
X29600000Y-102150000D02*
X69500000Y-102150000D01*
D11*
%TO.C,SW15*%
X102075000Y-67300000D02*
X88075000Y-67300000D01*
X88075000Y-67300000D02*
X88075000Y-81300000D01*
X102075000Y-81300000D02*
X102075000Y-67300000D01*
X88075000Y-81300000D02*
X102075000Y-81300000D01*
%TO.C,SW7*%
X51075000Y-66850000D02*
X51075000Y-52850000D01*
X51075000Y-52850000D02*
X37075000Y-52850000D01*
X37075000Y-66850000D02*
X51075000Y-66850000D01*
X37075000Y-52850000D02*
X37075000Y-66850000D01*
%TO.C,SW3*%
X54075000Y-47300000D02*
X68075000Y-47300000D01*
X68075000Y-47300000D02*
X68075000Y-33300000D01*
X54075000Y-33300000D02*
X54075000Y-47300000D01*
X68075000Y-33300000D02*
X54075000Y-33300000D01*
%TO.C,SW6*%
X34100000Y-71100000D02*
X34100000Y-57100000D01*
X20100000Y-57100000D02*
X20100000Y-71100000D01*
X34100000Y-57100000D02*
X20100000Y-57100000D01*
X20100000Y-71100000D02*
X34100000Y-71100000D01*
%TO.C,SW17*%
X77875000Y-99150000D02*
X91875000Y-99150000D01*
X91875000Y-85150000D02*
X77875000Y-85150000D01*
X77875000Y-85150000D02*
X77875000Y-99150000D01*
X91875000Y-99150000D02*
X91875000Y-85150000D01*
%TO.C,SW14*%
X71085000Y-67315000D02*
X71085000Y-81315000D01*
X71085000Y-81315000D02*
X85085000Y-81315000D01*
X85085000Y-81315000D02*
X85085000Y-67315000D01*
X85085000Y-67315000D02*
X71085000Y-67315000D01*
%TO.C,SW9*%
X85075000Y-50300000D02*
X71075000Y-50300000D01*
X71075000Y-50300000D02*
X71075000Y-64300000D01*
X71075000Y-64300000D02*
X85075000Y-64300000D01*
X85075000Y-64300000D02*
X85075000Y-50300000D01*
%TO.C,SW8*%
X54075000Y-64300000D02*
X68075000Y-64300000D01*
X68075000Y-64300000D02*
X68075000Y-50300000D01*
X68075000Y-50300000D02*
X54075000Y-50300000D01*
X54075000Y-50300000D02*
X54075000Y-64300000D01*
%TO.C,SW10*%
X102050000Y-50300000D02*
X88050000Y-50300000D01*
X88050000Y-50300000D02*
X88050000Y-64300000D01*
X88050000Y-64300000D02*
X102050000Y-64300000D01*
X102050000Y-64300000D02*
X102050000Y-50300000D01*
%TO.C,SW11*%
X20085000Y-74080000D02*
X20085000Y-88080000D01*
X34085000Y-74080000D02*
X20085000Y-74080000D01*
X20085000Y-88080000D02*
X34085000Y-88080000D01*
X34085000Y-88080000D02*
X34085000Y-74080000D01*
%TO.C,SW1*%
X20100000Y-40075000D02*
X20100000Y-54075000D01*
X34100000Y-40075000D02*
X20100000Y-40075000D01*
X20100000Y-54075000D02*
X34100000Y-54075000D01*
X34100000Y-54075000D02*
X34100000Y-40075000D01*
%TO.C,SW12*%
X51050000Y-83825000D02*
X51050000Y-69825000D01*
X37050000Y-69825000D02*
X37050000Y-83825000D01*
X51050000Y-69825000D02*
X37050000Y-69825000D01*
X37050000Y-83825000D02*
X51050000Y-83825000D01*
%TO.C,SW5*%
X102075000Y-47300000D02*
X102075000Y-33300000D01*
X88075000Y-47300000D02*
X102075000Y-47300000D01*
X88075000Y-33300000D02*
X88075000Y-47300000D01*
X102075000Y-33300000D02*
X88075000Y-33300000D01*
%TO.C,SW2*%
X37075000Y-49850000D02*
X51075000Y-49850000D01*
X37075000Y-35850000D02*
X37075000Y-49850000D01*
X51075000Y-35850000D02*
X37075000Y-35850000D01*
X51075000Y-49850000D02*
X51075000Y-35850000D01*
%TO.C,SW13*%
X54075000Y-67275000D02*
X54075000Y-81275000D01*
X54075000Y-81275000D02*
X68075000Y-81275000D01*
X68075000Y-67275000D02*
X54075000Y-67275000D01*
X68075000Y-81275000D02*
X68075000Y-67275000D01*
%TO.C,SW16*%
X60875000Y-99150000D02*
X74875000Y-99150000D01*
X60875000Y-85150000D02*
X60875000Y-99150000D01*
X74875000Y-85150000D02*
X60875000Y-85150000D01*
X74875000Y-99150000D02*
X74875000Y-85150000D01*
%TO.C,SW4*%
X85075000Y-47300000D02*
X85075000Y-33300000D01*
X85075000Y-33300000D02*
X71075000Y-33300000D01*
X71075000Y-33300000D02*
X71075000Y-47300000D01*
X71075000Y-47300000D02*
X85075000Y-47300000D01*
%TO.C,SW18*%
X94875000Y-85150000D02*
X94875000Y-99150000D01*
X108875000Y-99150000D02*
X108875000Y-85150000D01*
X94875000Y-99150000D02*
X108875000Y-99150000D01*
X108875000Y-85150000D02*
X94875000Y-85150000D01*
%TD*%
D12*
X101390000Y-26790000D03*
X104400000Y-105650000D03*
X24610000Y-105640000D03*
X24600000Y-26800000D03*
M02*
