%TF.GenerationSoftware,KiCad,Pcbnew,(6.0.6)*%
%TF.CreationDate,2022-09-19T19:58:40+09:00*%
%TF.ProjectId,split-mini_top__2,73706c69-742d-46d6-996e-695f746f705f,rev?*%
%TF.SameCoordinates,Original*%
%TF.FileFunction,Legend,Bot*%
%TF.FilePolarity,Positive*%
%FSLAX46Y46*%
G04 Gerber Fmt 4.6, Leading zero omitted, Abs format (unit mm)*
G04 Created by KiCad (PCBNEW (6.0.6)) date 2022-09-19 19:58:40*
%MOMM*%
%LPD*%
G01*
G04 APERTURE LIST*
%TA.AperFunction,Profile*%
%ADD10C,0.349999*%
%TD*%
%TA.AperFunction,Profile*%
%ADD11C,0.120000*%
%TD*%
%ADD12C,0.350000*%
%ADD13C,2.200000*%
G04 APERTURE END LIST*
D10*
X63937047Y-78670451D02*
X119203786Y-78670416D01*
X63937047Y-78670451D02*
X63937047Y-78670451D01*
X63890902Y-78671472D02*
X63937047Y-78670451D01*
X63845008Y-78674525D02*
X63890902Y-78671472D01*
X63799426Y-78679586D02*
X63845008Y-78674525D01*
X63754219Y-78686631D02*
X63799426Y-78679586D01*
X63709450Y-78695639D02*
X63754219Y-78686631D01*
X63665180Y-78706587D02*
X63709450Y-78695639D01*
X63621473Y-78719451D02*
X63665180Y-78706587D01*
X63578390Y-78734208D02*
X63621473Y-78719451D01*
X63535994Y-78750835D02*
X63578390Y-78734208D01*
X63494347Y-78769311D02*
X63535994Y-78750835D01*
X63453511Y-78789611D02*
X63494347Y-78769311D01*
X63413550Y-78811713D02*
X63453511Y-78789611D01*
X63374525Y-78835594D02*
X63413550Y-78811713D01*
X63336499Y-78861231D02*
X63374525Y-78835594D01*
X63299534Y-78888601D02*
X63336499Y-78861231D01*
X63263692Y-78917681D02*
X63299534Y-78888601D01*
X63263692Y-78917681D02*
X63263692Y-78917681D01*
X55818738Y-85237547D02*
X63263692Y-78917681D01*
X55818738Y-85237547D02*
X55818738Y-85237547D01*
X55755982Y-85288465D02*
X55818738Y-85237547D01*
X55691258Y-85336388D02*
X55755982Y-85288465D01*
X55624677Y-85381276D02*
X55691258Y-85336388D01*
X55556348Y-85423090D02*
X55624677Y-85381276D01*
X55486380Y-85461788D02*
X55556348Y-85423090D01*
X55414881Y-85497331D02*
X55486380Y-85461788D01*
X55341962Y-85529679D02*
X55414881Y-85497331D01*
X55267731Y-85558792D02*
X55341962Y-85529679D01*
X55192297Y-85584630D02*
X55267731Y-85558792D01*
X55115771Y-85607152D02*
X55192297Y-85584630D01*
X55038260Y-85626319D02*
X55115771Y-85607152D01*
X54959874Y-85642090D02*
X55038260Y-85626319D01*
X54880723Y-85654425D02*
X54959874Y-85642090D01*
X54800915Y-85663285D02*
X54880723Y-85654425D01*
X54720561Y-85668628D02*
X54800915Y-85663285D01*
X54639768Y-85670416D02*
X54720561Y-85668628D01*
X54639768Y-85670416D02*
X54639768Y-85670416D01*
X49728810Y-85670450D02*
X54639768Y-85670416D01*
X49728810Y-85670450D02*
X49728810Y-85670450D01*
X49641780Y-85672654D02*
X49728810Y-85670450D01*
X49555893Y-85679188D02*
X49641780Y-85672654D01*
X49471254Y-85689946D02*
X49555893Y-85679188D01*
X49387971Y-85704822D02*
X49471254Y-85689946D01*
X49306149Y-85723709D02*
X49387971Y-85704822D01*
X49225895Y-85746501D02*
X49306149Y-85723709D01*
X49147314Y-85773092D02*
X49225895Y-85746501D01*
X49070514Y-85803376D02*
X49147314Y-85773092D01*
X48995600Y-85837246D02*
X49070514Y-85803376D01*
X48922679Y-85874596D02*
X48995600Y-85837246D01*
X48851856Y-85915320D02*
X48922679Y-85874596D01*
X48783239Y-85959311D02*
X48851856Y-85915320D01*
X48716933Y-86006464D02*
X48783239Y-85959311D01*
X48653045Y-86056672D02*
X48716933Y-86006464D01*
X48591681Y-86109829D02*
X48653045Y-86056672D01*
X48532948Y-86165828D02*
X48591681Y-86109829D01*
X48476950Y-86224563D02*
X48532948Y-86165828D01*
X48423795Y-86285928D02*
X48476950Y-86224563D01*
X48373590Y-86349817D02*
X48423795Y-86285928D01*
X48326439Y-86416124D02*
X48373590Y-86349817D01*
X48282450Y-86484741D02*
X48326439Y-86416124D01*
X48241729Y-86555564D02*
X48282450Y-86484741D01*
X48204381Y-86628485D02*
X48241729Y-86555564D01*
X48170514Y-86703399D02*
X48204381Y-86628485D01*
X48140234Y-86780198D02*
X48170514Y-86703399D01*
X48113646Y-86858778D02*
X48140234Y-86780198D01*
X48090857Y-86939031D02*
X48113646Y-86858778D01*
X48071974Y-87020851D02*
X48090857Y-86939031D01*
X48057102Y-87104133D02*
X48071974Y-87020851D01*
X48046348Y-87188769D02*
X48057102Y-87104133D01*
X48039818Y-87274654D02*
X48046348Y-87188769D01*
X48037618Y-87361681D02*
X48039818Y-87274654D01*
X48037618Y-87361681D02*
X48037618Y-87361681D01*
X48037618Y-99830292D02*
X48037618Y-87361681D01*
X119810849Y-78670451D02*
X119203786Y-78670416D01*
X119810849Y-78670451D02*
X119810849Y-78670451D01*
X119861055Y-78671722D02*
X119810849Y-78670451D01*
X119910602Y-78675491D02*
X119861055Y-78671722D01*
X119959428Y-78681697D02*
X119910602Y-78675491D01*
X120007473Y-78690279D02*
X119959428Y-78681697D01*
X120054674Y-78701174D02*
X120007473Y-78690279D01*
X120100971Y-78714322D02*
X120054674Y-78701174D01*
X120146303Y-78729662D02*
X120100971Y-78714322D01*
X120190608Y-78747132D02*
X120146303Y-78729662D01*
X120233824Y-78766671D02*
X120190608Y-78747132D01*
X120275891Y-78788217D02*
X120233824Y-78766671D01*
X120316747Y-78811710D02*
X120275891Y-78788217D01*
X120356331Y-78837087D02*
X120316747Y-78811710D01*
X120394582Y-78864289D02*
X120356331Y-78837087D01*
X120431438Y-78893252D02*
X120394582Y-78864289D01*
X120466838Y-78923917D02*
X120431438Y-78893252D01*
X120500721Y-78956222D02*
X120466838Y-78923917D01*
X120533025Y-78990105D02*
X120500721Y-78956222D01*
X120563689Y-79025505D02*
X120533025Y-78990105D01*
X120592652Y-79062360D02*
X120563689Y-79025505D01*
X120619853Y-79100611D02*
X120592652Y-79062360D01*
X120645230Y-79140195D02*
X120619853Y-79100611D01*
X120668721Y-79181050D02*
X120645230Y-79140195D01*
X120690267Y-79223116D02*
X120668721Y-79181050D01*
X120709804Y-79266332D02*
X120690267Y-79223116D01*
X120727273Y-79310635D02*
X120709804Y-79266332D01*
X120742611Y-79355966D02*
X120727273Y-79310635D01*
X120755758Y-79402261D02*
X120742611Y-79355966D01*
X120766652Y-79449461D02*
X120755758Y-79402261D01*
X120775232Y-79497503D02*
X120766652Y-79449461D01*
X120781436Y-79546328D02*
X120775232Y-79497503D01*
X120785204Y-79595872D02*
X120781436Y-79546328D01*
X120786473Y-79646075D02*
X120785204Y-79595872D01*
X120786473Y-79646075D02*
X120786473Y-79646075D01*
X120786473Y-84494249D02*
X120786473Y-79646075D01*
X120786473Y-84494249D02*
X120786473Y-84494249D01*
X120774186Y-85298117D02*
X120786473Y-84494249D01*
X120737370Y-86100671D02*
X120774186Y-85298117D01*
X120676094Y-86901352D02*
X120737370Y-86100671D01*
X120590426Y-87699605D02*
X120676094Y-86901352D01*
X120480435Y-88494871D02*
X120590426Y-87699605D01*
X120346188Y-89286593D02*
X120480435Y-88494871D01*
X120187753Y-90074213D02*
X120346188Y-89286593D01*
X120005200Y-90857175D02*
X120187753Y-90074213D01*
X120005200Y-90857175D02*
X120005200Y-90857175D01*
X116980863Y-102987137D02*
X120005200Y-90857175D01*
X116980863Y-102987137D02*
X116980863Y-102987137D01*
X116949745Y-103099730D02*
X116980863Y-102987137D01*
X116913361Y-103209430D02*
X116949745Y-103099730D01*
X116871882Y-103316132D02*
X116913361Y-103209430D01*
X116825483Y-103419734D02*
X116871882Y-103316132D01*
X116774335Y-103520130D02*
X116825483Y-103419734D01*
X116718611Y-103617219D02*
X116774335Y-103520130D01*
X116658485Y-103710895D02*
X116718611Y-103617219D01*
X116594128Y-103801054D02*
X116658485Y-103710895D01*
X116525715Y-103887594D02*
X116594128Y-103801054D01*
X116453418Y-103970409D02*
X116525715Y-103887594D01*
X116377409Y-104049397D02*
X116453418Y-103970409D01*
X116297862Y-104124453D02*
X116377409Y-104049397D01*
X116214949Y-104195474D02*
X116297862Y-104124453D01*
X116128843Y-104262355D02*
X116214949Y-104195474D01*
X116039717Y-104324993D02*
X116128843Y-104262355D01*
X115947744Y-104383284D02*
X116039717Y-104324993D01*
X115853097Y-104437124D02*
X115947744Y-104383284D01*
X115755948Y-104486410D02*
X115853097Y-104437124D01*
X115656471Y-104531036D02*
X115755948Y-104486410D01*
X115554838Y-104570901D02*
X115656471Y-104531036D01*
X115451222Y-104605899D02*
X115554838Y-104570901D01*
X115345795Y-104635926D02*
X115451222Y-104605899D01*
X115238732Y-104660880D02*
X115345795Y-104635926D01*
X115130204Y-104680656D02*
X115238732Y-104660880D01*
X115020384Y-104695151D02*
X115130204Y-104680656D01*
X114909446Y-104704259D02*
X115020384Y-104695151D01*
X114797562Y-104707879D02*
X114909446Y-104704259D01*
X114684904Y-104705905D02*
X114797562Y-104707879D01*
X114571647Y-104698234D02*
X114684904Y-104705905D01*
X114457961Y-104684762D02*
X114571647Y-104698234D01*
X114344022Y-104665385D02*
X114457961Y-104684762D01*
X114230000Y-104640000D02*
X114344022Y-104665385D01*
X114230000Y-104640000D02*
X114230000Y-104640000D01*
X95046544Y-99857041D02*
X114230000Y-104640000D01*
X95046544Y-99857041D02*
X95046544Y-99857041D01*
X94603596Y-99750697D02*
X95046544Y-99857041D01*
X94158958Y-99652123D02*
X94603596Y-99750697D01*
X93712735Y-99561338D02*
X94158958Y-99652123D01*
X93265029Y-99478360D02*
X93712735Y-99561338D01*
X92815943Y-99403207D02*
X93265029Y-99478360D01*
X92365581Y-99335896D02*
X92815943Y-99403207D01*
X91914045Y-99276447D02*
X92365581Y-99335896D01*
X91461438Y-99224877D02*
X91914045Y-99276447D01*
X91461438Y-99224877D02*
X91461438Y-99224877D01*
X82114419Y-98242447D02*
X91461438Y-99224877D01*
X82114419Y-98242447D02*
X82114419Y-98242447D01*
X81764680Y-98208004D02*
X82114419Y-98242447D01*
X81414568Y-98178145D02*
X81764680Y-98208004D01*
X81064127Y-98152874D02*
X81414568Y-98178145D01*
X80713400Y-98132192D02*
X81064127Y-98152874D01*
X80362433Y-98116103D02*
X80713400Y-98132192D01*
X80011269Y-98104609D02*
X80362433Y-98116103D01*
X79659953Y-98097712D02*
X80011269Y-98104609D01*
X79308530Y-98095414D02*
X79659953Y-98097712D01*
X79308530Y-98095414D02*
X79308530Y-98095414D01*
X71626344Y-98095437D02*
X79308530Y-98095414D01*
X71626344Y-98095437D02*
X71626344Y-98095437D01*
X70885313Y-98107584D02*
X71626344Y-98095437D01*
X70145676Y-98143985D02*
X70885313Y-98107584D01*
X69408024Y-98204561D02*
X70145676Y-98143985D01*
X68672947Y-98289236D02*
X69408024Y-98204561D01*
X67941037Y-98397930D02*
X68672947Y-98289236D01*
X67212884Y-98530567D02*
X67941037Y-98397930D01*
X66489079Y-98687068D02*
X67212884Y-98530567D01*
X65770211Y-98867356D02*
X66489079Y-98687068D01*
X65770211Y-98867356D02*
X65770211Y-98867356D01*
X57863942Y-100988648D02*
X65770211Y-98867356D01*
X57863942Y-100988648D02*
X57863942Y-100988648D01*
X57415266Y-101101170D02*
X57863942Y-100988648D01*
X56963507Y-101198846D02*
X57415266Y-101101170D01*
X56509033Y-101281627D02*
X56963507Y-101198846D01*
X56052216Y-101349465D02*
X56509033Y-101281627D01*
X55593422Y-101402311D02*
X56052216Y-101349465D01*
X55133021Y-101440117D02*
X55593422Y-101402311D01*
X54671382Y-101462834D02*
X55133021Y-101440117D01*
X54208875Y-101470414D02*
X54671382Y-101462834D01*
X54208875Y-101470414D02*
X54208875Y-101470414D01*
X48850476Y-101470444D02*
X54208875Y-101470414D01*
X48850476Y-101470444D02*
X48850476Y-101470444D01*
X48810169Y-101469447D02*
X48850476Y-101470444D01*
X48770135Y-101466470D02*
X48810169Y-101469447D01*
X48730442Y-101461540D02*
X48770135Y-101466470D01*
X48691155Y-101454687D02*
X48730442Y-101461540D01*
X48652342Y-101445936D02*
X48691155Y-101454687D01*
X48614070Y-101435317D02*
X48652342Y-101445936D01*
X48576403Y-101422856D02*
X48614070Y-101435317D01*
X48539411Y-101408580D02*
X48576403Y-101422856D01*
X48503158Y-101392519D02*
X48539411Y-101408580D01*
X48467711Y-101374698D02*
X48503158Y-101392519D01*
X48433138Y-101355146D02*
X48467711Y-101374698D01*
X48399505Y-101333891D02*
X48433138Y-101355146D01*
X48366878Y-101310959D02*
X48399505Y-101333891D01*
X48335323Y-101286379D02*
X48366878Y-101310959D01*
X48304909Y-101260178D02*
X48335323Y-101286379D01*
X48275701Y-101232384D02*
X48304909Y-101260178D01*
X48275701Y-101232384D02*
X48275701Y-101232384D01*
X48247905Y-101203177D02*
X48275701Y-101232384D01*
X48221703Y-101172764D02*
X48247905Y-101203177D01*
X48197121Y-101141211D02*
X48221703Y-101172764D01*
X48174188Y-101108584D02*
X48197121Y-101141211D01*
X48152931Y-101074951D02*
X48174188Y-101108584D01*
X48133378Y-101040378D02*
X48152931Y-101074951D01*
X48115556Y-101004931D02*
X48133378Y-101040378D01*
X48099493Y-100968677D02*
X48115556Y-101004931D01*
X48085216Y-100931683D02*
X48099493Y-100968677D01*
X48072754Y-100894015D02*
X48085216Y-100931683D01*
X48062133Y-100855740D02*
X48072754Y-100894015D01*
X48053381Y-100816924D02*
X48062133Y-100855740D01*
X48046526Y-100777634D02*
X48053381Y-100816924D01*
X48041595Y-100737937D02*
X48046526Y-100777634D01*
X48038617Y-100697898D02*
X48041595Y-100737937D01*
X48037618Y-100657586D02*
X48038617Y-100697898D01*
X48037618Y-100657586D02*
X48037618Y-100657586D01*
X48037618Y-99830292D02*
X48037618Y-100657586D01*
D11*
%TO.C,SW16*%
X68370000Y-82080000D02*
X68370000Y-96080000D01*
X68370000Y-96080000D02*
X82370000Y-96080000D01*
X82370000Y-82080000D02*
X68370000Y-82080000D01*
X82370000Y-96080000D02*
X82370000Y-82080000D01*
%TO.C,SW18*%
X101383577Y-99337617D02*
X114967717Y-102724523D01*
X104770483Y-85753477D02*
X101383577Y-99337617D01*
X118354623Y-89140383D02*
X104770483Y-85753477D01*
X114967717Y-102724523D02*
X118354623Y-89140383D01*
%TO.C,SW17*%
X100346253Y-84056746D02*
X86422946Y-82593347D01*
X86422946Y-82593347D02*
X84959547Y-96516654D01*
X84959547Y-96516654D02*
X98882854Y-97980053D01*
X98882854Y-97980053D02*
X100346253Y-84056746D01*
%TD*%
D12*
X112800000Y-84690000D03*
X53040000Y-95600000D03*
%LPC*%
D13*
%TO.C,HOLE5*%
X112800000Y-84690000D03*
%TD*%
%TO.C,HOLE4*%
X53040000Y-95600000D03*
%TD*%
M02*
