M48
METRIC,TZ
T1C0.650
T2C1.200
T3C1.900
T4C3.000
T5C4.100
%
G90
G05
T1
X92860Y-24790
X98640Y-24790
T2
X26450Y-20775
X26450Y-27775
T3
X28570Y-91700
X35320Y-56850
X35370Y-39825
X35370Y-73850
X38730Y-91700
X45480Y-56850
X45530Y-39825
X45530Y-73850
X45570Y-91700
X52345Y-73850
X52355Y-56855
X52395Y-39850
X55730Y-91700
X62505Y-73850
X62515Y-56855
X62555Y-39850
X62570Y-91725
X69370Y-39825
X69370Y-56850
X69370Y-73850
X72730Y-91725
X79530Y-39825
X79530Y-56850
X79530Y-73850
X86355Y-76390
X86370Y-42400
X86370Y-59375
X96515Y-76390
X96530Y-42400
X96530Y-59375
X103370Y-63650
X103370Y-80650
X103395Y-46650
X113530Y-63650
X113530Y-80650
X113555Y-46650
T4
X29840Y-89160
X36190Y-86620
X36590Y-54310
X36640Y-37285
X36640Y-71310
X42940Y-51770
X42990Y-34745
X42990Y-68770
X46840Y-89160
X53190Y-86620
X53615Y-71310
X53625Y-54315
X53665Y-37310
X59965Y-68770
X59975Y-51775
X60015Y-34770
X63840Y-89185
X70190Y-86645
X70640Y-37285
X70640Y-54310
X70640Y-71310
X76990Y-34745
X76990Y-51770
X76990Y-68770
X87625Y-73850
X87640Y-39860
X87640Y-56835
X93975Y-71310
X93990Y-37320
X93990Y-54295
X104640Y-61110
X104640Y-78110
X104665Y-44110
X110990Y-58570
X110990Y-75570
X111015Y-41570
T5
X33650Y-91700
X40400Y-56850
X40450Y-39825
X40450Y-73850
X50650Y-91700
X57425Y-73850
X57435Y-56855
X57475Y-39850
X67650Y-91725
X74450Y-39825
X74450Y-56850
X74450Y-73850
X91435Y-76390
X91450Y-42400
X91450Y-59375
X108450Y-63650
X108450Y-80650
X108475Y-46650
T0
M30
