M48
METRIC,TZ
T1C0.400
T2C0.600
T3C1.000
%
G90
G05
T1
X27800Y-24200
X41100Y-97100
X47625Y-45250
X48475Y-77350
X48650Y-61950
X58550Y-96900
X64300Y-75900
X64600Y-45400
X65000Y-62675
X76300Y-96250
X80850Y-62575
X80976Y-80526
X81044Y-93298
X81132Y-92302
X81556Y-91397
X81841Y-90439
X81977Y-89449
X82125Y-45425
X82200Y-88474
X84600Y-84600
X85215Y-69000
X85250Y-35900
X86143Y-68026
X86200Y-98075
X86225Y-52100
X86625Y-80075
X87056Y-80976
X87325Y-82026
X87513Y-98137
X88552Y-98216
X88975Y-80400
X89675Y-98175
X90950Y-98200
X91175Y-83475
X92175Y-82925
X93212Y-83063
X93644Y-82161
X94175Y-100275
X94425Y-31950
X95425Y-29000
X96775Y-87275
X97712Y-52163
X98200Y-91625
X98500Y-86325
X98875Y-52000
X99300Y-92100
X99350Y-34900
X99381Y-78249
X100050Y-86950
X100100Y-93000
X100685Y-93810
X101025Y-88950
X103700Y-34450
X108200Y-32800
X114700Y-86800
X114700Y-88000
X114825Y-85600
T2
G00X91430Y-20710
M15
G01X91430Y-21510
M16
G05
G00X91430Y-24740
M15
G01X91430Y-25840
M16
G05
G00X100070Y-20710
M15
G01X100070Y-21510
M16
G05
G00X100070Y-24740
M15
G01X100070Y-25840
M16
G05
T3
G00X24350Y-22825
M15
G01X24350Y-22325
M16
G05
G00X24350Y-25825
M15
G01X24350Y-25325
M16
G05
G00X24350Y-29825
M15
G01X24350Y-29325
M16
G05
G00X28550Y-31325
M15
G01X28550Y-30825
M16
G05
T0
M30
