%TF.GenerationSoftware,KiCad,Pcbnew,(6.0.6)*%
%TF.CreationDate,2022-11-27T23:56:46+09:00*%
%TF.ProjectId,split-mini__top,73706c69-742d-46d6-996e-695f5f746f70,rev?*%
%TF.SameCoordinates,Original*%
%TF.FileFunction,Profile,NP*%
%FSLAX46Y46*%
G04 Gerber Fmt 4.6, Leading zero omitted, Abs format (unit mm)*
G04 Created by KiCad (PCBNEW (6.0.6)) date 2022-11-27 23:56:46*
%MOMM*%
%LPD*%
G01*
G04 APERTURE LIST*
%TA.AperFunction,Profile*%
%ADD10C,0.100000*%
%TD*%
%TA.AperFunction,Profile*%
%ADD11C,0.120000*%
%TD*%
G04 APERTURE END LIST*
D10*
X24700022Y-109424877D02*
G75*
G03*
X25481692Y-110400757I999978J-23D01*
G01*
X114475000Y-117900000D02*
X114475000Y-48967011D01*
X25481692Y-110400757D02*
X63367178Y-118875879D01*
X24700000Y-52525000D02*
X24700000Y-109424877D01*
X56994979Y-48628817D02*
X59614674Y-36918258D01*
X48700000Y-51525000D02*
X56994979Y-48628817D01*
X113475000Y-118900000D02*
G75*
G03*
X114475000Y-117900000I0J1000000D01*
G01*
X63367176Y-118875886D02*
G75*
G03*
X63585486Y-118900000I218224J975386D01*
G01*
X63585486Y-118900000D02*
X113475000Y-118900000D01*
X25700000Y-51525000D02*
X48700000Y-51525000D01*
X60808868Y-36160658D02*
G75*
G03*
X59614674Y-36918258I-218268J-975942D01*
G01*
X113693308Y-47991131D02*
X60808862Y-36160686D01*
X25700000Y-51525000D02*
G75*
G03*
X24700000Y-52525000I0J-1000000D01*
G01*
X114475009Y-48967011D02*
G75*
G03*
X113693308Y-47991131I-1000109J-89D01*
G01*
D11*
%TO.C,SW6*%
X40650000Y-74050000D02*
X26650000Y-74050000D01*
X26650000Y-88050000D02*
X40650000Y-88050000D01*
X26650000Y-74050000D02*
X26650000Y-88050000D01*
X40650000Y-88050000D02*
X40650000Y-74050000D01*
%TO.C,SW11*%
X40720000Y-104500000D02*
X40720000Y-90500000D01*
X26720000Y-90500000D02*
X26720000Y-104500000D01*
X40720000Y-90500000D02*
X26720000Y-90500000D01*
X26720000Y-104500000D02*
X40720000Y-104500000D01*
%TO.C,SW9*%
X76210000Y-83090000D02*
X90210000Y-83090000D01*
X90210000Y-83090000D02*
X90210000Y-69090000D01*
X90210000Y-69090000D02*
X76210000Y-69090000D01*
X76210000Y-69090000D02*
X76210000Y-83090000D01*
%TO.C,SW3*%
X73650000Y-66590000D02*
X73650000Y-52590000D01*
X73650000Y-52590000D02*
X59650000Y-52590000D01*
X59650000Y-66590000D02*
X73650000Y-66590000D01*
X59650000Y-52590000D02*
X59650000Y-66590000D01*
%TO.C,SW5*%
X92700000Y-66520000D02*
X106700000Y-66520000D01*
X106700000Y-52520000D02*
X92700000Y-52520000D01*
X92700000Y-52520000D02*
X92700000Y-66520000D01*
X106700000Y-66520000D02*
X106700000Y-52520000D01*
%TO.C,SW15*%
X106730000Y-99570000D02*
X106730000Y-85570000D01*
X92730000Y-99570000D02*
X106730000Y-99570000D01*
X106730000Y-85570000D02*
X92730000Y-85570000D01*
X92730000Y-85570000D02*
X92730000Y-99570000D01*
%TO.C,SW7*%
X57190000Y-71550000D02*
X43190000Y-71550000D01*
X43190000Y-71550000D02*
X43190000Y-85550000D01*
X43190000Y-85550000D02*
X57190000Y-85550000D01*
X57190000Y-85550000D02*
X57190000Y-71550000D01*
%TO.C,SW16*%
X79470000Y-116870000D02*
X79470000Y-102870000D01*
X65470000Y-116870000D02*
X79470000Y-116870000D01*
X65470000Y-102870000D02*
X65470000Y-116870000D01*
X79470000Y-102870000D02*
X65470000Y-102870000D01*
%TO.C,SW18*%
X112490000Y-116940000D02*
X112490000Y-102940000D01*
X98490000Y-102940000D02*
X98490000Y-116940000D01*
X112490000Y-102940000D02*
X98490000Y-102940000D01*
X98490000Y-116940000D02*
X112490000Y-116940000D01*
%TO.C,SW8*%
X59680000Y-69070000D02*
X59680000Y-83070000D01*
X73680000Y-69070000D02*
X59680000Y-69070000D01*
X59680000Y-83070000D02*
X73680000Y-83070000D01*
X73680000Y-83070000D02*
X73680000Y-69070000D01*
%TO.C,SW17*%
X82040000Y-116900000D02*
X96040000Y-116900000D01*
X96040000Y-102900000D02*
X82040000Y-102900000D01*
X96040000Y-116900000D02*
X96040000Y-102900000D01*
X82040000Y-102900000D02*
X82040000Y-116900000D01*
%TO.C,SW10*%
X106710000Y-69080000D02*
X92710000Y-69080000D01*
X92710000Y-83080000D02*
X106710000Y-83080000D01*
X92710000Y-69080000D02*
X92710000Y-83080000D01*
X106710000Y-83080000D02*
X106710000Y-69080000D01*
%TO.C,SW2*%
X43180000Y-69040000D02*
X57180000Y-69040000D01*
X57180000Y-69040000D02*
X57180000Y-55040000D01*
X57180000Y-55040000D02*
X43180000Y-55040000D01*
X43180000Y-55040000D02*
X43180000Y-69040000D01*
%TO.C,SW13*%
X59730000Y-99570000D02*
X73730000Y-99570000D01*
X73730000Y-85570000D02*
X59730000Y-85570000D01*
X59730000Y-85570000D02*
X59730000Y-99570000D01*
X73730000Y-99570000D02*
X73730000Y-85570000D01*
%TO.C,SW12*%
X43210000Y-102050000D02*
X57210000Y-102050000D01*
X43210000Y-88050000D02*
X43210000Y-102050000D01*
X57210000Y-102050000D02*
X57210000Y-88050000D01*
X57210000Y-88050000D02*
X43210000Y-88050000D01*
%TO.C,SW14*%
X76210000Y-99580000D02*
X90210000Y-99580000D01*
X90210000Y-99580000D02*
X90210000Y-85580000D01*
X90210000Y-85580000D02*
X76210000Y-85580000D01*
X76210000Y-85580000D02*
X76210000Y-99580000D01*
%TO.C,SW1*%
X40710000Y-71550000D02*
X40710000Y-57550000D01*
X40710000Y-57550000D02*
X26710000Y-57550000D01*
X26710000Y-71550000D02*
X40710000Y-71550000D01*
X26710000Y-57550000D02*
X26710000Y-71550000D01*
%TO.C,SW4*%
X90210000Y-66580000D02*
X90210000Y-52580000D01*
X76210000Y-52580000D02*
X76210000Y-66580000D01*
X90210000Y-52580000D02*
X76210000Y-52580000D01*
X76210000Y-66580000D02*
X90210000Y-66580000D01*
%TD*%
M02*
