M48
; DRILL file {KiCad (6.0.6)} date 2022年11月27日 23時56分06秒
; FORMAT={-:-/ absolute / metric / decimal}
; #@! TF.CreationDate,2022-11-27T23:56:06+09:00
; #@! TF.GenerationSoftware,Kicad,Pcbnew,(6.0.6)
; #@! TF.FileFunction,NonPlated,1,2,NPTH
FMAT,2
METRIC
; #@! TA.AperFunction,NonPlated,NPTH,ComponentDrill
T1C1.200
; #@! TA.AperFunction,NonPlated,NPTH,ComponentDrill
T2C1.702
; #@! TA.AperFunction,NonPlated,NPTH,ComponentDrill
T3C3.000
; #@! TA.AperFunction,NonPlated,NPTH,ComponentDrill
T4C3.988
; #@! TA.AperFunction,NonPlated,NPTH,ComponentDrill
T5C5.000
%
G90
G05
T1
X52.784Y-43.184
X54.239Y-36.337
X54.496Y-43.548
X55.951Y-36.701
T2
X28.57Y-81.05
X28.63Y-64.55
X28.64Y-97.5
X38.73Y-81.05
X38.79Y-64.55
X38.8Y-97.5
X45.1Y-62.04
X45.11Y-78.55
X45.13Y-95.05
X55.26Y-62.04
X55.27Y-78.55
X55.29Y-95.05
X61.57Y-59.59
X61.6Y-76.07
X61.65Y-92.57
X67.39Y-109.87
X71.73Y-59.59
X71.76Y-76.07
X71.81Y-92.57
X77.55Y-109.87
X78.13Y-59.58
X78.13Y-76.09
X78.13Y-92.58
X83.96Y-109.9
X88.29Y-59.58
X88.29Y-76.09
X88.29Y-92.58
X94.12Y-109.9
X94.62Y-59.52
X94.63Y-76.08
X94.65Y-92.57
X100.41Y-109.94
X104.78Y-59.52
X104.79Y-76.08
X104.81Y-92.57
X110.57Y-109.94
T3
X29.84Y-78.51
X29.9Y-62.01
X29.91Y-94.96
X31.11Y-75.97
X31.17Y-59.47
X31.18Y-92.42
X36.19Y-75.97
X36.25Y-59.47
X36.26Y-92.42
X37.46Y-78.6
X37.52Y-62.1
X37.53Y-95.05
X46.37Y-59.5
X46.38Y-76.01
X46.4Y-92.51
X47.64Y-56.96
X47.65Y-73.47
X47.67Y-89.97
X52.72Y-56.96
X52.73Y-73.47
X52.75Y-89.97
X53.99Y-59.59
X54.0Y-76.1
X54.02Y-92.6
X62.84Y-57.05
X62.87Y-73.53
X62.92Y-90.03
X64.11Y-54.51
X64.14Y-70.99
X64.19Y-87.49
X68.66Y-107.33
X69.19Y-54.51
X69.22Y-70.99
X69.27Y-87.49
X69.93Y-104.79
X70.46Y-57.14
X70.49Y-73.62
X70.54Y-90.12
X75.01Y-104.79
X76.28Y-107.42
X79.4Y-57.04
X79.4Y-73.55
X79.4Y-90.04
X80.67Y-54.5
X80.67Y-71.01
X80.67Y-87.5
X85.23Y-107.36
X85.75Y-54.5
X85.75Y-71.01
X85.75Y-87.5
X86.5Y-104.82
X87.02Y-57.13
X87.02Y-73.64
X87.02Y-90.13
X91.58Y-104.82
X92.85Y-107.45
X95.89Y-56.98
X95.9Y-73.54
X95.92Y-90.03
X97.16Y-54.44
X97.17Y-71.0
X97.19Y-87.49
X101.68Y-107.4
X102.24Y-54.44
X102.25Y-71.0
X102.27Y-87.49
X102.95Y-104.86
X103.51Y-57.07
X103.52Y-73.63
X103.54Y-90.12
X108.03Y-104.86
X109.3Y-107.49
T4
X33.65Y-81.05
X33.71Y-64.55
X33.72Y-97.5
X50.18Y-62.04
X50.19Y-78.55
X50.21Y-95.05
X66.65Y-59.59
X66.68Y-76.07
X66.73Y-92.57
X72.47Y-109.87
X83.21Y-59.58
X83.21Y-76.09
X83.21Y-92.58
X89.04Y-109.9
X99.7Y-59.52
X99.71Y-76.08
X99.73Y-92.57
X105.49Y-109.94
T5
X33.69Y-108.03
X33.73Y-54.53
X60.48Y-112.87
X99.71Y-49.06
X110.2Y-93.56
T0
M30
