<?xml version="1.0"?>
<!DOCTYPE svg PUBLIC "-//W3C//DTD SVG 1.1//EN" "http://www.w3.org/Graphics/SVG/1.1/DTD/svg11.dtd">
<svg width="101.7438319461473mm" height="89.31399497327902mm" viewBox="0 0 101.7438319461473 89.31399497327902" xmlns="http://www.w3.org/2000/svg" version="1.1">
<g id="Sketch021" transform="translate(104.700215,10.579148) scale(1,-1)">
<path id="Sketch021_w0000"  d="M -101.7027267456054 -0.0045065109374889 L -87.70272674560547 -0.0003662109375 L -87.70272674560547 -14.0003662109375 L -101.70272674560547 -14.0003662109375 L -101.70272674560547 -0.0003662109375 " stroke="#191919" stroke-width="0.35 px" style="stroke-width:0.35;stroke-miterlimit:4;stroke-dasharray:none;fill:none;fill-opacity:1;fill-rule: evenodd"/>
<path id="Sketch021_w0001"  d="M -69.55272674560547 -14.0003662109375 L -69.55272674560547 -0.0003662109375 L -83.55272674560547 -0.0003662109375 L -83.55272674560547 -14.0003662109375 L -69.55272674560547 -14.0003662109375 " stroke="#191919" stroke-width="0.35 px" style="stroke-width:0.35;stroke-miterlimit:4;stroke-dasharray:none;fill:none;fill-opacity:1;fill-rule: evenodd"/>
<path id="Sketch021_w0002"  d="M -53.05272674560547 -14.0003662109375 L -53.05272674560547 -0.0003662109375 L -67.05272674560547 -0.0003662109375 L -67.05272674560547 -14.0003662109375 L -53.05272674560547 -14.0003662109375 " stroke="#191919" stroke-width="0.35 px" style="stroke-width:0.35;stroke-miterlimit:4;stroke-dasharray:none;fill:none;fill-opacity:1;fill-rule: evenodd"/>
<path id="Sketch021_w0003"  d="M -36.55272674560547 -14.0003662109375 L -36.55272674560547 -0.0003662109375 L -50.55272674560547 -0.0003662109375 L -50.55272674560547 -14.0003662109375 L -36.55272674560547 -14.0003662109375 " stroke="#191919" stroke-width="0.35 px" style="stroke-width:0.35;stroke-miterlimit:4;stroke-dasharray:none;fill:none;fill-opacity:1;fill-rule: evenodd"/>
<path id="Sketch021_w0004"  d="M -20.05272674560547 -14.0003662109375 L -20.05272674560547 -0.0003662109375 L -34.05272674560547 -0.0003662109375 L -34.05272674560547 -14.0003662109375 L -20.05272674560547 -14.0003662109375 " stroke="#191919" stroke-width="0.35 px" style="stroke-width:0.35;stroke-miterlimit:4;stroke-dasharray:none;fill:none;fill-opacity:1;fill-rule: evenodd"/>
<path id="Sketch021_w0005"  d="M -87.70272674560547 -31.5003662109375 L -87.70272674560547 -17.5003662109375 L -101.70272674560547 -17.5003662109375 L -101.70272674560547 -31.5003662109375 L -87.70272674560547 -31.5003662109375 " stroke="#191919" stroke-width="0.35 px" style="stroke-width:0.35;stroke-miterlimit:4;stroke-dasharray:none;fill:none;fill-opacity:1;fill-rule: evenodd"/>
<path id="Sketch021_w0006"  d="M -69.55272674560547 -31.5003662109375 L -69.55272674560547 -17.5003662109375 L -83.55272674560547 -17.5003662109375 L -83.55272674560547 -31.5003662109375 L -69.55272674560547 -31.5003662109375 " stroke="#191919" stroke-width="0.35 px" style="stroke-width:0.35;stroke-miterlimit:4;stroke-dasharray:none;fill:none;fill-opacity:1;fill-rule: evenodd"/>
<path id="Sketch021_w0007"  d="M -53.05272674560547 -31.5003662109375 L -53.05272674560547 -17.5003662109375 L -67.05272674560547 -17.5003662109375 L -67.05272674560547 -31.5003662109375 L -53.05272674560547 -31.5003662109375 " stroke="#191919" stroke-width="0.35 px" style="stroke-width:0.35;stroke-miterlimit:4;stroke-dasharray:none;fill:none;fill-opacity:1;fill-rule: evenodd"/>
<path id="Sketch021_w0008"  d="M -36.55272674560547 -31.5003662109375 L -36.55272674560547 -17.5003662109375 L -50.55272674560547 -17.5003662109375 L -50.55272674560547 -31.5003662109375 L -36.55272674560547 -31.5003662109375 " stroke="#191919" stroke-width="0.35 px" style="stroke-width:0.35;stroke-miterlimit:4;stroke-dasharray:none;fill:none;fill-opacity:1;fill-rule: evenodd"/>
<path id="Sketch021_w0009"  d="M -20.05272674560547 -31.5003662109375 L -20.05272674560547 -17.5003662109375 L -34.05272674560547 -17.5003662109375 L -34.05272674560547 -31.5003662109375 L -20.05272674560547 -31.5003662109375 " stroke="#191919" stroke-width="0.35 px" style="stroke-width:0.35;stroke-miterlimit:4;stroke-dasharray:none;fill:none;fill-opacity:1;fill-rule: evenodd"/>
<path id="Sketch021_w0010"  d="M -87.70272674560547 -49.0003662109375 L -87.70272674560547 -35.0003662109375 L -101.70272674560547 -35.0003662109375 L -101.70272674560547 -49.000366210937464 L -87.70272674560547 -49.0003662109375 " stroke="#191919" stroke-width="0.35 px" style="stroke-width:0.35;stroke-miterlimit:4;stroke-dasharray:none;fill:none;fill-opacity:1;fill-rule: evenodd"/>
<path id="Sketch021_w0011"  d="M -69.55272674560547 -49.0003662109375 L -69.55272674560547 -35.0003662109375 L -83.55272674560547 -35.0003662109375 L -83.55272674560547 -49.0003662109375 L -69.55272674560547 -49.0003662109375 " stroke="#191919" stroke-width="0.35 px" style="stroke-width:0.35;stroke-miterlimit:4;stroke-dasharray:none;fill:none;fill-opacity:1;fill-rule: evenodd"/>
<path id="Sketch021_w0012"  d="M -53.05272674560547 -49.0003662109375 L -53.05272674560547 -35.0003662109375 L -67.05272674560547 -35.0003662109375 L -67.05272674560547 -49.0003662109375 L -53.05272674560547 -49.0003662109375 " stroke="#191919" stroke-width="0.35 px" style="stroke-width:0.35;stroke-miterlimit:4;stroke-dasharray:none;fill:none;fill-opacity:1;fill-rule: evenodd"/>
<path id="Sketch021_w0013"  d="M -36.55272674560547 -49.0003662109375 L -36.55272674560547 -35.0003662109375 L -50.55272674560547 -35.0003662109375 L -50.55272674560547 -49.0003662109375 L -36.55272674560547 -49.0003662109375 " stroke="#191919" stroke-width="0.35 px" style="stroke-width:0.35;stroke-miterlimit:4;stroke-dasharray:none;fill:none;fill-opacity:1;fill-rule: evenodd"/>
<path id="Sketch021_w0014"  d="M -20.05272674560547 -49.0003662109375 L -20.05272674560547 -35.0003662109375 L -34.05272674560547 -35.0003662109375 L -34.05272674560547 -49.0003662109375 L -20.03014357386774 -49.000366 " stroke="#191919" stroke-width="0.35 px" style="stroke-width:0.35;stroke-miterlimit:4;stroke-dasharray:none;fill:none;fill-opacity:1;fill-rule: evenodd"/>
<path id="Sketch021_w0015"  d="M -42.327726745605474 -69.1253662109375 L -42.327726745605474 -55.1253662109375 L -56.32772674560547 -55.1253662109375 L -56.32772674560547 -69.1253662109375 L -42.327726745605474 -69.1253662109375 " stroke="#191919" stroke-width="0.35 px" style="stroke-width:0.35;stroke-miterlimit:4;stroke-dasharray:none;fill:none;fill-opacity:1;fill-rule: evenodd"/>
<path id="Sketch021_w0016"  d="M -25.851959445605473 -71.0244156109375 L -24.388560945605462 -57.1011091109375 L -38.31186744560547 -55.6377106109375 L -39.77526594560547 -69.5610171109375 L -25.851959445605473 -71.0244156109375 " stroke="#191919" stroke-width="0.35 px" style="stroke-width:0.35;stroke-miterlimit:4;stroke-dasharray:none;fill:none;fill-opacity:1;fill-rule: evenodd"/>
<path id="Sketch021_w0017"  d="M -9.765213745605465 -75.7945065109375 L -6.378307145605476 -62.2103663109375 L -19.96244734560547 -58.8234597109375 L -23.349353945605472 -72.4075999109375 L -9.765213745605465 -75.7945065109375 " stroke="#191919" stroke-width="0.35 px" style="stroke-width:0.35;stroke-miterlimit:4;stroke-dasharray:none;fill:none;fill-opacity:1;fill-rule: evenodd"/>
<path id="Sketch021_w0018"  d="M -103.7027267456054 -51.00036621093743 L -77.72946175472214 -51.00036621093743 A 1.02674 1.02674 0 0 0 -76.7027 -52.0271L -76.70272674560529 -56.34547743683004 A 1.65489 1.65489 0 0 1 -75.0478 -58.0004L -69.68866739656978 -58.00036621093748 L -61.78696823268109 -51.292851336344576 A 1.23081 1.23081 0 0 0 -60.9904 -51.0004L -20.04143547827156 -51.00036621093756 A 1.98871 1.98871 0 0 1 -18.0527 -49.0117L -18.05272674560547 3.087199264166456 A 2.90829 2.90829 0 0 1 -20.961 5.99549L -100.9845318147067 5.995493489062511 A 2.71819 2.71819 0 0 1 -103.703 3.2773L -103.70272674560539 -72.19165873266603 A 2.30871 2.30871 0 0 1 -101.394 -74.5004L -70.53147482510228 -74.50036621093744 A 14.1049 14.1049 0 0 1 -66.8764 -74.0186L -58.97013446840959 -71.89731108685419 A 22.5987 22.5987 0 0 0 -53.114 -71.1254L -45.431817663569035 -71.12536621093747 A 26.8432 26.8432 0 0 0 -42.6259 -71.2724L -33.27890663951453 -72.25482855558593 A 26.0938 26.0938 0 0 0 -29.6938 -72.887L -10.5103464247916 -77.6699513258518 A 2.26929 2.26929 0 0 1 -7.75948 -76.0171L -4.7351431528426815 -63.8871264680934 A 26.3016 26.3016 0 0 1 -3.95387 -57.5242L -3.9538718964413984 -43.18566509529958 A 1.57288 1.57288 0 0 1 -5.09321 -41.6737L -18.052726745605472 -37.95762973304163 " stroke="#191919" stroke-width="0.35 px" style="stroke-width:0.35;stroke-miterlimit:4;stroke-dasharray:none;fill:none;fill-opacity:1;fill-rule: evenodd"/>
<path id="Sketch021_w0019"  d="M -102.7027267456054 -52.00036621093743 L -78.7027267456054 -52.00036621093743 L -78.7027267456054 -73.00036621093743 L -102.7027267456054 -73.00036621093743 L -102.7027267456054 -52.00036621093743 " stroke="#191919" stroke-width="0.35 px" style="stroke-width:0.35;stroke-miterlimit:4;stroke-dasharray:none;fill:none;fill-opacity:1;fill-rule: evenodd"/>
<circle cx="-94.70272674560547" cy="2.9954934890625107" r="1.0" stroke="#191919" stroke-width="0.35 px" style="stroke-width:0.35;stroke-miterlimit:4;stroke-dasharray:none;fill:none"/>
<circle cx="-27.05272674560547" cy="2.9954934890625107" r="1.0" stroke="#191919" stroke-width="0.35 px" style="stroke-width:0.35;stroke-miterlimit:4;stroke-dasharray:none;fill:none"/>
<path id="Sketch021_w0022"  d="M -76.70145821124103 -74.50036621093743 L -76.70145821124103 -60.39163021093744 A 1.69126 1.69126 0 0 0 -75.0102 -58.7004L -70.10057685873868 -58.700366207155426 A 1.82174 1.82174 0 0 1 -68.9216 -58.2675L -61.47665349180657 -51.94763066607974 A 1.04052 1.04052 0 0 0 -60.8033 -51.7004L -3.953871896441399 -51.70036618711519 " stroke="#191919" stroke-width="0.35 px" style="stroke-width:0.35;stroke-miterlimit:4;stroke-dasharray:none;fill:none;fill-opacity:1;fill-rule: evenodd"/>
<circle cx="-71.70145821124109" cy="-68.65036621093746" r="2.5" stroke="#191919" stroke-width="0.35 px" style="stroke-width:0.35;stroke-miterlimit:4;stroke-dasharray:none;fill:none"/>
<path id="Sketch021_w0024"  d="M -17.4538718964414 -42.5003661871152 L -4.453871896441399 -42.5003661871152 L -4.453871896441399 -51.0003661871152 L -17.4538718964414 -51.0003661871152 L -17.4538718964414 -42.5003661871152 " stroke="#191919" stroke-width="0.35 px" style="stroke-width:0.35;stroke-miterlimit:4;stroke-dasharray:none;fill:none;fill-opacity:1;fill-rule: evenodd"/>
<circle cx="-11.933871896441401" cy="-57.73336753411477" r="2.5" stroke="#191919" stroke-width="0.35 px" style="stroke-width:0.35;stroke-miterlimit:4;stroke-dasharray:none;fill:none"/>
<path id="Sketch021_w0026"  d="M -16.052726745605472 -38.53112059303821 L -3.953871896441399 -42.00041192924868 L -3.953871896441399 -49.70035110735694 " stroke="#191919" stroke-width="0.35 px" style="stroke-width:0.35;stroke-miterlimit:4;stroke-dasharray:none;fill:none;fill-opacity:1;fill-rule: evenodd"/>
<circle cx="-72.7027267456054" cy="-54.000366210937436" r="2.5" stroke="#191919" stroke-width="0.35 px" style="stroke-width:0.35;stroke-miterlimit:4;stroke-dasharray:none;fill:none"/>
<path id="Sketch021_w0028"  d="M -70.94119061600753 -58.000366210937436 A 3.41097 3.41097 0 0 1 -68.7338 -57.1898" stroke="#191919" stroke-width="0.35 px" style="stroke-width:0.35;stroke-miterlimit:4;stroke-dasharray:none;fill:none;fill-opacity:1;fill-rule: evenodd"/>
<path id="Sketch021_w0029"  d="M -99.029053 2.995493489062506 L -90.719269 2.995493489062506 " stroke="#191919" stroke-width="0.35 px" style="stroke-width:0.35;stroke-miterlimit:4;stroke-dasharray:none;fill:none;fill-opacity:1;fill-rule: evenodd"/>
<path id="Sketch021_w0030"  d="M -94.70272674560547 7.203838 L -94.70272674560547 -1.8863089999999998 " stroke="#191919" stroke-width="0.35 px" style="stroke-width:0.35;stroke-miterlimit:4;stroke-dasharray:none;fill:none;fill-opacity:1;fill-rule: evenodd"/>
<path id="Sketch021_w0031"  d="M -32.931521000000004 2.9954934890625116 L -22.17112 2.9954934890625116 " stroke="#191919" stroke-width="0.35 px" style="stroke-width:0.35;stroke-miterlimit:4;stroke-dasharray:none;fill:none;fill-opacity:1;fill-rule: evenodd"/>
<path id="Sketch021_w0032"  d="M -27.05272674560547 9.581659 L -27.05272674560547 -3.7535500000000006 " stroke="#191919" stroke-width="0.35 px" style="stroke-width:0.35;stroke-miterlimit:4;stroke-dasharray:none;fill:none;fill-opacity:1;fill-rule: evenodd"/>
<path id="Sketch021_w0033"  d="M -67.997192 -54.0003662109375 L -78.162979 -54.0003662109375 " stroke="#191919" stroke-width="0.35 px" style="stroke-width:0.35;stroke-miterlimit:4;stroke-dasharray:none;fill:none;fill-opacity:1;fill-rule: evenodd"/>
<path id="Sketch021_w0034"  d="M -72.70272674560537 -49.71501500000001 L -72.70272674560537 -61.209517999999996 " stroke="#191919" stroke-width="0.35 px" style="stroke-width:0.35;stroke-miterlimit:4;stroke-dasharray:none;fill:none;fill-opacity:1;fill-rule: evenodd"/>
<path id="Sketch021_w0035"  d="M -71.70145821124106 -63.302822 L -71.70145821124106 -71.38903 " stroke="#191919" stroke-width="0.35 px" style="stroke-width:0.35;stroke-miterlimit:4;stroke-dasharray:none;fill:none;fill-opacity:1;fill-rule: evenodd"/>
<path id="Sketch021_w0036"  d="M -76.977051 -68.65036621093746 L -65.681538 -68.65036621093746 " stroke="#191919" stroke-width="0.35 px" style="stroke-width:0.35;stroke-miterlimit:4;stroke-dasharray:none;fill:none;fill-opacity:1;fill-rule: evenodd"/>
<path id="Sketch021_w0037"  d="M -8.105092 -57.73336753411477 L -16.732723 -57.73336753411477 " stroke="#191919" stroke-width="0.35 px" style="stroke-width:0.35;stroke-miterlimit:4;stroke-dasharray:none;fill:none;fill-opacity:1;fill-rule: evenodd"/>
<path id="Sketch021_w0038"  d="M -11.93387189644139 -53.643837 L -11.93387189644139 -61.831974 " stroke="#191919" stroke-width="0.35 px" style="stroke-width:0.35;stroke-miterlimit:4;stroke-dasharray:none;fill:none;fill-opacity:1;fill-rule: evenodd"/>
<title>b'\xe3\x83\x99\xe3\x83\xbc\xe3\x82\xb9012'</title>
</g>
</svg>