<?xml version="1.0"?>
<!DOCTYPE svg PUBLIC "-//W3C//DTD SVG 1.1//EN" "http://www.w3.org/Graphics/SVG/1.1/DTD/svg11.dtd">
<svg width="87.36299999999996mm" height="65.70885970000008mm" viewBox="0 0 87.36299999999996 65.70885970000008" xmlns="http://www.w3.org/2000/svg" version="1.1">
<g id="Sketch027" transform="translate(104.559227,6.851993) scale(1,-1)">
<path id="Sketch027_w0000"  d="M -101.7027267456054 -0.0045065109374889 L -87.70272674560547 -0.0003662109375 L -87.70272674560547 -14.0003662109375 L -101.70272674560547 -14.0003662109375 L -101.70272674560547 -0.0003662109375 " stroke="#000000" stroke-width="0.35 px" style="stroke-width:0.35;stroke-miterlimit:4;stroke-dasharray:none;fill:none;fill-opacity:1;fill-rule: evenodd"/>
<path id="Sketch027_w0001"  d="M -69.55272674560547 -14.0003662109375 L -69.55272674560547 -0.0003662109375 L -83.55272674560547 -0.0003662109375 L -83.55272674560547 -14.0003662109375 L -69.55272674560547 -14.0003662109375 " stroke="#000000" stroke-width="0.35 px" style="stroke-width:0.35;stroke-miterlimit:4;stroke-dasharray:none;fill:none;fill-opacity:1;fill-rule: evenodd"/>
<path id="Sketch027_w0002"  d="M -53.05272674560547 -14.0003662109375 L -53.05272674560547 -0.0003662109375 L -67.05272674560547 -0.0003662109375 L -67.05272674560547 -14.0003662109375 L -53.05272674560547 -14.0003662109375 " stroke="#000000" stroke-width="0.35 px" style="stroke-width:0.35;stroke-miterlimit:4;stroke-dasharray:none;fill:none;fill-opacity:1;fill-rule: evenodd"/>
<path id="Sketch027_w0003"  d="M -36.55272674560547 -14.0003662109375 L -36.55272674560547 -0.0003662109375 L -50.55272674560547 -0.0003662109375 L -50.55272674560547 -14.0003662109375 L -36.55272674560547 -14.0003662109375 " stroke="#000000" stroke-width="0.35 px" style="stroke-width:0.35;stroke-miterlimit:4;stroke-dasharray:none;fill:none;fill-opacity:1;fill-rule: evenodd"/>
<path id="Sketch027_w0004"  d="M -20.05272674560547 -14.0003662109375 L -20.05272674560547 -0.0003662109375 L -34.05272674560547 -0.0003662109375 L -34.05272674560547 -14.0003662109375 L -20.05272674560547 -14.0003662109375 " stroke="#000000" stroke-width="0.35 px" style="stroke-width:0.35;stroke-miterlimit:4;stroke-dasharray:none;fill:none;fill-opacity:1;fill-rule: evenodd"/>
<path id="Sketch027_w0005"  d="M -87.70272674560547 -31.5003662109375 L -87.70272674560547 -17.5003662109375 L -101.70272674560547 -17.5003662109375 L -101.70272674560547 -31.5003662109375 L -87.70272674560547 -31.5003662109375 " stroke="#000000" stroke-width="0.35 px" style="stroke-width:0.35;stroke-miterlimit:4;stroke-dasharray:none;fill:none;fill-opacity:1;fill-rule: evenodd"/>
<path id="Sketch027_w0006"  d="M -69.55272674560547 -31.5003662109375 L -69.55272674560547 -17.5003662109375 L -83.55272674560547 -17.5003662109375 L -83.55272674560547 -31.5003662109375 L -69.55272674560547 -31.5003662109375 " stroke="#000000" stroke-width="0.35 px" style="stroke-width:0.35;stroke-miterlimit:4;stroke-dasharray:none;fill:none;fill-opacity:1;fill-rule: evenodd"/>
<path id="Sketch027_w0007"  d="M -53.05272674560547 -31.5003662109375 L -53.05272674560547 -17.5003662109375 L -67.05272674560547 -17.5003662109375 L -67.05272674560547 -31.5003662109375 L -53.05272674560547 -31.5003662109375 " stroke="#000000" stroke-width="0.35 px" style="stroke-width:0.35;stroke-miterlimit:4;stroke-dasharray:none;fill:none;fill-opacity:1;fill-rule: evenodd"/>
<path id="Sketch027_w0008"  d="M -36.55272674560547 -31.5003662109375 L -36.55272674560547 -17.5003662109375 L -50.55272674560547 -17.5003662109375 L -50.55272674560547 -31.5003662109375 L -36.55272674560547 -31.5003662109375 " stroke="#000000" stroke-width="0.35 px" style="stroke-width:0.35;stroke-miterlimit:4;stroke-dasharray:none;fill:none;fill-opacity:1;fill-rule: evenodd"/>
<path id="Sketch027_w0009"  d="M -20.05272674560547 -31.5003662109375 L -20.05272674560547 -17.5003662109375 L -34.05272674560547 -17.5003662109375 L -34.05272674560547 -31.5003662109375 L -20.05272674560547 -31.5003662109375 " stroke="#000000" stroke-width="0.35 px" style="stroke-width:0.35;stroke-miterlimit:4;stroke-dasharray:none;fill:none;fill-opacity:1;fill-rule: evenodd"/>
<path id="Sketch027_w0010"  d="M -87.70272674560547 -49.0003662109375 L -87.70272674560547 -35.0003662109375 L -101.70272674560547 -35.0003662109375 L -101.70272674560547 -49.000366210937464 L -87.70272674560547 -49.0003662109375 " stroke="#000000" stroke-width="0.35 px" style="stroke-width:0.35;stroke-miterlimit:4;stroke-dasharray:none;fill:none;fill-opacity:1;fill-rule: evenodd"/>
<path id="Sketch027_w0011"  d="M -69.55272674560547 -49.0003662109375 L -69.55272674560547 -35.0003662109375 L -83.55272674560547 -35.0003662109375 L -83.55272674560547 -49.0003662109375 L -69.55272674560547 -49.0003662109375 " stroke="#000000" stroke-width="0.35 px" style="stroke-width:0.35;stroke-miterlimit:4;stroke-dasharray:none;fill:none;fill-opacity:1;fill-rule: evenodd"/>
<path id="Sketch027_w0012"  d="M -53.05272674560547 -49.0003662109375 L -53.05272674560547 -35.0003662109375 L -67.05272674560547 -35.0003662109375 L -67.05272674560547 -49.0003662109375 L -53.05272674560547 -49.0003662109375 " stroke="#000000" stroke-width="0.35 px" style="stroke-width:0.35;stroke-miterlimit:4;stroke-dasharray:none;fill:none;fill-opacity:1;fill-rule: evenodd"/>
<path id="Sketch027_w0013"  d="M -36.55272674560547 -49.0003662109375 L -36.55272674560547 -35.0003662109375 L -50.55272674560547 -35.0003662109375 L -50.55272674560547 -49.0003662109375 L -36.55272674560547 -49.0003662109375 " stroke="#000000" stroke-width="0.35 px" style="stroke-width:0.35;stroke-miterlimit:4;stroke-dasharray:none;fill:none;fill-opacity:1;fill-rule: evenodd"/>
<path id="Sketch027_w0014"  d="M -20.05272674560547 -49.0003662109375 L -20.05272674560547 -35.0003662109375 L -34.05272674560547 -35.0003662109375 L -34.05272674560547 -49.0003662109375 L -20.03014357386774 -49.000366 " stroke="#000000" stroke-width="0.35 px" style="stroke-width:0.35;stroke-miterlimit:4;stroke-dasharray:none;fill:none;fill-opacity:1;fill-rule: evenodd"/>
<circle cx="-94.70272674560547" cy="2.9954934890625107" r="1.1" stroke="#000000" stroke-width="0.35 px" style="stroke-width:0.35;stroke-miterlimit:4;stroke-dasharray:none;fill:none"/>
<circle cx="-27.05272674560547" cy="2.9954934890625107" r="1.1" stroke="#000000" stroke-width="0.35 px" style="stroke-width:0.35;stroke-miterlimit:4;stroke-dasharray:none;fill:none"/>
<circle cx="-72.7027267456054" cy="-54.000366210937436" r="1.1" stroke="#000000" stroke-width="0.35 px" style="stroke-width:0.35;stroke-miterlimit:4;stroke-dasharray:none;fill:none"/>
<path id="Sketch027_w0018"  d="M -92.70677174560541 -51.00036621093748 L -103.70272674560543 -51.00036621093748 L -103.70272674560543 3.27736337172857 A 2.71813 2.71813 0 0 0 -100.985 5.99549L -20.963032117333995 5.995493489062527 A 2.91031 2.91031 0 0 0 -18.0527 3.08519L -18.05272674560547 -48.2295418816826 " stroke="#000000" stroke-width="0.35 px" style="stroke-width:0.35;stroke-miterlimit:4;stroke-dasharray:none;fill:none;fill-opacity:1;fill-rule: evenodd"/>
<path id="Sketch027_w0019"  d="M -94.70272674560537 -51.000366210937415 L -77.72946174560546 -51.000366210937415 A 1.02674 1.02674 0 0 0 -76.7027 -52.0271L -76.70272674560542 -56.3479132109375 A 1.65245 1.65245 0 0 1 -75.0503 -58.0004L -70.94119061600753 -58.00036621093756 A 3.41097 3.41097 0 0 1 -68.7338 -57.1898L -61.78696823268109 -51.2928513363445 A 1.23081 1.23081 0 0 0 -60.9904 -51.0004L -20.041435478271474 -51.00036621093748 A 1.98871 1.98871 0 0 1 -18.0527 -49.0117L -18.05272674560547 -46.957629881682635 " stroke="#000000" stroke-width="0.35 px" style="stroke-width:0.35;stroke-miterlimit:4;stroke-dasharray:none;fill:none;fill-opacity:1;fill-rule: evenodd"/>
<title>b'Sketch027'</title>
</g>
</svg>