<?xml version="1.0"?>
<!DOCTYPE svg PUBLIC "-//W3C//DTD SVG 1.1//EN" "http://www.w3.org/Graphics/SVG/1.1/DTD/svg11.dtd">
<svg width="74.20383194614539mm" height="27.49196976234149mm" viewBox="0 0 74.20383194614539 27.49196976234149" xmlns="http://www.w3.org/2000/svg" version="1.1">
<g id="Sketch023" transform="translate(77.430215,-50.972878) scale(1,-1)">
<path id="Sketch023_w0000"  d="M -76.70272674560549 -72.50036621093739 L -76.70272674560549 -73.68753821093749 A 0.812828 0.812828 0 0 1 -75.8899 -74.5004L -70.53147482510205 -74.50036621093749 A 14.1049 14.1049 0 0 1 -66.8764 -74.0186L -58.970134468408645 -71.89731108685416 A 22.5987 22.5987 0 0 0 -53.114 -71.1254L -45.43181766356816 -71.12536621093753 A 26.8432 26.8432 0 0 0 -42.6259 -71.2724L -33.278906639514716 -72.25482855558587 A 26.0938 26.0938 0 0 0 -29.6938 -72.887L -10.510346424791592 -77.66995132585181 A 2.26929 2.26929 0 0 1 -7.75948 -76.0171L -4.735143152844564 -63.88712646810102 A 26.3016 26.3016 0 0 1 -3.95387 -57.5242L -3.953871896443347 -52.676024210937506 A 0.975658 0.975658 0 0 1 -4.92953 -51.7004L -5.953871896443323 -51.70036621093751 " stroke="#191919" stroke-width="0.35 px" style="stroke-width:0.35;stroke-miterlimit:4;stroke-dasharray:none;fill:none;fill-opacity:1;fill-rule: evenodd"/>
<path id="Sketch023_w0001"  d="M -76.70272674560547 -72.86024521093765 L -76.70272674560547 -60.39163021093745 A 1.69126 1.69126 0 0 0 -75.0115 -58.7004L -70.10057685873868 -58.70036621093743 A 1.82174 1.82174 0 0 1 -68.9216 -58.2675L -61.47665348270036 -51.94763068588488 A 1.04052 1.04052 0 0 0 -60.8033 -51.7004L -5.5365568964433365 -51.70036621093751 " stroke="#191919" stroke-width="0.35 px" style="stroke-width:0.35;stroke-miterlimit:4;stroke-dasharray:none;fill:none;fill-opacity:1;fill-rule: evenodd"/>
<title>b'\xe3\x83\x99\xe3\x83\xbc\xe3\x82\xb9014'</title>
</g>
</svg>