M48
; DRILL file {KiCad (6.0.6)} date 2022年09月02日 08時16分23秒
; FORMAT={-:-/ absolute / metric / decimal}
; #@! TF.CreationDate,2022-09-02T08:16:23+09:00
; #@! TF.GenerationSoftware,Kicad,Pcbnew,(6.0.6)
; #@! TF.FileFunction,MixedPlating,1,2
FMAT,2
METRIC
; #@! TA.AperFunction,Plated,PTH,ViaDrill
T1C0.300
; #@! TA.AperFunction,Plated,PTH,ViaDrill
T2C0.400
; #@! TA.AperFunction,Plated,PTH,ComponentDrill
T3C0.800
; #@! TA.AperFunction,Plated,PTH,ComponentDrill
T4C1.000
; #@! TA.AperFunction,NonPlated,NPTH,ComponentDrill
T5C1.200
; #@! TA.AperFunction,NonPlated,NPTH,ComponentDrill
T6C1.700
; #@! TA.AperFunction,NonPlated,NPTH,ComponentDrill
T7C1.900
; #@! TA.AperFunction,NonPlated,NPTH,ComponentDrill
T8C3.000
; #@! TA.AperFunction,NonPlated,NPTH,ComponentDrill
T9C4.100
; #@! TA.AperFunction,NonPlated,NPTH,ComponentDrill
T10C4.300
%
G90
G05
T1
X17.43Y-36.09
X19.737Y-53.91
X28.01Y-72.85
X29.867Y-49.796
X30.17Y-52.72
X31.67Y-32.73
X42.03Y-75.96
X42.47Y-20.99
X49.17Y-84.04
X76.11Y-84.25
X78.92Y-35.48
X80.51Y-33.02
X81.44Y-66.2
X92.23Y-87.06
X93.26Y-53.86
T2
X20.4Y-50.17
X21.655Y-34.861
X23.944Y-67.13
X25.417Y-49.073
X25.441Y-31.872
X30.747Y-78.407
X31.035Y-42.15
X31.553Y-61.946
X32.267Y-88.883
X32.97Y-54.104
X33.324Y-51.44
X36.276Y-48.887
X36.92Y-66.71
X37.128Y-34.757
X40.413Y-33.538
X40.441Y-50.459
X40.479Y-66.31
X47.68Y-34.587
X49.4Y-53.16
X54.151Y-51.273
X55.196Y-34.846
X55.899Y-66.949
X56.357Y-78.854
X58.215Y-49.087
X59.431Y-66.65
X59.602Y-33.668
X63.895Y-25.392
X63.895Y-42.15
X68.989Y-84.607
X71.145Y-34.878
X72.56Y-74.948
X74.705Y-65.017
X75.18Y-86.49
X75.815Y-65.787
X75.999Y-50.133
X77.04Y-33.8
X83.418Y-34.6
X86.418Y-66.962
X86.424Y-49.682
X87.928Y-85.877
X90.269Y-74.498
X91.356Y-64.961
X92.439Y-33.608
X92.533Y-66.868
X92.86Y-49.22
X102.857Y-88.057
X103.379Y-89.741
T3
X19.267Y-75.519
X19.267Y-90.754
X20.566Y-76.916
X20.566Y-92.151
X21.807Y-75.519
X21.807Y-90.754
X23.107Y-76.916
X23.107Y-92.151
X24.348Y-75.519
X24.348Y-90.754
X25.646Y-76.916
X25.646Y-92.151
X26.887Y-75.519
X26.887Y-90.754
X28.186Y-76.916
X28.186Y-92.151
X29.427Y-75.519
X29.427Y-90.754
X30.726Y-76.916
X30.726Y-92.151
X31.967Y-75.519
X31.967Y-90.754
X33.267Y-76.916
X33.267Y-92.151
X34.508Y-75.519
X34.508Y-90.754
X35.806Y-76.916
X35.806Y-92.151
T5
X103.78Y-69.265
X103.78Y-71.015
X110.78Y-69.265
X110.78Y-71.015
T6
X18.92Y-29.98
X18.92Y-62.92
X18.93Y-46.36
X27.92Y-29.98
X27.92Y-62.92
X27.93Y-46.36
X35.4Y-29.96
X35.43Y-46.37
X35.47Y-62.89
X44.4Y-29.96
X44.43Y-46.37
X44.47Y-62.89
X51.9Y-62.86
X51.91Y-29.97
X51.93Y-46.36
X60.9Y-62.86
X60.91Y-29.97
X60.93Y-46.36
X62.67Y-81.88
X68.39Y-29.98
X68.45Y-62.91
X68.46Y-46.37
X71.67Y-81.88
X77.39Y-29.98
X77.45Y-62.91
X77.46Y-46.37
X79.781Y-81.926
X84.89Y-29.95
X84.96Y-46.38
X84.97Y-62.88
X88.759Y-82.554
X93.89Y-29.95
X93.96Y-46.38
X93.97Y-62.88
X96.824Y-84.011
X105.556Y-86.189
T7
X18.34Y-29.98
X18.34Y-62.92
X18.35Y-46.36
X28.5Y-29.98
X28.5Y-62.92
X28.51Y-46.36
X34.82Y-29.96
X34.85Y-46.37
X34.89Y-62.89
X44.98Y-29.96
X45.01Y-46.37
X45.05Y-62.89
X51.32Y-62.86
X51.33Y-29.97
X51.35Y-46.36
X61.48Y-62.86
X61.49Y-29.97
X61.51Y-46.36
X62.09Y-81.88
X67.81Y-29.98
X67.87Y-62.91
X67.88Y-46.37
X72.25Y-81.88
X77.97Y-29.98
X78.03Y-62.91
X78.04Y-46.37
X79.202Y-81.886
X84.31Y-29.95
X84.38Y-46.38
X84.39Y-62.88
X89.338Y-82.594
X94.47Y-29.95
X94.54Y-46.38
X94.55Y-62.88
X96.261Y-83.871
X106.119Y-86.329
T8
X19.61Y-27.44
X19.61Y-60.38
X19.62Y-43.82
X20.88Y-24.9
X20.88Y-57.84
X20.89Y-41.28
X25.96Y-24.9
X25.96Y-57.84
X25.97Y-41.28
X27.23Y-27.44
X27.23Y-60.38
X27.24Y-43.82
X36.09Y-27.42
X36.12Y-43.83
X36.16Y-60.35
X37.36Y-24.88
X37.39Y-41.29
X37.43Y-57.81
X42.44Y-24.88
X42.47Y-41.29
X42.51Y-57.81
X43.71Y-27.42
X43.74Y-43.83
X43.78Y-60.35
X52.59Y-60.32
X52.6Y-27.43
X52.62Y-43.82
X53.86Y-57.78
X53.87Y-24.89
X53.89Y-41.28
X58.94Y-57.78
X58.95Y-24.89
X58.97Y-41.28
X60.21Y-60.32
X60.22Y-27.43
X60.24Y-43.82
X63.36Y-79.34
X64.63Y-76.8
X69.08Y-27.44
X69.14Y-60.37
X69.15Y-43.83
X69.71Y-76.8
X70.35Y-24.9
X70.41Y-57.83
X70.42Y-41.29
X70.98Y-79.34
X75.43Y-24.9
X75.49Y-57.83
X75.5Y-41.29
X76.7Y-27.44
X76.76Y-60.37
X76.77Y-43.83
X80.646Y-79.44
X82.091Y-76.995
X85.58Y-27.41
X85.65Y-43.84
X85.66Y-60.34
X86.85Y-24.87
X86.92Y-41.3
X86.93Y-57.8
X87.158Y-77.35
X88.248Y-79.972
X91.93Y-24.87
X92.0Y-41.3
X92.01Y-57.8
X93.2Y-27.41
X93.27Y-43.84
X93.28Y-60.34
X98.108Y-81.714
X99.954Y-79.556
X104.884Y-80.785
X105.501Y-83.557
T9
X23.42Y-29.98
X23.42Y-62.92
X23.43Y-46.36
X39.9Y-29.96
X39.93Y-46.37
X39.97Y-62.89
X56.4Y-62.86
X56.41Y-29.97
X56.43Y-46.36
X67.17Y-81.88
X72.89Y-29.98
X72.95Y-62.91
X72.96Y-46.37
X84.27Y-82.24
X89.39Y-29.95
X89.46Y-46.38
X89.47Y-62.88
X101.19Y-85.1
T10
X23.57Y-19.92
X48.46Y-74.8
X89.55Y-19.93
X94.74Y-73.21
T4
G00X100.73Y-68.915
M15
G01X100.23Y-68.915
M16
G05
G00X100.73Y-71.365
M15
G01X100.23Y-71.365
M16
G05
G00X102.23Y-67.165
M15
G01X101.73Y-67.165
M16
G05
G00X102.23Y-73.115
M15
G01X101.73Y-73.115
M16
G05
G00X106.23Y-67.165
M15
G01X105.73Y-67.165
M16
G05
G00X106.23Y-73.115
M15
G01X105.73Y-73.115
M16
G05
G00X109.23Y-67.165
M15
G01X108.73Y-67.165
M16
G05
G00X109.23Y-73.115
M15
G01X108.73Y-73.115
M16
G05
T0
M30
