M48
METRIC,TZ
T1C0.400
T2C0.762
T3C0.813
T4C1.000
T5C1.300
%
G90
G05
T1
X22675Y-74989
X22675Y-78586
X22700Y-60033
X23273Y-95138
X25225Y-95750
X25436Y-60062
X28898Y-16183
X30850Y-96100
X31850Y-63900
X32000Y-76275
X32800Y-80975
X33275Y-47725
X35000Y-25900
X36229Y-30279
X36955Y-30976
X37025Y-51325
X38356Y-37722
X38975Y-78050
X39075Y-41575
X39200Y-89847
X39205Y-69846
X39234Y-52026
X39275Y-76160
X39287Y-31278
X39575Y-25025
X40400Y-59125
X41827Y-31325
X42000Y-87825
X42500Y-90050
X43150Y-25100
X43452Y-92125
X44367Y-31283
X45700Y-100700
X46350Y-42975
X46525Y-55250
X47225Y-72300
X48177Y-21502
X48925Y-76050
X49075Y-25275
X49825Y-56675
X53193Y-59464
X53525Y-26100
X54674Y-67665
X55750Y-73248
X56060Y-23096
X56375Y-40200
X56802Y-51075
X56832Y-85975
X58175Y-53325
X58475Y-69800
X60750Y-106447
X61251Y-39027
X63550Y-87700
X64250Y-55600
X65150Y-53425
X65325Y-50675
X66100Y-70275
X69135Y-74999
X69135Y-93475
X69809Y-108800
X70014Y-44049
X70150Y-70100
X70325Y-72750
X70954Y-67829
X70975Y-51450
X72225Y-87256
X72300Y-70639
X73383Y-51025
X73398Y-54873
X76125Y-53051
X76434Y-100719
X77075Y-92450
X78675Y-88300
X79122Y-103886
X80375Y-70800
X81200Y-73675
X81675Y-50700
X84000Y-53675
X85575Y-94450
X85585Y-67661
X85721Y-90433
X86625Y-53300
X88579Y-51374
X88900Y-74976
X89275Y-40325
X89834Y-87725
X89872Y-56300
X89998Y-70162
X95300Y-90225
X97975Y-72425
X99478Y-98624
X100350Y-105197
X100850Y-55675
X101275Y-94675
X101454Y-110100
X103775Y-106925
X112725Y-97925
T2
X74070Y-38300
X76610Y-38250
X79150Y-38300
X81690Y-38300
X84230Y-38300
T3
X24047Y-17644
X24047Y-32864
X25317Y-18950
X25317Y-34190
X26587Y-17644
X26587Y-32864
X27857Y-18950
X27857Y-34190
X29127Y-17644
X29127Y-32864
X30397Y-18950
X30397Y-34190
X31667Y-17644
X31667Y-32864
X32937Y-18950
X32937Y-34190
X34207Y-17644
X34207Y-32864
X35477Y-18950
X35477Y-34190
X36747Y-17644
X36747Y-32864
X38017Y-18950
X38017Y-34190
X39287Y-17644
X39287Y-32864
X40557Y-18950
X40557Y-34190
X41827Y-17644
X41827Y-32864
X43097Y-18950
X43097Y-34190
X44367Y-17644
X44367Y-32864
X45637Y-18950
X45637Y-34190
X46907Y-17644
X46907Y-32864
X48177Y-18950
X48177Y-34190
X49447Y-17644
X49447Y-32864
X50717Y-18950
X50717Y-34190
X51987Y-17644
X51987Y-32864
X53257Y-18950
X53257Y-34190
T5
X22050Y-37700
X22050Y-44200
T4
G00X58175Y-25625
M15
G01X58175Y-26125
M16
G05
G00X58175Y-28625
M15
G01X58175Y-29125
M16
G05
G00X58175Y-32625
M15
G01X58175Y-33125
M16
G05
G00X59925Y-34125
M15
G01X59925Y-34625
M16
G05
G00X62375Y-34125
M15
G01X62375Y-34625
M16
G05
G00X64125Y-25625
M15
G01X64125Y-26125
M16
G05
G00X64125Y-28625
M15
G01X64125Y-29125
M16
G05
G00X64125Y-32625
M15
G01X64125Y-33125
M16
G05
T0
M30
