M48
METRIC,TZ
T1C1.200
T2C1.702
T3C3.000
T4C3.988
T5C5.000
%
G90
G05
T1
X60275Y-24075
X60275Y-31075
X62025Y-24075
X62025Y-31075
T2
X23820Y-56350
X23820Y-91275
X23870Y-73850
X33980Y-56350
X33980Y-91275
X34030Y-73850
X40395Y-68600
X40395Y-86075
X40415Y-51075
X50555Y-68600
X50555Y-86075
X50575Y-51075
X56885Y-48530
X56895Y-65975
X56970Y-83450
X61820Y-102700
X67045Y-48530
X67055Y-65975
X67130Y-83450
X71980Y-102700
X73370Y-83475
X73420Y-65950
X73445Y-48520
X80345Y-102725
X83530Y-83475
X83580Y-65950
X83605Y-48520
X89820Y-50225
X89870Y-67725
X89870Y-85250
X90505Y-102725
X99980Y-50225
X100030Y-67725
X100030Y-85250
X102272Y-103643
X112278Y-105407
T3
X25090Y-53810
X25090Y-88735
X25140Y-71310
X26360Y-51270
X26360Y-86195
X26410Y-68770
X31440Y-51270
X31440Y-86195
X31490Y-68770
X32710Y-53900
X32710Y-88825
X32760Y-71400
X41665Y-66060
X41665Y-83535
X41685Y-48535
X42935Y-63520
X42935Y-80995
X42955Y-45995
X48015Y-63520
X48015Y-80995
X48035Y-45995
X49285Y-66150
X49285Y-83625
X49305Y-48625
X58155Y-45990
X58165Y-63435
X58240Y-80910
X59425Y-43450
X59435Y-60895
X59510Y-78370
X63090Y-100160
X64360Y-97620
X64505Y-43450
X64515Y-60895
X64590Y-78370
X65775Y-46080
X65785Y-63525
X65860Y-81000
X69440Y-97620
X70710Y-100250
X74640Y-80935
X74690Y-63410
X74715Y-45980
X75910Y-78395
X75960Y-60870
X75985Y-43440
X80990Y-78395
X81040Y-60870
X81065Y-43440
X81615Y-100185
X82260Y-81025
X82310Y-63500
X82335Y-46070
X82885Y-97645
X87965Y-97645
X89235Y-100275
X91090Y-47685
X91140Y-65185
X91140Y-82710
X92360Y-45145
X92410Y-62645
X92410Y-80170
X97440Y-45145
X97490Y-62645
X97490Y-80170
X98710Y-47775
X98760Y-65275
X98760Y-82800
X103964Y-101362
X105656Y-99081
X110659Y-99963
X111453Y-102774
T4
X28900Y-56350
X28900Y-91275
X28950Y-73850
X45475Y-68600
X45475Y-86075
X45495Y-51075
X61965Y-48530
X61975Y-65975
X62050Y-83450
X66900Y-102700
X78450Y-83475
X78500Y-65950
X78525Y-48520
X85425Y-102725
X94900Y-50225
X94950Y-67725
X94950Y-85250
X107275Y-104525
T5
X28925Y-106375
X28950Y-41375
X94950Y-39775
X96450Y-102475
T0
M30
