M48
; DRILL file {KiCad (6.0.6)} date 2022年11月13日 11時43分50秒
; FORMAT={-:-/ absolute / metric / decimal}
; #@! TF.CreationDate,2022-11-13T11:43:50+09:00
; #@! TF.GenerationSoftware,Kicad,Pcbnew,(6.0.6)
; #@! TF.FileFunction,NonPlated,1,2,NPTH
FMAT,2
METRIC
; #@! TA.AperFunction,NonPlated,NPTH,ComponentDrill
T1C0.650
; #@! TA.AperFunction,NonPlated,NPTH,ComponentDrill
T2C1.200
; #@! TA.AperFunction,NonPlated,NPTH,ComponentDrill
T3C1.900
; #@! TA.AperFunction,NonPlated,NPTH,ComponentDrill
T4C3.000
; #@! TA.AperFunction,NonPlated,NPTH,ComponentDrill
T5C4.100
%
G90
G05
T1
X56.67Y-23.52
X62.45Y-23.52
T2
X107.016Y-47.577
X111.031Y-41.843
T3
X21.47Y-43.64
X21.48Y-78.65
X21.49Y-61.16
X31.63Y-43.64
X31.64Y-78.65
X31.65Y-61.16
X37.98Y-39.26
X37.98Y-56.77
X37.99Y-74.28
X48.14Y-39.26
X48.14Y-56.77
X48.15Y-74.28
X54.48Y-35.75
X54.49Y-70.78
X54.495Y-53.25
X64.64Y-35.75
X64.65Y-70.78
X64.655Y-53.25
X65.18Y-98.78
X70.96Y-75.13
X70.97Y-57.65
X70.98Y-40.17
X75.34Y-98.78
X81.12Y-75.13
X81.13Y-57.65
X81.14Y-40.17
X82.827Y-99.768
X87.47Y-61.15
X87.49Y-78.66
X87.495Y-43.64
X92.833Y-101.532
X97.63Y-61.15
X97.65Y-78.66
X97.655Y-43.64
X99.966Y-104.553
X109.514Y-108.027
T4
X22.74Y-41.1
X22.75Y-76.11
X22.76Y-58.62
X29.09Y-38.56
X29.1Y-73.57
X29.11Y-56.08
X39.25Y-36.72
X39.25Y-54.23
X39.26Y-71.74
X45.6Y-34.18
X45.6Y-51.69
X45.61Y-69.2
X55.76Y-68.24
X55.765Y-50.71
X57.02Y-40.83
X62.11Y-65.7
X62.115Y-48.17
X63.37Y-38.29
X67.72Y-103.86
X72.23Y-72.59
X72.24Y-55.11
X73.52Y-45.25
X74.07Y-101.32
X78.58Y-70.05
X78.59Y-52.57
X79.87Y-42.71
X84.446Y-105.212
X88.74Y-58.61
X88.76Y-76.12
X90.035Y-48.72
X91.141Y-103.813
X95.09Y-56.07
X95.11Y-73.58
X96.385Y-46.18
X100.616Y-110.195
X107.451Y-109.98
T5
X26.55Y-43.64
X26.56Y-78.65
X26.57Y-61.16
X43.06Y-39.26
X43.06Y-56.77
X43.07Y-74.28
X59.56Y-35.75
X59.57Y-70.78
X59.575Y-53.25
X70.26Y-98.78
X76.04Y-75.13
X76.05Y-57.65
X76.06Y-40.17
X87.83Y-100.65
X92.55Y-61.15
X92.57Y-78.66
X92.575Y-43.64
X104.74Y-106.29
T0
M30
