%TF.GenerationSoftware,KiCad,Pcbnew,(6.0.6)*%
%TF.CreationDate,2022-10-07T23:53:12+09:00*%
%TF.ProjectId,split-mini,73706c69-742d-46d6-996e-692e6b696361,rev?*%
%TF.SameCoordinates,Original*%
%TF.FileFunction,Legend,Bot*%
%TF.FilePolarity,Positive*%
%FSLAX46Y46*%
G04 Gerber Fmt 4.6, Leading zero omitted, Abs format (unit mm)*
G04 Created by KiCad (PCBNEW (6.0.6)) date 2022-10-07 23:53:12*
%MOMM*%
%LPD*%
G01*
G04 APERTURE LIST*
G04 Aperture macros list*
%AMRotRect*
0 Rectangle, with rotation*
0 The origin of the aperture is its center*
0 $1 length*
0 $2 width*
0 $3 Rotation angle, in degrees counterclockwise*
0 Add horizontal line*
21,1,$1,$2,0,0,$3*%
G04 Aperture macros list end*
%ADD10C,0.300000*%
%TA.AperFunction,Profile*%
%ADD11C,0.349999*%
%TD*%
%ADD12C,0.100000*%
%ADD13C,0.150000*%
%ADD14C,0.120000*%
%ADD15C,1.600000*%
%ADD16C,0.300000*%
%ADD17C,0.350000*%
%ADD18O,1.500000X1.000000*%
%ADD19C,3.000000*%
%ADD20C,1.700000*%
%ADD21C,1.900000*%
%ADD22C,4.000000*%
%ADD23R,2.000000X2.000000*%
%ADD24R,1.900000X2.000000*%
%ADD25R,1.300000X0.950000*%
%ADD26RotRect,2.000000X2.000000X174.000000*%
%ADD27RotRect,1.900000X2.000000X174.000000*%
%ADD28RotRect,2.000000X2.000000X166.000000*%
%ADD29RotRect,1.900000X2.000000X166.000000*%
%ADD30R,1.850000X2.000000*%
%ADD31C,4.500000*%
%ADD32C,1.200000*%
%ADD33O,2.500000X1.700000*%
G04 APERTURE END LIST*
D10*
X83057142Y-23585714D02*
X82942857Y-23642857D01*
X82714285Y-23642857D01*
X82600000Y-23585714D01*
X82542857Y-23471428D01*
X82542857Y-23414285D01*
X82600000Y-23300000D01*
X82714285Y-23242857D01*
X82885714Y-23242857D01*
X83000000Y-23185714D01*
X83057142Y-23071428D01*
X83057142Y-23014285D01*
X83000000Y-22900000D01*
X82885714Y-22842857D01*
X82714285Y-22842857D01*
X82600000Y-22900000D01*
X82028571Y-22842857D02*
X82028571Y-24042857D01*
X82028571Y-22900000D02*
X81914285Y-22842857D01*
X81685714Y-22842857D01*
X81571428Y-22900000D01*
X81514285Y-22957142D01*
X81457142Y-23071428D01*
X81457142Y-23414285D01*
X81514285Y-23528571D01*
X81571428Y-23585714D01*
X81685714Y-23642857D01*
X81914285Y-23642857D01*
X82028571Y-23585714D01*
X80771428Y-23642857D02*
X80885714Y-23585714D01*
X80942857Y-23471428D01*
X80942857Y-22442857D01*
X80314285Y-23642857D02*
X80314285Y-22842857D01*
X80314285Y-22442857D02*
X80371428Y-22500000D01*
X80314285Y-22557142D01*
X80257142Y-22500000D01*
X80314285Y-22442857D01*
X80314285Y-22557142D01*
X79914285Y-22842857D02*
X79457142Y-22842857D01*
X79742857Y-22442857D02*
X79742857Y-23471428D01*
X79685714Y-23585714D01*
X79571428Y-23642857D01*
X79457142Y-23642857D01*
X78142857Y-23642857D02*
X78142857Y-22842857D01*
X78142857Y-22957142D02*
X78085714Y-22900000D01*
X77971428Y-22842857D01*
X77800000Y-22842857D01*
X77685714Y-22900000D01*
X77628571Y-23014285D01*
X77628571Y-23642857D01*
X77628571Y-23014285D02*
X77571428Y-22900000D01*
X77457142Y-22842857D01*
X77285714Y-22842857D01*
X77171428Y-22900000D01*
X77114285Y-23014285D01*
X77114285Y-23642857D01*
X76542857Y-23642857D02*
X76542857Y-22842857D01*
X76542857Y-22442857D02*
X76600000Y-22500000D01*
X76542857Y-22557142D01*
X76485714Y-22500000D01*
X76542857Y-22442857D01*
X76542857Y-22557142D01*
X75971428Y-22842857D02*
X75971428Y-23642857D01*
X75971428Y-22957142D02*
X75914285Y-22900000D01*
X75800000Y-22842857D01*
X75628571Y-22842857D01*
X75514285Y-22900000D01*
X75457142Y-23014285D01*
X75457142Y-23642857D01*
X74885714Y-23642857D02*
X74885714Y-22842857D01*
X74885714Y-22442857D02*
X74942857Y-22500000D01*
X74885714Y-22557142D01*
X74828571Y-22500000D01*
X74885714Y-22442857D01*
X74885714Y-22557142D01*
X73400000Y-23642857D02*
X73400000Y-22842857D01*
X73400000Y-23071428D02*
X73342857Y-22957142D01*
X73285714Y-22900000D01*
X73171428Y-22842857D01*
X73057142Y-22842857D01*
X72200000Y-23585714D02*
X72314285Y-23642857D01*
X72542857Y-23642857D01*
X72657142Y-23585714D01*
X72714285Y-23471428D01*
X72714285Y-23014285D01*
X72657142Y-22900000D01*
X72542857Y-22842857D01*
X72314285Y-22842857D01*
X72200000Y-22900000D01*
X72142857Y-23014285D01*
X72142857Y-23128571D01*
X72714285Y-23242857D01*
X71742857Y-22842857D02*
X71457142Y-23642857D01*
X71171428Y-22842857D01*
X70485714Y-22442857D02*
X70371428Y-22442857D01*
X70257142Y-22500000D01*
X70200000Y-22557142D01*
X70142857Y-22671428D01*
X70085714Y-22900000D01*
X70085714Y-23185714D01*
X70142857Y-23414285D01*
X70200000Y-23528571D01*
X70257142Y-23585714D01*
X70371428Y-23642857D01*
X70485714Y-23642857D01*
X70600000Y-23585714D01*
X70657142Y-23528571D01*
X70714285Y-23414285D01*
X70771428Y-23185714D01*
X70771428Y-22900000D01*
X70714285Y-22671428D01*
X70657142Y-22557142D01*
X70600000Y-22500000D01*
X70485714Y-22442857D01*
X69571428Y-23528571D02*
X69514285Y-23585714D01*
X69571428Y-23642857D01*
X69628571Y-23585714D01*
X69571428Y-23528571D01*
X69571428Y-23642857D01*
X69114285Y-22442857D02*
X68371428Y-22442857D01*
X68771428Y-22900000D01*
X68600000Y-22900000D01*
X68485714Y-22957142D01*
X68428571Y-23014285D01*
X68371428Y-23128571D01*
X68371428Y-23414285D01*
X68428571Y-23528571D01*
X68485714Y-23585714D01*
X68600000Y-23642857D01*
X68942857Y-23642857D01*
X69057142Y-23585714D01*
X69114285Y-23528571D01*
X66942857Y-23528571D02*
X66885714Y-23585714D01*
X66942857Y-23642857D01*
X67000000Y-23585714D01*
X66942857Y-23528571D01*
X66942857Y-23642857D01*
X66942857Y-22900000D02*
X66885714Y-22957142D01*
X66942857Y-23014285D01*
X67000000Y-22957142D01*
X66942857Y-22900000D01*
X66942857Y-23014285D01*
X64942857Y-23642857D02*
X64942857Y-22442857D01*
X64942857Y-23585714D02*
X65057142Y-23642857D01*
X65285714Y-23642857D01*
X65400000Y-23585714D01*
X65457142Y-23528571D01*
X65514285Y-23414285D01*
X65514285Y-23071428D01*
X65457142Y-22957142D01*
X65400000Y-22900000D01*
X65285714Y-22842857D01*
X65057142Y-22842857D01*
X64942857Y-22900000D01*
X63914285Y-23585714D02*
X64028571Y-23642857D01*
X64257142Y-23642857D01*
X64371428Y-23585714D01*
X64428571Y-23471428D01*
X64428571Y-23014285D01*
X64371428Y-22900000D01*
X64257142Y-22842857D01*
X64028571Y-22842857D01*
X63914285Y-22900000D01*
X63857142Y-23014285D01*
X63857142Y-23128571D01*
X64428571Y-23242857D01*
X63400000Y-23585714D02*
X63285714Y-23642857D01*
X63057142Y-23642857D01*
X62942857Y-23585714D01*
X62885714Y-23471428D01*
X62885714Y-23414285D01*
X62942857Y-23300000D01*
X63057142Y-23242857D01*
X63228571Y-23242857D01*
X63342857Y-23185714D01*
X63400000Y-23071428D01*
X63400000Y-23014285D01*
X63342857Y-22900000D01*
X63228571Y-22842857D01*
X63057142Y-22842857D01*
X62942857Y-22900000D01*
X62371428Y-23642857D02*
X62371428Y-22842857D01*
X62371428Y-22442857D02*
X62428571Y-22500000D01*
X62371428Y-22557142D01*
X62314285Y-22500000D01*
X62371428Y-22442857D01*
X62371428Y-22557142D01*
X61285714Y-22842857D02*
X61285714Y-23814285D01*
X61342857Y-23928571D01*
X61400000Y-23985714D01*
X61514285Y-24042857D01*
X61685714Y-24042857D01*
X61800000Y-23985714D01*
X61285714Y-23585714D02*
X61400000Y-23642857D01*
X61628571Y-23642857D01*
X61742857Y-23585714D01*
X61800000Y-23528571D01*
X61857142Y-23414285D01*
X61857142Y-23071428D01*
X61800000Y-22957142D01*
X61742857Y-22900000D01*
X61628571Y-22842857D01*
X61400000Y-22842857D01*
X61285714Y-22900000D01*
X60714285Y-22842857D02*
X60714285Y-23642857D01*
X60714285Y-22957142D02*
X60657142Y-22900000D01*
X60542857Y-22842857D01*
X60371428Y-22842857D01*
X60257142Y-22900000D01*
X60200000Y-23014285D01*
X60200000Y-23642857D01*
X59171428Y-23585714D02*
X59285714Y-23642857D01*
X59514285Y-23642857D01*
X59628571Y-23585714D01*
X59685714Y-23471428D01*
X59685714Y-23014285D01*
X59628571Y-22900000D01*
X59514285Y-22842857D01*
X59285714Y-22842857D01*
X59171428Y-22900000D01*
X59114285Y-23014285D01*
X59114285Y-23128571D01*
X59685714Y-23242857D01*
X58085714Y-23642857D02*
X58085714Y-22442857D01*
X58085714Y-23585714D02*
X58200000Y-23642857D01*
X58428571Y-23642857D01*
X58542857Y-23585714D01*
X58600000Y-23528571D01*
X58657142Y-23414285D01*
X58657142Y-23071428D01*
X58600000Y-22957142D01*
X58542857Y-22900000D01*
X58428571Y-22842857D01*
X58200000Y-22842857D01*
X58085714Y-22900000D01*
X56600000Y-23642857D02*
X56600000Y-22442857D01*
X56600000Y-22900000D02*
X56485714Y-22842857D01*
X56257142Y-22842857D01*
X56142857Y-22900000D01*
X56085714Y-22957142D01*
X56028571Y-23071428D01*
X56028571Y-23414285D01*
X56085714Y-23528571D01*
X56142857Y-23585714D01*
X56257142Y-23642857D01*
X56485714Y-23642857D01*
X56600000Y-23585714D01*
X55628571Y-22842857D02*
X55342857Y-23642857D01*
X55057142Y-22842857D02*
X55342857Y-23642857D01*
X55457142Y-23928571D01*
X55514285Y-23985714D01*
X55628571Y-24042857D01*
X53857142Y-22842857D02*
X53400000Y-22842857D01*
X53685714Y-22442857D02*
X53685714Y-23471428D01*
X53628571Y-23585714D01*
X53514285Y-23642857D01*
X53400000Y-23642857D01*
X52485714Y-23642857D02*
X52485714Y-23014285D01*
X52542857Y-22900000D01*
X52657142Y-22842857D01*
X52885714Y-22842857D01*
X53000000Y-22900000D01*
X52485714Y-23585714D02*
X52600000Y-23642857D01*
X52885714Y-23642857D01*
X53000000Y-23585714D01*
X53057142Y-23471428D01*
X53057142Y-23357142D01*
X53000000Y-23242857D01*
X52885714Y-23185714D01*
X52600000Y-23185714D01*
X52485714Y-23128571D01*
X51914285Y-23642857D02*
X51914285Y-22842857D01*
X51914285Y-22957142D02*
X51857142Y-22900000D01*
X51742857Y-22842857D01*
X51571428Y-22842857D01*
X51457142Y-22900000D01*
X51400000Y-23014285D01*
X51400000Y-23642857D01*
X51400000Y-23014285D02*
X51342857Y-22900000D01*
X51228571Y-22842857D01*
X51057142Y-22842857D01*
X50942857Y-22900000D01*
X50885714Y-23014285D01*
X50885714Y-23642857D01*
X49800000Y-23642857D02*
X49800000Y-23014285D01*
X49857142Y-22900000D01*
X49971428Y-22842857D01*
X50200000Y-22842857D01*
X50314285Y-22900000D01*
X49800000Y-23585714D02*
X49914285Y-23642857D01*
X50200000Y-23642857D01*
X50314285Y-23585714D01*
X50371428Y-23471428D01*
X50371428Y-23357142D01*
X50314285Y-23242857D01*
X50200000Y-23185714D01*
X49914285Y-23185714D01*
X49800000Y-23128571D01*
X48714285Y-22842857D02*
X48714285Y-23814285D01*
X48771428Y-23928571D01*
X48828571Y-23985714D01*
X48942857Y-24042857D01*
X49114285Y-24042857D01*
X49228571Y-23985714D01*
X48714285Y-23585714D02*
X48828571Y-23642857D01*
X49057142Y-23642857D01*
X49171428Y-23585714D01*
X49228571Y-23528571D01*
X49285714Y-23414285D01*
X49285714Y-23071428D01*
X49228571Y-22957142D01*
X49171428Y-22900000D01*
X49057142Y-22842857D01*
X48828571Y-22842857D01*
X48714285Y-22900000D01*
X47971428Y-23642857D02*
X48085714Y-23585714D01*
X48142857Y-23528571D01*
X48200000Y-23414285D01*
X48200000Y-23071428D01*
X48142857Y-22957142D01*
X48085714Y-22900000D01*
X47971428Y-22842857D01*
X47800000Y-22842857D01*
X47685714Y-22900000D01*
X47628571Y-22957142D01*
X47571428Y-23071428D01*
X47571428Y-23414285D01*
X47628571Y-23528571D01*
X47685714Y-23585714D01*
X47800000Y-23642857D01*
X47971428Y-23642857D01*
X47171428Y-22442857D02*
X46428571Y-22442857D01*
X46828571Y-22900000D01*
X46657142Y-22900000D01*
X46542857Y-22957142D01*
X46485714Y-23014285D01*
X46428571Y-23128571D01*
X46428571Y-23414285D01*
X46485714Y-23528571D01*
X46542857Y-23585714D01*
X46657142Y-23642857D01*
X47000000Y-23642857D01*
X47114285Y-23585714D01*
X47171428Y-23528571D01*
X45971428Y-22557142D02*
X45914285Y-22500000D01*
X45800000Y-22442857D01*
X45514285Y-22442857D01*
X45400000Y-22500000D01*
X45342857Y-22557142D01*
X45285714Y-22671428D01*
X45285714Y-22785714D01*
X45342857Y-22957142D01*
X46028571Y-23642857D01*
X45285714Y-23642857D01*
X44257142Y-22842857D02*
X44257142Y-23642857D01*
X44542857Y-22385714D02*
X44828571Y-23242857D01*
X44085714Y-23242857D01*
D11*
X120734058Y-85321050D02*
X120746346Y-84517181D01*
X94563467Y-99773630D02*
X95006416Y-99879974D01*
X21067121Y-99747413D02*
X21097288Y-99856121D01*
X95006416Y-99879974D02*
X95006416Y-99879974D01*
X106613959Y-23464589D02*
X106588365Y-23321274D01*
X21022792Y-99525582D02*
X21042263Y-99637170D01*
X21450528Y-100558221D02*
X21520346Y-100647842D01*
X23314208Y-21027240D02*
X23182826Y-21050152D01*
X120663178Y-69673555D02*
X120617953Y-69555976D01*
X120429619Y-69232038D02*
X120350533Y-69135311D01*
X116257734Y-104147387D02*
X116337281Y-104072331D01*
X65730083Y-98890289D02*
X65730083Y-98890289D01*
X104737877Y-21174101D02*
X104602654Y-21128344D01*
X120306060Y-89309528D02*
X120440307Y-88517806D01*
X106647491Y-64950611D02*
X106647491Y-23907794D01*
X114417834Y-104707695D02*
X114531519Y-104721167D01*
X22319756Y-101272024D02*
X22422725Y-101317646D01*
X21325017Y-100370023D02*
X21385392Y-100465551D01*
X116831755Y-103339065D02*
X116873233Y-103232363D01*
X114869318Y-104727193D02*
X114980256Y-104718084D01*
X116678483Y-103640152D02*
X116734207Y-103543064D01*
X21793434Y-21793513D02*
X21700478Y-21891184D01*
X106069327Y-22166530D02*
X105982931Y-22056589D01*
X105588428Y-21662081D02*
X105478488Y-21575683D01*
X104870037Y-21226211D02*
X104737877Y-21174101D01*
X79268402Y-98118347D02*
X79619825Y-98120645D01*
X119962618Y-68817891D02*
X119849615Y-68758387D01*
X120725055Y-69920137D02*
X120699003Y-69795107D01*
X21042263Y-99637170D02*
X21067121Y-99747413D01*
X120699003Y-69795107D02*
X120663178Y-69673555D01*
X81724553Y-98230937D02*
X82074291Y-98265381D01*
X119606995Y-68666672D02*
X106647491Y-64950611D01*
X21218860Y-100171147D02*
X21269480Y-100271825D01*
X21049932Y-23182830D02*
X21027007Y-23314210D01*
X23078052Y-101482078D02*
X23191759Y-101490535D01*
X20997490Y-99184639D02*
X21000327Y-99299127D01*
X115907617Y-104406218D02*
X115999590Y-104347927D01*
X105694026Y-21753553D02*
X105588428Y-21662081D01*
X105891460Y-21950990D02*
X105795097Y-21849917D01*
X23306244Y-101493370D02*
X54168747Y-101493347D01*
X23715622Y-20997488D02*
X23715622Y-20997488D01*
X21992830Y-21612950D02*
X21891115Y-21700567D01*
X57823814Y-101011581D02*
X57823814Y-101011581D01*
X120746346Y-84517181D02*
X120746346Y-70178646D01*
X120563702Y-69442866D02*
X120500800Y-69334721D01*
X120744992Y-70113118D02*
X120740961Y-70048149D01*
X21114721Y-22925043D02*
X21079201Y-23053033D01*
X21000556Y-23580829D02*
X20997215Y-23715622D01*
X93224898Y-99501293D02*
X93672605Y-99584271D01*
X115411094Y-104628832D02*
X115514710Y-104593834D01*
X116618357Y-103733828D02*
X116678483Y-103640152D01*
X55553294Y-101425245D02*
X56012088Y-101372398D01*
X21932681Y-101040365D02*
X22025351Y-101105499D01*
X79971141Y-98127542D02*
X80322305Y-98139037D01*
X94118828Y-99675056D02*
X94563467Y-99773630D01*
X119965073Y-90880112D02*
X120147626Y-90097149D01*
X21520346Y-100647842D02*
X21594767Y-100734227D01*
X21843058Y-100970549D02*
X21932681Y-101040365D01*
X116413290Y-103993343D02*
X116485588Y-103910527D01*
X114980256Y-104718084D02*
X115090076Y-104703590D01*
X92325451Y-99358830D02*
X92775813Y-99426140D01*
X119790967Y-68731954D02*
X119730949Y-68707815D01*
X22207471Y-21454070D02*
X22098356Y-21530754D01*
X103737228Y-20997492D02*
X23715622Y-20997488D01*
X116088715Y-104285289D02*
X116174821Y-104218407D01*
X105982931Y-22056589D02*
X105891460Y-21950990D01*
X104034787Y-21012522D02*
X103886991Y-21001281D01*
X116337281Y-104072331D02*
X116413290Y-103993343D01*
X22634779Y-101393589D02*
X22743485Y-101423753D01*
X23182826Y-21050152D02*
X23053027Y-21079407D01*
X21156400Y-22799082D02*
X21114721Y-22925043D01*
X21700478Y-21891184D02*
X21612850Y-21992890D01*
X105364387Y-21494542D02*
X105246308Y-21418842D01*
X22435573Y-21317612D02*
X22319950Y-21382992D01*
X69367896Y-98227495D02*
X70105548Y-98166918D01*
X22925033Y-21114915D02*
X22799069Y-21156581D01*
X103737228Y-20997492D02*
X103737228Y-20997492D01*
X115812969Y-104460058D02*
X115907617Y-104406218D01*
X54631255Y-101485768D02*
X55092893Y-101463051D01*
X82074291Y-98265381D02*
X91421310Y-99247810D01*
X104464550Y-21089126D02*
X104323750Y-21056627D01*
X21010518Y-23446950D02*
X21000556Y-23580829D01*
X104180434Y-21031031D02*
X104034787Y-21012522D01*
X119606995Y-68666672D02*
X119606995Y-68666672D01*
X22098356Y-21530754D02*
X21992830Y-21612950D01*
X115514710Y-104593834D02*
X115616343Y-104553970D01*
X21453948Y-22207514D02*
X21382859Y-22319987D01*
X106418789Y-22774986D02*
X106360509Y-22646071D01*
X106470898Y-22907146D02*
X106418789Y-22774986D01*
X80322305Y-98139037D02*
X80673272Y-98155126D01*
X21673714Y-100817184D02*
X21673714Y-100817184D01*
X106643705Y-23758032D02*
X106632466Y-23610236D01*
X55092893Y-101463051D02*
X55553294Y-101425245D01*
X80673272Y-98155126D02*
X81023999Y-98175807D01*
X105246308Y-21418842D02*
X105124435Y-21348765D01*
X106647491Y-64950611D02*
X106647491Y-64950611D01*
X57823814Y-101011581D02*
X65730083Y-98890289D01*
X56468906Y-101304560D02*
X56923379Y-101221779D01*
X79268402Y-98118347D02*
X79268402Y-98118347D01*
X106296240Y-22520586D02*
X106226164Y-22398712D01*
X70105548Y-98166918D02*
X70845185Y-98130517D01*
X116940735Y-103010071D02*
X116940735Y-103010071D01*
X54168747Y-101493347D02*
X54168747Y-101493347D01*
X119730949Y-68707815D02*
X119669610Y-68686034D01*
X106647491Y-23907794D02*
X106643705Y-23758032D01*
X21204145Y-22675373D02*
X21156400Y-22799082D01*
X116554001Y-103823988D02*
X116618357Y-103733828D01*
X56012088Y-101372398D02*
X56468906Y-101304560D01*
X57375138Y-101124103D02*
X57823814Y-101011581D01*
X120746346Y-70178646D02*
X120744992Y-70113118D01*
X67900910Y-98420864D02*
X68632820Y-98312169D01*
X21000327Y-99299127D02*
X21008788Y-99412838D01*
X23053027Y-21079407D02*
X22925033Y-21114915D01*
X91421310Y-99247810D02*
X91873916Y-99299381D01*
X71586216Y-98118370D02*
X71586216Y-98118370D01*
X21382859Y-22319987D02*
X21317467Y-22435603D01*
X20997490Y-99184639D02*
X20997490Y-99184639D01*
X21673714Y-100817184D02*
X21756673Y-100896129D01*
X114189873Y-104662933D02*
X114189873Y-104662933D01*
X21612850Y-21992890D02*
X21530643Y-22098408D01*
X23191759Y-101490535D02*
X23306244Y-101493370D01*
X82074291Y-98265381D02*
X82074291Y-98265381D01*
X115090076Y-104703590D02*
X115198604Y-104683814D01*
X21891115Y-21700567D02*
X21793434Y-21793513D01*
X106632466Y-23610236D02*
X106613959Y-23464589D01*
X92775813Y-99426140D02*
X93224898Y-99501293D01*
X120697243Y-86123603D02*
X120734058Y-85321050D01*
X22965311Y-101468076D02*
X23078052Y-101482078D01*
X114757434Y-104730812D02*
X114869318Y-104727193D01*
X21756673Y-100896129D02*
X21843058Y-100970549D01*
X116940735Y-103010071D02*
X119965073Y-90880112D01*
X120734300Y-69983801D02*
X120725055Y-69920137D01*
X119669610Y-68686034D02*
X119606995Y-68666672D01*
X23580829Y-21000816D02*
X23446950Y-21010763D01*
X115999590Y-104347927D02*
X116088715Y-104285289D01*
X106226164Y-22398712D02*
X106150466Y-22280632D01*
X81374440Y-98201078D02*
X81724553Y-98230937D01*
X104998950Y-21284494D02*
X104870037Y-21226211D01*
X22120879Y-101165872D02*
X22219077Y-101221407D01*
X116485588Y-103910527D02*
X116554001Y-103823988D01*
X21079201Y-23053033D02*
X21049932Y-23182830D01*
X23446950Y-21010763D02*
X23314208Y-21027240D01*
X116909617Y-103122663D02*
X116940735Y-103010071D01*
X22554116Y-21258022D02*
X22435573Y-21317612D01*
X120147626Y-90097149D02*
X120306060Y-89309528D01*
X21530643Y-22098408D02*
X21453948Y-22207514D01*
X106588365Y-23321274D02*
X106555869Y-23180473D01*
X120635967Y-86924286D02*
X120697243Y-86123603D01*
X116873233Y-103232363D02*
X116909617Y-103122663D01*
X68632820Y-98312169D02*
X69367896Y-98227495D01*
X22743485Y-101423753D02*
X22853726Y-101448609D01*
X120440307Y-88517806D02*
X120550299Y-87722539D01*
X22527796Y-101358194D02*
X22634779Y-101393589D01*
X21132686Y-99963106D02*
X21173236Y-100068177D01*
X22025351Y-101105499D02*
X22120879Y-101165872D01*
X95006416Y-99879974D02*
X114189873Y-104662933D01*
X21385392Y-100465551D02*
X21450528Y-100558221D01*
X21008788Y-99412838D02*
X21022792Y-99525582D01*
X115198604Y-104683814D02*
X115305668Y-104658860D01*
X67172756Y-98553501D02*
X67900910Y-98420864D01*
X106150466Y-22280632D02*
X106069327Y-22166530D01*
X21097288Y-99856121D02*
X21132686Y-99963106D01*
X120500800Y-69334721D02*
X120429619Y-69232038D01*
X21027007Y-23314210D02*
X21010518Y-23446950D01*
X116174821Y-104218407D02*
X116257734Y-104147387D01*
X120263917Y-69045037D02*
X120170143Y-68961712D01*
X70845185Y-98130517D02*
X71586216Y-98118370D01*
X91421310Y-99247810D02*
X91421310Y-99247810D01*
X22675355Y-21204314D02*
X22554116Y-21258022D01*
X21257865Y-22554139D02*
X21204145Y-22675373D01*
X22422725Y-101317646D02*
X22527796Y-101358194D01*
X114644776Y-104728838D02*
X114757434Y-104730812D01*
X116734207Y-103543064D02*
X116785355Y-103442667D01*
X120350533Y-69135311D02*
X120263917Y-69045037D01*
X120550299Y-87722539D02*
X120635967Y-86924286D01*
X21594767Y-100734227D02*
X21673714Y-100817184D01*
X106360509Y-22646071D02*
X106296240Y-22520586D01*
X79619825Y-98120645D02*
X79971141Y-98127542D01*
X115715821Y-104509343D02*
X115812969Y-104460058D01*
X120746346Y-70178646D02*
X120746346Y-70178646D01*
X20997215Y-23715622D02*
X20997215Y-23715622D01*
X104323750Y-21056627D02*
X104180434Y-21031031D01*
X71586216Y-98118370D02*
X79268402Y-98118347D01*
X105795097Y-21849917D02*
X105694026Y-21753553D01*
X119849615Y-68758387D02*
X119790967Y-68731954D01*
X54168747Y-101493347D02*
X54631255Y-101485768D01*
X116785355Y-103442667D02*
X116831755Y-103339065D01*
X120170143Y-68961712D02*
X120069586Y-68885831D01*
X66448951Y-98710002D02*
X67172756Y-98553501D01*
X104602654Y-21128344D02*
X104464550Y-21089126D01*
X114189873Y-104662933D02*
X114303894Y-104688319D01*
X22799069Y-21156581D02*
X22675355Y-21204314D01*
X120746346Y-84517181D02*
X120746346Y-84517181D01*
X120617953Y-69555976D02*
X120563702Y-69442866D01*
X114303894Y-104688319D02*
X114417834Y-104707695D01*
X106555869Y-23180473D02*
X106516652Y-23042369D01*
X65730083Y-98890289D02*
X66448951Y-98710002D01*
X81023999Y-98175807D02*
X81374440Y-98201078D01*
X21173236Y-100068177D02*
X21218860Y-100171147D01*
X115616343Y-104553970D02*
X115715821Y-104509343D01*
X106516652Y-23042369D02*
X106470898Y-22907146D01*
X23715622Y-20997488D02*
X23580829Y-21000816D01*
X120740961Y-70048149D02*
X120734300Y-69983801D01*
X22219077Y-101221407D02*
X22319756Y-101272024D01*
X56923379Y-101221779D02*
X57375138Y-101124103D01*
X103886991Y-21001281D02*
X103737228Y-20997492D01*
X22853726Y-101448609D02*
X22965311Y-101468076D01*
X105478488Y-21575683D02*
X105364387Y-21494542D01*
X119965073Y-90880112D02*
X119965073Y-90880112D01*
X105124435Y-21348765D02*
X104998950Y-21284494D01*
X21793434Y-21793513D02*
X21793434Y-21793513D01*
X93672605Y-99584271D02*
X94118828Y-99675056D01*
X21317467Y-22435603D02*
X21257865Y-22554139D01*
X20997215Y-23715622D02*
X20997490Y-99184639D01*
X23306244Y-101493370D02*
X23306244Y-101493370D01*
X22319950Y-21382992D02*
X22207471Y-21454070D01*
X91873916Y-99299381D02*
X92325451Y-99358830D01*
X120069586Y-68885831D02*
X119962618Y-68817891D01*
X21269480Y-100271825D02*
X21325017Y-100370023D01*
X115305668Y-104658860D02*
X115411094Y-104628832D01*
X114531519Y-104721167D02*
X114644776Y-104728838D01*
D12*
%TO.C,U1*%
X28309404Y-82614652D02*
X27776071Y-82614652D01*
X27928452Y-82614652D02*
X27852261Y-82652747D01*
X27814166Y-82690842D01*
X27776071Y-82767033D01*
X27776071Y-82843223D01*
X28309404Y-83224176D02*
X28271309Y-83147985D01*
X28233214Y-83109890D01*
X28157023Y-83071795D01*
X27928452Y-83071795D01*
X27852261Y-83109890D01*
X27814166Y-83147985D01*
X27776071Y-83224176D01*
X27776071Y-83338461D01*
X27814166Y-83414652D01*
X27852261Y-83452747D01*
X27928452Y-83490842D01*
X28157023Y-83490842D01*
X28233214Y-83452747D01*
X28271309Y-83414652D01*
X28309404Y-83338461D01*
X28309404Y-83224176D01*
X27776071Y-83757509D02*
X28309404Y-83909890D01*
X27928452Y-84062271D01*
X28309404Y-84214652D01*
X27776071Y-84367033D01*
X28309404Y-85090842D02*
X28309404Y-84633700D01*
X28309404Y-84862271D02*
X27509404Y-84862271D01*
X27623690Y-84786080D01*
X27699880Y-84709890D01*
X27737976Y-84633700D01*
X35841309Y-93501795D02*
X35879404Y-93425604D01*
X35879404Y-93273223D01*
X35841309Y-93197033D01*
X35803214Y-93158938D01*
X35727023Y-93120842D01*
X35498452Y-93120842D01*
X35422261Y-93158938D01*
X35384166Y-93197033D01*
X35346071Y-93273223D01*
X35346071Y-93425604D01*
X35384166Y-93501795D01*
X35879404Y-93958938D02*
X35841309Y-93882747D01*
X35803214Y-93844652D01*
X35727023Y-93806557D01*
X35498452Y-93806557D01*
X35422261Y-93844652D01*
X35384166Y-93882747D01*
X35346071Y-93958938D01*
X35346071Y-94073223D01*
X35384166Y-94149414D01*
X35422261Y-94187509D01*
X35498452Y-94225604D01*
X35727023Y-94225604D01*
X35803214Y-94187509D01*
X35841309Y-94149414D01*
X35879404Y-94073223D01*
X35879404Y-93958938D01*
X35879404Y-94682747D02*
X35841309Y-94606557D01*
X35765119Y-94568461D01*
X35079404Y-94568461D01*
X35079404Y-94911319D02*
X35079404Y-95406557D01*
X35384166Y-95139890D01*
X35384166Y-95254176D01*
X35422261Y-95330366D01*
X35460357Y-95368461D01*
X35536547Y-95406557D01*
X35727023Y-95406557D01*
X35803214Y-95368461D01*
X35841309Y-95330366D01*
X35879404Y-95254176D01*
X35879404Y-95025604D01*
X35841309Y-94949414D01*
X35803214Y-94911319D01*
X38221309Y-93421795D02*
X38259404Y-93345604D01*
X38259404Y-93193223D01*
X38221309Y-93117033D01*
X38183214Y-93078938D01*
X38107023Y-93040842D01*
X37878452Y-93040842D01*
X37802261Y-93078938D01*
X37764166Y-93117033D01*
X37726071Y-93193223D01*
X37726071Y-93345604D01*
X37764166Y-93421795D01*
X38259404Y-93878938D02*
X38221309Y-93802747D01*
X38183214Y-93764652D01*
X38107023Y-93726557D01*
X37878452Y-93726557D01*
X37802261Y-93764652D01*
X37764166Y-93802747D01*
X37726071Y-93878938D01*
X37726071Y-93993223D01*
X37764166Y-94069414D01*
X37802261Y-94107509D01*
X37878452Y-94145604D01*
X38107023Y-94145604D01*
X38183214Y-94107509D01*
X38221309Y-94069414D01*
X38259404Y-93993223D01*
X38259404Y-93878938D01*
X38259404Y-94602747D02*
X38221309Y-94526557D01*
X38145119Y-94488461D01*
X37459404Y-94488461D01*
X37726071Y-95250366D02*
X38259404Y-95250366D01*
X37421309Y-95059890D02*
X37992738Y-94869414D01*
X37992738Y-95364652D01*
X25579404Y-82614652D02*
X25046071Y-82614652D01*
X25198452Y-82614652D02*
X25122261Y-82652747D01*
X25084166Y-82690842D01*
X25046071Y-82767033D01*
X25046071Y-82843223D01*
X25579404Y-83224176D02*
X25541309Y-83147985D01*
X25503214Y-83109890D01*
X25427023Y-83071795D01*
X25198452Y-83071795D01*
X25122261Y-83109890D01*
X25084166Y-83147985D01*
X25046071Y-83224176D01*
X25046071Y-83338461D01*
X25084166Y-83414652D01*
X25122261Y-83452747D01*
X25198452Y-83490842D01*
X25427023Y-83490842D01*
X25503214Y-83452747D01*
X25541309Y-83414652D01*
X25579404Y-83338461D01*
X25579404Y-83224176D01*
X25046071Y-83757509D02*
X25579404Y-83909890D01*
X25198452Y-84062271D01*
X25579404Y-84214652D01*
X25046071Y-84367033D01*
X24779404Y-84824176D02*
X24779404Y-84900366D01*
X24817500Y-84976557D01*
X24855595Y-85014652D01*
X24931785Y-85052747D01*
X25084166Y-85090842D01*
X25274642Y-85090842D01*
X25427023Y-85052747D01*
X25503214Y-85014652D01*
X25541309Y-84976557D01*
X25579404Y-84900366D01*
X25579404Y-84824176D01*
X25541309Y-84747985D01*
X25503214Y-84709890D01*
X25427023Y-84671795D01*
X25274642Y-84633700D01*
X25084166Y-84633700D01*
X24931785Y-84671795D01*
X24855595Y-84709890D01*
X24817500Y-84747985D01*
X24779404Y-84824176D01*
X33231309Y-93431795D02*
X33269404Y-93355604D01*
X33269404Y-93203223D01*
X33231309Y-93127033D01*
X33193214Y-93088938D01*
X33117023Y-93050842D01*
X32888452Y-93050842D01*
X32812261Y-93088938D01*
X32774166Y-93127033D01*
X32736071Y-93203223D01*
X32736071Y-93355604D01*
X32774166Y-93431795D01*
X33269404Y-93888938D02*
X33231309Y-93812747D01*
X33193214Y-93774652D01*
X33117023Y-93736557D01*
X32888452Y-93736557D01*
X32812261Y-93774652D01*
X32774166Y-93812747D01*
X32736071Y-93888938D01*
X32736071Y-94003223D01*
X32774166Y-94079414D01*
X32812261Y-94117509D01*
X32888452Y-94155604D01*
X33117023Y-94155604D01*
X33193214Y-94117509D01*
X33231309Y-94079414D01*
X33269404Y-94003223D01*
X33269404Y-93888938D01*
X33269404Y-94612747D02*
X33231309Y-94536557D01*
X33155119Y-94498461D01*
X32469404Y-94498461D01*
X32545595Y-94879414D02*
X32507500Y-94917509D01*
X32469404Y-94993700D01*
X32469404Y-95184176D01*
X32507500Y-95260366D01*
X32545595Y-95298461D01*
X32621785Y-95336557D01*
X32697976Y-95336557D01*
X32812261Y-95298461D01*
X33269404Y-94841319D01*
X33269404Y-95336557D01*
X27477500Y-93684176D02*
X27439404Y-93607985D01*
X27439404Y-93493700D01*
X27477500Y-93379414D01*
X27553690Y-93303223D01*
X27629880Y-93265128D01*
X27782261Y-93227033D01*
X27896547Y-93227033D01*
X28048928Y-93265128D01*
X28125119Y-93303223D01*
X28201309Y-93379414D01*
X28239404Y-93493700D01*
X28239404Y-93569890D01*
X28201309Y-93684176D01*
X28163214Y-93722271D01*
X27896547Y-93722271D01*
X27896547Y-93569890D01*
X28239404Y-94065128D02*
X27439404Y-94065128D01*
X28239404Y-94522271D01*
X27439404Y-94522271D01*
X28239404Y-94903223D02*
X27439404Y-94903223D01*
X27439404Y-95093700D01*
X27477500Y-95207985D01*
X27553690Y-95284176D01*
X27629880Y-95322271D01*
X27782261Y-95360366D01*
X27896547Y-95360366D01*
X28048928Y-95322271D01*
X28125119Y-95284176D01*
X28201309Y-95207985D01*
X28239404Y-95093700D01*
X28239404Y-94903223D01*
X30889404Y-82674652D02*
X30356071Y-82674652D01*
X30508452Y-82674652D02*
X30432261Y-82712747D01*
X30394166Y-82750842D01*
X30356071Y-82827033D01*
X30356071Y-82903223D01*
X30889404Y-83284176D02*
X30851309Y-83207985D01*
X30813214Y-83169890D01*
X30737023Y-83131795D01*
X30508452Y-83131795D01*
X30432261Y-83169890D01*
X30394166Y-83207985D01*
X30356071Y-83284176D01*
X30356071Y-83398461D01*
X30394166Y-83474652D01*
X30432261Y-83512747D01*
X30508452Y-83550842D01*
X30737023Y-83550842D01*
X30813214Y-83512747D01*
X30851309Y-83474652D01*
X30889404Y-83398461D01*
X30889404Y-83284176D01*
X30356071Y-83817509D02*
X30889404Y-83969890D01*
X30508452Y-84122271D01*
X30889404Y-84274652D01*
X30356071Y-84427033D01*
X30165595Y-84693700D02*
X30127500Y-84731795D01*
X30089404Y-84807985D01*
X30089404Y-84998461D01*
X30127500Y-85074652D01*
X30165595Y-85112747D01*
X30241785Y-85150842D01*
X30317976Y-85150842D01*
X30432261Y-85112747D01*
X30889404Y-84655604D01*
X30889404Y-85150842D01*
X38411309Y-82951795D02*
X38449404Y-82875604D01*
X38449404Y-82723223D01*
X38411309Y-82647033D01*
X38373214Y-82608938D01*
X38297023Y-82570842D01*
X38068452Y-82570842D01*
X37992261Y-82608938D01*
X37954166Y-82647033D01*
X37916071Y-82723223D01*
X37916071Y-82875604D01*
X37954166Y-82951795D01*
X38449404Y-83408938D02*
X38411309Y-83332747D01*
X38373214Y-83294652D01*
X38297023Y-83256557D01*
X38068452Y-83256557D01*
X37992261Y-83294652D01*
X37954166Y-83332747D01*
X37916071Y-83408938D01*
X37916071Y-83523223D01*
X37954166Y-83599414D01*
X37992261Y-83637509D01*
X38068452Y-83675604D01*
X38297023Y-83675604D01*
X38373214Y-83637509D01*
X38411309Y-83599414D01*
X38449404Y-83523223D01*
X38449404Y-83408938D01*
X38449404Y-84132747D02*
X38411309Y-84056557D01*
X38335119Y-84018461D01*
X37649404Y-84018461D01*
X38449404Y-84856557D02*
X38449404Y-84399414D01*
X38449404Y-84627985D02*
X37649404Y-84627985D01*
X37763690Y-84551795D01*
X37839880Y-84475604D01*
X37877976Y-84399414D01*
X33419404Y-82674652D02*
X32886071Y-82674652D01*
X33038452Y-82674652D02*
X32962261Y-82712747D01*
X32924166Y-82750842D01*
X32886071Y-82827033D01*
X32886071Y-82903223D01*
X33419404Y-83284176D02*
X33381309Y-83207985D01*
X33343214Y-83169890D01*
X33267023Y-83131795D01*
X33038452Y-83131795D01*
X32962261Y-83169890D01*
X32924166Y-83207985D01*
X32886071Y-83284176D01*
X32886071Y-83398461D01*
X32924166Y-83474652D01*
X32962261Y-83512747D01*
X33038452Y-83550842D01*
X33267023Y-83550842D01*
X33343214Y-83512747D01*
X33381309Y-83474652D01*
X33419404Y-83398461D01*
X33419404Y-83284176D01*
X32886071Y-83817509D02*
X33419404Y-83969890D01*
X33038452Y-84122271D01*
X33419404Y-84274652D01*
X32886071Y-84427033D01*
X32619404Y-84655604D02*
X32619404Y-85150842D01*
X32924166Y-84884176D01*
X32924166Y-84998461D01*
X32962261Y-85074652D01*
X33000357Y-85112747D01*
X33076547Y-85150842D01*
X33267023Y-85150842D01*
X33343214Y-85112747D01*
X33381309Y-85074652D01*
X33419404Y-84998461D01*
X33419404Y-84769890D01*
X33381309Y-84693700D01*
X33343214Y-84655604D01*
X35891309Y-83091795D02*
X35929404Y-83015604D01*
X35929404Y-82863223D01*
X35891309Y-82787033D01*
X35853214Y-82748938D01*
X35777023Y-82710842D01*
X35548452Y-82710842D01*
X35472261Y-82748938D01*
X35434166Y-82787033D01*
X35396071Y-82863223D01*
X35396071Y-83015604D01*
X35434166Y-83091795D01*
X35929404Y-83548938D02*
X35891309Y-83472747D01*
X35853214Y-83434652D01*
X35777023Y-83396557D01*
X35548452Y-83396557D01*
X35472261Y-83434652D01*
X35434166Y-83472747D01*
X35396071Y-83548938D01*
X35396071Y-83663223D01*
X35434166Y-83739414D01*
X35472261Y-83777509D01*
X35548452Y-83815604D01*
X35777023Y-83815604D01*
X35853214Y-83777509D01*
X35891309Y-83739414D01*
X35929404Y-83663223D01*
X35929404Y-83548938D01*
X35929404Y-84272747D02*
X35891309Y-84196557D01*
X35815119Y-84158461D01*
X35129404Y-84158461D01*
X35129404Y-84729890D02*
X35129404Y-84806080D01*
X35167500Y-84882271D01*
X35205595Y-84920366D01*
X35281785Y-84958461D01*
X35434166Y-84996557D01*
X35624642Y-84996557D01*
X35777023Y-84958461D01*
X35853214Y-84920366D01*
X35891309Y-84882271D01*
X35929404Y-84806080D01*
X35929404Y-84729890D01*
X35891309Y-84653700D01*
X35853214Y-84615604D01*
X35777023Y-84577509D01*
X35624642Y-84539414D01*
X35434166Y-84539414D01*
X35281785Y-84577509D01*
X35205595Y-84615604D01*
X35167500Y-84653700D01*
X35129404Y-84729890D01*
X40979404Y-93342747D02*
X40179404Y-93342747D01*
X40941309Y-93342747D02*
X40979404Y-93266557D01*
X40979404Y-93114176D01*
X40941309Y-93037985D01*
X40903214Y-92999890D01*
X40827023Y-92961795D01*
X40598452Y-92961795D01*
X40522261Y-92999890D01*
X40484166Y-93037985D01*
X40446071Y-93114176D01*
X40446071Y-93266557D01*
X40484166Y-93342747D01*
X40979404Y-94066557D02*
X40560357Y-94066557D01*
X40484166Y-94028461D01*
X40446071Y-93952271D01*
X40446071Y-93799890D01*
X40484166Y-93723700D01*
X40941309Y-94066557D02*
X40979404Y-93990366D01*
X40979404Y-93799890D01*
X40941309Y-93723700D01*
X40865119Y-93685604D01*
X40788928Y-93685604D01*
X40712738Y-93723700D01*
X40674642Y-93799890D01*
X40674642Y-93990366D01*
X40636547Y-94066557D01*
X40446071Y-94333223D02*
X40446071Y-94637985D01*
X40179404Y-94447509D02*
X40865119Y-94447509D01*
X40941309Y-94485604D01*
X40979404Y-94561795D01*
X40979404Y-94637985D01*
X40979404Y-95247509D02*
X40560357Y-95247509D01*
X40484166Y-95209414D01*
X40446071Y-95133223D01*
X40446071Y-94980842D01*
X40484166Y-94904652D01*
X40941309Y-95247509D02*
X40979404Y-95171319D01*
X40979404Y-94980842D01*
X40941309Y-94904652D01*
X40865119Y-94866557D01*
X40788928Y-94866557D01*
X40712738Y-94904652D01*
X40674642Y-94980842D01*
X40674642Y-95171319D01*
X40636547Y-95247509D01*
X24989404Y-93327033D02*
X25789404Y-93593700D01*
X24989404Y-93860366D01*
X25713214Y-94584176D02*
X25751309Y-94546080D01*
X25789404Y-94431795D01*
X25789404Y-94355604D01*
X25751309Y-94241319D01*
X25675119Y-94165128D01*
X25598928Y-94127033D01*
X25446547Y-94088938D01*
X25332261Y-94088938D01*
X25179880Y-94127033D01*
X25103690Y-94165128D01*
X25027500Y-94241319D01*
X24989404Y-94355604D01*
X24989404Y-94431795D01*
X25027500Y-94546080D01*
X25065595Y-94584176D01*
X25713214Y-95384176D02*
X25751309Y-95346080D01*
X25789404Y-95231795D01*
X25789404Y-95155604D01*
X25751309Y-95041319D01*
X25675119Y-94965128D01*
X25598928Y-94927033D01*
X25446547Y-94888938D01*
X25332261Y-94888938D01*
X25179880Y-94927033D01*
X25103690Y-94965128D01*
X25027500Y-95041319D01*
X24989404Y-95155604D01*
X24989404Y-95231795D01*
X25027500Y-95346080D01*
X25065595Y-95384176D01*
D13*
%TO.C,SW10*%
X95400000Y-58970000D02*
X95400000Y-59670000D01*
X94180000Y-57495000D02*
X90405000Y-57495000D01*
X102480000Y-44666000D02*
X93855000Y-44666000D01*
X89955000Y-56270000D02*
X89955000Y-57495000D01*
X102480000Y-48620000D02*
X97430000Y-48666000D01*
X102480000Y-48574000D02*
X102480000Y-44666000D01*
X95105000Y-52845000D02*
X90405000Y-52845000D01*
X90405000Y-52870000D02*
X90405000Y-56270000D01*
X90405000Y-56270000D02*
X89955000Y-56270000D01*
X99955000Y-59695000D02*
X95405000Y-59695000D01*
X99980000Y-55070000D02*
X99980000Y-59670000D01*
X91580000Y-50574000D02*
X95190000Y-50574000D01*
X99955000Y-55045000D02*
X97405000Y-55045000D01*
X90405000Y-57495000D02*
X89955000Y-57495000D01*
X91580000Y-46620000D02*
X91580000Y-50565000D01*
X93855000Y-44666000D02*
G75*
G03*
X91591000Y-46550000I-190000J-2074000D01*
G01*
X95110000Y-52870000D02*
G75*
G03*
X97480000Y-55040000I2270000J100000D01*
G01*
X97455000Y-48670000D02*
G75*
G03*
X95195000Y-50550000I-190000J-2070000D01*
G01*
X95400000Y-58920000D02*
G75*
G03*
X94180000Y-57500000I-1320000J100000D01*
G01*
%TO.C,D13*%
X62060000Y-61640000D02*
X67460000Y-61640000D01*
X64360000Y-60890000D02*
X65260000Y-60390000D01*
X62060000Y-60140000D02*
X62060000Y-61640000D01*
X65260000Y-60390000D02*
X65260000Y-61390000D01*
X67460000Y-61640000D02*
X67460000Y-60140000D01*
X67460000Y-60140000D02*
X62060000Y-60140000D01*
X65260000Y-61390000D02*
X64360000Y-60890000D01*
X64260000Y-60390000D02*
X64260000Y-61390000D01*
%TO.C,SW13*%
X62460000Y-76480000D02*
X62460000Y-77180000D01*
X61240000Y-75005000D02*
X57465000Y-75005000D01*
X69540000Y-62176000D02*
X60915000Y-62176000D01*
X57015000Y-73780000D02*
X57015000Y-75005000D01*
X69540000Y-66130000D02*
X64490000Y-66176000D01*
X69540000Y-66084000D02*
X69540000Y-62176000D01*
X62165000Y-70355000D02*
X57465000Y-70355000D01*
X57465000Y-70380000D02*
X57465000Y-73780000D01*
X57465000Y-73780000D02*
X57015000Y-73780000D01*
X67015000Y-77205000D02*
X62465000Y-77205000D01*
X67040000Y-72580000D02*
X67040000Y-77180000D01*
X58640000Y-68084000D02*
X62250000Y-68084000D01*
X67015000Y-72555000D02*
X64465000Y-72555000D01*
X57465000Y-75005000D02*
X57015000Y-75005000D01*
X58640000Y-64130000D02*
X58640000Y-68075000D01*
X60915000Y-62176000D02*
G75*
G03*
X58651000Y-64060000I-190000J-2074000D01*
G01*
X62170000Y-70380000D02*
G75*
G03*
X64540000Y-72550000I2270000J100000D01*
G01*
X64515000Y-66180000D02*
G75*
G03*
X62255000Y-68060000I-190000J-2070000D01*
G01*
X62460000Y-76430000D02*
G75*
G03*
X61240000Y-75010000I-1320000J100000D01*
G01*
%TO.C,SW9*%
X78890000Y-58960000D02*
X78890000Y-59660000D01*
X77670000Y-57485000D02*
X73895000Y-57485000D01*
X85970000Y-44656000D02*
X77345000Y-44656000D01*
X73445000Y-56260000D02*
X73445000Y-57485000D01*
X85970000Y-48610000D02*
X80920000Y-48656000D01*
X85970000Y-48564000D02*
X85970000Y-44656000D01*
X78595000Y-52835000D02*
X73895000Y-52835000D01*
X73895000Y-52860000D02*
X73895000Y-56260000D01*
X73895000Y-56260000D02*
X73445000Y-56260000D01*
X83445000Y-59685000D02*
X78895000Y-59685000D01*
X83470000Y-55060000D02*
X83470000Y-59660000D01*
X75070000Y-50564000D02*
X78680000Y-50564000D01*
X83445000Y-55035000D02*
X80895000Y-55035000D01*
X73895000Y-57485000D02*
X73445000Y-57485000D01*
X75070000Y-46610000D02*
X75070000Y-50555000D01*
X77345000Y-44656000D02*
G75*
G03*
X75081000Y-46540000I-190000J-2074000D01*
G01*
X78600000Y-52860000D02*
G75*
G03*
X80970000Y-55030000I2270000J100000D01*
G01*
X80945000Y-48660000D02*
G75*
G03*
X78685000Y-50540000I-190000J-2070000D01*
G01*
X78890000Y-58910000D02*
G75*
G03*
X77670000Y-57490000I-1320000J100000D01*
G01*
%TO.C,D10*%
X100340000Y-42780000D02*
X94940000Y-42780000D01*
X98140000Y-44030000D02*
X97240000Y-43530000D01*
X100340000Y-44280000D02*
X100340000Y-42780000D01*
X94940000Y-42780000D02*
X94940000Y-44280000D01*
X97240000Y-43530000D02*
X98140000Y-43030000D01*
X97140000Y-43030000D02*
X97140000Y-44030000D01*
X98140000Y-43030000D02*
X98140000Y-44030000D01*
X94940000Y-44280000D02*
X100340000Y-44280000D01*
%TO.C,SW7*%
X45900000Y-58950000D02*
X45900000Y-59650000D01*
X44680000Y-57475000D02*
X40905000Y-57475000D01*
X52980000Y-44646000D02*
X44355000Y-44646000D01*
X40455000Y-56250000D02*
X40455000Y-57475000D01*
X52980000Y-48600000D02*
X47930000Y-48646000D01*
X52980000Y-48554000D02*
X52980000Y-44646000D01*
X45605000Y-52825000D02*
X40905000Y-52825000D01*
X40905000Y-52850000D02*
X40905000Y-56250000D01*
X40905000Y-56250000D02*
X40455000Y-56250000D01*
X50455000Y-59675000D02*
X45905000Y-59675000D01*
X50480000Y-55050000D02*
X50480000Y-59650000D01*
X42080000Y-50554000D02*
X45690000Y-50554000D01*
X50455000Y-55025000D02*
X47905000Y-55025000D01*
X40905000Y-57475000D02*
X40455000Y-57475000D01*
X42080000Y-46600000D02*
X42080000Y-50545000D01*
X44355000Y-44646000D02*
G75*
G03*
X42091000Y-46530000I-190000J-2074000D01*
G01*
X45610000Y-52850000D02*
G75*
G03*
X47980000Y-55020000I2270000J100000D01*
G01*
X47955000Y-48650000D02*
G75*
G03*
X45695000Y-50530000I-190000J-2070000D01*
G01*
X45900000Y-58900000D02*
G75*
G03*
X44680000Y-57480000I-1320000J100000D01*
G01*
%TO.C,SW17*%
X89601427Y-97507289D02*
X89528257Y-98203455D01*
X88542289Y-95912845D02*
X84787969Y-95518250D01*
X98137817Y-84021710D02*
X89560065Y-83120152D01*
X84468482Y-94252923D02*
X84340434Y-95471212D01*
X97724511Y-87954049D02*
X92697367Y-87471928D01*
X97729320Y-87908301D02*
X98137817Y-84021710D01*
X89948279Y-91385007D02*
X85274027Y-90893723D01*
X85271413Y-90918586D02*
X84916017Y-94299961D01*
X84916017Y-94299961D02*
X84468482Y-94252923D01*
X94055691Y-98704445D02*
X89530616Y-98228840D01*
X94563998Y-94107394D02*
X94083167Y-98682195D01*
X86679974Y-88757985D02*
X90270198Y-89135333D01*
X94541748Y-94079918D02*
X92005717Y-93813370D01*
X84787969Y-95518250D02*
X84340434Y-95471212D01*
X87093279Y-84825645D02*
X86680915Y-88749034D01*
X89560065Y-83120152D02*
G75*
G03*
X87111536Y-84757178I-405751J-2042778D01*
G01*
X89950639Y-91410393D02*
G75*
G03*
X92080829Y-93816237I2268017J-137827D01*
G01*
X92721812Y-87478520D02*
G75*
G03*
X90277679Y-89111987I-405333J-2038800D01*
G01*
X89606653Y-97457563D02*
G75*
G03*
X88541767Y-95917817I-1302316J237430D01*
G01*
%TO.C,SW6*%
X27760000Y-58960000D02*
X27760000Y-59660000D01*
X26540000Y-57485000D02*
X22765000Y-57485000D01*
X34840000Y-44656000D02*
X26215000Y-44656000D01*
X22315000Y-56260000D02*
X22315000Y-57485000D01*
X34840000Y-48610000D02*
X29790000Y-48656000D01*
X34840000Y-48564000D02*
X34840000Y-44656000D01*
X27465000Y-52835000D02*
X22765000Y-52835000D01*
X22765000Y-52860000D02*
X22765000Y-56260000D01*
X22765000Y-56260000D02*
X22315000Y-56260000D01*
X32315000Y-59685000D02*
X27765000Y-59685000D01*
X32340000Y-55060000D02*
X32340000Y-59660000D01*
X23940000Y-50564000D02*
X27550000Y-50564000D01*
X32315000Y-55035000D02*
X29765000Y-55035000D01*
X22765000Y-57485000D02*
X22315000Y-57485000D01*
X23940000Y-46610000D02*
X23940000Y-50555000D01*
X26215000Y-44656000D02*
G75*
G03*
X23951000Y-46540000I-190000J-2074000D01*
G01*
X27470000Y-52860000D02*
G75*
G03*
X29840000Y-55030000I2270000J100000D01*
G01*
X29815000Y-48660000D02*
G75*
G03*
X27555000Y-50540000I-190000J-2070000D01*
G01*
X27760000Y-58910000D02*
G75*
G03*
X26540000Y-57490000I-1320000J100000D01*
G01*
%TO.C,SW11*%
X27770000Y-76460000D02*
X27770000Y-77160000D01*
X26550000Y-74985000D02*
X22775000Y-74985000D01*
X34850000Y-62156000D02*
X26225000Y-62156000D01*
X22325000Y-73760000D02*
X22325000Y-74985000D01*
X34850000Y-66110000D02*
X29800000Y-66156000D01*
X34850000Y-66064000D02*
X34850000Y-62156000D01*
X27475000Y-70335000D02*
X22775000Y-70335000D01*
X22775000Y-70360000D02*
X22775000Y-73760000D01*
X22775000Y-73760000D02*
X22325000Y-73760000D01*
X32325000Y-77185000D02*
X27775000Y-77185000D01*
X32350000Y-72560000D02*
X32350000Y-77160000D01*
X23950000Y-68064000D02*
X27560000Y-68064000D01*
X32325000Y-72535000D02*
X29775000Y-72535000D01*
X22775000Y-74985000D02*
X22325000Y-74985000D01*
X23950000Y-64110000D02*
X23950000Y-68055000D01*
X26225000Y-62156000D02*
G75*
G03*
X23961000Y-64040000I-190000J-2074000D01*
G01*
X27480000Y-70360000D02*
G75*
G03*
X29850000Y-72530000I2270000J100000D01*
G01*
X29825000Y-66160000D02*
G75*
G03*
X27565000Y-68040000I-190000J-2070000D01*
G01*
X27770000Y-76410000D02*
G75*
G03*
X26550000Y-74990000I-1320000J100000D01*
G01*
%TO.C,SW3*%
X62430000Y-41450000D02*
X62430000Y-42150000D01*
X61210000Y-39975000D02*
X57435000Y-39975000D01*
X69510000Y-27146000D02*
X60885000Y-27146000D01*
X56985000Y-38750000D02*
X56985000Y-39975000D01*
X69510000Y-31100000D02*
X64460000Y-31146000D01*
X69510000Y-31054000D02*
X69510000Y-27146000D01*
X62135000Y-35325000D02*
X57435000Y-35325000D01*
X57435000Y-35350000D02*
X57435000Y-38750000D01*
X57435000Y-38750000D02*
X56985000Y-38750000D01*
X66985000Y-42175000D02*
X62435000Y-42175000D01*
X67010000Y-37550000D02*
X67010000Y-42150000D01*
X58610000Y-33054000D02*
X62220000Y-33054000D01*
X66985000Y-37525000D02*
X64435000Y-37525000D01*
X57435000Y-39975000D02*
X56985000Y-39975000D01*
X58610000Y-29100000D02*
X58610000Y-33045000D01*
X60885000Y-27146000D02*
G75*
G03*
X58621000Y-29030000I-190000J-2074000D01*
G01*
X62140000Y-35350000D02*
G75*
G03*
X64510000Y-37520000I2270000J100000D01*
G01*
X64485000Y-31150000D02*
G75*
G03*
X62225000Y-33030000I-190000J-2070000D01*
G01*
X62430000Y-41400000D02*
G75*
G03*
X61210000Y-39980000I-1320000J100000D01*
G01*
%TO.C,SW5*%
X95410000Y-41410000D02*
G75*
G03*
X94190000Y-39990000I-1320000J100000D01*
G01*
X97465000Y-31160000D02*
G75*
G03*
X95205000Y-33040000I-190000J-2070000D01*
G01*
X95120000Y-35360000D02*
G75*
G03*
X97490000Y-37530000I2270000J100000D01*
G01*
X93865000Y-27156000D02*
G75*
G03*
X91601000Y-29040000I-190000J-2074000D01*
G01*
X91590000Y-29110000D02*
X91590000Y-33055000D01*
X90415000Y-39985000D02*
X89965000Y-39985000D01*
X99965000Y-37535000D02*
X97415000Y-37535000D01*
X91590000Y-33064000D02*
X95200000Y-33064000D01*
X99990000Y-37560000D02*
X99990000Y-42160000D01*
X99965000Y-42185000D02*
X95415000Y-42185000D01*
X90415000Y-38760000D02*
X89965000Y-38760000D01*
X90415000Y-35360000D02*
X90415000Y-38760000D01*
X95115000Y-35335000D02*
X90415000Y-35335000D01*
X102490000Y-31064000D02*
X102490000Y-27156000D01*
X102490000Y-31110000D02*
X97440000Y-31156000D01*
X89965000Y-38760000D02*
X89965000Y-39985000D01*
X102490000Y-27156000D02*
X93865000Y-27156000D01*
X94190000Y-39985000D02*
X90415000Y-39985000D01*
X95410000Y-41460000D02*
X95410000Y-42160000D01*
%TO.C,SW15*%
X95390000Y-76460000D02*
X95390000Y-77160000D01*
X94170000Y-74985000D02*
X90395000Y-74985000D01*
X102470000Y-62156000D02*
X93845000Y-62156000D01*
X89945000Y-73760000D02*
X89945000Y-74985000D01*
X102470000Y-66110000D02*
X97420000Y-66156000D01*
X102470000Y-66064000D02*
X102470000Y-62156000D01*
X95095000Y-70335000D02*
X90395000Y-70335000D01*
X90395000Y-70360000D02*
X90395000Y-73760000D01*
X90395000Y-73760000D02*
X89945000Y-73760000D01*
X99945000Y-77185000D02*
X95395000Y-77185000D01*
X99970000Y-72560000D02*
X99970000Y-77160000D01*
X91570000Y-68064000D02*
X95180000Y-68064000D01*
X99945000Y-72535000D02*
X97395000Y-72535000D01*
X90395000Y-74985000D02*
X89945000Y-74985000D01*
X91570000Y-64110000D02*
X91570000Y-68055000D01*
X93845000Y-62156000D02*
G75*
G03*
X91581000Y-64040000I-190000J-2074000D01*
G01*
X95100000Y-70360000D02*
G75*
G03*
X97470000Y-72530000I2270000J100000D01*
G01*
X97445000Y-66160000D02*
G75*
G03*
X95185000Y-68040000I-190000J-2070000D01*
G01*
X95390000Y-76410000D02*
G75*
G03*
X94170000Y-74990000I-1320000J100000D01*
G01*
%TO.C,SW16*%
X73090000Y-96580000D02*
X73090000Y-97280000D01*
X71870000Y-95105000D02*
X68095000Y-95105000D01*
X80170000Y-82276000D02*
X71545000Y-82276000D01*
X67645000Y-93880000D02*
X67645000Y-95105000D01*
X80170000Y-86230000D02*
X75120000Y-86276000D01*
X80170000Y-86184000D02*
X80170000Y-82276000D01*
X72795000Y-90455000D02*
X68095000Y-90455000D01*
X68095000Y-90480000D02*
X68095000Y-93880000D01*
X68095000Y-93880000D02*
X67645000Y-93880000D01*
X77645000Y-97305000D02*
X73095000Y-97305000D01*
X77670000Y-92680000D02*
X77670000Y-97280000D01*
X69270000Y-88184000D02*
X72880000Y-88184000D01*
X77645000Y-92655000D02*
X75095000Y-92655000D01*
X68095000Y-95105000D02*
X67645000Y-95105000D01*
X69270000Y-84230000D02*
X69270000Y-88175000D01*
X71545000Y-82276000D02*
G75*
G03*
X69281000Y-84160000I-190000J-2074000D01*
G01*
X72800000Y-90480000D02*
G75*
G03*
X75170000Y-92650000I2270000J100000D01*
G01*
X75145000Y-86280000D02*
G75*
G03*
X72885000Y-88160000I-190000J-2070000D01*
G01*
X73090000Y-96530000D02*
G75*
G03*
X71870000Y-95110000I-1320000J100000D01*
G01*
%TO.C,SW18*%
X105854507Y-100916121D02*
G75*
G03*
X105014276Y-99243157I-1256598J416366D01*
G01*
X110328165Y-91467740D02*
G75*
G03*
X107680483Y-92745152I-685135J-1962547D01*
G01*
X107036750Y-94975675D02*
G75*
G03*
X108811380Y-97654571I2226763J-452133D01*
G01*
X107803755Y-86711757D02*
G75*
G03*
X105151225Y-87992083I-686102J-1966428D01*
G01*
X105123617Y-88057342D02*
X104169235Y-91885159D01*
X101352619Y-98325050D02*
X100915986Y-98216185D01*
X111211652Y-98258180D02*
X108737398Y-97641279D01*
X104167058Y-91893891D02*
X107669826Y-92767230D01*
X111229861Y-98288485D02*
X110117021Y-102751845D01*
X110086715Y-102770055D02*
X105671870Y-101669310D01*
X101648973Y-97136438D02*
X101212340Y-97027573D01*
X102471508Y-93837432D02*
X101648973Y-97136438D01*
X107037946Y-94950208D02*
X102477556Y-93813175D01*
X115227125Y-92590249D02*
X116172556Y-88798333D01*
X115215997Y-92634882D02*
X110304875Y-91457810D01*
X101212340Y-97027573D02*
X100915986Y-98216185D01*
X116172556Y-88798333D02*
X107803755Y-86711757D01*
X105015486Y-99238305D02*
X101352619Y-98325050D01*
X105842412Y-100964636D02*
X105673066Y-101643843D01*
%TO.C,SW8*%
X62430000Y-58960000D02*
X62430000Y-59660000D01*
X61210000Y-57485000D02*
X57435000Y-57485000D01*
X69510000Y-44656000D02*
X60885000Y-44656000D01*
X56985000Y-56260000D02*
X56985000Y-57485000D01*
X69510000Y-48610000D02*
X64460000Y-48656000D01*
X69510000Y-48564000D02*
X69510000Y-44656000D01*
X62135000Y-52835000D02*
X57435000Y-52835000D01*
X57435000Y-52860000D02*
X57435000Y-56260000D01*
X57435000Y-56260000D02*
X56985000Y-56260000D01*
X66985000Y-59685000D02*
X62435000Y-59685000D01*
X67010000Y-55060000D02*
X67010000Y-59660000D01*
X58610000Y-50564000D02*
X62220000Y-50564000D01*
X66985000Y-55035000D02*
X64435000Y-55035000D01*
X57435000Y-57485000D02*
X56985000Y-57485000D01*
X58610000Y-46610000D02*
X58610000Y-50555000D01*
X60885000Y-44656000D02*
G75*
G03*
X58621000Y-46540000I-190000J-2074000D01*
G01*
X62140000Y-52860000D02*
G75*
G03*
X64510000Y-55030000I2270000J100000D01*
G01*
X64485000Y-48660000D02*
G75*
G03*
X62225000Y-50540000I-190000J-2070000D01*
G01*
X62430000Y-58910000D02*
G75*
G03*
X61210000Y-57490000I-1320000J100000D01*
G01*
%TO.C,SW2*%
X45890000Y-41450000D02*
X45890000Y-42150000D01*
X44670000Y-39975000D02*
X40895000Y-39975000D01*
X52970000Y-27146000D02*
X44345000Y-27146000D01*
X40445000Y-38750000D02*
X40445000Y-39975000D01*
X52970000Y-31100000D02*
X47920000Y-31146000D01*
X52970000Y-31054000D02*
X52970000Y-27146000D01*
X45595000Y-35325000D02*
X40895000Y-35325000D01*
X40895000Y-35350000D02*
X40895000Y-38750000D01*
X40895000Y-38750000D02*
X40445000Y-38750000D01*
X50445000Y-42175000D02*
X45895000Y-42175000D01*
X50470000Y-37550000D02*
X50470000Y-42150000D01*
X42070000Y-33054000D02*
X45680000Y-33054000D01*
X50445000Y-37525000D02*
X47895000Y-37525000D01*
X40895000Y-39975000D02*
X40445000Y-39975000D01*
X42070000Y-29100000D02*
X42070000Y-33045000D01*
X44345000Y-27146000D02*
G75*
G03*
X42081000Y-29030000I-190000J-2074000D01*
G01*
X45600000Y-35350000D02*
G75*
G03*
X47970000Y-37520000I2270000J100000D01*
G01*
X47945000Y-31150000D02*
G75*
G03*
X45685000Y-33030000I-190000J-2070000D01*
G01*
X45890000Y-41400000D02*
G75*
G03*
X44670000Y-39980000I-1320000J100000D01*
G01*
%TO.C,SW12*%
X45900000Y-76440000D02*
X45900000Y-77140000D01*
X44680000Y-74965000D02*
X40905000Y-74965000D01*
X52980000Y-62136000D02*
X44355000Y-62136000D01*
X40455000Y-73740000D02*
X40455000Y-74965000D01*
X52980000Y-66090000D02*
X47930000Y-66136000D01*
X52980000Y-66044000D02*
X52980000Y-62136000D01*
X45605000Y-70315000D02*
X40905000Y-70315000D01*
X40905000Y-70340000D02*
X40905000Y-73740000D01*
X40905000Y-73740000D02*
X40455000Y-73740000D01*
X50455000Y-77165000D02*
X45905000Y-77165000D01*
X50480000Y-72540000D02*
X50480000Y-77140000D01*
X42080000Y-68044000D02*
X45690000Y-68044000D01*
X50455000Y-72515000D02*
X47905000Y-72515000D01*
X40905000Y-74965000D02*
X40455000Y-74965000D01*
X42080000Y-64090000D02*
X42080000Y-68035000D01*
X44355000Y-62136000D02*
G75*
G03*
X42091000Y-64020000I-190000J-2074000D01*
G01*
X45610000Y-70340000D02*
G75*
G03*
X47980000Y-72510000I2270000J100000D01*
G01*
X47955000Y-66140000D02*
G75*
G03*
X45695000Y-68020000I-190000J-2070000D01*
G01*
X45900000Y-76390000D02*
G75*
G03*
X44680000Y-74970000I-1320000J100000D01*
G01*
%TO.C,SW14*%
X78880000Y-76460000D02*
X78880000Y-77160000D01*
X77660000Y-74985000D02*
X73885000Y-74985000D01*
X85960000Y-62156000D02*
X77335000Y-62156000D01*
X73435000Y-73760000D02*
X73435000Y-74985000D01*
X85960000Y-66110000D02*
X80910000Y-66156000D01*
X85960000Y-66064000D02*
X85960000Y-62156000D01*
X78585000Y-70335000D02*
X73885000Y-70335000D01*
X73885000Y-70360000D02*
X73885000Y-73760000D01*
X73885000Y-73760000D02*
X73435000Y-73760000D01*
X83435000Y-77185000D02*
X78885000Y-77185000D01*
X83460000Y-72560000D02*
X83460000Y-77160000D01*
X75060000Y-68064000D02*
X78670000Y-68064000D01*
X83435000Y-72535000D02*
X80885000Y-72535000D01*
X73885000Y-74985000D02*
X73435000Y-74985000D01*
X75060000Y-64110000D02*
X75060000Y-68055000D01*
X77335000Y-62156000D02*
G75*
G03*
X75071000Y-64040000I-190000J-2074000D01*
G01*
X78590000Y-70360000D02*
G75*
G03*
X80960000Y-72530000I2270000J100000D01*
G01*
X80935000Y-66160000D02*
G75*
G03*
X78675000Y-68040000I-190000J-2070000D01*
G01*
X78880000Y-76410000D02*
G75*
G03*
X77660000Y-74990000I-1320000J100000D01*
G01*
%TO.C,SW1*%
X27760000Y-41430000D02*
X27760000Y-42130000D01*
X26540000Y-39955000D02*
X22765000Y-39955000D01*
X34840000Y-27126000D02*
X26215000Y-27126000D01*
X22315000Y-38730000D02*
X22315000Y-39955000D01*
X34840000Y-31080000D02*
X29790000Y-31126000D01*
X34840000Y-31034000D02*
X34840000Y-27126000D01*
X27465000Y-35305000D02*
X22765000Y-35305000D01*
X22765000Y-35330000D02*
X22765000Y-38730000D01*
X22765000Y-38730000D02*
X22315000Y-38730000D01*
X32315000Y-42155000D02*
X27765000Y-42155000D01*
X32340000Y-37530000D02*
X32340000Y-42130000D01*
X23940000Y-33034000D02*
X27550000Y-33034000D01*
X32315000Y-37505000D02*
X29765000Y-37505000D01*
X22765000Y-39955000D02*
X22315000Y-39955000D01*
X23940000Y-29080000D02*
X23940000Y-33025000D01*
X26215000Y-27126000D02*
G75*
G03*
X23951000Y-29010000I-190000J-2074000D01*
G01*
X27470000Y-35330000D02*
G75*
G03*
X29840000Y-37500000I2270000J100000D01*
G01*
X29815000Y-31130000D02*
G75*
G03*
X27555000Y-33010000I-190000J-2070000D01*
G01*
X27760000Y-41380000D02*
G75*
G03*
X26540000Y-39960000I-1320000J100000D01*
G01*
%TO.C,SW4*%
X78900000Y-41430000D02*
X78900000Y-42130000D01*
X77680000Y-39955000D02*
X73905000Y-39955000D01*
X85980000Y-27126000D02*
X77355000Y-27126000D01*
X73455000Y-38730000D02*
X73455000Y-39955000D01*
X85980000Y-31080000D02*
X80930000Y-31126000D01*
X85980000Y-31034000D02*
X85980000Y-27126000D01*
X78605000Y-35305000D02*
X73905000Y-35305000D01*
X73905000Y-35330000D02*
X73905000Y-38730000D01*
X73905000Y-38730000D02*
X73455000Y-38730000D01*
X83455000Y-42155000D02*
X78905000Y-42155000D01*
X83480000Y-37530000D02*
X83480000Y-42130000D01*
X75080000Y-33034000D02*
X78690000Y-33034000D01*
X83455000Y-37505000D02*
X80905000Y-37505000D01*
X73905000Y-39955000D02*
X73455000Y-39955000D01*
X75080000Y-29080000D02*
X75080000Y-33025000D01*
X77355000Y-27126000D02*
G75*
G03*
X75091000Y-29010000I-190000J-2074000D01*
G01*
X78610000Y-35330000D02*
G75*
G03*
X80980000Y-37500000I2270000J100000D01*
G01*
X80955000Y-31130000D02*
G75*
G03*
X78695000Y-33010000I-190000J-2070000D01*
G01*
X78900000Y-41380000D02*
G75*
G03*
X77680000Y-39960000I-1320000J100000D01*
G01*
%TO.C,D7*%
X48590000Y-43910000D02*
X47690000Y-43410000D01*
X50790000Y-44160000D02*
X50790000Y-42660000D01*
X45390000Y-42660000D02*
X45390000Y-44160000D01*
X47590000Y-42910000D02*
X47590000Y-43910000D01*
X50790000Y-42660000D02*
X45390000Y-42660000D01*
X48590000Y-42910000D02*
X48590000Y-43910000D01*
X45390000Y-44160000D02*
X50790000Y-44160000D01*
X47690000Y-43410000D02*
X48590000Y-42910000D01*
%TO.C,D6*%
X29580000Y-42950000D02*
X29580000Y-43950000D01*
X27380000Y-44200000D02*
X32780000Y-44200000D01*
X29680000Y-43450000D02*
X30580000Y-42950000D01*
X27380000Y-42700000D02*
X27380000Y-44200000D01*
X32780000Y-44200000D02*
X32780000Y-42700000D01*
X30580000Y-42950000D02*
X30580000Y-43950000D01*
X30580000Y-43950000D02*
X29680000Y-43450000D01*
X32780000Y-42700000D02*
X27380000Y-42700000D01*
%TO.C,D9*%
X80790000Y-43450000D02*
X81690000Y-42950000D01*
X78490000Y-44200000D02*
X83890000Y-44200000D01*
X78490000Y-42700000D02*
X78490000Y-44200000D01*
X81690000Y-43950000D02*
X80790000Y-43450000D01*
X80690000Y-42950000D02*
X80690000Y-43950000D01*
X81690000Y-42950000D02*
X81690000Y-43950000D01*
X83890000Y-42700000D02*
X78490000Y-42700000D01*
X83890000Y-44200000D02*
X83890000Y-42700000D01*
%TO.C,D16*%
X64530000Y-88400000D02*
X59130000Y-88400000D01*
X59130000Y-89900000D02*
X64530000Y-89900000D01*
X62330000Y-89650000D02*
X61430000Y-89150000D01*
X59130000Y-88400000D02*
X59130000Y-89900000D01*
X62330000Y-88650000D02*
X62330000Y-89650000D01*
X61430000Y-89150000D02*
X62330000Y-88650000D01*
X64530000Y-89900000D02*
X64530000Y-88400000D01*
X61330000Y-88650000D02*
X61330000Y-89650000D01*
%TO.C,D11*%
X32790000Y-60200000D02*
X27390000Y-60200000D01*
X27390000Y-61700000D02*
X32790000Y-61700000D01*
X32790000Y-61700000D02*
X32790000Y-60200000D01*
X27390000Y-60200000D02*
X27390000Y-61700000D01*
X29590000Y-60450000D02*
X29590000Y-61450000D01*
X30590000Y-61450000D02*
X29690000Y-60950000D01*
X29690000Y-60950000D02*
X30590000Y-60450000D01*
X30590000Y-60450000D02*
X30590000Y-61450000D01*
%TO.C,D14*%
X81750000Y-61410000D02*
X80850000Y-60910000D01*
X83950000Y-61660000D02*
X83950000Y-60160000D01*
X80750000Y-60410000D02*
X80750000Y-61410000D01*
X78550000Y-61660000D02*
X83950000Y-61660000D01*
X83950000Y-60160000D02*
X78550000Y-60160000D01*
X80850000Y-60910000D02*
X81750000Y-60410000D01*
X78550000Y-60160000D02*
X78550000Y-61660000D01*
X81750000Y-60410000D02*
X81750000Y-61410000D01*
%TO.C,D17*%
X59110000Y-92200000D02*
X64510000Y-92200000D01*
X61310000Y-90950000D02*
X61310000Y-91950000D01*
X59110000Y-90700000D02*
X59110000Y-92200000D01*
X62310000Y-91950000D02*
X61410000Y-91450000D01*
X62310000Y-90950000D02*
X62310000Y-91950000D01*
X61410000Y-91450000D02*
X62310000Y-90950000D01*
X64510000Y-92200000D02*
X64510000Y-90700000D01*
X64510000Y-90700000D02*
X59110000Y-90700000D01*
%TO.C,D1*%
X37070000Y-24940000D02*
X37070000Y-25940000D01*
X36070000Y-24940000D02*
X36070000Y-25940000D01*
X33870000Y-26190000D02*
X39270000Y-26190000D01*
X39270000Y-24690000D02*
X33870000Y-24690000D01*
X33870000Y-24690000D02*
X33870000Y-26190000D01*
X37070000Y-25940000D02*
X36170000Y-25440000D01*
X39270000Y-26190000D02*
X39270000Y-24690000D01*
X36170000Y-25440000D02*
X37070000Y-24940000D01*
%TO.C,D18*%
X62350000Y-93440000D02*
X62350000Y-94440000D01*
X59150000Y-93190000D02*
X59150000Y-94690000D01*
X62350000Y-94440000D02*
X61450000Y-93940000D01*
X61450000Y-93940000D02*
X62350000Y-93440000D01*
X61350000Y-93440000D02*
X61350000Y-94440000D01*
X59150000Y-94690000D02*
X64550000Y-94690000D01*
X64550000Y-93190000D02*
X59150000Y-93190000D01*
X64550000Y-94690000D02*
X64550000Y-93190000D01*
%TO.C,D4*%
X82170000Y-25320000D02*
X82170000Y-26320000D01*
X84370000Y-26570000D02*
X84370000Y-25070000D01*
X81270000Y-25820000D02*
X82170000Y-25320000D01*
X78970000Y-26570000D02*
X84370000Y-26570000D01*
X82170000Y-26320000D02*
X81270000Y-25820000D01*
X84370000Y-25070000D02*
X78970000Y-25070000D01*
X81170000Y-25320000D02*
X81170000Y-26320000D01*
X78970000Y-25070000D02*
X78970000Y-26570000D01*
%TO.C,J1*%
X107960000Y-75875000D02*
X107960000Y-69875000D01*
X119960000Y-69875000D02*
X119960000Y-75875000D01*
X107960000Y-69875000D02*
X119960000Y-69875000D01*
X119960000Y-75875000D02*
X107960000Y-75875000D01*
%TO.C,D3*%
X67190000Y-25070000D02*
X61790000Y-25070000D01*
X64090000Y-25820000D02*
X64990000Y-25320000D01*
X67190000Y-26570000D02*
X67190000Y-25070000D01*
X61790000Y-26570000D02*
X67190000Y-26570000D01*
X64990000Y-25320000D02*
X64990000Y-26320000D01*
X64990000Y-26320000D02*
X64090000Y-25820000D01*
X63990000Y-25320000D02*
X63990000Y-26320000D01*
X61790000Y-25070000D02*
X61790000Y-26570000D01*
D14*
%TO.C,U1*%
X24407500Y-97583700D02*
X41897500Y-97583700D01*
X41897500Y-97583700D02*
X41897500Y-95613700D01*
X41897500Y-95613700D02*
X24407500Y-95613700D01*
X24407500Y-95613700D02*
X24407500Y-97583700D01*
X24297500Y-82403700D02*
X41787500Y-82403700D01*
X41787500Y-82403700D02*
X41787500Y-80433700D01*
X41787500Y-80433700D02*
X24297500Y-80433700D01*
X24297500Y-80433700D02*
X24297500Y-82403700D01*
D13*
%TO.C,D15*%
X95060000Y-60270000D02*
X95060000Y-61770000D01*
X98260000Y-61520000D02*
X97360000Y-61020000D01*
X97360000Y-61020000D02*
X98260000Y-60520000D01*
X95060000Y-61770000D02*
X100460000Y-61770000D01*
X97260000Y-60520000D02*
X97260000Y-61520000D01*
X100460000Y-61770000D02*
X100460000Y-60270000D01*
X98260000Y-60520000D02*
X98260000Y-61520000D01*
X100460000Y-60270000D02*
X95060000Y-60270000D01*
%TO.C,D5*%
X91260000Y-25800000D02*
X92160000Y-25300000D01*
X94360000Y-26550000D02*
X94360000Y-25050000D01*
X92160000Y-26300000D02*
X91260000Y-25800000D01*
X92160000Y-25300000D02*
X92160000Y-26300000D01*
X94360000Y-25050000D02*
X88960000Y-25050000D01*
X88960000Y-25050000D02*
X88960000Y-26550000D01*
X88960000Y-26550000D02*
X94360000Y-26550000D01*
X91160000Y-25300000D02*
X91160000Y-26300000D01*
%TO.C,D8*%
X62060000Y-42700000D02*
X62060000Y-44200000D01*
X64360000Y-43450000D02*
X65260000Y-42950000D01*
X65260000Y-43950000D02*
X64360000Y-43450000D01*
X64260000Y-42950000D02*
X64260000Y-43950000D01*
X67460000Y-44200000D02*
X67460000Y-42700000D01*
X67460000Y-42700000D02*
X62060000Y-42700000D01*
X65260000Y-42950000D02*
X65260000Y-43950000D01*
X62060000Y-44200000D02*
X67460000Y-44200000D01*
%TO.C,D2*%
X48520000Y-25030000D02*
X48520000Y-26030000D01*
X45320000Y-24780000D02*
X45320000Y-26280000D01*
X45320000Y-26280000D02*
X50720000Y-26280000D01*
X50720000Y-26280000D02*
X50720000Y-24780000D01*
X47520000Y-25030000D02*
X47520000Y-26030000D01*
X47620000Y-25530000D02*
X48520000Y-25030000D01*
X50720000Y-24780000D02*
X45320000Y-24780000D01*
X48520000Y-26030000D02*
X47620000Y-25530000D01*
%TO.C,D12*%
X48810000Y-60420000D02*
X48810000Y-61420000D01*
X47910000Y-60920000D02*
X48810000Y-60420000D01*
X47810000Y-60420000D02*
X47810000Y-61420000D01*
X51010000Y-61670000D02*
X51010000Y-60170000D01*
X45610000Y-60170000D02*
X45610000Y-61670000D01*
X45610000Y-61670000D02*
X51010000Y-61670000D01*
X48810000Y-61420000D02*
X47910000Y-60920000D01*
X51010000Y-60170000D02*
X45610000Y-60170000D01*
%TD*%
D15*
%TO.C,U1*%
X27927500Y-96613700D03*
X25387500Y-96613700D03*
%TD*%
D16*
X41300000Y-48400000D03*
X24302500Y-63902500D03*
X95200000Y-70800000D03*
X78400000Y-70100000D03*
X60300000Y-76100000D03*
X65400000Y-72100000D03*
X88900000Y-62100000D03*
X104500000Y-59400000D03*
X105500000Y-74500000D03*
X61800000Y-35500000D03*
X56200000Y-27800000D03*
X55100000Y-29800000D03*
X38345000Y-24655000D03*
X36200000Y-27100000D03*
X36940000Y-29860800D03*
X78300000Y-52100000D03*
X84400000Y-53000000D03*
X37600000Y-69700000D03*
X24000000Y-77100000D03*
X33000000Y-69500000D03*
X26700000Y-34800000D03*
X22100000Y-52000000D03*
X36800000Y-58900000D03*
X22300000Y-63700000D03*
X90600000Y-76300000D03*
X43800000Y-27200000D03*
X24800000Y-23000000D03*
X49000000Y-37800000D03*
X59700000Y-40500000D03*
X84200000Y-34000000D03*
X78100000Y-34900000D03*
X100782990Y-34482844D03*
X100800000Y-33500000D03*
X76800000Y-26800000D03*
X72700000Y-27600000D03*
X86000000Y-39800000D03*
X71200000Y-40500000D03*
X74397134Y-40391878D03*
X74900000Y-44100000D03*
X56485646Y-43782888D03*
X55400000Y-41100000D03*
X45500000Y-36400000D03*
X39356699Y-27958175D03*
X71200000Y-44200000D03*
X88300000Y-41600000D03*
X95400000Y-54100000D03*
X92797713Y-58771654D03*
X88300000Y-58800000D03*
X103200000Y-42000000D03*
X30500000Y-30400000D03*
X72500000Y-58600000D03*
X65800000Y-84200000D03*
X89400000Y-44200000D03*
X104900000Y-42000000D03*
X39500000Y-31100000D03*
X39500000Y-44800000D03*
X22172493Y-43298334D03*
X38800000Y-57500000D03*
X37800000Y-62500000D03*
X39000000Y-50800000D03*
X56400000Y-58200000D03*
X103276620Y-24266557D03*
X95100000Y-81500000D03*
X101300000Y-90900000D03*
X98700000Y-96700000D03*
X100800000Y-99500000D03*
X84500000Y-96100000D03*
X76000000Y-81400000D03*
X75000000Y-77100000D03*
X105200000Y-81500000D03*
X39000000Y-87700000D03*
X42700000Y-40800000D03*
X94600000Y-34700000D03*
X37200000Y-41000000D03*
X24600000Y-42600000D03*
X36100000Y-44200000D03*
X41900000Y-76200000D03*
X104200000Y-76200000D03*
X46700000Y-92200000D03*
X57100000Y-86200000D03*
X72700000Y-61500000D03*
X56700000Y-62600000D03*
X42600000Y-58900000D03*
D17*
X99755000Y-54005000D03*
X83440000Y-77370000D03*
X99060000Y-37080000D03*
X49820000Y-36650000D03*
X32500000Y-55700000D03*
X51800000Y-76580000D03*
X66100000Y-54520000D03*
X68383500Y-76716500D03*
X68029100Y-61115000D03*
X87410000Y-75480000D03*
X99575000Y-72055000D03*
X106119400Y-97703900D03*
X90300000Y-46440000D03*
X79260000Y-55180000D03*
X73870000Y-29050000D03*
X78750000Y-38200000D03*
X40970000Y-29210000D03*
X62480000Y-37990000D03*
X57420000Y-29220000D03*
X57784700Y-68075300D03*
X57460000Y-46680000D03*
X49330000Y-54580000D03*
X55246400Y-47293600D03*
X31940000Y-76410000D03*
X28130000Y-37560000D03*
X102300000Y-87910000D03*
X102259850Y-92839850D03*
X67980000Y-84320000D03*
X89890000Y-94220000D03*
X111556100Y-97130000D03*
X117630000Y-91810000D03*
X90770000Y-62120200D03*
X90791000Y-40714500D03*
X84363500Y-90471900D03*
X35031000Y-94145500D03*
X73931500Y-45555100D03*
X73942700Y-63871000D03*
X67800000Y-80729500D03*
X59313797Y-81513797D03*
X62962800Y-59362500D03*
X56610000Y-39604900D03*
X40792700Y-68003600D03*
X41560000Y-43530000D03*
X22813600Y-28850000D03*
X37891100Y-74973600D03*
X60055000Y-90300000D03*
X94901500Y-60109700D03*
X46535000Y-59804800D03*
X29429000Y-61851500D03*
X77577400Y-60089700D03*
X39327400Y-60149700D03*
X60200600Y-61632800D03*
X62359400Y-93627600D03*
X62312900Y-91746800D03*
X100974700Y-86825400D03*
X70271600Y-94980000D03*
X101390200Y-61955200D03*
X86760000Y-62260400D03*
X51808100Y-61130000D03*
X33760500Y-61952000D03*
X64255100Y-43049800D03*
X78124400Y-42937300D03*
X94732300Y-42657300D03*
X27028600Y-43751100D03*
X44665700Y-43054500D03*
X98163200Y-43966200D03*
X84426700Y-43936300D03*
X67957800Y-43897400D03*
X30597600Y-43450000D03*
X101689900Y-26940100D03*
X84810000Y-35350000D03*
X68340000Y-35530000D03*
X51663100Y-25449000D03*
X63972700Y-25476100D03*
X92680000Y-55170000D03*
X102760000Y-51470000D03*
X97680000Y-57370000D03*
X103180000Y-51470000D03*
X101490000Y-48930000D03*
X97680000Y-51470000D03*
X95140000Y-46390000D03*
X93870000Y-48930000D03*
X100220000Y-46390000D03*
X102680000Y-55170000D03*
X92600000Y-51470000D03*
X92180000Y-51470000D03*
X59740000Y-72680000D03*
X69820000Y-68980000D03*
X64740000Y-74880000D03*
X70240000Y-68980000D03*
X68550000Y-66440000D03*
X64740000Y-68980000D03*
X62200000Y-63900000D03*
X60930000Y-66440000D03*
X67280000Y-63900000D03*
X69740000Y-72680000D03*
X59660000Y-68980000D03*
X59240000Y-68980000D03*
X76170000Y-55160000D03*
X86250000Y-51460000D03*
X81170000Y-57360000D03*
X86670000Y-51460000D03*
X84980000Y-48920000D03*
X81170000Y-51460000D03*
X78630000Y-46380000D03*
X77360000Y-48920000D03*
X83710000Y-46380000D03*
X86170000Y-55160000D03*
X76090000Y-51460000D03*
X75670000Y-51460000D03*
X43180000Y-55150000D03*
X53260000Y-51450000D03*
X48180000Y-57350000D03*
X53680000Y-51450000D03*
X51990000Y-48910000D03*
X48180000Y-51450000D03*
X45640000Y-46370000D03*
X44370000Y-48910000D03*
X50720000Y-46370000D03*
X53180000Y-55150000D03*
X43100000Y-51450000D03*
X42680000Y-51450000D03*
X87293535Y-93443789D03*
X97705071Y-90817705D03*
X92036182Y-96154379D03*
X98122770Y-90861607D03*
X96707531Y-88158868D03*
X92652900Y-90286700D03*
X90657819Y-84969026D03*
X89129274Y-87362361D03*
X95709990Y-85500031D03*
X97238754Y-94489073D03*
X87600729Y-89755695D03*
X87183030Y-89711793D03*
X25040000Y-55160000D03*
X35120000Y-51460000D03*
X30040000Y-57360000D03*
X35540000Y-51460000D03*
X33850000Y-48920000D03*
X30040000Y-51460000D03*
X27500000Y-46380000D03*
X26230000Y-48920000D03*
X32580000Y-46380000D03*
X35040000Y-55160000D03*
X24960000Y-51460000D03*
X24540000Y-51460000D03*
X25050000Y-72660000D03*
X35130000Y-68960000D03*
X30050000Y-74860000D03*
X35550000Y-68960000D03*
X33860000Y-66420000D03*
X30050000Y-68960000D03*
X27510000Y-63880000D03*
X26240000Y-66420000D03*
X32590000Y-63880000D03*
X35050000Y-72660000D03*
X24970000Y-68960000D03*
X24550000Y-68960000D03*
X59710000Y-37650000D03*
X69790000Y-33950000D03*
X64710000Y-39850000D03*
X70210000Y-33950000D03*
X68520000Y-31410000D03*
X64710000Y-33950000D03*
X62170000Y-28870000D03*
X60900000Y-31410000D03*
X67250000Y-28870000D03*
X69710000Y-37650000D03*
X59630000Y-33950000D03*
X59210000Y-33950000D03*
X92190000Y-33960000D03*
X92610000Y-33960000D03*
X102690000Y-37660000D03*
X100230000Y-28880000D03*
X93880000Y-31420000D03*
X95150000Y-28880000D03*
X97690000Y-33960000D03*
X101500000Y-31420000D03*
X103190000Y-33960000D03*
X97690000Y-39860000D03*
X102770000Y-33960000D03*
X92690000Y-37660000D03*
X92670000Y-72660000D03*
X102750000Y-68960000D03*
X97670000Y-74860000D03*
X103170000Y-68960000D03*
X101480000Y-66420000D03*
X97670000Y-68960000D03*
X95130000Y-63880000D03*
X93860000Y-66420000D03*
X100210000Y-63880000D03*
X102670000Y-72660000D03*
X92590000Y-68960000D03*
X92170000Y-68960000D03*
X70370000Y-92780000D03*
X80450000Y-89080000D03*
X75370000Y-94980000D03*
X80870000Y-89080000D03*
X79180000Y-86540000D03*
X75370000Y-89080000D03*
X72830000Y-84000000D03*
X71560000Y-86540000D03*
X77910000Y-84000000D03*
X80370000Y-92780000D03*
X70290000Y-89080000D03*
X69870000Y-89080000D03*
X104532474Y-92908430D03*
X104939998Y-93010037D03*
X113825468Y-99038704D03*
X113562614Y-89924379D03*
X106786755Y-90852726D03*
X108633512Y-88695416D03*
X109869100Y-94239000D03*
X114180408Y-92696171D03*
X115205726Y-95569570D03*
X108441761Y-99963745D03*
X114798202Y-95467963D03*
X104122510Y-96619485D03*
X59710000Y-55160000D03*
X69790000Y-51460000D03*
X64710000Y-57360000D03*
X70210000Y-51460000D03*
X68520000Y-48920000D03*
X64710000Y-51460000D03*
X62170000Y-46380000D03*
X60900000Y-48920000D03*
X67250000Y-46380000D03*
X69710000Y-55160000D03*
X59630000Y-51460000D03*
X59210000Y-51460000D03*
X43170000Y-37650000D03*
X53250000Y-33950000D03*
X48170000Y-39850000D03*
X53670000Y-33950000D03*
X51980000Y-31410000D03*
X48170000Y-33950000D03*
X45630000Y-28870000D03*
X44360000Y-31410000D03*
X50710000Y-28870000D03*
X53170000Y-37650000D03*
X43090000Y-33950000D03*
X42670000Y-33950000D03*
X43180000Y-72640000D03*
X53260000Y-68940000D03*
X48180000Y-74840000D03*
X53680000Y-68940000D03*
X51990000Y-66400000D03*
X48180000Y-68940000D03*
X45640000Y-63860000D03*
X44370000Y-66400000D03*
X50720000Y-63860000D03*
X53180000Y-72640000D03*
X43100000Y-68940000D03*
X42680000Y-68940000D03*
X76160000Y-72660000D03*
X86240000Y-68960000D03*
X81160000Y-74860000D03*
X86660000Y-68960000D03*
X84970000Y-66420000D03*
X81160000Y-68960000D03*
X78620000Y-63880000D03*
X77350000Y-66420000D03*
X83700000Y-63880000D03*
X86160000Y-72660000D03*
X76080000Y-68960000D03*
X75660000Y-68960000D03*
X25040000Y-37630000D03*
X35120000Y-33930000D03*
X30040000Y-39830000D03*
X35540000Y-33930000D03*
X33850000Y-31390000D03*
X30040000Y-33930000D03*
X27500000Y-28850000D03*
X26230000Y-31390000D03*
X32580000Y-28850000D03*
X35040000Y-37630000D03*
X24960000Y-33930000D03*
X24540000Y-33930000D03*
X76180000Y-37630000D03*
X86260000Y-33930000D03*
X81180000Y-39830000D03*
X86680000Y-33930000D03*
X84990000Y-31390000D03*
X81180000Y-33930000D03*
X78640000Y-28850000D03*
X77370000Y-31390000D03*
X83720000Y-28850000D03*
X86180000Y-37630000D03*
X76100000Y-33930000D03*
X75680000Y-33930000D03*
X52020000Y-80950000D03*
X112800000Y-84690000D03*
X53040000Y-95600000D03*
X118460000Y-74625000D03*
X111460000Y-74625000D03*
X118460000Y-72875000D03*
X111460000Y-72875000D03*
D18*
X108160000Y-74975000D03*
X108160000Y-72525000D03*
X116660000Y-76725000D03*
X116660000Y-70775000D03*
X113660000Y-76725000D03*
X113660000Y-70775000D03*
X109660000Y-76725000D03*
X109660000Y-70775000D03*
D17*
X97680000Y-23950000D03*
X26686500Y-98011200D03*
X25387500Y-81378700D03*
X27927500Y-81378700D03*
X29226500Y-98011200D03*
X30467500Y-81378700D03*
X31766500Y-98011200D03*
X34306500Y-98011200D03*
X33007500Y-81378700D03*
X35547500Y-81378700D03*
X36846500Y-98011200D03*
X38087500Y-81378700D03*
X39386500Y-98011200D03*
X40627500Y-81378700D03*
X41926500Y-98011200D03*
X41926500Y-82776200D03*
X40627500Y-96613700D03*
X39386500Y-82776200D03*
X38087500Y-96613700D03*
X35547500Y-96613700D03*
X36846500Y-82776200D03*
X34306500Y-82776200D03*
X33007500Y-96613700D03*
X31766500Y-82776200D03*
X30467500Y-96613700D03*
X27927500Y-96613700D03*
X29226500Y-82776200D03*
X26686500Y-82776200D03*
X25387500Y-96613700D03*
X30040000Y-23950000D03*
%LPC*%
D19*
%TO.C,SW10*%
X92680000Y-55170000D03*
D20*
X102760000Y-51470000D03*
D19*
X97680000Y-57370000D03*
D21*
X103180000Y-51470000D03*
D19*
X101490000Y-48930000D03*
D22*
X97680000Y-51470000D03*
D19*
X95140000Y-46390000D03*
X93870000Y-48930000D03*
X100220000Y-46390000D03*
X102680000Y-55170000D03*
D20*
X92600000Y-51470000D03*
D21*
X92180000Y-51470000D03*
D23*
X90780000Y-48930000D03*
X89580000Y-55170000D03*
D24*
X100480000Y-57370000D03*
D23*
X103280000Y-46390000D03*
%TD*%
D25*
%TO.C,D13*%
X62985000Y-60890000D03*
X66535000Y-60890000D03*
%TD*%
D19*
%TO.C,SW13*%
X59740000Y-72680000D03*
D20*
X69820000Y-68980000D03*
D19*
X64740000Y-74880000D03*
D21*
X70240000Y-68980000D03*
D19*
X68550000Y-66440000D03*
D22*
X64740000Y-68980000D03*
D19*
X62200000Y-63900000D03*
X60930000Y-66440000D03*
X67280000Y-63900000D03*
X69740000Y-72680000D03*
D20*
X59660000Y-68980000D03*
D21*
X59240000Y-68980000D03*
D23*
X57840000Y-66440000D03*
X56640000Y-72680000D03*
D24*
X67540000Y-74880000D03*
D23*
X70340000Y-63900000D03*
%TD*%
D19*
%TO.C,SW9*%
X76170000Y-55160000D03*
D20*
X86250000Y-51460000D03*
D19*
X81170000Y-57360000D03*
D21*
X86670000Y-51460000D03*
D19*
X84980000Y-48920000D03*
D22*
X81170000Y-51460000D03*
D19*
X78630000Y-46380000D03*
X77360000Y-48920000D03*
X83710000Y-46380000D03*
X86170000Y-55160000D03*
D20*
X76090000Y-51460000D03*
D21*
X75670000Y-51460000D03*
D23*
X74270000Y-48920000D03*
X73070000Y-55160000D03*
D24*
X83970000Y-57360000D03*
D23*
X86770000Y-46380000D03*
%TD*%
D25*
%TO.C,D10*%
X95865000Y-43530000D03*
X99415000Y-43530000D03*
%TD*%
D19*
%TO.C,SW7*%
X43180000Y-55150000D03*
D20*
X53260000Y-51450000D03*
D19*
X48180000Y-57350000D03*
D21*
X53680000Y-51450000D03*
D19*
X51990000Y-48910000D03*
D22*
X48180000Y-51450000D03*
D19*
X45640000Y-46370000D03*
X44370000Y-48910000D03*
X50720000Y-46370000D03*
X53180000Y-55150000D03*
D20*
X43100000Y-51450000D03*
D21*
X42680000Y-51450000D03*
D23*
X41280000Y-48910000D03*
X40080000Y-55150000D03*
D24*
X50980000Y-57350000D03*
D23*
X53780000Y-46370000D03*
%TD*%
D19*
%TO.C,SW17*%
X87293535Y-93443789D03*
D20*
X97705071Y-90817705D03*
D19*
X92036182Y-96154379D03*
D21*
X98122770Y-90861607D03*
D19*
X96707531Y-88158868D03*
D22*
X92652900Y-90286700D03*
D19*
X90657819Y-84969026D03*
X89129274Y-87362361D03*
X95709990Y-85500031D03*
X97238754Y-94489073D03*
D20*
X87600729Y-89755695D03*
D21*
X87183030Y-89711793D03*
D26*
X86056201Y-87039368D03*
X84210517Y-93119750D03*
D27*
X94820843Y-96447059D03*
D26*
X98753227Y-85819888D03*
%TD*%
D19*
%TO.C,SW6*%
X25040000Y-55160000D03*
D20*
X35120000Y-51460000D03*
D19*
X30040000Y-57360000D03*
D21*
X35540000Y-51460000D03*
D19*
X33850000Y-48920000D03*
D22*
X30040000Y-51460000D03*
D19*
X27500000Y-46380000D03*
X26230000Y-48920000D03*
X32580000Y-46380000D03*
X35040000Y-55160000D03*
D20*
X24960000Y-51460000D03*
D21*
X24540000Y-51460000D03*
D23*
X23140000Y-48920000D03*
D24*
X22100000Y-55160000D03*
X32840000Y-57360000D03*
D23*
X35640000Y-46380000D03*
%TD*%
D19*
%TO.C,SW11*%
X25050000Y-72660000D03*
D20*
X35130000Y-68960000D03*
D19*
X30050000Y-74860000D03*
D21*
X35550000Y-68960000D03*
D19*
X33860000Y-66420000D03*
D22*
X30050000Y-68960000D03*
D19*
X27510000Y-63880000D03*
X26240000Y-66420000D03*
X32590000Y-63880000D03*
X35050000Y-72660000D03*
D20*
X24970000Y-68960000D03*
D21*
X24550000Y-68960000D03*
D23*
X23150000Y-66420000D03*
D24*
X22200000Y-72660000D03*
X32850000Y-74860000D03*
D23*
X35650000Y-63880000D03*
%TD*%
D19*
%TO.C,SW3*%
X59710000Y-37650000D03*
D20*
X69790000Y-33950000D03*
D19*
X64710000Y-39850000D03*
D21*
X70210000Y-33950000D03*
D19*
X68520000Y-31410000D03*
D22*
X64710000Y-33950000D03*
D19*
X62170000Y-28870000D03*
X60900000Y-31410000D03*
X67250000Y-28870000D03*
X69710000Y-37650000D03*
D20*
X59630000Y-33950000D03*
D21*
X59210000Y-33950000D03*
D23*
X57810000Y-31410000D03*
X56610000Y-37650000D03*
D24*
X67510000Y-39850000D03*
D23*
X70310000Y-28870000D03*
%TD*%
%TO.C,SW5*%
X103290000Y-28880000D03*
D24*
X100490000Y-39860000D03*
D23*
X89590000Y-37660000D03*
X90790000Y-31420000D03*
D21*
X92190000Y-33960000D03*
D20*
X92610000Y-33960000D03*
D19*
X102690000Y-37660000D03*
X100230000Y-28880000D03*
X93880000Y-31420000D03*
X95150000Y-28880000D03*
D22*
X97690000Y-33960000D03*
D19*
X101500000Y-31420000D03*
D21*
X103190000Y-33960000D03*
D19*
X97690000Y-39860000D03*
D20*
X102770000Y-33960000D03*
D19*
X92690000Y-37660000D03*
%TD*%
%TO.C,SW15*%
X92670000Y-72660000D03*
D20*
X102750000Y-68960000D03*
D19*
X97670000Y-74860000D03*
D21*
X103170000Y-68960000D03*
D19*
X101480000Y-66420000D03*
D22*
X97670000Y-68960000D03*
D19*
X95130000Y-63880000D03*
X93860000Y-66420000D03*
X100210000Y-63880000D03*
X102670000Y-72660000D03*
D20*
X92590000Y-68960000D03*
D21*
X92170000Y-68960000D03*
D23*
X90770000Y-66420000D03*
X89570000Y-72660000D03*
D24*
X100470000Y-74860000D03*
D23*
X103270000Y-63880000D03*
%TD*%
D19*
%TO.C,SW16*%
X70370000Y-92780000D03*
D20*
X80450000Y-89080000D03*
D19*
X75370000Y-94980000D03*
D21*
X80870000Y-89080000D03*
D19*
X79180000Y-86540000D03*
D22*
X75370000Y-89080000D03*
D19*
X72830000Y-84000000D03*
X71560000Y-86540000D03*
X77910000Y-84000000D03*
X80370000Y-92780000D03*
D20*
X70290000Y-89080000D03*
D21*
X69870000Y-89080000D03*
D23*
X68470000Y-86540000D03*
X67270000Y-92780000D03*
D24*
X78170000Y-94980000D03*
D23*
X80970000Y-84000000D03*
%TD*%
D28*
%TO.C,SW18*%
X116531719Y-90664660D03*
D29*
X111158589Y-100641126D03*
D28*
X101114594Y-95869527D03*
X103788541Y-90105188D03*
D21*
X104532474Y-92908430D03*
D20*
X104939998Y-93010037D03*
D19*
X113825468Y-99038704D03*
X113562614Y-89924379D03*
X106786755Y-90852726D03*
X108633512Y-88695416D03*
D22*
X109869100Y-94239000D03*
D19*
X114180408Y-92696171D03*
D21*
X115205726Y-95569570D03*
D19*
X108441761Y-99963745D03*
D20*
X114798202Y-95467963D03*
D19*
X104122510Y-96619485D03*
%TD*%
%TO.C,SW8*%
X59710000Y-55160000D03*
D20*
X69790000Y-51460000D03*
D19*
X64710000Y-57360000D03*
D21*
X70210000Y-51460000D03*
D19*
X68520000Y-48920000D03*
D22*
X64710000Y-51460000D03*
D19*
X62170000Y-46380000D03*
X60900000Y-48920000D03*
X67250000Y-46380000D03*
X69710000Y-55160000D03*
D20*
X59630000Y-51460000D03*
D21*
X59210000Y-51460000D03*
D23*
X57810000Y-48920000D03*
X56610000Y-55160000D03*
D24*
X67510000Y-57360000D03*
D23*
X70310000Y-46380000D03*
%TD*%
D19*
%TO.C,SW2*%
X43170000Y-37650000D03*
D20*
X53250000Y-33950000D03*
D19*
X48170000Y-39850000D03*
D21*
X53670000Y-33950000D03*
D19*
X51980000Y-31410000D03*
D22*
X48170000Y-33950000D03*
D19*
X45630000Y-28870000D03*
X44360000Y-31410000D03*
X50710000Y-28870000D03*
X53170000Y-37650000D03*
D20*
X43090000Y-33950000D03*
D21*
X42670000Y-33950000D03*
D23*
X41270000Y-31410000D03*
X40070000Y-37650000D03*
D24*
X50970000Y-39850000D03*
D23*
X53770000Y-28870000D03*
%TD*%
D19*
%TO.C,SW12*%
X43180000Y-72640000D03*
D20*
X53260000Y-68940000D03*
D19*
X48180000Y-74840000D03*
D21*
X53680000Y-68940000D03*
D19*
X51990000Y-66400000D03*
D22*
X48180000Y-68940000D03*
D19*
X45640000Y-63860000D03*
X44370000Y-66400000D03*
X50720000Y-63860000D03*
X53180000Y-72640000D03*
D20*
X43100000Y-68940000D03*
D21*
X42680000Y-68940000D03*
D23*
X41280000Y-66400000D03*
X40080000Y-72640000D03*
D24*
X50980000Y-74840000D03*
D23*
X53780000Y-63860000D03*
%TD*%
D19*
%TO.C,SW14*%
X76160000Y-72660000D03*
D20*
X86240000Y-68960000D03*
D19*
X81160000Y-74860000D03*
D21*
X86660000Y-68960000D03*
D19*
X84970000Y-66420000D03*
D22*
X81160000Y-68960000D03*
D19*
X78620000Y-63880000D03*
X77350000Y-66420000D03*
X83700000Y-63880000D03*
X86160000Y-72660000D03*
D20*
X76080000Y-68960000D03*
D21*
X75660000Y-68960000D03*
D23*
X74260000Y-66420000D03*
X73060000Y-72660000D03*
D24*
X83960000Y-74860000D03*
D23*
X86760000Y-63880000D03*
%TD*%
D19*
%TO.C,SW1*%
X25040000Y-37630000D03*
D20*
X35120000Y-33930000D03*
D19*
X30040000Y-39830000D03*
D21*
X35540000Y-33930000D03*
D19*
X33850000Y-31390000D03*
D22*
X30040000Y-33930000D03*
D19*
X27500000Y-28850000D03*
X26230000Y-31390000D03*
X32580000Y-28850000D03*
X35040000Y-37630000D03*
D20*
X24960000Y-33930000D03*
D21*
X24540000Y-33930000D03*
D23*
X23140000Y-31390000D03*
D30*
X22100000Y-37630000D03*
D24*
X32840000Y-39830000D03*
D23*
X35640000Y-28850000D03*
%TD*%
D19*
%TO.C,SW4*%
X76180000Y-37630000D03*
D20*
X86260000Y-33930000D03*
D19*
X81180000Y-39830000D03*
D21*
X86680000Y-33930000D03*
D19*
X84990000Y-31390000D03*
D22*
X81180000Y-33930000D03*
D19*
X78640000Y-28850000D03*
X77370000Y-31390000D03*
X83720000Y-28850000D03*
X86180000Y-37630000D03*
D20*
X76100000Y-33930000D03*
D21*
X75680000Y-33930000D03*
D23*
X74280000Y-31390000D03*
X73080000Y-37630000D03*
D24*
X83980000Y-39830000D03*
D23*
X86780000Y-28850000D03*
%TD*%
D25*
%TO.C,D7*%
X46315000Y-43410000D03*
X49865000Y-43410000D03*
%TD*%
%TO.C,D6*%
X28305000Y-43450000D03*
X31855000Y-43450000D03*
%TD*%
%TO.C,D9*%
X79415000Y-43450000D03*
X82965000Y-43450000D03*
%TD*%
%TO.C,D16*%
X60055000Y-89150000D03*
X63605000Y-89150000D03*
%TD*%
%TO.C,D11*%
X28315000Y-60950000D03*
X31865000Y-60950000D03*
%TD*%
%TO.C,D14*%
X79475000Y-60910000D03*
X83025000Y-60910000D03*
%TD*%
%TO.C,D17*%
X60035000Y-91450000D03*
X63585000Y-91450000D03*
%TD*%
D31*
%TO.C,HOLE3*%
X52020000Y-80950000D03*
%TD*%
D25*
%TO.C,D1*%
X34795000Y-25440000D03*
X38345000Y-25440000D03*
%TD*%
D31*
%TO.C,HOLE5*%
X112800000Y-84690000D03*
%TD*%
D25*
%TO.C,D18*%
X60075000Y-93940000D03*
X63625000Y-93940000D03*
%TD*%
D31*
%TO.C,HOLE4*%
X53040000Y-95600000D03*
%TD*%
D25*
%TO.C,D4*%
X79895000Y-25820000D03*
X83445000Y-25820000D03*
%TD*%
D32*
%TO.C,J1*%
X118460000Y-74625000D03*
X111460000Y-74625000D03*
X118460000Y-72875000D03*
X111460000Y-72875000D03*
D33*
X108160000Y-74975000D03*
X108160000Y-72525000D03*
X116660000Y-76725000D03*
X116660000Y-70775000D03*
X113660000Y-76725000D03*
X113660000Y-70775000D03*
X109660000Y-76725000D03*
X109660000Y-70775000D03*
%TD*%
D25*
%TO.C,D3*%
X62715000Y-25820000D03*
X66265000Y-25820000D03*
%TD*%
D31*
%TO.C,HOLE2*%
X97680000Y-23950000D03*
%TD*%
D15*
%TO.C,U1*%
X26686500Y-98011200D03*
X25387500Y-81378700D03*
X27927500Y-81378700D03*
X29226500Y-98011200D03*
X30467500Y-81378700D03*
X31766500Y-98011200D03*
X34306500Y-98011200D03*
X33007500Y-81378700D03*
X35547500Y-81378700D03*
X36846500Y-98011200D03*
X38087500Y-81378700D03*
X39386500Y-98011200D03*
X40627500Y-81378700D03*
X41926500Y-98011200D03*
X41926500Y-82776200D03*
X40627500Y-96613700D03*
X39386500Y-82776200D03*
X38087500Y-96613700D03*
X35547500Y-96613700D03*
X36846500Y-82776200D03*
X34306500Y-82776200D03*
X33007500Y-96613700D03*
X31766500Y-82776200D03*
X30467500Y-96613700D03*
X27927500Y-96613700D03*
X29226500Y-82776200D03*
X26686500Y-82776200D03*
X25387500Y-96613700D03*
%TD*%
D25*
%TO.C,D15*%
X95985000Y-61020000D03*
X99535000Y-61020000D03*
%TD*%
D31*
%TO.C,HOLE1*%
X30040000Y-23950000D03*
%TD*%
D25*
%TO.C,D5*%
X89885000Y-25800000D03*
X93435000Y-25800000D03*
%TD*%
%TO.C,D8*%
X62985000Y-43450000D03*
X66535000Y-43450000D03*
%TD*%
%TO.C,D2*%
X46245000Y-25530000D03*
X49795000Y-25530000D03*
%TD*%
%TO.C,D12*%
X46535000Y-60920000D03*
X50085000Y-60920000D03*
%TD*%
M02*
