%TF.GenerationSoftware,KiCad,Pcbnew,(6.0.6)*%
%TF.CreationDate,2022-11-27T23:57:51+09:00*%
%TF.ProjectId,split-mini__bottom,73706c69-742d-46d6-996e-695f5f626f74,rev?*%
%TF.SameCoordinates,Original*%
%TF.FileFunction,Legend,Top*%
%TF.FilePolarity,Positive*%
%FSLAX46Y46*%
G04 Gerber Fmt 4.6, Leading zero omitted, Abs format (unit mm)*
G04 Created by KiCad (PCBNEW (6.0.6)) date 2022-11-27 23:57:51*
%MOMM*%
%LPD*%
G01*
G04 APERTURE LIST*
%TA.AperFunction,Profile*%
%ADD10C,0.100000*%
%TD*%
%ADD11C,0.300000*%
%ADD12C,0.350000*%
%ADD13C,2.200000*%
G04 APERTURE END LIST*
D10*
X113700000Y-47980000D02*
X48706692Y-33440758D01*
X114481692Y-117888869D02*
X114481692Y-48955880D01*
X25706692Y-23513892D02*
G75*
G03*
X24706692Y-24513869I8J-1000008D01*
G01*
X113481692Y-118888892D02*
G75*
G03*
X114481692Y-117888869I8J999992D01*
G01*
X114481737Y-48955880D02*
G75*
G03*
X113700000Y-47980000I-1000137J-120D01*
G01*
X63592178Y-118888869D02*
X113481692Y-118888869D01*
X25488384Y-110389626D02*
X63373870Y-118864748D01*
X63373868Y-118864755D02*
G75*
G03*
X63592178Y-118888869I218232J975455D01*
G01*
X24706692Y-24513869D02*
X24706692Y-109413746D01*
X24706653Y-109413746D02*
G75*
G03*
X25488384Y-110389626I1000047J46D01*
G01*
X47706692Y-23513869D02*
X25706692Y-23513869D01*
X48706731Y-24513869D02*
G75*
G03*
X47706692Y-23513869I-1000031J-31D01*
G01*
X48706692Y-24513869D02*
X48706692Y-33440758D01*
D11*
X57262857Y-48585714D02*
X57377142Y-48642857D01*
X57605714Y-48642857D01*
X57720000Y-48585714D01*
X57777142Y-48471428D01*
X57777142Y-48414285D01*
X57720000Y-48300000D01*
X57605714Y-48242857D01*
X57434285Y-48242857D01*
X57320000Y-48185714D01*
X57262857Y-48071428D01*
X57262857Y-48014285D01*
X57320000Y-47900000D01*
X57434285Y-47842857D01*
X57605714Y-47842857D01*
X57720000Y-47900000D01*
X58291428Y-47842857D02*
X58291428Y-49042857D01*
X58291428Y-47900000D02*
X58405714Y-47842857D01*
X58634285Y-47842857D01*
X58748571Y-47900000D01*
X58805714Y-47957142D01*
X58862857Y-48071428D01*
X58862857Y-48414285D01*
X58805714Y-48528571D01*
X58748571Y-48585714D01*
X58634285Y-48642857D01*
X58405714Y-48642857D01*
X58291428Y-48585714D01*
X59548571Y-48642857D02*
X59434285Y-48585714D01*
X59377142Y-48471428D01*
X59377142Y-47442857D01*
X60005714Y-48642857D02*
X60005714Y-47842857D01*
X60005714Y-47442857D02*
X59948571Y-47500000D01*
X60005714Y-47557142D01*
X60062857Y-47500000D01*
X60005714Y-47442857D01*
X60005714Y-47557142D01*
X60405714Y-47842857D02*
X60862857Y-47842857D01*
X60577142Y-47442857D02*
X60577142Y-48471428D01*
X60634285Y-48585714D01*
X60748571Y-48642857D01*
X60862857Y-48642857D01*
X62177142Y-48642857D02*
X62177142Y-47842857D01*
X62177142Y-47957142D02*
X62234285Y-47900000D01*
X62348571Y-47842857D01*
X62520000Y-47842857D01*
X62634285Y-47900000D01*
X62691428Y-48014285D01*
X62691428Y-48642857D01*
X62691428Y-48014285D02*
X62748571Y-47900000D01*
X62862857Y-47842857D01*
X63034285Y-47842857D01*
X63148571Y-47900000D01*
X63205714Y-48014285D01*
X63205714Y-48642857D01*
X63777142Y-48642857D02*
X63777142Y-47842857D01*
X63777142Y-47442857D02*
X63720000Y-47500000D01*
X63777142Y-47557142D01*
X63834285Y-47500000D01*
X63777142Y-47442857D01*
X63777142Y-47557142D01*
X64348571Y-47842857D02*
X64348571Y-48642857D01*
X64348571Y-47957142D02*
X64405714Y-47900000D01*
X64520000Y-47842857D01*
X64691428Y-47842857D01*
X64805714Y-47900000D01*
X64862857Y-48014285D01*
X64862857Y-48642857D01*
X65434285Y-48642857D02*
X65434285Y-47842857D01*
X65434285Y-47442857D02*
X65377142Y-47500000D01*
X65434285Y-47557142D01*
X65491428Y-47500000D01*
X65434285Y-47442857D01*
X65434285Y-47557142D01*
X66920000Y-48642857D02*
X66920000Y-47842857D01*
X66920000Y-48071428D02*
X66977142Y-47957142D01*
X67034285Y-47900000D01*
X67148571Y-47842857D01*
X67262857Y-47842857D01*
X68120000Y-48585714D02*
X68005714Y-48642857D01*
X67777142Y-48642857D01*
X67662857Y-48585714D01*
X67605714Y-48471428D01*
X67605714Y-48014285D01*
X67662857Y-47900000D01*
X67777142Y-47842857D01*
X68005714Y-47842857D01*
X68120000Y-47900000D01*
X68177142Y-48014285D01*
X68177142Y-48128571D01*
X67605714Y-48242857D01*
X68577142Y-47842857D02*
X68862857Y-48642857D01*
X69148571Y-47842857D01*
X69834285Y-47442857D02*
X69948571Y-47442857D01*
X70062857Y-47500000D01*
X70120000Y-47557142D01*
X70177142Y-47671428D01*
X70234285Y-47900000D01*
X70234285Y-48185714D01*
X70177142Y-48414285D01*
X70120000Y-48528571D01*
X70062857Y-48585714D01*
X69948571Y-48642857D01*
X69834285Y-48642857D01*
X69720000Y-48585714D01*
X69662857Y-48528571D01*
X69605714Y-48414285D01*
X69548571Y-48185714D01*
X69548571Y-47900000D01*
X69605714Y-47671428D01*
X69662857Y-47557142D01*
X69720000Y-47500000D01*
X69834285Y-47442857D01*
X70748571Y-48528571D02*
X70805714Y-48585714D01*
X70748571Y-48642857D01*
X70691428Y-48585714D01*
X70748571Y-48528571D01*
X70748571Y-48642857D01*
X71491428Y-47957142D02*
X71377142Y-47900000D01*
X71320000Y-47842857D01*
X71262857Y-47728571D01*
X71262857Y-47671428D01*
X71320000Y-47557142D01*
X71377142Y-47500000D01*
X71491428Y-47442857D01*
X71720000Y-47442857D01*
X71834285Y-47500000D01*
X71891428Y-47557142D01*
X71948571Y-47671428D01*
X71948571Y-47728571D01*
X71891428Y-47842857D01*
X71834285Y-47900000D01*
X71720000Y-47957142D01*
X71491428Y-47957142D01*
X71377142Y-48014285D01*
X71320000Y-48071428D01*
X71262857Y-48185714D01*
X71262857Y-48414285D01*
X71320000Y-48528571D01*
X71377142Y-48585714D01*
X71491428Y-48642857D01*
X71720000Y-48642857D01*
X71834285Y-48585714D01*
X71891428Y-48528571D01*
X71948571Y-48414285D01*
X71948571Y-48185714D01*
X71891428Y-48071428D01*
X71834285Y-48014285D01*
X71720000Y-47957142D01*
X73377142Y-48528571D02*
X73434285Y-48585714D01*
X73377142Y-48642857D01*
X73320000Y-48585714D01*
X73377142Y-48528571D01*
X73377142Y-48642857D01*
X73377142Y-47900000D02*
X73434285Y-47957142D01*
X73377142Y-48014285D01*
X73320000Y-47957142D01*
X73377142Y-47900000D01*
X73377142Y-48014285D01*
X75377142Y-48642857D02*
X75377142Y-47442857D01*
X75377142Y-48585714D02*
X75262857Y-48642857D01*
X75034285Y-48642857D01*
X74920000Y-48585714D01*
X74862857Y-48528571D01*
X74805714Y-48414285D01*
X74805714Y-48071428D01*
X74862857Y-47957142D01*
X74920000Y-47900000D01*
X75034285Y-47842857D01*
X75262857Y-47842857D01*
X75377142Y-47900000D01*
X76405714Y-48585714D02*
X76291428Y-48642857D01*
X76062857Y-48642857D01*
X75948571Y-48585714D01*
X75891428Y-48471428D01*
X75891428Y-48014285D01*
X75948571Y-47900000D01*
X76062857Y-47842857D01*
X76291428Y-47842857D01*
X76405714Y-47900000D01*
X76462857Y-48014285D01*
X76462857Y-48128571D01*
X75891428Y-48242857D01*
X76920000Y-48585714D02*
X77034285Y-48642857D01*
X77262857Y-48642857D01*
X77377142Y-48585714D01*
X77434285Y-48471428D01*
X77434285Y-48414285D01*
X77377142Y-48300000D01*
X77262857Y-48242857D01*
X77091428Y-48242857D01*
X76977142Y-48185714D01*
X76920000Y-48071428D01*
X76920000Y-48014285D01*
X76977142Y-47900000D01*
X77091428Y-47842857D01*
X77262857Y-47842857D01*
X77377142Y-47900000D01*
X77948571Y-48642857D02*
X77948571Y-47842857D01*
X77948571Y-47442857D02*
X77891428Y-47500000D01*
X77948571Y-47557142D01*
X78005714Y-47500000D01*
X77948571Y-47442857D01*
X77948571Y-47557142D01*
X79034285Y-47842857D02*
X79034285Y-48814285D01*
X78977142Y-48928571D01*
X78920000Y-48985714D01*
X78805714Y-49042857D01*
X78634285Y-49042857D01*
X78520000Y-48985714D01*
X79034285Y-48585714D02*
X78920000Y-48642857D01*
X78691428Y-48642857D01*
X78577142Y-48585714D01*
X78520000Y-48528571D01*
X78462857Y-48414285D01*
X78462857Y-48071428D01*
X78520000Y-47957142D01*
X78577142Y-47900000D01*
X78691428Y-47842857D01*
X78920000Y-47842857D01*
X79034285Y-47900000D01*
X79605714Y-47842857D02*
X79605714Y-48642857D01*
X79605714Y-47957142D02*
X79662857Y-47900000D01*
X79777142Y-47842857D01*
X79948571Y-47842857D01*
X80062857Y-47900000D01*
X80120000Y-48014285D01*
X80120000Y-48642857D01*
X81148571Y-48585714D02*
X81034285Y-48642857D01*
X80805714Y-48642857D01*
X80691428Y-48585714D01*
X80634285Y-48471428D01*
X80634285Y-48014285D01*
X80691428Y-47900000D01*
X80805714Y-47842857D01*
X81034285Y-47842857D01*
X81148571Y-47900000D01*
X81205714Y-48014285D01*
X81205714Y-48128571D01*
X80634285Y-48242857D01*
X82234285Y-48642857D02*
X82234285Y-47442857D01*
X82234285Y-48585714D02*
X82120000Y-48642857D01*
X81891428Y-48642857D01*
X81777142Y-48585714D01*
X81720000Y-48528571D01*
X81662857Y-48414285D01*
X81662857Y-48071428D01*
X81720000Y-47957142D01*
X81777142Y-47900000D01*
X81891428Y-47842857D01*
X82120000Y-47842857D01*
X82234285Y-47900000D01*
X83720000Y-48642857D02*
X83720000Y-47442857D01*
X83720000Y-47900000D02*
X83834285Y-47842857D01*
X84062857Y-47842857D01*
X84177142Y-47900000D01*
X84234285Y-47957142D01*
X84291428Y-48071428D01*
X84291428Y-48414285D01*
X84234285Y-48528571D01*
X84177142Y-48585714D01*
X84062857Y-48642857D01*
X83834285Y-48642857D01*
X83720000Y-48585714D01*
X84691428Y-47842857D02*
X84977142Y-48642857D01*
X85262857Y-47842857D02*
X84977142Y-48642857D01*
X84862857Y-48928571D01*
X84805714Y-48985714D01*
X84691428Y-49042857D01*
X86462857Y-47842857D02*
X86920000Y-47842857D01*
X86634285Y-47442857D02*
X86634285Y-48471428D01*
X86691428Y-48585714D01*
X86805714Y-48642857D01*
X86920000Y-48642857D01*
X87834285Y-48642857D02*
X87834285Y-48014285D01*
X87777142Y-47900000D01*
X87662857Y-47842857D01*
X87434285Y-47842857D01*
X87320000Y-47900000D01*
X87834285Y-48585714D02*
X87720000Y-48642857D01*
X87434285Y-48642857D01*
X87320000Y-48585714D01*
X87262857Y-48471428D01*
X87262857Y-48357142D01*
X87320000Y-48242857D01*
X87434285Y-48185714D01*
X87720000Y-48185714D01*
X87834285Y-48128571D01*
X88405714Y-48642857D02*
X88405714Y-47842857D01*
X88405714Y-47957142D02*
X88462857Y-47900000D01*
X88577142Y-47842857D01*
X88748571Y-47842857D01*
X88862857Y-47900000D01*
X88920000Y-48014285D01*
X88920000Y-48642857D01*
X88920000Y-48014285D02*
X88977142Y-47900000D01*
X89091428Y-47842857D01*
X89262857Y-47842857D01*
X89377142Y-47900000D01*
X89434285Y-48014285D01*
X89434285Y-48642857D01*
X90520000Y-48642857D02*
X90520000Y-48014285D01*
X90462857Y-47900000D01*
X90348571Y-47842857D01*
X90120000Y-47842857D01*
X90005714Y-47900000D01*
X90520000Y-48585714D02*
X90405714Y-48642857D01*
X90120000Y-48642857D01*
X90005714Y-48585714D01*
X89948571Y-48471428D01*
X89948571Y-48357142D01*
X90005714Y-48242857D01*
X90120000Y-48185714D01*
X90405714Y-48185714D01*
X90520000Y-48128571D01*
X91605714Y-47842857D02*
X91605714Y-48814285D01*
X91548571Y-48928571D01*
X91491428Y-48985714D01*
X91377142Y-49042857D01*
X91205714Y-49042857D01*
X91091428Y-48985714D01*
X91605714Y-48585714D02*
X91491428Y-48642857D01*
X91262857Y-48642857D01*
X91148571Y-48585714D01*
X91091428Y-48528571D01*
X91034285Y-48414285D01*
X91034285Y-48071428D01*
X91091428Y-47957142D01*
X91148571Y-47900000D01*
X91262857Y-47842857D01*
X91491428Y-47842857D01*
X91605714Y-47900000D01*
X92348571Y-48642857D02*
X92234285Y-48585714D01*
X92177142Y-48528571D01*
X92120000Y-48414285D01*
X92120000Y-48071428D01*
X92177142Y-47957142D01*
X92234285Y-47900000D01*
X92348571Y-47842857D01*
X92520000Y-47842857D01*
X92634285Y-47900000D01*
X92691428Y-47957142D01*
X92748571Y-48071428D01*
X92748571Y-48414285D01*
X92691428Y-48528571D01*
X92634285Y-48585714D01*
X92520000Y-48642857D01*
X92348571Y-48642857D01*
X93148571Y-47442857D02*
X93891428Y-47442857D01*
X93491428Y-47900000D01*
X93662857Y-47900000D01*
X93777142Y-47957142D01*
X93834285Y-48014285D01*
X93891428Y-48128571D01*
X93891428Y-48414285D01*
X93834285Y-48528571D01*
X93777142Y-48585714D01*
X93662857Y-48642857D01*
X93320000Y-48642857D01*
X93205714Y-48585714D01*
X93148571Y-48528571D01*
X94348571Y-47557142D02*
X94405714Y-47500000D01*
X94520000Y-47442857D01*
X94805714Y-47442857D01*
X94920000Y-47500000D01*
X94977142Y-47557142D01*
X95034285Y-47671428D01*
X95034285Y-47785714D01*
X94977142Y-47957142D01*
X94291428Y-48642857D01*
X95034285Y-48642857D01*
X96062857Y-47842857D02*
X96062857Y-48642857D01*
X95777142Y-47385714D02*
X95491428Y-48242857D01*
X96234285Y-48242857D01*
D12*
X99710000Y-49060000D03*
X60480000Y-112870000D03*
X33690000Y-108030000D03*
X110200000Y-93560000D03*
X33730000Y-54530000D03*
%LPC*%
D13*
%TO.C,HOLE3*%
X99710000Y-49060000D03*
%TD*%
%TO.C,HOLE5*%
X60480000Y-112870000D03*
%TD*%
%TO.C,HOLE4*%
X33690000Y-108030000D03*
%TD*%
%TO.C,HOLE2*%
X110200000Y-93560000D03*
%TD*%
%TO.C,HOLE1*%
X33730000Y-54530000D03*
%TD*%
M02*
