%TF.GenerationSoftware,KiCad,Pcbnew,(6.0.6)*%
%TF.CreationDate,2022-11-27T23:57:51+09:00*%
%TF.ProjectId,split-mini__bottom,73706c69-742d-46d6-996e-695f5f626f74,rev?*%
%TF.SameCoordinates,Original*%
%TF.FileFunction,Legend,Bot*%
%TF.FilePolarity,Positive*%
%FSLAX46Y46*%
G04 Gerber Fmt 4.6, Leading zero omitted, Abs format (unit mm)*
G04 Created by KiCad (PCBNEW (6.0.6)) date 2022-11-27 23:57:51*
%MOMM*%
%LPD*%
G01*
G04 APERTURE LIST*
%TA.AperFunction,Profile*%
%ADD10C,0.100000*%
%TD*%
%ADD11C,0.300000*%
%ADD12C,0.350000*%
%ADD13C,2.200000*%
G04 APERTURE END LIST*
D10*
X113700000Y-47980000D02*
X48706692Y-33440758D01*
X114481692Y-117888869D02*
X114481692Y-48955880D01*
X25706692Y-23513892D02*
G75*
G03*
X24706692Y-24513869I8J-1000008D01*
G01*
X113481692Y-118888892D02*
G75*
G03*
X114481692Y-117888869I8J999992D01*
G01*
X114481737Y-48955880D02*
G75*
G03*
X113700000Y-47980000I-1000137J-120D01*
G01*
X63592178Y-118888869D02*
X113481692Y-118888869D01*
X25488384Y-110389626D02*
X63373870Y-118864748D01*
X63373868Y-118864755D02*
G75*
G03*
X63592178Y-118888869I218232J975455D01*
G01*
X24706692Y-24513869D02*
X24706692Y-109413746D01*
X24706653Y-109413746D02*
G75*
G03*
X25488384Y-110389626I1000047J46D01*
G01*
X47706692Y-23513869D02*
X25706692Y-23513869D01*
X48706731Y-24513869D02*
G75*
G03*
X47706692Y-23513869I-1000031J-31D01*
G01*
X48706692Y-24513869D02*
X48706692Y-33440758D01*
D11*
X96347142Y-48685714D02*
X96232857Y-48742857D01*
X96004285Y-48742857D01*
X95890000Y-48685714D01*
X95832857Y-48571428D01*
X95832857Y-48514285D01*
X95890000Y-48400000D01*
X96004285Y-48342857D01*
X96175714Y-48342857D01*
X96290000Y-48285714D01*
X96347142Y-48171428D01*
X96347142Y-48114285D01*
X96290000Y-48000000D01*
X96175714Y-47942857D01*
X96004285Y-47942857D01*
X95890000Y-48000000D01*
X95318571Y-47942857D02*
X95318571Y-49142857D01*
X95318571Y-48000000D02*
X95204285Y-47942857D01*
X94975714Y-47942857D01*
X94861428Y-48000000D01*
X94804285Y-48057142D01*
X94747142Y-48171428D01*
X94747142Y-48514285D01*
X94804285Y-48628571D01*
X94861428Y-48685714D01*
X94975714Y-48742857D01*
X95204285Y-48742857D01*
X95318571Y-48685714D01*
X94061428Y-48742857D02*
X94175714Y-48685714D01*
X94232857Y-48571428D01*
X94232857Y-47542857D01*
X93604285Y-48742857D02*
X93604285Y-47942857D01*
X93604285Y-47542857D02*
X93661428Y-47600000D01*
X93604285Y-47657142D01*
X93547142Y-47600000D01*
X93604285Y-47542857D01*
X93604285Y-47657142D01*
X93204285Y-47942857D02*
X92747142Y-47942857D01*
X93032857Y-47542857D02*
X93032857Y-48571428D01*
X92975714Y-48685714D01*
X92861428Y-48742857D01*
X92747142Y-48742857D01*
X91432857Y-48742857D02*
X91432857Y-47942857D01*
X91432857Y-48057142D02*
X91375714Y-48000000D01*
X91261428Y-47942857D01*
X91090000Y-47942857D01*
X90975714Y-48000000D01*
X90918571Y-48114285D01*
X90918571Y-48742857D01*
X90918571Y-48114285D02*
X90861428Y-48000000D01*
X90747142Y-47942857D01*
X90575714Y-47942857D01*
X90461428Y-48000000D01*
X90404285Y-48114285D01*
X90404285Y-48742857D01*
X89832857Y-48742857D02*
X89832857Y-47942857D01*
X89832857Y-47542857D02*
X89890000Y-47600000D01*
X89832857Y-47657142D01*
X89775714Y-47600000D01*
X89832857Y-47542857D01*
X89832857Y-47657142D01*
X89261428Y-47942857D02*
X89261428Y-48742857D01*
X89261428Y-48057142D02*
X89204285Y-48000000D01*
X89090000Y-47942857D01*
X88918571Y-47942857D01*
X88804285Y-48000000D01*
X88747142Y-48114285D01*
X88747142Y-48742857D01*
X88175714Y-48742857D02*
X88175714Y-47942857D01*
X88175714Y-47542857D02*
X88232857Y-47600000D01*
X88175714Y-47657142D01*
X88118571Y-47600000D01*
X88175714Y-47542857D01*
X88175714Y-47657142D01*
X86690000Y-48742857D02*
X86690000Y-47942857D01*
X86690000Y-48171428D02*
X86632857Y-48057142D01*
X86575714Y-48000000D01*
X86461428Y-47942857D01*
X86347142Y-47942857D01*
X85490000Y-48685714D02*
X85604285Y-48742857D01*
X85832857Y-48742857D01*
X85947142Y-48685714D01*
X86004285Y-48571428D01*
X86004285Y-48114285D01*
X85947142Y-48000000D01*
X85832857Y-47942857D01*
X85604285Y-47942857D01*
X85490000Y-48000000D01*
X85432857Y-48114285D01*
X85432857Y-48228571D01*
X86004285Y-48342857D01*
X85032857Y-47942857D02*
X84747142Y-48742857D01*
X84461428Y-47942857D01*
X83775714Y-47542857D02*
X83661428Y-47542857D01*
X83547142Y-47600000D01*
X83490000Y-47657142D01*
X83432857Y-47771428D01*
X83375714Y-48000000D01*
X83375714Y-48285714D01*
X83432857Y-48514285D01*
X83490000Y-48628571D01*
X83547142Y-48685714D01*
X83661428Y-48742857D01*
X83775714Y-48742857D01*
X83890000Y-48685714D01*
X83947142Y-48628571D01*
X84004285Y-48514285D01*
X84061428Y-48285714D01*
X84061428Y-48000000D01*
X84004285Y-47771428D01*
X83947142Y-47657142D01*
X83890000Y-47600000D01*
X83775714Y-47542857D01*
X82861428Y-48628571D02*
X82804285Y-48685714D01*
X82861428Y-48742857D01*
X82918571Y-48685714D01*
X82861428Y-48628571D01*
X82861428Y-48742857D01*
X82118571Y-48057142D02*
X82232857Y-48000000D01*
X82290000Y-47942857D01*
X82347142Y-47828571D01*
X82347142Y-47771428D01*
X82290000Y-47657142D01*
X82232857Y-47600000D01*
X82118571Y-47542857D01*
X81890000Y-47542857D01*
X81775714Y-47600000D01*
X81718571Y-47657142D01*
X81661428Y-47771428D01*
X81661428Y-47828571D01*
X81718571Y-47942857D01*
X81775714Y-48000000D01*
X81890000Y-48057142D01*
X82118571Y-48057142D01*
X82232857Y-48114285D01*
X82290000Y-48171428D01*
X82347142Y-48285714D01*
X82347142Y-48514285D01*
X82290000Y-48628571D01*
X82232857Y-48685714D01*
X82118571Y-48742857D01*
X81890000Y-48742857D01*
X81775714Y-48685714D01*
X81718571Y-48628571D01*
X81661428Y-48514285D01*
X81661428Y-48285714D01*
X81718571Y-48171428D01*
X81775714Y-48114285D01*
X81890000Y-48057142D01*
X80232857Y-48628571D02*
X80175714Y-48685714D01*
X80232857Y-48742857D01*
X80290000Y-48685714D01*
X80232857Y-48628571D01*
X80232857Y-48742857D01*
X80232857Y-48000000D02*
X80175714Y-48057142D01*
X80232857Y-48114285D01*
X80290000Y-48057142D01*
X80232857Y-48000000D01*
X80232857Y-48114285D01*
X78232857Y-48742857D02*
X78232857Y-47542857D01*
X78232857Y-48685714D02*
X78347142Y-48742857D01*
X78575714Y-48742857D01*
X78690000Y-48685714D01*
X78747142Y-48628571D01*
X78804285Y-48514285D01*
X78804285Y-48171428D01*
X78747142Y-48057142D01*
X78690000Y-48000000D01*
X78575714Y-47942857D01*
X78347142Y-47942857D01*
X78232857Y-48000000D01*
X77204285Y-48685714D02*
X77318571Y-48742857D01*
X77547142Y-48742857D01*
X77661428Y-48685714D01*
X77718571Y-48571428D01*
X77718571Y-48114285D01*
X77661428Y-48000000D01*
X77547142Y-47942857D01*
X77318571Y-47942857D01*
X77204285Y-48000000D01*
X77147142Y-48114285D01*
X77147142Y-48228571D01*
X77718571Y-48342857D01*
X76690000Y-48685714D02*
X76575714Y-48742857D01*
X76347142Y-48742857D01*
X76232857Y-48685714D01*
X76175714Y-48571428D01*
X76175714Y-48514285D01*
X76232857Y-48400000D01*
X76347142Y-48342857D01*
X76518571Y-48342857D01*
X76632857Y-48285714D01*
X76690000Y-48171428D01*
X76690000Y-48114285D01*
X76632857Y-48000000D01*
X76518571Y-47942857D01*
X76347142Y-47942857D01*
X76232857Y-48000000D01*
X75661428Y-48742857D02*
X75661428Y-47942857D01*
X75661428Y-47542857D02*
X75718571Y-47600000D01*
X75661428Y-47657142D01*
X75604285Y-47600000D01*
X75661428Y-47542857D01*
X75661428Y-47657142D01*
X74575714Y-47942857D02*
X74575714Y-48914285D01*
X74632857Y-49028571D01*
X74690000Y-49085714D01*
X74804285Y-49142857D01*
X74975714Y-49142857D01*
X75090000Y-49085714D01*
X74575714Y-48685714D02*
X74690000Y-48742857D01*
X74918571Y-48742857D01*
X75032857Y-48685714D01*
X75090000Y-48628571D01*
X75147142Y-48514285D01*
X75147142Y-48171428D01*
X75090000Y-48057142D01*
X75032857Y-48000000D01*
X74918571Y-47942857D01*
X74690000Y-47942857D01*
X74575714Y-48000000D01*
X74004285Y-47942857D02*
X74004285Y-48742857D01*
X74004285Y-48057142D02*
X73947142Y-48000000D01*
X73832857Y-47942857D01*
X73661428Y-47942857D01*
X73547142Y-48000000D01*
X73490000Y-48114285D01*
X73490000Y-48742857D01*
X72461428Y-48685714D02*
X72575714Y-48742857D01*
X72804285Y-48742857D01*
X72918571Y-48685714D01*
X72975714Y-48571428D01*
X72975714Y-48114285D01*
X72918571Y-48000000D01*
X72804285Y-47942857D01*
X72575714Y-47942857D01*
X72461428Y-48000000D01*
X72404285Y-48114285D01*
X72404285Y-48228571D01*
X72975714Y-48342857D01*
X71375714Y-48742857D02*
X71375714Y-47542857D01*
X71375714Y-48685714D02*
X71490000Y-48742857D01*
X71718571Y-48742857D01*
X71832857Y-48685714D01*
X71890000Y-48628571D01*
X71947142Y-48514285D01*
X71947142Y-48171428D01*
X71890000Y-48057142D01*
X71832857Y-48000000D01*
X71718571Y-47942857D01*
X71490000Y-47942857D01*
X71375714Y-48000000D01*
X69890000Y-48742857D02*
X69890000Y-47542857D01*
X69890000Y-48000000D02*
X69775714Y-47942857D01*
X69547142Y-47942857D01*
X69432857Y-48000000D01*
X69375714Y-48057142D01*
X69318571Y-48171428D01*
X69318571Y-48514285D01*
X69375714Y-48628571D01*
X69432857Y-48685714D01*
X69547142Y-48742857D01*
X69775714Y-48742857D01*
X69890000Y-48685714D01*
X68918571Y-47942857D02*
X68632857Y-48742857D01*
X68347142Y-47942857D02*
X68632857Y-48742857D01*
X68747142Y-49028571D01*
X68804285Y-49085714D01*
X68918571Y-49142857D01*
X67147142Y-47942857D02*
X66690000Y-47942857D01*
X66975714Y-47542857D02*
X66975714Y-48571428D01*
X66918571Y-48685714D01*
X66804285Y-48742857D01*
X66690000Y-48742857D01*
X65775714Y-48742857D02*
X65775714Y-48114285D01*
X65832857Y-48000000D01*
X65947142Y-47942857D01*
X66175714Y-47942857D01*
X66290000Y-48000000D01*
X65775714Y-48685714D02*
X65890000Y-48742857D01*
X66175714Y-48742857D01*
X66290000Y-48685714D01*
X66347142Y-48571428D01*
X66347142Y-48457142D01*
X66290000Y-48342857D01*
X66175714Y-48285714D01*
X65890000Y-48285714D01*
X65775714Y-48228571D01*
X65204285Y-48742857D02*
X65204285Y-47942857D01*
X65204285Y-48057142D02*
X65147142Y-48000000D01*
X65032857Y-47942857D01*
X64861428Y-47942857D01*
X64747142Y-48000000D01*
X64690000Y-48114285D01*
X64690000Y-48742857D01*
X64690000Y-48114285D02*
X64632857Y-48000000D01*
X64518571Y-47942857D01*
X64347142Y-47942857D01*
X64232857Y-48000000D01*
X64175714Y-48114285D01*
X64175714Y-48742857D01*
X63090000Y-48742857D02*
X63090000Y-48114285D01*
X63147142Y-48000000D01*
X63261428Y-47942857D01*
X63490000Y-47942857D01*
X63604285Y-48000000D01*
X63090000Y-48685714D02*
X63204285Y-48742857D01*
X63490000Y-48742857D01*
X63604285Y-48685714D01*
X63661428Y-48571428D01*
X63661428Y-48457142D01*
X63604285Y-48342857D01*
X63490000Y-48285714D01*
X63204285Y-48285714D01*
X63090000Y-48228571D01*
X62004285Y-47942857D02*
X62004285Y-48914285D01*
X62061428Y-49028571D01*
X62118571Y-49085714D01*
X62232857Y-49142857D01*
X62404285Y-49142857D01*
X62518571Y-49085714D01*
X62004285Y-48685714D02*
X62118571Y-48742857D01*
X62347142Y-48742857D01*
X62461428Y-48685714D01*
X62518571Y-48628571D01*
X62575714Y-48514285D01*
X62575714Y-48171428D01*
X62518571Y-48057142D01*
X62461428Y-48000000D01*
X62347142Y-47942857D01*
X62118571Y-47942857D01*
X62004285Y-48000000D01*
X61261428Y-48742857D02*
X61375714Y-48685714D01*
X61432857Y-48628571D01*
X61490000Y-48514285D01*
X61490000Y-48171428D01*
X61432857Y-48057142D01*
X61375714Y-48000000D01*
X61261428Y-47942857D01*
X61090000Y-47942857D01*
X60975714Y-48000000D01*
X60918571Y-48057142D01*
X60861428Y-48171428D01*
X60861428Y-48514285D01*
X60918571Y-48628571D01*
X60975714Y-48685714D01*
X61090000Y-48742857D01*
X61261428Y-48742857D01*
X60461428Y-47542857D02*
X59718571Y-47542857D01*
X60118571Y-48000000D01*
X59947142Y-48000000D01*
X59832857Y-48057142D01*
X59775714Y-48114285D01*
X59718571Y-48228571D01*
X59718571Y-48514285D01*
X59775714Y-48628571D01*
X59832857Y-48685714D01*
X59947142Y-48742857D01*
X60290000Y-48742857D01*
X60404285Y-48685714D01*
X60461428Y-48628571D01*
X59261428Y-47657142D02*
X59204285Y-47600000D01*
X59090000Y-47542857D01*
X58804285Y-47542857D01*
X58690000Y-47600000D01*
X58632857Y-47657142D01*
X58575714Y-47771428D01*
X58575714Y-47885714D01*
X58632857Y-48057142D01*
X59318571Y-48742857D01*
X58575714Y-48742857D01*
X57547142Y-47942857D02*
X57547142Y-48742857D01*
X57832857Y-47485714D02*
X58118571Y-48342857D01*
X57375714Y-48342857D01*
D12*
X99710000Y-49060000D03*
X60480000Y-112870000D03*
X33690000Y-108030000D03*
X110200000Y-93560000D03*
X33730000Y-54530000D03*
%LPC*%
D13*
%TO.C,HOLE3*%
X99710000Y-49060000D03*
%TD*%
%TO.C,HOLE5*%
X60480000Y-112870000D03*
%TD*%
%TO.C,HOLE4*%
X33690000Y-108030000D03*
%TD*%
%TO.C,HOLE2*%
X110200000Y-93560000D03*
%TD*%
%TO.C,HOLE1*%
X33730000Y-54530000D03*
%TD*%
M02*
