M48
; DRILL file {KiCad (6.0.6)} date 2022年12月14日 08時05分18秒
; FORMAT={-:-/ absolute / metric / decimal}
; #@! TF.CreationDate,2022-12-14T08:05:18+09:00
; #@! TF.GenerationSoftware,Kicad,Pcbnew,(6.0.6)
; #@! TF.FileFunction,NonPlated,1,2,NPTH
FMAT,2
METRIC
; #@! TA.AperFunction,NonPlated,NPTH,ComponentDrill
T1C0.650
; #@! TA.AperFunction,NonPlated,NPTH,ComponentDrill
T2C1.200
; #@! TA.AperFunction,NonPlated,NPTH,ComponentDrill
T3C1.900
; #@! TA.AperFunction,NonPlated,NPTH,ComponentDrill
T4C3.000
; #@! TA.AperFunction,NonPlated,NPTH,ComponentDrill
T5C4.100
%
G90
G05
T1
X102.21Y-24.14
X107.99Y-24.14
T2
X22.9Y-20.35
X22.9Y-27.35
T3
X28.27Y-86.2
X34.02Y-52.4
X34.04Y-35.87
X34.05Y-68.95
X38.43Y-86.2
X44.18Y-52.4
X44.2Y-35.87
X44.21Y-68.95
X44.76Y-86.22
X50.52Y-52.4
X50.52Y-68.9
X50.53Y-35.87
X54.92Y-86.22
X60.68Y-52.4
X60.68Y-68.9
X60.69Y-35.87
X61.28Y-86.21
X67.0Y-52.38
X67.02Y-35.87
X67.02Y-68.9
X71.44Y-86.21
X77.16Y-52.38
X77.18Y-35.87
X77.18Y-68.9
X83.49Y-54.86
X83.49Y-71.35
X83.52Y-38.35
X93.65Y-54.86
X93.65Y-71.35
X93.68Y-38.35
X100.02Y-73.85
X100.03Y-57.4
X100.05Y-40.87
X110.18Y-73.85
X110.19Y-57.4
X110.21Y-40.87
T4
X29.54Y-83.66
X35.29Y-49.86
X35.31Y-33.33
X35.32Y-66.41
X35.89Y-81.12
X41.64Y-47.32
X41.66Y-30.79
X41.67Y-63.87
X46.03Y-83.68
X51.79Y-49.86
X51.79Y-66.36
X51.8Y-33.33
X52.38Y-81.14
X58.14Y-47.32
X58.14Y-63.82
X58.15Y-30.79
X62.55Y-83.67
X68.27Y-49.84
X68.29Y-33.33
X68.29Y-66.36
X68.9Y-81.13
X74.62Y-47.3
X74.64Y-30.79
X74.64Y-63.82
X84.76Y-52.32
X84.76Y-68.81
X84.79Y-35.81
X91.11Y-49.78
X91.11Y-66.27
X91.14Y-33.27
X101.29Y-71.31
X101.3Y-54.86
X101.32Y-38.33
X107.64Y-68.77
X107.65Y-52.32
X107.67Y-35.79
T5
X33.35Y-86.2
X39.1Y-52.4
X39.12Y-35.87
X39.13Y-68.95
X49.84Y-86.22
X55.6Y-52.4
X55.6Y-68.9
X55.61Y-35.87
X66.36Y-86.21
X72.08Y-52.38
X72.1Y-35.87
X72.1Y-68.9
X88.57Y-54.86
X88.57Y-71.35
X88.6Y-38.35
X105.1Y-73.85
X105.11Y-57.4
X105.13Y-40.87
T0
M30
