M48
; DRILL file {KiCad (6.0.6)} date 2022年12月14日 08時05分18秒
; FORMAT={-:-/ absolute / metric / decimal}
; #@! TF.CreationDate,2022-12-14T08:05:18+09:00
; #@! TF.GenerationSoftware,Kicad,Pcbnew,(6.0.6)
; #@! TF.FileFunction,Plated,1,2,PTH
FMAT,2
METRIC
; #@! TA.AperFunction,Plated,PTH,ViaDrill
T1C0.400
; #@! TA.AperFunction,Plated,PTH,ComponentDrill
T2C0.600
; #@! TA.AperFunction,Plated,PTH,ComponentDrill
T3C1.000
%
G90
G05
T1
X30.0Y-72.3
X30.05Y-35.15
X40.3Y-90.1
X45.9Y-40.7
X46.2Y-56.0
X46.3Y-74.5
X56.8Y-90.0
X62.5Y-55.6
X62.5Y-74.0
X62.8Y-41.7
X73.4Y-89.5
X77.825Y-74.075
X79.1Y-41.1
X79.1Y-56.1
X80.9Y-84.9
X82.275Y-80.475
X82.7Y-86.349
X84.9Y-86.2
X85.0Y-84.0
X85.0Y-87.2
X85.1Y-85.1
X85.2Y-82.8
X88.1Y-76.9
X88.3Y-92.2
X89.2Y-92.825
X90.09Y-76.35
X90.2Y-93.275
X90.85Y-75.55
X91.092Y-93.725
X91.665Y-76.417
X91.985Y-94.175
X92.099Y-75.451
X92.45Y-73.05
X92.871Y-94.637
X94.039Y-76.2
X94.305Y-77.345
X94.45Y-35.65
X94.9Y-47.6
X95.35Y-68.45
X95.45Y-77.35
X95.5Y-72.1
X95.976Y-47.737
X96.425Y-93.625
X96.45Y-51.9
X96.65Y-77.35
X97.5Y-78.1
X98.75Y-79.85
X100.83Y-81.43
X101.013Y-79.954
X101.926Y-27.626
X102.9Y-27.0
X103.875Y-86.539
X104.14Y-91.44
X105.025Y-85.739
X106.45Y-83.113
X106.7Y-27.724
X107.4Y-81.249
X107.65Y-27.0
X109.025Y-63.325
X110.575Y-47.575
X110.9Y-78.8
X110.962Y-77.687
X111.925Y-32.4
T2
G00X100.78Y-20.06
M15
G01X100.78Y-20.86
M16
G05
G00X100.78Y-24.09
M15
G01X100.78Y-25.19
M16
G05
G00X109.42Y-20.06
M15
G01X109.42Y-20.86
M16
G05
G00X109.42Y-24.09
M15
G01X109.42Y-25.19
M16
G05
T3
G00X20.8Y-22.4
M15
G01X20.8Y-21.9
M16
G05
G00X20.8Y-25.4
M15
G01X20.8Y-24.9
M16
G05
G00X20.8Y-29.4
M15
G01X20.8Y-28.9
M16
G05
G00X25.0Y-30.9
M15
G01X25.0Y-30.4
M16
G05
T0
M30
