%TF.GenerationSoftware,KiCad,Pcbnew,(6.0.6)*%
%TF.CreationDate,2022-12-14T08:05:18+09:00*%
%TF.ProjectId,split-mini__right,73706c69-742d-46d6-996e-695f5f726967,rev?*%
%TF.SameCoordinates,Original*%
%TF.FileFunction,Legend,Top*%
%TF.FilePolarity,Positive*%
%FSLAX46Y46*%
G04 Gerber Fmt 4.6, Leading zero omitted, Abs format (unit mm)*
G04 Created by KiCad (PCBNEW (6.0.6)) date 2022-12-14 08:05:18*
%MOMM*%
%LPD*%
G01*
G04 APERTURE LIST*
%TA.AperFunction,Profile*%
%ADD10C,0.100000*%
%TD*%
%ADD11C,0.350000*%
%ADD12O,0.600000X1.400000*%
%ADD13O,0.600000X1.700000*%
%ADD14O,1.000000X1.500000*%
%ADD15C,1.900000*%
%ADD16C,4.100000*%
%ADD17C,3.000000*%
%ADD18C,0.650000*%
%ADD19O,1.000000X1.800000*%
%ADD20O,1.000000X2.100000*%
%ADD21C,1.200000*%
%ADD22O,1.700000X2.500000*%
G04 APERTURE END LIST*
D10*
X26100000Y-26400000D02*
X26100000Y-18900000D01*
X19600000Y-18900000D02*
X19600000Y-35900000D01*
X23825000Y-95725000D02*
X114600000Y-95725000D01*
X114600000Y-26400000D02*
X110600000Y-26400000D01*
X99600000Y-19100000D02*
X99600000Y-26400000D01*
X23825000Y-35900000D02*
X19600000Y-35900000D01*
X23825000Y-35900000D02*
X23825000Y-95725000D01*
X110600000Y-19100000D02*
X99600000Y-19100000D01*
X26100000Y-18900000D02*
X19600000Y-18900000D01*
X114600000Y-95725000D02*
X114600000Y-26400000D01*
X99600000Y-26400000D02*
X26100000Y-26400000D01*
X110600000Y-26400000D02*
X110600000Y-19100000D01*
D11*
X104140000Y-91440000D03*
X91984939Y-94175500D03*
X96425000Y-93625000D03*
X100830025Y-81430025D03*
X82275500Y-80475000D03*
X30000000Y-72300000D03*
X88300000Y-92200000D03*
X89200000Y-92825500D03*
X90200000Y-93275500D03*
X91092470Y-93725500D03*
X92871416Y-94637195D03*
X73400000Y-89500000D03*
X56800000Y-90000000D03*
X40300000Y-90100000D03*
X46300000Y-74500000D03*
X62500000Y-74000000D03*
X77825000Y-74075000D03*
X85000000Y-87200000D03*
X84900000Y-86200000D03*
X85100000Y-85100000D03*
X79100000Y-56100000D03*
X62500000Y-55600000D03*
X46200000Y-56000000D03*
X85000000Y-84000000D03*
X85200000Y-82800000D03*
X88100000Y-76900000D03*
X92099312Y-75450688D03*
X92450000Y-73050000D03*
X91665500Y-76417409D03*
X82700438Y-86349062D03*
X94039500Y-76200000D03*
X95500000Y-72100000D03*
X80900000Y-84900000D03*
X110900000Y-78800000D03*
X111925000Y-32400000D03*
X106450500Y-83113188D03*
X107400000Y-81249500D03*
X102900000Y-27000000D03*
X107650000Y-27000000D03*
X106700000Y-27724500D03*
X101925688Y-27625688D03*
X105025500Y-85739500D03*
X90090500Y-76350000D03*
X94900000Y-47600000D03*
X90850000Y-75550000D03*
X95975653Y-47737174D03*
X30050000Y-35150000D03*
X101012696Y-79953836D03*
X45900000Y-40700000D03*
X62800000Y-41700000D03*
X79100000Y-41100000D03*
X94450000Y-35650000D03*
X96650000Y-77350000D03*
X97500000Y-78100000D03*
X110575000Y-47575000D03*
X95450000Y-77350000D03*
X96449500Y-51900000D03*
X98750000Y-79850000D03*
X109025000Y-63325000D03*
X94305368Y-77344632D03*
X95350000Y-68450000D03*
X110962147Y-77687146D03*
X103875000Y-86539500D03*
X110180000Y-73850000D03*
X105100000Y-73850000D03*
X101290000Y-71310000D03*
X100020000Y-73850000D03*
X107640000Y-68770000D03*
X50520000Y-52400000D03*
X60680000Y-52400000D03*
X58140000Y-47320000D03*
X55600000Y-52400000D03*
X51790000Y-49860000D03*
X67020000Y-35870000D03*
X68290000Y-33330000D03*
X72100000Y-35870000D03*
X74640000Y-30790000D03*
X77180000Y-35870000D03*
X41640000Y-47320000D03*
X34020000Y-52400000D03*
X39100000Y-52400000D03*
X44180000Y-52400000D03*
X35290000Y-49860000D03*
X52380000Y-81140000D03*
X44760000Y-86220000D03*
X49840000Y-86220000D03*
X46030000Y-83680000D03*
X54920000Y-86220000D03*
X91110000Y-66270000D03*
X84760000Y-68810000D03*
X88570000Y-71350000D03*
X93650000Y-71350000D03*
X83490000Y-71350000D03*
X84760000Y-52320000D03*
X88570000Y-54860000D03*
X91110000Y-49780000D03*
X93650000Y-54860000D03*
X83490000Y-54860000D03*
X68270000Y-49840000D03*
X67000000Y-52380000D03*
X72080000Y-52380000D03*
X74620000Y-47300000D03*
X77160000Y-52380000D03*
X110190000Y-57400000D03*
X105110000Y-57400000D03*
X100030000Y-57400000D03*
X101300000Y-54860000D03*
X107650000Y-52320000D03*
X39130000Y-68950000D03*
X35320000Y-66410000D03*
X44210000Y-68950000D03*
X41670000Y-63870000D03*
X34050000Y-68950000D03*
X34040000Y-35870000D03*
X44200000Y-35870000D03*
X35310000Y-33330000D03*
X41660000Y-30790000D03*
X39120000Y-35870000D03*
X51790000Y-66360000D03*
X60680000Y-68900000D03*
X58140000Y-63820000D03*
X50520000Y-68900000D03*
X55600000Y-68900000D03*
X110210000Y-40870000D03*
X100050000Y-40870000D03*
X107670000Y-35790000D03*
X101320000Y-38330000D03*
X105130000Y-40870000D03*
X50530000Y-35870000D03*
X55610000Y-35870000D03*
X58150000Y-30790000D03*
X51800000Y-33330000D03*
X60690000Y-35870000D03*
X77180000Y-68900000D03*
X67020000Y-68900000D03*
X68290000Y-66360000D03*
X74640000Y-63820000D03*
X72100000Y-68900000D03*
X28270000Y-86200000D03*
X35890000Y-81120000D03*
X38430000Y-86200000D03*
X29540000Y-83660000D03*
X33350000Y-86200000D03*
X88600000Y-38350000D03*
X93680000Y-38350000D03*
X83520000Y-38350000D03*
X84790000Y-35810000D03*
X91140000Y-33270000D03*
X61280000Y-86210000D03*
X68900000Y-81130000D03*
X62550000Y-83670000D03*
X71440000Y-86210000D03*
X66360000Y-86210000D03*
X102210000Y-24140000D03*
X107990000Y-24140000D03*
D12*
X109420000Y-20460000D03*
D13*
X100780000Y-24640000D03*
X109420000Y-24640000D03*
D12*
X100780000Y-20460000D03*
D11*
X22900000Y-27350000D03*
X22900000Y-20350000D03*
D14*
X25000000Y-30650000D03*
X20800000Y-22150000D03*
X20800000Y-25150000D03*
X20800000Y-29150000D03*
%LPC*%
D15*
%TO.C,SW15*%
X110180000Y-73850000D03*
D16*
X105100000Y-73850000D03*
D17*
X101290000Y-71310000D03*
D15*
X100020000Y-73850000D03*
D17*
X107640000Y-68770000D03*
%TD*%
D15*
%TO.C,SW7*%
X50520000Y-52400000D03*
X60680000Y-52400000D03*
D17*
X58140000Y-47320000D03*
D16*
X55600000Y-52400000D03*
D17*
X51790000Y-49860000D03*
%TD*%
D15*
%TO.C,SW3*%
X67020000Y-35870000D03*
D17*
X68290000Y-33330000D03*
D16*
X72100000Y-35870000D03*
D17*
X74640000Y-30790000D03*
D15*
X77180000Y-35870000D03*
%TD*%
D17*
%TO.C,SW6*%
X41640000Y-47320000D03*
D15*
X34020000Y-52400000D03*
D16*
X39100000Y-52400000D03*
D15*
X44180000Y-52400000D03*
D17*
X35290000Y-49860000D03*
%TD*%
%TO.C,SW17*%
X52380000Y-81140000D03*
D15*
X44760000Y-86220000D03*
D16*
X49840000Y-86220000D03*
D17*
X46030000Y-83680000D03*
D15*
X54920000Y-86220000D03*
%TD*%
D17*
%TO.C,SW14*%
X91110000Y-66270000D03*
X84760000Y-68810000D03*
D16*
X88570000Y-71350000D03*
D15*
X93650000Y-71350000D03*
X83490000Y-71350000D03*
%TD*%
D17*
%TO.C,SW9*%
X84760000Y-52320000D03*
D16*
X88570000Y-54860000D03*
D17*
X91110000Y-49780000D03*
D15*
X93650000Y-54860000D03*
X83490000Y-54860000D03*
%TD*%
D17*
%TO.C,SW8*%
X68270000Y-49840000D03*
D15*
X67000000Y-52380000D03*
D16*
X72080000Y-52380000D03*
D17*
X74620000Y-47300000D03*
D15*
X77160000Y-52380000D03*
%TD*%
%TO.C,SW10*%
X110190000Y-57400000D03*
D16*
X105110000Y-57400000D03*
D15*
X100030000Y-57400000D03*
D17*
X101300000Y-54860000D03*
X107650000Y-52320000D03*
%TD*%
D16*
%TO.C,SW11*%
X39130000Y-68950000D03*
D17*
X35320000Y-66410000D03*
D15*
X44210000Y-68950000D03*
D17*
X41670000Y-63870000D03*
D15*
X34050000Y-68950000D03*
%TD*%
%TO.C,SW1*%
X34040000Y-35870000D03*
X44200000Y-35870000D03*
D17*
X35310000Y-33330000D03*
X41660000Y-30790000D03*
D16*
X39120000Y-35870000D03*
%TD*%
D17*
%TO.C,SW12*%
X51790000Y-66360000D03*
D15*
X60680000Y-68900000D03*
D17*
X58140000Y-63820000D03*
D15*
X50520000Y-68900000D03*
D16*
X55600000Y-68900000D03*
%TD*%
D15*
%TO.C,SW5*%
X110210000Y-40870000D03*
X100050000Y-40870000D03*
D17*
X107670000Y-35790000D03*
X101320000Y-38330000D03*
D16*
X105130000Y-40870000D03*
%TD*%
D15*
%TO.C,SW2*%
X50530000Y-35870000D03*
D16*
X55610000Y-35870000D03*
D17*
X58150000Y-30790000D03*
X51800000Y-33330000D03*
D15*
X60690000Y-35870000D03*
%TD*%
%TO.C,SW13*%
X77180000Y-68900000D03*
X67020000Y-68900000D03*
D17*
X68290000Y-66360000D03*
X74640000Y-63820000D03*
D16*
X72100000Y-68900000D03*
%TD*%
D15*
%TO.C,SW16*%
X28270000Y-86200000D03*
D17*
X35890000Y-81120000D03*
D15*
X38430000Y-86200000D03*
D17*
X29540000Y-83660000D03*
D16*
X33350000Y-86200000D03*
%TD*%
%TO.C,SW4*%
X88600000Y-38350000D03*
D15*
X93680000Y-38350000D03*
X83520000Y-38350000D03*
D17*
X84790000Y-35810000D03*
X91140000Y-33270000D03*
%TD*%
D15*
%TO.C,SW18*%
X61280000Y-86210000D03*
D17*
X68900000Y-81130000D03*
X62550000Y-83670000D03*
D15*
X71440000Y-86210000D03*
D16*
X66360000Y-86210000D03*
%TD*%
D18*
%TO.C,J1*%
X102210000Y-24140000D03*
X107990000Y-24140000D03*
D19*
X109420000Y-20460000D03*
D20*
X100780000Y-24640000D03*
X109420000Y-24640000D03*
D19*
X100780000Y-20460000D03*
%TD*%
D21*
%TO.C,J2*%
X22900000Y-27350000D03*
X22900000Y-20350000D03*
D22*
X25000000Y-30650000D03*
X20800000Y-22150000D03*
X20800000Y-25150000D03*
X20800000Y-29150000D03*
%TD*%
M02*
