M48
; DRILL file {KiCad (6.0.6)} date 2022年11月03日 11時36分57秒
; FORMAT={-:-/ absolute / metric / decimal}
; #@! TF.CreationDate,2022-11-03T11:36:57+09:00
; #@! TF.GenerationSoftware,Kicad,Pcbnew,(6.0.6)
; #@! TF.FileFunction,Plated,1,2,PTH
FMAT,2
METRIC
; #@! TA.AperFunction,Plated,PTH,ViaDrill
T1C0.400
; #@! TA.AperFunction,Plated,PTH,ComponentDrill
T2C0.800
; #@! TA.AperFunction,Plated,PTH,ComponentDrill
T3C1.000
%
G90
G05
T1
X20.67Y-53.54
X20.97Y-79.67
X21.252Y-30.71
X21.69Y-62.84
X22.011Y-45.0
X22.59Y-77.72
X23.57Y-60.29
X24.09Y-63.3
X24.51Y-45.16
X26.68Y-39.433
X27.044Y-73.714
X27.06Y-56.51
X27.252Y-63.867
X27.768Y-86.081
X29.196Y-45.537
X29.51Y-78.98
X29.73Y-74.39
X30.207Y-85.992
X32.2Y-63.745
X32.98Y-90.04
X34.458Y-44.416
X35.863Y-28.959
X36.215Y-77.6
X36.63Y-88.78
X36.66Y-48.3
X37.197Y-23.05
X37.52Y-43.18
X37.667Y-62.242
X38.14Y-48.029
X38.39Y-77.84
X38.8Y-74.54
X39.2Y-41.016
X39.686Y-59.122
X40.525Y-78.519
X41.93Y-33.12
X41.98Y-67.53
X42.052Y-100.543
X42.144Y-58.732
X43.4Y-34.77
X43.55Y-52.31
X43.995Y-23.895
X45.48Y-88.94
X45.51Y-83.43
X46.26Y-69.54
X47.97Y-31.76
X48.323Y-41.417
X49.434Y-59.682
X49.98Y-73.58
X50.52Y-21.52
X51.69Y-38.42
X52.07Y-59.38
X52.647Y-21.92
X52.72Y-43.34
X53.316Y-22.88
X53.43Y-56.39
X55.2Y-53.77
X56.32Y-35.8
X56.401Y-53.115
X56.811Y-38.219
X58.01Y-64.2
X58.227Y-37.38
X58.66Y-29.79
X59.95Y-48.98
X61.41Y-36.08
X62.61Y-66.12
X63.345Y-30.925
X64.08Y-32.254
X64.86Y-37.579
X65.426Y-55.955
X65.75Y-82.73
X66.68Y-69.66
X67.28Y-37.82
X67.353Y-84.223
X67.74Y-53.96
X69.836Y-26.967
X71.13Y-56.818
X71.28Y-58.56
X71.42Y-41.87
X72.07Y-82.774
X73.66Y-40.51
X74.405Y-94.565
X74.72Y-42.46
X75.66Y-69.21
X75.75Y-35.2
X75.96Y-77.17
X76.061Y-58.165
X76.17Y-84.135
X77.062Y-23.32
X77.74Y-53.25
X79.64Y-21.21
X79.691Y-40.687
X79.87Y-70.73
X80.743Y-24.857
X81.166Y-86.718
X81.403Y-41.907
X81.433Y-59.746
X81.696Y-98.558
X83.715Y-39.032
X83.78Y-82.74
X84.1Y-57.2
X85.59Y-41.38
X85.981Y-61.397
X86.39Y-93.42
X86.65Y-46.76
X87.22Y-95.82
X87.581Y-84.493
X87.7Y-33.18
X88.101Y-46.595
X89.07Y-62.5
X89.5Y-45.17
X90.02Y-41.88
X90.09Y-63.07
X90.214Y-82.806
X91.256Y-63.039
X91.58Y-55.25
X91.61Y-36.15
X92.75Y-39.19
X92.82Y-56.86
X93.479Y-85.231
X94.38Y-47.92
X95.177Y-28.868
X96.903Y-92.944
X97.575Y-45.405
X98.786Y-72.305
X99.399Y-82.806
X99.759Y-89.465
X99.831Y-81.277
X99.89Y-44.01
X100.11Y-61.67
X100.262Y-87.691
X104.08Y-99.05
X105.61Y-87.33
X113.93Y-95.09
T2
X22.688Y-82.785
X22.688Y-98.02
X23.987Y-84.182
X23.987Y-99.417
X25.228Y-82.785
X25.228Y-98.02
X26.527Y-84.182
X26.527Y-99.417
X27.768Y-82.785
X27.768Y-98.02
X29.067Y-84.182
X29.067Y-99.417
X30.308Y-82.785
X30.308Y-98.02
X31.607Y-84.182
X31.607Y-99.417
X32.848Y-82.785
X32.848Y-98.02
X34.147Y-84.182
X34.147Y-99.417
X35.388Y-82.785
X35.388Y-98.02
X36.687Y-84.182
X36.687Y-99.417
X37.928Y-82.785
X37.928Y-98.02
X39.227Y-84.182
X39.227Y-99.417
T3
G00X105.704Y-78.946
M15
G01X105.583Y-79.431
M16
G05
G00X106.671Y-75.065
M15
G01X106.55Y-75.55
M16
G05
G00X107.039Y-80.825
M15
G01X106.918Y-81.31
M16
G05
G00X107.397Y-72.154
M15
G01X107.276Y-72.639
M16
G05
G00X109.416Y-81.417
M15
G01X109.295Y-81.903
M16
G05
G00X111.477Y-80.385
M15
G01X111.356Y-80.871
M16
G05
G00X112.444Y-76.504
M15
G01X112.324Y-76.989
M16
G05
G00X113.17Y-73.593
M15
G01X113.049Y-74.078
M16
G05
T0
M30
