M48
; DRILL file {KiCad (6.0.6)} date 2022年11月03日 11時36分57秒
; FORMAT={-:-/ absolute / metric / decimal}
; #@! TF.CreationDate,2022-11-03T11:36:57+09:00
; #@! TF.GenerationSoftware,Kicad,Pcbnew,(6.0.6)
; #@! TF.FileFunction,NonPlated,1,2,NPTH
FMAT,2
METRIC
; #@! TA.AperFunction,NonPlated,NPTH,ComponentDrill
T1C1.200
; #@! TA.AperFunction,NonPlated,NPTH,ComponentDrill
T2C1.700
; #@! TA.AperFunction,NonPlated,NPTH,ComponentDrill
T3C1.900
; #@! TA.AperFunction,NonPlated,NPTH,ComponentDrill
T4C3.000
; #@! TA.AperFunction,NonPlated,NPTH,ComponentDrill
T5C4.000
; #@! TA.AperFunction,NonPlated,NPTH,ComponentDrill
T6C4.500
%
G90
G05
T1
X108.116Y-77.95
X109.81Y-71.158
X109.814Y-78.373
X111.508Y-71.581
T2
X23.4Y-35.79
X23.4Y-53.29
X23.41Y-70.79
X33.56Y-35.79
X33.56Y-53.29
X33.57Y-70.79
X39.93Y-31.44
X39.96Y-48.9
X39.96Y-66.39
X50.09Y-31.44
X50.12Y-48.9
X50.12Y-66.39
X56.41Y-45.39
X56.44Y-62.91
X56.5Y-27.96
X66.57Y-45.39
X66.6Y-62.91
X66.66Y-27.96
X67.111Y-90.921
X71.96Y-31.92
X72.95Y-67.3
X72.96Y-49.8
X77.271Y-90.921
X82.12Y-31.92
X83.11Y-67.3
X83.12Y-49.8
X84.422Y-91.597
X89.44Y-70.78
X89.45Y-53.29
X89.46Y-35.78
X94.526Y-92.659
X99.6Y-70.78
X99.61Y-53.29
X99.62Y-35.78
X101.761Y-94.851
X111.619Y-97.309
T3
X22.98Y-35.79
X22.98Y-53.29
X22.99Y-70.79
X33.98Y-35.79
X33.98Y-53.29
X33.99Y-70.79
X39.51Y-31.44
X39.54Y-48.9
X39.54Y-66.39
X50.51Y-31.44
X50.54Y-48.9
X50.54Y-66.39
X55.99Y-45.39
X56.02Y-62.91
X56.08Y-27.96
X66.691Y-90.921
X66.99Y-45.39
X67.02Y-62.91
X67.08Y-27.96
X71.54Y-31.92
X72.53Y-67.3
X72.54Y-49.8
X77.691Y-90.921
X82.54Y-31.92
X83.53Y-67.3
X83.54Y-49.8
X84.004Y-91.553
X89.02Y-70.78
X89.03Y-53.29
X89.04Y-35.78
X94.944Y-92.703
X100.02Y-70.78
X100.03Y-53.29
X100.04Y-35.78
X101.354Y-94.749
X112.027Y-97.41
T4
X23.48Y-39.49
X23.48Y-56.99
X23.49Y-74.49
X24.67Y-33.25
X24.67Y-50.75
X24.68Y-68.25
X25.94Y-30.71
X25.94Y-48.21
X25.95Y-65.71
X28.48Y-41.69
X28.48Y-59.19
X28.49Y-76.69
X31.02Y-30.71
X31.02Y-48.21
X31.03Y-65.71
X32.29Y-33.25
X32.29Y-50.75
X32.3Y-68.25
X33.48Y-39.49
X33.48Y-56.99
X33.49Y-74.49
X40.01Y-35.14
X40.04Y-52.6
X40.04Y-70.09
X41.2Y-28.9
X41.23Y-46.36
X41.23Y-63.85
X42.47Y-26.36
X42.5Y-43.82
X42.5Y-61.31
X45.01Y-37.34
X45.04Y-54.8
X45.04Y-72.29
X47.55Y-26.36
X47.58Y-43.82
X47.58Y-61.31
X48.82Y-28.9
X48.85Y-46.36
X48.85Y-63.85
X50.01Y-35.14
X50.04Y-52.6
X50.04Y-70.09
X56.49Y-49.09
X56.52Y-66.61
X56.58Y-31.66
X57.68Y-42.85
X57.71Y-60.37
X57.77Y-25.42
X58.95Y-40.31
X58.98Y-57.83
X59.04Y-22.88
X61.49Y-51.29
X61.52Y-68.81
X61.58Y-33.86
X64.03Y-40.31
X64.06Y-57.83
X64.12Y-22.88
X65.3Y-42.85
X65.33Y-60.37
X65.39Y-25.42
X66.49Y-49.09
X66.52Y-66.61
X66.58Y-31.66
X67.191Y-94.621
X68.381Y-88.381
X69.651Y-85.841
X72.04Y-35.62
X72.191Y-96.821
X73.03Y-71.0
X73.04Y-53.5
X73.23Y-29.38
X74.22Y-64.76
X74.23Y-47.26
X74.5Y-26.84
X74.731Y-85.841
X75.49Y-62.22
X75.5Y-44.72
X76.001Y-88.381
X77.04Y-37.82
X77.191Y-94.621
X78.03Y-73.2
X78.04Y-55.7
X79.58Y-26.84
X80.57Y-62.22
X80.58Y-44.72
X80.85Y-29.38
X81.84Y-64.76
X81.85Y-47.26
X82.04Y-35.62
X83.03Y-71.0
X83.04Y-53.5
X84.115Y-95.285
X85.95Y-89.203
X87.479Y-86.81
X88.857Y-97.995
X89.52Y-74.48
X89.53Y-56.99
X89.54Y-39.48
X90.71Y-68.24
X90.72Y-50.75
X90.73Y-33.24
X91.98Y-65.7
X91.99Y-48.21
X92.0Y-30.7
X92.531Y-87.341
X93.529Y-90.0
X94.06Y-96.33
X94.52Y-76.68
X94.53Y-59.19
X94.54Y-41.68
X97.06Y-65.7
X97.07Y-48.21
X97.08Y-30.7
X98.33Y-68.24
X98.34Y-50.75
X98.35Y-33.24
X99.52Y-74.48
X99.53Y-56.99
X99.54Y-39.48
X100.944Y-98.46
X103.608Y-92.694
X105.263Y-101.805
X105.455Y-90.536
X110.384Y-91.765
X110.647Y-100.88
X111.002Y-94.537
T5
X28.48Y-35.79
X28.48Y-53.29
X28.49Y-70.79
X45.01Y-31.44
X45.04Y-48.9
X45.04Y-66.39
X61.49Y-45.39
X61.52Y-62.91
X61.58Y-27.96
X72.191Y-90.921
X77.04Y-31.92
X78.03Y-67.3
X78.04Y-49.8
X89.474Y-92.128
X94.52Y-70.78
X94.53Y-53.29
X94.54Y-35.78
X106.69Y-96.08
T6
X28.52Y-25.76
X51.5Y-96.76
X94.5Y-25.74
X109.13Y-86.36
T0
M30
