%TF.GenerationSoftware,KiCad,Pcbnew,(6.0.9)*%
%TF.CreationDate,2023-01-03T16:32:55+09:00*%
%TF.ProjectId,split-mini,73706c69-742d-46d6-996e-692e6b696361,rev?*%
%TF.SameCoordinates,Original*%
%TF.FileFunction,Legend,Top*%
%TF.FilePolarity,Positive*%
%FSLAX46Y46*%
G04 Gerber Fmt 4.6, Leading zero omitted, Abs format (unit mm)*
G04 Created by KiCad (PCBNEW (6.0.9)) date 2023-01-03 16:32:55*
%MOMM*%
%LPD*%
G01*
G04 APERTURE LIST*
G04 Aperture macros list*
%AMRoundRect*
0 Rectangle with rounded corners*
0 $1 Rounding radius*
0 $2 $3 $4 $5 $6 $7 $8 $9 X,Y pos of 4 corners*
0 Add a 4 corners polygon primitive as box body*
4,1,4,$2,$3,$4,$5,$6,$7,$8,$9,$2,$3,0*
0 Add four circle primitives for the rounded corners*
1,1,$1+$1,$2,$3*
1,1,$1+$1,$4,$5*
1,1,$1+$1,$6,$7*
1,1,$1+$1,$8,$9*
0 Add four rect primitives between the rounded corners*
20,1,$1+$1,$2,$3,$4,$5,0*
20,1,$1+$1,$4,$5,$6,$7,0*
20,1,$1+$1,$6,$7,$8,$9,0*
20,1,$1+$1,$8,$9,$2,$3,0*%
G04 Aperture macros list end*
%TA.AperFunction,Profile*%
%ADD10C,0.100000*%
%TD*%
%ADD11C,0.300000*%
%ADD12C,0.150000*%
%ADD13C,0.125000*%
%ADD14C,2.000000*%
%ADD15C,1.200000*%
%ADD16O,1.700000X2.500000*%
%ADD17C,1.524000*%
%ADD18C,0.350000*%
%ADD19O,1.000000X1.500000*%
%ADD20R,0.950000X1.300000*%
%ADD21C,1.701800*%
%ADD22C,3.987800*%
%ADD23C,3.000000*%
%ADD24RoundRect,0.200000X-1.075000X-1.050000X1.075000X-1.050000X1.075000X1.050000X-1.075000X1.050000X0*%
%ADD25C,5.000000*%
%ADD26RoundRect,0.200000X-1.240999X-0.847376X0.876338X-1.220720X1.240999X0.847376X-0.876338X1.220720X0*%
G04 APERTURE END LIST*
D10*
X19950000Y-15475000D02*
X19950000Y-111725000D01*
X119667171Y-97563496D02*
X103950000Y-94792135D01*
X66450000Y-22475000D02*
X55950000Y-22475000D01*
X116541504Y-115290036D02*
X119667171Y-97563496D01*
X55950000Y-15475000D02*
X19950000Y-15475000D01*
X55950000Y-15475000D02*
X55950000Y-22475000D01*
X66450000Y-36475000D02*
X103950000Y-36475000D01*
X96323180Y-111725000D02*
X116541504Y-115290036D01*
X103950000Y-94792135D02*
X103950000Y-36475000D01*
X19950000Y-111725000D02*
X96323180Y-111725000D01*
X66450000Y-22475000D02*
X66450000Y-36475000D01*
D11*
X32021428Y-38985714D02*
X32135714Y-39042857D01*
X32364285Y-39042857D01*
X32478571Y-38985714D01*
X32535714Y-38871428D01*
X32535714Y-38814285D01*
X32478571Y-38700000D01*
X32364285Y-38642857D01*
X32192857Y-38642857D01*
X32078571Y-38585714D01*
X32021428Y-38471428D01*
X32021428Y-38414285D01*
X32078571Y-38300000D01*
X32192857Y-38242857D01*
X32364285Y-38242857D01*
X32478571Y-38300000D01*
X33050000Y-38242857D02*
X33050000Y-39442857D01*
X33050000Y-38300000D02*
X33164285Y-38242857D01*
X33392857Y-38242857D01*
X33507142Y-38300000D01*
X33564285Y-38357142D01*
X33621428Y-38471428D01*
X33621428Y-38814285D01*
X33564285Y-38928571D01*
X33507142Y-38985714D01*
X33392857Y-39042857D01*
X33164285Y-39042857D01*
X33050000Y-38985714D01*
X34307142Y-39042857D02*
X34192857Y-38985714D01*
X34135714Y-38871428D01*
X34135714Y-37842857D01*
X34764285Y-39042857D02*
X34764285Y-38242857D01*
X34764285Y-37842857D02*
X34707142Y-37900000D01*
X34764285Y-37957142D01*
X34821428Y-37900000D01*
X34764285Y-37842857D01*
X34764285Y-37957142D01*
X35164285Y-38242857D02*
X35621428Y-38242857D01*
X35335714Y-37842857D02*
X35335714Y-38871428D01*
X35392857Y-38985714D01*
X35507142Y-39042857D01*
X35621428Y-39042857D01*
X36935714Y-39042857D02*
X36935714Y-38242857D01*
X36935714Y-38357142D02*
X36992857Y-38300000D01*
X37107142Y-38242857D01*
X37278571Y-38242857D01*
X37392857Y-38300000D01*
X37450000Y-38414285D01*
X37450000Y-39042857D01*
X37450000Y-38414285D02*
X37507142Y-38300000D01*
X37621428Y-38242857D01*
X37792857Y-38242857D01*
X37907142Y-38300000D01*
X37964285Y-38414285D01*
X37964285Y-39042857D01*
X38535714Y-39042857D02*
X38535714Y-38242857D01*
X38535714Y-37842857D02*
X38478571Y-37900000D01*
X38535714Y-37957142D01*
X38592857Y-37900000D01*
X38535714Y-37842857D01*
X38535714Y-37957142D01*
X39107142Y-38242857D02*
X39107142Y-39042857D01*
X39107142Y-38357142D02*
X39164285Y-38300000D01*
X39278571Y-38242857D01*
X39450000Y-38242857D01*
X39564285Y-38300000D01*
X39621428Y-38414285D01*
X39621428Y-39042857D01*
X40192857Y-39042857D02*
X40192857Y-38242857D01*
X40192857Y-37842857D02*
X40135714Y-37900000D01*
X40192857Y-37957142D01*
X40250000Y-37900000D01*
X40192857Y-37842857D01*
X40192857Y-37957142D01*
X41678571Y-39042857D02*
X41678571Y-38242857D01*
X41678571Y-38471428D02*
X41735714Y-38357142D01*
X41792857Y-38300000D01*
X41907142Y-38242857D01*
X42021428Y-38242857D01*
X42878571Y-38985714D02*
X42764285Y-39042857D01*
X42535714Y-39042857D01*
X42421428Y-38985714D01*
X42364285Y-38871428D01*
X42364285Y-38414285D01*
X42421428Y-38300000D01*
X42535714Y-38242857D01*
X42764285Y-38242857D01*
X42878571Y-38300000D01*
X42935714Y-38414285D01*
X42935714Y-38528571D01*
X42364285Y-38642857D01*
X43335714Y-38242857D02*
X43621428Y-39042857D01*
X43907142Y-38242857D01*
X44592857Y-37842857D02*
X44707142Y-37842857D01*
X44821428Y-37900000D01*
X44878571Y-37957142D01*
X44935714Y-38071428D01*
X44992857Y-38300000D01*
X44992857Y-38585714D01*
X44935714Y-38814285D01*
X44878571Y-38928571D01*
X44821428Y-38985714D01*
X44707142Y-39042857D01*
X44592857Y-39042857D01*
X44478571Y-38985714D01*
X44421428Y-38928571D01*
X44364285Y-38814285D01*
X44307142Y-38585714D01*
X44307142Y-38300000D01*
X44364285Y-38071428D01*
X44421428Y-37957142D01*
X44478571Y-37900000D01*
X44592857Y-37842857D01*
X45507142Y-38928571D02*
X45564285Y-38985714D01*
X45507142Y-39042857D01*
X45450000Y-38985714D01*
X45507142Y-38928571D01*
X45507142Y-39042857D01*
X46707142Y-39042857D02*
X46021428Y-39042857D01*
X46364285Y-39042857D02*
X46364285Y-37842857D01*
X46250000Y-38014285D01*
X46135714Y-38128571D01*
X46021428Y-38185714D01*
X47164285Y-37957142D02*
X47221428Y-37900000D01*
X47335714Y-37842857D01*
X47621428Y-37842857D01*
X47735714Y-37900000D01*
X47792857Y-37957142D01*
X47850000Y-38071428D01*
X47850000Y-38185714D01*
X47792857Y-38357142D01*
X47107142Y-39042857D01*
X47850000Y-39042857D01*
X49278571Y-38928571D02*
X49335714Y-38985714D01*
X49278571Y-39042857D01*
X49221428Y-38985714D01*
X49278571Y-38928571D01*
X49278571Y-39042857D01*
X49278571Y-38300000D02*
X49335714Y-38357142D01*
X49278571Y-38414285D01*
X49221428Y-38357142D01*
X49278571Y-38300000D01*
X49278571Y-38414285D01*
X51278571Y-39042857D02*
X51278571Y-37842857D01*
X51278571Y-38985714D02*
X51164285Y-39042857D01*
X50935714Y-39042857D01*
X50821428Y-38985714D01*
X50764285Y-38928571D01*
X50707142Y-38814285D01*
X50707142Y-38471428D01*
X50764285Y-38357142D01*
X50821428Y-38300000D01*
X50935714Y-38242857D01*
X51164285Y-38242857D01*
X51278571Y-38300000D01*
X52307142Y-38985714D02*
X52192857Y-39042857D01*
X51964285Y-39042857D01*
X51850000Y-38985714D01*
X51792857Y-38871428D01*
X51792857Y-38414285D01*
X51850000Y-38300000D01*
X51964285Y-38242857D01*
X52192857Y-38242857D01*
X52307142Y-38300000D01*
X52364285Y-38414285D01*
X52364285Y-38528571D01*
X51792857Y-38642857D01*
X52821428Y-38985714D02*
X52935714Y-39042857D01*
X53164285Y-39042857D01*
X53278571Y-38985714D01*
X53335714Y-38871428D01*
X53335714Y-38814285D01*
X53278571Y-38700000D01*
X53164285Y-38642857D01*
X52992857Y-38642857D01*
X52878571Y-38585714D01*
X52821428Y-38471428D01*
X52821428Y-38414285D01*
X52878571Y-38300000D01*
X52992857Y-38242857D01*
X53164285Y-38242857D01*
X53278571Y-38300000D01*
X53850000Y-39042857D02*
X53850000Y-38242857D01*
X53850000Y-37842857D02*
X53792857Y-37900000D01*
X53850000Y-37957142D01*
X53907142Y-37900000D01*
X53850000Y-37842857D01*
X53850000Y-37957142D01*
X54935714Y-38242857D02*
X54935714Y-39214285D01*
X54878571Y-39328571D01*
X54821428Y-39385714D01*
X54707142Y-39442857D01*
X54535714Y-39442857D01*
X54421428Y-39385714D01*
X54935714Y-38985714D02*
X54821428Y-39042857D01*
X54592857Y-39042857D01*
X54478571Y-38985714D01*
X54421428Y-38928571D01*
X54364285Y-38814285D01*
X54364285Y-38471428D01*
X54421428Y-38357142D01*
X54478571Y-38300000D01*
X54592857Y-38242857D01*
X54821428Y-38242857D01*
X54935714Y-38300000D01*
X55507142Y-38242857D02*
X55507142Y-39042857D01*
X55507142Y-38357142D02*
X55564285Y-38300000D01*
X55678571Y-38242857D01*
X55850000Y-38242857D01*
X55964285Y-38300000D01*
X56021428Y-38414285D01*
X56021428Y-39042857D01*
X57050000Y-38985714D02*
X56935714Y-39042857D01*
X56707142Y-39042857D01*
X56592857Y-38985714D01*
X56535714Y-38871428D01*
X56535714Y-38414285D01*
X56592857Y-38300000D01*
X56707142Y-38242857D01*
X56935714Y-38242857D01*
X57050000Y-38300000D01*
X57107142Y-38414285D01*
X57107142Y-38528571D01*
X56535714Y-38642857D01*
X58135714Y-39042857D02*
X58135714Y-37842857D01*
X58135714Y-38985714D02*
X58021428Y-39042857D01*
X57792857Y-39042857D01*
X57678571Y-38985714D01*
X57621428Y-38928571D01*
X57564285Y-38814285D01*
X57564285Y-38471428D01*
X57621428Y-38357142D01*
X57678571Y-38300000D01*
X57792857Y-38242857D01*
X58021428Y-38242857D01*
X58135714Y-38300000D01*
X59621428Y-39042857D02*
X59621428Y-37842857D01*
X59621428Y-38300000D02*
X59735714Y-38242857D01*
X59964285Y-38242857D01*
X60078571Y-38300000D01*
X60135714Y-38357142D01*
X60192857Y-38471428D01*
X60192857Y-38814285D01*
X60135714Y-38928571D01*
X60078571Y-38985714D01*
X59964285Y-39042857D01*
X59735714Y-39042857D01*
X59621428Y-38985714D01*
X60592857Y-38242857D02*
X60878571Y-39042857D01*
X61164285Y-38242857D02*
X60878571Y-39042857D01*
X60764285Y-39328571D01*
X60707142Y-39385714D01*
X60592857Y-39442857D01*
X62364285Y-38242857D02*
X62821428Y-38242857D01*
X62535714Y-37842857D02*
X62535714Y-38871428D01*
X62592857Y-38985714D01*
X62707142Y-39042857D01*
X62821428Y-39042857D01*
X63735714Y-39042857D02*
X63735714Y-38414285D01*
X63678571Y-38300000D01*
X63564285Y-38242857D01*
X63335714Y-38242857D01*
X63221428Y-38300000D01*
X63735714Y-38985714D02*
X63621428Y-39042857D01*
X63335714Y-39042857D01*
X63221428Y-38985714D01*
X63164285Y-38871428D01*
X63164285Y-38757142D01*
X63221428Y-38642857D01*
X63335714Y-38585714D01*
X63621428Y-38585714D01*
X63735714Y-38528571D01*
X64307142Y-39042857D02*
X64307142Y-38242857D01*
X64307142Y-38357142D02*
X64364285Y-38300000D01*
X64478571Y-38242857D01*
X64650000Y-38242857D01*
X64764285Y-38300000D01*
X64821428Y-38414285D01*
X64821428Y-39042857D01*
X64821428Y-38414285D02*
X64878571Y-38300000D01*
X64992857Y-38242857D01*
X65164285Y-38242857D01*
X65278571Y-38300000D01*
X65335714Y-38414285D01*
X65335714Y-39042857D01*
X66421428Y-39042857D02*
X66421428Y-38414285D01*
X66364285Y-38300000D01*
X66250000Y-38242857D01*
X66021428Y-38242857D01*
X65907142Y-38300000D01*
X66421428Y-38985714D02*
X66307142Y-39042857D01*
X66021428Y-39042857D01*
X65907142Y-38985714D01*
X65850000Y-38871428D01*
X65850000Y-38757142D01*
X65907142Y-38642857D01*
X66021428Y-38585714D01*
X66307142Y-38585714D01*
X66421428Y-38528571D01*
X67507142Y-38242857D02*
X67507142Y-39214285D01*
X67450000Y-39328571D01*
X67392857Y-39385714D01*
X67278571Y-39442857D01*
X67107142Y-39442857D01*
X66992857Y-39385714D01*
X67507142Y-38985714D02*
X67392857Y-39042857D01*
X67164285Y-39042857D01*
X67050000Y-38985714D01*
X66992857Y-38928571D01*
X66935714Y-38814285D01*
X66935714Y-38471428D01*
X66992857Y-38357142D01*
X67050000Y-38300000D01*
X67164285Y-38242857D01*
X67392857Y-38242857D01*
X67507142Y-38300000D01*
X68250000Y-39042857D02*
X68135714Y-38985714D01*
X68078571Y-38928571D01*
X68021428Y-38814285D01*
X68021428Y-38471428D01*
X68078571Y-38357142D01*
X68135714Y-38300000D01*
X68250000Y-38242857D01*
X68421428Y-38242857D01*
X68535714Y-38300000D01*
X68592857Y-38357142D01*
X68650000Y-38471428D01*
X68650000Y-38814285D01*
X68592857Y-38928571D01*
X68535714Y-38985714D01*
X68421428Y-39042857D01*
X68250000Y-39042857D01*
X69050000Y-37842857D02*
X69792857Y-37842857D01*
X69392857Y-38300000D01*
X69564285Y-38300000D01*
X69678571Y-38357142D01*
X69735714Y-38414285D01*
X69792857Y-38528571D01*
X69792857Y-38814285D01*
X69735714Y-38928571D01*
X69678571Y-38985714D01*
X69564285Y-39042857D01*
X69221428Y-39042857D01*
X69107142Y-38985714D01*
X69050000Y-38928571D01*
X70250000Y-37957142D02*
X70307142Y-37900000D01*
X70421428Y-37842857D01*
X70707142Y-37842857D01*
X70821428Y-37900000D01*
X70878571Y-37957142D01*
X70935714Y-38071428D01*
X70935714Y-38185714D01*
X70878571Y-38357142D01*
X70192857Y-39042857D01*
X70935714Y-39042857D01*
X71964285Y-38242857D02*
X71964285Y-39042857D01*
X71678571Y-37785714D02*
X71392857Y-38642857D01*
X72135714Y-38642857D01*
D12*
%TO.C,H1*%
X78488095Y-40377380D02*
X78488095Y-39377380D01*
X78488095Y-39853571D02*
X79059523Y-39853571D01*
X79059523Y-40377380D02*
X79059523Y-39377380D01*
X80059523Y-40377380D02*
X79488095Y-40377380D01*
X79773809Y-40377380D02*
X79773809Y-39377380D01*
X79678571Y-39520238D01*
X79583333Y-39615476D01*
X79488095Y-39663095D01*
X83183333Y-39536904D02*
X83450000Y-40336904D01*
X83716666Y-39536904D01*
X84440476Y-40260714D02*
X84402380Y-40298809D01*
X84288095Y-40336904D01*
X84211904Y-40336904D01*
X84097619Y-40298809D01*
X84021428Y-40222619D01*
X83983333Y-40146428D01*
X83945238Y-39994047D01*
X83945238Y-39879761D01*
X83983333Y-39727380D01*
X84021428Y-39651190D01*
X84097619Y-39575000D01*
X84211904Y-39536904D01*
X84288095Y-39536904D01*
X84402380Y-39575000D01*
X84440476Y-39613095D01*
X85240476Y-40260714D02*
X85202380Y-40298809D01*
X85088095Y-40336904D01*
X85011904Y-40336904D01*
X84897619Y-40298809D01*
X84821428Y-40222619D01*
X84783333Y-40146428D01*
X84745238Y-39994047D01*
X84745238Y-39879761D01*
X84783333Y-39727380D01*
X84821428Y-39651190D01*
X84897619Y-39575000D01*
X85011904Y-39536904D01*
X85088095Y-39536904D01*
X85202380Y-39575000D01*
X85240476Y-39613095D01*
X73490476Y-39625000D02*
X73414285Y-39586904D01*
X73300000Y-39586904D01*
X73185714Y-39625000D01*
X73109523Y-39701190D01*
X73071428Y-39777380D01*
X73033333Y-39929761D01*
X73033333Y-40044047D01*
X73071428Y-40196428D01*
X73109523Y-40272619D01*
X73185714Y-40348809D01*
X73300000Y-40386904D01*
X73376190Y-40386904D01*
X73490476Y-40348809D01*
X73528571Y-40310714D01*
X73528571Y-40044047D01*
X73376190Y-40044047D01*
X73871428Y-40386904D02*
X73871428Y-39586904D01*
X74328571Y-40386904D01*
X74328571Y-39586904D01*
X74709523Y-40386904D02*
X74709523Y-39586904D01*
X74900000Y-39586904D01*
X75014285Y-39625000D01*
X75090476Y-39701190D01*
X75128571Y-39777380D01*
X75166666Y-39929761D01*
X75166666Y-40044047D01*
X75128571Y-40196428D01*
X75090476Y-40272619D01*
X75014285Y-40348809D01*
X74900000Y-40386904D01*
X74709523Y-40386904D01*
%TO.C,SW19*%
X22502380Y-42402380D02*
X22026190Y-42735714D01*
X22502380Y-42973809D02*
X21502380Y-42973809D01*
X21502380Y-42592857D01*
X21550000Y-42497619D01*
X21597619Y-42450000D01*
X21692857Y-42402380D01*
X21835714Y-42402380D01*
X21930952Y-42450000D01*
X21978571Y-42497619D01*
X22026190Y-42592857D01*
X22026190Y-42973809D01*
X21978571Y-41973809D02*
X21978571Y-41640476D01*
X22502380Y-41497619D02*
X22502380Y-41973809D01*
X21502380Y-41973809D01*
X21502380Y-41497619D01*
X22454761Y-41116666D02*
X22502380Y-40973809D01*
X22502380Y-40735714D01*
X22454761Y-40640476D01*
X22407142Y-40592857D01*
X22311904Y-40545238D01*
X22216666Y-40545238D01*
X22121428Y-40592857D01*
X22073809Y-40640476D01*
X22026190Y-40735714D01*
X21978571Y-40926190D01*
X21930952Y-41021428D01*
X21883333Y-41069047D01*
X21788095Y-41116666D01*
X21692857Y-41116666D01*
X21597619Y-41069047D01*
X21550000Y-41021428D01*
X21502380Y-40926190D01*
X21502380Y-40688095D01*
X21550000Y-40545238D01*
X21978571Y-40116666D02*
X21978571Y-39783333D01*
X22502380Y-39640476D02*
X22502380Y-40116666D01*
X21502380Y-40116666D01*
X21502380Y-39640476D01*
X21502380Y-39354761D02*
X21502380Y-38783333D01*
X22502380Y-39069047D02*
X21502380Y-39069047D01*
D13*
%TO.C,U1*%
X47238357Y-35797619D02*
X47274071Y-35821428D01*
X47309785Y-35892857D01*
X47309785Y-35940476D01*
X47274071Y-36011904D01*
X47202642Y-36059523D01*
X47131214Y-36083333D01*
X46988357Y-36107142D01*
X46881214Y-36107142D01*
X46738357Y-36083333D01*
X46666928Y-36059523D01*
X46595500Y-36011904D01*
X46559785Y-35940476D01*
X46559785Y-35892857D01*
X46595500Y-35821428D01*
X46631214Y-35797619D01*
X46559785Y-35488095D02*
X46559785Y-35392857D01*
X46595500Y-35345238D01*
X46666928Y-35297619D01*
X46809785Y-35273809D01*
X47059785Y-35273809D01*
X47202642Y-35297619D01*
X47274071Y-35345238D01*
X47309785Y-35392857D01*
X47309785Y-35488095D01*
X47274071Y-35535714D01*
X47202642Y-35583333D01*
X47059785Y-35607142D01*
X46809785Y-35607142D01*
X46666928Y-35583333D01*
X46595500Y-35535714D01*
X46559785Y-35488095D01*
X47309785Y-34821428D02*
X47309785Y-35059523D01*
X46559785Y-35059523D01*
X46559785Y-34416666D02*
X46559785Y-34654761D01*
X46916928Y-34678571D01*
X46881214Y-34654761D01*
X46845500Y-34607142D01*
X46845500Y-34488095D01*
X46881214Y-34440476D01*
X46916928Y-34416666D01*
X46988357Y-34392857D01*
X47166928Y-34392857D01*
X47238357Y-34416666D01*
X47274071Y-34440476D01*
X47309785Y-34488095D01*
X47309785Y-34607142D01*
X47274071Y-34654761D01*
X47238357Y-34678571D01*
X42142857Y-35847619D02*
X42178571Y-35871428D01*
X42214285Y-35942857D01*
X42214285Y-35990476D01*
X42178571Y-36061904D01*
X42107142Y-36109523D01*
X42035714Y-36133333D01*
X41892857Y-36157142D01*
X41785714Y-36157142D01*
X41642857Y-36133333D01*
X41571428Y-36109523D01*
X41500000Y-36061904D01*
X41464285Y-35990476D01*
X41464285Y-35942857D01*
X41500000Y-35871428D01*
X41535714Y-35847619D01*
X41464285Y-35538095D02*
X41464285Y-35442857D01*
X41500000Y-35395238D01*
X41571428Y-35347619D01*
X41714285Y-35323809D01*
X41964285Y-35323809D01*
X42107142Y-35347619D01*
X42178571Y-35395238D01*
X42214285Y-35442857D01*
X42214285Y-35538095D01*
X42178571Y-35585714D01*
X42107142Y-35633333D01*
X41964285Y-35657142D01*
X41714285Y-35657142D01*
X41571428Y-35633333D01*
X41500000Y-35585714D01*
X41464285Y-35538095D01*
X42214285Y-34871428D02*
X42214285Y-35109523D01*
X41464285Y-35109523D01*
X41464285Y-34752380D02*
X41464285Y-34442857D01*
X41750000Y-34609523D01*
X41750000Y-34538095D01*
X41785714Y-34490476D01*
X41821428Y-34466666D01*
X41892857Y-34442857D01*
X42071428Y-34442857D01*
X42142857Y-34466666D01*
X42178571Y-34490476D01*
X42214285Y-34538095D01*
X42214285Y-34680952D01*
X42178571Y-34728571D01*
X42142857Y-34752380D01*
X29529785Y-35289309D02*
X29172642Y-35455976D01*
X29529785Y-35575023D02*
X28779785Y-35575023D01*
X28779785Y-35384547D01*
X28815500Y-35336928D01*
X28851214Y-35313119D01*
X28922642Y-35289309D01*
X29029785Y-35289309D01*
X29101214Y-35313119D01*
X29136928Y-35336928D01*
X29172642Y-35384547D01*
X29172642Y-35575023D01*
X29494071Y-35098833D02*
X29529785Y-35027404D01*
X29529785Y-34908357D01*
X29494071Y-34860738D01*
X29458357Y-34836928D01*
X29386928Y-34813119D01*
X29315500Y-34813119D01*
X29244071Y-34836928D01*
X29208357Y-34860738D01*
X29172642Y-34908357D01*
X29136928Y-35003595D01*
X29101214Y-35051214D01*
X29065500Y-35075023D01*
X28994071Y-35098833D01*
X28922642Y-35098833D01*
X28851214Y-35075023D01*
X28815500Y-35051214D01*
X28779785Y-35003595D01*
X28779785Y-34884547D01*
X28815500Y-34813119D01*
X28779785Y-34670261D02*
X28779785Y-34384547D01*
X29529785Y-34527404D02*
X28779785Y-34527404D01*
X51996928Y-20302380D02*
X52032642Y-20230952D01*
X52068357Y-20207142D01*
X52139785Y-20183333D01*
X52246928Y-20183333D01*
X52318357Y-20207142D01*
X52354071Y-20230952D01*
X52389785Y-20278571D01*
X52389785Y-20469047D01*
X51639785Y-20469047D01*
X51639785Y-20302380D01*
X51675500Y-20254761D01*
X51711214Y-20230952D01*
X51782642Y-20207142D01*
X51854071Y-20207142D01*
X51925500Y-20230952D01*
X51961214Y-20254761D01*
X51996928Y-20302380D01*
X51996928Y-20469047D01*
X51639785Y-19730952D02*
X51639785Y-19969047D01*
X51996928Y-19992857D01*
X51961214Y-19969047D01*
X51925500Y-19921428D01*
X51925500Y-19802380D01*
X51961214Y-19754761D01*
X51996928Y-19730952D01*
X52068357Y-19707142D01*
X52246928Y-19707142D01*
X52318357Y-19730952D01*
X52354071Y-19754761D01*
X52389785Y-19802380D01*
X52389785Y-19921428D01*
X52354071Y-19969047D01*
X52318357Y-19992857D01*
X24386285Y-20121428D02*
X24386285Y-20359523D01*
X23636285Y-20359523D01*
X23993428Y-19954761D02*
X23993428Y-19788095D01*
X24386285Y-19716666D02*
X24386285Y-19954761D01*
X23636285Y-19954761D01*
X23636285Y-19716666D01*
X24386285Y-19502380D02*
X23636285Y-19502380D01*
X23636285Y-19383333D01*
X23672000Y-19311904D01*
X23743428Y-19264285D01*
X23814857Y-19240476D01*
X23957714Y-19216666D01*
X24064857Y-19216666D01*
X24207714Y-19240476D01*
X24279142Y-19264285D01*
X24350571Y-19311904D01*
X24386285Y-19383333D01*
X24386285Y-19502380D01*
X39554857Y-35747619D02*
X39590571Y-35771428D01*
X39626285Y-35842857D01*
X39626285Y-35890476D01*
X39590571Y-35961904D01*
X39519142Y-36009523D01*
X39447714Y-36033333D01*
X39304857Y-36057142D01*
X39197714Y-36057142D01*
X39054857Y-36033333D01*
X38983428Y-36009523D01*
X38912000Y-35961904D01*
X38876285Y-35890476D01*
X38876285Y-35842857D01*
X38912000Y-35771428D01*
X38947714Y-35747619D01*
X38876285Y-35438095D02*
X38876285Y-35342857D01*
X38912000Y-35295238D01*
X38983428Y-35247619D01*
X39126285Y-35223809D01*
X39376285Y-35223809D01*
X39519142Y-35247619D01*
X39590571Y-35295238D01*
X39626285Y-35342857D01*
X39626285Y-35438095D01*
X39590571Y-35485714D01*
X39519142Y-35533333D01*
X39376285Y-35557142D01*
X39126285Y-35557142D01*
X38983428Y-35533333D01*
X38912000Y-35485714D01*
X38876285Y-35438095D01*
X39626285Y-34771428D02*
X39626285Y-35009523D01*
X38876285Y-35009523D01*
X38947714Y-34628571D02*
X38912000Y-34604761D01*
X38876285Y-34557142D01*
X38876285Y-34438095D01*
X38912000Y-34390476D01*
X38947714Y-34366666D01*
X39019142Y-34342857D01*
X39090571Y-34342857D01*
X39197714Y-34366666D01*
X39626285Y-34652380D01*
X39626285Y-34342857D01*
X44714285Y-20730952D02*
X44357142Y-20897619D01*
X44714285Y-21016666D02*
X43964285Y-21016666D01*
X43964285Y-20826190D01*
X44000000Y-20778571D01*
X44035714Y-20754761D01*
X44107142Y-20730952D01*
X44214285Y-20730952D01*
X44285714Y-20754761D01*
X44321428Y-20778571D01*
X44357142Y-20826190D01*
X44357142Y-21016666D01*
X43964285Y-20421428D02*
X43964285Y-20326190D01*
X44000000Y-20278571D01*
X44071428Y-20230952D01*
X44214285Y-20207142D01*
X44464285Y-20207142D01*
X44607142Y-20230952D01*
X44678571Y-20278571D01*
X44714285Y-20326190D01*
X44714285Y-20421428D01*
X44678571Y-20469047D01*
X44607142Y-20516666D01*
X44464285Y-20540476D01*
X44214285Y-20540476D01*
X44071428Y-20516666D01*
X44000000Y-20469047D01*
X43964285Y-20421428D01*
X43964285Y-20040476D02*
X44714285Y-19921428D01*
X44178571Y-19826190D01*
X44714285Y-19730952D01*
X43964285Y-19611904D01*
X44035714Y-19445238D02*
X44000000Y-19421428D01*
X43964285Y-19373809D01*
X43964285Y-19254761D01*
X44000000Y-19207142D01*
X44035714Y-19183333D01*
X44107142Y-19159523D01*
X44178571Y-19159523D01*
X44285714Y-19183333D01*
X44714285Y-19469047D01*
X44714285Y-19159523D01*
X39664285Y-20730952D02*
X39307142Y-20897619D01*
X39664285Y-21016666D02*
X38914285Y-21016666D01*
X38914285Y-20826190D01*
X38950000Y-20778571D01*
X38985714Y-20754761D01*
X39057142Y-20730952D01*
X39164285Y-20730952D01*
X39235714Y-20754761D01*
X39271428Y-20778571D01*
X39307142Y-20826190D01*
X39307142Y-21016666D01*
X38914285Y-20421428D02*
X38914285Y-20326190D01*
X38950000Y-20278571D01*
X39021428Y-20230952D01*
X39164285Y-20207142D01*
X39414285Y-20207142D01*
X39557142Y-20230952D01*
X39628571Y-20278571D01*
X39664285Y-20326190D01*
X39664285Y-20421428D01*
X39628571Y-20469047D01*
X39557142Y-20516666D01*
X39414285Y-20540476D01*
X39164285Y-20540476D01*
X39021428Y-20516666D01*
X38950000Y-20469047D01*
X38914285Y-20421428D01*
X38914285Y-20040476D02*
X39664285Y-19921428D01*
X39128571Y-19826190D01*
X39664285Y-19730952D01*
X38914285Y-19611904D01*
X38914285Y-19326190D02*
X38914285Y-19278571D01*
X38950000Y-19230952D01*
X38985714Y-19207142D01*
X39057142Y-19183333D01*
X39200000Y-19159523D01*
X39378571Y-19159523D01*
X39521428Y-19183333D01*
X39592857Y-19207142D01*
X39628571Y-19230952D01*
X39664285Y-19278571D01*
X39664285Y-19326190D01*
X39628571Y-19373809D01*
X39592857Y-19397619D01*
X39521428Y-19421428D01*
X39378571Y-19445238D01*
X39200000Y-19445238D01*
X39057142Y-19421428D01*
X38985714Y-19397619D01*
X38950000Y-19373809D01*
X38914285Y-19326190D01*
X37050571Y-20434238D02*
X37086285Y-20362809D01*
X37086285Y-20243761D01*
X37050571Y-20196142D01*
X37014857Y-20172333D01*
X36943428Y-20148523D01*
X36872000Y-20148523D01*
X36800571Y-20172333D01*
X36764857Y-20196142D01*
X36729142Y-20243761D01*
X36693428Y-20339000D01*
X36657714Y-20386619D01*
X36622000Y-20410428D01*
X36550571Y-20434238D01*
X36479142Y-20434238D01*
X36407714Y-20410428D01*
X36372000Y-20386619D01*
X36336285Y-20339000D01*
X36336285Y-20219952D01*
X36372000Y-20148523D01*
X37014857Y-19648523D02*
X37050571Y-19672333D01*
X37086285Y-19743761D01*
X37086285Y-19791380D01*
X37050571Y-19862809D01*
X36979142Y-19910428D01*
X36907714Y-19934238D01*
X36764857Y-19958047D01*
X36657714Y-19958047D01*
X36514857Y-19934238D01*
X36443428Y-19910428D01*
X36372000Y-19862809D01*
X36336285Y-19791380D01*
X36336285Y-19743761D01*
X36372000Y-19672333D01*
X36407714Y-19648523D01*
X37086285Y-19196142D02*
X37086285Y-19434238D01*
X36336285Y-19434238D01*
X37014857Y-35697619D02*
X37050571Y-35721428D01*
X37086285Y-35792857D01*
X37086285Y-35840476D01*
X37050571Y-35911904D01*
X36979142Y-35959523D01*
X36907714Y-35983333D01*
X36764857Y-36007142D01*
X36657714Y-36007142D01*
X36514857Y-35983333D01*
X36443428Y-35959523D01*
X36372000Y-35911904D01*
X36336285Y-35840476D01*
X36336285Y-35792857D01*
X36372000Y-35721428D01*
X36407714Y-35697619D01*
X36336285Y-35388095D02*
X36336285Y-35292857D01*
X36372000Y-35245238D01*
X36443428Y-35197619D01*
X36586285Y-35173809D01*
X36836285Y-35173809D01*
X36979142Y-35197619D01*
X37050571Y-35245238D01*
X37086285Y-35292857D01*
X37086285Y-35388095D01*
X37050571Y-35435714D01*
X36979142Y-35483333D01*
X36836285Y-35507142D01*
X36586285Y-35507142D01*
X36443428Y-35483333D01*
X36372000Y-35435714D01*
X36336285Y-35388095D01*
X37086285Y-34721428D02*
X37086285Y-34959523D01*
X36336285Y-34959523D01*
X37086285Y-34292857D02*
X37086285Y-34578571D01*
X37086285Y-34435714D02*
X36336285Y-34435714D01*
X36443428Y-34483333D01*
X36514857Y-34530952D01*
X36550571Y-34578571D01*
X42166285Y-20680952D02*
X41809142Y-20847619D01*
X42166285Y-20966666D02*
X41416285Y-20966666D01*
X41416285Y-20776190D01*
X41452000Y-20728571D01*
X41487714Y-20704761D01*
X41559142Y-20680952D01*
X41666285Y-20680952D01*
X41737714Y-20704761D01*
X41773428Y-20728571D01*
X41809142Y-20776190D01*
X41809142Y-20966666D01*
X41416285Y-20371428D02*
X41416285Y-20276190D01*
X41452000Y-20228571D01*
X41523428Y-20180952D01*
X41666285Y-20157142D01*
X41916285Y-20157142D01*
X42059142Y-20180952D01*
X42130571Y-20228571D01*
X42166285Y-20276190D01*
X42166285Y-20371428D01*
X42130571Y-20419047D01*
X42059142Y-20466666D01*
X41916285Y-20490476D01*
X41666285Y-20490476D01*
X41523428Y-20466666D01*
X41452000Y-20419047D01*
X41416285Y-20371428D01*
X41416285Y-19990476D02*
X42166285Y-19871428D01*
X41630571Y-19776190D01*
X42166285Y-19680952D01*
X41416285Y-19561904D01*
X42166285Y-19109523D02*
X42166285Y-19395238D01*
X42166285Y-19252380D02*
X41416285Y-19252380D01*
X41523428Y-19300000D01*
X41594857Y-19347619D01*
X41630571Y-19395238D01*
X31355500Y-20219952D02*
X31319785Y-20267571D01*
X31319785Y-20339000D01*
X31355500Y-20410428D01*
X31426928Y-20458047D01*
X31498357Y-20481857D01*
X31641214Y-20505666D01*
X31748357Y-20505666D01*
X31891214Y-20481857D01*
X31962642Y-20458047D01*
X32034071Y-20410428D01*
X32069785Y-20339000D01*
X32069785Y-20291380D01*
X32034071Y-20219952D01*
X31998357Y-20196142D01*
X31748357Y-20196142D01*
X31748357Y-20291380D01*
X32069785Y-19981857D02*
X31319785Y-19981857D01*
X32069785Y-19696142D01*
X31319785Y-19696142D01*
X32069785Y-19458047D02*
X31319785Y-19458047D01*
X31319785Y-19339000D01*
X31355500Y-19267571D01*
X31426928Y-19219952D01*
X31498357Y-19196142D01*
X31641214Y-19172333D01*
X31748357Y-19172333D01*
X31891214Y-19196142D01*
X31962642Y-19219952D01*
X32034071Y-19267571D01*
X32069785Y-19339000D01*
X32069785Y-19458047D01*
X34510571Y-20446142D02*
X34546285Y-20374714D01*
X34546285Y-20255666D01*
X34510571Y-20208047D01*
X34474857Y-20184238D01*
X34403428Y-20160428D01*
X34332000Y-20160428D01*
X34260571Y-20184238D01*
X34224857Y-20208047D01*
X34189142Y-20255666D01*
X34153428Y-20350904D01*
X34117714Y-20398523D01*
X34082000Y-20422333D01*
X34010571Y-20446142D01*
X33939142Y-20446142D01*
X33867714Y-20422333D01*
X33832000Y-20398523D01*
X33796285Y-20350904D01*
X33796285Y-20231857D01*
X33832000Y-20160428D01*
X34546285Y-19946142D02*
X33796285Y-19946142D01*
X33796285Y-19827095D01*
X33832000Y-19755666D01*
X33903428Y-19708047D01*
X33974857Y-19684238D01*
X34117714Y-19660428D01*
X34224857Y-19660428D01*
X34367714Y-19684238D01*
X34439142Y-19708047D01*
X34510571Y-19755666D01*
X34546285Y-19827095D01*
X34546285Y-19946142D01*
X34332000Y-19469952D02*
X34332000Y-19231857D01*
X34546285Y-19517571D02*
X33796285Y-19350904D01*
X34546285Y-19184238D01*
X26212000Y-35396452D02*
X26176285Y-35444071D01*
X26176285Y-35515500D01*
X26212000Y-35586928D01*
X26283428Y-35634547D01*
X26354857Y-35658357D01*
X26497714Y-35682166D01*
X26604857Y-35682166D01*
X26747714Y-35658357D01*
X26819142Y-35634547D01*
X26890571Y-35586928D01*
X26926285Y-35515500D01*
X26926285Y-35467880D01*
X26890571Y-35396452D01*
X26854857Y-35372642D01*
X26604857Y-35372642D01*
X26604857Y-35467880D01*
X26926285Y-35158357D02*
X26176285Y-35158357D01*
X26926285Y-34872642D01*
X26176285Y-34872642D01*
X26926285Y-34634547D02*
X26176285Y-34634547D01*
X26176285Y-34515500D01*
X26212000Y-34444071D01*
X26283428Y-34396452D01*
X26354857Y-34372642D01*
X26497714Y-34348833D01*
X26604857Y-34348833D01*
X26747714Y-34372642D01*
X26819142Y-34396452D01*
X26890571Y-34444071D01*
X26926285Y-34515500D01*
X26926285Y-34634547D01*
X34492857Y-35747619D02*
X34528571Y-35771428D01*
X34564285Y-35842857D01*
X34564285Y-35890476D01*
X34528571Y-35961904D01*
X34457142Y-36009523D01*
X34385714Y-36033333D01*
X34242857Y-36057142D01*
X34135714Y-36057142D01*
X33992857Y-36033333D01*
X33921428Y-36009523D01*
X33850000Y-35961904D01*
X33814285Y-35890476D01*
X33814285Y-35842857D01*
X33850000Y-35771428D01*
X33885714Y-35747619D01*
X33814285Y-35438095D02*
X33814285Y-35342857D01*
X33850000Y-35295238D01*
X33921428Y-35247619D01*
X34064285Y-35223809D01*
X34314285Y-35223809D01*
X34457142Y-35247619D01*
X34528571Y-35295238D01*
X34564285Y-35342857D01*
X34564285Y-35438095D01*
X34528571Y-35485714D01*
X34457142Y-35533333D01*
X34314285Y-35557142D01*
X34064285Y-35557142D01*
X33921428Y-35533333D01*
X33850000Y-35485714D01*
X33814285Y-35438095D01*
X34564285Y-34771428D02*
X34564285Y-35009523D01*
X33814285Y-35009523D01*
X33814285Y-34509523D02*
X33814285Y-34461904D01*
X33850000Y-34414285D01*
X33885714Y-34390476D01*
X33957142Y-34366666D01*
X34100000Y-34342857D01*
X34278571Y-34342857D01*
X34421428Y-34366666D01*
X34492857Y-34390476D01*
X34528571Y-34414285D01*
X34564285Y-34461904D01*
X34564285Y-34509523D01*
X34528571Y-34557142D01*
X34492857Y-34580952D01*
X34421428Y-34604761D01*
X34278571Y-34628571D01*
X34100000Y-34628571D01*
X33957142Y-34604761D01*
X33885714Y-34580952D01*
X33850000Y-34557142D01*
X33814285Y-34509523D01*
X49421428Y-35452380D02*
X49457142Y-35380952D01*
X49492857Y-35357142D01*
X49564285Y-35333333D01*
X49671428Y-35333333D01*
X49742857Y-35357142D01*
X49778571Y-35380952D01*
X49814285Y-35428571D01*
X49814285Y-35619047D01*
X49064285Y-35619047D01*
X49064285Y-35452380D01*
X49100000Y-35404761D01*
X49135714Y-35380952D01*
X49207142Y-35357142D01*
X49278571Y-35357142D01*
X49350000Y-35380952D01*
X49385714Y-35404761D01*
X49421428Y-35452380D01*
X49421428Y-35619047D01*
X49135714Y-35142857D02*
X49100000Y-35119047D01*
X49064285Y-35071428D01*
X49064285Y-34952380D01*
X49100000Y-34904761D01*
X49135714Y-34880952D01*
X49207142Y-34857142D01*
X49278571Y-34857142D01*
X49385714Y-34880952D01*
X49814285Y-35166666D01*
X49814285Y-34857142D01*
X44642857Y-35797619D02*
X44678571Y-35821428D01*
X44714285Y-35892857D01*
X44714285Y-35940476D01*
X44678571Y-36011904D01*
X44607142Y-36059523D01*
X44535714Y-36083333D01*
X44392857Y-36107142D01*
X44285714Y-36107142D01*
X44142857Y-36083333D01*
X44071428Y-36059523D01*
X44000000Y-36011904D01*
X43964285Y-35940476D01*
X43964285Y-35892857D01*
X44000000Y-35821428D01*
X44035714Y-35797619D01*
X43964285Y-35488095D02*
X43964285Y-35392857D01*
X44000000Y-35345238D01*
X44071428Y-35297619D01*
X44214285Y-35273809D01*
X44464285Y-35273809D01*
X44607142Y-35297619D01*
X44678571Y-35345238D01*
X44714285Y-35392857D01*
X44714285Y-35488095D01*
X44678571Y-35535714D01*
X44607142Y-35583333D01*
X44464285Y-35607142D01*
X44214285Y-35607142D01*
X44071428Y-35583333D01*
X44000000Y-35535714D01*
X43964285Y-35488095D01*
X44714285Y-34821428D02*
X44714285Y-35059523D01*
X43964285Y-35059523D01*
X44214285Y-34440476D02*
X44714285Y-34440476D01*
X43928571Y-34559523D02*
X44464285Y-34678571D01*
X44464285Y-34369047D01*
X24386285Y-35360738D02*
X24029142Y-35527404D01*
X24386285Y-35646452D02*
X23636285Y-35646452D01*
X23636285Y-35455976D01*
X23672000Y-35408357D01*
X23707714Y-35384547D01*
X23779142Y-35360738D01*
X23886285Y-35360738D01*
X23957714Y-35384547D01*
X23993428Y-35408357D01*
X24029142Y-35455976D01*
X24029142Y-35646452D01*
X24172000Y-35170261D02*
X24172000Y-34932166D01*
X24386285Y-35217880D02*
X23636285Y-35051214D01*
X24386285Y-34884547D01*
X23636285Y-34765500D02*
X24386285Y-34646452D01*
X23850571Y-34551214D01*
X24386285Y-34455976D01*
X23636285Y-34336928D01*
X51971428Y-35552380D02*
X52007142Y-35480952D01*
X52042857Y-35457142D01*
X52114285Y-35433333D01*
X52221428Y-35433333D01*
X52292857Y-35457142D01*
X52328571Y-35480952D01*
X52364285Y-35528571D01*
X52364285Y-35719047D01*
X51614285Y-35719047D01*
X51614285Y-35552380D01*
X51650000Y-35504761D01*
X51685714Y-35480952D01*
X51757142Y-35457142D01*
X51828571Y-35457142D01*
X51900000Y-35480952D01*
X51935714Y-35504761D01*
X51971428Y-35552380D01*
X51971428Y-35719047D01*
X51614285Y-35004761D02*
X51614285Y-35100000D01*
X51650000Y-35147619D01*
X51685714Y-35171428D01*
X51792857Y-35219047D01*
X51935714Y-35242857D01*
X52221428Y-35242857D01*
X52292857Y-35219047D01*
X52328571Y-35195238D01*
X52364285Y-35147619D01*
X52364285Y-35052380D01*
X52328571Y-35004761D01*
X52292857Y-34980952D01*
X52221428Y-34957142D01*
X52042857Y-34957142D01*
X51971428Y-34980952D01*
X51935714Y-35004761D01*
X51900000Y-35052380D01*
X51900000Y-35147619D01*
X51935714Y-35195238D01*
X51971428Y-35219047D01*
X52042857Y-35242857D01*
X31256285Y-35682166D02*
X32006285Y-35515500D01*
X31256285Y-35348833D01*
X31934857Y-34896452D02*
X31970571Y-34920261D01*
X32006285Y-34991690D01*
X32006285Y-35039309D01*
X31970571Y-35110738D01*
X31899142Y-35158357D01*
X31827714Y-35182166D01*
X31684857Y-35205976D01*
X31577714Y-35205976D01*
X31434857Y-35182166D01*
X31363428Y-35158357D01*
X31292000Y-35110738D01*
X31256285Y-35039309D01*
X31256285Y-34991690D01*
X31292000Y-34920261D01*
X31327714Y-34896452D01*
X31934857Y-34396452D02*
X31970571Y-34420261D01*
X32006285Y-34491690D01*
X32006285Y-34539309D01*
X31970571Y-34610738D01*
X31899142Y-34658357D01*
X31827714Y-34682166D01*
X31684857Y-34705976D01*
X31577714Y-34705976D01*
X31434857Y-34682166D01*
X31363428Y-34658357D01*
X31292000Y-34610738D01*
X31256285Y-34539309D01*
X31256285Y-34491690D01*
X31292000Y-34420261D01*
X31327714Y-34396452D01*
X49393428Y-20302380D02*
X49429142Y-20230952D01*
X49464857Y-20207142D01*
X49536285Y-20183333D01*
X49643428Y-20183333D01*
X49714857Y-20207142D01*
X49750571Y-20230952D01*
X49786285Y-20278571D01*
X49786285Y-20469047D01*
X49036285Y-20469047D01*
X49036285Y-20302380D01*
X49072000Y-20254761D01*
X49107714Y-20230952D01*
X49179142Y-20207142D01*
X49250571Y-20207142D01*
X49322000Y-20230952D01*
X49357714Y-20254761D01*
X49393428Y-20302380D01*
X49393428Y-20469047D01*
X49286285Y-19754761D02*
X49786285Y-19754761D01*
X49000571Y-19873809D02*
X49536285Y-19992857D01*
X49536285Y-19683333D01*
X26914285Y-20700000D02*
X26164285Y-20700000D01*
X26164285Y-20580952D01*
X26200000Y-20509523D01*
X26271428Y-20461904D01*
X26342857Y-20438095D01*
X26485714Y-20414285D01*
X26592857Y-20414285D01*
X26735714Y-20438095D01*
X26807142Y-20461904D01*
X26878571Y-20509523D01*
X26914285Y-20580952D01*
X26914285Y-20700000D01*
X26700000Y-20223809D02*
X26700000Y-19985714D01*
X26914285Y-20271428D02*
X26164285Y-20104761D01*
X26914285Y-19938095D01*
X26164285Y-19842857D02*
X26164285Y-19557142D01*
X26914285Y-19700000D02*
X26164285Y-19700000D01*
X26700000Y-19414285D02*
X26700000Y-19176190D01*
X26914285Y-19461904D02*
X26164285Y-19295238D01*
X26914285Y-19128571D01*
X28815500Y-20156452D02*
X28779785Y-20204071D01*
X28779785Y-20275500D01*
X28815500Y-20346928D01*
X28886928Y-20394547D01*
X28958357Y-20418357D01*
X29101214Y-20442166D01*
X29208357Y-20442166D01*
X29351214Y-20418357D01*
X29422642Y-20394547D01*
X29494071Y-20346928D01*
X29529785Y-20275500D01*
X29529785Y-20227880D01*
X29494071Y-20156452D01*
X29458357Y-20132642D01*
X29208357Y-20132642D01*
X29208357Y-20227880D01*
X29529785Y-19918357D02*
X28779785Y-19918357D01*
X29529785Y-19632642D01*
X28779785Y-19632642D01*
X29529785Y-19394547D02*
X28779785Y-19394547D01*
X28779785Y-19275500D01*
X28815500Y-19204071D01*
X28886928Y-19156452D01*
X28958357Y-19132642D01*
X29101214Y-19108833D01*
X29208357Y-19108833D01*
X29351214Y-19132642D01*
X29422642Y-19156452D01*
X29494071Y-19204071D01*
X29529785Y-19275500D01*
X29529785Y-19394547D01*
D12*
D13*
X47309785Y-20730952D02*
X46952642Y-20897619D01*
X47309785Y-21016666D02*
X46559785Y-21016666D01*
X46559785Y-20826190D01*
X46595500Y-20778571D01*
X46631214Y-20754761D01*
X46702642Y-20730952D01*
X46809785Y-20730952D01*
X46881214Y-20754761D01*
X46916928Y-20778571D01*
X46952642Y-20826190D01*
X46952642Y-21016666D01*
X46559785Y-20421428D02*
X46559785Y-20326190D01*
X46595500Y-20278571D01*
X46666928Y-20230952D01*
X46809785Y-20207142D01*
X47059785Y-20207142D01*
X47202642Y-20230952D01*
X47274071Y-20278571D01*
X47309785Y-20326190D01*
X47309785Y-20421428D01*
X47274071Y-20469047D01*
X47202642Y-20516666D01*
X47059785Y-20540476D01*
X46809785Y-20540476D01*
X46666928Y-20516666D01*
X46595500Y-20469047D01*
X46559785Y-20421428D01*
X46559785Y-20040476D02*
X47309785Y-19921428D01*
X46774071Y-19826190D01*
X47309785Y-19730952D01*
X46559785Y-19611904D01*
X46559785Y-19469047D02*
X46559785Y-19159523D01*
X46845500Y-19326190D01*
X46845500Y-19254761D01*
X46881214Y-19207142D01*
X46916928Y-19183333D01*
X46988357Y-19159523D01*
X47166928Y-19159523D01*
X47238357Y-19183333D01*
X47274071Y-19207142D01*
X47309785Y-19254761D01*
X47309785Y-19397619D01*
X47274071Y-19445238D01*
X47238357Y-19469047D01*
D12*
%TO.C,D7*%
X39275000Y-73275000D02*
X38775000Y-72375000D01*
X38775000Y-73375000D02*
X39775000Y-73375000D01*
X39775000Y-72375000D02*
X39275000Y-73275000D01*
X40025000Y-75575000D02*
X40025000Y-70175000D01*
X38525000Y-70175000D02*
X40025000Y-70175000D01*
X38525000Y-75575000D02*
X40025000Y-75575000D01*
X38525000Y-70175000D02*
X38525000Y-75575000D01*
X38775000Y-72375000D02*
X39775000Y-72375000D01*
%TO.C,D6*%
X21925000Y-75375000D02*
X23425000Y-75375000D01*
X23175000Y-77575000D02*
X22675000Y-78475000D01*
X22175000Y-78575000D02*
X23175000Y-78575000D01*
X21925000Y-75375000D02*
X21925000Y-80775000D01*
X22175000Y-77575000D02*
X23175000Y-77575000D01*
X22675000Y-78475000D02*
X22175000Y-77575000D01*
X21925000Y-80775000D02*
X23425000Y-80775000D01*
X23425000Y-80775000D02*
X23425000Y-75375000D01*
%TO.C,D9*%
X72300000Y-70550000D02*
X71800000Y-69650000D01*
X71550000Y-67450000D02*
X71550000Y-72850000D01*
X71800000Y-69650000D02*
X72800000Y-69650000D01*
X71550000Y-67450000D02*
X73050000Y-67450000D01*
X71800000Y-70650000D02*
X72800000Y-70650000D01*
X73050000Y-72850000D02*
X73050000Y-67450000D01*
X71550000Y-72850000D02*
X73050000Y-72850000D01*
X72800000Y-69650000D02*
X72300000Y-70550000D01*
%TO.C,D16*%
X61250000Y-106450000D02*
X60750000Y-107350000D01*
X60000000Y-104250000D02*
X60000000Y-109650000D01*
X60750000Y-107350000D02*
X60250000Y-106450000D01*
X60000000Y-109650000D02*
X61500000Y-109650000D01*
X60000000Y-104250000D02*
X61500000Y-104250000D01*
X60250000Y-107450000D02*
X61250000Y-107450000D01*
X60250000Y-106450000D02*
X61250000Y-106450000D01*
X61500000Y-109650000D02*
X61500000Y-104250000D01*
%TO.C,D11*%
X22150000Y-92950000D02*
X23650000Y-92950000D01*
X22150000Y-98350000D02*
X23650000Y-98350000D01*
X23400000Y-95150000D02*
X22900000Y-96050000D01*
X23650000Y-98350000D02*
X23650000Y-92950000D01*
X22400000Y-96150000D02*
X23400000Y-96150000D01*
X22150000Y-92950000D02*
X22150000Y-98350000D01*
X22900000Y-96050000D02*
X22400000Y-95150000D01*
X22400000Y-95150000D02*
X23400000Y-95150000D01*
%TO.C,D14*%
X71725000Y-87275000D02*
X72725000Y-87275000D01*
X71475000Y-85075000D02*
X72975000Y-85075000D01*
X71725000Y-88275000D02*
X72725000Y-88275000D01*
X72975000Y-90475000D02*
X72975000Y-85075000D01*
X72725000Y-87275000D02*
X72225000Y-88175000D01*
X71475000Y-85075000D02*
X71475000Y-90475000D01*
X71475000Y-90475000D02*
X72975000Y-90475000D01*
X72225000Y-88175000D02*
X71725000Y-87275000D01*
%TO.C,D17*%
X78475000Y-104325000D02*
X79975000Y-104325000D01*
X79225000Y-107425000D02*
X78725000Y-106525000D01*
X78475000Y-104325000D02*
X78475000Y-109725000D01*
X78475000Y-109725000D02*
X79975000Y-109725000D01*
X79725000Y-106525000D02*
X79225000Y-107425000D01*
X78725000Y-106525000D02*
X79725000Y-106525000D01*
X78725000Y-107525000D02*
X79725000Y-107525000D01*
X79975000Y-109725000D02*
X79975000Y-104325000D01*
%TO.C,SW19*%
X23800000Y-43950000D02*
X23550000Y-43950000D01*
X20300000Y-37950000D02*
X20300000Y-43950000D01*
X23800000Y-37950000D02*
X23800000Y-43950000D01*
X23800000Y-37950000D02*
X23550000Y-37950000D01*
X20300000Y-37950000D02*
X20550000Y-37950000D01*
X20300000Y-43950000D02*
X20550000Y-43950000D01*
%TO.C,D13*%
X56250000Y-87250000D02*
X55750000Y-88150000D01*
X55250000Y-87250000D02*
X56250000Y-87250000D01*
X55250000Y-88250000D02*
X56250000Y-88250000D01*
X55000000Y-85050000D02*
X55000000Y-90450000D01*
X55000000Y-90450000D02*
X56500000Y-90450000D01*
X55000000Y-85050000D02*
X56500000Y-85050000D01*
X56500000Y-90450000D02*
X56500000Y-85050000D01*
X55750000Y-88150000D02*
X55250000Y-87250000D01*
%TO.C,D1*%
X23200000Y-60050000D02*
X22700000Y-60950000D01*
X21950000Y-57850000D02*
X23450000Y-57850000D01*
X22700000Y-60950000D02*
X22200000Y-60050000D01*
X22200000Y-60050000D02*
X23200000Y-60050000D01*
X21950000Y-63250000D02*
X23450000Y-63250000D01*
X22200000Y-61050000D02*
X23200000Y-61050000D01*
X21950000Y-57850000D02*
X21950000Y-63250000D01*
X23450000Y-63250000D02*
X23450000Y-57850000D01*
%TO.C,D18*%
X99850000Y-107825000D02*
X100850000Y-107825000D01*
X99850000Y-108825000D02*
X100850000Y-108825000D01*
X99600000Y-111025000D02*
X101100000Y-111025000D01*
X100850000Y-107825000D02*
X100350000Y-108725000D01*
X100350000Y-108725000D02*
X99850000Y-107825000D01*
X99600000Y-105625000D02*
X101100000Y-105625000D01*
X99600000Y-105625000D02*
X99600000Y-111025000D01*
X101100000Y-111025000D02*
X101100000Y-105625000D01*
%TO.C,D4*%
X71550000Y-50100000D02*
X73050000Y-50100000D01*
X72800000Y-52300000D02*
X72300000Y-53200000D01*
X71800000Y-53300000D02*
X72800000Y-53300000D01*
X71800000Y-52300000D02*
X72800000Y-52300000D01*
X72300000Y-53200000D02*
X71800000Y-52300000D01*
X73050000Y-55500000D02*
X73050000Y-50100000D01*
X71550000Y-55500000D02*
X73050000Y-55500000D01*
X71550000Y-50100000D02*
X71550000Y-55500000D01*
%TO.C,D10*%
X88400000Y-71425000D02*
X89400000Y-71425000D01*
X88400000Y-72425000D02*
X89400000Y-72425000D01*
X88150000Y-69225000D02*
X89650000Y-69225000D01*
X88150000Y-69225000D02*
X88150000Y-74625000D01*
X89400000Y-71425000D02*
X88900000Y-72325000D01*
X88900000Y-72325000D02*
X88400000Y-71425000D01*
X89650000Y-74625000D02*
X89650000Y-69225000D01*
X88150000Y-74625000D02*
X89650000Y-74625000D01*
%TO.C,J1*%
X65025000Y-34575000D02*
X59025000Y-34575000D01*
X59025000Y-22575000D02*
X65025000Y-22575000D01*
X59025000Y-34575000D02*
X59025000Y-22575000D01*
X65025000Y-22575000D02*
X65025000Y-34575000D01*
%TO.C,D3*%
X55725000Y-53250000D02*
X55225000Y-52350000D01*
X56475000Y-55550000D02*
X56475000Y-50150000D01*
X54975000Y-50150000D02*
X54975000Y-55550000D01*
X54975000Y-55550000D02*
X56475000Y-55550000D01*
X56225000Y-52350000D02*
X55725000Y-53250000D01*
X55225000Y-52350000D02*
X56225000Y-52350000D01*
X55225000Y-53350000D02*
X56225000Y-53350000D01*
X54975000Y-50150000D02*
X56475000Y-50150000D01*
%TO.C,U1*%
X22777000Y-34133600D02*
X22777000Y-31593600D01*
X53257000Y-34133600D02*
X22777000Y-34133600D01*
X53257000Y-31593600D02*
X53257000Y-34133600D01*
X53257000Y-16373600D02*
X53257000Y-18913600D01*
X22777000Y-31593600D02*
X53257000Y-31593600D01*
X53257000Y-18913600D02*
X22777000Y-18913600D01*
X22777000Y-16373600D02*
X53257000Y-16373600D01*
X22777000Y-18913600D02*
X22777000Y-16373600D01*
%TO.C,D15*%
X88250000Y-89000000D02*
X89250000Y-89000000D01*
X89500000Y-92200000D02*
X89500000Y-86800000D01*
X88750000Y-89900000D02*
X88250000Y-89000000D01*
X88250000Y-90000000D02*
X89250000Y-90000000D01*
X88000000Y-86800000D02*
X88000000Y-92200000D01*
X89250000Y-89000000D02*
X88750000Y-89900000D01*
X88000000Y-92200000D02*
X89500000Y-92200000D01*
X88000000Y-86800000D02*
X89500000Y-86800000D01*
%TO.C,D5*%
X88775000Y-54925000D02*
X88275000Y-54025000D01*
X88025000Y-57225000D02*
X89525000Y-57225000D01*
X88025000Y-51825000D02*
X89525000Y-51825000D01*
X88025000Y-51825000D02*
X88025000Y-57225000D01*
X89275000Y-54025000D02*
X88775000Y-54925000D01*
X88275000Y-54025000D02*
X89275000Y-54025000D01*
X88275000Y-55025000D02*
X89275000Y-55025000D01*
X89525000Y-57225000D02*
X89525000Y-51825000D01*
%TO.C,D8*%
X55000000Y-67500000D02*
X55000000Y-72900000D01*
X55250000Y-70700000D02*
X56250000Y-70700000D01*
X55750000Y-70600000D02*
X55250000Y-69700000D01*
X56250000Y-69700000D02*
X55750000Y-70600000D01*
X56500000Y-72900000D02*
X56500000Y-67500000D01*
X55000000Y-67500000D02*
X56500000Y-67500000D01*
X55000000Y-72900000D02*
X56500000Y-72900000D01*
X55250000Y-69700000D02*
X56250000Y-69700000D01*
%TO.C,D2*%
X39300000Y-55625000D02*
X38800000Y-54725000D01*
X38550000Y-57925000D02*
X40050000Y-57925000D01*
X39800000Y-54725000D02*
X39300000Y-55625000D01*
X38800000Y-54725000D02*
X39800000Y-54725000D01*
X40050000Y-57925000D02*
X40050000Y-52525000D01*
X38550000Y-52525000D02*
X38550000Y-57925000D01*
X38550000Y-52525000D02*
X40050000Y-52525000D01*
X38800000Y-55725000D02*
X39800000Y-55725000D01*
%TO.C,D12*%
X38450000Y-93050000D02*
X39950000Y-93050000D01*
X39700000Y-89850000D02*
X39200000Y-90750000D01*
X39200000Y-90750000D02*
X38700000Y-89850000D01*
X39950000Y-93050000D02*
X39950000Y-87650000D01*
X38700000Y-89850000D02*
X39700000Y-89850000D01*
X38450000Y-87650000D02*
X38450000Y-93050000D01*
X38700000Y-90850000D02*
X39700000Y-90850000D01*
X38450000Y-87650000D02*
X39950000Y-87650000D01*
%TD*%
D14*
%TO.C,SW19*%
X22050000Y-44200000D03*
X22050000Y-37700000D03*
%TD*%
D15*
%TO.C,J1*%
X62025000Y-24075000D03*
X62025000Y-31075000D03*
X60275000Y-24075000D03*
X60275000Y-31075000D03*
D16*
X62375000Y-34375000D03*
X59925000Y-34375000D03*
X64125000Y-25875000D03*
X58175000Y-25875000D03*
X64125000Y-28875000D03*
X58175000Y-28875000D03*
X64125000Y-32875000D03*
X58175000Y-32875000D03*
%TD*%
D17*
%TO.C,U1*%
X25317000Y-18950000D03*
X24047000Y-32863600D03*
X27857000Y-18950000D03*
X26587000Y-32863600D03*
X29127000Y-32863600D03*
X30397000Y-18950000D03*
X31667000Y-32863600D03*
X32937000Y-18950000D03*
X35477000Y-18950000D03*
X34207000Y-32863600D03*
X36747000Y-32863600D03*
X38017000Y-18950000D03*
X39287000Y-32863600D03*
X40557000Y-18950000D03*
X41827000Y-32863600D03*
X43097000Y-18950000D03*
X44367000Y-32863600D03*
X45637000Y-18950000D03*
X48177000Y-18950000D03*
X46907000Y-32863600D03*
X50717000Y-18950000D03*
X49447000Y-32863600D03*
X53257000Y-18950000D03*
X51987000Y-32863600D03*
X51987000Y-17643600D03*
X53257000Y-34190000D03*
X49447000Y-17643600D03*
X50717000Y-34190000D03*
X48177000Y-34190000D03*
X46907000Y-17643600D03*
X45637000Y-34190000D03*
X44367000Y-17643600D03*
X41827000Y-17643600D03*
X43097000Y-34190000D03*
X40557000Y-34190000D03*
X39287000Y-17643600D03*
X38017000Y-34190000D03*
X36747000Y-17643600D03*
X35477000Y-34190000D03*
X34207000Y-17643600D03*
X32937000Y-34190000D03*
X31667000Y-17643600D03*
X29127000Y-17643600D03*
X30397000Y-34190000D03*
X26587000Y-17643600D03*
X27857000Y-34190000D03*
X24047000Y-17643600D03*
X25317000Y-34190000D03*
%TD*%
D18*
X35000000Y-25900000D03*
X39575000Y-25025000D03*
X73397600Y-54872800D03*
X49825300Y-56675200D03*
X89871500Y-56300000D03*
X25436300Y-60062300D03*
X22700000Y-60032900D03*
X39234300Y-52026100D03*
X56802100Y-51075000D03*
X73383400Y-51025000D03*
X88579500Y-51373800D03*
X22675000Y-74988500D03*
X39204900Y-69845900D03*
X54674500Y-67665300D03*
X70954000Y-67829300D03*
X89998100Y-70162100D03*
X22675000Y-78586400D03*
X72300000Y-70638500D03*
X36954700Y-30975800D03*
X88900000Y-74975500D03*
X55750000Y-73247700D03*
X39275000Y-76160300D03*
X23272800Y-95137700D03*
X39200000Y-89846800D03*
X56832300Y-85975000D03*
X72225000Y-87256300D03*
X89834000Y-87725000D03*
X60750000Y-106446900D03*
X79122000Y-103885500D03*
X112725000Y-97925000D03*
X100350000Y-105196900D03*
X43452300Y-92125000D03*
X39287000Y-31278400D03*
X85721300Y-90433100D03*
X69808800Y-108800000D03*
X41827000Y-31325000D03*
X101454500Y-110100000D03*
X61250600Y-39026800D03*
X28897900Y-16183300D03*
X103775000Y-106925000D03*
X40400000Y-59125000D03*
X33275000Y-47725000D03*
X80375000Y-70800000D03*
X31850000Y-63900000D03*
X43150000Y-25100000D03*
X77075000Y-92450000D03*
X32800000Y-80975000D03*
X70325000Y-72750000D03*
X58475000Y-69800000D03*
X97975000Y-72425000D03*
X101275000Y-94675000D03*
X48925000Y-76050000D03*
X70150000Y-70100000D03*
X81200000Y-73675000D03*
X84000000Y-53675000D03*
X81675000Y-50700000D03*
X42000000Y-87825000D03*
X100850000Y-55675000D03*
X86625000Y-53300000D03*
X95300000Y-90225000D03*
X58175000Y-53325000D03*
X89275000Y-40325000D03*
X63550000Y-87700000D03*
X64250000Y-55600000D03*
X76125000Y-53050500D03*
X46525000Y-55250000D03*
X65325000Y-50675000D03*
X66100000Y-70275000D03*
X56375000Y-40200000D03*
X49075000Y-25275000D03*
X30850000Y-96100000D03*
X46350000Y-42975000D03*
X38975000Y-78050000D03*
X65150000Y-53425000D03*
X45700000Y-100700000D03*
X42500000Y-90050000D03*
X47225000Y-72300000D03*
X39075000Y-41575000D03*
X32000000Y-76275000D03*
X85575000Y-94450000D03*
X53525000Y-26100000D03*
X37025000Y-51325000D03*
X78675000Y-88300000D03*
X25225000Y-95750000D03*
X44367000Y-31282900D03*
X48177000Y-21501900D03*
X53192800Y-59463800D03*
X69135000Y-74998600D03*
X69135000Y-93474600D03*
X70975000Y-51450000D03*
X85585000Y-67660500D03*
X76434000Y-100719300D03*
X99478000Y-98624300D03*
X36229400Y-30278700D03*
X38356100Y-37721800D03*
X70013900Y-44049000D03*
X56059600Y-23096200D03*
X84230000Y-38300000D03*
X81690000Y-38300000D03*
X79150000Y-38300000D03*
X76610000Y-38250000D03*
X74070000Y-38300000D03*
X23870000Y-73850000D03*
X28950000Y-73850000D03*
X32760000Y-71400000D03*
X31490000Y-68770000D03*
X25140000Y-71310000D03*
X34030000Y-73850000D03*
X26410000Y-68770000D03*
X25090000Y-88735000D03*
X32710000Y-88825000D03*
X33980000Y-91275000D03*
X26360000Y-86195000D03*
X31440000Y-86195000D03*
X28900000Y-91275000D03*
X23820000Y-91275000D03*
X83580000Y-65950000D03*
X82310000Y-63500000D03*
X78500000Y-65950000D03*
X81040000Y-60870000D03*
X73420000Y-65950000D03*
X75960000Y-60870000D03*
X74690000Y-63410000D03*
X61965000Y-48530000D03*
X56885000Y-48530000D03*
X67045000Y-48530000D03*
X59425000Y-43450000D03*
X64505000Y-43450000D03*
X65775000Y-46080000D03*
X58155000Y-45990000D03*
X99980000Y-50225000D03*
X91090000Y-47685000D03*
X89820000Y-50225000D03*
X94900000Y-50225000D03*
X98710000Y-47775000D03*
X92360000Y-45145000D03*
X97440000Y-45145000D03*
X94950000Y-39775000D03*
X22050000Y-44200000D03*
X22050000Y-37700000D03*
X92410000Y-80170000D03*
X97490000Y-80170000D03*
X100030000Y-85250000D03*
X98760000Y-82800000D03*
X94950000Y-85250000D03*
X89870000Y-85250000D03*
X91140000Y-82710000D03*
X42935000Y-63520000D03*
X50555000Y-68600000D03*
X45475000Y-68600000D03*
X41665000Y-66060000D03*
X48015000Y-63520000D03*
X40395000Y-68600000D03*
X49285000Y-66150000D03*
X61820000Y-102700000D03*
X66900000Y-102700000D03*
X63090000Y-100160000D03*
X64360000Y-97620000D03*
X71980000Y-102700000D03*
X69440000Y-97620000D03*
X70710000Y-100250000D03*
X28925000Y-106375000D03*
X105655721Y-99081110D03*
X107275000Y-104525000D03*
X112277823Y-105407133D03*
X111452556Y-102773821D03*
X110658544Y-99963243D03*
X103963949Y-101361989D03*
X102272177Y-103642867D03*
X62025000Y-24075000D03*
X62025000Y-31075000D03*
X60275000Y-24075000D03*
X60275000Y-31075000D03*
D19*
X62375000Y-34375000D03*
X59925000Y-34375000D03*
X64125000Y-25875000D03*
X58175000Y-25875000D03*
X64125000Y-28875000D03*
X58175000Y-28875000D03*
X64125000Y-32875000D03*
X58175000Y-32875000D03*
D18*
X64515000Y-60895000D03*
X67055000Y-65975000D03*
X59435000Y-60895000D03*
X58165000Y-63435000D03*
X65785000Y-63525000D03*
X56895000Y-65975000D03*
X61975000Y-65975000D03*
X96450000Y-102475000D03*
X82885000Y-97645000D03*
X89235000Y-100275000D03*
X85425000Y-102725000D03*
X81615000Y-100185000D03*
X80345000Y-102725000D03*
X90505000Y-102725000D03*
X87965000Y-97645000D03*
X25317000Y-18950000D03*
X24047000Y-32863600D03*
X27857000Y-18950000D03*
X26587000Y-32863600D03*
X29127000Y-32863600D03*
X30397000Y-18950000D03*
X31667000Y-32863600D03*
X32937000Y-18950000D03*
X35477000Y-18950000D03*
X34207000Y-32863600D03*
X36747000Y-32863600D03*
X38017000Y-18950000D03*
X39287000Y-32863600D03*
X40557000Y-18950000D03*
X41827000Y-32863600D03*
X43097000Y-18950000D03*
X44367000Y-32863600D03*
X45637000Y-18950000D03*
X48177000Y-18950000D03*
X46907000Y-32863600D03*
X50717000Y-18950000D03*
X49447000Y-32863600D03*
X53257000Y-18950000D03*
X51987000Y-32863600D03*
X51987000Y-17643600D03*
X53257000Y-34190000D03*
X49447000Y-17643600D03*
X50717000Y-34190000D03*
X48177000Y-34190000D03*
X46907000Y-17643600D03*
X45637000Y-34190000D03*
X44367000Y-17643600D03*
X41827000Y-17643600D03*
X43097000Y-34190000D03*
X40557000Y-34190000D03*
X39287000Y-17643600D03*
X38017000Y-34190000D03*
X36747000Y-17643600D03*
X35477000Y-34190000D03*
X34207000Y-17643600D03*
X32937000Y-34190000D03*
X31667000Y-17643600D03*
X29127000Y-17643600D03*
X30397000Y-34190000D03*
X26587000Y-17643600D03*
X27857000Y-34190000D03*
X24047000Y-17643600D03*
X25317000Y-34190000D03*
X91140000Y-65185000D03*
X100030000Y-67725000D03*
X97490000Y-62645000D03*
X89870000Y-67725000D03*
X94950000Y-67725000D03*
X98760000Y-65275000D03*
X92410000Y-62645000D03*
X41685000Y-48535000D03*
X48035000Y-45995000D03*
X50575000Y-51075000D03*
X45495000Y-51075000D03*
X40415000Y-51075000D03*
X42955000Y-45995000D03*
X49305000Y-48625000D03*
X62050000Y-83450000D03*
X65860000Y-81000000D03*
X58240000Y-80910000D03*
X67130000Y-83450000D03*
X59510000Y-78370000D03*
X64590000Y-78370000D03*
X56970000Y-83450000D03*
X28950000Y-41375000D03*
X48015000Y-80995000D03*
X49285000Y-83625000D03*
X40395000Y-86075000D03*
X50555000Y-86075000D03*
X45475000Y-86075000D03*
X42935000Y-80995000D03*
X41665000Y-83535000D03*
X80990000Y-78395000D03*
X83530000Y-83475000D03*
X75910000Y-78395000D03*
X73370000Y-83475000D03*
X74640000Y-80935000D03*
X78450000Y-83475000D03*
X82260000Y-81025000D03*
X31440000Y-51270000D03*
X32710000Y-53900000D03*
X28900000Y-56350000D03*
X23820000Y-56350000D03*
X26360000Y-51270000D03*
X25090000Y-53810000D03*
X33980000Y-56350000D03*
X82335000Y-46070000D03*
X75985000Y-43440000D03*
X73445000Y-48520000D03*
X74715000Y-45980000D03*
X78525000Y-48520000D03*
X81065000Y-43440000D03*
X83605000Y-48520000D03*
%LPC*%
D17*
%TO.C,H1*%
X84230000Y-38300000D03*
X81690000Y-38300000D03*
X79150000Y-38300000D03*
X76610000Y-38250000D03*
X74070000Y-38300000D03*
%TD*%
D20*
%TO.C,D7*%
X39275000Y-74650000D03*
X39275000Y-71100000D03*
%TD*%
D21*
%TO.C,SW6*%
X23870000Y-73850000D03*
D22*
X28950000Y-73850000D03*
D23*
X32760000Y-71400000D03*
X31490000Y-68770000D03*
X25140000Y-71310000D03*
D21*
X34030000Y-73850000D03*
D23*
X26410000Y-68770000D03*
D24*
X36035000Y-71310000D03*
X23108000Y-68770000D03*
%TD*%
D23*
%TO.C,SW11*%
X25090000Y-88735000D03*
X32710000Y-88825000D03*
D21*
X33980000Y-91275000D03*
D23*
X26360000Y-86195000D03*
X31440000Y-86195000D03*
D22*
X28900000Y-91275000D03*
D21*
X23820000Y-91275000D03*
D24*
X35985000Y-88735000D03*
X23058000Y-86195000D03*
%TD*%
D20*
%TO.C,D6*%
X22675000Y-79850000D03*
X22675000Y-76300000D03*
%TD*%
D21*
%TO.C,SW9*%
X83580000Y-65950000D03*
D23*
X82310000Y-63500000D03*
D22*
X78500000Y-65950000D03*
D23*
X81040000Y-60870000D03*
D21*
X73420000Y-65950000D03*
D23*
X75960000Y-60870000D03*
X74690000Y-63410000D03*
D24*
X85585000Y-63410000D03*
X72658000Y-60870000D03*
%TD*%
D22*
%TO.C,SW3*%
X61965000Y-48530000D03*
D21*
X56885000Y-48530000D03*
X67045000Y-48530000D03*
D23*
X59425000Y-43450000D03*
X64505000Y-43450000D03*
X65775000Y-46080000D03*
X58155000Y-45990000D03*
D24*
X69050000Y-45990000D03*
X56123000Y-43450000D03*
%TD*%
D20*
%TO.C,D9*%
X72300000Y-71925000D03*
X72300000Y-68375000D03*
%TD*%
%TO.C,D16*%
X60750000Y-108725000D03*
X60750000Y-105175000D03*
%TD*%
%TO.C,D11*%
X22900000Y-97425000D03*
X22900000Y-93875000D03*
%TD*%
%TO.C,D14*%
X72225000Y-89550000D03*
X72225000Y-86000000D03*
%TD*%
%TO.C,D17*%
X79225000Y-108800000D03*
X79225000Y-105250000D03*
%TD*%
D21*
%TO.C,SW5*%
X99980000Y-50225000D03*
D23*
X91090000Y-47685000D03*
D21*
X89820000Y-50225000D03*
D22*
X94900000Y-50225000D03*
D23*
X98710000Y-47775000D03*
X92360000Y-45145000D03*
X97440000Y-45145000D03*
D24*
X101985000Y-47685000D03*
X89058000Y-45145000D03*
%TD*%
D25*
%TO.C,HOLE3*%
X94950000Y-39775000D03*
%TD*%
D14*
%TO.C,SW19*%
X22050000Y-44200000D03*
X22050000Y-37700000D03*
%TD*%
D23*
%TO.C,SW15*%
X92410000Y-80170000D03*
X97490000Y-80170000D03*
D21*
X100030000Y-85250000D03*
D23*
X98760000Y-82800000D03*
D22*
X94950000Y-85250000D03*
D21*
X89870000Y-85250000D03*
D23*
X91140000Y-82710000D03*
D24*
X102035000Y-82710000D03*
X89108000Y-80170000D03*
%TD*%
D20*
%TO.C,D13*%
X55750000Y-89525000D03*
X55750000Y-85975000D03*
%TD*%
D23*
%TO.C,SW7*%
X42935000Y-63520000D03*
D21*
X50555000Y-68600000D03*
D22*
X45475000Y-68600000D03*
D23*
X41665000Y-66060000D03*
X48015000Y-63520000D03*
D21*
X40395000Y-68600000D03*
D23*
X49285000Y-66150000D03*
D24*
X52560000Y-66060000D03*
X39633000Y-63520000D03*
%TD*%
D20*
%TO.C,D1*%
X22700000Y-62325000D03*
X22700000Y-58775000D03*
%TD*%
D21*
%TO.C,SW16*%
X61820000Y-102700000D03*
D22*
X66900000Y-102700000D03*
D23*
X63090000Y-100160000D03*
X64360000Y-97620000D03*
D21*
X71980000Y-102700000D03*
D23*
X69440000Y-97620000D03*
X70710000Y-100250000D03*
D24*
X73985000Y-100160000D03*
X61058000Y-97620000D03*
%TD*%
D20*
%TO.C,D18*%
X100350000Y-110100000D03*
X100350000Y-106550000D03*
%TD*%
D25*
%TO.C,HOLE4*%
X28925000Y-106375000D03*
%TD*%
D20*
%TO.C,D4*%
X72300000Y-54575000D03*
X72300000Y-51025000D03*
%TD*%
%TO.C,D10*%
X88900000Y-73700000D03*
X88900000Y-70150000D03*
%TD*%
D23*
%TO.C,SW18*%
X105655721Y-99081110D03*
D22*
X107275000Y-104525000D03*
D21*
X112277823Y-105407133D03*
D23*
X111452556Y-102773821D03*
X110658544Y-99963243D03*
X103963949Y-101361989D03*
D21*
X102272177Y-103642867D03*
D26*
X114693429Y-103253886D03*
X102403886Y-98507724D03*
%TD*%
D15*
%TO.C,J1*%
X62025000Y-24075000D03*
X62025000Y-31075000D03*
X60275000Y-24075000D03*
X60275000Y-31075000D03*
D16*
X62375000Y-34375000D03*
X59925000Y-34375000D03*
X64125000Y-25875000D03*
X58175000Y-25875000D03*
X64125000Y-28875000D03*
X58175000Y-28875000D03*
X64125000Y-32875000D03*
X58175000Y-32875000D03*
%TD*%
D20*
%TO.C,D3*%
X55725000Y-54625000D03*
X55725000Y-51075000D03*
%TD*%
D23*
%TO.C,SW8*%
X64515000Y-60895000D03*
D21*
X67055000Y-65975000D03*
D23*
X59435000Y-60895000D03*
X58165000Y-63435000D03*
X65785000Y-63525000D03*
D21*
X56895000Y-65975000D03*
D22*
X61975000Y-65975000D03*
D24*
X69060000Y-63435000D03*
X56133000Y-60895000D03*
%TD*%
D25*
%TO.C,HOLE2*%
X96450000Y-102475000D03*
%TD*%
D23*
%TO.C,SW17*%
X82885000Y-97645000D03*
X89235000Y-100275000D03*
D22*
X85425000Y-102725000D03*
D23*
X81615000Y-100185000D03*
D21*
X80345000Y-102725000D03*
X90505000Y-102725000D03*
D23*
X87965000Y-97645000D03*
D24*
X92510000Y-100185000D03*
X79583000Y-97645000D03*
%TD*%
D17*
%TO.C,U1*%
X25317000Y-18950000D03*
X24047000Y-32863600D03*
X27857000Y-18950000D03*
X26587000Y-32863600D03*
X29127000Y-32863600D03*
X30397000Y-18950000D03*
X31667000Y-32863600D03*
X32937000Y-18950000D03*
X35477000Y-18950000D03*
X34207000Y-32863600D03*
X36747000Y-32863600D03*
X38017000Y-18950000D03*
X39287000Y-32863600D03*
X40557000Y-18950000D03*
X41827000Y-32863600D03*
X43097000Y-18950000D03*
X44367000Y-32863600D03*
X45637000Y-18950000D03*
X48177000Y-18950000D03*
X46907000Y-32863600D03*
X50717000Y-18950000D03*
X49447000Y-32863600D03*
X53257000Y-18950000D03*
X51987000Y-32863600D03*
X51987000Y-17643600D03*
X53257000Y-34190000D03*
X49447000Y-17643600D03*
X50717000Y-34190000D03*
X48177000Y-34190000D03*
X46907000Y-17643600D03*
X45637000Y-34190000D03*
X44367000Y-17643600D03*
X41827000Y-17643600D03*
X43097000Y-34190000D03*
X40557000Y-34190000D03*
X39287000Y-17643600D03*
X38017000Y-34190000D03*
X36747000Y-17643600D03*
X35477000Y-34190000D03*
X34207000Y-17643600D03*
X32937000Y-34190000D03*
X31667000Y-17643600D03*
X29127000Y-17643600D03*
X30397000Y-34190000D03*
X26587000Y-17643600D03*
X27857000Y-34190000D03*
X24047000Y-17643600D03*
X25317000Y-34190000D03*
%TD*%
D23*
%TO.C,SW10*%
X91140000Y-65185000D03*
D21*
X100030000Y-67725000D03*
D23*
X97490000Y-62645000D03*
D21*
X89870000Y-67725000D03*
D22*
X94950000Y-67725000D03*
D23*
X98760000Y-65275000D03*
X92410000Y-62645000D03*
D24*
X102035000Y-65185000D03*
X89108000Y-62645000D03*
%TD*%
D20*
%TO.C,D15*%
X88750000Y-91275000D03*
X88750000Y-87725000D03*
%TD*%
D23*
%TO.C,SW2*%
X41685000Y-48535000D03*
X48035000Y-45995000D03*
D21*
X50575000Y-51075000D03*
D22*
X45495000Y-51075000D03*
D21*
X40415000Y-51075000D03*
D23*
X42955000Y-45995000D03*
X49305000Y-48625000D03*
D24*
X52580000Y-48535000D03*
X39653000Y-45995000D03*
%TD*%
D22*
%TO.C,SW13*%
X62050000Y-83450000D03*
D23*
X65860000Y-81000000D03*
X58240000Y-80910000D03*
D21*
X67130000Y-83450000D03*
D23*
X59510000Y-78370000D03*
X64590000Y-78370000D03*
D21*
X56970000Y-83450000D03*
D24*
X69135000Y-80910000D03*
X56208000Y-78370000D03*
%TD*%
D25*
%TO.C,HOLE1*%
X28950000Y-41375000D03*
%TD*%
D23*
%TO.C,SW12*%
X48015000Y-80995000D03*
X49285000Y-83625000D03*
D21*
X40395000Y-86075000D03*
X50555000Y-86075000D03*
D22*
X45475000Y-86075000D03*
D23*
X42935000Y-80995000D03*
X41665000Y-83535000D03*
D24*
X52560000Y-83535000D03*
X39633000Y-80995000D03*
%TD*%
D23*
%TO.C,SW14*%
X80990000Y-78395000D03*
D21*
X83530000Y-83475000D03*
D23*
X75910000Y-78395000D03*
D21*
X73370000Y-83475000D03*
D23*
X74640000Y-80935000D03*
D22*
X78450000Y-83475000D03*
D23*
X82260000Y-81025000D03*
D24*
X85535000Y-80935000D03*
X72608000Y-78395000D03*
%TD*%
D23*
%TO.C,SW1*%
X31440000Y-51270000D03*
X32710000Y-53900000D03*
D22*
X28900000Y-56350000D03*
D21*
X23820000Y-56350000D03*
D23*
X26360000Y-51270000D03*
X25090000Y-53810000D03*
D21*
X33980000Y-56350000D03*
D24*
X35985000Y-53810000D03*
X23058000Y-51270000D03*
%TD*%
D20*
%TO.C,D5*%
X88775000Y-56300000D03*
X88775000Y-52750000D03*
%TD*%
%TO.C,D8*%
X55750000Y-71975000D03*
X55750000Y-68425000D03*
%TD*%
D23*
%TO.C,SW4*%
X82335000Y-46070000D03*
X75985000Y-43440000D03*
D21*
X73445000Y-48520000D03*
D23*
X74715000Y-45980000D03*
D22*
X78525000Y-48520000D03*
D23*
X81065000Y-43440000D03*
D21*
X83605000Y-48520000D03*
D24*
X85610000Y-45980000D03*
X72683000Y-43440000D03*
%TD*%
D20*
%TO.C,D2*%
X39300000Y-57000000D03*
X39300000Y-53450000D03*
%TD*%
%TO.C,D12*%
X39200000Y-92125000D03*
X39200000Y-88575000D03*
%TD*%
M02*
