M48
; DRILL file {KiCad (6.0.9)} date Tue Jan  3 16:32:55 2023
; FORMAT={-:-/ absolute / metric / decimal}
; #@! TF.CreationDate,2023-01-03T16:32:55+09:00
; #@! TF.GenerationSoftware,Kicad,Pcbnew,(6.0.9)
; #@! TF.FileFunction,Plated,1,2,PTH
FMAT,2
METRIC
; #@! TA.AperFunction,Plated,PTH,ViaDrill
T1C0.400
; #@! TA.AperFunction,Plated,PTH,ComponentDrill
T2C0.762
; #@! TA.AperFunction,Plated,PTH,ComponentDrill
T3C0.813
; #@! TA.AperFunction,Plated,PTH,ComponentDrill
T4C1.000
; #@! TA.AperFunction,Plated,PTH,ComponentDrill
T5C1.300
%
G90
G05
T1
X22.675Y-74.989
X22.675Y-78.586
X22.7Y-60.033
X23.273Y-95.138
X25.225Y-95.75
X25.436Y-60.062
X28.898Y-16.183
X30.85Y-96.1
X31.85Y-63.9
X32.0Y-76.275
X32.8Y-80.975
X33.275Y-47.725
X35.0Y-25.9
X36.229Y-30.279
X36.955Y-30.976
X37.025Y-51.325
X38.356Y-37.722
X38.975Y-78.05
X39.075Y-41.575
X39.2Y-89.847
X39.205Y-69.846
X39.234Y-52.026
X39.275Y-76.16
X39.287Y-31.278
X39.575Y-25.025
X40.4Y-59.125
X41.827Y-31.325
X42.0Y-87.825
X42.5Y-90.05
X43.15Y-25.1
X43.452Y-92.125
X44.367Y-31.283
X45.7Y-100.7
X46.35Y-42.975
X46.525Y-55.25
X47.225Y-72.3
X48.177Y-21.502
X48.925Y-76.05
X49.075Y-25.275
X49.825Y-56.675
X53.193Y-59.464
X53.525Y-26.1
X54.674Y-67.665
X55.75Y-73.248
X56.06Y-23.096
X56.375Y-40.2
X56.802Y-51.075
X56.832Y-85.975
X58.175Y-53.325
X58.475Y-69.8
X60.75Y-106.447
X61.251Y-39.027
X63.55Y-87.7
X64.25Y-55.6
X65.15Y-53.425
X65.325Y-50.675
X66.1Y-70.275
X69.135Y-74.999
X69.135Y-93.475
X69.809Y-108.8
X70.014Y-44.049
X70.15Y-70.1
X70.325Y-72.75
X70.954Y-67.829
X70.975Y-51.45
X72.225Y-87.256
X72.3Y-70.638
X73.383Y-51.025
X73.398Y-54.873
X76.125Y-53.05
X76.434Y-100.719
X77.075Y-92.45
X78.675Y-88.3
X79.122Y-103.885
X80.375Y-70.8
X81.2Y-73.675
X81.675Y-50.7
X84.0Y-53.675
X85.575Y-94.45
X85.585Y-67.66
X85.721Y-90.433
X86.625Y-53.3
X88.579Y-51.374
X88.9Y-74.975
X89.275Y-40.325
X89.834Y-87.725
X89.871Y-56.3
X89.998Y-70.162
X95.3Y-90.225
X97.975Y-72.425
X99.478Y-98.624
X100.35Y-105.197
X100.85Y-55.675
X101.275Y-94.675
X101.454Y-110.1
X103.775Y-106.925
X112.725Y-97.925
T2
X74.07Y-38.3
X76.61Y-38.25
X79.15Y-38.3
X81.69Y-38.3
X84.23Y-38.3
T3
X24.047Y-17.644
X24.047Y-32.864
X25.317Y-18.95
X25.317Y-34.19
X26.587Y-17.644
X26.587Y-32.864
X27.857Y-18.95
X27.857Y-34.19
X29.127Y-17.644
X29.127Y-32.864
X30.397Y-18.95
X30.397Y-34.19
X31.667Y-17.644
X31.667Y-32.864
X32.937Y-18.95
X32.937Y-34.19
X34.207Y-17.644
X34.207Y-32.864
X35.477Y-18.95
X35.477Y-34.19
X36.747Y-17.644
X36.747Y-32.864
X38.017Y-18.95
X38.017Y-34.19
X39.287Y-17.644
X39.287Y-32.864
X40.557Y-18.95
X40.557Y-34.19
X41.827Y-17.644
X41.827Y-32.864
X43.097Y-18.95
X43.097Y-34.19
X44.367Y-17.644
X44.367Y-32.864
X45.637Y-18.95
X45.637Y-34.19
X46.907Y-17.644
X46.907Y-32.864
X48.177Y-18.95
X48.177Y-34.19
X49.447Y-17.644
X49.447Y-32.864
X50.717Y-18.95
X50.717Y-34.19
X51.987Y-17.644
X51.987Y-32.864
X53.257Y-18.95
X53.257Y-34.19
T5
X22.05Y-37.7
X22.05Y-44.2
T4
G00X58.175Y-25.625
M15
G01X58.175Y-26.125
M16
G05
G00X58.175Y-28.625
M15
G01X58.175Y-29.125
M16
G05
G00X58.175Y-32.625
M15
G01X58.175Y-33.125
M16
G05
G00X59.925Y-34.125
M15
G01X59.925Y-34.625
M16
G05
G00X62.375Y-34.125
M15
G01X62.375Y-34.625
M16
G05
G00X64.125Y-25.625
M15
G01X64.125Y-26.125
M16
G05
G00X64.125Y-28.625
M15
G01X64.125Y-29.125
M16
G05
G00X64.125Y-32.625
M15
G01X64.125Y-33.125
M16
G05
T0
M30
