M48
; DRILL file {KiCad (6.0.9)} date Tue Jan  3 16:32:55 2023
; FORMAT={-:-/ absolute / metric / decimal}
; #@! TF.CreationDate,2023-01-03T16:32:55+09:00
; #@! TF.GenerationSoftware,Kicad,Pcbnew,(6.0.9)
; #@! TF.FileFunction,NonPlated,1,2,NPTH
FMAT,2
METRIC
; #@! TA.AperFunction,NonPlated,NPTH,ComponentDrill
T1C1.200
; #@! TA.AperFunction,NonPlated,NPTH,ComponentDrill
T2C1.702
; #@! TA.AperFunction,NonPlated,NPTH,ComponentDrill
T3C3.000
; #@! TA.AperFunction,NonPlated,NPTH,ComponentDrill
T4C3.988
; #@! TA.AperFunction,NonPlated,NPTH,ComponentDrill
T5C5.000
%
G90
G05
T1
X60.275Y-24.075
X60.275Y-31.075
X62.025Y-24.075
X62.025Y-31.075
T2
X23.82Y-56.35
X23.82Y-91.275
X23.87Y-73.85
X33.98Y-56.35
X33.98Y-91.275
X34.03Y-73.85
X40.395Y-68.6
X40.395Y-86.075
X40.415Y-51.075
X50.555Y-68.6
X50.555Y-86.075
X50.575Y-51.075
X56.885Y-48.53
X56.895Y-65.975
X56.97Y-83.45
X61.82Y-102.7
X67.045Y-48.53
X67.055Y-65.975
X67.13Y-83.45
X71.98Y-102.7
X73.37Y-83.475
X73.42Y-65.95
X73.445Y-48.52
X80.345Y-102.725
X83.53Y-83.475
X83.58Y-65.95
X83.605Y-48.52
X89.82Y-50.225
X89.87Y-67.725
X89.87Y-85.25
X90.505Y-102.725
X99.98Y-50.225
X100.03Y-67.725
X100.03Y-85.25
X102.272Y-103.643
X112.278Y-105.407
T3
X25.09Y-53.81
X25.09Y-88.735
X25.14Y-71.31
X26.36Y-51.27
X26.36Y-86.195
X26.41Y-68.77
X31.44Y-51.27
X31.44Y-86.195
X31.49Y-68.77
X32.71Y-53.9
X32.71Y-88.825
X32.76Y-71.4
X41.665Y-66.06
X41.665Y-83.535
X41.685Y-48.535
X42.935Y-63.52
X42.935Y-80.995
X42.955Y-45.995
X48.015Y-63.52
X48.015Y-80.995
X48.035Y-45.995
X49.285Y-66.15
X49.285Y-83.625
X49.305Y-48.625
X58.155Y-45.99
X58.165Y-63.435
X58.24Y-80.91
X59.425Y-43.45
X59.435Y-60.895
X59.51Y-78.37
X63.09Y-100.16
X64.36Y-97.62
X64.505Y-43.45
X64.515Y-60.895
X64.59Y-78.37
X65.775Y-46.08
X65.785Y-63.525
X65.86Y-81.0
X69.44Y-97.62
X70.71Y-100.25
X74.64Y-80.935
X74.69Y-63.41
X74.715Y-45.98
X75.91Y-78.395
X75.96Y-60.87
X75.985Y-43.44
X80.99Y-78.395
X81.04Y-60.87
X81.065Y-43.44
X81.615Y-100.185
X82.26Y-81.025
X82.31Y-63.5
X82.335Y-46.07
X82.885Y-97.645
X87.965Y-97.645
X89.235Y-100.275
X91.09Y-47.685
X91.14Y-65.185
X91.14Y-82.71
X92.36Y-45.145
X92.41Y-62.645
X92.41Y-80.17
X97.44Y-45.145
X97.49Y-62.645
X97.49Y-80.17
X98.71Y-47.775
X98.76Y-65.275
X98.76Y-82.8
X103.964Y-101.362
X105.656Y-99.081
X110.659Y-99.963
X111.453Y-102.774
T4
X28.9Y-56.35
X28.9Y-91.275
X28.95Y-73.85
X45.475Y-68.6
X45.475Y-86.075
X45.495Y-51.075
X61.965Y-48.53
X61.975Y-65.975
X62.05Y-83.45
X66.9Y-102.7
X78.45Y-83.475
X78.5Y-65.95
X78.525Y-48.52
X85.425Y-102.725
X94.9Y-50.225
X94.95Y-67.725
X94.95Y-85.25
X107.275Y-104.525
T5
X28.925Y-106.375
X28.95Y-41.375
X94.95Y-39.775
X96.45Y-102.475
T0
M30
