<?xml version="1.0"?>
<!DOCTYPE svg PUBLIC "-//W3C//DTD SVG 1.1//EN" "http://www.w3.org/Graphics/SVG/1.1/DTD/svg11.dtd">
<svg width="101.74383194614533mm" height="85.72782946234152mm" viewBox="0 0 101.74383194614533 85.72782946234152" xmlns="http://www.w3.org/2000/svg" version="1.1">
<g id="Sketch019" transform="translate(104.700215,6.992982) scale(1,-1)">
<path id="Sketch019_w0000"  d="M -18.05272674560547 3.085188117333999 A 2.91031 2.91031 0 0 1 -20.963 5.99549L -100.98459662827148 5.995493489062525 A 2.71813 2.71813 0 0 1 -103.703 3.27736L -103.70272674560543 -51.00036621093741 L -101.7027267456054 -51.00036621093741 L -101.7027267456054 -53.000366210937216 L -102.98045374560529 -53.000366210937216 A 0.722273 0.722273 0 0 1 -103.703 -53.7226L -103.70272674560542 -72.19165873266603 A 2.30871 2.30871 0 0 1 -101.394 -74.5004L -79.53075774560544 -74.50036621093751 A 0.828031 0.828031 0 0 1 -78.7027 -73.6723L -78.70272674560533 -72.50036621093737 L -76.70272674560543 -72.50036621093739 L -76.70272674560543 -73.68753821093749 A 0.812828 0.812828 0 0 1 -75.8899 -74.5004L -70.53147482510205 -74.50036621093749 A 14.1049 14.1049 0 0 1 -66.8764 -74.0186L -58.970134468408645 -71.89731108685416 A 22.5987 22.5987 0 0 0 -53.114 -71.1254L -45.43181766356816 -71.12536621093753 A 26.8432 26.8432 0 0 0 -42.6259 -71.2724L -33.278906639514716 -72.25482855558587 A 26.0938 26.0938 0 0 0 -29.6938 -72.887L -10.5103464247916 -77.66995132585181 A 2.26929 2.26929 0 0 1 -7.75948 -76.0171L -4.735143152844568 -63.887126468101016 A 26.3016 26.3016 0 0 1 -3.95387 -57.5242L -3.9538718964433457 -52.676024210937506 A 0.975658 0.975658 0 0 1 -4.92953 -51.7004L -5.9538718964433395 -51.7003662109375 L -5.9538718964433395 -49.70036621093741 L -5.648698896443308 -49.70036621093741 A 1.69483 1.69483 0 0 1 -3.95387 -48.0055L -3.95387189644335 -43.18566509529808 A 1.57288 1.57288 0 0 1 -5.09321 -41.6737L -15.428262715175013 -38.710182832498546 A 0.489531 0.489531 0 0 1 -16.0527 -39.1808L -16.05272674560545 -39.957629881682635 L -18.05272674560547 -39.957629881682635 L -18.05272674560547 3.085188117333999 " stroke="#191919" stroke-width="0.35 px" style="stroke-width:0.35;stroke-miterlimit:4;stroke-dasharray:none;fill:none;fill-opacity:1;fill-rule: evenodd"/>
<path id="Sketch019_w0001"  d="M -75.01146274560543 -58.70036621093744 A 1.69126 1.69126 0 0 1 -76.7027 -60.3916L -76.70272674560543 -65.50036621093764 L -78.70272674560545 -65.50036621093764 L -78.70272674560545 -55.32099221093746 A 2.32063 2.32063 0 0 1 -81.0234 -53.0004L -94.70272674560537 -53.0003662109375 L -94.70272674560537 -51.0003662109375 L -77.72946174560543 -51.00036621093752 A 1.02673 1.02673 0 0 0 -76.7027 -52.0271L -76.70272674560553 -56.347913210937534 A 1.65245 1.65245 0 0 1 -75.0503 -58.0004L -70.94119061600753 -58.000366210937656 A 3.41097 3.41097 0 0 1 -68.7338 -57.1898L -61.78696823268109 -51.2928513363445 A 1.23081 1.23081 0 0 0 -60.9904 -51.0004L -20.041435478271474 -51.00036621093748 A 1.98871 1.98871 0 0 1 -18.0527 -49.0117L -18.052726745605465 -46.9576298816826 L -16.05272674560551 -46.9576298816826 L -16.052726745605497 -48.59940721093754 A 1.10096 1.10096 0 0 1 -14.9518 -49.7004L -12.953871896443331 -49.70036621093756 L -12.953871896443331 -51.70036621093751 L -60.80328356367773 -51.70036621093751 A 1.04052 1.04052 0 0 1 -61.4767 -51.9476L -68.92163864640432 -58.26745477573201 A 1.82174 1.82174 0 0 0 -70.1006 -58.7004L -75.01146274560543 -58.70036621093744 " stroke="#191919" stroke-width="0.35 px" style="stroke-width:0.35;stroke-miterlimit:4;stroke-dasharray:none;fill:none;fill-opacity:1;fill-rule: evenodd"/>
<circle cx="-71.70272674560539" cy="-68.645462" r="2.5" stroke="#191919" stroke-width="0.35 px" style="stroke-width:0.35;stroke-miterlimit:4;stroke-dasharray:none;fill:none"/>
<circle cx="-72.70272674560543" cy="-54.00036621093758" r="2.5" stroke="#191919" stroke-width="0.35 px" style="stroke-width:0.35;stroke-miterlimit:4;stroke-dasharray:none;fill:none"/>
<title>b'\xe3\x83\x99\xe3\x83\xbc\xe3\x82\xb9010'</title>
</g>
</svg>