%TF.GenerationSoftware,KiCad,Pcbnew,(6.0.6)*%
%TF.CreationDate,2022-12-14T08:05:18+09:00*%
%TF.ProjectId,split-mini__right,73706c69-742d-46d6-996e-695f5f726967,rev?*%
%TF.SameCoordinates,Original*%
%TF.FileFunction,Soldermask,Bot*%
%TF.FilePolarity,Negative*%
%FSLAX46Y46*%
G04 Gerber Fmt 4.6, Leading zero omitted, Abs format (unit mm)*
G04 Created by KiCad (PCBNEW (6.0.6)) date 2022-12-14 08:05:18*
%MOMM*%
%LPD*%
G01*
G04 APERTURE LIST*
G04 Aperture macros list*
%AMRoundRect*
0 Rectangle with rounded corners*
0 $1 Rounding radius*
0 $2 $3 $4 $5 $6 $7 $8 $9 X,Y pos of 4 corners*
0 Add a 4 corners polygon primitive as box body*
4,1,4,$2,$3,$4,$5,$6,$7,$8,$9,$2,$3,0*
0 Add four circle primitives for the rounded corners*
1,1,$1+$1,$2,$3*
1,1,$1+$1,$4,$5*
1,1,$1+$1,$6,$7*
1,1,$1+$1,$8,$9*
0 Add four rect primitives between the rounded corners*
20,1,$1+$1,$2,$3,$4,$5,0*
20,1,$1+$1,$4,$5,$6,$7,0*
20,1,$1+$1,$6,$7,$8,$9,0*
20,1,$1+$1,$8,$9,$2,$3,0*%
G04 Aperture macros list end*
%TA.AperFunction,Profile*%
%ADD10C,0.100000*%
%TD*%
%ADD11C,1.900000*%
%ADD12C,4.100000*%
%ADD13C,3.000000*%
%ADD14R,2.550000X2.500000*%
%ADD15C,0.650000*%
%ADD16R,0.580000X1.400000*%
%ADD17R,0.280000X1.400000*%
%ADD18O,1.000000X1.800000*%
%ADD19O,1.000000X2.100000*%
%ADD20RoundRect,0.137500X-0.137500X0.600000X-0.137500X-0.600000X0.137500X-0.600000X0.137500X0.600000X0*%
%ADD21RoundRect,0.137500X-0.600000X0.137500X-0.600000X-0.137500X0.600000X-0.137500X0.600000X0.137500X0*%
%ADD22RoundRect,0.250000X-0.625000X0.375000X-0.625000X-0.375000X0.625000X-0.375000X0.625000X0.375000X0*%
%ADD23RoundRect,0.250000X0.262500X0.450000X-0.262500X0.450000X-0.262500X-0.450000X0.262500X-0.450000X0*%
%ADD24RoundRect,0.250000X-0.475000X0.250000X-0.475000X-0.250000X0.475000X-0.250000X0.475000X0.250000X0*%
%ADD25C,1.200000*%
%ADD26RoundRect,0.250000X0.250000X0.475000X-0.250000X0.475000X-0.250000X-0.475000X0.250000X-0.475000X0*%
%ADD27R,0.650000X1.050000*%
%ADD28R,1.800000X2.100000*%
%ADD29RoundRect,0.250000X-0.250000X-0.475000X0.250000X-0.475000X0.250000X0.475000X-0.250000X0.475000X0*%
%ADD30RoundRect,0.250000X0.450000X-0.262500X0.450000X0.262500X-0.450000X0.262500X-0.450000X-0.262500X0*%
%ADD31RoundRect,0.250000X-0.450000X0.262500X-0.450000X-0.262500X0.450000X-0.262500X0.450000X0.262500X0*%
G04 APERTURE END LIST*
D10*
X26100000Y-26400000D02*
X26100000Y-18900000D01*
X19600000Y-18900000D02*
X19600000Y-35900000D01*
X23825000Y-95725000D02*
X114600000Y-95725000D01*
X114600000Y-26400000D02*
X110600000Y-26400000D01*
X99600000Y-19100000D02*
X99600000Y-26400000D01*
X23825000Y-35900000D02*
X19600000Y-35900000D01*
X23825000Y-35900000D02*
X23825000Y-95725000D01*
X110600000Y-19100000D02*
X99600000Y-19100000D01*
X26100000Y-18900000D02*
X19600000Y-18900000D01*
X114600000Y-95725000D02*
X114600000Y-26400000D01*
X99600000Y-26400000D02*
X26100000Y-26400000D01*
X110600000Y-26400000D02*
X110600000Y-19100000D01*
D11*
%TO.C,SW15*%
X110180000Y-73850000D03*
D12*
X105100000Y-73850000D03*
D13*
X101290000Y-71310000D03*
D11*
X100020000Y-73850000D03*
D13*
X107640000Y-68770000D03*
D14*
X98015000Y-71310000D03*
X110942000Y-68770000D03*
%TD*%
D11*
%TO.C,SW7*%
X50520000Y-52400000D03*
X60680000Y-52400000D03*
D13*
X58140000Y-47320000D03*
D12*
X55600000Y-52400000D03*
D13*
X51790000Y-49860000D03*
D14*
X48515000Y-49860000D03*
X61442000Y-47320000D03*
%TD*%
D11*
%TO.C,SW3*%
X67020000Y-35870000D03*
D13*
X68290000Y-33330000D03*
D12*
X72100000Y-35870000D03*
D13*
X74640000Y-30790000D03*
D11*
X77180000Y-35870000D03*
D14*
X65015000Y-33330000D03*
X77942000Y-30790000D03*
%TD*%
D13*
%TO.C,SW6*%
X41640000Y-47320000D03*
D11*
X34020000Y-52400000D03*
D12*
X39100000Y-52400000D03*
D11*
X44180000Y-52400000D03*
D13*
X35290000Y-49860000D03*
D14*
X32015000Y-49860000D03*
X44942000Y-47320000D03*
%TD*%
D13*
%TO.C,SW17*%
X52380000Y-81140000D03*
D11*
X44760000Y-86220000D03*
D12*
X49840000Y-86220000D03*
D13*
X46030000Y-83680000D03*
D11*
X54920000Y-86220000D03*
D14*
X42755000Y-83680000D03*
X55682000Y-81140000D03*
%TD*%
D13*
%TO.C,SW14*%
X91110000Y-66270000D03*
X84760000Y-68810000D03*
D12*
X88570000Y-71350000D03*
D11*
X93650000Y-71350000D03*
X83490000Y-71350000D03*
D14*
X81485000Y-68810000D03*
X94412000Y-66270000D03*
%TD*%
D13*
%TO.C,SW9*%
X84760000Y-52320000D03*
D12*
X88570000Y-54860000D03*
D13*
X91110000Y-49780000D03*
D11*
X93650000Y-54860000D03*
X83490000Y-54860000D03*
D14*
X81485000Y-52320000D03*
X94412000Y-49780000D03*
%TD*%
D13*
%TO.C,SW8*%
X68270000Y-49840000D03*
D11*
X67000000Y-52380000D03*
D12*
X72080000Y-52380000D03*
D13*
X74620000Y-47300000D03*
D11*
X77160000Y-52380000D03*
D14*
X64995000Y-49840000D03*
X77922000Y-47300000D03*
%TD*%
D11*
%TO.C,SW10*%
X110190000Y-57400000D03*
D12*
X105110000Y-57400000D03*
D11*
X100030000Y-57400000D03*
D13*
X101300000Y-54860000D03*
X107650000Y-52320000D03*
D14*
X98025000Y-54860000D03*
X110952000Y-52320000D03*
%TD*%
D12*
%TO.C,SW11*%
X39130000Y-68950000D03*
D13*
X35320000Y-66410000D03*
D11*
X44210000Y-68950000D03*
D13*
X41670000Y-63870000D03*
D11*
X34050000Y-68950000D03*
D14*
X32045000Y-66410000D03*
X44972000Y-63870000D03*
%TD*%
D11*
%TO.C,SW1*%
X34040000Y-35870000D03*
X44200000Y-35870000D03*
D13*
X35310000Y-33330000D03*
X41660000Y-30790000D03*
D12*
X39120000Y-35870000D03*
D14*
X32035000Y-33330000D03*
X44962000Y-30790000D03*
%TD*%
D13*
%TO.C,SW12*%
X51790000Y-66360000D03*
D11*
X60680000Y-68900000D03*
D13*
X58140000Y-63820000D03*
D11*
X50520000Y-68900000D03*
D12*
X55600000Y-68900000D03*
D14*
X48515000Y-66360000D03*
X61442000Y-63820000D03*
%TD*%
D11*
%TO.C,SW5*%
X110210000Y-40870000D03*
X100050000Y-40870000D03*
D13*
X107670000Y-35790000D03*
X101320000Y-38330000D03*
D12*
X105130000Y-40870000D03*
D14*
X98045000Y-38330000D03*
X110972000Y-35790000D03*
%TD*%
D11*
%TO.C,SW2*%
X50530000Y-35870000D03*
D12*
X55610000Y-35870000D03*
D13*
X58150000Y-30790000D03*
X51800000Y-33330000D03*
D11*
X60690000Y-35870000D03*
D14*
X48525000Y-33330000D03*
X61452000Y-30790000D03*
%TD*%
D11*
%TO.C,SW13*%
X77180000Y-68900000D03*
X67020000Y-68900000D03*
D13*
X68290000Y-66360000D03*
X74640000Y-63820000D03*
D12*
X72100000Y-68900000D03*
D14*
X65015000Y-66360000D03*
X77942000Y-63820000D03*
%TD*%
D11*
%TO.C,SW16*%
X28270000Y-86200000D03*
D13*
X35890000Y-81120000D03*
D11*
X38430000Y-86200000D03*
D13*
X29540000Y-83660000D03*
D12*
X33350000Y-86200000D03*
D14*
X26265000Y-83660000D03*
X39192000Y-81120000D03*
%TD*%
D12*
%TO.C,SW4*%
X88600000Y-38350000D03*
D11*
X93680000Y-38350000D03*
X83520000Y-38350000D03*
D13*
X84790000Y-35810000D03*
X91140000Y-33270000D03*
D14*
X81515000Y-35810000D03*
X94442000Y-33270000D03*
%TD*%
D11*
%TO.C,SW18*%
X61280000Y-86210000D03*
D13*
X68900000Y-81130000D03*
X62550000Y-83670000D03*
D11*
X71440000Y-86210000D03*
D12*
X66360000Y-86210000D03*
D14*
X59275000Y-83670000D03*
X72202000Y-81130000D03*
%TD*%
D15*
%TO.C,J1*%
X102210000Y-24140000D03*
X107990000Y-24140000D03*
D16*
X101900000Y-25340000D03*
X102700000Y-25340000D03*
D17*
X103850000Y-25340000D03*
X104850000Y-25340000D03*
X105350000Y-25340000D03*
X106350000Y-25340000D03*
D16*
X107500000Y-25340000D03*
X108300000Y-25340000D03*
X108300000Y-25340000D03*
X107500000Y-25340000D03*
D17*
X106850000Y-25340000D03*
X105850000Y-25340000D03*
X104350000Y-25340000D03*
X103350000Y-25340000D03*
D16*
X102700000Y-25340000D03*
X101900000Y-25340000D03*
D18*
X109420000Y-20460000D03*
D19*
X100780000Y-24640000D03*
X109420000Y-24640000D03*
D18*
X100780000Y-20460000D03*
%TD*%
D20*
%TO.C,U1*%
X88390000Y-79352500D03*
X89190000Y-79352500D03*
X89990000Y-79352500D03*
X90790000Y-79352500D03*
X91590000Y-79352500D03*
X92390000Y-79352500D03*
X93190000Y-79352500D03*
X93990000Y-79352500D03*
X94790000Y-79352500D03*
X95590000Y-79352500D03*
X96390000Y-79352500D03*
D21*
X98052500Y-81015000D03*
X98052500Y-81815000D03*
X98052500Y-82615000D03*
X98052500Y-83415000D03*
X98052500Y-84215000D03*
X98052500Y-85015000D03*
X98052500Y-85815000D03*
X98052500Y-86615000D03*
X98052500Y-87415000D03*
X98052500Y-88215000D03*
X98052500Y-89015000D03*
D20*
X96390000Y-90677500D03*
X95590000Y-90677500D03*
X94790000Y-90677500D03*
X93990000Y-90677500D03*
X93190000Y-90677500D03*
X92390000Y-90677500D03*
X91590000Y-90677500D03*
X90790000Y-90677500D03*
X89990000Y-90677500D03*
X89190000Y-90677500D03*
X88390000Y-90677500D03*
D21*
X86727500Y-89015000D03*
X86727500Y-88215000D03*
X86727500Y-87415000D03*
X86727500Y-86615000D03*
X86727500Y-85815000D03*
X86727500Y-85015000D03*
X86727500Y-84215000D03*
X86727500Y-83415000D03*
X86727500Y-82615000D03*
X86727500Y-81815000D03*
X86727500Y-81015000D03*
%TD*%
D22*
%TO.C,F1*%
X110900000Y-28500000D03*
X110900000Y-31300000D03*
%TD*%
D23*
%TO.C,R5*%
X83232500Y-92385000D03*
X81407500Y-92385000D03*
%TD*%
%TO.C,R1*%
X99150000Y-31500000D03*
X97325000Y-31500000D03*
%TD*%
D24*
%TO.C,C5*%
X106750000Y-77700000D03*
X106750000Y-79600000D03*
%TD*%
D25*
%TO.C,J2*%
X22900000Y-27350000D03*
X22900000Y-20350000D03*
%TD*%
D26*
%TO.C,C7*%
X109450000Y-82750000D03*
X107550000Y-82750000D03*
%TD*%
D23*
%TO.C,R2*%
X99130000Y-28810000D03*
X97305000Y-28810000D03*
%TD*%
D27*
%TO.C,RESET1*%
X26720000Y-36820000D03*
X26720000Y-40980000D03*
X28880000Y-36820000D03*
X28880000Y-40980000D03*
%TD*%
D28*
%TO.C,Y1*%
X107300000Y-88650000D03*
X107300000Y-85750000D03*
X109500000Y-85750000D03*
X109500000Y-88650000D03*
%TD*%
D29*
%TO.C,C4*%
X98100000Y-93565000D03*
X100000000Y-93565000D03*
%TD*%
D24*
%TO.C,C2*%
X94650000Y-73250000D03*
X94650000Y-75150000D03*
%TD*%
D30*
%TO.C,R6*%
X29100000Y-48212500D03*
X29100000Y-46387500D03*
%TD*%
D26*
%TO.C,C6*%
X109500000Y-92050000D03*
X107600000Y-92050000D03*
%TD*%
D31*
%TO.C,R4*%
X96750000Y-42200000D03*
X96750000Y-42200000D03*
X96750000Y-44025000D03*
%TD*%
%TO.C,R3*%
X94020000Y-42190000D03*
X94020000Y-44015000D03*
%TD*%
D24*
%TO.C,C3*%
X79650000Y-83000000D03*
X79650000Y-84900000D03*
%TD*%
D29*
%TO.C,C1*%
X96000000Y-61700000D03*
X97900000Y-61700000D03*
%TD*%
M02*
