0
SECTION
2
HEADER
9
$INSUNITS
70
4
0
ENDSEC
0
SECTION
2
TABLES
0
TABLE
2
LTYPE
0
LTYPE
72
65
70
64
2
CONTINUOUS
3
______
73
0
40
0
0
ENDTAB
0
TABLE
2
LAYER
0
ENDTAB
0
ENDSEC
0
SECTION
2
ENTITIES
0
LINE
8
0
10
50.75
20
-13.625
11
64.75
21
-13.625
0
LINE
8
0
10
50.75
20
-27.625
11
64.75
21
-27.625
0
LINE
8
0
10
50.75
20
-13.625
11
50.75
21
-27.625
0
LINE
8
0
10
64.75
20
-13.625
11
64.75
21
-27.625
0
LINE
8
0
10
67.25
20
-13.625
11
81.25
21
-13.625
0
LINE
8
0
10
67.25
20
-27.625
11
81.25
21
-27.625
0
LINE
8
0
10
67.25
20
-13.625
11
67.25
21
-27.625
0
LINE
8
0
10
81.25
20
-13.625
11
81.25
21
-27.625
0
LINE
8
0
10
83.75
20
-13.625
11
97.75
21
-13.625
0
LINE
8
0
10
83.75
20
-27.625
11
97.75
21
-27.625
0
LINE
8
0
10
83.75
20
-13.625
11
83.75
21
-27.625
0
LINE
8
0
10
97.75
20
-13.625
11
97.75
21
-27.625
0
LINE
8
0
10
34.25
20
-16.1
11
48.25
21
-16.1
0
LINE
8
0
10
34.25
20
-30.1
11
48.25
21
-30.1
0
LINE
8
0
10
34.25
20
-16.1
11
34.25
21
-30.1
0
LINE
8
0
10
48.25
20
-16.1
11
48.25
21
-30.1
0
LINE
8
0
10
17.75
20
-18.575
11
31.75
21
-18.575
0
LINE
8
0
10
17.75
20
-32.575
11
31.75
21
-32.575
0
LINE
8
0
10
17.75
20
-18.575
11
17.75
21
-32.575
0
LINE
8
0
10
31.75
20
-18.575
11
31.75
21
-32.575
0
LINE
8
0
10
50.75
20
-30.125
11
64.75
21
-30.125
0
LINE
8
0
10
50.75
20
-44.125
11
64.75
21
-44.125
0
LINE
8
0
10
50.75
20
-30.125
11
50.75
21
-44.125
0
LINE
8
0
10
64.75
20
-30.125
11
64.75
21
-44.125
0
LINE
8
0
10
67.25
20
-30.125
11
81.25
21
-30.125
0
LINE
8
0
10
67.25
20
-44.125
11
81.25
21
-44.125
0
LINE
8
0
10
67.25
20
-30.125
11
67.25
21
-44.125
0
LINE
8
0
10
81.25
20
-30.125
11
81.25
21
-44.125
0
LINE
8
0
10
83.75
20
-30.125
11
97.75
21
-30.125
0
LINE
8
0
10
83.75
20
-44.125
11
97.75
21
-44.125
0
LINE
8
0
10
83.75
20
-30.125
11
83.75
21
-44.125
0
LINE
8
0
10
97.75
20
-30.125
11
97.75
21
-44.125
0
LINE
8
0
10
34.25
20
-32.6
11
48.25
21
-32.6
0
LINE
8
0
10
34.25
20
-46.6
11
48.25
21
-46.6
0
LINE
8
0
10
34.25
20
-32.6
11
34.25
21
-46.6
0
LINE
8
0
10
48.25
20
-32.6
11
48.25
21
-46.6
0
LINE
8
0
10
17.75
20
-35.075
11
31.75
21
-35.075
0
LINE
8
0
10
17.75
20
-49.075
11
31.75
21
-49.075
0
LINE
8
0
10
17.75
20
-35.075
11
17.75
21
-49.075
0
LINE
8
0
10
31.75
20
-35.075
11
31.75
21
-49.075
0
LINE
8
0
10
50.75
20
-46.625
11
64.75
21
-46.625
0
LINE
8
0
10
50.75
20
-60.625
11
64.75
21
-60.625
0
LINE
8
0
10
50.75
20
-46.625
11
50.75
21
-60.625
0
LINE
8
0
10
64.75
20
-46.625
11
64.75
21
-60.625
0
LINE
8
0
10
67.25
20
-46.625
11
81.25
21
-46.625
0
LINE
8
0
10
67.25
20
-60.625
11
81.25
21
-60.625
0
LINE
8
0
10
67.25
20
-46.625
11
67.25
21
-60.625
0
LINE
8
0
10
81.25
20
-46.625
11
81.25
21
-60.625
0
LINE
8
0
10
83.75
20
-46.625
11
97.75
21
-46.625
0
LINE
8
0
10
83.75
20
-60.625
11
97.75
21
-60.625
0
LINE
8
0
10
83.75
20
-46.625
11
83.75
21
-60.625
0
LINE
8
0
10
97.75
20
-46.625
11
97.75
21
-60.625
0
LINE
8
0
10
34.25
20
-49.1
11
48.25
21
-49.1
0
LINE
8
0
10
34.25
20
-63.1
11
48.25
21
-63.1
0
LINE
8
0
10
34.25
20
-49.1
11
34.25
21
-63.1
0
LINE
8
0
10
48.25
20
-49.1
11
48.25
21
-63.1
0
LINE
8
0
10
17.75
20
-51.575
11
31.75
21
-51.575
0
LINE
8
0
10
17.75
20
-65.575
11
31.75
21
-65.575
0
LINE
8
0
10
17.75
20
-51.575
11
17.75
21
-65.575
0
LINE
8
0
10
31.75
20
-51.575
11
31.75
21
-65.575
0
LINE
8
0
10
56.525
20
-63.95
11
70.525
21
-63.95
0
LINE
8
0
10
56.525
20
-77.95
11
70.525
21
-77.95
0
LINE
8
0
10
56.525
20
-63.95
11
56.525
21
-77.95
0
LINE
8
0
10
70.525
20
-63.95
11
70.525
21
-77.95
0
LINE
8
0
10
73.025
20
-63.95
11
87.025
21
-63.95
0
LINE
8
0
10
73.025
20
-77.95
11
87.025
21
-77.95
0
LINE
8
0
10
73.025
20
-63.95
11
73.025
21
-77.95
0
LINE
8
0
10
87.025
20
-63.95
11
87.025
21
-77.95
0
LINE
8
0
10
89.525
20
-63.95
11
103.525
21
-63.95
0
LINE
8
0
10
89.525
20
-77.95
11
103.525
21
-77.95
0
LINE
8
0
10
89.525
20
-63.95
11
89.525
21
-77.95
0
LINE
8
0
10
103.525
20
-63.95
11
103.525
21
-77.95
0
LINE
8
0
10
16.5
20
-79.2
11
104.775
21
-79.2
0
LINE
8
0
10
16.5
20
-12.375
11
104.775
21
-12.375
0
LINE
8
0
10
16.5
20
-79.2
11
16.5
21
-12.375
0
LINE
8
0
10
104.775
20
-79.2
11
104.775
21
-12.375
0
ENDSEC
0
EOF