%TF.GenerationSoftware,KiCad,Pcbnew,(6.0.9)*%
%TF.CreationDate,2023-01-03T16:43:59+09:00*%
%TF.ProjectId,split-mini__top,73706c69-742d-46d6-996e-695f5f746f70,rev?*%
%TF.SameCoordinates,Original*%
%TF.FileFunction,Legend,Top*%
%TF.FilePolarity,Positive*%
%FSLAX46Y46*%
G04 Gerber Fmt 4.6, Leading zero omitted, Abs format (unit mm)*
G04 Created by KiCad (PCBNEW (6.0.9)) date 2023-01-03 16:43:59*
%MOMM*%
%LPD*%
G01*
G04 APERTURE LIST*
%TA.AperFunction,Profile*%
%ADD10C,0.100000*%
%TD*%
%ADD11C,0.300000*%
%TA.AperFunction,Profile*%
%ADD12C,0.120000*%
%TD*%
%ADD13C,0.350000*%
%ADD14C,2.200000*%
G04 APERTURE END LIST*
D10*
X119667171Y-97563496D02*
X103950000Y-94792135D01*
X19950000Y-36475000D02*
X103950000Y-36475000D01*
X116541504Y-115290036D02*
X119667171Y-97563496D01*
X96323180Y-111725000D02*
X116541504Y-115290036D01*
X19950000Y-36475000D02*
X19950000Y-111725000D01*
X19950000Y-111725000D02*
X96323180Y-111725000D01*
X103950000Y-94792135D02*
X103950000Y-36475000D01*
D11*
X32021428Y-38985714D02*
X32135714Y-39042857D01*
X32364285Y-39042857D01*
X32478571Y-38985714D01*
X32535714Y-38871428D01*
X32535714Y-38814285D01*
X32478571Y-38700000D01*
X32364285Y-38642857D01*
X32192857Y-38642857D01*
X32078571Y-38585714D01*
X32021428Y-38471428D01*
X32021428Y-38414285D01*
X32078571Y-38300000D01*
X32192857Y-38242857D01*
X32364285Y-38242857D01*
X32478571Y-38300000D01*
X33050000Y-38242857D02*
X33050000Y-39442857D01*
X33050000Y-38300000D02*
X33164285Y-38242857D01*
X33392857Y-38242857D01*
X33507142Y-38300000D01*
X33564285Y-38357142D01*
X33621428Y-38471428D01*
X33621428Y-38814285D01*
X33564285Y-38928571D01*
X33507142Y-38985714D01*
X33392857Y-39042857D01*
X33164285Y-39042857D01*
X33050000Y-38985714D01*
X34307142Y-39042857D02*
X34192857Y-38985714D01*
X34135714Y-38871428D01*
X34135714Y-37842857D01*
X34764285Y-39042857D02*
X34764285Y-38242857D01*
X34764285Y-37842857D02*
X34707142Y-37900000D01*
X34764285Y-37957142D01*
X34821428Y-37900000D01*
X34764285Y-37842857D01*
X34764285Y-37957142D01*
X35164285Y-38242857D02*
X35621428Y-38242857D01*
X35335714Y-37842857D02*
X35335714Y-38871428D01*
X35392857Y-38985714D01*
X35507142Y-39042857D01*
X35621428Y-39042857D01*
X36935714Y-39042857D02*
X36935714Y-38242857D01*
X36935714Y-38357142D02*
X36992857Y-38300000D01*
X37107142Y-38242857D01*
X37278571Y-38242857D01*
X37392857Y-38300000D01*
X37450000Y-38414285D01*
X37450000Y-39042857D01*
X37450000Y-38414285D02*
X37507142Y-38300000D01*
X37621428Y-38242857D01*
X37792857Y-38242857D01*
X37907142Y-38300000D01*
X37964285Y-38414285D01*
X37964285Y-39042857D01*
X38535714Y-39042857D02*
X38535714Y-38242857D01*
X38535714Y-37842857D02*
X38478571Y-37900000D01*
X38535714Y-37957142D01*
X38592857Y-37900000D01*
X38535714Y-37842857D01*
X38535714Y-37957142D01*
X39107142Y-38242857D02*
X39107142Y-39042857D01*
X39107142Y-38357142D02*
X39164285Y-38300000D01*
X39278571Y-38242857D01*
X39450000Y-38242857D01*
X39564285Y-38300000D01*
X39621428Y-38414285D01*
X39621428Y-39042857D01*
X40192857Y-39042857D02*
X40192857Y-38242857D01*
X40192857Y-37842857D02*
X40135714Y-37900000D01*
X40192857Y-37957142D01*
X40250000Y-37900000D01*
X40192857Y-37842857D01*
X40192857Y-37957142D01*
X41678571Y-39042857D02*
X41678571Y-38242857D01*
X41678571Y-38471428D02*
X41735714Y-38357142D01*
X41792857Y-38300000D01*
X41907142Y-38242857D01*
X42021428Y-38242857D01*
X42878571Y-38985714D02*
X42764285Y-39042857D01*
X42535714Y-39042857D01*
X42421428Y-38985714D01*
X42364285Y-38871428D01*
X42364285Y-38414285D01*
X42421428Y-38300000D01*
X42535714Y-38242857D01*
X42764285Y-38242857D01*
X42878571Y-38300000D01*
X42935714Y-38414285D01*
X42935714Y-38528571D01*
X42364285Y-38642857D01*
X43335714Y-38242857D02*
X43621428Y-39042857D01*
X43907142Y-38242857D01*
X44592857Y-37842857D02*
X44707142Y-37842857D01*
X44821428Y-37900000D01*
X44878571Y-37957142D01*
X44935714Y-38071428D01*
X44992857Y-38300000D01*
X44992857Y-38585714D01*
X44935714Y-38814285D01*
X44878571Y-38928571D01*
X44821428Y-38985714D01*
X44707142Y-39042857D01*
X44592857Y-39042857D01*
X44478571Y-38985714D01*
X44421428Y-38928571D01*
X44364285Y-38814285D01*
X44307142Y-38585714D01*
X44307142Y-38300000D01*
X44364285Y-38071428D01*
X44421428Y-37957142D01*
X44478571Y-37900000D01*
X44592857Y-37842857D01*
X45507142Y-38928571D02*
X45564285Y-38985714D01*
X45507142Y-39042857D01*
X45450000Y-38985714D01*
X45507142Y-38928571D01*
X45507142Y-39042857D01*
X46707142Y-39042857D02*
X46021428Y-39042857D01*
X46364285Y-39042857D02*
X46364285Y-37842857D01*
X46250000Y-38014285D01*
X46135714Y-38128571D01*
X46021428Y-38185714D01*
X47164285Y-37957142D02*
X47221428Y-37900000D01*
X47335714Y-37842857D01*
X47621428Y-37842857D01*
X47735714Y-37900000D01*
X47792857Y-37957142D01*
X47850000Y-38071428D01*
X47850000Y-38185714D01*
X47792857Y-38357142D01*
X47107142Y-39042857D01*
X47850000Y-39042857D01*
X49278571Y-38928571D02*
X49335714Y-38985714D01*
X49278571Y-39042857D01*
X49221428Y-38985714D01*
X49278571Y-38928571D01*
X49278571Y-39042857D01*
X49278571Y-38300000D02*
X49335714Y-38357142D01*
X49278571Y-38414285D01*
X49221428Y-38357142D01*
X49278571Y-38300000D01*
X49278571Y-38414285D01*
X51278571Y-39042857D02*
X51278571Y-37842857D01*
X51278571Y-38985714D02*
X51164285Y-39042857D01*
X50935714Y-39042857D01*
X50821428Y-38985714D01*
X50764285Y-38928571D01*
X50707142Y-38814285D01*
X50707142Y-38471428D01*
X50764285Y-38357142D01*
X50821428Y-38300000D01*
X50935714Y-38242857D01*
X51164285Y-38242857D01*
X51278571Y-38300000D01*
X52307142Y-38985714D02*
X52192857Y-39042857D01*
X51964285Y-39042857D01*
X51850000Y-38985714D01*
X51792857Y-38871428D01*
X51792857Y-38414285D01*
X51850000Y-38300000D01*
X51964285Y-38242857D01*
X52192857Y-38242857D01*
X52307142Y-38300000D01*
X52364285Y-38414285D01*
X52364285Y-38528571D01*
X51792857Y-38642857D01*
X52821428Y-38985714D02*
X52935714Y-39042857D01*
X53164285Y-39042857D01*
X53278571Y-38985714D01*
X53335714Y-38871428D01*
X53335714Y-38814285D01*
X53278571Y-38700000D01*
X53164285Y-38642857D01*
X52992857Y-38642857D01*
X52878571Y-38585714D01*
X52821428Y-38471428D01*
X52821428Y-38414285D01*
X52878571Y-38300000D01*
X52992857Y-38242857D01*
X53164285Y-38242857D01*
X53278571Y-38300000D01*
X53850000Y-39042857D02*
X53850000Y-38242857D01*
X53850000Y-37842857D02*
X53792857Y-37900000D01*
X53850000Y-37957142D01*
X53907142Y-37900000D01*
X53850000Y-37842857D01*
X53850000Y-37957142D01*
X54935714Y-38242857D02*
X54935714Y-39214285D01*
X54878571Y-39328571D01*
X54821428Y-39385714D01*
X54707142Y-39442857D01*
X54535714Y-39442857D01*
X54421428Y-39385714D01*
X54935714Y-38985714D02*
X54821428Y-39042857D01*
X54592857Y-39042857D01*
X54478571Y-38985714D01*
X54421428Y-38928571D01*
X54364285Y-38814285D01*
X54364285Y-38471428D01*
X54421428Y-38357142D01*
X54478571Y-38300000D01*
X54592857Y-38242857D01*
X54821428Y-38242857D01*
X54935714Y-38300000D01*
X55507142Y-38242857D02*
X55507142Y-39042857D01*
X55507142Y-38357142D02*
X55564285Y-38300000D01*
X55678571Y-38242857D01*
X55850000Y-38242857D01*
X55964285Y-38300000D01*
X56021428Y-38414285D01*
X56021428Y-39042857D01*
X57050000Y-38985714D02*
X56935714Y-39042857D01*
X56707142Y-39042857D01*
X56592857Y-38985714D01*
X56535714Y-38871428D01*
X56535714Y-38414285D01*
X56592857Y-38300000D01*
X56707142Y-38242857D01*
X56935714Y-38242857D01*
X57050000Y-38300000D01*
X57107142Y-38414285D01*
X57107142Y-38528571D01*
X56535714Y-38642857D01*
X58135714Y-39042857D02*
X58135714Y-37842857D01*
X58135714Y-38985714D02*
X58021428Y-39042857D01*
X57792857Y-39042857D01*
X57678571Y-38985714D01*
X57621428Y-38928571D01*
X57564285Y-38814285D01*
X57564285Y-38471428D01*
X57621428Y-38357142D01*
X57678571Y-38300000D01*
X57792857Y-38242857D01*
X58021428Y-38242857D01*
X58135714Y-38300000D01*
X59621428Y-39042857D02*
X59621428Y-37842857D01*
X59621428Y-38300000D02*
X59735714Y-38242857D01*
X59964285Y-38242857D01*
X60078571Y-38300000D01*
X60135714Y-38357142D01*
X60192857Y-38471428D01*
X60192857Y-38814285D01*
X60135714Y-38928571D01*
X60078571Y-38985714D01*
X59964285Y-39042857D01*
X59735714Y-39042857D01*
X59621428Y-38985714D01*
X60592857Y-38242857D02*
X60878571Y-39042857D01*
X61164285Y-38242857D02*
X60878571Y-39042857D01*
X60764285Y-39328571D01*
X60707142Y-39385714D01*
X60592857Y-39442857D01*
X62364285Y-38242857D02*
X62821428Y-38242857D01*
X62535714Y-37842857D02*
X62535714Y-38871428D01*
X62592857Y-38985714D01*
X62707142Y-39042857D01*
X62821428Y-39042857D01*
X63735714Y-39042857D02*
X63735714Y-38414285D01*
X63678571Y-38300000D01*
X63564285Y-38242857D01*
X63335714Y-38242857D01*
X63221428Y-38300000D01*
X63735714Y-38985714D02*
X63621428Y-39042857D01*
X63335714Y-39042857D01*
X63221428Y-38985714D01*
X63164285Y-38871428D01*
X63164285Y-38757142D01*
X63221428Y-38642857D01*
X63335714Y-38585714D01*
X63621428Y-38585714D01*
X63735714Y-38528571D01*
X64307142Y-39042857D02*
X64307142Y-38242857D01*
X64307142Y-38357142D02*
X64364285Y-38300000D01*
X64478571Y-38242857D01*
X64650000Y-38242857D01*
X64764285Y-38300000D01*
X64821428Y-38414285D01*
X64821428Y-39042857D01*
X64821428Y-38414285D02*
X64878571Y-38300000D01*
X64992857Y-38242857D01*
X65164285Y-38242857D01*
X65278571Y-38300000D01*
X65335714Y-38414285D01*
X65335714Y-39042857D01*
X66421428Y-39042857D02*
X66421428Y-38414285D01*
X66364285Y-38300000D01*
X66250000Y-38242857D01*
X66021428Y-38242857D01*
X65907142Y-38300000D01*
X66421428Y-38985714D02*
X66307142Y-39042857D01*
X66021428Y-39042857D01*
X65907142Y-38985714D01*
X65850000Y-38871428D01*
X65850000Y-38757142D01*
X65907142Y-38642857D01*
X66021428Y-38585714D01*
X66307142Y-38585714D01*
X66421428Y-38528571D01*
X67507142Y-38242857D02*
X67507142Y-39214285D01*
X67450000Y-39328571D01*
X67392857Y-39385714D01*
X67278571Y-39442857D01*
X67107142Y-39442857D01*
X66992857Y-39385714D01*
X67507142Y-38985714D02*
X67392857Y-39042857D01*
X67164285Y-39042857D01*
X67050000Y-38985714D01*
X66992857Y-38928571D01*
X66935714Y-38814285D01*
X66935714Y-38471428D01*
X66992857Y-38357142D01*
X67050000Y-38300000D01*
X67164285Y-38242857D01*
X67392857Y-38242857D01*
X67507142Y-38300000D01*
X68250000Y-39042857D02*
X68135714Y-38985714D01*
X68078571Y-38928571D01*
X68021428Y-38814285D01*
X68021428Y-38471428D01*
X68078571Y-38357142D01*
X68135714Y-38300000D01*
X68250000Y-38242857D01*
X68421428Y-38242857D01*
X68535714Y-38300000D01*
X68592857Y-38357142D01*
X68650000Y-38471428D01*
X68650000Y-38814285D01*
X68592857Y-38928571D01*
X68535714Y-38985714D01*
X68421428Y-39042857D01*
X68250000Y-39042857D01*
X69050000Y-37842857D02*
X69792857Y-37842857D01*
X69392857Y-38300000D01*
X69564285Y-38300000D01*
X69678571Y-38357142D01*
X69735714Y-38414285D01*
X69792857Y-38528571D01*
X69792857Y-38814285D01*
X69735714Y-38928571D01*
X69678571Y-38985714D01*
X69564285Y-39042857D01*
X69221428Y-39042857D01*
X69107142Y-38985714D01*
X69050000Y-38928571D01*
X70250000Y-37957142D02*
X70307142Y-37900000D01*
X70421428Y-37842857D01*
X70707142Y-37842857D01*
X70821428Y-37900000D01*
X70878571Y-37957142D01*
X70935714Y-38071428D01*
X70935714Y-38185714D01*
X70878571Y-38357142D01*
X70192857Y-39042857D01*
X70935714Y-39042857D01*
X71964285Y-38242857D02*
X71964285Y-39042857D01*
X71678571Y-37785714D02*
X71392857Y-38642857D01*
X72135714Y-38642857D01*
D12*
%TO.C,SW6*%
X35950000Y-80850000D02*
X35950000Y-66850000D01*
X21950000Y-66850000D02*
X21950000Y-80850000D01*
X21950000Y-80850000D02*
X35950000Y-80850000D01*
X35950000Y-66850000D02*
X21950000Y-66850000D01*
%TO.C,SW11*%
X35900000Y-98275000D02*
X35900000Y-84275000D01*
X21900000Y-84275000D02*
X21900000Y-98275000D01*
X21900000Y-98275000D02*
X35900000Y-98275000D01*
X35900000Y-84275000D02*
X21900000Y-84275000D01*
%TO.C,SW9*%
X85500000Y-72950000D02*
X85500000Y-58950000D01*
X71500000Y-58950000D02*
X71500000Y-72950000D01*
X71500000Y-72950000D02*
X85500000Y-72950000D01*
X85500000Y-58950000D02*
X71500000Y-58950000D01*
%TO.C,SW3*%
X68965000Y-55530000D02*
X68965000Y-41530000D01*
X54965000Y-41530000D02*
X54965000Y-55530000D01*
X54965000Y-55530000D02*
X68965000Y-55530000D01*
X68965000Y-41530000D02*
X54965000Y-41530000D01*
%TO.C,SW5*%
X101900000Y-57225000D02*
X101900000Y-43225000D01*
X87900000Y-43225000D02*
X87900000Y-57225000D01*
X87900000Y-57225000D02*
X101900000Y-57225000D01*
X101900000Y-43225000D02*
X87900000Y-43225000D01*
%TO.C,SW15*%
X101950000Y-92250000D02*
X101950000Y-78250000D01*
X87950000Y-78250000D02*
X87950000Y-92250000D01*
X87950000Y-92250000D02*
X101950000Y-92250000D01*
X101950000Y-78250000D02*
X87950000Y-78250000D01*
%TO.C,SW7*%
X52475000Y-75600000D02*
X52475000Y-61600000D01*
X38475000Y-61600000D02*
X38475000Y-75600000D01*
X38475000Y-75600000D02*
X52475000Y-75600000D01*
X52475000Y-61600000D02*
X38475000Y-61600000D01*
%TO.C,SW16*%
X73900000Y-109700000D02*
X73900000Y-95700000D01*
X59900000Y-95700000D02*
X59900000Y-109700000D01*
X59900000Y-109700000D02*
X73900000Y-109700000D01*
X73900000Y-95700000D02*
X59900000Y-95700000D01*
%TO.C,SW18*%
X112953117Y-112634192D02*
X115384192Y-98846883D01*
X101596883Y-96415808D02*
X99165808Y-110203117D01*
X99165808Y-110203117D02*
X112953117Y-112634192D01*
X115384192Y-98846883D02*
X101596883Y-96415808D01*
%TO.C,SW8*%
X68975000Y-72975000D02*
X68975000Y-58975000D01*
X54975000Y-58975000D02*
X54975000Y-72975000D01*
X54975000Y-72975000D02*
X68975000Y-72975000D01*
X68975000Y-58975000D02*
X54975000Y-58975000D01*
%TO.C,SW17*%
X92425000Y-109725000D02*
X92425000Y-95725000D01*
X78425000Y-95725000D02*
X78425000Y-109725000D01*
X78425000Y-109725000D02*
X92425000Y-109725000D01*
X92425000Y-95725000D02*
X78425000Y-95725000D01*
%TO.C,SW10*%
X101950000Y-74725000D02*
X101950000Y-60725000D01*
X87950000Y-60725000D02*
X87950000Y-74725000D01*
X87950000Y-74725000D02*
X101950000Y-74725000D01*
X101950000Y-60725000D02*
X87950000Y-60725000D01*
%TO.C,SW2*%
X52495000Y-58075000D02*
X52495000Y-44075000D01*
X38495000Y-44075000D02*
X38495000Y-58075000D01*
X38495000Y-58075000D02*
X52495000Y-58075000D01*
X52495000Y-44075000D02*
X38495000Y-44075000D01*
%TO.C,SW13*%
X69050000Y-90450000D02*
X69050000Y-76450000D01*
X55050000Y-76450000D02*
X55050000Y-90450000D01*
X55050000Y-90450000D02*
X69050000Y-90450000D01*
X69050000Y-76450000D02*
X55050000Y-76450000D01*
%TO.C,SW12*%
X52475000Y-93075000D02*
X52475000Y-79075000D01*
X38475000Y-79075000D02*
X38475000Y-93075000D01*
X38475000Y-93075000D02*
X52475000Y-93075000D01*
X52475000Y-79075000D02*
X38475000Y-79075000D01*
%TO.C,SW14*%
X85450000Y-90475000D02*
X85450000Y-76475000D01*
X71450000Y-76475000D02*
X71450000Y-90475000D01*
X71450000Y-90475000D02*
X85450000Y-90475000D01*
X85450000Y-76475000D02*
X71450000Y-76475000D01*
%TO.C,SW1*%
X35900000Y-63350000D02*
X35900000Y-49350000D01*
X21900000Y-49350000D02*
X21900000Y-63350000D01*
X21900000Y-63350000D02*
X35900000Y-63350000D01*
X35900000Y-49350000D02*
X21900000Y-49350000D01*
%TO.C,SW4*%
X85525000Y-55520000D02*
X85525000Y-41520000D01*
X71525000Y-41520000D02*
X71525000Y-55520000D01*
X71525000Y-55520000D02*
X85525000Y-55520000D01*
X85525000Y-41520000D02*
X71525000Y-41520000D01*
%TD*%
D13*
X94950000Y-39775000D03*
X28925000Y-106375000D03*
X96450000Y-102475000D03*
X28950000Y-41375000D03*
%LPC*%
D14*
%TO.C,HOLE3*%
X94950000Y-39775000D03*
%TD*%
%TO.C,HOLE4*%
X28925000Y-106375000D03*
%TD*%
%TO.C,HOLE2*%
X96450000Y-102475000D03*
%TD*%
%TO.C,HOLE1*%
X28950000Y-41375000D03*
%TD*%
M02*
