M48
; DRILL file {KiCad (6.0.9)} date 2023年01月09日 12時39分33秒
; FORMAT={-:-/ absolute / metric / decimal}
; #@! TF.CreationDate,2023-01-09T12:39:33+09:00
; #@! TF.GenerationSoftware,Kicad,Pcbnew,(6.0.9)
; #@! TF.FileFunction,Plated,1,2,PTH
FMAT,2
METRIC
; #@! TA.AperFunction,Plated,PTH,ViaDrill
T1C0.400
; #@! TA.AperFunction,Plated,PTH,ComponentDrill
T2C0.600
; #@! TA.AperFunction,Plated,PTH,ComponentDrill
T3C1.000
%
G90
G05
T1
X27.8Y-24.2
X41.1Y-97.1
X47.625Y-45.25
X48.475Y-77.35
X48.65Y-61.95
X58.55Y-96.9
X64.3Y-75.9
X64.6Y-45.4
X65.0Y-62.675
X76.3Y-96.25
X80.85Y-62.575
X80.976Y-80.526
X81.044Y-93.298
X81.132Y-92.302
X81.556Y-91.397
X81.841Y-90.439
X81.977Y-89.449
X82.125Y-45.425
X82.2Y-88.474
X84.6Y-84.6
X85.215Y-69.0
X85.25Y-35.9
X86.143Y-68.025
X86.2Y-98.075
X86.225Y-52.1
X86.625Y-80.075
X87.056Y-80.976
X87.325Y-82.025
X87.513Y-98.137
X88.552Y-98.216
X88.975Y-80.4
X89.675Y-98.175
X90.95Y-98.2
X91.175Y-83.475
X92.175Y-82.925
X93.212Y-83.062
X93.644Y-82.161
X94.175Y-100.275
X94.425Y-31.95
X95.425Y-29.0
X96.775Y-87.275
X97.712Y-52.162
X98.2Y-91.625
X98.5Y-86.325
X98.875Y-52.0
X99.3Y-92.1
X99.35Y-34.9
X99.381Y-78.249
X100.05Y-86.95
X100.1Y-93.0
X100.685Y-93.81
X101.025Y-88.95
X103.7Y-34.45
X108.2Y-32.8
X114.7Y-86.8
X114.7Y-88.0
X114.825Y-85.6
T2
G00X91.43Y-20.71
M15
G01X91.43Y-21.51
M16
G05
G00X91.43Y-24.74
M15
G01X91.43Y-25.84
M16
G05
G00X100.07Y-20.71
M15
G01X100.07Y-21.51
M16
G05
G00X100.07Y-24.74
M15
G01X100.07Y-25.84
M16
G05
T3
G00X24.35Y-22.825
M15
G01X24.35Y-22.325
M16
G05
G00X24.35Y-25.825
M15
G01X24.35Y-25.325
M16
G05
G00X24.35Y-29.825
M15
G01X24.35Y-29.325
M16
G05
G00X28.55Y-31.325
M15
G01X28.55Y-30.825
M16
G05
T0
M30
