%TF.GenerationSoftware,KiCad,Pcbnew,(6.0.9)*%
%TF.CreationDate,2023-01-09T12:39:33+09:00*%
%TF.ProjectId,split-mini__right,73706c69-742d-46d6-996e-695f5f726967,rev?*%
%TF.SameCoordinates,Original*%
%TF.FileFunction,Legend,Top*%
%TF.FilePolarity,Positive*%
%FSLAX46Y46*%
G04 Gerber Fmt 4.6, Leading zero omitted, Abs format (unit mm)*
G04 Created by KiCad (PCBNEW (6.0.9)) date 2023-01-09 12:39:33*
%MOMM*%
%LPD*%
G01*
G04 APERTURE LIST*
%TA.AperFunction,Profile*%
%ADD10C,0.100000*%
%TD*%
%ADD11C,0.350000*%
%ADD12O,0.600000X1.400000*%
%ADD13O,0.600000X1.700000*%
%ADD14O,1.000000X1.500000*%
%ADD15C,1.900000*%
%ADD16C,3.000000*%
%ADD17C,4.100000*%
%ADD18C,0.650000*%
%ADD19O,1.000000X1.800000*%
%ADD20O,1.000000X2.100000*%
%ADD21C,1.200000*%
%ADD22O,1.700000X2.500000*%
G04 APERTURE END LIST*
D10*
X90236197Y-19693424D02*
X101236197Y-19693424D01*
X117950000Y-101175000D02*
X23150000Y-101175000D01*
X117950000Y-30325000D02*
X117950000Y-101175000D01*
X23150000Y-101175000D02*
X23150000Y-19325000D01*
X29650000Y-30325000D02*
X84236197Y-30325000D01*
X29650000Y-19325000D02*
X29650000Y-30325000D01*
X84236197Y-30325000D02*
X84236197Y-24325000D01*
X101236197Y-19693424D02*
X101236197Y-30325000D01*
X84236197Y-24325000D02*
X90236197Y-24325000D01*
X90236197Y-24325000D02*
X90236197Y-19693424D01*
X101236197Y-30325000D02*
X117950000Y-30325000D01*
X23150000Y-19325000D02*
X29650000Y-19325000D01*
D11*
X27800000Y-24200000D03*
X108200000Y-32800000D03*
X41100000Y-97100000D03*
X90950000Y-98200000D03*
X58550000Y-96900000D03*
X89675000Y-98175000D03*
X76300000Y-96250000D03*
X88552262Y-98215632D03*
X48475000Y-77350000D03*
X87512500Y-98137500D03*
X86200000Y-98075000D03*
X64300000Y-75900000D03*
X48650000Y-61950000D03*
X81043566Y-93297605D03*
X65000000Y-62675000D03*
X81131794Y-92302005D03*
X80976305Y-80526305D03*
X81556248Y-91397105D03*
X80850000Y-62575000D03*
X81841185Y-90439077D03*
X47625000Y-45250000D03*
X81977407Y-89448901D03*
X64600000Y-45400000D03*
X82200000Y-88474500D03*
X82125000Y-45425000D03*
X84600000Y-84600000D03*
X94175000Y-100275000D03*
X98500000Y-86325000D03*
X86143357Y-68025500D03*
X88975000Y-80400000D03*
X85214500Y-69000000D03*
X86225000Y-52100000D03*
X85250000Y-35900000D03*
X93212500Y-83062500D03*
X92175000Y-82925000D03*
X91175000Y-83475000D03*
X98200000Y-91625000D03*
X96775000Y-87275000D03*
X94425000Y-31950000D03*
X114700000Y-88000000D03*
X100685199Y-93810276D03*
X114700000Y-86800000D03*
X100100000Y-93000000D03*
X100050000Y-86950000D03*
X101024799Y-88949799D03*
X87324500Y-82025500D03*
X93643741Y-82160815D03*
X99350000Y-34900000D03*
X99380787Y-78249143D03*
X103700000Y-34450000D03*
X95425000Y-29000000D03*
X86625000Y-80074500D03*
X97712500Y-52162500D03*
X87056186Y-80976212D03*
X98875000Y-52000000D03*
X99300000Y-92100000D03*
X114825000Y-85600000D03*
X79530000Y-73850000D03*
X69370000Y-73850000D03*
X70640000Y-71310000D03*
X76990000Y-68770000D03*
X74450000Y-73850000D03*
X113530000Y-80650000D03*
X108450000Y-80650000D03*
X104640000Y-78110000D03*
X103370000Y-80650000D03*
X110990000Y-75570000D03*
X52355000Y-56855000D03*
X62515000Y-56855000D03*
X59975000Y-51775000D03*
X57435000Y-56855000D03*
X53625000Y-54315000D03*
X69370000Y-39825000D03*
X70640000Y-37285000D03*
X74450000Y-39825000D03*
X76990000Y-34745000D03*
X79530000Y-39825000D03*
X42940000Y-51770000D03*
X35320000Y-56850000D03*
X40400000Y-56850000D03*
X45480000Y-56850000D03*
X36590000Y-54310000D03*
X53190000Y-86620000D03*
X45570000Y-91700000D03*
X50650000Y-91700000D03*
X46840000Y-89160000D03*
X55730000Y-91700000D03*
X93975000Y-71310000D03*
X87625000Y-73850000D03*
X91435000Y-76390000D03*
X96515000Y-76390000D03*
X86355000Y-76390000D03*
X87640000Y-56835000D03*
X91450000Y-59375000D03*
X93990000Y-54295000D03*
X96530000Y-59375000D03*
X86370000Y-59375000D03*
X70640000Y-54310000D03*
X69370000Y-56850000D03*
X74450000Y-56850000D03*
X76990000Y-51770000D03*
X79530000Y-56850000D03*
X113530000Y-63650000D03*
X108450000Y-63650000D03*
X103370000Y-63650000D03*
X104640000Y-61110000D03*
X110990000Y-58570000D03*
X40450000Y-73850000D03*
X36640000Y-71310000D03*
X45530000Y-73850000D03*
X42990000Y-68770000D03*
X35370000Y-73850000D03*
X35370000Y-39825000D03*
X45530000Y-39825000D03*
X36640000Y-37285000D03*
X42990000Y-34745000D03*
X40450000Y-39825000D03*
X53615000Y-71310000D03*
X62505000Y-73850000D03*
X59965000Y-68770000D03*
X52345000Y-73850000D03*
X57425000Y-73850000D03*
X113555000Y-46650000D03*
X103395000Y-46650000D03*
X111015000Y-41570000D03*
X104665000Y-44110000D03*
X108475000Y-46650000D03*
X52395000Y-39850000D03*
X57475000Y-39850000D03*
X60015000Y-34770000D03*
X53665000Y-37310000D03*
X62555000Y-39850000D03*
X28570000Y-91700000D03*
X36190000Y-86620000D03*
X38730000Y-91700000D03*
X29840000Y-89160000D03*
X33650000Y-91700000D03*
X91450000Y-42400000D03*
X96530000Y-42400000D03*
X86370000Y-42400000D03*
X87640000Y-39860000D03*
X93990000Y-37320000D03*
X62570000Y-91725000D03*
X70190000Y-86645000D03*
X63840000Y-89185000D03*
X72730000Y-91725000D03*
X67650000Y-91725000D03*
X92860000Y-24790000D03*
X98640000Y-24790000D03*
D12*
X100070000Y-21110000D03*
D13*
X91430000Y-25290000D03*
X100070000Y-25290000D03*
D12*
X91430000Y-21110000D03*
D11*
X26450000Y-27775000D03*
X26450000Y-20775000D03*
D14*
X28550000Y-31075000D03*
X24350000Y-22575000D03*
X24350000Y-25575000D03*
X24350000Y-29575000D03*
%LPC*%
D15*
%TO.C,SW13*%
X79530000Y-73850000D03*
X69370000Y-73850000D03*
D16*
X70640000Y-71310000D03*
X76990000Y-68770000D03*
D17*
X74450000Y-73850000D03*
%TD*%
D15*
%TO.C,SW15*%
X113530000Y-80650000D03*
D17*
X108450000Y-80650000D03*
D16*
X104640000Y-78110000D03*
D15*
X103370000Y-80650000D03*
D16*
X110990000Y-75570000D03*
%TD*%
D15*
%TO.C,SW7*%
X52355000Y-56855000D03*
X62515000Y-56855000D03*
D16*
X59975000Y-51775000D03*
D17*
X57435000Y-56855000D03*
D16*
X53625000Y-54315000D03*
%TD*%
D15*
%TO.C,SW3*%
X69370000Y-39825000D03*
D16*
X70640000Y-37285000D03*
D17*
X74450000Y-39825000D03*
D16*
X76990000Y-34745000D03*
D15*
X79530000Y-39825000D03*
%TD*%
D16*
%TO.C,SW6*%
X42940000Y-51770000D03*
D15*
X35320000Y-56850000D03*
D17*
X40400000Y-56850000D03*
D15*
X45480000Y-56850000D03*
D16*
X36590000Y-54310000D03*
%TD*%
%TO.C,SW17*%
X53190000Y-86620000D03*
D15*
X45570000Y-91700000D03*
D17*
X50650000Y-91700000D03*
D16*
X46840000Y-89160000D03*
D15*
X55730000Y-91700000D03*
%TD*%
D16*
%TO.C,SW14*%
X93975000Y-71310000D03*
X87625000Y-73850000D03*
D17*
X91435000Y-76390000D03*
D15*
X96515000Y-76390000D03*
X86355000Y-76390000D03*
%TD*%
D16*
%TO.C,SW9*%
X87640000Y-56835000D03*
D17*
X91450000Y-59375000D03*
D16*
X93990000Y-54295000D03*
D15*
X96530000Y-59375000D03*
X86370000Y-59375000D03*
%TD*%
D16*
%TO.C,SW8*%
X70640000Y-54310000D03*
D15*
X69370000Y-56850000D03*
D17*
X74450000Y-56850000D03*
D16*
X76990000Y-51770000D03*
D15*
X79530000Y-56850000D03*
%TD*%
%TO.C,SW10*%
X113530000Y-63650000D03*
D17*
X108450000Y-63650000D03*
D15*
X103370000Y-63650000D03*
D16*
X104640000Y-61110000D03*
X110990000Y-58570000D03*
%TD*%
D17*
%TO.C,SW11*%
X40450000Y-73850000D03*
D16*
X36640000Y-71310000D03*
D15*
X45530000Y-73850000D03*
D16*
X42990000Y-68770000D03*
D15*
X35370000Y-73850000D03*
%TD*%
%TO.C,SW1*%
X35370000Y-39825000D03*
X45530000Y-39825000D03*
D16*
X36640000Y-37285000D03*
X42990000Y-34745000D03*
D17*
X40450000Y-39825000D03*
%TD*%
D16*
%TO.C,SW12*%
X53615000Y-71310000D03*
D15*
X62505000Y-73850000D03*
D16*
X59965000Y-68770000D03*
D15*
X52345000Y-73850000D03*
D17*
X57425000Y-73850000D03*
%TD*%
D15*
%TO.C,SW5*%
X113555000Y-46650000D03*
X103395000Y-46650000D03*
D16*
X111015000Y-41570000D03*
X104665000Y-44110000D03*
D17*
X108475000Y-46650000D03*
%TD*%
D15*
%TO.C,SW2*%
X52395000Y-39850000D03*
D17*
X57475000Y-39850000D03*
D16*
X60015000Y-34770000D03*
X53665000Y-37310000D03*
D15*
X62555000Y-39850000D03*
%TD*%
%TO.C,SW16*%
X28570000Y-91700000D03*
D16*
X36190000Y-86620000D03*
D15*
X38730000Y-91700000D03*
D16*
X29840000Y-89160000D03*
D17*
X33650000Y-91700000D03*
%TD*%
%TO.C,SW4*%
X91450000Y-42400000D03*
D15*
X96530000Y-42400000D03*
X86370000Y-42400000D03*
D16*
X87640000Y-39860000D03*
X93990000Y-37320000D03*
%TD*%
D15*
%TO.C,SW18*%
X62570000Y-91725000D03*
D16*
X70190000Y-86645000D03*
X63840000Y-89185000D03*
D15*
X72730000Y-91725000D03*
D17*
X67650000Y-91725000D03*
%TD*%
D18*
%TO.C,J1*%
X92860000Y-24790000D03*
X98640000Y-24790000D03*
D19*
X100070000Y-21110000D03*
D20*
X91430000Y-25290000D03*
X100070000Y-25290000D03*
D19*
X91430000Y-21110000D03*
%TD*%
D21*
%TO.C,J2*%
X26450000Y-27775000D03*
X26450000Y-20775000D03*
D22*
X28550000Y-31075000D03*
X24350000Y-22575000D03*
X24350000Y-25575000D03*
X24350000Y-29575000D03*
%TD*%
M02*
