%TF.GenerationSoftware,KiCad,Pcbnew,(6.0.9)*%
%TF.CreationDate,2023-01-09T12:39:33+09:00*%
%TF.ProjectId,split-mini__right,73706c69-742d-46d6-996e-695f5f726967,rev?*%
%TF.SameCoordinates,Original*%
%TF.FileFunction,Legend,Bot*%
%TF.FilePolarity,Positive*%
%FSLAX46Y46*%
G04 Gerber Fmt 4.6, Leading zero omitted, Abs format (unit mm)*
G04 Created by KiCad (PCBNEW (6.0.9)) date 2023-01-09 12:39:33*
%MOMM*%
%LPD*%
G01*
G04 APERTURE LIST*
G04 Aperture macros list*
%AMRoundRect*
0 Rectangle with rounded corners*
0 $1 Rounding radius*
0 $2 $3 $4 $5 $6 $7 $8 $9 X,Y pos of 4 corners*
0 Add a 4 corners polygon primitive as box body*
4,1,4,$2,$3,$4,$5,$6,$7,$8,$9,$2,$3,0*
0 Add four circle primitives for the rounded corners*
1,1,$1+$1,$2,$3*
1,1,$1+$1,$4,$5*
1,1,$1+$1,$6,$7*
1,1,$1+$1,$8,$9*
0 Add four rect primitives between the rounded corners*
20,1,$1+$1,$2,$3,$4,$5,0*
20,1,$1+$1,$4,$5,$6,$7,0*
20,1,$1+$1,$6,$7,$8,$9,0*
20,1,$1+$1,$8,$9,$2,$3,0*%
G04 Aperture macros list end*
%ADD10C,0.100000*%
%TA.AperFunction,Profile*%
%ADD11C,0.100000*%
%TD*%
%ADD12C,0.200000*%
%ADD13C,0.150000*%
%ADD14C,0.120000*%
%ADD15C,0.350000*%
%ADD16O,0.600000X1.400000*%
%ADD17O,0.600000X1.700000*%
%ADD18O,1.000000X1.500000*%
%ADD19C,1.900000*%
%ADD20C,3.000000*%
%ADD21C,4.100000*%
%ADD22R,2.550000X2.500000*%
%ADD23C,0.650000*%
%ADD24R,0.580000X1.400000*%
%ADD25R,0.280000X1.400000*%
%ADD26O,1.000000X1.800000*%
%ADD27O,1.000000X2.100000*%
%ADD28RoundRect,0.137500X-0.137500X0.600000X-0.137500X-0.600000X0.137500X-0.600000X0.137500X0.600000X0*%
%ADD29RoundRect,0.137500X-0.600000X0.137500X-0.600000X-0.137500X0.600000X-0.137500X0.600000X0.137500X0*%
%ADD30RoundRect,0.250000X-0.625000X0.375000X-0.625000X-0.375000X0.625000X-0.375000X0.625000X0.375000X0*%
%ADD31RoundRect,0.250000X0.450000X-0.262500X0.450000X0.262500X-0.450000X0.262500X-0.450000X-0.262500X0*%
%ADD32RoundRect,0.250000X-0.262500X-0.450000X0.262500X-0.450000X0.262500X0.450000X-0.262500X0.450000X0*%
%ADD33RoundRect,0.250000X-0.475000X0.250000X-0.475000X-0.250000X0.475000X-0.250000X0.475000X0.250000X0*%
%ADD34C,1.200000*%
%ADD35RoundRect,0.250000X0.250000X0.475000X-0.250000X0.475000X-0.250000X-0.475000X0.250000X-0.475000X0*%
%ADD36R,0.650000X1.050000*%
%ADD37R,1.800000X2.100000*%
%ADD38RoundRect,0.250000X-0.250000X-0.475000X0.250000X-0.475000X0.250000X0.475000X-0.250000X0.475000X0*%
%ADD39RoundRect,0.250000X0.262500X0.450000X-0.262500X0.450000X-0.262500X-0.450000X0.262500X-0.450000X0*%
%ADD40RoundRect,0.250000X-0.450000X0.262500X-0.450000X-0.262500X0.450000X-0.262500X0.450000X0.262500X0*%
G04 APERTURE END LIST*
D10*
X85831982Y-86760000D02*
G75*
G03*
X85831982Y-86760000I-246982J0D01*
G01*
D11*
X90236197Y-19693424D02*
X101236197Y-19693424D01*
X117950000Y-101175000D02*
X23150000Y-101175000D01*
X117950000Y-30325000D02*
X117950000Y-101175000D01*
X23150000Y-101175000D02*
X23150000Y-19325000D01*
X29650000Y-30325000D02*
X84236197Y-30325000D01*
X29650000Y-19325000D02*
X29650000Y-30325000D01*
X84236197Y-30325000D02*
X84236197Y-24325000D01*
X101236197Y-19693424D02*
X101236197Y-30325000D01*
X84236197Y-24325000D02*
X90236197Y-24325000D01*
X90236197Y-24325000D02*
X90236197Y-19693424D01*
X101236197Y-30325000D02*
X117950000Y-30325000D01*
X23150000Y-19325000D02*
X29650000Y-19325000D01*
D12*
X72145238Y-97124761D02*
X72050000Y-97172380D01*
X71859523Y-97172380D01*
X71764285Y-97124761D01*
X71716666Y-97029523D01*
X71716666Y-96981904D01*
X71764285Y-96886666D01*
X71859523Y-96839047D01*
X72002380Y-96839047D01*
X72097619Y-96791428D01*
X72145238Y-96696190D01*
X72145238Y-96648571D01*
X72097619Y-96553333D01*
X72002380Y-96505714D01*
X71859523Y-96505714D01*
X71764285Y-96553333D01*
X71288095Y-96505714D02*
X71288095Y-97505714D01*
X71288095Y-96553333D02*
X71192857Y-96505714D01*
X71002380Y-96505714D01*
X70907142Y-96553333D01*
X70859523Y-96600952D01*
X70811904Y-96696190D01*
X70811904Y-96981904D01*
X70859523Y-97077142D01*
X70907142Y-97124761D01*
X71002380Y-97172380D01*
X71192857Y-97172380D01*
X71288095Y-97124761D01*
X70240476Y-97172380D02*
X70335714Y-97124761D01*
X70383333Y-97029523D01*
X70383333Y-96172380D01*
X69859523Y-97172380D02*
X69859523Y-96505714D01*
X69859523Y-96172380D02*
X69907142Y-96220000D01*
X69859523Y-96267619D01*
X69811904Y-96220000D01*
X69859523Y-96172380D01*
X69859523Y-96267619D01*
X69526190Y-96505714D02*
X69145238Y-96505714D01*
X69383333Y-96172380D02*
X69383333Y-97029523D01*
X69335714Y-97124761D01*
X69240476Y-97172380D01*
X69145238Y-97172380D01*
X68050000Y-97172380D02*
X68050000Y-96505714D01*
X68050000Y-96600952D02*
X68002380Y-96553333D01*
X67907142Y-96505714D01*
X67764285Y-96505714D01*
X67669047Y-96553333D01*
X67621428Y-96648571D01*
X67621428Y-97172380D01*
X67621428Y-96648571D02*
X67573809Y-96553333D01*
X67478571Y-96505714D01*
X67335714Y-96505714D01*
X67240476Y-96553333D01*
X67192857Y-96648571D01*
X67192857Y-97172380D01*
X66716666Y-97172380D02*
X66716666Y-96505714D01*
X66716666Y-96172380D02*
X66764285Y-96220000D01*
X66716666Y-96267619D01*
X66669047Y-96220000D01*
X66716666Y-96172380D01*
X66716666Y-96267619D01*
X66240476Y-96505714D02*
X66240476Y-97172380D01*
X66240476Y-96600952D02*
X66192857Y-96553333D01*
X66097619Y-96505714D01*
X65954761Y-96505714D01*
X65859523Y-96553333D01*
X65811904Y-96648571D01*
X65811904Y-97172380D01*
X65335714Y-97172380D02*
X65335714Y-96505714D01*
X65335714Y-96172380D02*
X65383333Y-96220000D01*
X65335714Y-96267619D01*
X65288095Y-96220000D01*
X65335714Y-96172380D01*
X65335714Y-96267619D01*
X64097619Y-97172380D02*
X64097619Y-96505714D01*
X64097619Y-96696190D02*
X64050000Y-96600952D01*
X64002380Y-96553333D01*
X63907142Y-96505714D01*
X63811904Y-96505714D01*
X63097619Y-97124761D02*
X63192857Y-97172380D01*
X63383333Y-97172380D01*
X63478571Y-97124761D01*
X63526190Y-97029523D01*
X63526190Y-96648571D01*
X63478571Y-96553333D01*
X63383333Y-96505714D01*
X63192857Y-96505714D01*
X63097619Y-96553333D01*
X63050000Y-96648571D01*
X63050000Y-96743809D01*
X63526190Y-96839047D01*
X62716666Y-96505714D02*
X62478571Y-97172380D01*
X62240476Y-96505714D01*
X61669047Y-96172380D02*
X61573809Y-96172380D01*
X61478571Y-96220000D01*
X61430952Y-96267619D01*
X61383333Y-96362857D01*
X61335714Y-96553333D01*
X61335714Y-96791428D01*
X61383333Y-96981904D01*
X61430952Y-97077142D01*
X61478571Y-97124761D01*
X61573809Y-97172380D01*
X61669047Y-97172380D01*
X61764285Y-97124761D01*
X61811904Y-97077142D01*
X61859523Y-96981904D01*
X61907142Y-96791428D01*
X61907142Y-96553333D01*
X61859523Y-96362857D01*
X61811904Y-96267619D01*
X61764285Y-96220000D01*
X61669047Y-96172380D01*
X60907142Y-97077142D02*
X60859523Y-97124761D01*
X60907142Y-97172380D01*
X60954761Y-97124761D01*
X60907142Y-97077142D01*
X60907142Y-97172380D01*
X59907142Y-97172380D02*
X60478571Y-97172380D01*
X60192857Y-97172380D02*
X60192857Y-96172380D01*
X60288095Y-96315238D01*
X60383333Y-96410476D01*
X60478571Y-96458095D01*
X59573809Y-96172380D02*
X58954761Y-96172380D01*
X59288095Y-96553333D01*
X59145238Y-96553333D01*
X59050000Y-96600952D01*
X59002380Y-96648571D01*
X58954761Y-96743809D01*
X58954761Y-96981904D01*
X59002380Y-97077142D01*
X59050000Y-97124761D01*
X59145238Y-97172380D01*
X59430952Y-97172380D01*
X59526190Y-97124761D01*
X59573809Y-97077142D01*
X73978571Y-98782380D02*
X73978571Y-97782380D01*
X73978571Y-98734761D02*
X74073809Y-98782380D01*
X74264285Y-98782380D01*
X74359523Y-98734761D01*
X74407142Y-98687142D01*
X74454761Y-98591904D01*
X74454761Y-98306190D01*
X74407142Y-98210952D01*
X74359523Y-98163333D01*
X74264285Y-98115714D01*
X74073809Y-98115714D01*
X73978571Y-98163333D01*
X73121428Y-98734761D02*
X73216666Y-98782380D01*
X73407142Y-98782380D01*
X73502380Y-98734761D01*
X73550000Y-98639523D01*
X73550000Y-98258571D01*
X73502380Y-98163333D01*
X73407142Y-98115714D01*
X73216666Y-98115714D01*
X73121428Y-98163333D01*
X73073809Y-98258571D01*
X73073809Y-98353809D01*
X73550000Y-98449047D01*
X72692857Y-98734761D02*
X72597619Y-98782380D01*
X72407142Y-98782380D01*
X72311904Y-98734761D01*
X72264285Y-98639523D01*
X72264285Y-98591904D01*
X72311904Y-98496666D01*
X72407142Y-98449047D01*
X72550000Y-98449047D01*
X72645238Y-98401428D01*
X72692857Y-98306190D01*
X72692857Y-98258571D01*
X72645238Y-98163333D01*
X72550000Y-98115714D01*
X72407142Y-98115714D01*
X72311904Y-98163333D01*
X71835714Y-98782380D02*
X71835714Y-98115714D01*
X71835714Y-97782380D02*
X71883333Y-97830000D01*
X71835714Y-97877619D01*
X71788095Y-97830000D01*
X71835714Y-97782380D01*
X71835714Y-97877619D01*
X70930952Y-98115714D02*
X70930952Y-98925238D01*
X70978571Y-99020476D01*
X71026190Y-99068095D01*
X71121428Y-99115714D01*
X71264285Y-99115714D01*
X71359523Y-99068095D01*
X70930952Y-98734761D02*
X71026190Y-98782380D01*
X71216666Y-98782380D01*
X71311904Y-98734761D01*
X71359523Y-98687142D01*
X71407142Y-98591904D01*
X71407142Y-98306190D01*
X71359523Y-98210952D01*
X71311904Y-98163333D01*
X71216666Y-98115714D01*
X71026190Y-98115714D01*
X70930952Y-98163333D01*
X70454761Y-98115714D02*
X70454761Y-98782380D01*
X70454761Y-98210952D02*
X70407142Y-98163333D01*
X70311904Y-98115714D01*
X70169047Y-98115714D01*
X70073809Y-98163333D01*
X70026190Y-98258571D01*
X70026190Y-98782380D01*
X69169047Y-98734761D02*
X69264285Y-98782380D01*
X69454761Y-98782380D01*
X69550000Y-98734761D01*
X69597619Y-98639523D01*
X69597619Y-98258571D01*
X69550000Y-98163333D01*
X69454761Y-98115714D01*
X69264285Y-98115714D01*
X69169047Y-98163333D01*
X69121428Y-98258571D01*
X69121428Y-98353809D01*
X69597619Y-98449047D01*
X68264285Y-98782380D02*
X68264285Y-97782380D01*
X68264285Y-98734761D02*
X68359523Y-98782380D01*
X68550000Y-98782380D01*
X68645238Y-98734761D01*
X68692857Y-98687142D01*
X68740476Y-98591904D01*
X68740476Y-98306190D01*
X68692857Y-98210952D01*
X68645238Y-98163333D01*
X68550000Y-98115714D01*
X68359523Y-98115714D01*
X68264285Y-98163333D01*
X67026190Y-98782380D02*
X67026190Y-97782380D01*
X67026190Y-98163333D02*
X66930952Y-98115714D01*
X66740476Y-98115714D01*
X66645238Y-98163333D01*
X66597619Y-98210952D01*
X66550000Y-98306190D01*
X66550000Y-98591904D01*
X66597619Y-98687142D01*
X66645238Y-98734761D01*
X66740476Y-98782380D01*
X66930952Y-98782380D01*
X67026190Y-98734761D01*
X66216666Y-98115714D02*
X65978571Y-98782380D01*
X65740476Y-98115714D02*
X65978571Y-98782380D01*
X66073809Y-99020476D01*
X66121428Y-99068095D01*
X66216666Y-99115714D01*
X64740476Y-98115714D02*
X64359523Y-98115714D01*
X64597619Y-97782380D02*
X64597619Y-98639523D01*
X64550000Y-98734761D01*
X64454761Y-98782380D01*
X64359523Y-98782380D01*
X63597619Y-98782380D02*
X63597619Y-98258571D01*
X63645238Y-98163333D01*
X63740476Y-98115714D01*
X63930952Y-98115714D01*
X64026190Y-98163333D01*
X63597619Y-98734761D02*
X63692857Y-98782380D01*
X63930952Y-98782380D01*
X64026190Y-98734761D01*
X64073809Y-98639523D01*
X64073809Y-98544285D01*
X64026190Y-98449047D01*
X63930952Y-98401428D01*
X63692857Y-98401428D01*
X63597619Y-98353809D01*
X63121428Y-98782380D02*
X63121428Y-98115714D01*
X63121428Y-98210952D02*
X63073809Y-98163333D01*
X62978571Y-98115714D01*
X62835714Y-98115714D01*
X62740476Y-98163333D01*
X62692857Y-98258571D01*
X62692857Y-98782380D01*
X62692857Y-98258571D02*
X62645238Y-98163333D01*
X62550000Y-98115714D01*
X62407142Y-98115714D01*
X62311904Y-98163333D01*
X62264285Y-98258571D01*
X62264285Y-98782380D01*
X61359523Y-98782380D02*
X61359523Y-98258571D01*
X61407142Y-98163333D01*
X61502380Y-98115714D01*
X61692857Y-98115714D01*
X61788095Y-98163333D01*
X61359523Y-98734761D02*
X61454761Y-98782380D01*
X61692857Y-98782380D01*
X61788095Y-98734761D01*
X61835714Y-98639523D01*
X61835714Y-98544285D01*
X61788095Y-98449047D01*
X61692857Y-98401428D01*
X61454761Y-98401428D01*
X61359523Y-98353809D01*
X60454761Y-98115714D02*
X60454761Y-98925238D01*
X60502380Y-99020476D01*
X60550000Y-99068095D01*
X60645238Y-99115714D01*
X60788095Y-99115714D01*
X60883333Y-99068095D01*
X60454761Y-98734761D02*
X60550000Y-98782380D01*
X60740476Y-98782380D01*
X60835714Y-98734761D01*
X60883333Y-98687142D01*
X60930952Y-98591904D01*
X60930952Y-98306190D01*
X60883333Y-98210952D01*
X60835714Y-98163333D01*
X60740476Y-98115714D01*
X60550000Y-98115714D01*
X60454761Y-98163333D01*
X59835714Y-98782380D02*
X59930952Y-98734761D01*
X59978571Y-98687142D01*
X60026190Y-98591904D01*
X60026190Y-98306190D01*
X59978571Y-98210952D01*
X59930952Y-98163333D01*
X59835714Y-98115714D01*
X59692857Y-98115714D01*
X59597619Y-98163333D01*
X59550000Y-98210952D01*
X59502380Y-98306190D01*
X59502380Y-98591904D01*
X59550000Y-98687142D01*
X59597619Y-98734761D01*
X59692857Y-98782380D01*
X59835714Y-98782380D01*
X59169047Y-97782380D02*
X58550000Y-97782380D01*
X58883333Y-98163333D01*
X58740476Y-98163333D01*
X58645238Y-98210952D01*
X58597619Y-98258571D01*
X58550000Y-98353809D01*
X58550000Y-98591904D01*
X58597619Y-98687142D01*
X58645238Y-98734761D01*
X58740476Y-98782380D01*
X59026190Y-98782380D01*
X59121428Y-98734761D01*
X59169047Y-98687142D01*
X58169047Y-97877619D02*
X58121428Y-97830000D01*
X58026190Y-97782380D01*
X57788095Y-97782380D01*
X57692857Y-97830000D01*
X57645238Y-97877619D01*
X57597619Y-97972857D01*
X57597619Y-98068095D01*
X57645238Y-98210952D01*
X58216666Y-98782380D01*
X57597619Y-98782380D01*
X56740476Y-98115714D02*
X56740476Y-98782380D01*
X56978571Y-97734761D02*
X57216666Y-98449047D01*
X56597619Y-98449047D01*
D13*
%TO.C,J1*%
X96083333Y-27287380D02*
X96083333Y-28001666D01*
X96130952Y-28144523D01*
X96226190Y-28239761D01*
X96369047Y-28287380D01*
X96464285Y-28287380D01*
X95083333Y-28287380D02*
X95654761Y-28287380D01*
X95369047Y-28287380D02*
X95369047Y-27287380D01*
X95464285Y-27430238D01*
X95559523Y-27525476D01*
X95654761Y-27573095D01*
%TO.C,U1*%
X90206904Y-90357380D02*
X90206904Y-91166904D01*
X90159285Y-91262142D01*
X90111666Y-91309761D01*
X90016428Y-91357380D01*
X89825952Y-91357380D01*
X89730714Y-91309761D01*
X89683095Y-91262142D01*
X89635476Y-91166904D01*
X89635476Y-90357380D01*
X88635476Y-91357380D02*
X89206904Y-91357380D01*
X88921190Y-91357380D02*
X88921190Y-90357380D01*
X89016428Y-90500238D01*
X89111666Y-90595476D01*
X89206904Y-90643095D01*
%TO.C,F1*%
X98823333Y-32508571D02*
X99156666Y-32508571D01*
X99156666Y-33032380D02*
X99156666Y-32032380D01*
X98680476Y-32032380D01*
X97775714Y-33032380D02*
X98347142Y-33032380D01*
X98061428Y-33032380D02*
X98061428Y-32032380D01*
X98156666Y-32175238D01*
X98251904Y-32270476D01*
X98347142Y-32318095D01*
%TO.C,R5*%
X79566666Y-97652380D02*
X79900000Y-97176190D01*
X80138095Y-97652380D02*
X80138095Y-96652380D01*
X79757142Y-96652380D01*
X79661904Y-96700000D01*
X79614285Y-96747619D01*
X79566666Y-96842857D01*
X79566666Y-96985714D01*
X79614285Y-97080952D01*
X79661904Y-97128571D01*
X79757142Y-97176190D01*
X80138095Y-97176190D01*
X78661904Y-96652380D02*
X79138095Y-96652380D01*
X79185714Y-97128571D01*
X79138095Y-97080952D01*
X79042857Y-97033333D01*
X78804761Y-97033333D01*
X78709523Y-97080952D01*
X78661904Y-97128571D01*
X78614285Y-97223809D01*
X78614285Y-97461904D01*
X78661904Y-97557142D01*
X78709523Y-97604761D01*
X78804761Y-97652380D01*
X79042857Y-97652380D01*
X79138095Y-97604761D01*
X79185714Y-97557142D01*
%TO.C,R1*%
X108926666Y-35092380D02*
X109260000Y-34616190D01*
X109498095Y-35092380D02*
X109498095Y-34092380D01*
X109117142Y-34092380D01*
X109021904Y-34140000D01*
X108974285Y-34187619D01*
X108926666Y-34282857D01*
X108926666Y-34425714D01*
X108974285Y-34520952D01*
X109021904Y-34568571D01*
X109117142Y-34616190D01*
X109498095Y-34616190D01*
X107974285Y-35092380D02*
X108545714Y-35092380D01*
X108260000Y-35092380D02*
X108260000Y-34092380D01*
X108355238Y-34235238D01*
X108450476Y-34330476D01*
X108545714Y-34378095D01*
%TO.C,C5*%
X98291666Y-85257142D02*
X98339285Y-85304761D01*
X98482142Y-85352380D01*
X98577380Y-85352380D01*
X98720238Y-85304761D01*
X98815476Y-85209523D01*
X98863095Y-85114285D01*
X98910714Y-84923809D01*
X98910714Y-84780952D01*
X98863095Y-84590476D01*
X98815476Y-84495238D01*
X98720238Y-84400000D01*
X98577380Y-84352380D01*
X98482142Y-84352380D01*
X98339285Y-84400000D01*
X98291666Y-84447619D01*
X97386904Y-84352380D02*
X97863095Y-84352380D01*
X97910714Y-84828571D01*
X97863095Y-84780952D01*
X97767857Y-84733333D01*
X97529761Y-84733333D01*
X97434523Y-84780952D01*
X97386904Y-84828571D01*
X97339285Y-84923809D01*
X97339285Y-85161904D01*
X97386904Y-85257142D01*
X97434523Y-85304761D01*
X97529761Y-85352380D01*
X97767857Y-85352380D01*
X97863095Y-85304761D01*
X97910714Y-85257142D01*
%TO.C,J2*%
X28961904Y-25177380D02*
X28390476Y-25177380D01*
X28676190Y-26177380D02*
X28676190Y-25177380D01*
X27485714Y-26177380D02*
X27819047Y-25701190D01*
X28057142Y-26177380D02*
X28057142Y-25177380D01*
X27676190Y-25177380D01*
X27580952Y-25225000D01*
X27533333Y-25272619D01*
X27485714Y-25367857D01*
X27485714Y-25510714D01*
X27533333Y-25605952D01*
X27580952Y-25653571D01*
X27676190Y-25701190D01*
X28057142Y-25701190D01*
X26485714Y-26177380D02*
X26819047Y-25701190D01*
X27057142Y-26177380D02*
X27057142Y-25177380D01*
X26676190Y-25177380D01*
X26580952Y-25225000D01*
X26533333Y-25272619D01*
X26485714Y-25367857D01*
X26485714Y-25510714D01*
X26533333Y-25605952D01*
X26580952Y-25653571D01*
X26676190Y-25701190D01*
X27057142Y-25701190D01*
X26104761Y-26129761D02*
X25961904Y-26177380D01*
X25723809Y-26177380D01*
X25628571Y-26129761D01*
X25580952Y-26082142D01*
X25533333Y-25986904D01*
X25533333Y-25891666D01*
X25580952Y-25796428D01*
X25628571Y-25748809D01*
X25723809Y-25701190D01*
X25914285Y-25653571D01*
X26009523Y-25605952D01*
X26057142Y-25558333D01*
X26104761Y-25463095D01*
X26104761Y-25367857D01*
X26057142Y-25272619D01*
X26009523Y-25225000D01*
X25914285Y-25177380D01*
X25676190Y-25177380D01*
X25533333Y-25225000D01*
%TO.C,C7*%
X102891666Y-89147142D02*
X102939285Y-89194761D01*
X103082142Y-89242380D01*
X103177380Y-89242380D01*
X103320238Y-89194761D01*
X103415476Y-89099523D01*
X103463095Y-89004285D01*
X103510714Y-88813809D01*
X103510714Y-88670952D01*
X103463095Y-88480476D01*
X103415476Y-88385238D01*
X103320238Y-88290000D01*
X103177380Y-88242380D01*
X103082142Y-88242380D01*
X102939285Y-88290000D01*
X102891666Y-88337619D01*
X102558333Y-88242380D02*
X101891666Y-88242380D01*
X102320238Y-89242380D01*
%TO.C,R2*%
X108839166Y-32072380D02*
X109172500Y-31596190D01*
X109410595Y-32072380D02*
X109410595Y-31072380D01*
X109029642Y-31072380D01*
X108934404Y-31120000D01*
X108886785Y-31167619D01*
X108839166Y-31262857D01*
X108839166Y-31405714D01*
X108886785Y-31500952D01*
X108934404Y-31548571D01*
X109029642Y-31596190D01*
X109410595Y-31596190D01*
X108458214Y-31167619D02*
X108410595Y-31120000D01*
X108315357Y-31072380D01*
X108077261Y-31072380D01*
X107982023Y-31120000D01*
X107934404Y-31167619D01*
X107886785Y-31262857D01*
X107886785Y-31358095D01*
X107934404Y-31500952D01*
X108505833Y-32072380D01*
X107886785Y-32072380D01*
%TO.C,RESET1*%
X88453571Y-31772380D02*
X88786904Y-31296190D01*
X89025000Y-31772380D02*
X89025000Y-30772380D01*
X88644047Y-30772380D01*
X88548809Y-30820000D01*
X88501190Y-30867619D01*
X88453571Y-30962857D01*
X88453571Y-31105714D01*
X88501190Y-31200952D01*
X88548809Y-31248571D01*
X88644047Y-31296190D01*
X89025000Y-31296190D01*
X88025000Y-31248571D02*
X87691666Y-31248571D01*
X87548809Y-31772380D02*
X88025000Y-31772380D01*
X88025000Y-30772380D01*
X87548809Y-30772380D01*
X87167857Y-31724761D02*
X87025000Y-31772380D01*
X86786904Y-31772380D01*
X86691666Y-31724761D01*
X86644047Y-31677142D01*
X86596428Y-31581904D01*
X86596428Y-31486666D01*
X86644047Y-31391428D01*
X86691666Y-31343809D01*
X86786904Y-31296190D01*
X86977380Y-31248571D01*
X87072619Y-31200952D01*
X87120238Y-31153333D01*
X87167857Y-31058095D01*
X87167857Y-30962857D01*
X87120238Y-30867619D01*
X87072619Y-30820000D01*
X86977380Y-30772380D01*
X86739285Y-30772380D01*
X86596428Y-30820000D01*
X86167857Y-31248571D02*
X85834523Y-31248571D01*
X85691666Y-31772380D02*
X86167857Y-31772380D01*
X86167857Y-30772380D01*
X85691666Y-30772380D01*
X85405952Y-30772380D02*
X84834523Y-30772380D01*
X85120238Y-31772380D02*
X85120238Y-30772380D01*
X83977380Y-31772380D02*
X84548809Y-31772380D01*
X84263095Y-31772380D02*
X84263095Y-30772380D01*
X84358333Y-30915238D01*
X84453571Y-31010476D01*
X84548809Y-31058095D01*
%TO.C,Y1*%
X102701190Y-92926190D02*
X102701190Y-93402380D01*
X103034523Y-92402380D02*
X102701190Y-92926190D01*
X102367857Y-92402380D01*
X101510714Y-93402380D02*
X102082142Y-93402380D01*
X101796428Y-93402380D02*
X101796428Y-92402380D01*
X101891666Y-92545238D01*
X101986904Y-92640476D01*
X102082142Y-92688095D01*
%TO.C,C4*%
X96331666Y-98032142D02*
X96379285Y-98079761D01*
X96522142Y-98127380D01*
X96617380Y-98127380D01*
X96760238Y-98079761D01*
X96855476Y-97984523D01*
X96903095Y-97889285D01*
X96950714Y-97698809D01*
X96950714Y-97555952D01*
X96903095Y-97365476D01*
X96855476Y-97270238D01*
X96760238Y-97175000D01*
X96617380Y-97127380D01*
X96522142Y-97127380D01*
X96379285Y-97175000D01*
X96331666Y-97222619D01*
X95474523Y-97460714D02*
X95474523Y-98127380D01*
X95712619Y-97079761D02*
X95950714Y-97794047D01*
X95331666Y-97794047D01*
%TO.C,C2*%
X96991666Y-80432142D02*
X97039285Y-80479761D01*
X97182142Y-80527380D01*
X97277380Y-80527380D01*
X97420238Y-80479761D01*
X97515476Y-80384523D01*
X97563095Y-80289285D01*
X97610714Y-80098809D01*
X97610714Y-79955952D01*
X97563095Y-79765476D01*
X97515476Y-79670238D01*
X97420238Y-79575000D01*
X97277380Y-79527380D01*
X97182142Y-79527380D01*
X97039285Y-79575000D01*
X96991666Y-79622619D01*
X96610714Y-79622619D02*
X96563095Y-79575000D01*
X96467857Y-79527380D01*
X96229761Y-79527380D01*
X96134523Y-79575000D01*
X96086904Y-79622619D01*
X96039285Y-79717857D01*
X96039285Y-79813095D01*
X96086904Y-79955952D01*
X96658333Y-80527380D01*
X96039285Y-80527380D01*
%TO.C,R6*%
X83591666Y-34377380D02*
X83925000Y-33901190D01*
X84163095Y-34377380D02*
X84163095Y-33377380D01*
X83782142Y-33377380D01*
X83686904Y-33425000D01*
X83639285Y-33472619D01*
X83591666Y-33567857D01*
X83591666Y-33710714D01*
X83639285Y-33805952D01*
X83686904Y-33853571D01*
X83782142Y-33901190D01*
X84163095Y-33901190D01*
X82734523Y-33377380D02*
X82925000Y-33377380D01*
X83020238Y-33425000D01*
X83067857Y-33472619D01*
X83163095Y-33615476D01*
X83210714Y-33805952D01*
X83210714Y-34186904D01*
X83163095Y-34282142D01*
X83115476Y-34329761D01*
X83020238Y-34377380D01*
X82829761Y-34377380D01*
X82734523Y-34329761D01*
X82686904Y-34282142D01*
X82639285Y-34186904D01*
X82639285Y-33948809D01*
X82686904Y-33853571D01*
X82734523Y-33805952D01*
X82829761Y-33758333D01*
X83020238Y-33758333D01*
X83115476Y-33805952D01*
X83163095Y-33853571D01*
X83210714Y-33948809D01*
%TO.C,C6*%
X102981666Y-98247142D02*
X103029285Y-98294761D01*
X103172142Y-98342380D01*
X103267380Y-98342380D01*
X103410238Y-98294761D01*
X103505476Y-98199523D01*
X103553095Y-98104285D01*
X103600714Y-97913809D01*
X103600714Y-97770952D01*
X103553095Y-97580476D01*
X103505476Y-97485238D01*
X103410238Y-97390000D01*
X103267380Y-97342380D01*
X103172142Y-97342380D01*
X103029285Y-97390000D01*
X102981666Y-97437619D01*
X102124523Y-97342380D02*
X102315000Y-97342380D01*
X102410238Y-97390000D01*
X102457857Y-97437619D01*
X102553095Y-97580476D01*
X102600714Y-97770952D01*
X102600714Y-98151904D01*
X102553095Y-98247142D01*
X102505476Y-98294761D01*
X102410238Y-98342380D01*
X102219761Y-98342380D01*
X102124523Y-98294761D01*
X102076904Y-98247142D01*
X102029285Y-98151904D01*
X102029285Y-97913809D01*
X102076904Y-97818571D01*
X102124523Y-97770952D01*
X102219761Y-97723333D01*
X102410238Y-97723333D01*
X102505476Y-97770952D01*
X102553095Y-97818571D01*
X102600714Y-97913809D01*
%TO.C,R4*%
X99011666Y-46449880D02*
X99345000Y-45973690D01*
X99583095Y-46449880D02*
X99583095Y-45449880D01*
X99202142Y-45449880D01*
X99106904Y-45497500D01*
X99059285Y-45545119D01*
X99011666Y-45640357D01*
X99011666Y-45783214D01*
X99059285Y-45878452D01*
X99106904Y-45926071D01*
X99202142Y-45973690D01*
X99583095Y-45973690D01*
X98154523Y-45783214D02*
X98154523Y-46449880D01*
X98392619Y-45402261D02*
X98630714Y-46116547D01*
X98011666Y-46116547D01*
%TO.C,R3*%
X96381666Y-46369880D02*
X96715000Y-45893690D01*
X96953095Y-46369880D02*
X96953095Y-45369880D01*
X96572142Y-45369880D01*
X96476904Y-45417500D01*
X96429285Y-45465119D01*
X96381666Y-45560357D01*
X96381666Y-45703214D01*
X96429285Y-45798452D01*
X96476904Y-45846071D01*
X96572142Y-45893690D01*
X96953095Y-45893690D01*
X96048333Y-45369880D02*
X95429285Y-45369880D01*
X95762619Y-45750833D01*
X95619761Y-45750833D01*
X95524523Y-45798452D01*
X95476904Y-45846071D01*
X95429285Y-45941309D01*
X95429285Y-46179404D01*
X95476904Y-46274642D01*
X95524523Y-46322261D01*
X95619761Y-46369880D01*
X95905476Y-46369880D01*
X96000714Y-46322261D01*
X96048333Y-46274642D01*
%TO.C,C3*%
X79566666Y-84307142D02*
X79614285Y-84354761D01*
X79757142Y-84402380D01*
X79852380Y-84402380D01*
X79995238Y-84354761D01*
X80090476Y-84259523D01*
X80138095Y-84164285D01*
X80185714Y-83973809D01*
X80185714Y-83830952D01*
X80138095Y-83640476D01*
X80090476Y-83545238D01*
X79995238Y-83450000D01*
X79852380Y-83402380D01*
X79757142Y-83402380D01*
X79614285Y-83450000D01*
X79566666Y-83497619D01*
X79233333Y-83402380D02*
X78614285Y-83402380D01*
X78947619Y-83783333D01*
X78804761Y-83783333D01*
X78709523Y-83830952D01*
X78661904Y-83878571D01*
X78614285Y-83973809D01*
X78614285Y-84211904D01*
X78661904Y-84307142D01*
X78709523Y-84354761D01*
X78804761Y-84402380D01*
X79090476Y-84402380D01*
X79185714Y-84354761D01*
X79233333Y-84307142D01*
%TO.C,C1*%
X97076666Y-65462142D02*
X97124285Y-65509761D01*
X97267142Y-65557380D01*
X97362380Y-65557380D01*
X97505238Y-65509761D01*
X97600476Y-65414523D01*
X97648095Y-65319285D01*
X97695714Y-65128809D01*
X97695714Y-64985952D01*
X97648095Y-64795476D01*
X97600476Y-64700238D01*
X97505238Y-64605000D01*
X97362380Y-64557380D01*
X97267142Y-64557380D01*
X97124285Y-64605000D01*
X97076666Y-64652619D01*
X96124285Y-65557380D02*
X96695714Y-65557380D01*
X96410000Y-65557380D02*
X96410000Y-64557380D01*
X96505238Y-64700238D01*
X96600476Y-64795476D01*
X96695714Y-64843095D01*
D14*
%TO.C,J1*%
X100450000Y-24090000D02*
X100450000Y-22090000D01*
X91050000Y-24090000D02*
X91050000Y-22090000D01*
%TO.C,U1*%
X84990000Y-85715000D02*
X84990000Y-84425000D01*
X84415000Y-86290000D02*
X84415000Y-85715000D01*
X94635000Y-85715000D02*
X94060000Y-85715000D01*
X94635000Y-95935000D02*
X94060000Y-95935000D01*
X94635000Y-95360000D02*
X94635000Y-95935000D01*
X84415000Y-95935000D02*
X84990000Y-95935000D01*
X84415000Y-85715000D02*
X84990000Y-85715000D01*
X84415000Y-95360000D02*
X84415000Y-95935000D01*
X94635000Y-86290000D02*
X94635000Y-85715000D01*
%TO.C,F1*%
X97335000Y-31997936D02*
X97335000Y-33202064D01*
X95515000Y-31997936D02*
X95515000Y-33202064D01*
%TO.C,R5*%
X80765000Y-97427064D02*
X80765000Y-96972936D01*
X82235000Y-97427064D02*
X82235000Y-96972936D01*
%TO.C,R1*%
X105597936Y-33815000D02*
X106052064Y-33815000D01*
X105597936Y-35285000D02*
X106052064Y-35285000D01*
%TO.C,C5*%
X99540000Y-84238748D02*
X99540000Y-84761252D01*
X101010000Y-84238748D02*
X101010000Y-84761252D01*
D13*
%TO.C,J2*%
X23550000Y-31175000D02*
X29350000Y-31175000D01*
X23550000Y-19425000D02*
X23550000Y-31175000D01*
X29350000Y-31175000D02*
X29350000Y-19425000D01*
X29350000Y-19425000D02*
X23550000Y-19425000D01*
D14*
%TO.C,C7*%
X105896252Y-89295000D02*
X105373748Y-89295000D01*
X105896252Y-87825000D02*
X105373748Y-87825000D01*
%TO.C,R2*%
X105577936Y-31125000D02*
X106032064Y-31125000D01*
X105577936Y-32595000D02*
X106032064Y-32595000D01*
D13*
%TO.C,RESET1*%
X88175000Y-29750000D02*
X88175000Y-25150000D01*
X84975000Y-25150000D02*
X84975000Y-29750000D01*
X87125000Y-25150000D02*
X86025000Y-25150000D01*
X86025000Y-29750000D02*
X87125000Y-29750000D01*
D14*
%TO.C,Y1*%
X107735000Y-95710000D02*
X103335000Y-95710000D01*
X103335000Y-95710000D02*
X103335000Y-90310000D01*
%TO.C,C4*%
X95923748Y-98640000D02*
X96446252Y-98640000D01*
X95923748Y-100110000D02*
X96446252Y-100110000D01*
%TO.C,C2*%
X93740000Y-79913748D02*
X93740000Y-80436252D01*
X95210000Y-79913748D02*
X95210000Y-80436252D01*
%TO.C,R6*%
X86452064Y-34585000D02*
X85997936Y-34585000D01*
X86452064Y-33115000D02*
X85997936Y-33115000D01*
%TO.C,C6*%
X105946252Y-97125000D02*
X105423748Y-97125000D01*
X105946252Y-98595000D02*
X105423748Y-98595000D01*
%TO.C,R4*%
X99610000Y-48260436D02*
X99610000Y-48714564D01*
X98140000Y-48260436D02*
X98140000Y-48714564D01*
%TO.C,R3*%
X96880000Y-48250436D02*
X96880000Y-48704564D01*
X95410000Y-48250436D02*
X95410000Y-48704564D01*
%TO.C,C3*%
X78715000Y-86438748D02*
X78715000Y-86961252D01*
X80185000Y-86438748D02*
X80185000Y-86961252D01*
%TO.C,C1*%
X96588748Y-67610000D02*
X97111252Y-67610000D01*
X96588748Y-66140000D02*
X97111252Y-66140000D01*
%TD*%
D15*
X27800000Y-24200000D03*
X108200000Y-32800000D03*
X41100000Y-97100000D03*
X90950000Y-98200000D03*
X58550000Y-96900000D03*
X89675000Y-98175000D03*
X76300000Y-96250000D03*
X88552262Y-98215632D03*
X48475000Y-77350000D03*
X87512500Y-98137500D03*
X86200000Y-98075000D03*
X64300000Y-75900000D03*
X48650000Y-61950000D03*
X81043566Y-93297605D03*
X65000000Y-62675000D03*
X81131794Y-92302005D03*
X80976305Y-80526305D03*
X81556248Y-91397105D03*
X80850000Y-62575000D03*
X81841185Y-90439077D03*
X47625000Y-45250000D03*
X81977407Y-89448901D03*
X64600000Y-45400000D03*
X82200000Y-88474500D03*
X82125000Y-45425000D03*
X84600000Y-84600000D03*
X94175000Y-100275000D03*
X98500000Y-86325000D03*
X86143357Y-68025500D03*
X88975000Y-80400000D03*
X85214500Y-69000000D03*
X86225000Y-52100000D03*
X85250000Y-35900000D03*
X93212500Y-83062500D03*
X92175000Y-82925000D03*
X91175000Y-83475000D03*
X98200000Y-91625000D03*
X96775000Y-87275000D03*
X94425000Y-31950000D03*
X114700000Y-88000000D03*
X100685199Y-93810276D03*
X114700000Y-86800000D03*
X100100000Y-93000000D03*
X100050000Y-86950000D03*
X101024799Y-88949799D03*
X87324500Y-82025500D03*
X93643741Y-82160815D03*
X99350000Y-34900000D03*
X99380787Y-78249143D03*
X103700000Y-34450000D03*
X95425000Y-29000000D03*
X86625000Y-80074500D03*
X97712500Y-52162500D03*
X87056186Y-80976212D03*
X98875000Y-52000000D03*
X99300000Y-92100000D03*
X114825000Y-85600000D03*
X79530000Y-73850000D03*
X69370000Y-73850000D03*
X70640000Y-71310000D03*
X76990000Y-68770000D03*
X74450000Y-73850000D03*
X113530000Y-80650000D03*
X108450000Y-80650000D03*
X104640000Y-78110000D03*
X103370000Y-80650000D03*
X110990000Y-75570000D03*
X52355000Y-56855000D03*
X62515000Y-56855000D03*
X59975000Y-51775000D03*
X57435000Y-56855000D03*
X53625000Y-54315000D03*
X69370000Y-39825000D03*
X70640000Y-37285000D03*
X74450000Y-39825000D03*
X76990000Y-34745000D03*
X79530000Y-39825000D03*
X42940000Y-51770000D03*
X35320000Y-56850000D03*
X40400000Y-56850000D03*
X45480000Y-56850000D03*
X36590000Y-54310000D03*
X53190000Y-86620000D03*
X45570000Y-91700000D03*
X50650000Y-91700000D03*
X46840000Y-89160000D03*
X55730000Y-91700000D03*
X93975000Y-71310000D03*
X87625000Y-73850000D03*
X91435000Y-76390000D03*
X96515000Y-76390000D03*
X86355000Y-76390000D03*
X87640000Y-56835000D03*
X91450000Y-59375000D03*
X93990000Y-54295000D03*
X96530000Y-59375000D03*
X86370000Y-59375000D03*
X70640000Y-54310000D03*
X69370000Y-56850000D03*
X74450000Y-56850000D03*
X76990000Y-51770000D03*
X79530000Y-56850000D03*
X113530000Y-63650000D03*
X108450000Y-63650000D03*
X103370000Y-63650000D03*
X104640000Y-61110000D03*
X110990000Y-58570000D03*
X40450000Y-73850000D03*
X36640000Y-71310000D03*
X45530000Y-73850000D03*
X42990000Y-68770000D03*
X35370000Y-73850000D03*
X35370000Y-39825000D03*
X45530000Y-39825000D03*
X36640000Y-37285000D03*
X42990000Y-34745000D03*
X40450000Y-39825000D03*
X53615000Y-71310000D03*
X62505000Y-73850000D03*
X59965000Y-68770000D03*
X52345000Y-73850000D03*
X57425000Y-73850000D03*
X113555000Y-46650000D03*
X103395000Y-46650000D03*
X111015000Y-41570000D03*
X104665000Y-44110000D03*
X108475000Y-46650000D03*
X52395000Y-39850000D03*
X57475000Y-39850000D03*
X60015000Y-34770000D03*
X53665000Y-37310000D03*
X62555000Y-39850000D03*
X28570000Y-91700000D03*
X36190000Y-86620000D03*
X38730000Y-91700000D03*
X29840000Y-89160000D03*
X33650000Y-91700000D03*
X91450000Y-42400000D03*
X96530000Y-42400000D03*
X86370000Y-42400000D03*
X87640000Y-39860000D03*
X93990000Y-37320000D03*
X62570000Y-91725000D03*
X70190000Y-86645000D03*
X63840000Y-89185000D03*
X72730000Y-91725000D03*
X67650000Y-91725000D03*
X92860000Y-24790000D03*
X98640000Y-24790000D03*
D16*
X100070000Y-21110000D03*
D17*
X91430000Y-25290000D03*
X100070000Y-25290000D03*
D16*
X91430000Y-21110000D03*
D15*
X26450000Y-27775000D03*
X26450000Y-20775000D03*
D18*
X28550000Y-31075000D03*
X24350000Y-22575000D03*
X24350000Y-25575000D03*
X24350000Y-29575000D03*
%LPC*%
D19*
%TO.C,SW13*%
X79530000Y-73850000D03*
X69370000Y-73850000D03*
D20*
X70640000Y-71310000D03*
X76990000Y-68770000D03*
D21*
X74450000Y-73850000D03*
D22*
X67365000Y-71310000D03*
X80292000Y-68770000D03*
%TD*%
D19*
%TO.C,SW15*%
X113530000Y-80650000D03*
D21*
X108450000Y-80650000D03*
D20*
X104640000Y-78110000D03*
D19*
X103370000Y-80650000D03*
D20*
X110990000Y-75570000D03*
D22*
X101365000Y-78110000D03*
X114292000Y-75570000D03*
%TD*%
D19*
%TO.C,SW7*%
X52355000Y-56855000D03*
X62515000Y-56855000D03*
D20*
X59975000Y-51775000D03*
D21*
X57435000Y-56855000D03*
D20*
X53625000Y-54315000D03*
D22*
X50350000Y-54315000D03*
X63277000Y-51775000D03*
%TD*%
D19*
%TO.C,SW3*%
X69370000Y-39825000D03*
D20*
X70640000Y-37285000D03*
D21*
X74450000Y-39825000D03*
D20*
X76990000Y-34745000D03*
D19*
X79530000Y-39825000D03*
D22*
X67365000Y-37285000D03*
X80292000Y-34745000D03*
%TD*%
D20*
%TO.C,SW6*%
X42940000Y-51770000D03*
D19*
X35320000Y-56850000D03*
D21*
X40400000Y-56850000D03*
D19*
X45480000Y-56850000D03*
D20*
X36590000Y-54310000D03*
D22*
X33315000Y-54310000D03*
X46242000Y-51770000D03*
%TD*%
D20*
%TO.C,SW17*%
X53190000Y-86620000D03*
D19*
X45570000Y-91700000D03*
D21*
X50650000Y-91700000D03*
D20*
X46840000Y-89160000D03*
D19*
X55730000Y-91700000D03*
D22*
X43565000Y-89160000D03*
X56492000Y-86620000D03*
%TD*%
D20*
%TO.C,SW14*%
X93975000Y-71310000D03*
X87625000Y-73850000D03*
D21*
X91435000Y-76390000D03*
D19*
X96515000Y-76390000D03*
X86355000Y-76390000D03*
D22*
X84350000Y-73850000D03*
X97277000Y-71310000D03*
%TD*%
D20*
%TO.C,SW9*%
X87640000Y-56835000D03*
D21*
X91450000Y-59375000D03*
D20*
X93990000Y-54295000D03*
D19*
X96530000Y-59375000D03*
X86370000Y-59375000D03*
D22*
X84365000Y-56835000D03*
X97292000Y-54295000D03*
%TD*%
D20*
%TO.C,SW8*%
X70640000Y-54310000D03*
D19*
X69370000Y-56850000D03*
D21*
X74450000Y-56850000D03*
D20*
X76990000Y-51770000D03*
D19*
X79530000Y-56850000D03*
D22*
X67365000Y-54310000D03*
X80292000Y-51770000D03*
%TD*%
D19*
%TO.C,SW10*%
X113530000Y-63650000D03*
D21*
X108450000Y-63650000D03*
D19*
X103370000Y-63650000D03*
D20*
X104640000Y-61110000D03*
X110990000Y-58570000D03*
D22*
X101365000Y-61110000D03*
X114292000Y-58570000D03*
%TD*%
D21*
%TO.C,SW11*%
X40450000Y-73850000D03*
D20*
X36640000Y-71310000D03*
D19*
X45530000Y-73850000D03*
D20*
X42990000Y-68770000D03*
D19*
X35370000Y-73850000D03*
D22*
X33365000Y-71310000D03*
X46292000Y-68770000D03*
%TD*%
D19*
%TO.C,SW1*%
X35370000Y-39825000D03*
X45530000Y-39825000D03*
D20*
X36640000Y-37285000D03*
X42990000Y-34745000D03*
D21*
X40450000Y-39825000D03*
D22*
X33365000Y-37285000D03*
X46292000Y-34745000D03*
%TD*%
D20*
%TO.C,SW12*%
X53615000Y-71310000D03*
D19*
X62505000Y-73850000D03*
D20*
X59965000Y-68770000D03*
D19*
X52345000Y-73850000D03*
D21*
X57425000Y-73850000D03*
D22*
X50340000Y-71310000D03*
X63267000Y-68770000D03*
%TD*%
D19*
%TO.C,SW5*%
X113555000Y-46650000D03*
X103395000Y-46650000D03*
D20*
X111015000Y-41570000D03*
X104665000Y-44110000D03*
D21*
X108475000Y-46650000D03*
D22*
X101390000Y-44110000D03*
X114317000Y-41570000D03*
%TD*%
D19*
%TO.C,SW2*%
X52395000Y-39850000D03*
D21*
X57475000Y-39850000D03*
D20*
X60015000Y-34770000D03*
X53665000Y-37310000D03*
D19*
X62555000Y-39850000D03*
D22*
X50390000Y-37310000D03*
X63317000Y-34770000D03*
%TD*%
D19*
%TO.C,SW16*%
X28570000Y-91700000D03*
D20*
X36190000Y-86620000D03*
D19*
X38730000Y-91700000D03*
D20*
X29840000Y-89160000D03*
D21*
X33650000Y-91700000D03*
D22*
X26565000Y-89160000D03*
X39492000Y-86620000D03*
%TD*%
D21*
%TO.C,SW4*%
X91450000Y-42400000D03*
D19*
X96530000Y-42400000D03*
X86370000Y-42400000D03*
D20*
X87640000Y-39860000D03*
X93990000Y-37320000D03*
D22*
X84365000Y-39860000D03*
X97292000Y-37320000D03*
%TD*%
D19*
%TO.C,SW18*%
X62570000Y-91725000D03*
D20*
X70190000Y-86645000D03*
X63840000Y-89185000D03*
D19*
X72730000Y-91725000D03*
D21*
X67650000Y-91725000D03*
D22*
X60565000Y-89185000D03*
X73492000Y-86645000D03*
%TD*%
D23*
%TO.C,J1*%
X92860000Y-24790000D03*
X98640000Y-24790000D03*
D24*
X92550000Y-25990000D03*
X93350000Y-25990000D03*
D25*
X94500000Y-25990000D03*
X95500000Y-25990000D03*
X96000000Y-25990000D03*
X97000000Y-25990000D03*
D24*
X98150000Y-25990000D03*
X98950000Y-25990000D03*
X98950000Y-25990000D03*
X98150000Y-25990000D03*
D25*
X97500000Y-25990000D03*
X96500000Y-25990000D03*
X95000000Y-25990000D03*
X94000000Y-25990000D03*
D24*
X93350000Y-25990000D03*
X92550000Y-25990000D03*
D26*
X100070000Y-21110000D03*
D27*
X91430000Y-25290000D03*
X100070000Y-25290000D03*
D26*
X91430000Y-21110000D03*
%TD*%
D28*
%TO.C,U1*%
X85525000Y-85162500D03*
X86325000Y-85162500D03*
X87125000Y-85162500D03*
X87925000Y-85162500D03*
X88725000Y-85162500D03*
X89525000Y-85162500D03*
X90325000Y-85162500D03*
X91125000Y-85162500D03*
X91925000Y-85162500D03*
X92725000Y-85162500D03*
X93525000Y-85162500D03*
D29*
X95187500Y-86825000D03*
X95187500Y-87625000D03*
X95187500Y-88425000D03*
X95187500Y-89225000D03*
X95187500Y-90025000D03*
X95187500Y-90825000D03*
X95187500Y-91625000D03*
X95187500Y-92425000D03*
X95187500Y-93225000D03*
X95187500Y-94025000D03*
X95187500Y-94825000D03*
D28*
X93525000Y-96487500D03*
X92725000Y-96487500D03*
X91925000Y-96487500D03*
X91125000Y-96487500D03*
X90325000Y-96487500D03*
X89525000Y-96487500D03*
X88725000Y-96487500D03*
X87925000Y-96487500D03*
X87125000Y-96487500D03*
X86325000Y-96487500D03*
X85525000Y-96487500D03*
D29*
X83862500Y-94825000D03*
X83862500Y-94025000D03*
X83862500Y-93225000D03*
X83862500Y-92425000D03*
X83862500Y-91625000D03*
X83862500Y-90825000D03*
X83862500Y-90025000D03*
X83862500Y-89225000D03*
X83862500Y-88425000D03*
X83862500Y-87625000D03*
X83862500Y-86825000D03*
%TD*%
D30*
%TO.C,F1*%
X96425000Y-31200000D03*
X96425000Y-34000000D03*
%TD*%
D31*
%TO.C,R5*%
X81500000Y-98112500D03*
X81500000Y-96287500D03*
%TD*%
D32*
%TO.C,R1*%
X104912500Y-34550000D03*
X106737500Y-34550000D03*
%TD*%
D33*
%TO.C,C5*%
X100275000Y-83550000D03*
X100275000Y-85450000D03*
%TD*%
D34*
%TO.C,J2*%
X26450000Y-27775000D03*
X26450000Y-20775000D03*
%TD*%
D35*
%TO.C,C7*%
X106585000Y-88560000D03*
X104685000Y-88560000D03*
%TD*%
D32*
%TO.C,R2*%
X104892500Y-31860000D03*
X106717500Y-31860000D03*
%TD*%
D36*
%TO.C,RESET1*%
X87655000Y-29530000D03*
X87655000Y-25370000D03*
X85495000Y-29530000D03*
X85495000Y-25370000D03*
%TD*%
D37*
%TO.C,Y1*%
X104435000Y-94460000D03*
X104435000Y-91560000D03*
X106635000Y-91560000D03*
X106635000Y-94460000D03*
%TD*%
D38*
%TO.C,C4*%
X95235000Y-99375000D03*
X97135000Y-99375000D03*
%TD*%
D33*
%TO.C,C2*%
X94475000Y-79225000D03*
X94475000Y-81125000D03*
%TD*%
D39*
%TO.C,R6*%
X87137500Y-33850000D03*
X85312500Y-33850000D03*
%TD*%
D35*
%TO.C,C6*%
X106635000Y-97860000D03*
X104735000Y-97860000D03*
%TD*%
D40*
%TO.C,R4*%
X98875000Y-47575000D03*
X98875000Y-47575000D03*
X98875000Y-49400000D03*
%TD*%
%TO.C,R3*%
X96145000Y-47565000D03*
X96145000Y-49390000D03*
%TD*%
D33*
%TO.C,C3*%
X79450000Y-85750000D03*
X79450000Y-87650000D03*
%TD*%
D38*
%TO.C,C1*%
X95900000Y-66875000D03*
X97800000Y-66875000D03*
%TD*%
M02*
