%TF.GenerationSoftware,KiCad,Pcbnew,(6.0.6)*%
%TF.CreationDate,2022-11-13T11:43:50+09:00*%
%TF.ProjectId,split-mini__left,73706c69-742d-46d6-996e-695f5f6c6566,rev?*%
%TF.SameCoordinates,Original*%
%TF.FileFunction,Soldermask,Top*%
%TF.FilePolarity,Negative*%
%FSLAX46Y46*%
G04 Gerber Fmt 4.6, Leading zero omitted, Abs format (unit mm)*
G04 Created by KiCad (PCBNEW (6.0.6)) date 2022-11-13 11:43:50*
%MOMM*%
%LPD*%
G01*
G04 APERTURE LIST*
%TA.AperFunction,Profile*%
%ADD10C,0.100000*%
%TD*%
%ADD11C,1.900000*%
%ADD12C,3.000000*%
%ADD13C,4.100000*%
%ADD14C,0.650000*%
%ADD15R,0.580000X1.400000*%
%ADD16R,0.280000X1.400000*%
%ADD17O,1.000000X1.800000*%
%ADD18O,1.000000X2.100000*%
%ADD19C,1.200000*%
G04 APERTURE END LIST*
D10*
X116274472Y-100918426D02*
X101550000Y-95559156D01*
X50550000Y-30270000D02*
X34050000Y-30270000D01*
X34050000Y-30270000D02*
X34050000Y-34645000D01*
X109006494Y-38645000D02*
X101550000Y-38645000D01*
X114740558Y-42660035D02*
X101550000Y-61498104D01*
X35550000Y-87645000D02*
X35550000Y-83270000D01*
X88214983Y-109860807D02*
X110118110Y-117832893D01*
X35550000Y-83270000D02*
X52050000Y-83270000D01*
X110118110Y-117832893D02*
X116274472Y-100918426D01*
X68550000Y-31145000D02*
X85050000Y-31145000D01*
X34050000Y-34645000D02*
X17550000Y-34645000D01*
X61275000Y-79770000D02*
X61275000Y-107770000D01*
X61275000Y-107770000D02*
X76357429Y-107770000D01*
X17550000Y-87645000D02*
X35550000Y-87645000D01*
X50550000Y-26770000D02*
X50550000Y-30270000D01*
X101550000Y-95559156D02*
X101550000Y-61498104D01*
X65050000Y-26770000D02*
X68550000Y-26770000D01*
X76357429Y-107770000D02*
X88214983Y-109860807D01*
X65050000Y-26770000D02*
X65050000Y-18470000D01*
X17550000Y-34645000D02*
X17550000Y-87645000D01*
X85050000Y-31145000D02*
X85050000Y-34645000D01*
X109006494Y-38645000D02*
X114740558Y-42660035D01*
X54050000Y-26770000D02*
X54050000Y-18470000D01*
X50550000Y-26770000D02*
X54050000Y-26770000D01*
X54050000Y-18470000D02*
X65050000Y-18470000D01*
X101550000Y-38645000D02*
X101550000Y-34645000D01*
X68550000Y-26770000D02*
X68550000Y-31145000D01*
X101550000Y-34645000D02*
X85050000Y-34645000D01*
X52050000Y-83270000D02*
X52050000Y-79770000D01*
X52050000Y-79770000D02*
X61275000Y-79770000D01*
D11*
%TO.C,SW15*%
X97650000Y-78660000D03*
D12*
X88760000Y-76120000D03*
D13*
X92570000Y-78660000D03*
D11*
X87490000Y-78660000D03*
D12*
X95110000Y-73580000D03*
%TD*%
D14*
%TO.C,J1*%
X62450000Y-23520000D03*
X56670000Y-23520000D03*
D15*
X62760000Y-24720000D03*
X61960000Y-24720000D03*
D16*
X60810000Y-24720000D03*
X59810000Y-24720000D03*
X59310000Y-24720000D03*
X58310000Y-24720000D03*
D15*
X57160000Y-24720000D03*
X56360000Y-24720000D03*
X56360000Y-24720000D03*
X57160000Y-24720000D03*
D16*
X57810000Y-24720000D03*
X58810000Y-24720000D03*
X60310000Y-24720000D03*
X61310000Y-24720000D03*
D15*
X61960000Y-24720000D03*
X62760000Y-24720000D03*
D17*
X55240000Y-19840000D03*
D18*
X63880000Y-24020000D03*
X55240000Y-24020000D03*
D17*
X63880000Y-19840000D03*
%TD*%
D11*
%TO.C,SW7*%
X37980000Y-56770000D03*
D12*
X39250000Y-54230000D03*
X45600000Y-51690000D03*
D11*
X48140000Y-56770000D03*
D13*
X43060000Y-56770000D03*
%TD*%
D11*
%TO.C,SW3*%
X64640000Y-35750000D03*
D12*
X63370000Y-38290000D03*
D11*
X54480000Y-35750000D03*
D13*
X59560000Y-35750000D03*
D12*
X57020000Y-40830000D03*
%TD*%
D11*
%TO.C,SW6*%
X31650000Y-61160000D03*
X21490000Y-61160000D03*
D12*
X22760000Y-58620000D03*
D13*
X26570000Y-61160000D03*
D12*
X29110000Y-56080000D03*
%TD*%
D11*
%TO.C,SW17*%
X82827177Y-99767867D03*
D12*
X91141051Y-103813011D03*
X84446456Y-105211757D03*
D13*
X87830000Y-100650000D03*
D11*
X92832823Y-101532133D03*
%TD*%
D12*
%TO.C,SW14*%
X72230000Y-72590000D03*
X78580000Y-70050000D03*
D11*
X81120000Y-75130000D03*
X70960000Y-75130000D03*
D13*
X76040000Y-75130000D03*
%TD*%
D12*
%TO.C,SW9*%
X72240000Y-55110000D03*
D13*
X76050000Y-57650000D03*
D12*
X78590000Y-52570000D03*
D11*
X81130000Y-57650000D03*
X70970000Y-57650000D03*
%TD*%
D12*
%TO.C,SW8*%
X55765000Y-50710000D03*
D13*
X59575000Y-53250000D03*
D11*
X64655000Y-53250000D03*
X54495000Y-53250000D03*
D12*
X62115000Y-48170000D03*
%TD*%
D19*
%TO.C,J2*%
X107016274Y-47577401D03*
X111031309Y-41843337D03*
%TD*%
D12*
%TO.C,SW10*%
X95090000Y-56070000D03*
D13*
X92550000Y-61150000D03*
D11*
X97630000Y-61150000D03*
D12*
X88740000Y-58610000D03*
D11*
X87470000Y-61150000D03*
%TD*%
%TO.C,SW11*%
X31640000Y-78650000D03*
D12*
X22750000Y-76110000D03*
D13*
X26560000Y-78650000D03*
D12*
X29100000Y-73570000D03*
D11*
X21480000Y-78650000D03*
%TD*%
%TO.C,SW1*%
X31630000Y-43640000D03*
D13*
X26550000Y-43640000D03*
D11*
X21470000Y-43640000D03*
D12*
X22740000Y-41100000D03*
X29090000Y-38560000D03*
%TD*%
%TO.C,SW12*%
X45610000Y-69200000D03*
D11*
X37990000Y-74280000D03*
X48150000Y-74280000D03*
D13*
X43070000Y-74280000D03*
D12*
X39260000Y-71740000D03*
%TD*%
D11*
%TO.C,SW5*%
X97655000Y-43640000D03*
D12*
X90035000Y-48720000D03*
X96385000Y-46180000D03*
D13*
X92575000Y-43640000D03*
D11*
X87495000Y-43640000D03*
%TD*%
%TO.C,SW2*%
X48140000Y-39260000D03*
D12*
X39250000Y-36720000D03*
D13*
X43060000Y-39260000D03*
D12*
X45600000Y-34180000D03*
D11*
X37980000Y-39260000D03*
%TD*%
D12*
%TO.C,SW13*%
X62110000Y-65700000D03*
D13*
X59570000Y-70780000D03*
D12*
X55760000Y-68240000D03*
D11*
X64650000Y-70780000D03*
X54490000Y-70780000D03*
%TD*%
%TO.C,SW16*%
X65180000Y-98780000D03*
D12*
X67720000Y-103860000D03*
D13*
X70260000Y-98780000D03*
D12*
X74070000Y-101320000D03*
D11*
X75340000Y-98780000D03*
%TD*%
%TO.C,SW4*%
X70980000Y-40170000D03*
X81140000Y-40170000D03*
D13*
X76060000Y-40170000D03*
D12*
X79870000Y-42710000D03*
X73520000Y-45250000D03*
%TD*%
D11*
%TO.C,SW18*%
X99966361Y-104552538D03*
X109513639Y-108027462D03*
D13*
X104740000Y-106290000D03*
D12*
X107451498Y-109979916D03*
X100615718Y-110194907D03*
%TD*%
M02*
