%TF.GenerationSoftware,KiCad,Pcbnew,(6.0.6)*%
%TF.CreationDate,2022-09-17T23:42:14+09:00*%
%TF.ProjectId,split-mini_bottom,73706c69-742d-46d6-996e-695f626f7474,rev?*%
%TF.SameCoordinates,Original*%
%TF.FileFunction,Soldermask,Bot*%
%TF.FilePolarity,Negative*%
%FSLAX46Y46*%
G04 Gerber Fmt 4.6, Leading zero omitted, Abs format (unit mm)*
G04 Created by KiCad (PCBNEW (6.0.6)) date 2022-09-17 23:42:14*
%MOMM*%
%LPD*%
G01*
G04 APERTURE LIST*
%TA.AperFunction,Profile*%
%ADD10C,0.349999*%
%TD*%
%ADD11C,2.200000*%
G04 APERTURE END LIST*
D10*
X120734058Y-85321050D02*
X120746346Y-84517181D01*
X94563467Y-99773630D02*
X95006416Y-99879974D01*
X21067121Y-99747413D02*
X21097288Y-99856121D01*
X95006416Y-99879974D02*
X95006416Y-99879974D01*
X106613959Y-23464589D02*
X106588365Y-23321274D01*
X21022792Y-99525582D02*
X21042263Y-99637170D01*
X21450528Y-100558221D02*
X21520346Y-100647842D01*
X23314208Y-21027240D02*
X23182826Y-21050152D01*
X120663178Y-69673555D02*
X120617953Y-69555976D01*
X120429619Y-69232038D02*
X120350533Y-69135311D01*
X116257734Y-104147387D02*
X116337281Y-104072331D01*
X65730083Y-98890289D02*
X65730083Y-98890289D01*
X104737877Y-21174101D02*
X104602654Y-21128344D01*
X120306060Y-89309528D02*
X120440307Y-88517806D01*
X106647491Y-64950611D02*
X106647491Y-23907794D01*
X114417834Y-104707695D02*
X114531519Y-104721167D01*
X22319756Y-101272024D02*
X22422725Y-101317646D01*
X21325017Y-100370023D02*
X21385392Y-100465551D01*
X116831755Y-103339065D02*
X116873233Y-103232363D01*
X114869318Y-104727193D02*
X114980256Y-104718084D01*
X116678483Y-103640152D02*
X116734207Y-103543064D01*
X21793434Y-21793513D02*
X21700478Y-21891184D01*
X106069327Y-22166530D02*
X105982931Y-22056589D01*
X105588428Y-21662081D02*
X105478488Y-21575683D01*
X104870037Y-21226211D02*
X104737877Y-21174101D01*
X79268402Y-98118347D02*
X79619825Y-98120645D01*
X119962618Y-68817891D02*
X119849615Y-68758387D01*
X120725055Y-69920137D02*
X120699003Y-69795107D01*
X21042263Y-99637170D02*
X21067121Y-99747413D01*
X120699003Y-69795107D02*
X120663178Y-69673555D01*
X81724553Y-98230937D02*
X82074291Y-98265381D01*
X119606995Y-68666672D02*
X106647491Y-64950611D01*
X21218860Y-100171147D02*
X21269480Y-100271825D01*
X21049932Y-23182830D02*
X21027007Y-23314210D01*
X23078052Y-101482078D02*
X23191759Y-101490535D01*
X20997490Y-99184639D02*
X21000327Y-99299127D01*
X115907617Y-104406218D02*
X115999590Y-104347927D01*
X105694026Y-21753553D02*
X105588428Y-21662081D01*
X105891460Y-21950990D02*
X105795097Y-21849917D01*
X23306244Y-101493370D02*
X54168747Y-101493347D01*
X23715622Y-20997488D02*
X23715622Y-20997488D01*
X21992830Y-21612950D02*
X21891115Y-21700567D01*
X57823814Y-101011581D02*
X57823814Y-101011581D01*
X120746346Y-84517181D02*
X120746346Y-70178646D01*
X120563702Y-69442866D02*
X120500800Y-69334721D01*
X120744992Y-70113118D02*
X120740961Y-70048149D01*
X21114721Y-22925043D02*
X21079201Y-23053033D01*
X21000556Y-23580829D02*
X20997215Y-23715622D01*
X93224898Y-99501293D02*
X93672605Y-99584271D01*
X115411094Y-104628832D02*
X115514710Y-104593834D01*
X116618357Y-103733828D02*
X116678483Y-103640152D01*
X55553294Y-101425245D02*
X56012088Y-101372398D01*
X21932681Y-101040365D02*
X22025351Y-101105499D01*
X79971141Y-98127542D02*
X80322305Y-98139037D01*
X94118828Y-99675056D02*
X94563467Y-99773630D01*
X119965073Y-90880112D02*
X120147626Y-90097149D01*
X21520346Y-100647842D02*
X21594767Y-100734227D01*
X21843058Y-100970549D02*
X21932681Y-101040365D01*
X116413290Y-103993343D02*
X116485588Y-103910527D01*
X114980256Y-104718084D02*
X115090076Y-104703590D01*
X92325451Y-99358830D02*
X92775813Y-99426140D01*
X119790967Y-68731954D02*
X119730949Y-68707815D01*
X22207471Y-21454070D02*
X22098356Y-21530754D01*
X103737228Y-20997492D02*
X23715622Y-20997488D01*
X116088715Y-104285289D02*
X116174821Y-104218407D01*
X105982931Y-22056589D02*
X105891460Y-21950990D01*
X104034787Y-21012522D02*
X103886991Y-21001281D01*
X116337281Y-104072331D02*
X116413290Y-103993343D01*
X22634779Y-101393589D02*
X22743485Y-101423753D01*
X23182826Y-21050152D02*
X23053027Y-21079407D01*
X21156400Y-22799082D02*
X21114721Y-22925043D01*
X21700478Y-21891184D02*
X21612850Y-21992890D01*
X105364387Y-21494542D02*
X105246308Y-21418842D01*
X22435573Y-21317612D02*
X22319950Y-21382992D01*
X69367896Y-98227495D02*
X70105548Y-98166918D01*
X22925033Y-21114915D02*
X22799069Y-21156581D01*
X103737228Y-20997492D02*
X103737228Y-20997492D01*
X115812969Y-104460058D02*
X115907617Y-104406218D01*
X54631255Y-101485768D02*
X55092893Y-101463051D01*
X82074291Y-98265381D02*
X91421310Y-99247810D01*
X104464550Y-21089126D02*
X104323750Y-21056627D01*
X21010518Y-23446950D02*
X21000556Y-23580829D01*
X104180434Y-21031031D02*
X104034787Y-21012522D01*
X119606995Y-68666672D02*
X119606995Y-68666672D01*
X22098356Y-21530754D02*
X21992830Y-21612950D01*
X115514710Y-104593834D02*
X115616343Y-104553970D01*
X21453948Y-22207514D02*
X21382859Y-22319987D01*
X106418789Y-22774986D02*
X106360509Y-22646071D01*
X106470898Y-22907146D02*
X106418789Y-22774986D01*
X80322305Y-98139037D02*
X80673272Y-98155126D01*
X21673714Y-100817184D02*
X21673714Y-100817184D01*
X106643705Y-23758032D02*
X106632466Y-23610236D01*
X55092893Y-101463051D02*
X55553294Y-101425245D01*
X80673272Y-98155126D02*
X81023999Y-98175807D01*
X105246308Y-21418842D02*
X105124435Y-21348765D01*
X106647491Y-64950611D02*
X106647491Y-64950611D01*
X57823814Y-101011581D02*
X65730083Y-98890289D01*
X56468906Y-101304560D02*
X56923379Y-101221779D01*
X79268402Y-98118347D02*
X79268402Y-98118347D01*
X106296240Y-22520586D02*
X106226164Y-22398712D01*
X70105548Y-98166918D02*
X70845185Y-98130517D01*
X116940735Y-103010071D02*
X116940735Y-103010071D01*
X54168747Y-101493347D02*
X54168747Y-101493347D01*
X119730949Y-68707815D02*
X119669610Y-68686034D01*
X106647491Y-23907794D02*
X106643705Y-23758032D01*
X21204145Y-22675373D02*
X21156400Y-22799082D01*
X116554001Y-103823988D02*
X116618357Y-103733828D01*
X56012088Y-101372398D02*
X56468906Y-101304560D01*
X57375138Y-101124103D02*
X57823814Y-101011581D01*
X120746346Y-70178646D02*
X120744992Y-70113118D01*
X67900910Y-98420864D02*
X68632820Y-98312169D01*
X21000327Y-99299127D02*
X21008788Y-99412838D01*
X23053027Y-21079407D02*
X22925033Y-21114915D01*
X91421310Y-99247810D02*
X91873916Y-99299381D01*
X71586216Y-98118370D02*
X71586216Y-98118370D01*
X21382859Y-22319987D02*
X21317467Y-22435603D01*
X20997490Y-99184639D02*
X20997490Y-99184639D01*
X21673714Y-100817184D02*
X21756673Y-100896129D01*
X114189873Y-104662933D02*
X114189873Y-104662933D01*
X21612850Y-21992890D02*
X21530643Y-22098408D01*
X23191759Y-101490535D02*
X23306244Y-101493370D01*
X82074291Y-98265381D02*
X82074291Y-98265381D01*
X115090076Y-104703590D02*
X115198604Y-104683814D01*
X21891115Y-21700567D02*
X21793434Y-21793513D01*
X106632466Y-23610236D02*
X106613959Y-23464589D01*
X92775813Y-99426140D02*
X93224898Y-99501293D01*
X120697243Y-86123603D02*
X120734058Y-85321050D01*
X22965311Y-101468076D02*
X23078052Y-101482078D01*
X114757434Y-104730812D02*
X114869318Y-104727193D01*
X21756673Y-100896129D02*
X21843058Y-100970549D01*
X116940735Y-103010071D02*
X119965073Y-90880112D01*
X120734300Y-69983801D02*
X120725055Y-69920137D01*
X119669610Y-68686034D02*
X119606995Y-68666672D01*
X23580829Y-21000816D02*
X23446950Y-21010763D01*
X115999590Y-104347927D02*
X116088715Y-104285289D01*
X106226164Y-22398712D02*
X106150466Y-22280632D01*
X81374440Y-98201078D02*
X81724553Y-98230937D01*
X104998950Y-21284494D02*
X104870037Y-21226211D01*
X22120879Y-101165872D02*
X22219077Y-101221407D01*
X116485588Y-103910527D02*
X116554001Y-103823988D01*
X21079201Y-23053033D02*
X21049932Y-23182830D01*
X23446950Y-21010763D02*
X23314208Y-21027240D01*
X116909617Y-103122663D02*
X116940735Y-103010071D01*
X22554116Y-21258022D02*
X22435573Y-21317612D01*
X120147626Y-90097149D02*
X120306060Y-89309528D01*
X21530643Y-22098408D02*
X21453948Y-22207514D01*
X106588365Y-23321274D02*
X106555869Y-23180473D01*
X120635967Y-86924286D02*
X120697243Y-86123603D01*
X116873233Y-103232363D02*
X116909617Y-103122663D01*
X68632820Y-98312169D02*
X69367896Y-98227495D01*
X22743485Y-101423753D02*
X22853726Y-101448609D01*
X120440307Y-88517806D02*
X120550299Y-87722539D01*
X22527796Y-101358194D02*
X22634779Y-101393589D01*
X21132686Y-99963106D02*
X21173236Y-100068177D01*
X22025351Y-101105499D02*
X22120879Y-101165872D01*
X95006416Y-99879974D02*
X114189873Y-104662933D01*
X21385392Y-100465551D02*
X21450528Y-100558221D01*
X21008788Y-99412838D02*
X21022792Y-99525582D01*
X115198604Y-104683814D02*
X115305668Y-104658860D01*
X67172756Y-98553501D02*
X67900910Y-98420864D01*
X106150466Y-22280632D02*
X106069327Y-22166530D01*
X21097288Y-99856121D02*
X21132686Y-99963106D01*
X120500800Y-69334721D02*
X120429619Y-69232038D01*
X21027007Y-23314210D02*
X21010518Y-23446950D01*
X116174821Y-104218407D02*
X116257734Y-104147387D01*
X120263917Y-69045037D02*
X120170143Y-68961712D01*
X70845185Y-98130517D02*
X71586216Y-98118370D01*
X91421310Y-99247810D02*
X91421310Y-99247810D01*
X22675355Y-21204314D02*
X22554116Y-21258022D01*
X21257865Y-22554139D02*
X21204145Y-22675373D01*
X22422725Y-101317646D02*
X22527796Y-101358194D01*
X114644776Y-104728838D02*
X114757434Y-104730812D01*
X116734207Y-103543064D02*
X116785355Y-103442667D01*
X120350533Y-69135311D02*
X120263917Y-69045037D01*
X120550299Y-87722539D02*
X120635967Y-86924286D01*
X21594767Y-100734227D02*
X21673714Y-100817184D01*
X106360509Y-22646071D02*
X106296240Y-22520586D01*
X79619825Y-98120645D02*
X79971141Y-98127542D01*
X115715821Y-104509343D02*
X115812969Y-104460058D01*
X120746346Y-70178646D02*
X120746346Y-70178646D01*
X20997215Y-23715622D02*
X20997215Y-23715622D01*
X104323750Y-21056627D02*
X104180434Y-21031031D01*
X71586216Y-98118370D02*
X79268402Y-98118347D01*
X105795097Y-21849917D02*
X105694026Y-21753553D01*
X119849615Y-68758387D02*
X119790967Y-68731954D01*
X54168747Y-101493347D02*
X54631255Y-101485768D01*
X116785355Y-103442667D02*
X116831755Y-103339065D01*
X120170143Y-68961712D02*
X120069586Y-68885831D01*
X66448951Y-98710002D02*
X67172756Y-98553501D01*
X104602654Y-21128344D02*
X104464550Y-21089126D01*
X114189873Y-104662933D02*
X114303894Y-104688319D01*
X22799069Y-21156581D02*
X22675355Y-21204314D01*
X120746346Y-84517181D02*
X120746346Y-84517181D01*
X120617953Y-69555976D02*
X120563702Y-69442866D01*
X114303894Y-104688319D02*
X114417834Y-104707695D01*
X106555869Y-23180473D02*
X106516652Y-23042369D01*
X65730083Y-98890289D02*
X66448951Y-98710002D01*
X81023999Y-98175807D02*
X81374440Y-98201078D01*
X21173236Y-100068177D02*
X21218860Y-100171147D01*
X115616343Y-104553970D02*
X115715821Y-104509343D01*
X106516652Y-23042369D02*
X106470898Y-22907146D01*
X23715622Y-20997488D02*
X23580829Y-21000816D01*
X120740961Y-70048149D02*
X120734300Y-69983801D01*
X22219077Y-101221407D02*
X22319756Y-101272024D01*
X56923379Y-101221779D02*
X57375138Y-101124103D01*
X103886991Y-21001281D02*
X103737228Y-20997492D01*
X22853726Y-101448609D02*
X22965311Y-101468076D01*
X105478488Y-21575683D02*
X105364387Y-21494542D01*
X119965073Y-90880112D02*
X119965073Y-90880112D01*
X105124435Y-21348765D02*
X104998950Y-21284494D01*
X21793434Y-21793513D02*
X21793434Y-21793513D01*
X93672605Y-99584271D02*
X94118828Y-99675056D01*
X21317467Y-22435603D02*
X21257865Y-22554139D01*
X20997215Y-23715622D02*
X20997490Y-99184639D01*
X23306244Y-101493370D02*
X23306244Y-101493370D01*
X22319950Y-21382992D02*
X22207471Y-21454070D01*
X91873916Y-99299381D02*
X92325451Y-99358830D01*
X120069586Y-68885831D02*
X119962618Y-68817891D01*
X21269480Y-100271825D02*
X21325017Y-100370023D01*
X115305668Y-104658860D02*
X115411094Y-104628832D01*
X114531519Y-104721167D02*
X114644776Y-104728838D01*
D11*
%TO.C,HOLE3*%
X52020000Y-80950000D03*
%TD*%
%TO.C,HOLE5*%
X112800000Y-84690000D03*
%TD*%
%TO.C,HOLE4*%
X53040000Y-95600000D03*
%TD*%
%TO.C,HOLE2*%
X97680000Y-23950000D03*
%TD*%
%TO.C,HOLE1*%
X30040000Y-23950000D03*
%TD*%
M02*
