%TF.GenerationSoftware,KiCad,Pcbnew,(6.0.6)*%
%TF.CreationDate,2022-09-02T08:17:43+09:00*%
%TF.ProjectId,split-mini-top-plate,73706c69-742d-46d6-996e-692d746f702d,rev?*%
%TF.SameCoordinates,Original*%
%TF.FileFunction,Legend,Top*%
%TF.FilePolarity,Positive*%
%FSLAX46Y46*%
G04 Gerber Fmt 4.6, Leading zero omitted, Abs format (unit mm)*
G04 Created by KiCad (PCBNEW (6.0.6)) date 2022-09-02 08:17:43*
%MOMM*%
%LPD*%
G01*
G04 APERTURE LIST*
%TA.AperFunction,Profile*%
%ADD10C,0.349999*%
%TD*%
%TA.AperFunction,Profile*%
%ADD11C,0.120000*%
%TD*%
%ADD12C,0.350000*%
%ADD13C,2.200000*%
G04 APERTURE END LIST*
D10*
X96315577Y-17209187D02*
X96150337Y-17145423D01*
X97493515Y-17996216D02*
X97493515Y-17996216D01*
X14561218Y-19625755D02*
X14561218Y-70426453D01*
X44839713Y-95620014D02*
X44912961Y-95629112D01*
X44110580Y-95296756D02*
X44168808Y-95342117D01*
X110830040Y-78255420D02*
X110755615Y-78234853D01*
X14592199Y-19216273D02*
X14575100Y-19350838D01*
X94926117Y-16932858D02*
X94926117Y-16932858D01*
X43626056Y-94572707D02*
X43649054Y-94642214D01*
X98517185Y-20027407D02*
X98486565Y-19851925D01*
X45061218Y-95636452D02*
X45061218Y-95636452D01*
X111107928Y-78371361D02*
X111041565Y-78337553D01*
X15839713Y-71910015D02*
X15912961Y-71919113D01*
X111891750Y-79752469D02*
X111893054Y-79678002D01*
X16975085Y-16950732D02*
X16840521Y-16967837D01*
X16084293Y-17202035D02*
X15968358Y-17261419D01*
X44767215Y-95607364D02*
X44839713Y-95620014D01*
X43774010Y-94906590D02*
X43813236Y-94968655D01*
X95637763Y-17003241D02*
X95462280Y-16972628D01*
X15175199Y-17915400D02*
X15095378Y-18016978D01*
X111875057Y-79458125D02*
X111861984Y-79386388D01*
X14774010Y-71196590D02*
X14813236Y-71258655D01*
X14606457Y-70792079D02*
X14626056Y-70862706D01*
X15555456Y-71838618D02*
X15624964Y-71861616D01*
X44291081Y-95423661D02*
X44354881Y-95459743D01*
X111776153Y-79110262D02*
X111746653Y-79044507D01*
X111507393Y-78686304D02*
X111457780Y-78633724D01*
X108316808Y-94209137D02*
X108339218Y-94126755D01*
X44420292Y-95492630D02*
X44487191Y-95522272D01*
X15855760Y-17326166D02*
X15746668Y-17396109D01*
X43855554Y-95028863D02*
X43900914Y-95087091D01*
X96940510Y-17542809D02*
X96790276Y-17447865D01*
X107871687Y-94994278D02*
X107977185Y-94870000D01*
X14564717Y-19487389D02*
X14561218Y-19625755D01*
X17250000Y-16936836D02*
X17111634Y-16940342D01*
X15110580Y-71586757D02*
X15168808Y-71632118D01*
X106825126Y-95592214D02*
X106905783Y-95573145D01*
X14561218Y-19625755D02*
X14561218Y-19625755D01*
X96477511Y-17280931D02*
X96315577Y-17209187D01*
X98556976Y-75193375D02*
X98556976Y-75193375D01*
X44000557Y-95197114D02*
X44054455Y-95248405D01*
X15054455Y-71538406D02*
X15110580Y-71586757D01*
X107756725Y-95109209D02*
X107871687Y-94994278D01*
X98400031Y-19507603D02*
X98344363Y-19339358D01*
X44986837Y-95634609D02*
X45061218Y-95636452D01*
X111293622Y-78490475D02*
X111234026Y-78447936D01*
X15348737Y-17724451D02*
X15259708Y-17817835D01*
X97844510Y-18403468D02*
X97734710Y-18262527D01*
X43606457Y-94502080D02*
X43626056Y-94572707D01*
X43561218Y-94136452D02*
X43561218Y-94136452D01*
X14900914Y-71377091D02*
X14949266Y-71433216D01*
X97086248Y-17645239D02*
X96940510Y-17542809D01*
X111350826Y-78535695D02*
X111293622Y-78490475D01*
X43590307Y-94430456D02*
X43606457Y-94502080D01*
X44168808Y-95342117D02*
X44229016Y-95384435D01*
X94926117Y-16932858D02*
X17250000Y-16936836D01*
X15986837Y-71924610D02*
X16061218Y-71926453D01*
X97363049Y-17872066D02*
X97227194Y-17755032D01*
X111405568Y-78583483D02*
X111350826Y-78535695D01*
X95284979Y-16950611D02*
X95106159Y-16937313D01*
X97946946Y-18549202D02*
X97844510Y-18403468D01*
X98552514Y-20383524D02*
X98539209Y-20204706D01*
X97493515Y-17996216D02*
X97363049Y-17872066D01*
X14575100Y-19350838D02*
X14564717Y-19487389D01*
X98556976Y-20563565D02*
X98552514Y-20383524D01*
X14826358Y-18460034D02*
X14772513Y-18579140D01*
X111884639Y-79530716D02*
X111875057Y-79458125D01*
X43813236Y-94968655D02*
X43855554Y-95028863D01*
X98539209Y-20204706D02*
X98517185Y-20027407D01*
X15539677Y-17550904D02*
X15442116Y-17635418D01*
X111746653Y-79044507D02*
X111714074Y-78980292D01*
X43675399Y-94710479D02*
X43705041Y-94777379D01*
X107361763Y-95392678D02*
X107501091Y-95308934D01*
X44000557Y-95197114D02*
X44000557Y-95197114D01*
X14590307Y-70720455D02*
X14606457Y-70792079D01*
X108339218Y-94126755D02*
X111848190Y-80053162D01*
X108291110Y-94289903D02*
X108316808Y-94209137D01*
X14675399Y-71000479D02*
X14705041Y-71067379D01*
X108195119Y-94521852D02*
X108230181Y-94446326D01*
X14724371Y-18701245D02*
X14682099Y-18826179D01*
X111886680Y-79827333D02*
X111891750Y-79752469D01*
X14682099Y-18826179D02*
X14645867Y-18953775D01*
X15641251Y-17471078D02*
X15539677Y-17550904D01*
X98556976Y-75193375D02*
X98556976Y-20563565D01*
X98447473Y-19678557D02*
X98400031Y-19507603D01*
X15624964Y-71861616D02*
X15695591Y-71881215D01*
X14626056Y-70862706D02*
X14649054Y-70932214D01*
X111598549Y-78798025D02*
X111554339Y-78741109D01*
X106905783Y-95573145D02*
X107063437Y-95525308D01*
X111554339Y-78741109D02*
X111507393Y-78686304D01*
X44624964Y-95571615D02*
X44695591Y-95591214D01*
X15020415Y-18122399D02*
X14950478Y-18231494D01*
X97227194Y-17755032D02*
X97086248Y-17645239D01*
X15000557Y-71487115D02*
X15054455Y-71538406D01*
X110755615Y-78234853D02*
X98556976Y-75193375D01*
X14615844Y-19083863D02*
X14592199Y-19216273D01*
X110973084Y-78306884D02*
X110902552Y-78279468D01*
X111457780Y-78633724D02*
X111405568Y-78583483D01*
X107977185Y-94870000D02*
X108072547Y-94736899D01*
X107632969Y-95214269D02*
X107756725Y-95109209D01*
X43568558Y-94284710D02*
X43577657Y-94357958D01*
X98208842Y-19012189D02*
X98129235Y-18853861D01*
X111877776Y-79902479D02*
X111886680Y-79827333D01*
X108262206Y-94368988D02*
X108291110Y-94289903D01*
X16325499Y-17100036D02*
X16203397Y-17148184D01*
X15000557Y-71487115D02*
X15000557Y-71487115D01*
X43949266Y-95143215D02*
X44000557Y-95197114D01*
X98556976Y-20563565D02*
X98556976Y-20563565D01*
X96150337Y-17145423D02*
X95982090Y-17089762D01*
X111861984Y-79386388D02*
X111845488Y-79315619D01*
X15229016Y-71674436D02*
X15291081Y-71713662D01*
X98344363Y-19339358D02*
X98280592Y-19174121D01*
X108230181Y-94446326D02*
X108262206Y-94368988D01*
X14737928Y-71132790D02*
X14774010Y-71196590D01*
X108339218Y-94126755D02*
X108339218Y-94126755D01*
X15487191Y-71812273D02*
X15555456Y-71838618D01*
X106406906Y-95636452D02*
X106492262Y-95634638D01*
X111890660Y-79604046D02*
X111884639Y-79530716D01*
X44912961Y-95629112D02*
X44986837Y-95634609D01*
X98280592Y-19174121D02*
X98208842Y-19012189D01*
X16450431Y-17057758D02*
X16325499Y-17100036D01*
X106743362Y-95607964D02*
X106825126Y-95592214D01*
X16061218Y-71926453D02*
X16061218Y-71926453D01*
X44054455Y-95248405D02*
X44110580Y-95296756D01*
X14568558Y-70574710D02*
X14577657Y-70647958D01*
X44229016Y-95384435D02*
X44291081Y-95423661D01*
X108157103Y-94595499D02*
X108195119Y-94521852D01*
X16840521Y-16967837D02*
X16708111Y-16991490D01*
X98486565Y-19851925D02*
X98447473Y-19678557D01*
X14649054Y-70932214D02*
X14675399Y-71000479D01*
X43705041Y-94777379D02*
X43737928Y-94842790D01*
X111893054Y-79678002D02*
X111890660Y-79604046D01*
X14561218Y-70426453D02*
X14563062Y-70500834D01*
X108072547Y-94736899D02*
X108157103Y-94595499D01*
X15695591Y-71881215D02*
X15767215Y-71897365D01*
X44555456Y-95548617D02*
X44624964Y-95571615D01*
X107215654Y-95464977D02*
X107361763Y-95392678D01*
X96790276Y-17447865D02*
X96635844Y-17360532D01*
X15354881Y-71749744D02*
X15420292Y-71782631D01*
X43561218Y-94136452D02*
X43563062Y-94210834D01*
X43649054Y-94642214D02*
X43675399Y-94710479D01*
X15291081Y-71713662D02*
X15354881Y-71749744D01*
X45061218Y-95636452D02*
X106406906Y-95636452D01*
X111639954Y-78856937D02*
X111598549Y-78798025D01*
X97734710Y-18262527D02*
X97617671Y-18126677D01*
X95982090Y-17089762D02*
X95811133Y-17042326D01*
X111848190Y-80053162D02*
X111864969Y-79977794D01*
X17111634Y-16940342D02*
X16975085Y-16950732D01*
X43737928Y-94842790D02*
X43774010Y-94906590D01*
X111802504Y-79177441D02*
X111776153Y-79110262D01*
X95462280Y-16972628D02*
X95284979Y-16950611D01*
X111714074Y-78980292D02*
X111678485Y-78917731D01*
X110755615Y-78234853D02*
X110755615Y-78234853D01*
X111825639Y-79245932D02*
X111802504Y-79177441D01*
X15968358Y-17261419D02*
X15855760Y-17326166D01*
X43577657Y-94357958D02*
X43590307Y-94430456D01*
X95811133Y-17042326D02*
X95637763Y-17003241D01*
X106660574Y-95620328D02*
X106743362Y-95607964D01*
X14855554Y-71318864D02*
X14900914Y-71377091D01*
X14772513Y-18579140D02*
X14724371Y-18701245D01*
X15912961Y-71919113D02*
X15986837Y-71924610D01*
X16203397Y-17148184D02*
X16084293Y-17202035D01*
X111172105Y-78408193D02*
X111107928Y-78371361D01*
X15095378Y-18016978D02*
X15020415Y-18122399D01*
X111848190Y-80053162D02*
X111848190Y-80053162D01*
X111864969Y-79977794D02*
X111877776Y-79902479D01*
X106492262Y-95634638D02*
X106576846Y-95629242D01*
X16061218Y-71926453D02*
X43561218Y-71926453D01*
X14949266Y-71433216D02*
X15000557Y-71487115D01*
X15259708Y-17817835D02*
X15175199Y-17915400D01*
X14813236Y-71258655D02*
X14855554Y-71318864D01*
X107501091Y-95308934D02*
X107632969Y-95214269D01*
X95106159Y-16937313D02*
X94926117Y-16932858D01*
X15767215Y-71897365D02*
X15839713Y-71910015D01*
X107063437Y-95525308D02*
X107215654Y-95464977D01*
X43561218Y-71926453D02*
X43561218Y-94136452D01*
X106576846Y-95629242D02*
X106660574Y-95620328D01*
X16578025Y-17021519D02*
X16450431Y-17057758D01*
X44487191Y-95522272D02*
X44555456Y-95548617D01*
X43900914Y-95087091D02*
X43949266Y-95143215D01*
X14950478Y-18231494D02*
X14885736Y-18344096D01*
X14577657Y-70647958D02*
X14590307Y-70720455D01*
X106406906Y-95636452D02*
X106406906Y-95636452D01*
X15168808Y-71632118D02*
X15229016Y-71674436D01*
X14561218Y-70426453D02*
X14561218Y-70426453D01*
X44354881Y-95459743D02*
X44420292Y-95492630D01*
X14645867Y-18953775D02*
X14615844Y-19083863D01*
X14563062Y-70500834D02*
X14568558Y-70574710D01*
X43561218Y-71926453D02*
X43561218Y-71926453D01*
X111234026Y-78447936D02*
X111172105Y-78408193D01*
X111041565Y-78337553D02*
X110973084Y-78306884D01*
X98041895Y-18699432D02*
X97946946Y-18549202D01*
X44695591Y-95591214D02*
X44767215Y-95607364D01*
X111678485Y-78917731D02*
X111639954Y-78856937D01*
X96635844Y-17360532D02*
X96477511Y-17280931D01*
X111845488Y-79315619D02*
X111825639Y-79245932D01*
X43563062Y-94210834D02*
X43568558Y-94284710D01*
X15420292Y-71782631D02*
X15487191Y-71812273D01*
X16708111Y-16991490D02*
X16578025Y-17021519D01*
X14885736Y-18344096D02*
X14826358Y-18460034D01*
X97617671Y-18126677D02*
X97493515Y-17996216D01*
X15746668Y-17396109D02*
X15641251Y-17471078D01*
X110902552Y-78279468D02*
X110830040Y-78255420D01*
X98129235Y-18853861D02*
X98041895Y-18699432D01*
X15442116Y-17635418D02*
X15348737Y-17724451D01*
X14705041Y-71067379D02*
X14737928Y-71132790D01*
D11*
%TO.C,SW6*%
X16430000Y-39360000D02*
X16430000Y-53360000D01*
X16430000Y-53360000D02*
X30430000Y-53360000D01*
X30430000Y-39360000D02*
X16430000Y-39360000D01*
X30430000Y-53360000D02*
X30430000Y-39360000D01*
%TO.C,SW11*%
X30420000Y-69920000D02*
X30420000Y-55920000D01*
X16420000Y-55920000D02*
X16420000Y-69920000D01*
X16420000Y-69920000D02*
X30420000Y-69920000D01*
X30420000Y-55920000D02*
X16420000Y-55920000D01*
%TO.C,SW9*%
X65960000Y-53370000D02*
X79960000Y-53370000D01*
X79960000Y-39370000D02*
X65960000Y-39370000D01*
X65960000Y-39370000D02*
X65960000Y-53370000D01*
X79960000Y-53370000D02*
X79960000Y-39370000D01*
%TO.C,SW3*%
X63410000Y-22970000D02*
X49410000Y-22970000D01*
X49410000Y-22970000D02*
X49410000Y-36970000D01*
X49410000Y-36970000D02*
X63410000Y-36970000D01*
X63410000Y-36970000D02*
X63410000Y-22970000D01*
%TO.C,SW5*%
X96390000Y-22950000D02*
X82390000Y-22950000D01*
X82390000Y-22950000D02*
X82390000Y-36950000D01*
X96390000Y-36950000D02*
X96390000Y-22950000D01*
X82390000Y-36950000D02*
X96390000Y-36950000D01*
%TO.C,SW15*%
X96470000Y-55880000D02*
X82470000Y-55880000D01*
X96470000Y-69880000D02*
X96470000Y-55880000D01*
X82470000Y-55880000D02*
X82470000Y-69880000D01*
X82470000Y-69880000D02*
X96470000Y-69880000D01*
%TO.C,SW7*%
X46930000Y-53370000D02*
X46930000Y-39370000D01*
X32930000Y-39370000D02*
X32930000Y-53370000D01*
X32930000Y-53370000D02*
X46930000Y-53370000D01*
X46930000Y-39370000D02*
X32930000Y-39370000D01*
%TO.C,SW16*%
X74170000Y-74880000D02*
X60170000Y-74880000D01*
X60170000Y-74880000D02*
X60170000Y-88880000D01*
X74170000Y-88880000D02*
X74170000Y-74880000D01*
X60170000Y-88880000D02*
X74170000Y-88880000D01*
%TO.C,SW18*%
X106288617Y-93585523D02*
X109675523Y-80001383D01*
X109675523Y-80001383D02*
X96091383Y-76614477D01*
X92704477Y-90198617D02*
X106288617Y-93585523D01*
X96091383Y-76614477D02*
X92704477Y-90198617D01*
%TO.C,SW8*%
X63430000Y-39360000D02*
X49430000Y-39360000D01*
X63430000Y-53360000D02*
X63430000Y-39360000D01*
X49430000Y-53360000D02*
X63430000Y-53360000D01*
X49430000Y-39360000D02*
X49430000Y-53360000D01*
%TO.C,SW17*%
X90764653Y-89711244D02*
X91741244Y-75745347D01*
X77775347Y-74768756D02*
X76798756Y-88734653D01*
X91741244Y-75745347D02*
X77775347Y-74768756D01*
X76798756Y-88734653D02*
X90764653Y-89711244D01*
%TO.C,SW10*%
X82460000Y-39380000D02*
X82460000Y-53380000D01*
X96460000Y-53380000D02*
X96460000Y-39380000D01*
X96460000Y-39380000D02*
X82460000Y-39380000D01*
X82460000Y-53380000D02*
X96460000Y-53380000D01*
%TO.C,SW2*%
X46900000Y-36960000D02*
X46900000Y-22960000D01*
X32900000Y-22960000D02*
X32900000Y-36960000D01*
X46900000Y-22960000D02*
X32900000Y-22960000D01*
X32900000Y-36960000D02*
X46900000Y-36960000D01*
%TO.C,SW13*%
X49400000Y-55860000D02*
X49400000Y-69860000D01*
X63400000Y-55860000D02*
X49400000Y-55860000D01*
X63400000Y-69860000D02*
X63400000Y-55860000D01*
X49400000Y-69860000D02*
X63400000Y-69860000D01*
%TO.C,SW12*%
X46970000Y-69890000D02*
X46970000Y-55890000D01*
X32970000Y-69890000D02*
X46970000Y-69890000D01*
X46970000Y-55890000D02*
X32970000Y-55890000D01*
X32970000Y-55890000D02*
X32970000Y-69890000D01*
%TO.C,SW14*%
X65950000Y-69910000D02*
X79950000Y-69910000D01*
X79950000Y-69910000D02*
X79950000Y-55910000D01*
X65950000Y-55910000D02*
X65950000Y-69910000D01*
X79950000Y-55910000D02*
X65950000Y-55910000D01*
%TO.C,SW1*%
X16420000Y-22980000D02*
X16420000Y-36980000D01*
X16420000Y-36980000D02*
X30420000Y-36980000D01*
X30420000Y-36980000D02*
X30420000Y-22980000D01*
X30420000Y-22980000D02*
X16420000Y-22980000D01*
%TO.C,SW4*%
X79890000Y-22980000D02*
X65890000Y-22980000D01*
X65890000Y-22980000D02*
X65890000Y-36980000D01*
X65890000Y-36980000D02*
X79890000Y-36980000D01*
X79890000Y-36980000D02*
X79890000Y-22980000D01*
%TD*%
D12*
X48460000Y-74800000D03*
X23570000Y-19920000D03*
X94740000Y-73210000D03*
X89550000Y-19930000D03*
%LPC*%
D13*
%TO.C,Ref3*%
X48460000Y-74800000D03*
%TD*%
%TO.C,Ref1*%
X23570000Y-19920000D03*
%TD*%
%TO.C,Ref4*%
X94740000Y-73210000D03*
%TD*%
%TO.C,Ref2*%
X89550000Y-19930000D03*
%TD*%
M02*
