M48
METRIC,TZ
T1C0.300
T2C0.400
T3C0.800
T4C1.000
%
G90
G05
T1
X22100Y-52000
X22172Y-43298
X22300Y-63700
X24000Y-77100
X24303Y-63903
X24600Y-42600
X24800Y-23000
X26700Y-34800
X30500Y-30400
X33000Y-69500
X36100Y-44200
X36200Y-27100
X36800Y-58900
X36940Y-29861
X37200Y-41000
X37600Y-69700
X37800Y-62500
X38345Y-24655
X38800Y-57500
X39000Y-50800
X39000Y-87700
X39357Y-27958
X39500Y-31100
X39500Y-44800
X41300Y-48400
X41900Y-76200
X42600Y-58900
X42700Y-40800
X43800Y-27200
X45500Y-36400
X46700Y-92200
X49000Y-37800
X55100Y-29800
X55400Y-41100
X56200Y-27800
X56400Y-58200
X56486Y-43783
X56700Y-62600
X57100Y-86200
X59700Y-40500
X60300Y-76100
X61800Y-35500
X65400Y-72100
X65800Y-84200
X71200Y-40500
X71200Y-44200
X72500Y-58600
X72700Y-27600
X72700Y-61500
X74397Y-40392
X74900Y-44100
X75000Y-77100
X76000Y-81400
X76800Y-26800
X78100Y-34900
X78300Y-52100
X78400Y-70100
X84200Y-34000
X84400Y-53000
X84500Y-96100
X86000Y-39800
X88300Y-41600
X88300Y-58800
X88900Y-62100
X89400Y-44200
X90600Y-76300
X92798Y-58772
X94600Y-34700
X95100Y-81500
X95200Y-70800
X95400Y-54100
X98700Y-96700
X100783Y-34483
X100800Y-33500
X100800Y-99500
X101300Y-90900
X103200Y-42000
X103277Y-24267
X104200Y-76200
X104500Y-59400
X104900Y-42000
X105200Y-81500
X105500Y-74500
T2
X22814Y-28850
X27029Y-43751
X28130Y-37560
X29429Y-61852
X30598Y-43450
X31940Y-76410
X32500Y-55700
X33761Y-61952
X35031Y-94146
X37891Y-74974
X39327Y-60150
X40793Y-68004
X40970Y-29210
X41560Y-43530
X44666Y-43055
X46535Y-59805
X49330Y-54580
X49820Y-36650
X51663Y-25449
X51800Y-76580
X51808Y-61130
X55246Y-47294
X56610Y-39605
X57420Y-29220
X57460Y-46680
X57785Y-68075
X59314Y-81514
X60055Y-90300
X60201Y-61633
X62313Y-91747
X62359Y-93628
X62480Y-37990
X62963Y-59363
X63973Y-25476
X64255Y-43050
X66100Y-54520
X67800Y-80730
X67958Y-43897
X67980Y-84320
X68029Y-61115
X68340Y-35530
X68384Y-76717
X70272Y-94980
X73870Y-29050
X73932Y-45555
X73943Y-63871
X77577Y-60090
X78124Y-42937
X78750Y-38200
X79260Y-55180
X83440Y-77370
X84364Y-90472
X84427Y-43936
X84810Y-35350
X86760Y-62260
X87410Y-75480
X89890Y-94220
X90300Y-46440
X90770Y-62120
X90791Y-40715
X94732Y-42657
X94902Y-60110
X98163Y-43966
X99060Y-37080
X99575Y-72055
X99755Y-54005
X100975Y-86825
X101390Y-61955
X101690Y-26940
X102260Y-92840
X102300Y-87910
X106119Y-97704
X111556Y-97130
X117630Y-91810
T3
X25388Y-81379
X25388Y-96614
X26687Y-82776
X26687Y-98011
X27928Y-81379
X27928Y-96614
X29226Y-82776
X29226Y-98011
X30467Y-81379
X30467Y-96614
X31766Y-82776
X31766Y-98011
X33008Y-81379
X33008Y-96614
X34307Y-82776
X34307Y-98011
X35548Y-81379
X35548Y-96614
X36847Y-82776
X36847Y-98011
X38088Y-81379
X38088Y-96614
X39387Y-82776
X39387Y-98011
X40628Y-81379
X40628Y-96614
X41927Y-82776
X41927Y-98011
T4
G00X108410Y-72525
M15
G01X107910Y-72525
M16
G05
G00X108410Y-74975
M15
G01X107910Y-74975
M16
G05
G00X109910Y-70775
M15
G01X109410Y-70775
M16
G05
G00X109910Y-76725
M15
G01X109410Y-76725
M16
G05
G00X113910Y-70775
M15
G01X113410Y-70775
M16
G05
G00X113910Y-76725
M15
G01X113410Y-76725
M16
G05
G00X116910Y-70775
M15
G01X116410Y-70775
M16
G05
G00X116910Y-76725
M15
G01X116410Y-76725
M16
G05
T0
M30
