%TF.GenerationSoftware,KiCad,Pcbnew,(6.0.6)*%
%TF.CreationDate,2022-12-14T08:04:59+09:00*%
%TF.ProjectId,split-mini__left,73706c69-742d-46d6-996e-695f5f6c6566,rev?*%
%TF.SameCoordinates,Original*%
%TF.FileFunction,Soldermask,Top*%
%TF.FilePolarity,Negative*%
%FSLAX46Y46*%
G04 Gerber Fmt 4.6, Leading zero omitted, Abs format (unit mm)*
G04 Created by KiCad (PCBNEW (6.0.6)) date 2022-12-14 08:04:59*
%MOMM*%
%LPD*%
G01*
G04 APERTURE LIST*
%TA.AperFunction,Profile*%
%ADD10C,0.100000*%
%TD*%
%ADD11C,1.900000*%
%ADD12C,4.100000*%
%ADD13C,3.000000*%
%ADD14C,0.650000*%
%ADD15O,1.000000X1.800000*%
%ADD16O,1.000000X2.100000*%
%ADD17C,1.200000*%
%ADD18O,1.700000X2.500000*%
G04 APERTURE END LIST*
D10*
X108880000Y-20730000D02*
X108880000Y-28230000D01*
X115380000Y-37730000D02*
X115380000Y-20730000D01*
X20380000Y-97555000D02*
X111155000Y-97555000D01*
X24380000Y-28230000D02*
X20380000Y-28230000D01*
X35380000Y-28230000D02*
X35380000Y-20930000D01*
X115380000Y-37730000D02*
X111155000Y-37730000D01*
X111155000Y-97555000D02*
X111155000Y-37730000D01*
X35380000Y-20930000D02*
X24380000Y-20930000D01*
X115380000Y-20730000D02*
X108880000Y-20730000D01*
X20380000Y-28230000D02*
X20380000Y-97555000D01*
X108880000Y-28230000D02*
X35380000Y-28230000D01*
X24380000Y-20930000D02*
X24380000Y-28230000D01*
D11*
%TO.C,SW15*%
X100960000Y-70730000D03*
D12*
X95880000Y-70730000D03*
D13*
X92070000Y-68190000D03*
D11*
X90800000Y-70730000D03*
D13*
X98420000Y-65650000D03*
%TD*%
D11*
%TO.C,SW7*%
X41300000Y-56720000D03*
X51460000Y-56720000D03*
D13*
X48920000Y-51640000D03*
D12*
X46380000Y-56720000D03*
D13*
X42570000Y-54180000D03*
%TD*%
D11*
%TO.C,SW3*%
X57830000Y-37720000D03*
D13*
X59100000Y-35180000D03*
D12*
X62910000Y-37720000D03*
D13*
X65450000Y-32640000D03*
D11*
X67990000Y-37720000D03*
%TD*%
D13*
%TO.C,SW6*%
X32410000Y-54090000D03*
D11*
X24790000Y-59170000D03*
D12*
X29870000Y-59170000D03*
D11*
X34950000Y-59170000D03*
D13*
X26060000Y-56630000D03*
%TD*%
%TO.C,SW17*%
X87690000Y-82990000D03*
D11*
X80070000Y-88070000D03*
D12*
X85150000Y-88070000D03*
D13*
X81340000Y-85530000D03*
D11*
X90230000Y-88070000D03*
%TD*%
D13*
%TO.C,SW14*%
X81930000Y-65640000D03*
X75580000Y-68180000D03*
D12*
X79390000Y-70720000D03*
D11*
X84470000Y-70720000D03*
X74310000Y-70720000D03*
%TD*%
D13*
%TO.C,SW9*%
X75580000Y-51690000D03*
D12*
X79390000Y-54230000D03*
D13*
X81930000Y-49150000D03*
D11*
X84470000Y-54230000D03*
X74310000Y-54230000D03*
%TD*%
D13*
%TO.C,SW8*%
X59080000Y-51690000D03*
D11*
X57810000Y-54230000D03*
D12*
X62890000Y-54230000D03*
D13*
X65430000Y-49150000D03*
D11*
X67970000Y-54230000D03*
%TD*%
%TO.C,SW10*%
X100970000Y-54230000D03*
D12*
X95890000Y-54230000D03*
D11*
X90810000Y-54230000D03*
D13*
X92080000Y-51690000D03*
X98430000Y-49150000D03*
%TD*%
D12*
%TO.C,SW11*%
X29900000Y-75720000D03*
D13*
X26090000Y-73180000D03*
D11*
X34980000Y-75720000D03*
D13*
X32440000Y-70640000D03*
D11*
X24820000Y-75720000D03*
%TD*%
%TO.C,SW1*%
X24810000Y-42640000D03*
X34970000Y-42640000D03*
D13*
X26080000Y-40100000D03*
X32430000Y-37560000D03*
D12*
X29890000Y-42640000D03*
%TD*%
D13*
%TO.C,SW12*%
X42570000Y-70680000D03*
D11*
X51460000Y-73220000D03*
D13*
X48920000Y-68140000D03*
D11*
X41300000Y-73220000D03*
D12*
X46380000Y-73220000D03*
%TD*%
D11*
%TO.C,SW5*%
X100990000Y-37700000D03*
X90830000Y-37700000D03*
D13*
X98450000Y-32620000D03*
X92100000Y-35160000D03*
D12*
X95910000Y-37700000D03*
%TD*%
D11*
%TO.C,SW2*%
X41310000Y-40190000D03*
D12*
X46390000Y-40190000D03*
D13*
X48930000Y-35110000D03*
X42580000Y-37650000D03*
D11*
X51470000Y-40190000D03*
%TD*%
%TO.C,SW13*%
X67990000Y-70750000D03*
X57830000Y-70750000D03*
D13*
X59100000Y-68210000D03*
X65450000Y-65670000D03*
D12*
X62910000Y-70750000D03*
%TD*%
D11*
%TO.C,SW16*%
X63580000Y-88050000D03*
D13*
X71200000Y-82970000D03*
D11*
X73740000Y-88050000D03*
D13*
X64850000Y-85510000D03*
D12*
X68660000Y-88050000D03*
%TD*%
%TO.C,SW4*%
X79420000Y-37720000D03*
D11*
X84500000Y-37720000D03*
X74340000Y-37720000D03*
D13*
X75610000Y-35180000D03*
X81960000Y-32640000D03*
%TD*%
D11*
%TO.C,SW18*%
X96590000Y-88060000D03*
D13*
X104210000Y-82980000D03*
X97860000Y-85520000D03*
D11*
X106750000Y-88060000D03*
D12*
X101670000Y-88060000D03*
%TD*%
D14*
%TO.C,J1*%
X27000000Y-26000000D03*
X32780000Y-26000000D03*
D15*
X34210000Y-22320000D03*
D16*
X25570000Y-26500000D03*
X34210000Y-26500000D03*
D15*
X25570000Y-22320000D03*
%TD*%
D17*
%TO.C,J2*%
X112200000Y-29200000D03*
X112200000Y-22200000D03*
D18*
X114300000Y-32500000D03*
X110100000Y-24000000D03*
X110100000Y-27000000D03*
X110100000Y-31000000D03*
%TD*%
M02*
