M48
; DRILL file {KiCad (6.0.6)} date 2022年12月14日 08時04分59秒
; FORMAT={-:-/ absolute / metric / decimal}
; #@! TF.CreationDate,2022-12-14T08:04:59+09:00
; #@! TF.GenerationSoftware,Kicad,Pcbnew,(6.0.6)
; #@! TF.FileFunction,MixedPlating,1,2
FMAT,2
METRIC
; #@! TA.AperFunction,Plated,PTH,ViaDrill
T1C0.400
; #@! TA.AperFunction,Plated,PTH,ComponentDrill
T2C0.600
; #@! TA.AperFunction,Plated,PTH,ComponentDrill
T3C1.000
; #@! TA.AperFunction,NonPlated,NPTH,ComponentDrill
T4C0.650
; #@! TA.AperFunction,NonPlated,NPTH,ComponentDrill
T5C1.200
; #@! TA.AperFunction,NonPlated,NPTH,ComponentDrill
T6C1.900
; #@! TA.AperFunction,NonPlated,NPTH,ComponentDrill
T7C3.000
; #@! TA.AperFunction,NonPlated,NPTH,ComponentDrill
T8C4.100
%
G90
G05
T1
X22.59Y-36.88
X23.563Y-37.109
X23.634Y-53.4
X23.97Y-70.871
X25.65Y-84.625
X27.46Y-28.87
X28.024Y-29.695
X28.387Y-83.267
X28.44Y-82.268
X28.55Y-81.275
X28.961Y-80.364
X29.33Y-88.87
X32.076Y-88.626
X32.83Y-28.94
X32.9Y-34.18
X32.947Y-88.136
X33.775Y-87.575
X34.18Y-29.56
X34.27Y-34.08
X35.075Y-30.353
X35.74Y-32.59
X37.594Y-40.037
X37.95Y-93.775
X38.0Y-79.0
X38.426Y-51.165
X38.684Y-41.14
X39.025Y-95.048
X39.05Y-78.902
X39.45Y-51.2
X39.764Y-94.375
X39.875Y-78.075
X40.15Y-74.575
X40.775Y-94.0
X41.489Y-78.094
X43.41Y-78.75
X44.65Y-78.55
X45.225Y-79.5
X46.025Y-96.0
X46.85Y-79.5
X47.125Y-81.05
X47.2Y-76.75
X48.85Y-82.325
X49.0Y-75.935
X49.175Y-87.675
X50.075Y-88.2
X50.6Y-84.9
X50.95Y-88.8
X51.15Y-89.95
X52.33Y-84.82
X53.5Y-42.7
X53.725Y-59.55
X53.8Y-79.3
X69.85Y-57.85
X69.85Y-75.35
X70.025Y-43.05
X75.825Y-93.0
X86.025Y-58.35
X86.425Y-75.7
X86.675Y-43.7
X88.725Y-45.25
X92.425Y-93.35
X102.9Y-76.05
X103.05Y-58.575
X103.25Y-44.4
X104.975Y-50.75
X105.775Y-48.925
X105.875Y-41.025
X105.975Y-51.825
X106.8Y-34.3
X108.35Y-93.475
T4
X27.0Y-26.0
X32.78Y-26.0
T5
X112.2Y-22.2
X112.2Y-29.2
T6
X24.79Y-59.17
X24.81Y-42.64
X24.82Y-75.72
X34.95Y-59.17
X34.97Y-42.64
X34.98Y-75.72
X41.3Y-56.72
X41.3Y-73.22
X41.31Y-40.19
X51.46Y-56.72
X51.46Y-73.22
X51.47Y-40.19
X57.81Y-54.23
X57.83Y-37.72
X57.83Y-70.75
X63.58Y-88.05
X67.97Y-54.23
X67.99Y-37.72
X67.99Y-70.75
X73.74Y-88.05
X74.31Y-54.23
X74.31Y-70.72
X74.34Y-37.72
X80.07Y-88.07
X84.47Y-54.23
X84.47Y-70.72
X84.5Y-37.72
X90.23Y-88.07
X90.8Y-70.73
X90.81Y-54.23
X90.83Y-37.7
X96.59Y-88.06
X100.96Y-70.73
X100.97Y-54.23
X100.99Y-37.7
X106.75Y-88.06
T7
X26.06Y-56.63
X26.08Y-40.1
X26.09Y-73.18
X32.41Y-54.09
X32.43Y-37.56
X32.44Y-70.64
X42.57Y-54.18
X42.57Y-70.68
X42.58Y-37.65
X48.92Y-51.64
X48.92Y-68.14
X48.93Y-35.11
X59.08Y-51.69
X59.1Y-35.18
X59.1Y-68.21
X64.85Y-85.51
X65.43Y-49.15
X65.45Y-32.64
X65.45Y-65.67
X71.2Y-82.97
X75.58Y-51.69
X75.58Y-68.18
X75.61Y-35.18
X81.34Y-85.53
X81.93Y-49.15
X81.93Y-65.64
X81.96Y-32.64
X87.69Y-82.99
X92.07Y-68.19
X92.08Y-51.69
X92.1Y-35.16
X97.86Y-85.52
X98.42Y-65.65
X98.43Y-49.15
X98.45Y-32.62
X104.21Y-82.98
T8
X29.87Y-59.17
X29.89Y-42.64
X29.9Y-75.72
X46.38Y-56.72
X46.38Y-73.22
X46.39Y-40.19
X62.89Y-54.23
X62.91Y-37.72
X62.91Y-70.75
X68.66Y-88.05
X79.39Y-54.23
X79.39Y-70.72
X79.42Y-37.72
X85.15Y-88.07
X95.88Y-70.73
X95.89Y-54.23
X95.91Y-37.7
X101.67Y-88.06
T2
G00X25.57Y-21.92
M15
G01X25.57Y-22.72
M16
G05
G00X25.57Y-25.95
M15
G01X25.57Y-27.05
M16
G05
G00X34.21Y-21.92
M15
G01X34.21Y-22.72
M16
G05
G00X34.21Y-25.95
M15
G01X34.21Y-27.05
M16
G05
T3
G00X110.1Y-24.25
M15
G01X110.1Y-23.75
M16
G05
G00X110.1Y-27.25
M15
G01X110.1Y-26.75
M16
G05
G00X110.1Y-31.25
M15
G01X110.1Y-30.75
M16
G05
G00X114.3Y-32.75
M15
G01X114.3Y-32.25
M16
G05
T0
M30
