<?xml version="1.0"?>
<!DOCTYPE svg PUBLIC "-//W3C//DTD SVG 1.1//EN" "http://www.w3.org/Graphics/SVG/1.1/DTD/svg11.dtd">
<svg width="101.7438319461453mm" height="85.72737803902211mm" viewBox="0 0 101.7438319461453 85.72737803902211" xmlns="http://www.w3.org/2000/svg" version="1.1">
<g id="Sketch020" transform="translate(104.700215,6.992982) scale(1,-1)">
<path id="Sketch020_w0000"  d="M -18.05272674560547 3.085188117333989 A 2.91031 2.91031 0 0 1 -20.963 5.99549L -100.98459662827148 5.995493489062509 A 2.71813 2.71813 0 0 1 -103.703 3.27736L -103.7027267456054 -72.191658732666 A 2.30871 2.30871 0 0 1 -101.394 -74.5004L -70.5314748251021 -74.50036621093744 A 14.1049 14.1049 0 0 1 -66.8764 -74.0186L -58.97013446840865 -71.89731108685412 A 22.5987 22.5987 0 0 0 -53.114 -71.1254L -45.43181766356879 -71.12536621093747 A 26.8432 26.8432 0 0 0 -42.6259 -71.2724L -33.27890663951454 -72.2548285555859 A 26.0938 26.0938 0 0 0 -29.6938 -72.887L -10.510346424791592 -77.66995132585178 A 2.26929 2.26929 0 0 1 -7.75948 -76.0171L -4.735143152844564 -63.887126468101 A 26.3016 26.3016 0 0 1 -3.95387 -57.5242L -3.953871896443339 -43.18566509529808 A 1.57288 1.57288 0 0 1 -5.09321 -41.6737L -18.05272674560547 -37.95762988168264 L -18.05272674560547 3.0851881173339892 " stroke="#191919" stroke-width="0.35 px" style="stroke-width:0.35;stroke-miterlimit:4;stroke-dasharray:none;fill:none;fill-opacity:1;fill-rule: evenodd"/>
<path id="Sketch020_w0001"  d="M -18.05272674560547 -39.957629881682614 L -16.05272674560547 -39.957629881682614 " stroke="#191919" stroke-width="0.35 px" style="stroke-width:0.35;stroke-miterlimit:4;stroke-dasharray:none;fill:none;fill-opacity:1;fill-rule: evenodd"/>
<title>b'\xe3\x83\x99\xe3\x83\xbc\xe3\x82\xb9011'</title>
</g>
</svg>