M48
METRIC,TZ
T1C1.200
T2C1.700
T3C1.900
T4C3.000
T5C4.000
T6C4.500
%
G90
G05
T1
X111460Y-72875
X111460Y-74625
X118460Y-72875
X118460Y-74625
T2
X24960Y-33930
X24960Y-51460
X24970Y-68960
X35120Y-33930
X35120Y-51460
X35130Y-68960
X43090Y-33950
X43100Y-51450
X43100Y-68940
X53250Y-33950
X53260Y-51450
X53260Y-68940
X59630Y-33950
X59630Y-51460
X59660Y-68980
X69790Y-33950
X69790Y-51460
X69820Y-68980
X70290Y-89080
X76080Y-68960
X76090Y-51460
X76100Y-33930
X80450Y-89080
X86240Y-68960
X86250Y-51460
X86260Y-33930
X87601Y-89756
X92590Y-68960
X92600Y-51470
X92610Y-33960
X97705Y-90818
X102750Y-68960
X102760Y-51470
X102770Y-33960
X104940Y-93010
X114798Y-95468
T3
X24540Y-33930
X24540Y-51460
X24550Y-68960
X35540Y-33930
X35540Y-51460
X35550Y-68960
X42670Y-33950
X42680Y-51450
X42680Y-68940
X53670Y-33950
X53680Y-51450
X53680Y-68940
X59210Y-33950
X59210Y-51460
X59240Y-68980
X69870Y-89080
X70210Y-33950
X70210Y-51460
X70240Y-68980
X75660Y-68960
X75670Y-51460
X75680Y-33930
X80870Y-89080
X86660Y-68960
X86670Y-51460
X86680Y-33930
X87183Y-89712
X92170Y-68960
X92180Y-51470
X92190Y-33960
X98123Y-90862
X103170Y-68960
X103180Y-51470
X103190Y-33960
X104532Y-92908
X115206Y-95570
T4
X25040Y-37630
X25040Y-55160
X25050Y-72660
X26230Y-31390
X26230Y-48920
X26240Y-66420
X27500Y-28850
X27500Y-46380
X27510Y-63880
X30040Y-39830
X30040Y-57360
X30050Y-74860
X32580Y-28850
X32580Y-46380
X32590Y-63880
X33850Y-31390
X33850Y-48920
X33860Y-66420
X35040Y-37630
X35040Y-55160
X35050Y-72660
X43170Y-37650
X43180Y-55150
X43180Y-72640
X44360Y-31410
X44370Y-48910
X44370Y-66400
X45630Y-28870
X45640Y-46370
X45640Y-63860
X48170Y-39850
X48180Y-57350
X48180Y-74840
X50710Y-28870
X50720Y-46370
X50720Y-63860
X51980Y-31410
X51990Y-48910
X51990Y-66400
X53170Y-37650
X53180Y-55150
X53180Y-72640
X59710Y-37650
X59710Y-55160
X59740Y-72680
X60900Y-31410
X60900Y-48920
X60930Y-66440
X62170Y-28870
X62170Y-46380
X62200Y-63900
X64710Y-39850
X64710Y-57360
X64740Y-74880
X67250Y-28870
X67250Y-46380
X67280Y-63900
X68520Y-31410
X68520Y-48920
X68550Y-66440
X69710Y-37650
X69710Y-55160
X69740Y-72680
X70370Y-92780
X71560Y-86540
X72830Y-84000
X75370Y-94980
X76160Y-72660
X76170Y-55160
X76180Y-37630
X77350Y-66420
X77360Y-48920
X77370Y-31390
X77910Y-84000
X78620Y-63880
X78630Y-46380
X78640Y-28850
X79180Y-86540
X80370Y-92780
X81160Y-74860
X81170Y-57360
X81180Y-39830
X83700Y-63880
X83710Y-46380
X83720Y-28850
X84970Y-66420
X84980Y-48920
X84990Y-31390
X86160Y-72660
X86170Y-55160
X86180Y-37630
X87294Y-93444
X89129Y-87362
X90658Y-84969
X92036Y-96154
X92670Y-72660
X92680Y-55170
X92690Y-37660
X93860Y-66420
X93870Y-48930
X93880Y-31420
X95130Y-63880
X95140Y-46390
X95150Y-28880
X95710Y-85500
X96708Y-88159
X97239Y-94489
X97670Y-74860
X97680Y-57370
X97690Y-39860
X100210Y-63880
X100220Y-46390
X100230Y-28880
X101480Y-66420
X101490Y-48930
X101500Y-31420
X102670Y-72660
X102680Y-55170
X102690Y-37660
X104123Y-96619
X106787Y-90853
X108442Y-99964
X108634Y-88695
X113563Y-89924
X113825Y-99039
X114180Y-92696
T5
X30040Y-33930
X30040Y-51460
X30050Y-68960
X48170Y-33950
X48180Y-51450
X48180Y-68940
X64710Y-33950
X64710Y-51460
X64740Y-68980
X75370Y-89080
X81160Y-68960
X81170Y-51460
X81180Y-33930
X92653Y-90287
X97670Y-68960
X97680Y-51470
X97690Y-33960
X109869Y-94239
T6
X30040Y-23950
X52020Y-80950
X53040Y-95600
X97680Y-23950
X112800Y-84690
T0
M30
