M48
METRIC,TZ
T1C0.650
T2C1.200
T3C1.900
T4C3.000
T5C4.100
%
G90
G05
T1
X36885Y-25225
X42665Y-25225
T2
X109150Y-21275
X109150Y-28275
T3
X22005Y-81080
X22020Y-47075
X22020Y-64100
X32165Y-81080
X32180Y-47075
X32180Y-64100
X38970Y-76825
X38995Y-42850
X38995Y-59850
X49130Y-76825
X49155Y-42850
X49155Y-59850
X55995Y-40300
X55995Y-57300
X55995Y-74275
X62795Y-92150
X66155Y-40300
X66155Y-57300
X66155Y-74275
X72955Y-92150
X72995Y-40300
X72995Y-57300
X73005Y-74315
X79795Y-92150
X83155Y-40300
X83155Y-57300
X83165Y-74315
X89955Y-92150
X89970Y-57300
X89995Y-40300
X89995Y-74300
X96795Y-92150
X100130Y-57300
X100155Y-40300
X100155Y-74300
X106955Y-92150
T4
X23275Y-78540
X23290Y-44535
X23290Y-61560
X29625Y-76000
X29640Y-41995
X29640Y-59020
X40240Y-74285
X40265Y-40310
X40265Y-57310
X46590Y-71745
X46615Y-37770
X46615Y-54770
X57265Y-37760
X57265Y-54760
X57265Y-71735
X63615Y-35220
X63615Y-52220
X63615Y-69195
X64065Y-89610
X70415Y-87070
X74265Y-37760
X74265Y-54760
X74275Y-71775
X80615Y-35220
X80615Y-52220
X80625Y-69235
X81065Y-89610
X87415Y-87070
X91240Y-54760
X91265Y-37760
X91265Y-71760
X97590Y-52220
X97615Y-35220
X97615Y-69220
X98065Y-89610
X104415Y-87070
T5
X27085Y-81080
X27100Y-47075
X27100Y-64100
X44050Y-76825
X44075Y-42850
X44075Y-59850
X61075Y-40300
X61075Y-57300
X61075Y-74275
X67875Y-92150
X78075Y-40300
X78075Y-57300
X78085Y-74315
X84875Y-92150
X95050Y-57300
X95075Y-40300
X95075Y-74300
X101875Y-92150
T0
M30
