M48
METRIC,TZ
T1C0.400
T2C0.600
T3C1.000
%
G90
G05
T1
X19450Y-38475
X20700Y-40900
X21075Y-57975
X21625Y-74075
X22425Y-90000
X23508Y-89882
X23935Y-88801
X24157Y-87826
X28725Y-86175
X28785Y-95215
X32146Y-92397
X33087Y-92062
X34325Y-91975
X34975Y-44025
X35500Y-98250
X35909Y-55248
X36100Y-43925
X36950Y-55300
X37500Y-28875
X37950Y-36550
X38250Y-31125
X38325Y-78750
X38825Y-37075
X39150Y-98500
X39450Y-82425
X40400Y-81925
X40440Y-98390
X40650Y-80850
X41813Y-98387
X41875Y-32400
X42750Y-83025
X45675Y-80900
X45775Y-100450
X46875Y-80900
X47752Y-81378
X47950Y-82525
X48400Y-33200
X48950Y-82625
X49550Y-87300
X50050Y-74475
X50125Y-91950
X50165Y-92949
X50725Y-65000
X50750Y-47100
X51375Y-95050
X51600Y-93850
X51792Y-37300
X51975Y-88400
X52625Y-82025
X53087Y-89512
X53250Y-34800
X67875Y-79050
X68413Y-46788
X68675Y-60450
X75200Y-97100
X84925Y-47075
X85450Y-79800
X85775Y-61175
X85775Y-61175
X91800Y-97250
X102325Y-79875
X102450Y-47525
X102525Y-61350
X108600Y-97775
X110000Y-24150
T2
G00X35455Y-21145
M15
G01X35455Y-21945
M16
G05
G00X35455Y-25175
M15
G01X35455Y-26275
M16
G05
G00X44095Y-21145
M15
G01X44095Y-21945
M16
G05
G00X44095Y-25175
M15
G01X44095Y-26275
M16
G05
T3
G00X107050Y-23325
M15
G01X107050Y-22825
M16
G05
G00X107050Y-26325
M15
G01X107050Y-25825
M16
G05
G00X107050Y-30325
M15
G01X107050Y-29825
M16
G05
G00X111250Y-31825
M15
G01X111250Y-31325
M16
G05
T0
M30
