M48
METRIC,TZ
T1C0.650
T2C1.200
T3C1.900
T4C3.000
T5C4.100
%
G90
G05
T1
X27000Y-26000
X32780Y-26000
T2
X112200Y-22200
X112200Y-29200
T3
X24790Y-59170
X24810Y-42640
X24820Y-75720
X34950Y-59170
X34970Y-42640
X34980Y-75720
X41300Y-56720
X41300Y-73220
X41310Y-40190
X51460Y-56720
X51460Y-73220
X51470Y-40190
X57810Y-54230
X57830Y-37720
X57830Y-70750
X63580Y-88050
X67970Y-54230
X67990Y-37720
X67990Y-70750
X73740Y-88050
X74310Y-54230
X74310Y-70720
X74340Y-37720
X80070Y-88070
X84470Y-54230
X84470Y-70720
X84500Y-37720
X90230Y-88070
X90800Y-70730
X90810Y-54230
X90830Y-37700
X96590Y-88060
X100960Y-70730
X100970Y-54230
X100990Y-37700
X106750Y-88060
T4
X26060Y-56630
X26080Y-40100
X26090Y-73180
X32410Y-54090
X32430Y-37560
X32440Y-70640
X42570Y-54180
X42570Y-70680
X42580Y-37650
X48920Y-51640
X48920Y-68140
X48930Y-35110
X59080Y-51690
X59100Y-35180
X59100Y-68210
X64850Y-85510
X65430Y-49150
X65450Y-32640
X65450Y-65670
X71200Y-82970
X75580Y-51690
X75580Y-68180
X75610Y-35180
X81340Y-85530
X81930Y-49150
X81930Y-65640
X81960Y-32640
X87690Y-82990
X92070Y-68190
X92080Y-51690
X92100Y-35160
X97860Y-85520
X98420Y-65650
X98430Y-49150
X98450Y-32620
X104210Y-82980
T5
X29870Y-59170
X29890Y-42640
X29900Y-75720
X46380Y-56720
X46380Y-73220
X46390Y-40190
X62890Y-54230
X62910Y-37720
X62910Y-70750
X68660Y-88050
X79390Y-54230
X79390Y-70720
X79420Y-37720
X85150Y-88070
X95880Y-70730
X95890Y-54230
X95910Y-37700
X101670Y-88060
T0
M30
