M48
METRIC,TZ
T1C0.400
T2C0.600
T3C1.000
%
G90
G05
T1
X22590Y-36880
X23563Y-37109
X23635Y-53400
X23970Y-70871
X25650Y-84625
X27460Y-28870
X28024Y-29695
X28387Y-83267
X28440Y-82268
X28550Y-81275
X28961Y-80364
X29330Y-88870
X32076Y-88626
X32830Y-28940
X32900Y-34180
X32947Y-88136
X33775Y-87575
X34180Y-29560
X34270Y-34080
X35075Y-30353
X35740Y-32590
X37594Y-40037
X37950Y-93775
X38000Y-79000
X38426Y-51165
X38685Y-41140
X39025Y-95048
X39051Y-78902
X39450Y-51200
X39765Y-94375
X39875Y-78075
X40150Y-74575
X40775Y-94000
X41490Y-78094
X43410Y-78750
X44650Y-78550
X45225Y-79500
X46025Y-96000
X46850Y-79500
X47125Y-81050
X47200Y-76750
X48850Y-82325
X49000Y-75936
X49175Y-87675
X50075Y-88200
X50600Y-84900
X50950Y-88800
X51150Y-89950
X52330Y-84820
X53500Y-42700
X53725Y-59550
X53800Y-79300
X69850Y-57850
X69850Y-75350
X70025Y-43050
X75825Y-93000
X86025Y-58350
X86425Y-75700
X86675Y-43700
X88725Y-45250
X92425Y-93350
X102900Y-76050
X103050Y-58575
X103250Y-44400
X104975Y-50750
X105775Y-48925
X105875Y-41025
X105975Y-51825
X106800Y-34300
X108350Y-93475
T2
G00X25570Y-21920
M15
G01X25570Y-22720
M16
G05
G00X25570Y-25950
M15
G01X25570Y-27050
M16
G05
G00X34210Y-21920
M15
G01X34210Y-22720
M16
G05
G00X34210Y-25950
M15
G01X34210Y-27050
M16
G05
T3
G00X110100Y-24250
M15
G01X110100Y-23750
M16
G05
G00X110100Y-27250
M15
G01X110100Y-26750
M16
G05
G00X110100Y-31250
M15
G01X110100Y-30750
M16
G05
G00X114300Y-32750
M15
G01X114300Y-32250
M16
G05
T0
M30
