M48
; DRILL file {KiCad (6.0.6)} date 2022年11月13日 11時43分20秒
; FORMAT={-:-/ absolute / metric / decimal}
; #@! TF.CreationDate,2022-11-13T11:43:20+09:00
; #@! TF.GenerationSoftware,Kicad,Pcbnew,(6.0.6)
; #@! TF.FileFunction,MixedPlating,1,2
FMAT,2
METRIC
; #@! TA.AperFunction,Plated,PTH,ViaDrill
T1C0.400
; #@! TA.AperFunction,Plated,PTH,ComponentDrill
T2C0.600
; #@! TA.AperFunction,Plated,PTH,ComponentDrill
T3C1.000
; #@! TA.AperFunction,NonPlated,NPTH,ComponentDrill
T4C0.650
; #@! TA.AperFunction,NonPlated,NPTH,ComponentDrill
T5C1.200
; #@! TA.AperFunction,NonPlated,NPTH,ComponentDrill
T6C1.900
; #@! TA.AperFunction,NonPlated,NPTH,ComponentDrill
T7C3.000
; #@! TA.AperFunction,NonPlated,NPTH,ComponentDrill
T8C4.100
%
G90
G05
T1
X23.5Y-99.0
X35.367Y-95.33
X37.25Y-78.25
X37.84Y-87.98
X37.96Y-86.204
X38.36Y-89.36
X38.58Y-85.42
X38.88Y-87.13
X39.0Y-63.5
X39.7Y-84.7
X40.5Y-80.25
X40.683Y-51.423
X41.2Y-52.56
X43.25Y-93.76
X43.879Y-78.621
X44.5Y-85.75
X45.84Y-72.93
X46.328Y-94.253
X47.33Y-55.54
X47.42Y-94.09
X48.403Y-55.492
X48.752Y-78.362
X48.82Y-93.76
X50.26Y-78.06
X50.786Y-75.789
X51.32Y-46.05
X51.392Y-77.952
X51.47Y-47.5
X52.59Y-64.5
X52.652Y-77.832
X54.01Y-77.84
X54.331Y-88.01
X54.78Y-83.85
X55.36Y-77.7
X56.17Y-91.89
X56.206Y-90.49
X56.29Y-81.6
X57.788Y-88.552
X58.072Y-86.788
X60.55Y-64.67
X60.71Y-81.38
X61.25Y-59.0
X65.445Y-43.24
X67.61Y-43.53
X67.863Y-61.103
X70.5Y-52.5
X71.35Y-24.4
X72.878Y-28.488
X72.885Y-25.17
X74.847Y-27.204
X75.77Y-25.72
X76.02Y-24.4
X78.9Y-24.85
X82.705Y-39.045
X83.21Y-48.07
X97.41Y-69.94
X98.915Y-69.843
X101.005Y-68.495
X101.058Y-67.332
T4
X70.97Y-20.35
X76.75Y-20.35
T5
X22.355Y-38.662
X26.37Y-44.396
T6
X23.916Y-104.807
X33.464Y-101.333
X35.77Y-75.44
X35.78Y-40.44
X35.79Y-57.94
X40.597Y-98.322
X45.93Y-75.44
X45.94Y-40.44
X45.95Y-57.94
X50.603Y-96.558
X52.27Y-54.46
X52.28Y-71.95
X52.31Y-36.93
X58.06Y-95.56
X62.43Y-54.46
X62.44Y-71.95
X62.47Y-36.93
X68.22Y-95.56
X68.76Y-50.08
X68.77Y-32.57
X68.77Y-67.58
X78.92Y-50.08
X78.93Y-32.57
X78.93Y-67.58
X85.27Y-36.07
X85.28Y-53.56
X85.28Y-71.07
X95.43Y-36.07
X95.44Y-53.56
X95.44Y-71.07
X101.76Y-75.43
X101.77Y-40.44
X101.77Y-57.94
X111.92Y-75.43
X111.93Y-40.44
X111.93Y-57.94
T7
X28.041Y-108.712
X33.139Y-104.154
X37.04Y-72.9
X37.05Y-37.9
X37.06Y-55.4
X43.39Y-70.36
X43.4Y-35.36
X43.41Y-52.86
X43.981Y-102.884
X49.793Y-99.28
X53.54Y-51.92
X53.55Y-69.41
X53.58Y-34.39
X59.89Y-49.38
X59.9Y-66.87
X59.93Y-31.85
X60.6Y-100.64
X66.95Y-98.1
X70.03Y-47.54
X70.04Y-65.04
X71.31Y-37.65
X76.38Y-45.0
X76.39Y-62.5
X77.66Y-35.11
X86.55Y-51.02
X86.55Y-68.53
X87.81Y-41.15
X92.9Y-48.48
X92.9Y-65.99
X94.16Y-38.61
X103.03Y-72.89
X103.04Y-55.4
X104.31Y-45.52
X109.38Y-70.35
X109.39Y-52.86
X110.66Y-42.98
T8
X28.69Y-103.07
X40.85Y-75.44
X40.86Y-40.44
X40.87Y-57.94
X45.6Y-97.44
X57.35Y-54.46
X57.36Y-71.95
X57.39Y-36.93
X63.14Y-95.56
X73.84Y-50.08
X73.85Y-32.57
X73.85Y-67.58
X90.35Y-36.07
X90.36Y-53.56
X90.36Y-71.07
X106.84Y-75.43
X106.85Y-40.44
X106.85Y-57.94
T2
G00X69.54Y-17.07
M15
G01X69.54Y-16.27
M16
G05
G00X69.54Y-21.4
M15
G01X69.54Y-20.3
M16
G05
G00X78.18Y-17.07
M15
G01X78.18Y-16.27
M16
G05
G00X78.18Y-21.4
M15
G01X78.18Y-20.3
M16
G05
T3
G00X24.964Y-38.728
M15
G01X25.251Y-39.137
M16
G05
G00X26.399Y-48.099
M15
G01X26.686Y-48.509
M16
G05
G00X26.685Y-41.185
M15
G01X26.971Y-41.595
M16
G05
G00X28.979Y-44.462
M15
G01X29.266Y-44.871
M16
G05
T0
M30
