%TF.GenerationSoftware,KiCad,Pcbnew,(6.0.6)*%
%TF.CreationDate,2022-11-13T11:43:20+09:00*%
%TF.ProjectId,split-mini__right,73706c69-742d-46d6-996e-695f5f726967,rev?*%
%TF.SameCoordinates,Original*%
%TF.FileFunction,Legend,Bot*%
%TF.FilePolarity,Positive*%
%FSLAX46Y46*%
G04 Gerber Fmt 4.6, Leading zero omitted, Abs format (unit mm)*
G04 Created by KiCad (PCBNEW (6.0.6)) date 2022-11-13 11:43:20*
%MOMM*%
%LPD*%
G01*
G04 APERTURE LIST*
G04 Aperture macros list*
%AMRoundRect*
0 Rectangle with rounded corners*
0 $1 Rounding radius*
0 $2 $3 $4 $5 $6 $7 $8 $9 X,Y pos of 4 corners*
0 Add a 4 corners polygon primitive as box body*
4,1,4,$2,$3,$4,$5,$6,$7,$8,$9,$2,$3,0*
0 Add four circle primitives for the rounded corners*
1,1,$1+$1,$2,$3*
1,1,$1+$1,$4,$5*
1,1,$1+$1,$6,$7*
1,1,$1+$1,$8,$9*
0 Add four rect primitives between the rounded corners*
20,1,$1+$1,$2,$3,$4,$5,0*
20,1,$1+$1,$4,$5,$6,$7,0*
20,1,$1+$1,$6,$7,$8,$9,0*
20,1,$1+$1,$8,$9,$2,$3,0*%
%AMHorizOval*
0 Thick line with rounded ends*
0 $1 width*
0 $2 $3 position (X,Y) of the first rounded end (center of the circle)*
0 $4 $5 position (X,Y) of the second rounded end (center of the circle)*
0 Add line between two ends*
20,1,$1,$2,$3,$4,$5,0*
0 Add two circle primitives to create the rounded ends*
1,1,$1,$2,$3*
1,1,$1,$4,$5*%
%AMRotRect*
0 Rectangle, with rotation*
0 The origin of the aperture is its center*
0 $1 length*
0 $2 width*
0 $3 Rotation angle, in degrees counterclockwise*
0 Add horizontal line*
21,1,$1,$2,0,0,$3*%
G04 Aperture macros list end*
%ADD10C,0.100000*%
%TA.AperFunction,Profile*%
%ADD11C,0.100000*%
%TD*%
%ADD12C,0.200000*%
%ADD13C,0.150000*%
%ADD14C,0.120000*%
%ADD15C,0.350000*%
%ADD16O,0.600000X1.400000*%
%ADD17O,0.600000X1.700000*%
%ADD18HorizOval,1.000000X-0.143394X0.204788X0.143394X-0.204788X0*%
%ADD19C,1.900000*%
%ADD20C,3.000000*%
%ADD21C,4.100000*%
%ADD22R,2.550000X2.500000*%
%ADD23C,0.650000*%
%ADD24O,1.000000X1.800000*%
%ADD25O,1.000000X2.100000*%
%ADD26RotRect,2.550000X2.500000X10.000000*%
%ADD27C,1.200000*%
%ADD28HorizOval,1.700000X-0.229431X0.327661X0.229431X-0.327661X0*%
%ADD29RotRect,2.550000X2.500000X20.000000*%
%ADD30RoundRect,0.137500X-0.137500X0.600000X-0.137500X-0.600000X0.137500X-0.600000X0.137500X0.600000X0*%
%ADD31RoundRect,0.137500X-0.600000X0.137500X-0.600000X-0.137500X0.600000X-0.137500X0.600000X0.137500X0*%
%ADD32RoundRect,0.250000X-0.625000X0.375000X-0.625000X-0.375000X0.625000X-0.375000X0.625000X0.375000X0*%
%ADD33RoundRect,0.250000X0.262500X0.450000X-0.262500X0.450000X-0.262500X-0.450000X0.262500X-0.450000X0*%
%ADD34RoundRect,0.250000X-0.262500X-0.450000X0.262500X-0.450000X0.262500X0.450000X-0.262500X0.450000X0*%
%ADD35RoundRect,0.250000X-0.250000X-0.475000X0.250000X-0.475000X0.250000X0.475000X-0.250000X0.475000X0*%
%ADD36RoundRect,0.250000X-0.475000X0.250000X-0.475000X-0.250000X0.475000X-0.250000X0.475000X0.250000X0*%
%ADD37R,0.650000X1.050000*%
%ADD38R,2.100000X1.800000*%
%ADD39RoundRect,0.250000X0.475000X-0.250000X0.475000X0.250000X-0.475000X0.250000X-0.475000X-0.250000X0*%
%ADD40RoundRect,0.250000X-0.450000X0.262500X-0.450000X-0.262500X0.450000X-0.262500X0.450000X0.262500X0*%
%ADD41RoundRect,0.250000X0.250000X0.475000X-0.250000X0.475000X-0.250000X-0.475000X0.250000X-0.475000X0*%
G04 APERTURE END LIST*
D10*
X43239482Y-82120000D02*
G75*
G03*
X43239482Y-82120000I-246982J0D01*
G01*
D11*
X31862559Y-92361502D02*
X17138087Y-97720772D01*
X99362559Y-27072346D02*
X82862559Y-27072346D01*
X99362559Y-31447346D02*
X99362559Y-27072346D01*
X31862559Y-35447346D02*
X24406065Y-35447346D01*
X31862559Y-58300450D02*
X18672001Y-39462381D01*
X97862559Y-80072346D02*
X97862559Y-84447346D01*
X23294449Y-114635239D02*
X45197576Y-106663153D01*
X81362559Y-80072346D02*
X97862559Y-80072346D01*
X17138087Y-97720772D02*
X23294449Y-114635239D01*
X48362559Y-27947346D02*
X64862559Y-27947346D01*
X115862559Y-31447346D02*
X99362559Y-31447346D01*
X72137559Y-104572346D02*
X72137559Y-76572346D01*
X57055130Y-104572346D02*
X72137559Y-104572346D01*
X97862559Y-84447346D02*
X115862559Y-84447346D01*
X82862559Y-27072346D02*
X82862559Y-23572346D01*
X31862559Y-58300450D02*
X31862559Y-92361502D01*
X64862559Y-23572346D02*
X68362559Y-23572346D01*
X45197576Y-106663153D02*
X57055130Y-104572346D01*
X68362559Y-15272346D02*
X68362559Y-23572346D01*
X115862559Y-84447346D02*
X115862559Y-31447346D01*
X48362559Y-31447346D02*
X48362559Y-27947346D01*
X18672001Y-39462381D02*
X24406065Y-35447346D01*
X79362559Y-15272346D02*
X79362559Y-23572346D01*
X79362559Y-23572346D02*
X82862559Y-23572346D01*
X68362559Y-15272346D02*
X79362559Y-15272346D01*
X31862559Y-31447346D02*
X31862559Y-35447346D01*
X64862559Y-27947346D02*
X64862559Y-23572346D01*
X48362559Y-31447346D02*
X31862559Y-31447346D01*
X81362559Y-76572346D02*
X81362559Y-80072346D01*
X72137559Y-76572346D02*
X81362559Y-76572346D01*
D12*
X96959047Y-77579761D02*
X96863809Y-77627380D01*
X96673333Y-77627380D01*
X96578095Y-77579761D01*
X96530476Y-77484523D01*
X96530476Y-77436904D01*
X96578095Y-77341666D01*
X96673333Y-77294047D01*
X96816190Y-77294047D01*
X96911428Y-77246428D01*
X96959047Y-77151190D01*
X96959047Y-77103571D01*
X96911428Y-77008333D01*
X96816190Y-76960714D01*
X96673333Y-76960714D01*
X96578095Y-77008333D01*
X96101904Y-76960714D02*
X96101904Y-77960714D01*
X96101904Y-77008333D02*
X96006666Y-76960714D01*
X95816190Y-76960714D01*
X95720952Y-77008333D01*
X95673333Y-77055952D01*
X95625714Y-77151190D01*
X95625714Y-77436904D01*
X95673333Y-77532142D01*
X95720952Y-77579761D01*
X95816190Y-77627380D01*
X96006666Y-77627380D01*
X96101904Y-77579761D01*
X95054285Y-77627380D02*
X95149523Y-77579761D01*
X95197142Y-77484523D01*
X95197142Y-76627380D01*
X94673333Y-77627380D02*
X94673333Y-76960714D01*
X94673333Y-76627380D02*
X94720952Y-76675000D01*
X94673333Y-76722619D01*
X94625714Y-76675000D01*
X94673333Y-76627380D01*
X94673333Y-76722619D01*
X94340000Y-76960714D02*
X93959047Y-76960714D01*
X94197142Y-76627380D02*
X94197142Y-77484523D01*
X94149523Y-77579761D01*
X94054285Y-77627380D01*
X93959047Y-77627380D01*
X92863809Y-77627380D02*
X92863809Y-76960714D01*
X92863809Y-77055952D02*
X92816190Y-77008333D01*
X92720952Y-76960714D01*
X92578095Y-76960714D01*
X92482857Y-77008333D01*
X92435238Y-77103571D01*
X92435238Y-77627380D01*
X92435238Y-77103571D02*
X92387619Y-77008333D01*
X92292380Y-76960714D01*
X92149523Y-76960714D01*
X92054285Y-77008333D01*
X92006666Y-77103571D01*
X92006666Y-77627380D01*
X91530476Y-77627380D02*
X91530476Y-76960714D01*
X91530476Y-76627380D02*
X91578095Y-76675000D01*
X91530476Y-76722619D01*
X91482857Y-76675000D01*
X91530476Y-76627380D01*
X91530476Y-76722619D01*
X91054285Y-76960714D02*
X91054285Y-77627380D01*
X91054285Y-77055952D02*
X91006666Y-77008333D01*
X90911428Y-76960714D01*
X90768571Y-76960714D01*
X90673333Y-77008333D01*
X90625714Y-77103571D01*
X90625714Y-77627380D01*
X90149523Y-77627380D02*
X90149523Y-76960714D01*
X90149523Y-76627380D02*
X90197142Y-76675000D01*
X90149523Y-76722619D01*
X90101904Y-76675000D01*
X90149523Y-76627380D01*
X90149523Y-76722619D01*
X88911428Y-77627380D02*
X88911428Y-76960714D01*
X88911428Y-77151190D02*
X88863809Y-77055952D01*
X88816190Y-77008333D01*
X88720952Y-76960714D01*
X88625714Y-76960714D01*
X87911428Y-77579761D02*
X88006666Y-77627380D01*
X88197142Y-77627380D01*
X88292380Y-77579761D01*
X88340000Y-77484523D01*
X88340000Y-77103571D01*
X88292380Y-77008333D01*
X88197142Y-76960714D01*
X88006666Y-76960714D01*
X87911428Y-77008333D01*
X87863809Y-77103571D01*
X87863809Y-77198809D01*
X88340000Y-77294047D01*
X87530476Y-76960714D02*
X87292380Y-77627380D01*
X87054285Y-76960714D01*
X86482857Y-76627380D02*
X86387619Y-76627380D01*
X86292380Y-76675000D01*
X86244761Y-76722619D01*
X86197142Y-76817857D01*
X86149523Y-77008333D01*
X86149523Y-77246428D01*
X86197142Y-77436904D01*
X86244761Y-77532142D01*
X86292380Y-77579761D01*
X86387619Y-77627380D01*
X86482857Y-77627380D01*
X86578095Y-77579761D01*
X86625714Y-77532142D01*
X86673333Y-77436904D01*
X86720952Y-77246428D01*
X86720952Y-77008333D01*
X86673333Y-76817857D01*
X86625714Y-76722619D01*
X86578095Y-76675000D01*
X86482857Y-76627380D01*
X85720952Y-77532142D02*
X85673333Y-77579761D01*
X85720952Y-77627380D01*
X85768571Y-77579761D01*
X85720952Y-77532142D01*
X85720952Y-77627380D01*
X84768571Y-76627380D02*
X85244761Y-76627380D01*
X85292380Y-77103571D01*
X85244761Y-77055952D01*
X85149523Y-77008333D01*
X84911428Y-77008333D01*
X84816190Y-77055952D01*
X84768571Y-77103571D01*
X84720952Y-77198809D01*
X84720952Y-77436904D01*
X84768571Y-77532142D01*
X84816190Y-77579761D01*
X84911428Y-77627380D01*
X85149523Y-77627380D01*
X85244761Y-77579761D01*
X85292380Y-77532142D01*
X99268571Y-79237380D02*
X99268571Y-78237380D01*
X99268571Y-79189761D02*
X99363809Y-79237380D01*
X99554285Y-79237380D01*
X99649523Y-79189761D01*
X99697142Y-79142142D01*
X99744761Y-79046904D01*
X99744761Y-78761190D01*
X99697142Y-78665952D01*
X99649523Y-78618333D01*
X99554285Y-78570714D01*
X99363809Y-78570714D01*
X99268571Y-78618333D01*
X98411428Y-79189761D02*
X98506666Y-79237380D01*
X98697142Y-79237380D01*
X98792380Y-79189761D01*
X98840000Y-79094523D01*
X98840000Y-78713571D01*
X98792380Y-78618333D01*
X98697142Y-78570714D01*
X98506666Y-78570714D01*
X98411428Y-78618333D01*
X98363809Y-78713571D01*
X98363809Y-78808809D01*
X98840000Y-78904047D01*
X97982857Y-79189761D02*
X97887619Y-79237380D01*
X97697142Y-79237380D01*
X97601904Y-79189761D01*
X97554285Y-79094523D01*
X97554285Y-79046904D01*
X97601904Y-78951666D01*
X97697142Y-78904047D01*
X97840000Y-78904047D01*
X97935238Y-78856428D01*
X97982857Y-78761190D01*
X97982857Y-78713571D01*
X97935238Y-78618333D01*
X97840000Y-78570714D01*
X97697142Y-78570714D01*
X97601904Y-78618333D01*
X97125714Y-79237380D02*
X97125714Y-78570714D01*
X97125714Y-78237380D02*
X97173333Y-78285000D01*
X97125714Y-78332619D01*
X97078095Y-78285000D01*
X97125714Y-78237380D01*
X97125714Y-78332619D01*
X96220952Y-78570714D02*
X96220952Y-79380238D01*
X96268571Y-79475476D01*
X96316190Y-79523095D01*
X96411428Y-79570714D01*
X96554285Y-79570714D01*
X96649523Y-79523095D01*
X96220952Y-79189761D02*
X96316190Y-79237380D01*
X96506666Y-79237380D01*
X96601904Y-79189761D01*
X96649523Y-79142142D01*
X96697142Y-79046904D01*
X96697142Y-78761190D01*
X96649523Y-78665952D01*
X96601904Y-78618333D01*
X96506666Y-78570714D01*
X96316190Y-78570714D01*
X96220952Y-78618333D01*
X95744761Y-78570714D02*
X95744761Y-79237380D01*
X95744761Y-78665952D02*
X95697142Y-78618333D01*
X95601904Y-78570714D01*
X95459047Y-78570714D01*
X95363809Y-78618333D01*
X95316190Y-78713571D01*
X95316190Y-79237380D01*
X94459047Y-79189761D02*
X94554285Y-79237380D01*
X94744761Y-79237380D01*
X94840000Y-79189761D01*
X94887619Y-79094523D01*
X94887619Y-78713571D01*
X94840000Y-78618333D01*
X94744761Y-78570714D01*
X94554285Y-78570714D01*
X94459047Y-78618333D01*
X94411428Y-78713571D01*
X94411428Y-78808809D01*
X94887619Y-78904047D01*
X93554285Y-79237380D02*
X93554285Y-78237380D01*
X93554285Y-79189761D02*
X93649523Y-79237380D01*
X93840000Y-79237380D01*
X93935238Y-79189761D01*
X93982857Y-79142142D01*
X94030476Y-79046904D01*
X94030476Y-78761190D01*
X93982857Y-78665952D01*
X93935238Y-78618333D01*
X93840000Y-78570714D01*
X93649523Y-78570714D01*
X93554285Y-78618333D01*
X92316190Y-79237380D02*
X92316190Y-78237380D01*
X92316190Y-78618333D02*
X92220952Y-78570714D01*
X92030476Y-78570714D01*
X91935238Y-78618333D01*
X91887619Y-78665952D01*
X91840000Y-78761190D01*
X91840000Y-79046904D01*
X91887619Y-79142142D01*
X91935238Y-79189761D01*
X92030476Y-79237380D01*
X92220952Y-79237380D01*
X92316190Y-79189761D01*
X91506666Y-78570714D02*
X91268571Y-79237380D01*
X91030476Y-78570714D02*
X91268571Y-79237380D01*
X91363809Y-79475476D01*
X91411428Y-79523095D01*
X91506666Y-79570714D01*
X90030476Y-78570714D02*
X89649523Y-78570714D01*
X89887619Y-78237380D02*
X89887619Y-79094523D01*
X89840000Y-79189761D01*
X89744761Y-79237380D01*
X89649523Y-79237380D01*
X88887619Y-79237380D02*
X88887619Y-78713571D01*
X88935238Y-78618333D01*
X89030476Y-78570714D01*
X89220952Y-78570714D01*
X89316190Y-78618333D01*
X88887619Y-79189761D02*
X88982857Y-79237380D01*
X89220952Y-79237380D01*
X89316190Y-79189761D01*
X89363809Y-79094523D01*
X89363809Y-78999285D01*
X89316190Y-78904047D01*
X89220952Y-78856428D01*
X88982857Y-78856428D01*
X88887619Y-78808809D01*
X88411428Y-79237380D02*
X88411428Y-78570714D01*
X88411428Y-78665952D02*
X88363809Y-78618333D01*
X88268571Y-78570714D01*
X88125714Y-78570714D01*
X88030476Y-78618333D01*
X87982857Y-78713571D01*
X87982857Y-79237380D01*
X87982857Y-78713571D02*
X87935238Y-78618333D01*
X87840000Y-78570714D01*
X87697142Y-78570714D01*
X87601904Y-78618333D01*
X87554285Y-78713571D01*
X87554285Y-79237380D01*
X86649523Y-79237380D02*
X86649523Y-78713571D01*
X86697142Y-78618333D01*
X86792380Y-78570714D01*
X86982857Y-78570714D01*
X87078095Y-78618333D01*
X86649523Y-79189761D02*
X86744761Y-79237380D01*
X86982857Y-79237380D01*
X87078095Y-79189761D01*
X87125714Y-79094523D01*
X87125714Y-78999285D01*
X87078095Y-78904047D01*
X86982857Y-78856428D01*
X86744761Y-78856428D01*
X86649523Y-78808809D01*
X85744761Y-78570714D02*
X85744761Y-79380238D01*
X85792380Y-79475476D01*
X85840000Y-79523095D01*
X85935238Y-79570714D01*
X86078095Y-79570714D01*
X86173333Y-79523095D01*
X85744761Y-79189761D02*
X85840000Y-79237380D01*
X86030476Y-79237380D01*
X86125714Y-79189761D01*
X86173333Y-79142142D01*
X86220952Y-79046904D01*
X86220952Y-78761190D01*
X86173333Y-78665952D01*
X86125714Y-78618333D01*
X86030476Y-78570714D01*
X85840000Y-78570714D01*
X85744761Y-78618333D01*
X85125714Y-79237380D02*
X85220952Y-79189761D01*
X85268571Y-79142142D01*
X85316190Y-79046904D01*
X85316190Y-78761190D01*
X85268571Y-78665952D01*
X85220952Y-78618333D01*
X85125714Y-78570714D01*
X84982857Y-78570714D01*
X84887619Y-78618333D01*
X84840000Y-78665952D01*
X84792380Y-78761190D01*
X84792380Y-79046904D01*
X84840000Y-79142142D01*
X84887619Y-79189761D01*
X84982857Y-79237380D01*
X85125714Y-79237380D01*
X84459047Y-78237380D02*
X83840000Y-78237380D01*
X84173333Y-78618333D01*
X84030476Y-78618333D01*
X83935238Y-78665952D01*
X83887619Y-78713571D01*
X83840000Y-78808809D01*
X83840000Y-79046904D01*
X83887619Y-79142142D01*
X83935238Y-79189761D01*
X84030476Y-79237380D01*
X84316190Y-79237380D01*
X84411428Y-79189761D01*
X84459047Y-79142142D01*
X83459047Y-78332619D02*
X83411428Y-78285000D01*
X83316190Y-78237380D01*
X83078095Y-78237380D01*
X82982857Y-78285000D01*
X82935238Y-78332619D01*
X82887619Y-78427857D01*
X82887619Y-78523095D01*
X82935238Y-78665952D01*
X83506666Y-79237380D01*
X82887619Y-79237380D01*
X82030476Y-78570714D02*
X82030476Y-79237380D01*
X82268571Y-78189761D02*
X82506666Y-78904047D01*
X81887619Y-78904047D01*
D13*
%TO.C,U1*%
X47834404Y-85832380D02*
X47834404Y-86641904D01*
X47786785Y-86737142D01*
X47739166Y-86784761D01*
X47643928Y-86832380D01*
X47453452Y-86832380D01*
X47358214Y-86784761D01*
X47310595Y-86737142D01*
X47262976Y-86641904D01*
X47262976Y-85832380D01*
X46262976Y-86832380D02*
X46834404Y-86832380D01*
X46548690Y-86832380D02*
X46548690Y-85832380D01*
X46643928Y-85975238D01*
X46739166Y-86070476D01*
X46834404Y-86118095D01*
%TO.C,F1*%
X70398333Y-27658571D02*
X70731666Y-27658571D01*
X70731666Y-28182380D02*
X70731666Y-27182380D01*
X70255476Y-27182380D01*
X69350714Y-28182380D02*
X69922142Y-28182380D01*
X69636428Y-28182380D02*
X69636428Y-27182380D01*
X69731666Y-27325238D01*
X69826904Y-27420476D01*
X69922142Y-27468095D01*
%TO.C,R5*%
X37366666Y-92652380D02*
X37700000Y-92176190D01*
X37938095Y-92652380D02*
X37938095Y-91652380D01*
X37557142Y-91652380D01*
X37461904Y-91700000D01*
X37414285Y-91747619D01*
X37366666Y-91842857D01*
X37366666Y-91985714D01*
X37414285Y-92080952D01*
X37461904Y-92128571D01*
X37557142Y-92176190D01*
X37938095Y-92176190D01*
X36461904Y-91652380D02*
X36938095Y-91652380D01*
X36985714Y-92128571D01*
X36938095Y-92080952D01*
X36842857Y-92033333D01*
X36604761Y-92033333D01*
X36509523Y-92080952D01*
X36461904Y-92128571D01*
X36414285Y-92223809D01*
X36414285Y-92461904D01*
X36461904Y-92557142D01*
X36509523Y-92604761D01*
X36604761Y-92652380D01*
X36842857Y-92652380D01*
X36938095Y-92604761D01*
X36985714Y-92557142D01*
%TO.C,R1*%
X88891666Y-29382380D02*
X89225000Y-28906190D01*
X89463095Y-29382380D02*
X89463095Y-28382380D01*
X89082142Y-28382380D01*
X88986904Y-28430000D01*
X88939285Y-28477619D01*
X88891666Y-28572857D01*
X88891666Y-28715714D01*
X88939285Y-28810952D01*
X88986904Y-28858571D01*
X89082142Y-28906190D01*
X89463095Y-28906190D01*
X87939285Y-29382380D02*
X88510714Y-29382380D01*
X88225000Y-29382380D02*
X88225000Y-28382380D01*
X88320238Y-28525238D01*
X88415476Y-28620476D01*
X88510714Y-28668095D01*
%TO.C,C5*%
X59906666Y-81937142D02*
X59954285Y-81984761D01*
X60097142Y-82032380D01*
X60192380Y-82032380D01*
X60335238Y-81984761D01*
X60430476Y-81889523D01*
X60478095Y-81794285D01*
X60525714Y-81603809D01*
X60525714Y-81460952D01*
X60478095Y-81270476D01*
X60430476Y-81175238D01*
X60335238Y-81080000D01*
X60192380Y-81032380D01*
X60097142Y-81032380D01*
X59954285Y-81080000D01*
X59906666Y-81127619D01*
X59001904Y-81032380D02*
X59478095Y-81032380D01*
X59525714Y-81508571D01*
X59478095Y-81460952D01*
X59382857Y-81413333D01*
X59144761Y-81413333D01*
X59049523Y-81460952D01*
X59001904Y-81508571D01*
X58954285Y-81603809D01*
X58954285Y-81841904D01*
X59001904Y-81937142D01*
X59049523Y-81984761D01*
X59144761Y-82032380D01*
X59382857Y-82032380D01*
X59478095Y-81984761D01*
X59525714Y-81937142D01*
%TO.C,C7*%
X59006666Y-93917142D02*
X59054285Y-93964761D01*
X59197142Y-94012380D01*
X59292380Y-94012380D01*
X59435238Y-93964761D01*
X59530476Y-93869523D01*
X59578095Y-93774285D01*
X59625714Y-93583809D01*
X59625714Y-93440952D01*
X59578095Y-93250476D01*
X59530476Y-93155238D01*
X59435238Y-93060000D01*
X59292380Y-93012380D01*
X59197142Y-93012380D01*
X59054285Y-93060000D01*
X59006666Y-93107619D01*
X58673333Y-93012380D02*
X58006666Y-93012380D01*
X58435238Y-94012380D01*
%TO.C,R2*%
X89039166Y-31902380D02*
X89372500Y-31426190D01*
X89610595Y-31902380D02*
X89610595Y-30902380D01*
X89229642Y-30902380D01*
X89134404Y-30950000D01*
X89086785Y-30997619D01*
X89039166Y-31092857D01*
X89039166Y-31235714D01*
X89086785Y-31330952D01*
X89134404Y-31378571D01*
X89229642Y-31426190D01*
X89610595Y-31426190D01*
X88658214Y-30997619D02*
X88610595Y-30950000D01*
X88515357Y-30902380D01*
X88277261Y-30902380D01*
X88182023Y-30950000D01*
X88134404Y-30997619D01*
X88086785Y-31092857D01*
X88086785Y-31188095D01*
X88134404Y-31330952D01*
X88705833Y-31902380D01*
X88086785Y-31902380D01*
%TO.C,RESET1*%
X70888571Y-81212380D02*
X71221904Y-80736190D01*
X71460000Y-81212380D02*
X71460000Y-80212380D01*
X71079047Y-80212380D01*
X70983809Y-80260000D01*
X70936190Y-80307619D01*
X70888571Y-80402857D01*
X70888571Y-80545714D01*
X70936190Y-80640952D01*
X70983809Y-80688571D01*
X71079047Y-80736190D01*
X71460000Y-80736190D01*
X70460000Y-80688571D02*
X70126666Y-80688571D01*
X69983809Y-81212380D02*
X70460000Y-81212380D01*
X70460000Y-80212380D01*
X69983809Y-80212380D01*
X69602857Y-81164761D02*
X69460000Y-81212380D01*
X69221904Y-81212380D01*
X69126666Y-81164761D01*
X69079047Y-81117142D01*
X69031428Y-81021904D01*
X69031428Y-80926666D01*
X69079047Y-80831428D01*
X69126666Y-80783809D01*
X69221904Y-80736190D01*
X69412380Y-80688571D01*
X69507619Y-80640952D01*
X69555238Y-80593333D01*
X69602857Y-80498095D01*
X69602857Y-80402857D01*
X69555238Y-80307619D01*
X69507619Y-80260000D01*
X69412380Y-80212380D01*
X69174285Y-80212380D01*
X69031428Y-80260000D01*
X68602857Y-80688571D02*
X68269523Y-80688571D01*
X68126666Y-81212380D02*
X68602857Y-81212380D01*
X68602857Y-80212380D01*
X68126666Y-80212380D01*
X67840952Y-80212380D02*
X67269523Y-80212380D01*
X67555238Y-81212380D02*
X67555238Y-80212380D01*
X66412380Y-81212380D02*
X66983809Y-81212380D01*
X66698095Y-81212380D02*
X66698095Y-80212380D01*
X66793333Y-80355238D01*
X66888571Y-80450476D01*
X66983809Y-80498095D01*
%TO.C,Y1*%
X63476190Y-87476190D02*
X63476190Y-87952380D01*
X63809523Y-86952380D02*
X63476190Y-87476190D01*
X63142857Y-86952380D01*
X62285714Y-87952380D02*
X62857142Y-87952380D01*
X62571428Y-87952380D02*
X62571428Y-86952380D01*
X62666666Y-87095238D01*
X62761904Y-87190476D01*
X62857142Y-87238095D01*
%TO.C,C4*%
X37506666Y-80622142D02*
X37554285Y-80669761D01*
X37697142Y-80717380D01*
X37792380Y-80717380D01*
X37935238Y-80669761D01*
X38030476Y-80574523D01*
X38078095Y-80479285D01*
X38125714Y-80288809D01*
X38125714Y-80145952D01*
X38078095Y-79955476D01*
X38030476Y-79860238D01*
X37935238Y-79765000D01*
X37792380Y-79717380D01*
X37697142Y-79717380D01*
X37554285Y-79765000D01*
X37506666Y-79812619D01*
X36649523Y-80050714D02*
X36649523Y-80717380D01*
X36887619Y-79669761D02*
X37125714Y-80384047D01*
X36506666Y-80384047D01*
%TO.C,C2*%
X54416666Y-96107142D02*
X54464285Y-96154761D01*
X54607142Y-96202380D01*
X54702380Y-96202380D01*
X54845238Y-96154761D01*
X54940476Y-96059523D01*
X54988095Y-95964285D01*
X55035714Y-95773809D01*
X55035714Y-95630952D01*
X54988095Y-95440476D01*
X54940476Y-95345238D01*
X54845238Y-95250000D01*
X54702380Y-95202380D01*
X54607142Y-95202380D01*
X54464285Y-95250000D01*
X54416666Y-95297619D01*
X54035714Y-95297619D02*
X53988095Y-95250000D01*
X53892857Y-95202380D01*
X53654761Y-95202380D01*
X53559523Y-95250000D01*
X53511904Y-95297619D01*
X53464285Y-95392857D01*
X53464285Y-95488095D01*
X53511904Y-95630952D01*
X54083333Y-96202380D01*
X53464285Y-96202380D01*
%TO.C,R6*%
X65666666Y-83702380D02*
X66000000Y-83226190D01*
X66238095Y-83702380D02*
X66238095Y-82702380D01*
X65857142Y-82702380D01*
X65761904Y-82750000D01*
X65714285Y-82797619D01*
X65666666Y-82892857D01*
X65666666Y-83035714D01*
X65714285Y-83130952D01*
X65761904Y-83178571D01*
X65857142Y-83226190D01*
X66238095Y-83226190D01*
X64809523Y-82702380D02*
X65000000Y-82702380D01*
X65095238Y-82750000D01*
X65142857Y-82797619D01*
X65238095Y-82940476D01*
X65285714Y-83130952D01*
X65285714Y-83511904D01*
X65238095Y-83607142D01*
X65190476Y-83654761D01*
X65095238Y-83702380D01*
X64904761Y-83702380D01*
X64809523Y-83654761D01*
X64761904Y-83607142D01*
X64714285Y-83511904D01*
X64714285Y-83273809D01*
X64761904Y-83178571D01*
X64809523Y-83130952D01*
X64904761Y-83083333D01*
X65095238Y-83083333D01*
X65190476Y-83130952D01*
X65238095Y-83178571D01*
X65285714Y-83273809D01*
%TO.C,C6*%
X69706666Y-94127142D02*
X69754285Y-94174761D01*
X69897142Y-94222380D01*
X69992380Y-94222380D01*
X70135238Y-94174761D01*
X70230476Y-94079523D01*
X70278095Y-93984285D01*
X70325714Y-93793809D01*
X70325714Y-93650952D01*
X70278095Y-93460476D01*
X70230476Y-93365238D01*
X70135238Y-93270000D01*
X69992380Y-93222380D01*
X69897142Y-93222380D01*
X69754285Y-93270000D01*
X69706666Y-93317619D01*
X68849523Y-93222380D02*
X69040000Y-93222380D01*
X69135238Y-93270000D01*
X69182857Y-93317619D01*
X69278095Y-93460476D01*
X69325714Y-93650952D01*
X69325714Y-94031904D01*
X69278095Y-94127142D01*
X69230476Y-94174761D01*
X69135238Y-94222380D01*
X68944761Y-94222380D01*
X68849523Y-94174761D01*
X68801904Y-94127142D01*
X68754285Y-94031904D01*
X68754285Y-93793809D01*
X68801904Y-93698571D01*
X68849523Y-93650952D01*
X68944761Y-93603333D01*
X69135238Y-93603333D01*
X69230476Y-93650952D01*
X69278095Y-93698571D01*
X69325714Y-93793809D01*
%TO.C,R4*%
X48636666Y-61424880D02*
X48970000Y-60948690D01*
X49208095Y-61424880D02*
X49208095Y-60424880D01*
X48827142Y-60424880D01*
X48731904Y-60472500D01*
X48684285Y-60520119D01*
X48636666Y-60615357D01*
X48636666Y-60758214D01*
X48684285Y-60853452D01*
X48731904Y-60901071D01*
X48827142Y-60948690D01*
X49208095Y-60948690D01*
X47779523Y-60758214D02*
X47779523Y-61424880D01*
X48017619Y-60377261D02*
X48255714Y-61091547D01*
X47636666Y-61091547D01*
%TO.C,R3*%
X45656666Y-61422380D02*
X45990000Y-60946190D01*
X46228095Y-61422380D02*
X46228095Y-60422380D01*
X45847142Y-60422380D01*
X45751904Y-60470000D01*
X45704285Y-60517619D01*
X45656666Y-60612857D01*
X45656666Y-60755714D01*
X45704285Y-60850952D01*
X45751904Y-60898571D01*
X45847142Y-60946190D01*
X46228095Y-60946190D01*
X45323333Y-60422380D02*
X44704285Y-60422380D01*
X45037619Y-60803333D01*
X44894761Y-60803333D01*
X44799523Y-60850952D01*
X44751904Y-60898571D01*
X44704285Y-60993809D01*
X44704285Y-61231904D01*
X44751904Y-61327142D01*
X44799523Y-61374761D01*
X44894761Y-61422380D01*
X45180476Y-61422380D01*
X45275714Y-61374761D01*
X45323333Y-61327142D01*
%TO.C,C3*%
X52916666Y-77107142D02*
X52964285Y-77154761D01*
X53107142Y-77202380D01*
X53202380Y-77202380D01*
X53345238Y-77154761D01*
X53440476Y-77059523D01*
X53488095Y-76964285D01*
X53535714Y-76773809D01*
X53535714Y-76630952D01*
X53488095Y-76440476D01*
X53440476Y-76345238D01*
X53345238Y-76250000D01*
X53202380Y-76202380D01*
X53107142Y-76202380D01*
X52964285Y-76250000D01*
X52916666Y-76297619D01*
X52583333Y-76202380D02*
X51964285Y-76202380D01*
X52297619Y-76583333D01*
X52154761Y-76583333D01*
X52059523Y-76630952D01*
X52011904Y-76678571D01*
X51964285Y-76773809D01*
X51964285Y-77011904D01*
X52011904Y-77107142D01*
X52059523Y-77154761D01*
X52154761Y-77202380D01*
X52440476Y-77202380D01*
X52535714Y-77154761D01*
X52583333Y-77107142D01*
%TO.C,C1*%
X54296666Y-61527142D02*
X54344285Y-61574761D01*
X54487142Y-61622380D01*
X54582380Y-61622380D01*
X54725238Y-61574761D01*
X54820476Y-61479523D01*
X54868095Y-61384285D01*
X54915714Y-61193809D01*
X54915714Y-61050952D01*
X54868095Y-60860476D01*
X54820476Y-60765238D01*
X54725238Y-60670000D01*
X54582380Y-60622380D01*
X54487142Y-60622380D01*
X54344285Y-60670000D01*
X54296666Y-60717619D01*
X53344285Y-61622380D02*
X53915714Y-61622380D01*
X53630000Y-61622380D02*
X53630000Y-60622380D01*
X53725238Y-60765238D01*
X53820476Y-60860476D01*
X53915714Y-60908095D01*
%TO.C,SW15*%
X106440000Y-72430000D02*
X111240000Y-72430000D01*
X101190000Y-74330000D02*
X104220000Y-74330000D01*
X111240000Y-72430000D02*
X111240001Y-68855000D01*
X111240001Y-68855000D02*
X103040000Y-68855000D01*
X100990000Y-70730000D02*
X100990000Y-71480000D01*
X106440000Y-72430000D02*
G75*
G03*
X104223682Y-74308529I-65001J-2169999D01*
G01*
X103040000Y-68855000D02*
G75*
G03*
X100990000Y-70730000I-47949J-2005743D01*
G01*
%TO.C,SW7*%
X51500000Y-49760000D02*
X51500000Y-50510000D01*
X61750001Y-47885000D02*
X53550000Y-47885000D01*
X56950000Y-51460000D02*
X61750000Y-51460000D01*
X51700000Y-53360000D02*
X54730000Y-53360000D01*
X61750000Y-51460000D02*
X61750001Y-47885000D01*
X56950000Y-51460000D02*
G75*
G03*
X54733682Y-53338529I-65001J-2169999D01*
G01*
X53550000Y-47885000D02*
G75*
G03*
X51500000Y-49760000I-47949J-2005743D01*
G01*
%TO.C,SW3*%
X69450000Y-35570000D02*
X69449999Y-39145000D01*
X79500000Y-33670000D02*
X76470000Y-33670000D01*
X79700000Y-37270000D02*
X79700000Y-36520000D01*
X69449999Y-39145000D02*
X77650000Y-39145000D01*
X74250000Y-35570000D02*
X69450000Y-35570000D01*
X74250000Y-35570000D02*
G75*
G03*
X76466318Y-33691471I65001J2169999D01*
G01*
X77650000Y-39145000D02*
G75*
G03*
X79700000Y-37270000I47949J2005743D01*
G01*
%TO.C,SW6*%
X40470000Y-54940000D02*
X45270000Y-54940000D01*
X45270001Y-51365000D02*
X37070000Y-51365000D01*
X45270000Y-54940000D02*
X45270001Y-51365000D01*
X35220000Y-56840000D02*
X38250000Y-56840000D01*
X35020000Y-53240000D02*
X35020000Y-53990000D01*
X40470000Y-54940000D02*
G75*
G03*
X38253682Y-56818529I-65001J-2169999D01*
G01*
X37070000Y-51365000D02*
G75*
G03*
X35020000Y-53240000I-47949J-2005743D01*
G01*
%TO.C,SW17*%
X41787790Y-101158475D02*
X42408582Y-104679163D01*
X51355177Y-97542176D02*
X48371209Y-98068330D01*
X42408582Y-104679163D02*
X50484006Y-103255248D01*
X46514868Y-100324964D02*
X41787790Y-101158475D01*
X52177272Y-101052755D02*
X52047036Y-100314149D01*
X50484006Y-103255247D02*
G75*
G03*
X52177272Y-101052755I-301073J1983597D01*
G01*
X46514868Y-100324964D02*
G75*
G03*
X48371312Y-98090114I-312803J2148319D01*
G01*
%TO.C,SW14*%
X94760001Y-64495000D02*
X86560000Y-64495000D01*
X84510000Y-66370000D02*
X84510000Y-67120000D01*
X94760000Y-68070000D02*
X94760001Y-64495000D01*
X84710000Y-69970000D02*
X87740000Y-69970000D01*
X89960000Y-68070000D02*
X94760000Y-68070000D01*
X86560000Y-64495000D02*
G75*
G03*
X84510000Y-66370000I-47949J-2005743D01*
G01*
X89960000Y-68070000D02*
G75*
G03*
X87743682Y-69948529I-65001J-2169999D01*
G01*
%TO.C,SW9*%
X84510000Y-48860000D02*
X84510000Y-49610000D01*
X94760000Y-50560000D02*
X94760001Y-46985000D01*
X89960000Y-50560000D02*
X94760000Y-50560000D01*
X84710000Y-52460000D02*
X87740000Y-52460000D01*
X94760001Y-46985000D02*
X86560000Y-46985000D01*
X86560000Y-46985000D02*
G75*
G03*
X84510000Y-48860000I-47949J-2005743D01*
G01*
X89960000Y-50560000D02*
G75*
G03*
X87743682Y-52438529I-65001J-2169999D01*
G01*
%TO.C,SW8*%
X78240001Y-43505000D02*
X70040000Y-43505000D01*
X78240000Y-47080000D02*
X78240001Y-43505000D01*
X73440000Y-47080000D02*
X78240000Y-47080000D01*
X68190000Y-48980000D02*
X71220000Y-48980000D01*
X67990000Y-45380000D02*
X67990000Y-46130000D01*
X70040000Y-43505000D02*
G75*
G03*
X67990000Y-45380000I-47949J-2005743D01*
G01*
X73440000Y-47080000D02*
G75*
G03*
X71223682Y-48958529I-65001J-2169999D01*
G01*
%TO.C,SW10*%
X101200000Y-56840000D02*
X104230000Y-56840000D01*
X106450000Y-54940000D02*
X111250000Y-54940000D01*
X111250000Y-54940000D02*
X111250001Y-51365000D01*
X101000000Y-53240000D02*
X101000000Y-53990000D01*
X111250001Y-51365000D02*
X103050000Y-51365000D01*
X103050000Y-51365000D02*
G75*
G03*
X101000000Y-53240000I-47949J-2005743D01*
G01*
X106450000Y-54940000D02*
G75*
G03*
X104233682Y-56818529I-65001J-2169999D01*
G01*
%TO.C,SW11*%
X35000000Y-70740000D02*
X35000000Y-71490000D01*
X45250000Y-72440000D02*
X45250001Y-68865000D01*
X45250001Y-68865000D02*
X37050000Y-68865000D01*
X35200000Y-74340000D02*
X38230000Y-74340000D01*
X40450000Y-72440000D02*
X45250000Y-72440000D01*
X37050000Y-68865000D02*
G75*
G03*
X35000000Y-70740000I-47949J-2005743D01*
G01*
X40450000Y-72440000D02*
G75*
G03*
X38233682Y-74318529I-65001J-2169999D01*
G01*
%TO.C,SW1*%
X40460000Y-37440000D02*
X45260000Y-37440000D01*
X35210000Y-39340000D02*
X38240000Y-39340000D01*
X45260000Y-37440000D02*
X45260001Y-33865000D01*
X45260001Y-33865000D02*
X37060000Y-33865000D01*
X35010000Y-35740000D02*
X35010000Y-36490000D01*
X37060000Y-33865000D02*
G75*
G03*
X35010000Y-35740000I-47949J-2005743D01*
G01*
X40460000Y-37440000D02*
G75*
G03*
X38243682Y-39318529I-65001J-2169999D01*
G01*
%TO.C,SW12*%
X56960000Y-68950000D02*
X61760000Y-68950000D01*
X51710000Y-70850000D02*
X54740000Y-70850000D01*
X61760001Y-65375000D02*
X53560000Y-65375000D01*
X61760000Y-68950000D02*
X61760001Y-65375000D01*
X51510000Y-67250000D02*
X51510000Y-68000000D01*
X53560000Y-65375000D02*
G75*
G03*
X51510000Y-67250000I-47949J-2005743D01*
G01*
X56960000Y-68950000D02*
G75*
G03*
X54743682Y-70828529I-65001J-2169999D01*
G01*
%TO.C,SW5*%
X107250000Y-43440000D02*
X102450000Y-43440000D01*
X112700000Y-45140000D02*
X112700000Y-44390000D01*
X102449999Y-47015000D02*
X110650000Y-47015000D01*
X102450000Y-43440000D02*
X102449999Y-47015000D01*
X112500000Y-41540000D02*
X109470000Y-41540000D01*
X110650000Y-47015000D02*
G75*
G03*
X112700000Y-45140000I47949J2005743D01*
G01*
X107250000Y-43440000D02*
G75*
G03*
X109466318Y-41561471I65001J2169999D01*
G01*
%TO.C,SW2*%
X61790001Y-30355000D02*
X53590000Y-30355000D01*
X56990000Y-33930000D02*
X61790000Y-33930000D01*
X61790000Y-33930000D02*
X61790001Y-30355000D01*
X51540000Y-32230000D02*
X51540000Y-32980000D01*
X51740000Y-35830000D02*
X54770000Y-35830000D01*
X53590000Y-30355000D02*
G75*
G03*
X51540000Y-32230000I-47949J-2005743D01*
G01*
X56990000Y-33930000D02*
G75*
G03*
X54773682Y-35808529I-65001J-2169999D01*
G01*
%TO.C,SW13*%
X78250001Y-61005000D02*
X70050000Y-61005000D01*
X78250000Y-64580000D02*
X78250001Y-61005000D01*
X68200000Y-66480000D02*
X71230000Y-66480000D01*
X68000000Y-62880000D02*
X68000000Y-63630000D01*
X73450000Y-64580000D02*
X78250000Y-64580000D01*
X70050000Y-61005000D02*
G75*
G03*
X68000000Y-62880000I-47949J-2005743D01*
G01*
X73450000Y-64580000D02*
G75*
G03*
X71233682Y-66458529I-65001J-2169999D01*
G01*
%TO.C,SW16*%
X35794697Y-105485737D02*
X35538181Y-104780968D01*
X26804134Y-110753368D02*
X34509614Y-107948802D01*
X30091937Y-105752270D02*
X25581413Y-107393966D01*
X34375485Y-102171248D02*
X31528217Y-103207569D01*
X25581413Y-107393966D02*
X26804134Y-110753368D01*
X30091937Y-105752270D02*
G75*
G03*
X31532100Y-103229005I-681102J2061364D01*
G01*
X34509614Y-107948802D02*
G75*
G03*
X35794697Y-105485737I-640947J1901181D01*
G01*
%TO.C,SW4*%
X96000000Y-37170000D02*
X92970000Y-37170000D01*
X90750000Y-39070000D02*
X85950000Y-39070000D01*
X85949999Y-42645000D02*
X94150000Y-42645000D01*
X85950000Y-39070000D02*
X85949999Y-42645000D01*
X96200000Y-40770000D02*
X96200000Y-40020000D01*
X94150000Y-42645000D02*
G75*
G03*
X96200000Y-40770000I47949J2005743D01*
G01*
X90750000Y-39070000D02*
G75*
G03*
X92966318Y-37191471I65001J2169999D01*
G01*
%TO.C,SW18*%
X68790000Y-96660000D02*
X65760000Y-96660000D01*
X58739999Y-102135000D02*
X66940000Y-102135000D01*
X68990000Y-100260000D02*
X68990000Y-99510000D01*
X58740000Y-98560000D02*
X58739999Y-102135000D01*
X63540000Y-98560000D02*
X58740000Y-98560000D01*
X63540000Y-98560000D02*
G75*
G03*
X65756318Y-96681471I65001J2169999D01*
G01*
X66940000Y-102135000D02*
G75*
G03*
X68990000Y-100260000I47949J2005743D01*
G01*
D14*
%TO.C,U1*%
X52262500Y-81190000D02*
X51687500Y-81190000D01*
X52262500Y-81765000D02*
X52262500Y-81190000D01*
X42042500Y-81190000D02*
X42617500Y-81190000D01*
X42042500Y-90835000D02*
X42042500Y-91410000D01*
X52262500Y-91410000D02*
X51687500Y-91410000D01*
X42617500Y-81190000D02*
X42617500Y-79900000D01*
X42042500Y-81765000D02*
X42042500Y-81190000D01*
X52262500Y-90835000D02*
X52262500Y-91410000D01*
X42042500Y-91410000D02*
X42617500Y-91410000D01*
%TO.C,F1*%
X68910000Y-27147936D02*
X68910000Y-28352064D01*
X67090000Y-27147936D02*
X67090000Y-28352064D01*
%TO.C,R5*%
X37427064Y-94585000D02*
X36972936Y-94585000D01*
X37427064Y-93115000D02*
X36972936Y-93115000D01*
%TO.C,R1*%
X85562936Y-28105000D02*
X86017064Y-28105000D01*
X85562936Y-29575000D02*
X86017064Y-29575000D01*
%TO.C,C5*%
X59478748Y-80635000D02*
X60001252Y-80635000D01*
X59478748Y-79165000D02*
X60001252Y-79165000D01*
%TO.C,C7*%
X59595000Y-90498748D02*
X59595000Y-91021252D01*
X58125000Y-90498748D02*
X58125000Y-91021252D01*
%TO.C,R2*%
X85535436Y-30745000D02*
X85989564Y-30745000D01*
X85535436Y-32215000D02*
X85989564Y-32215000D01*
D13*
%TO.C,RESET1*%
X69340000Y-82290000D02*
X68240000Y-82290000D01*
X67190000Y-82290000D02*
X67190000Y-86890000D01*
X70390000Y-86890000D02*
X70390000Y-82290000D01*
X68240000Y-86890000D02*
X69340000Y-86890000D01*
D14*
%TO.C,Y1*%
X67230000Y-88470000D02*
X67230000Y-92870000D01*
X67230000Y-92870000D02*
X61830000Y-92870000D01*
%TO.C,C4*%
X38195000Y-82568748D02*
X38195000Y-83091252D01*
X36725000Y-82568748D02*
X36725000Y-83091252D01*
%TO.C,C2*%
X55037500Y-93291252D02*
X55037500Y-92768748D01*
X53567500Y-93291252D02*
X53567500Y-92768748D01*
%TO.C,R6*%
X66305000Y-85512936D02*
X66305000Y-85967064D01*
X64835000Y-85512936D02*
X64835000Y-85967064D01*
%TO.C,C6*%
X68785000Y-90628748D02*
X68785000Y-91151252D01*
X70255000Y-90628748D02*
X70255000Y-91151252D01*
%TO.C,R4*%
X49205000Y-63215436D02*
X49205000Y-63669564D01*
X47735000Y-63215436D02*
X47735000Y-63669564D01*
%TO.C,R3*%
X46145000Y-63232936D02*
X46145000Y-63687064D01*
X44675000Y-63232936D02*
X44675000Y-63687064D01*
%TO.C,C3*%
X52921252Y-74015000D02*
X52398748Y-74015000D01*
X52921252Y-75485000D02*
X52398748Y-75485000D01*
%TO.C,C1*%
X53808748Y-63675000D02*
X54331252Y-63675000D01*
X53808748Y-62205000D02*
X54331252Y-62205000D01*
%TD*%
D15*
X52590000Y-64500000D03*
X50786478Y-75789500D03*
X44500000Y-85750000D03*
X70500000Y-52500000D03*
X57787701Y-88552299D03*
X78900000Y-24850000D03*
X37250000Y-78250000D03*
X58072299Y-86787701D03*
X40500000Y-80250000D03*
X60710000Y-81380000D03*
X39000000Y-63500000D03*
X61250000Y-59000000D03*
X23500000Y-99000000D03*
X43879057Y-78620943D03*
X54779652Y-83850500D03*
X48752299Y-78362299D03*
X56290000Y-81600000D03*
X56170000Y-91890000D03*
X71350000Y-24400000D03*
X76020000Y-24400000D03*
X75770000Y-25720000D03*
X48403097Y-55491502D03*
X74847343Y-27204500D03*
X47330000Y-55540000D03*
X72877701Y-28487701D03*
X72885500Y-25170000D03*
X54330500Y-88010000D03*
X37959906Y-86203893D03*
X40682701Y-51422701D03*
X37840000Y-87980000D03*
X51320000Y-46050000D03*
X65445500Y-43239503D03*
X38360000Y-89360000D03*
X54010000Y-77840000D03*
X82705000Y-39045000D03*
X98915500Y-69842701D03*
X48820000Y-93760000D03*
X38580000Y-85420000D03*
X41200000Y-52560000D03*
X51470000Y-47500000D03*
X38880000Y-87130000D03*
X67610000Y-43530000D03*
X51392299Y-77952299D03*
X83210000Y-48070000D03*
X55360000Y-77700000D03*
X47420000Y-94090000D03*
X101057785Y-67331717D03*
X39700000Y-84700000D03*
X45840000Y-72930000D03*
X50260000Y-78060000D03*
X60550000Y-64670000D03*
X67862701Y-61102701D03*
X52652299Y-77832299D03*
X97410000Y-69940000D03*
X56205500Y-90490000D03*
X101005000Y-68495000D03*
X46327549Y-94252950D03*
X35366953Y-95330000D03*
X43250000Y-93759500D03*
X111920000Y-75430000D03*
X103030000Y-72890000D03*
X106840000Y-75430000D03*
X101760000Y-75430000D03*
X109380000Y-70350000D03*
X76750000Y-20350000D03*
X70970000Y-20350000D03*
D16*
X69540000Y-16670000D03*
D17*
X78180000Y-20850000D03*
X69540000Y-20850000D03*
D16*
X78180000Y-16670000D03*
D15*
X52270000Y-54460000D03*
X53540000Y-51920000D03*
X59890000Y-49380000D03*
X62430000Y-54460000D03*
X57350000Y-54460000D03*
X78930000Y-32570000D03*
X77660000Y-35110000D03*
X68770000Y-32570000D03*
X73850000Y-32570000D03*
X71310000Y-37650000D03*
X45950000Y-57940000D03*
X35790000Y-57940000D03*
X37060000Y-55400000D03*
X40870000Y-57940000D03*
X43410000Y-52860000D03*
X40597177Y-98322133D03*
X49793184Y-99279812D03*
X43980721Y-102883890D03*
X45600000Y-97440000D03*
X50602823Y-96557867D03*
X86550000Y-68530000D03*
X92900000Y-65990000D03*
X95440000Y-71070000D03*
X85280000Y-71070000D03*
X90360000Y-71070000D03*
X86550000Y-51020000D03*
X90360000Y-53560000D03*
X92900000Y-48480000D03*
X95440000Y-53560000D03*
X85280000Y-53560000D03*
X70030000Y-47540000D03*
X73840000Y-50080000D03*
X78920000Y-50080000D03*
X68760000Y-50080000D03*
X76380000Y-45000000D03*
X26369602Y-44396459D03*
X22354567Y-38662395D03*
D18*
X26542185Y-48304172D03*
X25107224Y-38932358D03*
X26827953Y-41389814D03*
X29122259Y-44666423D03*
D15*
X109390000Y-52860000D03*
X106850000Y-57940000D03*
X111930000Y-57940000D03*
X103040000Y-55400000D03*
X101770000Y-57940000D03*
X45930000Y-75440000D03*
X37040000Y-72900000D03*
X40850000Y-75440000D03*
X43390000Y-70360000D03*
X35770000Y-75440000D03*
X45940000Y-40440000D03*
X40860000Y-40440000D03*
X35780000Y-40440000D03*
X37050000Y-37900000D03*
X43400000Y-35360000D03*
X59900000Y-66870000D03*
X52280000Y-71950000D03*
X62440000Y-71950000D03*
X57360000Y-71950000D03*
X53550000Y-69410000D03*
X111930000Y-40440000D03*
X104310000Y-45520000D03*
X110660000Y-42980000D03*
X106850000Y-40440000D03*
X101770000Y-40440000D03*
X62470000Y-36930000D03*
X53580000Y-34390000D03*
X57390000Y-36930000D03*
X59930000Y-31850000D03*
X52310000Y-36930000D03*
X76390000Y-62500000D03*
X73850000Y-67580000D03*
X70040000Y-65040000D03*
X78930000Y-67580000D03*
X68770000Y-67580000D03*
X23916361Y-104807462D03*
X28040643Y-108712370D03*
X28690000Y-103070000D03*
X33138960Y-104153723D03*
X33463639Y-101332538D03*
X85270000Y-36070000D03*
X95430000Y-36070000D03*
X90350000Y-36070000D03*
X94160000Y-38610000D03*
X87810000Y-41150000D03*
X58060000Y-95560000D03*
X68220000Y-95560000D03*
X63140000Y-95560000D03*
X66950000Y-98100000D03*
X60600000Y-100640000D03*
%LPC*%
D19*
%TO.C,SW15*%
X111920000Y-75430000D03*
D20*
X103030000Y-72890000D03*
D21*
X106840000Y-75430000D03*
D19*
X101760000Y-75430000D03*
D20*
X109380000Y-70350000D03*
D22*
X99755000Y-72890000D03*
X112682000Y-70350000D03*
%TD*%
D23*
%TO.C,J1*%
X76750000Y-20350000D03*
X70970000Y-20350000D03*
D24*
X69540000Y-16670000D03*
D25*
X78180000Y-20850000D03*
X69540000Y-20850000D03*
D24*
X78180000Y-16670000D03*
%TD*%
D19*
%TO.C,SW7*%
X52270000Y-54460000D03*
D20*
X53540000Y-51920000D03*
X59890000Y-49380000D03*
D19*
X62430000Y-54460000D03*
D21*
X57350000Y-54460000D03*
D22*
X50265000Y-51920000D03*
X63192000Y-49380000D03*
%TD*%
D19*
%TO.C,SW3*%
X78930000Y-32570000D03*
D20*
X77660000Y-35110000D03*
D19*
X68770000Y-32570000D03*
D21*
X73850000Y-32570000D03*
D20*
X71310000Y-37650000D03*
D22*
X80935000Y-35110000D03*
X68008000Y-37650000D03*
%TD*%
D19*
%TO.C,SW6*%
X45950000Y-57940000D03*
X35790000Y-57940000D03*
D20*
X37060000Y-55400000D03*
D21*
X40870000Y-57940000D03*
D20*
X43410000Y-52860000D03*
D22*
X33785000Y-55400000D03*
X46712000Y-52860000D03*
%TD*%
D19*
%TO.C,SW17*%
X40597177Y-98322133D03*
D20*
X49793184Y-99279812D03*
X43980721Y-102883890D03*
D21*
X45600000Y-97440000D03*
D19*
X50602823Y-96557867D03*
D26*
X53018429Y-98711114D03*
X40728886Y-103457276D03*
%TD*%
D20*
%TO.C,SW14*%
X86550000Y-68530000D03*
X92900000Y-65990000D03*
D19*
X95440000Y-71070000D03*
X85280000Y-71070000D03*
D21*
X90360000Y-71070000D03*
D22*
X83275000Y-68530000D03*
X96202000Y-65990000D03*
%TD*%
D20*
%TO.C,SW9*%
X86550000Y-51020000D03*
D21*
X90360000Y-53560000D03*
D20*
X92900000Y-48480000D03*
D19*
X95440000Y-53560000D03*
X85280000Y-53560000D03*
D22*
X83275000Y-51020000D03*
X96202000Y-48480000D03*
%TD*%
D20*
%TO.C,SW8*%
X70030000Y-47540000D03*
D21*
X73840000Y-50080000D03*
D19*
X78920000Y-50080000D03*
X68760000Y-50080000D03*
D20*
X76380000Y-45000000D03*
D22*
X66755000Y-47540000D03*
X79682000Y-45000000D03*
%TD*%
D27*
%TO.C,J2*%
X26369602Y-44396459D03*
X22354567Y-38662395D03*
D28*
X26542185Y-48304172D03*
X25107224Y-38932358D03*
X26827953Y-41389814D03*
X29122259Y-44666423D03*
%TD*%
D20*
%TO.C,SW10*%
X109390000Y-52860000D03*
D21*
X106850000Y-57940000D03*
D19*
X111930000Y-57940000D03*
D20*
X103040000Y-55400000D03*
D19*
X101770000Y-57940000D03*
D22*
X99765000Y-55400000D03*
X112692000Y-52860000D03*
%TD*%
D19*
%TO.C,SW11*%
X45930000Y-75440000D03*
D20*
X37040000Y-72900000D03*
D21*
X40850000Y-75440000D03*
D20*
X43390000Y-70360000D03*
D19*
X35770000Y-75440000D03*
D22*
X33765000Y-72900000D03*
X46692000Y-70360000D03*
%TD*%
D19*
%TO.C,SW1*%
X45940000Y-40440000D03*
D21*
X40860000Y-40440000D03*
D19*
X35780000Y-40440000D03*
D20*
X37050000Y-37900000D03*
X43400000Y-35360000D03*
D22*
X33775000Y-37900000D03*
X46702000Y-35360000D03*
%TD*%
D20*
%TO.C,SW12*%
X59900000Y-66870000D03*
D19*
X52280000Y-71950000D03*
X62440000Y-71950000D03*
D21*
X57360000Y-71950000D03*
D20*
X53550000Y-69410000D03*
D22*
X50275000Y-69410000D03*
X63202000Y-66870000D03*
%TD*%
D19*
%TO.C,SW5*%
X111930000Y-40440000D03*
D20*
X104310000Y-45520000D03*
X110660000Y-42980000D03*
D21*
X106850000Y-40440000D03*
D19*
X101770000Y-40440000D03*
D22*
X113935000Y-42980000D03*
X101008000Y-45520000D03*
%TD*%
D19*
%TO.C,SW2*%
X62470000Y-36930000D03*
D20*
X53580000Y-34390000D03*
D21*
X57390000Y-36930000D03*
D20*
X59930000Y-31850000D03*
D19*
X52310000Y-36930000D03*
D22*
X50305000Y-34390000D03*
X63232000Y-31850000D03*
%TD*%
D20*
%TO.C,SW13*%
X76390000Y-62500000D03*
D21*
X73850000Y-67580000D03*
D20*
X70040000Y-65040000D03*
D19*
X78930000Y-67580000D03*
X68770000Y-67580000D03*
D22*
X66765000Y-65040000D03*
X79692000Y-62500000D03*
%TD*%
D19*
%TO.C,SW16*%
X23916361Y-104807462D03*
D20*
X28040643Y-108712370D03*
D21*
X28690000Y-103070000D03*
D20*
X33138960Y-104153723D03*
D19*
X33463639Y-101332538D03*
D29*
X36216453Y-103033607D03*
X24937778Y-109841720D03*
%TD*%
D19*
%TO.C,SW4*%
X85270000Y-36070000D03*
X95430000Y-36070000D03*
D21*
X90350000Y-36070000D03*
D20*
X94160000Y-38610000D03*
X87810000Y-41150000D03*
D22*
X97435000Y-38610000D03*
X84508000Y-41150000D03*
%TD*%
D19*
%TO.C,SW18*%
X58060000Y-95560000D03*
X68220000Y-95560000D03*
D21*
X63140000Y-95560000D03*
D20*
X66950000Y-98100000D03*
X60600000Y-100640000D03*
D22*
X70225000Y-98100000D03*
X57298000Y-100640000D03*
%TD*%
D30*
%TO.C,U1*%
X43152500Y-80637500D03*
X43952500Y-80637500D03*
X44752500Y-80637500D03*
X45552500Y-80637500D03*
X46352500Y-80637500D03*
X47152500Y-80637500D03*
X47952500Y-80637500D03*
X48752500Y-80637500D03*
X49552500Y-80637500D03*
X50352500Y-80637500D03*
X51152500Y-80637500D03*
D31*
X52815000Y-82300000D03*
X52815000Y-83100000D03*
X52815000Y-83900000D03*
X52815000Y-84700000D03*
X52815000Y-85500000D03*
X52815000Y-86300000D03*
X52815000Y-87100000D03*
X52815000Y-87900000D03*
X52815000Y-88700000D03*
X52815000Y-89500000D03*
X52815000Y-90300000D03*
D30*
X51152500Y-91962500D03*
X50352500Y-91962500D03*
X49552500Y-91962500D03*
X48752500Y-91962500D03*
X47952500Y-91962500D03*
X47152500Y-91962500D03*
X46352500Y-91962500D03*
X45552500Y-91962500D03*
X44752500Y-91962500D03*
X43952500Y-91962500D03*
X43152500Y-91962500D03*
D31*
X41490000Y-90300000D03*
X41490000Y-89500000D03*
X41490000Y-88700000D03*
X41490000Y-87900000D03*
X41490000Y-87100000D03*
X41490000Y-86300000D03*
X41490000Y-85500000D03*
X41490000Y-84700000D03*
X41490000Y-83900000D03*
X41490000Y-83100000D03*
X41490000Y-82300000D03*
%TD*%
D32*
%TO.C,F1*%
X68000000Y-26350000D03*
X68000000Y-29150000D03*
%TD*%
D33*
%TO.C,R5*%
X38112500Y-93850000D03*
X36287500Y-93850000D03*
%TD*%
D34*
%TO.C,R1*%
X84877500Y-28840000D03*
X86702500Y-28840000D03*
%TD*%
D35*
%TO.C,C5*%
X58790000Y-79900000D03*
X60690000Y-79900000D03*
%TD*%
D36*
%TO.C,C7*%
X58860000Y-89810000D03*
X58860000Y-91710000D03*
%TD*%
D34*
%TO.C,R2*%
X84850000Y-31480000D03*
X86675000Y-31480000D03*
%TD*%
D37*
%TO.C,RESET1*%
X69870000Y-86670000D03*
X69870000Y-82510000D03*
X67710000Y-86670000D03*
X67710000Y-82510000D03*
%TD*%
D38*
%TO.C,Y1*%
X65980000Y-91770000D03*
X63080000Y-91770000D03*
X63080000Y-89570000D03*
X65980000Y-89570000D03*
%TD*%
D36*
%TO.C,C4*%
X37460000Y-81880000D03*
X37460000Y-83780000D03*
%TD*%
D39*
%TO.C,C2*%
X54302500Y-93980000D03*
X54302500Y-92080000D03*
%TD*%
D40*
%TO.C,R6*%
X65570000Y-84827500D03*
X65570000Y-86652500D03*
%TD*%
D36*
%TO.C,C6*%
X69520000Y-89940000D03*
X69520000Y-91840000D03*
%TD*%
D40*
%TO.C,R4*%
X48470000Y-62530000D03*
X48470000Y-64355000D03*
%TD*%
%TO.C,R3*%
X45410000Y-62547500D03*
X45410000Y-64372500D03*
%TD*%
D41*
%TO.C,C3*%
X53610000Y-74750000D03*
X51710000Y-74750000D03*
%TD*%
D35*
%TO.C,C1*%
X53120000Y-62940000D03*
X55020000Y-62940000D03*
%TD*%
M02*
